<?xml version="1.0" encoding="UTF-8" standalone="no"?>
<!-- Created with Inkscape (http://www.inkscape.org/) -->

<svg
   xmlns:dc="http://purl.org/dc/elements/1.1/"
   xmlns:cc="http://creativecommons.org/ns#"
   xmlns:rdf="http://www.w3.org/1999/02/22-rdf-syntax-ns#"
   xmlns:svg="http://www.w3.org/2000/svg"
   xmlns="http://www.w3.org/2000/svg"
   xmlns:sodipodi="http://sodipodi.sourceforge.net/DTD/sodipodi-0.dtd"
   xmlns:inkscape="http://www.inkscape.org/namespaces/inkscape"
   width="568.95062"
   height="341.44394"
   viewBox="0 0 568.95063 341.44395"
   id="svg2"
   version="1.1"
   inkscape:version="0.91 r13725"
   sodipodi:docname="bits.svg">
  <defs
     id="defs4" />
  <sodipodi:namedview
     id="base"
     pagecolor="#ffffff"
     bordercolor="#666666"
     borderopacity="1.0"
     inkscape:pageopacity="0.0"
     inkscape:pageshadow="2"
     inkscape:zoom="2.8"
     inkscape:cx="255.35548"
     inkscape:cy="256.66921"
     inkscape:document-units="px"
     inkscape:current-layer="layer1"
     showgrid="false"
     units="px"
     fit-margin-top="0"
     fit-margin-left="0"
     fit-margin-right="0"
     fit-margin-bottom="0"
     inkscape:window-width="1920"
     inkscape:window-height="1026"
     inkscape:window-x="0"
     inkscape:window-y="54"
     inkscape:window-maximized="0" />
  <metadata
     id="metadata7">
    <rdf:RDF>
      <cc:Work
         rdf:about="">
        <dc:format>image/svg+xml</dc:format>
        <dc:type
           rdf:resource="http://purl.org/dc/dcmitype/StillImage" />
        <dc:title></dc:title>
      </cc:Work>
    </rdf:RDF>
  </metadata>
  <g
     inkscape:label="Layer 1"
     inkscape:groupmode="layer"
     id="layer1"
     transform="translate(-13.142136,-648.50847)">
    <rect
       style="opacity:0.5;fill:#ffd5d5;fill-opacity:1;stroke:#aa0000;stroke-width:1.60992026;stroke-miterlimit:4;stroke-dasharray:none;stroke-dashoffset:0;stroke-opacity:1"
       id="rect4330"
       width="533.75568"
       height="22.113436"
       x="47.532131"
       y="690.27747" />
    <rect
       style="opacity:1;fill:#80e5ff;fill-opacity:1;stroke:none;stroke-width:2;stroke-miterlimit:4;stroke-dasharray:none;stroke-dashoffset:0;stroke-opacity:1"
       id="rect5083"
       width="49.497475"
       height="16.162441"
       x="151.01779"
       y="693.25299" />
    <text
       xml:space="preserve"
       style="font-style:normal;font-weight:normal;font-size:17.66120148px;line-height:125%;font-family:sans-serif;letter-spacing:0px;word-spacing:0px;fill:#000000;fill-opacity:1;stroke:none;stroke-width:1px;stroke-linecap:butt;stroke-linejoin:miter;stroke-opacity:1"
       x="52.034782"
       y="712.89185"
       id="text4326"
       sodipodi:linespacing="125%"
       transform="scale(1.0092115,0.99087256)"><tspan
         sodipodi:role="line"
         id="tspan4328"
         x="52.034782"
         y="712.89185"
         style="font-style:normal;font-variant:normal;font-weight:normal;font-stretch:normal;font-size:16.25px;font-family:'Ubuntu Mono';-inkscape-font-specification:'Ubuntu Mono'">0000000000006a93b30000000000000000000000000000000000000000000000</tspan></text>
    <path
       style="opacity:0.5;fill:none;fill-rule:evenodd;stroke:#d40000;stroke-width:2;stroke-linecap:butt;stroke-linejoin:miter;stroke-miterlimit:4;stroke-dasharray:none;stroke-opacity:1"
       d="m 14.142136,701.33416 32.324881,0"
       id="path4334"
       inkscape:connector-curvature="0" />
    <path
       style="opacity:0.5;fill:#b3b3b3;fill-rule:evenodd;stroke:#cccccc;stroke-width:2;stroke-linecap:butt;stroke-linejoin:miter;stroke-miterlimit:4;stroke-dasharray:none;stroke-opacity:1"
       d="m 14.142136,663.45343 0,129.29953"
       id="path4332"
       inkscape:connector-curvature="0" />
    <rect
       style="fill:none;stroke:#000000;stroke-width:4;stroke-miterlimit:4;stroke-dasharray:none;stroke-opacity:1"
       id="rect2982"
       width="218.57144"
       height="208.57144"
       x="230.12553"
       y="779.38098"
       inkscape:export-filename="/home/greg/projects/learnmeabitcoin/content/terms/block-header/block-header.png"
       inkscape:export-xdpi="90"
       inkscape:export-ydpi="90" />
    <rect
       style="fill:#e6e6e6;fill-opacity:1;stroke:none"
       id="rect3754"
       width="207.97969"
       height="70.824516"
       x="235.42142"
       y="784.59021"
       inkscape:export-filename="/home/greg/projects/learnmeabitcoin/content/terms/block-header/block-header.png"
       inkscape:export-xdpi="90"
       inkscape:export-ydpi="90" />
    <rect
       style="opacity:1;fill:#80e5ff;fill-opacity:1;stroke:none;stroke-width:2;stroke-miterlimit:4;stroke-dasharray:none;stroke-dashoffset:0;stroke-opacity:1"
       id="rect5083-6"
       width="46.972092"
       height="16.162441"
       x="304.05591"
       y="816.49152" />
    <text
       xml:space="preserve"
       style="font-style:normal;font-weight:normal;font-size:21.85330582px;line-height:125%;font-family:sans-serif;letter-spacing:0px;word-spacing:0px;fill:#000000;fill-opacity:1;stroke:none;stroke-width:1px;stroke-linecap:butt;stroke-linejoin:miter;stroke-opacity:1"
       x="289.57922"
       y="822.81476"
       id="text4326-2"
       sodipodi:linespacing="125%"
       transform="scale(0.99096361,1.0091188)"><tspan
         sodipodi:role="line"
         id="tspan4328-6"
         x="289.57922"
         y="822.81476"
         style="font-style:normal;font-variant:normal;font-weight:normal;font-stretch:normal;font-size:16.25px;font-family:'Ubuntu Mono';-inkscape-font-specification:'Ubuntu Mono'">1a6a93b3</tspan></text>
    <text
       xml:space="preserve"
       style="font-style:normal;font-weight:normal;font-size:17.5px;line-height:125%;font-family:sans-serif;letter-spacing:0px;word-spacing:0px;fill:#808080;fill-opacity:1;stroke:none;stroke-width:1px;stroke-linecap:butt;stroke-linejoin:miter;stroke-opacity:1"
       x="245.46706"
       y="829.62354"
       id="text5045"
       sodipodi:linespacing="125%"><tspan
         sodipodi:role="line"
         id="tspan5047"
         x="245.46706"
         y="829.62354"
         style="font-size:13.75px;fill:#808080;stroke:none">bits</tspan></text>
    <path
       style="fill:none;fill-rule:evenodd;stroke:#cccccc;stroke-width:1px;stroke-linecap:butt;stroke-linejoin:miter;stroke-opacity:1"
       d="m 281.83258,786.69204 0,64.64976"
       id="path5049"
       inkscape:connector-curvature="0" />
    <path
       style="fill:none;fill-rule:evenodd;stroke:#cccccc;stroke-width:1px;stroke-linecap:butt;stroke-linejoin:miter;stroke-opacity:1"
       d="m 241.42646,808.9154 194.95944,0"
       id="path5051"
       inkscape:connector-curvature="0" />
    <path
       style="fill:none;fill-rule:evenodd;stroke:#cccccc;stroke-width:1px;stroke-linecap:butt;stroke-linejoin:miter;stroke-opacity:1"
       d="m 239.91123,797.80372 194.95944,0"
       id="path5051-5"
       inkscape:connector-curvature="0" />
    <path
       style="fill:none;fill-rule:evenodd;stroke:#cccccc;stroke-width:1px;stroke-linecap:butt;stroke-linejoin:miter;stroke-opacity:1"
       d="m 241.42646,837.70474 194.95944,0"
       id="path5051-5-2"
       inkscape:connector-curvature="0" />
    <path
       style="fill:none;fill-rule:evenodd;stroke:#7f2aff;stroke-width:1.59230125;stroke-linecap:butt;stroke-linejoin:miter;stroke-miterlimit:4;stroke-dasharray:none;stroke-opacity:1"
       d="m 150.88853,715.05875 0,6.18912 426.54293,0 0,-6.18912"
       id="path5100"
       inkscape:connector-curvature="0"
       sodipodi:nodetypes="cccc" />
    <path
       style="fill:none;fill-rule:evenodd;stroke:#7f2aff;stroke-width:1.54512513;stroke-linecap:butt;stroke-linejoin:miter;stroke-miterlimit:4;stroke-dasharray:none;stroke-opacity:1"
       d="m 285.83571,819.54732 0,-4.08288 17.24751,0 0,4.08288"
       id="path5102"
       inkscape:connector-curvature="0" />
    <path
       style="fill:none;fill-rule:evenodd;stroke:#7f2aff;stroke-width:1.60000002;stroke-linecap:butt;stroke-linejoin:miter;stroke-miterlimit:4;stroke-dasharray:none;stroke-opacity:1"
       d="m 295.46962,815.48139 0,-93.43911"
       id="path5104"
       inkscape:connector-curvature="0" />
    <path
       style="opacity:1;fill:#ff0000;fill-opacity:1;stroke:none;stroke-width:1.60000002;stroke-miterlimit:4;stroke-dasharray:none;stroke-dashoffset:0;stroke-opacity:1"
       id="path5859"
       d="m 445.62013,668.8803 c -0.70261,0.72555 -1.34766,1.5048 -1.96435,2.3038 -0.45224,0.50135 -0.85249,1.0458 -1.23766,1.59915 -0.3608,0.54917 -0.81771,1.03571 -1.14038,1.60887 -0.32318,0.47118 -0.63118,0.94883 -0.94623,1.4243 -0.2894,0.4151 -0.56846,0.83262 -0.83068,1.26637 -0.32782,0.49514 -0.61737,1.01223 -0.92896,1.51678 -0.27517,0.44553 -0.36308,0.9683 -0.53178,1.45901 -0.1906,0.55993 -0.18727,1.15516 -0.29461,1.73103 -0.16367,0.57488 -0.24036,1.16402 -0.28283,1.75839 0.008,0.3538 -0.0747,0.69817 -0.15073,1.04072 0,0 -1.39393,-0.31271 -1.39393,-0.31271 l 0,0 c 0.0629,-0.27644 0.13659,-0.54349 0.11984,-0.83146 0.0481,-0.65327 0.12871,-1.30309 0.3069,-1.93548 0.14211,-0.63062 0.0937,-1.30398 0.3444,-1.91497 0.20409,-0.59357 0.31725,-1.22375 0.67287,-1.75416 0.31735,-0.49284 0.58981,-1.01437 0.91901,-1.50067 0.27623,-0.45034 0.5682,-0.88692 0.86609,-1.32158 0.30688,-0.44245 0.58123,-0.90604 0.8959,-1.34405 0.35688,-0.6007 0.80655,-1.1368 1.20511,-1.71009 0.40114,-0.56963 0.80865,-1.13738 1.27801,-1.65391 0.62922,-0.81076 1.27964,-1.60829 1.99655,-2.34389 0,0 1.09746,0.91455 1.09746,0.91455 z"
       inkscape:connector-curvature="0" />
    <path
       style="opacity:1;fill:#ff0000;fill-opacity:1;stroke:none;stroke-width:1.60000002;stroke-miterlimit:4;stroke-dasharray:none;stroke-dashoffset:0;stroke-opacity:1"
       id="path5861"
       d="m 433.19019,679.75147 c 0.62526,0.78251 1.21887,1.58557 1.77674,2.41766 0.33491,0.55209 0.63501,1.12045 0.93958,1.68917 0.24693,0.38898 0.4823,0.74548 0.79595,1.07854 0.3071,0.15495 0.11473,0.1 0.11474,0.0532 2e-5,-0.0387 0.0623,-0.0457 0.0935,-0.0686 0.34269,-0.24208 0.65749,-0.54044 0.93709,-0.85529 0.26725,-0.42333 0.57995,-0.81621 0.87993,-1.21746 0.26318,-0.49113 0.68906,-0.87213 0.96082,-1.35495 0,0 1.22705,0.73155 1.22705,0.73155 l 0,0 c -0.31704,0.51585 -0.7329,0.95785 -1.04378,1.4789 -0.32881,0.43963 -0.66151,0.87333 -0.97084,1.32717 -0.37274,0.39921 -0.76887,0.79046 -1.22344,1.0954 -0.7077,0.39048 -1.4182,0.40095 -2.01567,-0.21121 -0.40032,-0.42622 -0.70468,-0.89084 -1.01541,-1.38421 -0.28129,-0.52818 -0.55899,-1.05485 -0.86703,-1.56814 -0.52801,-0.7919 -1.09357,-1.55317 -1.68668,-2.29723 0,0 1.09746,-0.91455 1.09746,-0.91455 z"
       inkscape:connector-curvature="0" />
    <path
       style="opacity:1;fill:#ff0000;fill-opacity:1;stroke:none;stroke-width:1.60000002;stroke-miterlimit:4;stroke-dasharray:none;stroke-dashoffset:0;stroke-opacity:1"
       id="path5863"
       d="m 439.96506,649.84844 c 0.13718,1.10239 0.22301,2.21001 0.27886,3.31921 0.037,0.81226 0.0415,1.62546 0.0435,2.4384 0.0115,0.75183 -0.17439,1.48788 -0.26582,2.2313 -0.16042,0.61016 -0.31855,1.21358 -0.39028,1.84137 -0.15382,0.58876 -0.29507,1.17342 -0.36024,1.77915 -0.0564,0.66583 -0.0571,1.33469 -0.0602,2.0024 0.003,0.35396 -0.0386,0.70636 0.076,1.04665 0,0 -1.37601,0.38393 -1.37601,0.38393 l 0,0 c -0.1218,-0.47422 -0.15633,-0.94773 -0.12856,-1.43719 0.003,-0.71757 0.005,-1.43643 0.0687,-2.15176 0.0678,-0.60722 0.18067,-1.20416 0.36133,-1.7888 0.0747,-0.62943 0.20315,-1.2454 0.39147,-1.85121 0.0851,-0.68418 0.25453,-1.36214 0.255,-2.05238 -0.002,-0.79021 -0.006,-1.58066 -0.0417,-2.37021 -0.0538,-1.07394 -0.13697,-2.14632 -0.26962,-3.21366 0,0 1.41754,-0.1772 1.41754,-0.1772 z"
       inkscape:connector-curvature="0" />
    <path
       style="opacity:1;fill:#ff0000;fill-opacity:1;stroke:none;stroke-width:1.60000002;stroke-miterlimit:4;stroke-dasharray:none;stroke-dashoffset:0;stroke-opacity:1"
       id="path5865"
       d="m 435.81066,654.8883 c 0.92516,-0.34075 1.87743,-0.59046 2.80508,-0.92221 0.5923,-0.20443 1.22295,-0.33327 1.78581,-0.61597 0.38451,-0.20777 0.80252,-0.3183 1.22624,-0.41023 0,0 0.294,1.39799 0.294,1.39799 l 0,0 c -0.31848,0.0639 -0.62879,0.14617 -0.91509,0.30631 -0.61599,0.27716 -1.2634,0.47477 -1.90998,0.66707 -0.97176,0.34739 -1.96797,0.61354 -2.93958,0.96296 0,0 -0.34648,-1.38592 -0.34648,-1.38592 z"
       inkscape:connector-curvature="0" />
    <path
       style="opacity:1;fill:#ff0000;fill-opacity:1;stroke:none;stroke-width:1.60000002;stroke-miterlimit:4;stroke-dasharray:none;stroke-dashoffset:0;stroke-opacity:1"
       id="path5867"
       d="m 446.6959,657.87997 c -0.72366,0.41282 -1.53302,0.73774 -2.12909,1.33548 -0.42372,0.32604 -0.57842,0.71799 -0.66072,1.22482 -0.0705,0.57096 -0.0897,1.13713 0.0272,1.7003 0.0747,0.31575 0.13015,0.75499 0.47613,0.87899 0.41637,0.16291 0.80759,0.0813 1.22878,0.005 0.40035,-0.17766 0.8311,-0.29058 1.18059,-0.5642 0.39039,-0.22047 0.58454,-0.60297 0.74145,-1.0087 0.18357,-0.58375 0.20257,-1.19993 0.22236,-1.80656 0.012,-0.61061 0.0111,-1.22144 0.007,-1.83213 1.16237,-0.0252 1.42715,-0.2804 1.42535,0.42126 -8e-4,0.31266 -8.7e-4,0.62531 -10e-4,0.93797 0.04,0.66204 -0.0711,1.34119 0.0363,1.9973 0.0582,0.44216 0.34343,0.77943 0.60239,1.12547 0.30639,0.36092 0.59988,0.62241 1.05562,0.75218 0.37196,0.0859 0.75435,0.1003 1.13408,0.11716 0,0 -0.0652,1.42709 -0.0652,1.42709 l 0,0 c -0.50441,-0.0236 -1.01182,-0.0494 -1.50193,-0.1829 -0.7304,-0.24528 -1.28673,-0.65761 -1.76797,-1.2598 -0.40241,-0.54171 -0.79089,-1.09783 -0.87277,-1.7885 -0.0865,-0.72633 -0.0375,-1.45821 -0.0491,-2.18874 1.7e-4,-0.33008 -0.23733,-3.25986 1.43278,-1.36901 0.005,0.63002 0.006,1.26018 -0.007,1.8901 -0.0262,0.77512 -0.0652,1.55968 -0.32705,2.29783 -0.27085,0.64528 -0.62173,1.26458 -1.23962,1.63631 -0.53756,0.36365 -1.13033,0.61479 -1.75098,0.80358 -0.76465,0.13785 -1.50687,0.17877 -2.2232,-0.18832 -0.65266,-0.43692 -1.01358,-1.03864 -1.1367,-1.81897 -0.1456,-0.73977 -0.13823,-1.48408 -0.0335,-2.23103 0.14727,-0.79189 0.4414,-1.4879 1.08245,-2.01082 0.74653,-0.68964 1.65079,-1.15427 2.55139,-1.61388 0,0 0.56274,1.31306 0.56274,1.31306 z"
       inkscape:connector-curvature="0" />
    <path
       style="opacity:1;fill:#ff0000;fill-opacity:1;stroke:none;stroke-width:1.60000002;stroke-miterlimit:4;stroke-dasharray:none;stroke-dashoffset:0;stroke-opacity:1"
       id="path5869"
       d="m 454.04234,664.72915 c 0.32762,-0.92162 0.65645,-1.84404 0.96283,-2.77338 0.21142,-0.63189 0.39528,-1.27705 0.62232,-1.90355 0.21493,-0.52513 0.29843,-1.08422 0.47163,-1.62324 0.1694,-0.84729 0.74637,-1.301 1.5322,-1.55109 0.65408,-0.15004 1.32262,-0.10498 1.97777,-0.23904 0.51027,-0.0958 1.03801,-0.19536 1.50618,-0.4305 0,0 0.59358,1.29942 0.59358,1.29942 l 0,0 c -0.58095,0.25311 -1.19053,0.43504 -1.81765,0.53152 -0.61745,0.12282 -1.23673,0.12629 -1.85866,0.20967 -0.38559,0.0902 -0.49712,0.18233 -0.5735,0.61756 -0.18037,0.55983 -0.2611,1.14441 -0.49426,1.68816 -0.23914,0.59874 -0.38748,1.2417 -0.60329,1.84966 -0.32086,0.96745 -0.65908,1.92959 -1.00608,2.88755 0,0 -1.31307,-0.56274 -1.31307,-0.56274 z"
       inkscape:connector-curvature="0" />
    <path
       style="opacity:1;fill:#ff0000;fill-opacity:1;stroke:none;stroke-width:1.60000002;stroke-miterlimit:4;stroke-dasharray:none;stroke-dashoffset:0;stroke-opacity:1"
       id="path5871"
       d="m 466.54505,657.87368 c -0.90401,0.20753 -1.81817,0.46485 -2.62214,0.93902 -0.47858,0.22452 -0.8041,0.58773 -1.12242,0.98809 -0.28424,0.35377 -0.51683,0.67708 -0.62349,1.11994 -0.10299,0.52963 -0.12616,1.05714 -0.0226,1.58514 0.13557,0.26042 0.3755,0.43253 0.65449,0.52446 0.52626,0.113 1.0807,0.17483 1.61604,0.10388 0.5108,-0.0914 1.0362,-0.26131 1.46326,-0.56368 0.37252,-0.32625 0.63771,-0.72482 0.89388,-1.1443 0.22505,-0.4554 0.24716,-0.97102 0.27575,-1.46898 0.0253,-0.66325 0.0207,-1.32719 0.0182,-1.99078 -0.004,-0.6135 -0.0717,-0.44238 1.42507,0.0173 0.0298,0.009 -0.002,0.80456 -0.002,0.85461 -4.1e-4,0.70291 -2.6e-4,1.40582 -2e-4,2.10873 6e-5,0.71807 8e-5,1.43614 10e-5,2.15422 0.046,0.73243 -0.0783,1.44695 -0.29112,2.14447 -0.16448,0.66612 -0.46967,1.27344 -0.76674,1.88672 -0.34085,0.53526 -0.61313,1.10601 -0.98744,1.61947 -0.26559,0.44364 -0.55992,0.86539 -0.86156,1.28578 -0.33031,0.41862 -0.72778,0.77524 -1.08114,1.17217 -0.55421,0.60156 -1.22723,0.73842 -1.98629,0.48265 -0.56012,-0.28867 -0.92525,-0.82645 -1.29774,-1.31791 -0.41891,-0.38015 -0.61937,-0.84685 -0.6955,-1.39649 0,0 1.42184,-0.13855 1.42184,-0.13855 l 0,0 c -0.0276,0.28822 0.24704,0.47115 0.41673,0.67819 0.20631,0.27973 0.45234,0.54155 0.63347,0.82882 0.2114,0.0844 0.1247,0.21225 0.45057,-0.0978 0.3243,-0.3518 0.67023,-0.68191 0.97972,-1.04715 0.30933,-0.42656 0.60165,-0.85934 0.87815,-1.3083 0.33908,-0.42462 0.52563,-0.94495 0.84397,-1.38458 0.26801,-0.55136 0.54818,-1.0922 0.68994,-1.69398 0.18616,-0.55551 0.25864,-1.12823 0.22456,-1.71347 -10e-6,-0.71804 -3e-5,-1.43609 -10e-5,-2.15413 -5e-5,-0.70343 -2e-4,-1.40686 2.1e-4,-2.11029 5e-5,-0.0532 -0.0328,-0.85049 0.002,-0.86203 1.48473,-0.49543 1.42666,-0.65492 1.43204,-0.0138 0.003,0.69347 0.007,1.38733 -0.0206,2.08038 -0.0445,0.7364 -0.11575,1.48118 -0.48704,2.13647 -0.367,0.58749 -0.75965,1.15007 -1.31404,1.57977 -0.63393,0.41128 -1.35777,0.68958 -2.10776,0.79717 -0.76776,0.0695 -1.55097,0.0272 -2.29309,-0.1967 -0.728,-0.30953 -1.29766,-0.80587 -1.53143,-1.58768 -0.1352,-0.73855 -0.1148,-1.47909 0.0452,-2.21463 0.17418,-0.62777 0.47594,-1.14554 0.88792,-1.64595 0.43299,-0.54058 0.90012,-1.02105 1.53063,-1.33768 0.92934,-0.51948 1.94407,-0.86156 2.98421,-1.08448 0,0 0.34648,1.38592 0.34648,1.38592 z"
       inkscape:connector-curvature="0" />
    <path
       style="opacity:1;fill:#ff0000;fill-opacity:1;stroke:none;stroke-width:1.60000002;stroke-miterlimit:4;stroke-dasharray:none;stroke-dashoffset:0;stroke-opacity:1"
       id="path5873"
       d="m 472.44553,660.5963 c 0.83412,-0.32929 1.6689,-0.69643 2.40362,-1.21667 0.29105,-0.27884 0.43784,-0.69966 0.38382,-1.10072 -0.0625,-0.44514 -0.2088,-0.88828 -0.43099,-1.28087 -0.15111,-0.40105 -0.38197,-0.46957 -0.76882,-0.54657 -0.3586,0.0425 -0.71854,0.0905 -1.0164,0.30998 -0.33752,0.19129 -0.58485,0.51696 -0.74719,0.86733 -0.30435,0.41035 -0.42739,0.86158 -0.49625,1.35792 -0.0792,0.62215 -0.0752,1.2358 0.027,1.85246 0.14415,0.37363 0.27991,0.82956 0.63621,1.05735 0.34896,0.29763 0.7604,0.53779 1.18544,0.71238 0.52507,0.16701 1.08209,0.17835 1.62806,0.19647 0.65224,-0.0257 1.323,0.0809 1.9691,-0.028 0.0856,-0.0176 0.1712,-0.0352 0.2568,-0.0527 0,0 0.2805,1.40077 0.2805,1.40077 l 0,0 c -0.11378,0.0224 -0.22757,0.0447 -0.34136,0.067 -0.73402,0.0899 -1.4749,0.044 -2.21331,0.0407 -0.72379,-0.0249 -1.45896,-0.0557 -2.14502,-0.31224 -0.54124,-0.23967 -1.07532,-0.533 -1.5255,-0.91927 -0.58671,-0.51647 -0.95496,-1.17068 -1.14091,-1.93284 -0.12222,-0.76122 -0.13145,-1.52144 -0.0307,-2.28758 0.0963,-0.64131 0.2535,-1.26567 0.63764,-1.80202 0.3034,-0.5688 0.69901,-1.10859 1.26955,-1.43361 0.64147,-0.37065 1.33482,-0.56661 2.08236,-0.48728 0.75917,0.1837 1.40115,0.52314 1.7198,1.27977 0.297,0.59438 0.54105,1.22181 0.5917,1.89075 10e-4,0.90868 -0.26493,1.73792 -0.99816,2.32525 -0.82311,0.56123 -1.72409,1.00041 -2.65423,1.35531 0,0 -0.56274,-1.31307 -0.56274,-1.31307 z"
       inkscape:connector-curvature="0" />
    <path
       style="opacity:1;fill:#ff0000;fill-opacity:1;stroke:none;stroke-width:1.60000002;stroke-miterlimit:4;stroke-dasharray:none;stroke-dashoffset:0;stroke-opacity:1"
       id="path5875"
       d="m 482.785,648.50847 c 0,1.08881 0,2.17762 0,3.26643 0,0.80144 0,1.60287 0,2.40431 0.0481,0.72078 -0.033,1.41828 -0.17603,2.12229 -0.0569,0.60145 -0.27367,1.16572 -0.40133,1.75219 -0.11164,0.61018 -0.12268,1.23237 -0.13463,1.85076 -0.009,0.70767 -0.006,1.41542 -0.005,2.12313 10e-4,0.71527 0.002,1.43053 0.002,2.1458 1.2e-4,0.38005 1.6e-4,0.76011 2e-4,1.14016 0,0 -1.42857,1.5e-4 -1.42857,1.5e-4 l 0,0 c -4e-5,-0.37991 -8e-5,-0.75982 -2e-4,-1.13974 -2.9e-4,-0.71468 -7.8e-4,-1.42937 -0.002,-2.14406 -10e-4,-0.71777 -0.004,-1.43559 0.005,-2.15333 0.014,-0.71278 0.0312,-1.42968 0.16813,-2.13169 0.12981,-0.57866 0.33855,-1.13413 0.39615,-1.72775 0.12428,-0.61175 0.19691,-1.20964 0.14744,-1.83791 0,-0.80144 0,-1.60287 0,-2.40431 0,-1.08881 0,-2.17762 0,-3.26643 0,0 1.42857,0 1.42857,0 z"
       inkscape:connector-curvature="0" />
    <path
       style="opacity:1;fill:#ff0000;fill-opacity:1;stroke:none;stroke-width:1.60000002;stroke-miterlimit:4;stroke-dasharray:none;stroke-dashoffset:0;stroke-opacity:1"
       id="path5877"
       d="m 478.31066,655.60259 c 1.03723,-0.18856 2.03665,-0.52386 3.06089,-0.76593 0.70913,-0.27894 1.4764,-0.34512 2.20207,-0.55191 0.46084,-0.13034 0.91978,-0.2379 1.36963,-0.40162 0,0 0.48809,1.3426 0.48809,1.3426 l 0,0 c -0.48832,0.17733 -0.98589,0.29956 -1.48592,0.43836 -0.7468,0.19399 -1.51775,0.29402 -2.24654,0.56313 -1.01814,0.23858 -2.0107,0.57566 -3.04174,0.76129 0,0 -0.34648,-1.38592 -0.34648,-1.38592 z"
       inkscape:connector-curvature="0" />
  </g>
</svg>
