<?xml version="1.0" encoding="UTF-8" standalone="no"?>
<!-- Created with Inkscape (http://www.inkscape.org/) -->

<svg
   xmlns:dc="http://purl.org/dc/elements/1.1/"
   xmlns:cc="http://creativecommons.org/ns#"
   xmlns:rdf="http://www.w3.org/1999/02/22-rdf-syntax-ns#"
   xmlns:svg="http://www.w3.org/2000/svg"
   xmlns="http://www.w3.org/2000/svg"
   xmlns:sodipodi="http://sodipodi.sourceforge.net/DTD/sodipodi-0.dtd"
   xmlns:inkscape="http://www.inkscape.org/namespaces/inkscape"
   width="600"
   height="303.10065"
   viewBox="0 0 599.99998 303.10065"
   id="svg4366"
   version="1.1"
   inkscape:version="0.91 r13725"
   sodipodi:docname="txid.svg">
  <defs
     id="defs4368" />
  <sodipodi:namedview
     id="base"
     pagecolor="#ffffff"
     bordercolor="#666666"
     borderopacity="1.0"
     inkscape:pageopacity="0.0"
     inkscape:pageshadow="2"
     inkscape:zoom="1.979899"
     inkscape:cx="280.06554"
     inkscape:cy="154.12705"
     inkscape:document-units="px"
     inkscape:current-layer="layer1"
     showgrid="false"
     inkscape:window-width="1920"
     inkscape:window-height="1026"
     inkscape:window-x="0"
     inkscape:window-y="54"
     inkscape:window-maximized="0"
     fit-margin-top="0"
     fit-margin-left="0"
     fit-margin-right="0"
     fit-margin-bottom="0"
     units="px" />
  <metadata
     id="metadata4371">
    <rdf:RDF>
      <cc:Work
         rdf:about="">
        <dc:format>image/svg+xml</dc:format>
        <dc:type
           rdf:resource="http://purl.org/dc/dcmitype/StillImage" />
        <dc:title></dc:title>
      </cc:Work>
    </rdf:RDF>
  </metadata>
  <g
     inkscape:label="Layer 1"
     inkscape:groupmode="layer"
     id="layer1"
     transform="translate(-140.9135,-20.786773)">
    <g
       id="g4172"
       style="opacity:0.65;stroke:#808080"
       transform="matrix(0.61727363,0,0,0.61727363,248.95075,-327.11665)">
      <path
         inkscape:connector-curvature="0"
         id="path4168"
         d="m 137.38075,783.6617 296.47976,0"
         style="fill:none;fill-rule:evenodd;stroke:#808080;stroke-width:3.00000024;stroke-linecap:butt;stroke-linejoin:miter;stroke-miterlimit:4;stroke-dasharray:none;stroke-opacity:1"
         sodipodi:nodetypes="cc" />
      <path
         inkscape:connector-curvature="0"
         id="path4170"
         d="m 280.82241,783.6617 0,134.35029 152.53303,0"
         style="fill:none;fill-rule:evenodd;stroke:#808080;stroke-width:3.00000024;stroke-linecap:butt;stroke-linejoin:miter;stroke-miterlimit:4;stroke-dasharray:none;stroke-opacity:1"
         sodipodi:nodetypes="ccc" />
    </g>
    <rect
       style="opacity:0.65;fill:#e09500;fill-opacity:1;stroke:none;stroke-width:1.60000002;stroke-miterlimit:4;stroke-dasharray:none;stroke-dashoffset:0;stroke-opacity:1"
       id="rect4136"
       width="47.389076"
       height="47.389076"
       x="286.67493"
       y="132.61073" />
    <rect
       style="opacity:0.65;fill:#e09500;fill-opacity:1;stroke:none;stroke-width:1.60000002;stroke-miterlimit:4;stroke-dasharray:none;stroke-dashoffset:0;stroke-opacity:1"
       id="rect4136-3"
       width="47.389084"
       height="47.389084"
       x="516.81305"
       y="132.61073" />
    <rect
       style="opacity:0.65;fill:#e09500;fill-opacity:1;stroke:none;stroke-width:1.60000002;stroke-miterlimit:4;stroke-dasharray:none;stroke-dashoffset:0;stroke-opacity:1"
       id="rect4136-3-6"
       width="47.389088"
       height="47.389088"
       x="516.44971"
       y="215.85025" />
    <text
       xml:space="preserve"
       style="font-style:normal;font-weight:normal;font-size:17.5px;line-height:125%;font-family:sans-serif;letter-spacing:0px;word-spacing:0px;fill:#006680;fill-opacity:1;stroke:none;stroke-width:1px;stroke-linecap:butt;stroke-linejoin:miter;stroke-opacity:1;"
       x="150.50993"
       y="53.166542"
       id="text4164"
       sodipodi:linespacing="125%"><tspan
         sodipodi:role="line"
         id="tspan4166"
         x="150.50993"
         y="53.166542"
         style="font-style:normal;font-variant:normal;font-weight:bold;font-stretch:normal;font-size:15px;font-family:monospace;-inkscape-font-specification:'monospace Bold';fill:#006680">f4184fc596403b9d638783cf57adfe4c75c605f6356fbc91338530e9831e9e16</tspan></text>
    <path
       style="opacity:1;fill:#0088aa;fill-opacity:1;stroke:none;stroke-width:1;stroke-miterlimit:4;stroke-dasharray:none;stroke-dashoffset:0;stroke-opacity:1"
       id="path4181"
       d="m 328.31855,104.93685 c -1.53982,0 -3.07963,0 -4.61944,0 -1.15354,0 -2.30708,0 -3.46062,0 -1.18978,-0.0813 -2.35483,0.15226 -3.52896,0.29845 -1.47701,0.16174 -2.96408,0.18116 -4.44825,0.19987 -1.60566,0.0139 -3.2114,0.0106 -4.81711,0.01 -1.53891,0.004 -2.89049,-0.11865 -4.39606,0.26274 -1.41677,0.41702 -2.87807,0.58555 -4.3463,0.67786 -1.41681,0.0629 -2.81495,0.31688 -4.2285,0.4373 -1.16437,0.3344 -2.31969,0.69455 -3.47152,1.06904 -1.26711,0.21566 -2.43598,0.72386 -3.63307,1.17472 -1.29234,0.39171 -2.55606,0.87064 -3.77643,1.45388 -1.09035,0.40936 -2.13161,0.92683 -3.149,1.49593 -1.22522,0.62997 -2.43586,1.31233 -3.58982,2.0688 -0.22383,0.12882 -0.44095,0.27007 -0.67149,0.38647 -0.24666,0.12454 -0.51047,0.21273 -0.7581,0.33533 -0.84169,0.41669 -1.61167,0.97288 -2.41991,1.44749 -1.27161,0.78259 -2.51186,1.6031 -3.75367,2.42955 -1.22549,0.90305 -2.48106,1.7606 -3.73102,2.62791 -1.48604,0.99971 -2.99443,1.96985 -4.38941,3.09774 -1.41229,1.07945 -2.85141,2.1267 -4.3434,3.09418 -1.31143,0.86539 -2.34341,2.04001 -3.46873,3.11545 -1.19956,1.20053 -2.74812,1.94341 -3.97723,3.10561 -1.15261,1.0064 -2.21836,2.10526 -3.32322,3.16365 -1.22258,1.21478 -2.45287,2.41667 -3.77903,3.52366 -1.41352,1.27596 -2.82942,2.56909 -4.05396,4.03014 -1.08957,1.20243 -2.18681,2.38392 -3.14874,3.69041 -0.69648,1.13705 -1.54348,2.1644 -2.26227,3.28998 -0.69977,1.25363 -1.5016,2.42555 -2.05595,3.75753 -0.43202,1.32231 -1.08196,2.53395 -1.39046,3.89854 -0.39879,1.18131 -0.59717,2.3967 -0.70207,3.63433 0.0677,1.42119 -0.40854,2.74831 -0.71476,4.1139 -0.28212,1.42672 -0.33023,2.8828 -0.36455,4.33222 0.0545,1.53194 -0.17778,3.09888 0.094,4.61346 0.38219,1.37549 0.63204,2.78014 0.91885,4.17715 0.24952,1.56909 0.78214,3.07005 1.42029,4.51754 0.57974,1.60254 1.24658,3.1703 1.81049,4.77843 0.66955,1.46914 1.51666,2.83259 2.37893,4.19157 0.74397,1.37655 1.58159,2.69323 2.38636,4.03357 1.06081,1.71715 2.21685,3.3638 3.47548,4.94141 1.50596,1.69854 3.02098,3.39206 4.56766,5.05295 1.31325,1.49332 2.64404,2.99973 4.14399,4.31 1.33575,1.29614 2.75452,2.49637 4.17467,3.69895 1.4714,1.21338 3.06671,2.25767 4.5951,3.39263 1.50216,1.02601 3.02066,2.01983 4.51818,3.05356 1.80954,1.07176 3.53368,2.27448 5.366,3.30862 1.78849,1.03025 3.56385,2.06425 5.39696,3.01277 1.89747,0.90178 3.80516,1.78479 5.67696,2.73956 1.94336,1.0072 3.94521,1.87402 5.97849,2.68191 1.9228,0.85632 3.79841,1.78984 5.7175,2.65478 1.99766,0.78861 3.88717,1.81881 5.8929,2.58573 2.00833,0.87129 4.04671,1.66146 6.07504,2.48223 2.00623,0.82371 4.01745,1.6285 6.04665,2.39626 2.09239,0.74399 4.21547,1.38553 6.32931,2.06629 2.07494,0.78136 4.13573,1.61477 6.25117,2.28167 2.01042,0.70738 4.01486,1.44584 6.05841,2.05357 2.151,0.67941 4.29154,1.40085 6.46237,2.01573 2.1382,0.51012 4.24114,1.15878 6.35703,1.75434 2.2336,0.58227 4.41714,1.29245 6.69798,1.67695 2.16016,0.5575 4.35402,0.93072 6.51743,1.47193 2.0944,0.38555 4.12625,1.0255 6.21407,1.44025 2.02639,0.68648 4.14289,0.96018 6.22345,1.40423 2.12013,0.50675 4.27693,0.77028 6.39929,1.26317 2.04216,0.35434 4.06028,0.78602 6.086,1.225 2.03628,0.2676 4.01336,0.82349 6.03217,1.18708 0.97004,0.21105 1.97175,0.18445 2.95048,0.31086 0.90321,0.11666 1.79593,0.37423 2.68332,0.5731 1.85999,0.24974 3.6891,0.6096 5.52772,0.98554 2.02845,0.2454 3.99543,0.79793 6.00341,1.15849 2.04522,0.18277 4.05373,0.50388 6.07127,0.88036 2.04876,0.22064 4.03259,0.77671 6.05676,1.13917 2.04363,0.18237 4.05037,0.50415 6.0662,0.88079 2.04432,0.22785 4.05231,0.59155 6.06898,0.99101 1.98584,0.42761 4.02616,0.37498 6.02622,0.66822 1.97991,0.41749 3.98244,0.66698 5.99943,0.80273 2.05533,0.096 4.06274,0.59712 6.10325,0.84994 1.31351,0.20437 2.65143,0.12442 3.9702,0.23596 0.64995,0.055 1.48445,0.21538 2.12838,0.32817 1.96687,0.39503 3.9647,0.55772 5.96507,0.6505 2.07612,-0.0783 4.09817,0.37948 6.13785,0.68452 1.97551,0.27854 3.97146,0.33621 5.96319,0.37407 2.19898,-0.11689 4.35223,0.33046 6.5174,0.63301 2.02499,0.27284 4.0685,0.33698 6.10878,0.37625 2.11321,0.31272 4.21244,0.66562 6.34284,0.84796 2.15387,-0.002 4.25037,0.47383 6.36817,0.79682 2.10984,0.33885 4.25324,0.2398 6.36729,0.50496 2.05352,0.38752 4.12186,0.64821 6.20609,0.78703 2.06973,0.38662 4.13143,0.75782 6.23023,0.94369 2.17482,0.002 4.29358,0.47358 6.43307,0.79619 2.06609,0.1437 4.08927,0.46736 6.12281,0.8469 1.96053,0.36412 3.95341,0.46231 5.9421,0.5226 2.03606,0.30473 4.05563,0.67451 6.10737,0.86487 2.04971,0.14572 4.04835,0.65644 6.08668,0.916 1.9829,0.22124 3.97987,0.24763 5.97278,0.26823 2.04407,0.27182 4.06791,0.64336 6.12304,0.83336 1.99435,0.15644 3.99599,0.16858 5.99527,0.17996 2.06945,-0.011 4.09869,0.48829 6.14777,0.73614 1.98529,0.21467 3.98355,0.24539 5.97831,0.26791 1.89874,-0.1645 3.72298,0.30328 5.57403,0.62556 1.83785,0.29042 3.701,0.3364 5.55756,0.37327 2.0086,0.0268 4.01745,0.0205 6.02618,0.0183 2.07308,-0.0202 4.1062,0.48317 6.15828,0.73276 1.98528,0.21613 3.98366,0.24738 5.97854,0.2702 2.01706,0.0142 4.0342,0.008 6.05129,0.006 1.89853,-0.002 3.79705,-0.003 5.69558,-0.004 1.87291,-3.7e-4 3.74582,-3.4e-4 5.61873,-3.4e-4 1.63337,0.18082 3.16559,-0.29102 4.74665,-0.59489 1.47635,-0.17824 2.92892,-0.49812 4.40186,-0.69916 1.30108,-0.36139 2.51793,-0.92033 3.7357,-1.49284 1.34252,-0.55835 2.60106,-1.30156 3.89684,-1.96387 0.81547,-0.71946 1.75919,-1.25649 2.62933,-1.89434 0.98527,-0.6236 1.82452,-1.4545 2.69875,-2.22333 1.41847,-1.17777 2.81283,-2.40351 4.05731,-3.76558 0.97634,-1.19866 2.16158,-2.22412 3.07715,-3.47119 0.83076,-1.07352 1.64437,-2.14972 2.39264,-3.28278 0.70441,-1.2685 1.45361,-2.51432 2.23979,-3.73491 0.59975,-1.18859 1.14192,-2.41512 1.64128,-3.65239 0.60924,-1.21295 0.88494,-2.5481 1.295,-3.83592 0.38608,-1.62103 0.96802,-3.18309 1.37278,-4.79934 0.27769,-1.61174 0.55188,-3.22576 0.7387,-4.85152 0.16374,-1.64904 0.18385,-3.30741 0.19993,-4.96306 0.01,-1.72649 0.005,-3.45302 0.003,-5.17953 -0.002,-1.72708 -0.003,-3.45416 -0.003,-5.18124 -0.059,-1.73908 0.12937,-3.49464 -0.11446,-5.22085 -0.35499,-1.80768 -0.62037,-3.62963 -0.91623,-5.4474 -0.20262,-0.90028 -0.19021,-1.83406 -0.32918,-2.74148 -0.1152,-0.75222 -0.38054,-1.5066 -0.56454,-2.2441 -0.0574,-0.26086 -0.10197,-0.52489 -0.1723,-0.78257 -0.14047,-0.51464 -0.3453,-1.00973 -0.50038,-1.52016 -0.25848,-0.8507 -0.42088,-1.7096 -0.71315,-2.54963 -0.53246,-1.60354 -1.09164,-3.20045 -1.55598,-4.82575 -0.3221,-0.88432 -0.45752,-1.82368 -0.71395,-2.72448 -0.21475,-0.75439 -0.54549,-1.48887 -0.7884,-2.23605 -0.52008,-1.58336 -1.27701,-3.05725 -1.90854,-4.59259 -0.83798,-1.27387 -1.29647,-2.73499 -1.96922,-4.08564 -0.52843,-1.41649 -1.29781,-2.69662 -2.05769,-3.9955 -0.90055,-1.53892 -1.92501,-2.99551 -2.75988,-4.57374 -0.85972,-1.25985 -1.5511,-2.61555 -2.3618,-3.90808 -0.78557,-1.37673 -1.65885,-2.70029 -2.53296,-4.02207 -0.97383,-1.45161 -1.98183,-2.89619 -2.77482,-4.4566 -0.70327,-1.33902 -1.64395,-2.50089 -2.64318,-3.62738 -1.21382,-1.49249 -2.39596,-3.01309 -3.645,-4.47837 -1.61076,-1.76534 -2.86403,-3.79797 -4.42187,-5.60848 -1.77707,-1.96669 -3.66962,-3.82481 -5.54674,-5.69496 -1.89338,-1.70663 -3.93475,-3.23641 -5.88612,-4.87149 -1.35387,-0.9584 -2.27372,-2.40452 -3.63823,-3.33629 -1.15329,-0.97901 -2.53872,-1.60726 -3.86088,-2.32004 -1.25223,-0.88752 -2.59167,-1.61526 -3.83402,-2.52019 -1.22494,-0.87975 -2.4558,-1.70926 -3.82541,-2.35272 -1.25136,-0.52427 -2.45964,-1.15127 -3.65975,-1.7867 -1.38257,-0.67633 -2.73654,-1.39769 -4.20563,-1.87062 -1.36149,-0.68183 -2.8155,-1.10639 -4.18916,-1.75463 -1.19587,-0.44264 -2.40489,-0.87347 -3.66223,-1.10429 -1.35231,-0.48941 -2.72092,-0.9084 -4.07038,-1.40563 -1.41618,-0.40864 -2.81398,-0.87058 -4.27057,-1.1124 -1.74104,-0.4808 -3.49508,-0.88855 -5.22829,-1.39634 -1.69503,-0.29248 -3.25278,-1.02471 -4.91075,-1.44667 -1.75996,-0.61057 -3.57074,-1.02659 -5.34771,-1.58091 -1.66044,-0.41865 -3.31745,-0.85949 -5.00943,-1.13407 -1.4399,-0.47941 -2.89644,-0.86443 -4.31043,-1.41566 -1.64075,-0.49881 -3.29214,-0.97326 -4.90171,-1.56992 -1.84253,-0.60174 -3.64379,-1.32644 -5.52132,-1.81692 -1.89393,-0.43766 -3.77459,-0.90522 -5.65821,-1.38846 -1.92801,-0.43282 -3.81583,-1.03441 -5.69101,-1.65504 -1.71344,-0.44066 -3.40372,-0.92523 -5.10463,-1.41391 -1.69697,-0.305 -3.33202,-0.84918 -5.02291,-1.1836 -1.74232,-0.31853 -3.48381,-0.61123 -5.24855,-0.77222 -1.83516,0.0207 -3.60202,-0.45997 -5.39693,-0.76574 -1.7071,-0.28406 -3.43924,-0.33732 -5.16575,-0.37487 -1.85357,-0.007 -3.65974,-0.5068 -5.49063,-0.75508 -1.78264,-0.20947 -3.5789,-0.24265 -5.37163,-0.26446 -1.71726,0.16922 -3.34489,-0.31178 -5.0092,-0.62722 -1.68502,-0.28073 -3.39509,-0.33442 -5.09936,-0.37123 -1.2258,-0.0821 -2.46557,0.0614 -3.69026,-0.0201 -0.62732,-0.0417 -1.35178,-0.18764 -1.97029,-0.29773 -1.78143,-0.37495 -3.5887,-0.54933 -5.40369,-0.6415 -1.80039,-0.0742 -3.60278,-0.07 -5.40434,-0.0709 -1.79456,0.0159 -3.58176,0.0403 -5.36837,-0.14212 -1.61717,-0.21327 -3.24659,-0.28058 -4.87549,-0.32342 -1.83738,-0.037 -3.67522,-0.0355 -5.51287,-0.036 -1.95641,7.1e-4 -3.91282,0.002 -5.86924,0.003 -1.89111,6.4e-4 -3.78222,6.9e-4 -5.67333,7.4e-4 -2.00093,3e-5 -4.00186,1e-5 -6.0028,1e-5 -1.29509,-0.0659 -2.60428,0.0843 -3.89817,-1e-5 -0.64011,-0.0417 -1.36291,-0.1874 -1.99392,-0.2994 -1.90158,-0.39436 -3.83539,-0.55314 -5.77135,-0.6463 -2.00416,-0.0742 -4.01011,-0.0707 -6.01532,-0.0716 -2.04888,-0.25739 -4.07551,-0.63316 -6.13342,-0.82468 -1.99428,-0.15792 -3.99597,-0.17074 -5.99527,-0.18251 -1.77433,-0.26374 -3.51944,-0.64738 -5.30672,-0.82995 -1.92902,-0.16089 -3.86629,-0.16911 -5.80067,-0.18035 -2.0461,-0.26616 -4.0713,-0.63864 -6.12766,-0.82907 -1.99531,-0.15703 -3.99795,-0.16952 -5.99822,-0.18108 -1.32091,-0.0698 -2.65544,0.0824 -3.97511,-0.001 -0.64839,-0.041 -1.34776,-0.18343 -1.98641,-0.2972 -1.87901,-0.39391 -3.79062,-0.55092 -5.70431,-0.64325 -1.8627,-0.0743 -3.7273,-0.0706 -5.59114,-0.0714 -1.91346,10e-4 -3.82692,0.004 -5.74039,0.006 -2.00771,0.14125 -3.95945,-0.13039 -5.93033,-0.46676 -1.88772,-0.32565 -3.80079,-0.44318 -5.71243,-0.50897 -1.92541,-0.0474 -3.85164,-0.0407 -5.77748,-0.0395 -1.83265,0.0527 -3.60882,-0.48425 -5.41397,-0.73363 -1.88866,-0.22313 -3.79277,-0.24626 -5.69207,-0.2682 -1.87733,-0.0142 -3.75474,-0.008 -5.63211,-0.006 -1.98478,-0.0495 -3.98124,0.13041 -5.9534,-0.12382 -1.61018,-0.37632 -3.22972,-0.641533 -4.87762,-0.770772 -1.79112,-0.111441 -3.58643,-0.113277 -5.38025,-0.118049 -1.78805,-0.0012 -3.5761,0.0026 -5.36415,0.0045 -1.77875,0.0017 -3.55751,0.002 -5.33626,0.0022 -1.75867,1.26e-4 -3.51734,8.4e-5 -5.27601,6.7e-5 -1.78928,0.150725 -3.51448,-0.306965 -5.25814,-0.620493 -1.63128,-0.27473 -3.28534,-0.337216 -4.93573,-0.376511 -1.46297,-0.02543 -2.92624,-0.02116 -4.38936,-0.01861 0,0 -0.003,-1.515226 -0.003,-1.515226 l 0,0 c 1.47608,-0.0026 2.9523,-0.0068 4.42822,0.01904 1.72826,0.04148 3.46015,0.110049 5.16801,0.400057 1.65663,0.298656 3.2892,0.746017 4.98966,0.596514 1.75861,1.7e-5 3.51722,5.9e-5 5.27582,-6.6e-5 1.77828,-1.92e-4 3.55655,-4.85e-4 5.33483,-0.0022 1.78993,-0.0019 3.57986,-0.0057 5.36979,-0.0045 1.83225,0.0049 3.66604,0.0073 5.49545,0.122742 1.6756,0.133074 3.3264,0.390189 4.96257,0.779891 1.89725,0.275 3.83583,0.03087 5.74734,0.110003 1.88384,-0.0023 3.76772,-0.0082 5.65152,0.0061 1.96305,0.02279 3.93101,0.04846 5.8827,0.282468 1.73604,0.241709 3.44497,0.755393 5.20484,0.71926 1.9436,-0.0012 3.8876,-0.008 5.83076,0.04037 1.97952,0.06863 3.96034,0.192145 5.91503,0.529665 1.88768,0.32218 3.75005,0.58886 5.67422,0.44517 1.9141,-0.001 3.8282,-0.004 5.7423,-0.006 1.88803,9e-4 3.77684,-0.003 5.66371,0.0732 1.97861,0.0962 3.9551,0.25967 5.89812,0.6652 0.39688,0.0715 1.30038,0.24713 1.71756,0.27347 1.32318,0.0835 2.66121,-0.0689 3.98564,0.001 2.04412,0.0119 4.09066,0.0255 6.1296,0.18755 2.01243,0.18753 3.99802,0.53022 5.99633,0.8226 1.98309,0.0116 3.96916,0.0209 5.94659,0.18825 1.7383,0.17932 3.4418,0.5213 5.16091,0.82205 2.04333,0.0121 4.08908,0.026 6.12717,0.18905 2.01107,0.18831 3.99519,0.53328 5.99325,0.81812 2.02936,9e-4 4.05947,-0.002 6.08775,0.0734 2.00059,0.097 3.99899,0.2622 5.96432,0.66807 0.38253,0.0686 1.32164,0.24937 1.72786,0.27586 1.29388,0.0844 2.60308,-0.0659 3.89817,10e-6 2.00092,0 4.00183,2e-5 6.00275,-10e-6 1.89093,-5e-5 3.78186,-1e-4 5.67279,-7.4e-4 1.95673,-7.5e-4 3.91346,-0.002 5.87019,-0.003 1.85085,4.6e-4 3.70189,-9.4e-4 5.55245,0.0365 1.66714,0.0441 3.33484,0.11352 4.99007,0.3308 1.73523,0.17872 3.47146,0.14639 5.21458,0.13422 1.82706,9e-4 3.65496,-0.003 5.4808,0.0729 1.87844,0.0963 3.74924,0.27676 5.59324,0.66319 0.36354,0.0653 1.31445,0.24815 1.70425,0.27406 1.23537,0.0821 2.48593,-0.0626 3.7224,0.0204 1.78815,0.0389 3.58222,0.0984 5.34949,0.39754 1.58023,0.30126 3.11301,0.76952 4.74471,0.60067 1.85485,0.0227 3.71331,0.0587 5.55743,0.27818 1.77418,0.24219 3.52528,0.72341 5.3194,0.74161 1.8009,0.0395 3.60733,0.0983 5.3877,0.39613 1.75711,0.30062 3.48322,0.77436 5.28015,0.75044 1.81733,0.16715 3.61148,0.46569 5.40569,0.79497 1.73232,0.34586 3.40911,0.89485 5.14687,1.2137 0.77106,0.22255 1.53444,0.52495 2.31299,0.71622 0.94932,0.23323 1.93285,0.34672 2.84842,0.71527 1.84247,0.60984 3.69651,1.20318 5.59154,1.62585 1.88642,0.48425 3.76929,0.9529 5.66638,1.39058 1.92538,0.50791 3.77663,1.24026 5.66582,1.8627 1.61441,0.60573 3.27895,1.06394 4.92281,1.57796 1.31599,0.51314 2.67184,0.85929 4.00373,1.33189 1.76173,0.2882 3.48889,0.74176 5.21694,1.18309 1.75231,0.54662 3.53878,0.95473 5.27343,1.5598 1.67389,0.4334 3.2491,1.15711 4.95983,1.46016 1.67595,0.49101 3.37247,0.88093 5.0533,1.35616 1.54852,0.26286 3.03966,0.73964 4.54346,1.18491 1.27019,0.46811 2.56133,0.85036 3.82479,1.33796 1.38278,0.26229 2.7196,0.71996 4.0312,1.22372 1.31506,0.62214 2.71193,1.0182 4.0107,1.68377 1.54934,0.5088 2.98894,1.24881 4.44628,1.97263 1.18005,0.62582 2.36546,1.24617 3.59886,1.75617 1.45069,0.69189 2.77023,1.5614 4.07021,2.49828 1.18532,0.86738 2.46988,1.55425 3.66028,2.4106 1.37372,0.74221 2.81282,1.39876 4.01334,2.41438 1.38011,0.99286 2.38862,2.38077 3.74024,3.41476 1.98134,1.66598 4.06428,3.21384 5.98143,4.95869 1.90476,1.89769 3.8252,3.78326 5.62645,5.78076 1.55742,1.81421 2.82077,3.8409 4.42604,5.61335 1.24212,1.45828 2.41924,2.97056 3.62575,4.45622 1.08415,1.22474 2.09976,2.49554 2.86236,3.95064 0.75425,1.51331 1.75385,2.8964 2.68602,4.30332 0.87882,1.33314 1.75982,2.66651 2.55268,4.05273 0.82882,1.3253 1.5412,2.71151 2.41782,4.00535 0.82072,1.56055 1.84303,2.99394 2.728,4.51636 0.77648,1.331 1.5648,2.64537 2.11018,4.09343 0.67181,1.39067 1.17728,2.86297 2.01089,4.17849 0.63872,1.572 1.42031,3.07875 1.94746,4.69893 0.53812,1.6653 1.12471,3.3028 1.51828,5.01288 0.45406,1.60107 1.00923,3.17224 1.53266,4.75119 0.54794,1.63126 0.92846,3.32736 1.42205,4.97523 0.42139,1.69118 0.77752,3.36608 0.91906,5.10877 0.29816,1.83232 0.56714,3.66847 0.92268,5.49103 0.22717,1.79754 0.0946,3.61112 0.12768,5.42028 3.7e-4,1.72663 9.5e-4,3.45327 0.003,5.1799 0.002,1.73198 0.007,3.46399 -0.003,5.19595 -0.0167,1.70863 -0.0387,3.42004 -0.20981,5.12167 -0.19521,1.69143 -0.47762,3.37173 -0.77441,5.04735 -0.41483,1.64636 -1.0023,3.2389 -1.39856,4.88993 -0.42201,1.32501 -0.70901,2.69888 -1.33544,3.94757 -0.24402,0.59482 -0.56329,1.15866 -0.79943,1.75474 -0.29041,0.73309 -0.50408,1.49439 -0.9721,2.14789 -0.79162,1.22381 -1.53752,2.47719 -2.24868,3.74851 -0.76502,1.15733 -1.59644,2.25589 -2.44272,3.35404 -0.96506,1.27589 -2.14814,2.36461 -3.17529,3.5896 -1.28809,1.39607 -2.7093,2.67104 -4.17396,3.87961 -0.91327,0.79966 -1.7891,1.66393 -2.81606,2.3164 -0.94486,0.66486 -1.9144,1.28701 -2.82209,2.01168 -1.31066,0.66903 -2.58485,1.41852 -3.94153,1.98578 -1.35551,0.63706 -2.71629,1.25944 -4.17637,1.62299 -1.44589,0.1953 -2.87115,0.51392 -4.32055,0.68586 -1.6718,0.31947 -3.30604,0.80474 -5.03188,0.62198 -1.87277,-10e-6 -3.74554,-3e-5 -5.61831,3.4e-4 -1.89807,5.2e-4 -3.79614,0.001 -5.6942,0.004 -2.02348,0.002 -4.04701,0.008 -6.07046,-0.006 -2.05033,-0.0236 -4.10422,-0.0572 -6.1445,-0.28123 -1.99081,-0.2432 -3.96384,-0.72979 -5.9733,-0.72163 -2.01933,0.002 -4.0388,0.009 -6.058,-0.0186 -1.93368,-0.0386 -3.874,-0.0896 -5.78771,-0.3955 -1.77258,-0.30965 -3.51166,-0.76839 -5.33085,-0.60313 -2.04997,-0.0233 -4.10347,-0.0563 -6.14352,-0.27882 -1.99153,-0.24195 -3.96435,-0.72545 -5.97406,-0.72515 -2.04309,-0.0117 -4.0886,-0.0249 -6.12656,-0.18641 -2.01353,-0.18734 -4.00007,-0.52997 -5.9988,-0.82697 -2.05182,-0.0213 -4.10778,-0.0501 -6.14906,-0.28036 -2.02123,-0.25893 -4.00376,-0.76011 -6.03516,-0.91031 -2.01994,-0.18868 -4.01213,-0.53242 -6.01298,-0.85905 -2.06651,-0.0631 -4.13704,-0.16834 -6.17407,-0.54762 -2.01687,-0.37654 -4.02142,-0.69518 -6.07094,-0.83816 -2.10939,-0.31876 -4.19651,-0.78662 -6.34109,-0.78516 -2.08712,-0.18626 -4.14212,-0.53565 -6.19709,-0.94111 -2.11488,-0.14184 -4.21489,-0.40105 -6.29847,-0.79606 -2.12276,-0.28123 -4.28394,-0.14661 -6.40257,-0.50992 -2.08535,-0.31877 -4.14781,-0.78983 -6.26905,-0.78501 -2.09655,-0.18046 -4.16657,-0.50684 -6.24248,-0.84269 -2.10069,-0.0406 -4.20457,-0.10861 -6.28937,-0.39057 -2.10577,-0.29461 -4.19759,-0.73654 -6.33646,-0.61869 -2.05714,-0.0393 -4.11849,-0.10114 -6.15864,-0.39049 -1.98937,-0.29812 -3.95874,-0.75023 -5.98398,-0.66946 -2.06458,-0.0964 -4.12653,-0.26544 -6.15676,-0.67171 -0.43538,-0.0767 -1.45849,-0.26789 -1.91223,-0.30602 -1.36572,-0.11477 -2.75092,-0.0345 -4.11102,-0.24682 -2.01243,-0.2507 -3.99273,-0.74087 -6.01858,-0.84182 -2.05789,-0.13956 -4.10228,-0.38967 -6.1224,-0.81611 -2.01961,-0.31196 -4.09056,-0.22456 -6.09561,-0.6803 -2.01165,-0.39872 -4.01342,-0.75933 -6.05281,-0.98789 -2.01281,-0.37621 -4.01506,-0.6933 -6.05559,-0.87885 -2.02761,-0.36484 -4.0147,-0.91914 -6.06702,-1.14105 -2.01489,-0.37612 -4.01928,-0.69252 -6.06174,-0.87862 -2.01973,-0.36449 -3.99835,-0.91676 -6.03865,-1.16526 -1.84827,-0.37832 -3.68597,-0.73653 -5.55544,-0.99148 -0.81092,-0.18181 -1.63692,-0.43489 -2.46239,-0.54044 -1.03182,-0.13195 -2.08685,-0.10865 -3.10927,-0.33095 -2.03607,-0.36862 -4.03042,-0.92525 -6.08401,-1.19738 -2.03308,-0.44119 -4.05815,-0.87299 -6.10778,-1.22989 -2.1139,-0.49131 -4.26342,-0.74951 -6.37479,-1.2577 -2.07129,-0.44859 -4.18438,-0.70778 -6.20121,-1.39962 -2.11152,-0.42214 -4.16768,-1.06333 -6.28568,-1.45633 -2.12549,-0.53184 -4.28149,-0.8955 -6.40275,-1.4479 -2.33347,-0.39715 -4.5713,-1.11102 -6.85567,-1.71242 -2.1167,-0.59654 -4.2206,-1.2451 -6.35992,-1.75515 -2.17673,-0.61884 -4.32457,-1.3388 -6.48167,-2.02134 -2.05068,-0.61297 -4.0649,-1.34796 -6.08224,-2.06089 -2.11694,-0.67115 -4.18365,-1.49572 -6.2589,-2.28414 -2.13794,-0.68867 -4.28489,-1.33888 -6.40122,-2.09147 -2.03984,-0.77256 -4.06199,-1.58177 -6.07931,-2.40906 -2.01876,-0.81939 -4.0501,-1.60238 -6.04896,-2.47194 -2.03092,-0.78245 -3.95085,-1.8135 -5.97287,-2.61908 -1.89807,-0.85677 -3.75436,-1.77708 -5.65446,-2.62804 -2.07658,-0.82658 -4.12205,-1.71232 -6.10766,-2.74043 -1.87335,-0.9578 -3.78549,-1.83798 -5.68433,-2.74334 -1.84971,-0.95764 -3.64138,-2.00046 -5.4464,-3.03953 -1.86984,-1.05957 -3.63572,-2.28058 -5.48102,-3.38066 -1.51242,-1.04462 -3.04702,-2.04692 -4.56296,-3.0857 -1.54826,-1.1597 -3.17636,-2.2138 -4.6686,-3.45105 -1.42697,-1.20852 -2.85214,-2.41564 -4.19542,-3.71686 -1.5317,-1.35208 -2.9117,-2.87902 -4.25367,-4.41661 -1.5704,-1.69133 -3.11639,-3.4083 -4.64278,-5.14016 -1.29937,-1.63085 -2.49504,-3.33247 -3.59042,-5.10711 -0.79583,-1.33077 -1.63086,-2.63444 -2.36628,-4.00101 -0.92291,-1.45632 -1.83106,-2.91953 -2.52943,-4.50239 -0.54905,-1.57138 -1.20482,-3.10107 -1.76685,-4.66788 -0.68117,-1.54553 -1.2454,-3.15068 -1.51807,-4.824 -0.29092,-1.41713 -0.54876,-2.84037 -0.92993,-4.23731 -0.24606,-1.61809 -0.0989,-3.26125 -0.11349,-4.89409 0.0371,-1.54903 0.0933,-3.10484 0.40102,-4.6285 0.2936,-1.30277 0.75542,-2.55414 0.68337,-3.91066 0.11275,-1.30752 0.31531,-2.59689 0.73527,-3.84552 0.33888,-1.44722 0.99413,-2.74687 1.47028,-4.14572 0.59707,-1.40692 1.4243,-2.6627 2.17571,-3.98573 0.73737,-1.15398 1.60432,-2.20731 2.31904,-3.37269 0.98199,-1.33366 2.09698,-2.54322 3.21042,-3.76865 1.28996,-1.52229 2.75496,-2.88956 4.24238,-4.21749 1.30176,-1.08299 2.50442,-2.26421 3.70257,-3.45543 1.11309,-1.05952 2.18067,-2.16661 3.33821,-3.17778 1.24387,-1.14057 2.73757,-1.93435 3.96465,-3.09378 1.19878,-1.13324 2.29022,-2.38455 3.69013,-3.28981 1.45087,-0.93511 2.84367,-1.95791 4.21662,-3.0026 1.42899,-1.14346 2.95674,-2.14795 4.47662,-3.16285 1.26004,-0.86954 2.51997,-1.73767 3.75471,-2.64397 1.26701,-0.84051 2.52985,-1.67949 3.82697,-2.4753 1.25335,-0.73066 2.46293,-1.52967 3.7865,-2.13032 1.18728,-0.77223 2.42578,-1.47772 3.68339,-2.12519 1.04769,-0.57663 2.1152,-1.12135 3.23508,-1.54012 1.26047,-0.59258 2.55833,-1.10236 3.8911,-1.50253 1.21619,-0.4579 2.41268,-0.97537 3.69908,-1.19785 1.26109,-0.40895 2.52331,-0.82243 3.81141,-1.1377 1.42478,-0.12033 2.83377,-0.3797 4.26231,-0.43978 1.37688,-0.085 2.74657,-0.24152 4.07444,-0.6359 1.59061,-0.39037 3.1359,-0.3314 4.76325,-0.30764 1.599,0.001 3.19804,0.004 4.797,-0.009 1.42806,-0.0179 2.85894,-0.0352 4.28034,-0.18841 1.23563,-0.15342 2.46401,-0.39209 3.71592,-0.31002 1.15354,0 2.30708,0 3.46062,0 1.53981,0 3.07962,0 4.61944,0 0,0 0,1.51523 0,1.51523 z"
       inkscape:connector-curvature="0" />
    <path
       style="opacity:1;fill:#0088aa;fill-opacity:1;stroke:none;stroke-width:1;stroke-miterlimit:4;stroke-dasharray:none;stroke-dashoffset:0;stroke-opacity:1"
       id="path4183"
       d="m 418.0024,62.647268 c 0.33276,1.389543 0.61924,2.786406 0.80112,4.20386 0.10167,1.04247 0.39076,2.047101 0.52025,3.087691 0.0808,0.959877 0.36014,1.884981 0.49926,2.838169 0.22277,0.739324 0.38992,1.486174 0.65701,2.21027 0.23295,0.729638 0.41711,1.488498 0.76148,2.176793 0.31594,0.743592 0.611,1.499536 0.87627,2.263944 0.37092,0.743294 0.70076,1.509863 0.9685,2.296457 0.30737,0.75729 0.68374,1.481825 0.99405,2.23707 0.40628,0.6616 0.62565,1.405754 0.92298,2.117413 0.3279,0.704422 0.55646,1.453797 0.8639,2.165815 0.33863,0.848425 0.6739,1.693969 0.89679,2.581381 0.22378,1.031048 0.25318,2.088513 0.27457,3.139152 0,0 -1.51493,0.03058 -1.51493,0.03058 l 0,0 c -0.0188,-0.938156 -0.0397,-1.88282 -0.23035,-2.80514 -0.19875,-0.81486 -0.51978,-1.585714 -0.82543,-2.364819 -0.29131,-0.719998 -0.53595,-1.457145 -0.86269,-2.162926 -0.29961,-0.717363 -0.52365,-1.462177 -0.92882,-2.13159 -0.31389,-0.785931 -0.72054,-1.532275 -1.02599,-2.323163 -0.26158,-0.78639 -0.61288,-1.53892 -0.96557,-2.287855 -0.24176,-0.712507 -0.52168,-1.414643 -0.81234,-2.107037 -0.33994,-0.740776 -0.59163,-1.519022 -0.81415,-2.302048 -0.30307,-0.82282 -0.50314,-1.671997 -0.73489,-2.517344 -0.138,-0.963644 -0.42951,-1.897825 -0.5035,-2.869778 -0.12656,-1.038125 -0.427,-2.039164 -0.51941,-3.081025 -0.18048,-1.419426 -0.48344,-2.81371 -0.80164,-4.207933 0,0 1.50353,-0.187941 1.50353,-0.187941 z"
       inkscape:connector-curvature="0" />
    <path
       style="opacity:1;fill:#0088aa;fill-opacity:1;stroke:none;stroke-width:1;stroke-miterlimit:4;stroke-dasharray:none;stroke-dashoffset:0;stroke-opacity:1"
       id="path4185"
       d="m 419.08447,89.409513 c 0.93241,0.923405 1.72218,1.99968 2.7546,2.816899 0.58459,0.602538 1.34774,0.881967 2.09657,1.213715 0.75507,0.239411 1.51493,0.475987 2.23834,0.801977 0.46894,0.20882 1.06205,0.551951 1.57359,0.282904 0.64583,-0.236577 1.09671,-0.779177 1.58988,-1.234057 0.50361,-0.535432 1.03015,-1.04422 1.50866,-1.60336 0.47423,-0.675229 0.97536,-1.335813 1.53904,-1.939373 0.49148,-0.493513 0.90595,-1.031968 1.28577,-1.615061 0.3262,-0.394491 0.63543,-0.802383 0.90582,-1.236951 0,0 1.28089,0.809467 1.28089,0.809467 l 0,0 c -0.28057,0.438872 -0.57814,0.868189 -0.92143,1.261153 -0.4334,0.652114 -0.90264,1.266202 -1.45202,1.824485 -0.5578,0.573826 -1.01263,1.240447 -1.48745,1.882183 -0.51836,0.604286 -1.08716,1.156305 -1.63439,1.73349 -0.65788,0.600964 -1.27303,1.281559 -2.15025,1.560292 -0.94518,0.256261 -1.81479,0.119206 -2.67796,-0.35167 -0.7038,-0.346042 -1.48122,-0.518285 -2.21351,-0.790679 -0.86423,-0.384669 -1.75151,-0.732806 -2.43241,-1.418771 -1.0978,-0.896853 -1.98286,-2.011981 -2.96777,-3.026617 0,0 1.16403,-0.970026 1.16403,-0.970026 z"
       inkscape:connector-curvature="0" />
  </g>
</svg>
