<?xml version="1.0" encoding="UTF-8" standalone="no"?>
<!-- Created with Inkscape (http://www.inkscape.org/) -->

<svg
   xmlns:dc="http://purl.org/dc/elements/1.1/"
   xmlns:cc="http://creativecommons.org/ns#"
   xmlns:rdf="http://www.w3.org/1999/02/22-rdf-syntax-ns#"
   xmlns:svg="http://www.w3.org/2000/svg"
   xmlns="http://www.w3.org/2000/svg"
   xmlns:sodipodi="http://sodipodi.sourceforge.net/DTD/sodipodi-0.dtd"
   xmlns:inkscape="http://www.inkscape.org/namespaces/inkscape"
   width="324.4017"
   height="163.69408"
   viewBox="0 0 324.40171 163.69408"
   id="svg2"
   version="1.1"
   inkscape:version="0.91 r13725"
   sodipodi:docname="hash-function-cogs.svg">
  <defs
     id="defs4" />
  <sodipodi:namedview
     id="base"
     pagecolor="#ffffff"
     bordercolor="#666666"
     borderopacity="1.0"
     inkscape:pageopacity="0.0"
     inkscape:pageshadow="2"
     inkscape:zoom="1.979899"
     inkscape:cx="213.3641"
     inkscape:cy="50.595024"
     inkscape:document-units="px"
     inkscape:current-layer="layer1"
     showgrid="false"
     units="px"
     inkscape:window-width="1920"
     inkscape:window-height="1008"
     inkscape:window-x="0"
     inkscape:window-y="72"
     inkscape:window-maximized="0"
     fit-margin-top="0"
     fit-margin-left="0"
     fit-margin-right="0"
     fit-margin-bottom="0" />
  <metadata
     id="metadata7">
    <rdf:RDF>
      <cc:Work
         rdf:about="">
        <dc:format>image/svg+xml</dc:format>
        <dc:type
           rdf:resource="http://purl.org/dc/dcmitype/StillImage" />
        <dc:title></dc:title>
      </cc:Work>
    </rdf:RDF>
  </metadata>
  <g
     inkscape:label="Layer 1"
     inkscape:groupmode="layer"
     id="layer1"
     transform="translate(-21.741601,-744.0918)">
    <line
       style="stroke:#000000;stroke-width:6.05820417"
       x1="23.883499"
       y1="746.2337"
       x2="46.096882"
       y2="768.44708"
       id="line4233" />
    <line
       style="stroke:#000000;stroke-width:6.05820417"
       x1="185.43553"
       y1="746.2337"
       x2="163.22215"
       y2="768.44708"
       id="line4235" />
    <rect
       x="46.033234"
       y="768.38336"
       width="117.25259"
       height="117.25259"
       id="rect4237"
       style="fill:none;stroke:#000000;stroke-width:3.87086987;stroke-miterlimit:4;stroke-dasharray:none" />
    <line
       style="stroke:#000000;stroke-width:6.05820417"
       x1="96.581917"
       y1="887.5918"
       x2="96.581917"
       y2="907.78589"
       id="line4241" />
    <line
       style="stroke:#000000;stroke-width:6.05820417"
       x1="112.73712"
       y1="887.5918"
       x2="112.73712"
       y2="907.78589"
       id="line4243" />
    <path
       style="fill:#000000;fill-opacity:1;stroke:none"
       d="m 132.06464,781.01382 -1.51429,7.25651 c -1.55236,0.24391 -3.04751,0.69297 -4.44906,1.31997 l -5.2129,-5.26649 -5.93653,4.80417 4.06043,6.20455 c -0.90459,1.24108 -1.64343,2.60557 -2.20442,4.07384 l -7.41733,-0.0335 -0.79734,7.59823 7.25651,1.51428 c 0.24376,1.5515 0.69352,3.03478 1.31998,4.43566 l -5.2665,5.22629 4.80417,5.93654 6.20455,-4.06713 c 1.24011,0.90387 2.60685,1.65027 4.07384,2.21113 l -0.0335,7.41062 7.59823,0.79734 1.5076,-7.25651 c 1.55279,-0.24365 3.04709,-0.68633 4.44904,-1.31328 l 5.21961,5.26651 5.93653,-4.81088 -4.06713,-6.19784 c 0.90456,-1.24067 1.64997,-2.60605 2.21113,-4.07384 l 7.41062,0.0267 0.79735,-7.59823 -7.25652,-1.5009 c -0.24377,-1.55365 -0.68578,-3.05311 -1.31327,-4.45575 l 5.26649,-5.2129 -4.81088,-5.93654 -6.19784,4.06043 c -1.24164,-0.90526 -2.61145,-1.64981 -4.08054,-2.21113 l 0.0335,-7.41062 -7.59152,-0.79734 z m 1.25966,17.6488 c 0.23879,7.8e-4 0.48105,0.008 0.72365,0.0335 3.88164,0.40776 6.69271,3.88412 6.28496,7.76575 -0.40775,3.88163 -3.88411,6.69941 -7.76575,6.29165 -3.88164,-0.40775 -6.69941,-3.8841 -6.29165,-7.76573 0.38227,-3.63904 3.46697,-6.33759 7.04879,-6.32517 z m -54.520994,0.62314 -1.01846,10.09077 c -2.07751,0.55379 -4.045306,1.37201 -5.862831,2.42553 l -7.852848,-6.41896 -7.390518,7.39053 6.418965,7.85954 c -1.053518,1.81811 -1.872049,3.78471 -2.425537,5.86284 l -10.090776,1.01175 0,10.45259 10.090776,1.01847 c 0.553476,2.07634 1.37284,4.03943 2.425537,5.85613 l -6.418965,7.85954 7.390518,7.39053 7.859548,-6.41897 c 1.816677,1.05269 3.779781,1.87205 5.856131,2.42553 l 1.01846,10.09079 10.452594,0 1.011756,-10.09079 c 2.078143,-0.5535 4.044736,-1.372 5.862834,-2.42553 l 7.85955,6.41897 7.39052,-7.39053 -6.41897,-7.85285 c 1.05354,-1.81751 1.87176,-3.78533 2.42554,-5.86282 l 10.09077,-1.01847 0,-10.45259 -10.09077,-1.01175 c -0.5538,-2.07929 -1.37118,-4.0506 -2.42554,-5.86954 l 6.41897,-7.85284 -7.39052,-7.39053 -7.85285,6.41896 c -1.818942,-1.05435 -3.790234,-1.87173 -5.869534,-2.42553 l -1.011756,-10.09077 -10.452594,0 z m 5.226295,23.77966 c 5.340214,0 9.668651,4.32844 9.668651,9.66865 0,5.34021 -4.328437,9.66865 -9.668651,9.66865 -5.340211,0 -9.668648,-4.32844 -9.668648,-9.66865 0,-5.34021 4.328437,-9.66865 9.668648,-9.66865 z m 44.376629,12.91162 -1.06536,5.3067 c -1.09103,0.17845 -2.13734,0.50615 -3.12239,0.96487 l -3.6718,-3.85272 -4.16763,3.5177 2.85436,4.53615 c -0.63577,0.90795 -1.16022,1.90751 -1.5545,2.98166 l -5.20619,-0.0267 -0.56283,5.56131 5.09899,1.10556 c 0.17132,1.13507 0.48436,2.22485 0.92466,3.24969 l -3.69862,3.81924 3.37699,4.34183 4.36196,-2.97497 c 0.87157,0.66127 1.83003,1.20448 2.86105,1.61481 l -0.0201,5.42729 5.3402,0.58294 1.05866,-5.31341 c 1.09134,-0.17825 2.13706,-0.49948 3.12239,-0.95815 l 3.67181,3.85272 4.17433,-3.5177 -2.86106,-4.53615 c 0.63574,-0.90765 1.16008,-1.90787 1.55449,-2.98167 l 5.21288,0.0202 0.55614,-5.55462 -5.09899,-1.10557 c -0.17133,-1.13663 -0.48364,-2.23024 -0.92465,-3.25639 l 3.69862,-3.81251 -3.377,-4.34853 -4.35525,2.97496 c -0.87265,-0.66227 -1.83526,-1.20416 -2.86776,-1.61479 l 0.0267,-5.42062 -5.3402,-0.58293 z m 0.88444,12.90494 c 0.16783,7.7e-4 0.33873,0.008 0.50924,0.0267 2.7281,0.2983 4.70212,2.84218 4.41555,5.6819 -0.28658,2.83975 -2.72601,4.90149 -5.45411,4.60317 -2.72811,-0.29829 -4.70884,-2.84217 -4.42226,-5.68191 0.26867,-2.66226 2.43419,-4.63906 4.95158,-4.62997 z"
       id="path3055"
       inkscape:connector-curvature="0" />
    <path
       style="opacity:0.5;fill:none;fill-opacity:0;stroke:none;stroke-width:4;stroke-miterlimit:4;stroke-dasharray:none;stroke-dashoffset:0;stroke-opacity:1"
       id="path6808"
       d="m 190.41375,771.01293 c 0,1.53981 0,3.07962 0,4.61943 0,1.1334 0,2.2668 0,3.4002 0,1.36591 0,2.73181 0,4.09772 0.35677,1.42968 0.64458,2.86688 0.82002,4.33046 0.17247,1.74126 0.0572,3.34504 0.45648,5.06139 0.45477,1.68628 0.59142,3.4263 0.68029,5.16306 -0.0729,1.97558 0.37667,3.8958 0.66811,5.83651 0.25323,1.3695 0.20712,2.77032 0.3422,4.14944 0.0399,0.40722 0.2517,1.50444 0.32235,1.88731 0.42183,2.04258 0.5926,4.11974 0.69013,6.1991 -0.11591,1.81783 0.34971,3.55385 0.66192,5.32459 0.29313,1.82612 0.35805,3.67644 0.39707,5.52209 0.0261,1.88045 0.0199,3.76116 0.0176,5.64173 -0.003,1.81041 -0.004,3.62082 -0.005,5.43124 -5.9e-4,1.74429 -5.7e-4,3.48858 -5.8e-4,5.23287 0,1.69748 3e-5,3.39496 4e-5,5.09244 1e-5,1.71182 1e-5,3.42364 1e-5,5.13547 0,1.67623 0,3.35246 0,5.02869 0,1.59019 0,3.18039 0,4.77058 0.0674,1.36721 -0.0359,2.71129 -0.24011,4.06093 -0.0559,0.97973 -0.3739,1.90562 -0.57476,2.85794 -0.0696,0.85851 -0.34783,1.67362 -0.51637,2.51349 -0.16346,0.90132 -0.12234,1.81916 -0.25356,2.72287 -0.20795,0.83804 -0.32318,1.68896 -0.38427,2.54881 -0.0534,0.96649 -0.0528,1.93489 -0.0548,2.90254 -2.7e-4,1.00998 0.002,2.01997 0.003,3.02995 4.4e-4,0.50553 6.3e-4,1.01106 8.1e-4,1.51659 0,0 -2.0203,7.4e-4 -2.0203,7.4e-4 l 0,0 c -1.9e-4,-0.50516 -3.7e-4,-1.01032 -8.1e-4,-1.51548 -9.3e-4,-1.01202 -0.003,-2.02403 -0.003,-3.03605 0.002,-1.01468 0.002,-2.03017 0.0601,-3.04355 0.067,-0.91727 0.18059,-1.82864 0.40438,-2.72255 0.17215,-0.92137 0.0419,-1.88755 0.26878,-2.8067 0.1742,-0.84669 0.44754,-1.66656 0.52029,-2.53231 0.19675,-0.91328 0.50098,-1.79828 0.55304,-2.73873 0.18939,-1.25019 0.28533,-2.49102 0.21734,-3.75849 0,-1.59019 0,-3.18039 0,-4.77058 0,-1.67623 0,-3.35246 0,-5.02869 0,-1.71182 0,-3.42364 -1e-5,-5.13546 -1e-5,-1.69748 -3e-5,-3.39497 -4e-5,-5.09246 1e-5,-1.74458 -1e-5,-3.48916 5.8e-4,-5.23374 7.9e-4,-1.81096 0.002,-3.62192 0.005,-5.43288 0.002,-1.86557 0.008,-3.73127 -0.0172,-5.59671 -0.0365,-1.74262 -0.0942,-3.48987 -0.36697,-5.21463 -0.32508,-1.85324 -0.80191,-3.67912 -0.69027,-5.58034 -0.0924,-1.98842 -0.25377,-3.97481 -0.65898,-5.92778 -0.37599,-2.04976 -0.43793,-4.03996 -0.67555,-6.10266 -0.30025,-2.0051 -0.75752,-3.99281 -0.68785,-6.03358 -0.0817,-1.61968 -0.20365,-3.24277 -0.63192,-4.81468 -0.40049,-1.77251 -0.35568,-3.47426 -0.49332,-5.27377 -0.18204,-1.54477 -0.55214,-3.04296 -0.83415,-4.56901 0,-1.36591 0,-2.73181 0,-4.09772 0,-1.1334 0,-2.2668 0,-3.4002 0,-1.53981 0,-3.07962 0,-4.61943 0,0 2.0203,0 2.0203,0 z"
       inkscape:connector-curvature="0" />
    <path
       style="opacity:1;fill:#999999;fill-opacity:1;stroke:none;stroke-width:4;stroke-miterlimit:4;stroke-dasharray:none;stroke-dashoffset:0;stroke-opacity:1"
       id="path6812"
       d="m 183.84776,775.05354 c 0,1.53981 0,3.07962 0,4.61943 0,1.1334 0,2.2668 0,3.4002 0,1.22806 0,2.45612 0,3.68418 0,1.54143 0,3.08287 0,4.62431 0.0619,1.05148 -0.081,2.11879 0,3.1688 0.0228,0.29531 0.18624,0.8836 0.2577,1.16398 0.422,1.48034 0.58724,3.00939 0.68509,4.53995 0.078,1.65326 0.0736,3.3089 0.0745,4.96356 0.14719,1.69278 0.31379,3.38201 0.40637,5.07919 0.08,1.72889 0.0875,3.45996 0.0936,5.19034 -0.0259,1.46299 0.48281,2.86555 0.71841,4.30235 0.23519,1.59881 0.26449,3.21696 0.28782,4.82974 -0.0564,1.48884 0.0393,2.95583 0.22672,4.43035 0.18671,1.51194 0.23259,3.03588 0.2636,4.55745 0.0238,1.58451 0.0205,3.16928 0.0198,4.75392 -9.9e-4,1.39422 -0.002,2.78843 -0.003,4.18264 -4.2e-4,1.05446 -4.6e-4,2.10892 -4.8e-4,3.16338 -1e-5,1.00695 1e-5,2.0139 1e-5,3.02086 1e-5,1.00926 1e-5,2.01851 1e-5,3.02777 0,1.01015 0,2.02029 0,3.03044 0,1.01017 0,2.02033 0,3.0305 0,1.01015 0,2.02031 0,3.03046 0,1.01015 0,2.0203 0,3.03046 -0.0174,1.03663 0.054,2.07541 -0.0696,3.10604 -0.19493,0.85119 -0.31806,1.71083 -0.38138,2.58096 -0.18184,0.86213 -0.38456,1.71203 -0.4767,2.58976 -0.0494,0.93832 -0.3159,1.8446 -0.67211,2.70778 -0.28977,0.7128 -0.34456,1.48228 -0.39043,2.24163 -0.042,0.9759 -0.0367,1.95305 -0.0358,2.92962 0,0 -2.0203,0.002 -2.0203,0.002 l 0,0 c -9.1e-4,-1.01866 -0.006,-2.03794 0.0396,-3.05582 0.0617,-0.98211 0.15832,-1.97061 0.53983,-2.88903 0.28409,-0.68599 0.50346,-1.4019 0.53032,-2.15072 0.0926,-0.8539 0.24812,-1.69368 0.47073,-2.52371 0.068,-0.91057 0.18431,-1.81433 0.3943,-2.70428 0.15439,-0.93041 -0.008,-1.89508 0.0512,-2.83404 0,-1.01016 0,-2.02031 0,-3.03046 0,-1.01015 0,-2.02031 0,-3.03046 0,-1.01017 0,-2.02033 0,-3.0305 0,-1.01014 0,-2.02029 0,-3.03044 -1e-5,-1.00925 -1e-5,-2.0185 -1e-5,-3.02776 -1e-5,-1.00697 -2e-5,-2.01395 -2e-5,-3.02092 3e-5,-1.05475 7e-5,-2.10949 4.9e-4,-3.16424 6.2e-4,-1.39418 0.002,-2.78835 0.003,-4.18253 6.3e-4,-1.57072 0.004,-3.14155 -0.0194,-4.71213 -0.0293,-1.45014 -0.0711,-2.90268 -0.2479,-4.34379 -0.19672,-1.54892 -0.29846,-3.09255 -0.24263,-4.6559 -0.0217,-1.514 -0.0456,-3.03325 -0.26186,-4.53472 -0.24802,-1.5414 -0.80185,-3.04354 -0.74456,-4.61932 -0.006,-1.69615 -0.013,-3.39297 -0.0907,-5.08768 -0.0942,-1.73346 -0.27496,-3.45773 -0.40935,-5.18791 -8.7e-4,-1.61244 0.004,-3.22581 -0.0705,-4.83696 -0.0883,-1.40926 -0.23723,-2.81727 -0.62928,-4.17953 -0.39349,-1.61037 -0.34328,-3.17368 -0.31755,-4.82089 0,-1.54144 0,-3.08288 0,-4.62431 0,-1.22806 0,-2.45612 0,-3.68418 0,-1.1334 0,-2.2668 0,-3.4002 0,-1.53981 0,-3.07962 0,-4.61943 0,0 2.0203,0 2.0203,0 z"
       inkscape:connector-curvature="0" />
    <path
       style="opacity:1;fill:#999999;fill-opacity:1;stroke:none;stroke-width:4;stroke-miterlimit:4;stroke-dasharray:none;stroke-dashoffset:0;stroke-opacity:1"
       id="path6814"
       d="m 178.90557,872.47674 c 0.68081,1.2487 1.37609,2.48902 2.06719,3.73245 0.40227,0.67983 0.9361,1.25056 1.45055,1.842 0.41334,0.57087 0.78037,1.18652 1.27595,1.6917 0.45612,0.51173 0.91363,1.03278 1.42428,1.49221 0.24783,-0.0432 0.43416,-0.15926 0.6401,-0.3386 0.49733,-0.56748 0.96463,-1.16295 1.48079,-1.71494 0.39257,-0.55052 0.9995,-0.92993 1.34424,-1.51337 0.57383,-0.83505 1.34727,-1.48851 2.07659,-2.17822 0.37448,-0.3001 0.71439,-0.63432 1.07925,-0.94553 0,0 1.30571,1.54167 1.30571,1.54167 l 0,0 c -0.33988,0.28519 -0.64944,0.60155 -0.99972,0.87448 -0.61905,0.58115 -1.27695,1.12894 -1.77754,1.82331 -0.45608,0.65724 -1.04736,1.18234 -1.56436,1.78973 -0.60724,0.62196 -1.0922,1.35524 -1.73826,1.94321 -1.01801,0.71445 -2.12786,0.94128 -3.21924,0.20084 -0.53629,-0.50507 -1.04485,-1.04268 -1.52933,-1.59688 -0.49248,-0.54225 -0.93486,-1.13147 -1.32761,-1.74925 -0.5986,-0.70021 -1.2264,-1.37471 -1.68755,-2.18136 -0.68643,-1.23668 -1.3773,-2.47012 -2.05516,-3.7111 0,0 1.75412,-1.00235 1.75412,-1.00235 z"
       inkscape:connector-curvature="0" />
    <text
       xml:space="preserve"
       style="font-style:normal;font-weight:normal;font-size:17.5px;line-height:125%;font-family:sans-serif;letter-spacing:0px;word-spacing:0px;fill:#999999;fill-opacity:1;stroke:none;stroke-width:1px;stroke-linecap:butt;stroke-linejoin:miter;stroke-opacity:1"
       x="199.50513"
       y="822.55249"
       id="text6816"
       sodipodi:linespacing="125%"><tspan
         sodipodi:role="line"
         x="199.50513"
         y="822.55249"
         id="tspan6820"
         style="font-size:15px;fill:#999999">always hashes data</tspan><tspan
         sodipodi:role="line"
         x="199.50513"
         y="841.30249"
         id="tspan6824"
         style="font-size:15px;fill:#999999">in the same way</tspan></text>
  </g>
</svg>
