<?xml version="1.0" encoding="UTF-8" standalone="no"?>
<!-- Created with Inkscape (http://www.inkscape.org/) -->

<svg
   xmlns:dc="http://purl.org/dc/elements/1.1/"
   xmlns:cc="http://creativecommons.org/ns#"
   xmlns:rdf="http://www.w3.org/1999/02/22-rdf-syntax-ns#"
   xmlns:svg="http://www.w3.org/2000/svg"
   xmlns="http://www.w3.org/2000/svg"
   xmlns:sodipodi="http://sodipodi.sourceforge.net/DTD/sodipodi-0.dtd"
   xmlns:inkscape="http://www.inkscape.org/namespaces/inkscape"
   width="479.59595"
   height="251.97256"
   viewBox="0 0 479.59595 251.97258"
   id="svg2"
   version="1.1"
   inkscape:version="0.91 r13725"
   sodipodi:docname="random.svg">
  <defs
     id="defs4" />
  <sodipodi:namedview
     id="base"
     pagecolor="#ffffff"
     bordercolor="#666666"
     borderopacity="1.0"
     inkscape:pageopacity="0.0"
     inkscape:pageshadow="2"
     inkscape:zoom="1.4"
     inkscape:cx="154.74416"
     inkscape:cy="123.7484"
     inkscape:document-units="px"
     inkscape:current-layer="layer1"
     showgrid="false"
     units="px"
     inkscape:window-width="1920"
     inkscape:window-height="1062"
     inkscape:window-x="0"
     inkscape:window-y="18"
     inkscape:window-maximized="0"
     fit-margin-top="0"
     fit-margin-left="0"
     fit-margin-right="0"
     fit-margin-bottom="0" />
  <metadata
     id="metadata7">
    <rdf:RDF>
      <cc:Work
         rdf:about="">
        <dc:format>image/svg+xml</dc:format>
        <dc:type
           rdf:resource="http://purl.org/dc/dcmitype/StillImage" />
        <dc:title></dc:title>
      </cc:Work>
    </rdf:RDF>
  </metadata>
  <g
     inkscape:label="Layer 1"
     inkscape:groupmode="layer"
     id="layer1"
     transform="translate(-12.240356,-708.42373)">
    <line
       style="stroke:#000000;stroke-width:6.05820417"
       x1="48.512451"
       y1="778.37134"
       x2="70.72583"
       y2="800.58472"
       id="line4233" />
    <line
       style="stroke:#000000;stroke-width:6.05820417"
       x1="210.06445"
       y1="778.37134"
       x2="187.85107"
       y2="800.58472"
       id="line4235" />
    <rect
       x="70.662109"
       y="800.521"
       width="117.25259"
       height="117.25259"
       id="rect4237"
       style="fill:none;stroke:#000000;stroke-width:3.87086987;stroke-miterlimit:4;stroke-dasharray:none" />
    <line
       style="stroke:#000000;stroke-width:6.05820417"
       x1="121.21094"
       y1="919.72937"
       x2="121.21094"
       y2="939.92346"
       id="line4241" />
    <line
       style="stroke:#000000;stroke-width:6.05820417"
       x1="137.36609"
       y1="919.72937"
       x2="137.36609"
       y2="939.92346"
       id="line4243" />
    <path
       style="fill:#000000;fill-opacity:1;stroke:none"
       d="m 156.6936,813.15142 -1.5143,7.25651 c -1.5523,0.24391 -3.0475,0.69297 -4.449,1.31997 l -5.2129,-5.26649 -5.9366,4.80417 4.0605,6.20455 c -0.9046,1.24108 -1.6435,2.60557 -2.2045,4.07384 l -7.4173,-0.0335 -0.7973,7.59823 7.2565,1.51428 c 0.2437,1.5515 0.6935,3.03478 1.32,4.43566 l -5.2665,5.22629 4.8041,5.93654 6.2046,-4.06713 c 1.2401,0.90387 2.6068,1.65027 4.0738,2.21113 l -0.034,7.41062 7.5983,0.79734 1.5076,-7.25651 c 1.5527,-0.24365 3.047,-0.68633 4.449,-1.31328 l 5.2196,5.26651 5.9365,-4.81088 -4.0671,-6.19784 c 0.9046,-1.24067 1.65,-2.60605 2.2111,-4.07384 l 7.4107,0.0267 0.7973,-7.59823 -7.2565,-1.5009 c -0.2438,-1.55365 -0.6858,-3.05311 -1.3133,-4.45575 l 5.2665,-5.2129 -4.8109,-5.93654 -6.1978,4.06043 c -1.2417,-0.90526 -2.6115,-1.64981 -4.0806,-2.21113 l 0.034,-7.41062 -7.5915,-0.79734 z m 1.2597,17.6488 c 0.2388,7.8e-4 0.481,0.008 0.7236,0.0335 3.8817,0.40776 6.6927,3.88412 6.285,7.76575 -0.4078,3.88163 -3.8841,6.69941 -7.7658,6.29165 -3.8816,-0.40775 -6.6994,-3.8841 -6.2916,-7.76573 0.3823,-3.63904 3.467,-6.33759 7.0488,-6.32517 z m -54.521,0.62314 -1.0185,10.09077 c -2.0775,0.55379 -4.0453,1.37201 -5.8628,2.42553 l -7.8529,-6.41896 -7.3905,7.39053 6.419,7.85954 c -1.0535,1.81811 -1.8721,3.78471 -2.4255,5.86284 l -10.0908,1.01175 0,10.45259 10.0908,1.01847 c 0.5534,2.07634 1.3728,4.03943 2.4255,5.85613 l -6.419,7.85954 7.3905,7.39053 7.8596,-6.41897 c 1.8167,1.05269 3.7798,1.87205 5.8561,2.42553 l 1.0185,10.09079 10.4526,0 1.0117,-10.09079 c 2.0782,-0.5535 4.0448,-1.372 5.8629,-2.42553 l 7.8595,6.41897 7.3905,-7.39053 -6.4189,-7.85285 c 1.0535,-1.81751 1.8717,-3.78533 2.4255,-5.86282 l 10.0908,-1.01847 0,-10.45259 -10.0908,-1.01175 c -0.5538,-2.07929 -1.3712,-4.0506 -2.4255,-5.86954 l 6.4189,-7.85284 -7.3905,-7.39053 -7.8528,6.41896 c -1.819,-1.05435 -3.7903,-1.87173 -5.8696,-2.42553 l -1.0117,-10.09077 -10.4526,0 z m 5.2263,23.77966 c 5.3402,0 9.6686,4.32844 9.6686,9.66865 0,5.34021 -4.3284,9.66865 -9.6686,9.66865 -5.3402,0 -9.6687,-4.32844 -9.6687,-9.66865 0,-5.34021 4.3285,-9.66865 9.6687,-9.66865 z m 44.3766,12.91162 -1.0654,5.3067 c -1.091,0.17845 -2.1373,0.50615 -3.1223,0.96487 l -3.6718,-3.85272 -4.1677,3.5177 2.8544,4.53615 c -0.6358,0.90795 -1.1602,1.90751 -1.5545,2.98166 l -5.2062,-0.0267 -0.5628,5.56131 5.099,1.10556 c 0.1713,1.13507 0.4843,2.22485 0.9246,3.24969 l -3.6986,3.81924 3.377,4.34183 4.3619,-2.97497 c 0.8716,0.66127 1.8301,1.20448 2.8611,1.61481 l -0.02,5.42729 5.3402,0.58294 1.0587,-5.31341 c 1.0913,-0.17825 2.137,-0.49948 3.1223,-0.95815 l 3.6719,3.85272 4.1743,-3.5177 -2.8611,-4.53615 c 0.6358,-0.90765 1.1601,-1.90787 1.5545,-2.98167 l 5.2129,0.0202 0.5561,-5.55462 -5.099,-1.10557 c -0.1713,-1.13663 -0.4836,-2.23024 -0.9246,-3.25639 l 3.6986,-3.81251 -3.377,-4.34853 -4.3552,2.97496 c -0.8727,-0.66227 -1.8353,-1.20416 -2.8678,-1.61479 l 0.027,-5.42062 -5.3402,-0.58293 z m 0.8844,12.90494 c 0.1679,7.7e-4 0.3388,0.008 0.5093,0.0267 2.7281,0.2983 4.7021,2.84218 4.4155,5.6819 -0.2865,2.83975 -2.726,4.90149 -5.4541,4.60317 -2.7281,-0.29829 -4.7088,-2.84217 -4.4222,-5.68191 0.2686,-2.66226 2.4342,-4.63906 4.9515,-4.62997 z"
       id="path3055"
       inkscape:connector-curvature="0" />
    <path
       style="opacity:1;fill:#800080;fill-opacity:1;stroke:none;stroke-width:4;stroke-miterlimit:4;stroke-dasharray:none;stroke-dashoffset:0;stroke-opacity:1"
       id="path8155"
       d="m 106.89061,709.07623 c 2.21352,-0.2755 4.43757,-0.44783 6.6648,-0.56003 1.69814,-0.0778 3.39827,-0.0838 5.09783,-0.0874 2.08817,-6.9e-4 4.17634,0.002 6.26452,0.003 2.37105,0.001 4.74211,0.001 7.11317,0.001 2.42204,9e-5 4.84408,6e-5 7.26612,5e-5 2.27071,0.0377 4.54652,-0.0907 6.81153,0.0921 1.60744,0.11583 3.14557,0.49573 4.68702,0.93347 1.2003,0.47269 2.37157,0.98456 3.4396,1.71198 1.03637,0.62999 1.7829,1.53459 2.52297,2.46894 0.66756,0.87702 1.27052,1.79138 1.84615,2.73251 0.52876,1.16533 1.04033,2.34591 1.37525,3.58467 0.32247,1.51308 0.41599,3.06504 0.28305,4.60323 -0.13978,1.59215 -0.89697,2.95693 -1.76704,4.25536 -0.84549,1.18029 -1.99812,2.01424 -3.11269,2.90857 -0.97945,0.77402 -2.14057,1.25846 -3.19864,1.89936 -1.08452,0.65797 -2.32431,0.98664 -3.46172,1.5225 -0.99587,0.46409 -2.06278,0.81319 -3.01467,1.36699 -1.15775,0.56032 -2.3347,1.08504 -3.51088,1.60735 -1.25371,0.49641 -2.47701,1.06473 -3.72792,1.57264 -1.42496,0.45422 -2.83596,0.93478 -4.30294,1.24037 -1.36274,0.14617 -2.69071,0.34442 -4.02749,0.63881 -1.40217,0.30148 -2.8367,0.36905 -4.26555,0.41316 -0.29296,-0.0281 -0.59112,-0.0225 -0.87889,-0.0842 -0.88953,-0.19067 -1.53798,-0.59019 -2.26147,-1.10594 -0.0867,-0.0618 -0.367,-0.1849 -0.26049,-0.1851 0.11297,-2.1e-4 0.18927,0.12337 0.2839,0.18505 0.41981,-0.0237 0.86087,0.0629 1.25942,-0.0711 0.26159,-0.0879 0.40097,-0.37974 0.61168,-0.55796 0.0838,-0.0709 0.0327,0.21839 0.0274,0.32797 -0.0226,0.46754 -0.0207,0.59572 -0.0292,1.08415 -0.009,1.22663 -0.0705,2.44101 0.17835,3.64508 0.31654,1.34835 0.43383,2.72724 0.50463,4.10665 0.0355,1.20383 0.38517,2.36974 0.55427,3.56214 0.0249,0.23727 0.0497,0.47454 0.0745,0.71182 0,0 -3.55261,0.36617 -3.55261,0.36617 l 0,0 c -0.0196,-0.19438 -0.0393,-0.38877 -0.0589,-0.58315 -0.17827,-1.29611 -0.57331,-2.56179 -0.58415,-3.87638 -0.0601,-1.20469 -0.15785,-2.40895 -0.4396,-3.58563 -0.28629,-1.46124 -0.28406,-2.9264 -0.24736,-4.41172 0.0228,-1.20022 -0.12769,-3.1617 1.1454,-3.86467 0.4724,-0.26086 1.06416,-0.17997 1.59625,-0.26996 0.75927,0.33008 1.24362,0.82559 1.96797,1.03701 1.20729,-0.0363 2.42074,-0.0826 3.60679,-0.33136 1.35191,-0.29731 2.69903,-0.52068 4.07775,-0.64949 1.25678,-0.25231 2.45575,-0.68421 3.68046,-1.05231 1.21635,-0.49037 2.40481,-1.0428 3.6217,-1.52764 1.09253,-0.48218 2.18293,-0.97356 3.26088,-1.48478 1.05511,-0.54926 2.15139,-1.018 3.24637,-1.48141 1.04367,-0.45646 2.13823,-0.80131 3.13791,-1.3566 0.92895,-0.52403 1.89743,-0.98222 2.76731,-1.60586 0.83771,-0.65902 1.71194,-1.256 2.37299,-2.11013 0.55228,-0.80792 1.08629,-1.6228 1.17391,-2.62481 0.15379,-1.1009 -0.0167,-2.23745 -0.18551,-3.32881 -0.22749,-0.91536 -0.64889,-1.75675 -0.97398,-2.6377 -0.4956,-0.82657 -1.01475,-1.62339 -1.60555,-2.38424 -0.52359,-0.67499 -1.02185,-1.33492 -1.79004,-1.76631 -0.68116,-0.56493 -1.57274,-0.75755 -2.33706,-1.18015 -1.32366,-0.37732 -2.63285,-0.72002 -4.01762,-0.81043 -2.15832,-0.20415 -4.33847,-0.0108 -6.50348,-0.0788 -2.42211,2e-5 -4.84423,4e-5 -7.26634,-4e-5 -2.3717,-1.4e-4 -4.7434,-3e-4 -7.11509,-10e-4 -2.08499,-0.001 -4.16997,-0.004 -6.25496,-0.003 -1.64231,0.003 -3.28518,0.008 -4.92615,0.0829 -2.13907,0.10705 -4.27502,0.27277 -6.40094,0.53694 0,0 -0.44298,-3.54385 -0.44298,-3.54385 z"
       inkscape:connector-curvature="0" />
    <path
       style="opacity:1;fill:#800080;fill-opacity:1;stroke:none;stroke-width:4;stroke-miterlimit:4;stroke-dasharray:none;stroke-dashoffset:0;stroke-opacity:1"
       id="path8157"
       d="m 125.28787,767.1115 c -0.60923,0.4234 -1.27634,0.81994 -1.74458,1.4114 -0.19236,0.24298 -0.20708,0.6672 0.0243,-0.10813 -0.0488,-0.19622 -0.12722,-0.38738 -0.14644,-0.58866 -0.003,-0.0304 0.0621,-1.4e-4 0.0911,0.009 0.67357,0.22084 -0.2817,-0.0273 0.61992,0.22322 0.41898,0.11642 0.57338,0.12996 1.01395,0.20448 0.0491,0.10106 2.24073,0.20031 1.47427,-0.0845 0.0601,-0.51014 0.11362,-0.62305 -0.27778,-0.87325 -0.32061,-0.0536 -0.63784,-0.12776 -0.95949,-0.18227 0,0 0.68785,-3.50457 0.68785,-3.50457 l 0,0 c 1.17964,0.24798 2.27323,0.58024 3.10731,1.51564 1.11154,1.60278 1.37338,3.29748 0.38756,5.06421 -1.55733,1.92814 -2.74947,1.89925 -5.04871,1.58039 -1.92171,-0.35642 -3.69303,-0.90172 -4.48623,-2.86697 0.007,-0.39906 -0.054,-0.80507 0.0204,-1.19718 0.32844,-1.72997 2.16482,-2.78925 3.46461,-3.70401 0,0 1.77192,3.10086 1.77192,3.10086 z"
       inkscape:connector-curvature="0" />
    <text
       xml:space="preserve"
       style="font-style:normal;font-weight:normal;font-size:17.5px;line-height:125%;font-family:sans-serif;letter-spacing:0px;word-spacing:0px;fill:#000000;fill-opacity:1;stroke:none;stroke-width:1px;stroke-linecap:butt;stroke-linejoin:miter;stroke-opacity:1"
       x="11.428573"
       y="960.2193"
       id="text8159"
       sodipodi:linespacing="125%"><tspan
         sodipodi:role="line"
         id="tspan8161"
         x="11.428573"
         y="960.2193"
         style="font-style:normal;font-variant:normal;font-weight:normal;font-stretch:normal;font-size:12.50000095px;font-family:monospace;-inkscape-font-specification:monospace">a441b15fe9a3cf56661190a0b93b9dec7d04127288cc87250967cf3b52894d11</tspan></text>
    <path
       style="opacity:1;fill:#b3b3b3;fill-opacity:1;stroke:none;stroke-width:4;stroke-miterlimit:4;stroke-dasharray:none;stroke-dashoffset:0;stroke-opacity:1"
       id="path8184"
       d="m 209.74034,916.85562 c 0,-2.17762 0,-4.35524 0,-6.53287 0,-1.60287 0,-3.20574 0,-4.8086 0,-1.4279 0,-2.85579 0,-4.28368 0,-1.45428 0,-2.90857 0,-4.36285 0,-1.92008 0,-3.84016 0,-5.76024 0,-2.13618 0,-4.27236 0,-6.40854 0,-2.00961 0,-4.01923 0,-6.02884 0,-1.52907 0,-3.05815 0,-4.58723 0,-1.42585 0,-2.8517 0,-4.27754 0,-1.42683 0,-2.85366 0,-4.28049 0,-1.42851 0,-2.85701 0,-4.28551 0,-1.4286 0,-2.85719 0,-4.28579 0,-1.42857 0,-2.85714 0,-4.28572 0,-1.42857 0,-2.85714 0,-4.28571 -0.0221,-1.51689 0.34878,-3.00231 0.53084,-4.50252 0.14659,-1.35802 0.16675,-2.72494 0.18229,-4.0894 0.01,-1.42101 0.006,-2.84207 0.004,-4.26311 -0.002,-1.42912 -0.002,-2.85825 -0.003,-4.28737 -2.8e-4,-1.42873 -2.5e-4,-2.85745 -2.5e-4,-4.28618 -0.0512,-1.36075 0.35095,-2.67641 0.53475,-4.01457 0.14921,-1.28242 0.16357,-2.57515 0.17841,-3.86457 0.13083,-1.20562 -0.19013,-2.34595 -0.39879,-3.51934 -0.37196,-0.89704 -0.60097,-1.83532 -0.779,-2.78675 0,0 3.51349,-0.64069 3.51349,-0.64069 l 0,0 c 0.16914,0.96361 0.48789,1.87384 0.78231,2.80519 0.24406,1.38741 0.58939,2.75977 0.45318,4.18304 -0.0169,1.44039 -0.0372,2.88439 -0.21236,4.3161 -0.16575,1.17534 -0.5128,2.33253 -0.50056,3.5216 0,1.42842 -3e-5,2.85684 2.4e-4,4.28526 3.7e-4,1.42802 9.7e-4,2.85603 0.003,4.28405 0.002,1.4361 0.006,2.87224 -0.004,4.30832 -0.0173,1.49566 -0.0431,2.99389 -0.20848,4.48203 -0.16708,1.35663 -0.49827,2.70127 -0.50441,4.06891 0,1.42857 0,2.85714 0,4.28571 0,1.42858 0,2.85715 0,4.28572 0,1.4286 0,2.85719 0,4.28579 0,1.4285 0,2.857 0,4.28551 0,1.42683 0,2.85366 0,4.28049 0,1.42584 0,2.85169 0,4.27754 0,1.52908 0,3.05816 0,4.58723 0,2.00961 0,4.01923 0,6.02884 0,2.13618 0,4.27236 0,6.40854 0,1.92008 0,3.84016 0,5.76024 0,1.45428 0,2.90857 0,4.36285 0,1.42789 0,2.85578 0,4.28368 0,1.60286 0,3.20573 0,4.8086 0,2.17763 0,4.35525 0,6.53287 0,0 -3.57143,0 -3.57143,0 z"
       inkscape:connector-curvature="0" />
    <path
       style="opacity:1;fill:#b3b3b3;fill-opacity:1;stroke:none;stroke-width:4;stroke-miterlimit:4;stroke-dasharray:none;stroke-dashoffset:0;stroke-opacity:1"
       id="path8186"
       d="m 201.74596,820.34082 c 0.99344,-1.66501 2.31902,-3.11559 3.15646,-4.87023 0.65869,-1.16842 1.13509,-2.41327 1.86745,-3.53998 0.60336,-0.81004 1.20184,-1.60913 1.7423,-2.46483 0.7432,-1.00056 1.51438,-1.95368 2.53727,-2.67366 1.76377,-0.70687 3.0252,0.25164 4.13909,1.52388 0.66835,0.89337 1.26653,1.85699 2.04922,2.65745 0.66042,0.73448 1.3126,1.49358 2.05133,2.1525 0.46042,0.4107 0.76594,0.9459 1.14219,1.4268 0,0 -2.83304,2.17463 -2.83304,2.17463 l 0,0 c -0.25231,-0.33271 -0.45923,-0.67416 -0.73646,-0.98164 -0.78349,-0.74077 -1.52806,-1.52681 -2.23735,-2.33804 -0.78149,-0.85995 -1.49072,-1.78802 -2.13563,-2.75364 -0.11842,-0.13906 -0.20588,-0.30651 -0.34256,-0.42766 -0.0883,-0.0782 -0.32415,-0.0956 -0.28667,-0.20742 0.0258,-0.0771 1.078,0.31748 1.08081,-0.19709 -0.49728,0.3517 -0.97572,1.05487 -1.42156,1.57138 -0.5666,0.87503 -1.1766,1.71227 -1.79558,2.54552 -0.71032,0.93094 -0.95178,2.14048 -1.61483,3.10558 -0.90455,1.80853 -2.15905,3.37961 -3.26158,5.06837 0,0 -3.10086,-1.77192 -3.10086,-1.77192 z"
       inkscape:connector-curvature="0" />
  </g>
</svg>
