<?xml version="1.0" encoding="UTF-8" standalone="no"?>
<!-- Created with Inkscape (http://www.inkscape.org/) -->

<svg
   xmlns:dc="http://purl.org/dc/elements/1.1/"
   xmlns:cc="http://creativecommons.org/ns#"
   xmlns:rdf="http://www.w3.org/1999/02/22-rdf-syntax-ns#"
   xmlns:svg="http://www.w3.org/2000/svg"
   xmlns="http://www.w3.org/2000/svg"
   xmlns:sodipodi="http://sodipodi.sourceforge.net/DTD/sodipodi-0.dtd"
   xmlns:inkscape="http://www.inkscape.org/namespaces/inkscape"
   width="557.96039"
   height="399.59039"
   viewBox="0 0 557.9604 399.5904"
   id="svg2"
   version="1.1"
   inkscape:version="0.91 r13725"
   sodipodi:docname="fingerprint.svg">
  <defs
     id="defs4" />
  <sodipodi:namedview
     id="base"
     pagecolor="#ffffff"
     bordercolor="#666666"
     borderopacity="1.0"
     inkscape:pageopacity="0.0"
     inkscape:pageshadow="2"
     inkscape:zoom="1.979899"
     inkscape:cx="330.39528"
     inkscape:cy="188.76943"
     inkscape:document-units="px"
     inkscape:current-layer="layer1"
     showgrid="false"
     units="px"
     inkscape:window-width="1920"
     inkscape:window-height="1026"
     inkscape:window-x="0"
     inkscape:window-y="54"
     inkscape:window-maximized="0"
     fit-margin-top="0"
     fit-margin-left="0"
     fit-margin-right="0"
     fit-margin-bottom="0" />
  <metadata
     id="metadata7">
    <rdf:RDF>
      <cc:Work
         rdf:about="">
        <dc:format>image/svg+xml</dc:format>
        <dc:type
           rdf:resource="http://purl.org/dc/dcmitype/StillImage" />
        <dc:title></dc:title>
      </cc:Work>
    </rdf:RDF>
  </metadata>
  <g
     inkscape:label="Layer 1"
     inkscape:groupmode="layer"
     id="layer1"
     transform="translate(-122.15948,-546.82043)">
    <line
       style="stroke:#000000;stroke-width:9.99542904"
       x1="261.8255"
       y1="635.5553"
       x2="298.4754"
       y2="672.20514"
       id="line4233" />
    <line
       style="stroke:#000000;stroke-width:9.99542904"
       x1="528.37018"
       y1="635.5553"
       x2="491.72031"
       y2="672.20514"
       id="line4235" />
    <rect
       x="295.14355"
       y="668.87323"
       width="199.90857"
       height="199.90857"
       id="rect4237" />
    <line
       style="stroke:#000000;stroke-width:9.99542904"
       x1="381.7706"
       y1="868.78204"
       x2="381.7706"
       y2="902.10016"
       id="line4241" />
    <line
       style="stroke:#000000;stroke-width:9.99542904"
       x1="408.42508"
       y1="868.78204"
       x2="408.42508"
       y2="902.10016"
       id="line4243" />
    <text
       xml:space="preserve"
       style="font-style:normal;font-weight:normal;font-size:24.74972725px;line-height:125%;font-family:sans-serif;letter-spacing:0px;word-spacing:0px;opacity:1;fill:#000000;fill-opacity:1;stroke:none;stroke-width:1px;stroke-linecap:butt;stroke-linejoin:miter;stroke-opacity:1"
       x="121.45511"
       y="946.21057"
       id="text4870"
       sodipodi:linespacing="125%"><tspan
         sodipodi:role="line"
         id="tspan4872"
         x="121.45511"
         y="946.21057"
         style="font-style:normal;font-variant:normal;font-weight:normal;font-stretch:normal;font-size:14.1427021px;font-family:monospace;-inkscape-font-specification:monospace">4ce18f49ba153a51bcda9bb80d7f978e3de6e81b5fc326f00465464530c052f4</tspan></text>
    <path
       inkscape:connector-curvature="0"
       style="opacity:0.3;fill:#000000"
       d="m 619.72034,927.3668 c -1.30396,-1.00508 -2.12412,-4.18196 -0.23231,-1.53776 0.39285,0.36729 1.84076,1.79003 0.23231,1.53776 z m 2.82583,-0.32562 c -2.4476,-1.31747 -3.67619,-4.13522 -4.69872,-6.5751 -0.95911,-3.13361 -0.771,-6.35836 -1.61819,-9.52778 -0.68176,-1.03876 -0.15305,-5.53643 0.86917,-4.28896 -0.78371,3.91855 0.81177,7.77256 1.11948,11.65959 0.84969,2.73337 1.83447,5.53122 3.92919,7.59494 0.55025,0.42857 1.76572,2.36501 0.39907,1.13731 z m 5.22762,-0.14657 c -0.44948,-1.3137 0.82848,-0.0679 0,0 z m -4.5008,-1.37763 c -2.24463,-2.30225 -3.36591,-5.5253 -4.22632,-8.54393 -0.63444,-3.08232 -1.38532,-6.15471 -1.14251,-9.31708 0.1188,-2.64097 0.83759,-6.0586 2.79781,-7.68446 -0.76884,2.6488 -2.5157,5.81867 -2.13392,8.97437 0.14269,2.86037 0.56468,5.54484 1.46644,8.30082 0.862,2.80704 1.97332,5.58062 3.75591,7.94141 2.45943,0.72482 0.21859,2.25443 -0.51741,0.32887 z m 3.51771,0.82643 c -2.38061,-1.36143 2.46772,-0.48538 0,0 z m 2.23647,-0.46517 c -3.04382,-1.60623 -3.94119,-5.2695 -5.34459,-8.03827 1.07362,-2.87994 3.02665,3.494 3.39945,4.8877 0.38571,1.65295 2.96255,2.83001 3.38874,3.3881 -0.48148,0.0676 -1.03428,0.069 -1.4436,-0.23753 z m 3.6411,-0.34082 c 0.0754,-0.64389 0.61649,0.38732 0,0 z m -7.8254,-0.66062 c -1.93182,-2.23871 -2.68434,-5.13734 -3.61507,-7.82008 -0.4485,-2.74927 1.58617,-0.79498 1.22596,0.79881 0.33805,2.53343 3.26855,5.01513 2.69041,7.23956 -0.10056,-0.0727 -0.20086,-0.14547 -0.3013,-0.21829 z m 6.3938,0.0711 c -1.47184,-0.38662 -4.81142,-3.39673 -3.19271,-3.86057 0.35655,1.57089 3.58551,2.55849 3.19271,3.86057 z m 3.17095,0 c -2.76935,-0.84326 -4.43511,-3.48051 -6.61816,-5.17482 2.16031,-0.12304 4.20595,3.23411 6.48198,4.3466 0.34193,0.24268 1.18587,1.56908 0.13619,0.82822 z m -17.13696,-0.93289 c -1.26488,-3.75071 2.92595,1.24237 0,0 z m 18.56359,-0.34629 c -1.40213,-0.34759 -5.18757,-2.95649 -3.46879,-3.3628 1.41919,0.96937 3.76743,2.77966 4.36064,3.5731 -0.30197,0.0757 -0.67807,0.0504 -0.89185,-0.2103 z m -20.26046,0.007 c 0.17397,-0.69004 0.66441,0.51776 0,0 z m -0.7899,-0.8039 c -1.5498,-2.32604 -1.91273,-5.23127 -1.54158,-7.8999 -0.22444,-2.57945 1.10297,-4.91196 1.06705,-7.49385 0.91763,-2.68024 0.93924,-5.66174 2.44954,-8.15577 0.85726,-1.53429 2.14989,-3.31917 3.9775,-3.09116 -0.31908,-1.98735 1.67844,-0.21749 2.49505,-2.0922 2.90917,-1.78351 6.28456,-2.50033 9.59926,-3.10547 4.72679,1.11627 8.2033,4.73477 10.93974,8.54058 2.218,2.2905 3.3876,5.39101 5.71344,7.58387 0.95205,1.30635 0.0689,3.3569 -0.8309,0.98521 -1.62048,-2.31366 -3.9753,-4.22525 -5.04724,-6.82171 -1.64785,-2.71192 -3.62766,-4.98246 -5.9261,-7.12425 -2.65494,-1.8284 -6.15796,-2.92241 -9.26091,-1.46232 -3.81184,0.97105 -7.1758,3.37956 -9.10712,6.82903 -1.83512,0.81526 2.37043,-4.24906 -0.58705,-1.73454 -2.07329,2.11277 -2.27082,5.29375 -3.20058,7.96894 -0.32924,3.14333 -1.39338,5.88331 -1.49973,8.96844 -0.13012,2.86442 0.62302,5.76567 1.56276,8.36626 l -0.24819,0.0274 -0.55489,-0.28866 -5e-5,0 z m 23.72948,0.3379 c -2.71582,-1.37022 -5.03333,-3.41885 -7.07112,-5.59801 -1.32687,-1.55004 0.99862,-3.76779 1.33385,-1.13091 1.34034,3.13917 4.95155,4.06402 6.67205,6.72255 l -0.25595,0.094 -0.67883,-0.0875 0,0 z m 2.78,-0.77713 c -0.59859,-1.98753 2.08571,0.24629 0,0 z m -24.30968,-0.93564 c -0.25706,-0.74389 0.73567,0.2487 0,0 z m 21.72662,-0.79865 c -2.45977,-1.45491 -4.49915,-3.48973 -5.64721,-6.11439 -1.67,-3.11105 -2.69997,-6.80678 -2.61768,-10.42368 1.25162,-0.92756 0.85675,3.12131 1.55656,3.93295 0.26513,2.98768 1.74628,4.76435 2.72932,7.56682 1.60428,1.79488 4.13365,4.06406 6.15722,5.65868 -0.64384,0.81705 -1.71686,0.0113 -2.17821,-0.62038 z m -22.87982,0.0782 c -1.09225,-2.76346 -0.47737,-5.81973 -0.67144,-8.70936 1.28771,-0.46803 0.19953,3.84274 1.05345,5.21625 -0.28655,0.80636 1.86754,5.00814 -0.38201,3.49311 z m 26.77548,0.11568 c -2.41182,-1.56173 -4.65047,-3.19374 -6.19478,-5.37302 -1.47073,-2.65655 -3.09147,-5.4319 -3.6368,-8.45386 2.31043,-0.48692 1.28051,4.62612 3.56791,5.27287 0.67413,3.19635 3.76563,6.19415 6.80832,7.66933 1.12352,0.64819 0.66954,1.53468 -0.54465,0.88468 z m -11.74313,-0.82585 c -2.07574,-0.93508 -4.30457,-5.28311 -2.51803,-6.57006 1.33723,1.8368 0.82372,4.6169 3.17626,5.91664 -0.01,0.18824 -0.44339,1.21555 -0.65823,0.65342 z m -19.23161,-0.31691 c -0.85844,-2.52004 0.40728,-5.20882 0.1253,-7.7511 -0.10989,-3.14934 1.09228,-6.21682 2.04731,-9.29301 0.8792,-2.14179 -0.41912,-2.216 -0.9367,-0.24077 -0.78514,2.44956 -1.67512,4.82232 -2.0523,7.42981 -1.40365,1.76132 1.77212,4.3227 -0.91091,5.7164 -2.85292,-2.82235 1.13361,-6.65076 1.31082,-9.94869 0.57784,-2.67437 1.43421,-5.46994 3.88475,-7.00213 1.02348,-1.15362 3.4111,-4.26021 4.13593,-3.56555 -2.2744,2.44697 -4.86133,4.80018 -4.99147,8.38709 -0.75071,3.2406 -1.82571,6.34562 -1.83535,9.83987 -0.16544,2.1507 -0.0631,4.3723 -0.77731,6.42808 z m -1.37547,-5.65299 c 0.74551,-2.23545 -2.36713,1.01178 0,0 z m 16.62215,4.68462 c -1.70588,-2.22911 -1.88272,-5.00262 -1.76875,-7.66461 -0.3291,-1.48032 0.17711,-6.51017 0.57728,-2.4977 0.21371,2.9123 0.3124,6.23427 1.82659,8.66406 0.48629,0.48027 0.33399,3.21302 -0.63512,1.49825 z m 17.06053,0.45973 c 0.82965,-2.56944 -3.25409,-4.16358 -4.01797,-6.62317 -1.46792,-2.37491 -2.9565,-4.61776 -3.65625,-7.32828 -1.28448,-2.11709 -3.37321,-6.27984 -6.33886,-4.31246 -3.00681,1.88314 -2.21285,5.85926 -2.08118,8.84634 0.69389,1.18491 0.50679,4.28363 -0.86395,2.07084 -0.0577,-2.82229 -0.49142,-5.71482 0.12304,-8.5075 0.72819,-2.26595 3.4811,-4.76021 5.969,-3.66156 2.90178,2.31132 4.21913,5.89312 5.77704,9.14621 1.53982,2.80103 3.15736,5.51814 5.37678,7.85856 1.13567,0.58849 1.42565,2.87405 -0.28771,2.51102 z m -1.39062,-0.57357 c -4.19068,-2.74842 -6.04651,-7.70924 -7.97982,-12.10581 -0.33141,-2.36196 -3.5545,-6.28075 -4.95989,-2.49492 -0.77472,3.11474 0.95595,6.00543 0.92558,8.94792 -1.5565,0.547 -1.08238,-3.80938 -1.79622,-5.09484 -0.53544,-2.57525 0.57017,-7.81655 4.10038,-5.87472 2.60471,2.16374 2.74885,5.78864 4.6026,8.46499 1.47654,3.13569 3.62291,5.988 6.22997,8.2419 -0.20771,0.35174 -0.83746,-0.10056 -1.1226,-0.0844 z m 3.31386,-2.07181 c -1.77395,-2.37612 -4.22064,-4.23759 -5.34634,-7.0687 -1.97232,-2.98331 -2.88662,-6.64245 -5.35171,-9.27944 -2.01141,-1.34771 -4.93006,-4.32059 -7.27598,-1.97855 -2.02563,0.84957 -3.93752,4.77473 -4.94953,4.80399 0.66243,-2.95753 3.37221,-5.25374 6.05734,-6.40049 2.79532,-0.64148 4.83327,1.83606 7.05699,3.04433 3.88944,4.32186 4.84286,10.64595 9.23679,14.62211 0.29012,0.54895 3.02514,3.96393 0.57244,2.25675 z m -35.70028,0.25966 c 0.34885,-0.50944 0.2969,0.66566 0,0 z m -0.407,-0.28092 c -0.0757,-1.00523 0.70225,0.54894 0,0 z m 13.50193,-0.0676 c -1.32174,-2.77039 -1.94577,-5.77287 -1.81385,-8.88412 -0.82323,-1.58168 2.25957,-5.50831 1.15753,-2.02528 -0.57568,2.43557 -0.52922,5.17557 -0.0522,7.58352 2.58404,0.92398 -0.96876,-5.23754 1.42427,-4.39728 0.004,2.10078 0.31879,4.92668 0.10989,6.65031 0.72969,0.62822 -0.24448,1.08726 -0.82578,1.07285 z m -2.89788,-1.53765 c -0.57421,-3.22267 -1.2339,-6.55158 -0.5173,-9.8643 1.03201,-3.59451 3.36938,-6.90465 6.45019,-9.00272 2.46276,-1.24564 5.53043,-2.52318 8.08032,-0.70887 1.52548,0.7722 4.4031,3.48069 3.34262,4.68144 -1.35419,-1.64336 -3.56874,-2.82298 -5.17088,-3.57302 1.1106,-0.0529 3.20196,0.5376 0.97288,-0.64113 -2.12817,-0.98035 -4.63195,-0.31464 -6.56616,0.89053 -2.18467,1.00585 -3.64943,3.21201 -4.85789,5.24389 -2.01477,2.40518 -1.71851,6.15987 -1.32398,9.20535 -0.31725,0.83279 1.60415,5.12969 -0.4098,3.76883 z m 9.89185,-0.0209 c -0.88022,-2.57054 3.15107,0.20384 0.29045,0.23816 -0.0967,-0.0793 -0.19364,-0.15878 -0.29045,-0.23816 z m 16.38701,-0.66081 c -1.88866,-2.52464 -3.73499,-5.09799 -5.40219,-7.72263 -0.67348,-1.56443 -3.30454,-5.17175 -2.22527,-5.89115 1.88942,2.08025 2.89609,4.80697 4.39981,7.29528 1.20186,2.27993 3.14816,4.09304 4.48514,6.25643 -0.30737,0.31436 -0.87426,0.0566 -1.25749,0.0622 z m 1.84242,-0.85088 c -0.14621,-1.0083 0.73183,0.26765 0,0 z m -40.9101,-0.8881 c -0.71414,-2.07813 2.57996,-5.96682 1.15415,-6.63201 -0.44457,1.478 -2.32667,3.49103 -1.23912,0.6318 2.03927,-1.64187 2.73211,-4.43062 4.3454,-6.16894 -1.05997,3.49901 -2.36033,6.95889 -3.20696,10.53589 -0.22238,0.6048 -0.45077,1.29792 -1.05347,1.63326 z m 40.4685,-0.46514 c -1.18011,-2.50097 -3.54745,-4.27036 -4.54336,-6.75689 -2.39833,-2.02046 -2.71134,-5.3766 -5.02794,-7.47619 -2.01129,-2.14976 -4.3819,-4.62673 -7.62383,-4.26136 -3.05469,0.53759 -6.46541,2.02298 -8.12404,4.72826 -1.07028,1.81008 -2.35469,0.61034 -0.70066,-0.63544 2.32252,-3.06953 6.26375,-4.47104 9.98162,-4.8214 3.51895,0.52375 6.3651,2.83243 8.39826,5.63962 1.83645,2.31336 2.88569,5.13339 4.85747,7.36349 0.24965,1.89702 4.68482,4.68525 2.78248,6.21991 z M 607.086,909.37445 c -0.1921,-0.77036 0.63869,0.186 0,0 z m 16.41203,-2.09495 c -0.25674,-1.02437 0.68032,-5.50833 0.80661,-2.22705 -0.1072,0.44206 -0.0563,2.75622 -0.80661,2.22705 z m 26.87022,-1.06131 c -3.00569,-3.93829 -6.12248,-7.79647 -9.3132,-11.57868 -2.34051,-2.03283 -4.96875,-4.25472 -8.24468,-4.29492 -2.69999,-0.98283 -5.58422,-0.7979 -8.19384,0.27859 -2.81491,1.0719 -5.42247,2.53752 -7.62583,4.61835 -1.69162,0.97856 -3.57822,4.92704 -4.72937,4.12423 2.66537,-3.54422 6.05333,-6.65197 10.05226,-8.60765 4.68454,-1.85272 10.06293,-2.23394 14.76867,-0.23258 2.37918,1.02512 4.20526,3.0792 6.02841,4.82971 2.26571,2.23661 3.86312,4.9568 5.92259,7.31056 0.0313,1.11194 4.20962,4.07578 1.33499,3.55239 z m -17.85032,-0.27373 c -1.08443,-1.48152 -0.24159,-3.03074 0.45001,-0.79809 0.26302,0.28666 0.14158,1.57608 -0.45001,0.79809 z m -25.90786,-0.65759 c 3.01409,-3.60758 4.265,-8.66661 8.41342,-11.29704 0.4493,1.49384 -3.8999,3.88173 -4.52464,6.30807 -1.01758,1.79458 -1.48093,4.57376 -3.88878,4.98897 z m 9.90845,0.0461 c -0.43933,-2.09859 2.24102,0.39167 0,0 z m 9.03364,-0.53109 c -0.99731,-1.2924 1.72823,-6.03138 1.70436,-3.64468 -0.7178,1.14198 -0.83383,2.59469 -1.70436,3.64468 z m -8.56847,-0.86437 c 0.0718,-1.47612 2.18842,-5.46784 1.20264,-1.83445 -0.2152,0.60952 -0.24951,1.95365 -1.20264,1.83445 z m 33.95868,-0.7138 c -3.26894,-4.55417 -6.80404,-9.11917 -11.40143,-12.40198 -3.84547,-2.39182 -8.66485,-3.21313 -13.03161,-1.98694 -1.59775,0.3526 -3.38159,-0.14621 -0.90466,-0.57067 2.68264,-0.21258 5.30188,-1.10448 8.00093,-0.62354 4.46197,0.7976 8.71999,3.23914 11.494,6.85825 2.35993,2.62944 4.83448,5.21073 6.75202,8.18265 0.6015,0.868 -0.47248,0.85759 -0.90925,0.54223 z m -44.12427,-0.15045 c 0.0149,-2.94144 2.57581,-5.1669 4.05409,-7.51867 2.73138,-3.5198 6.24836,-6.47428 10.27898,-8.3771 1.93054,0.17174 -2.53509,2.2931 -3.60726,2.97652 -2.31825,1.462 -3.7847,3.88324 -5.98064,5.49011 -1.26372,2.27273 -3.08765,4.23596 -3.94048,6.71085 -0.0775,0.32968 -0.38163,0.82254 -0.80469,0.71829 z m 17.5596,-0.27462 c -0.61983,-1.71023 1.34958,0.96282 0,0 z m 27.73054,-1.99551 c -2.967,-4.04228 -6.441,-7.79728 -10.41241,-10.86483 -2.58085,-1.24739 -5.07684,-3.05595 -8.06408,-3.13528 -1.90201,-1.23921 -4.47028,1.09551 -5.70946,-0.14768 2.37101,-1.83342 5.64111,-0.68738 8.43818,-0.1014 3.3928,1.20395 6.82121,2.71572 9.26604,5.47822 2.9031,2.06831 4.44713,5.48087 6.97131,7.92504 0.36502,0.39422 0.19716,1.17771 -0.48958,0.84602 z m -45.93392,-0.93015 c -0.46716,-1.49577 3.65561,-5.07523 1.896,-2.24273 -0.76788,0.59761 -0.63786,2.36616 -1.896,2.24273 z m 21.5684,-0.30592 c 0.75175,-1.48668 5.06986,-1.4337 1.77414,-0.20222 -0.42295,0.14492 -1.74157,1.27534 -1.77414,0.20222 z m 24.83502,-1.00765 c -1.01938,-2.05489 -3.72644,-4.67989 -4.24733,-5.94836 2.22454,0.65977 4.57462,2.89505 5.86517,4.36914 -0.96628,-0.80673 -3.6428,-1.61818 -1.62042,0.22119 0.58994,0.6168 1.96032,2.83132 10e-4,1.35803 z m -46.64177,-1.63174 c -1.30868,-1.64467 3.79313,-3.91275 1.41303,-1.39107 -0.32064,0.4498 -0.53568,2.30429 -1.41303,1.39107 z m 3.09161,-1.01856 c -0.72194,-1.4916 2.76808,-2.69512 0.91462,-0.56602 -0.15452,0.2982 -0.50714,0.84797 -0.91462,0.56602 z m 44.56768,-1.31338 c -3.40207,-2.03285 -5.23174,-5.79413 -8.66403,-7.78978 -2.03045,-1.90655 -4.36502,-3.15278 -7.02907,-3.95095 -3.05845,-1.16411 -6.31532,-1.4523 -9.56956,-1.27021 -2.65405,0.0167 -5.4137,0.46845 -7.91323,1.00346 -4.03033,1.41095 -7.0435,4.54512 -10.44851,6.98336 -2.47714,0.51901 1.56523,-2.50681 2.47944,-2.92689 2.2121,-2.26038 5.20497,-3.55891 7.98213,-4.93381 2.7683,-0.18742 5.47544,-0.71228 8.22794,-1.05168 2.69738,-0.41302 5.19858,0.51932 7.82631,0.85383 2.38793,0.6978 4.83359,1.34842 6.79444,3.03062 2.71568,1.3799 4.75797,3.668 7.08827,5.56637 -0.15248,1.83784 5.61046,3.95365 3.22587,4.48568 l 0,0 z m -33.93975,-0.0803 c 1.44981,-1.94856 4.12065,-2.22896 6.12784,-3.36778 1.28025,-1.15 6.68992,-0.82055 2.79703,10e-4 -3.11359,0.34244 -5.6455,2.33167 -8.54833,3.29511 l -0.37654,0.071 0,0 z m -14.37622,-0.52278 c 0.76355,-2.00033 1.33494,0.66772 0,0 z m 2.93428,-0.16472 c 1.04953,-3.4969 4.72994,-5.08722 7.37761,-7.20893 2.47813,-2.4827 5.95692,-3.69767 9.4298,-3.72074 3.5408,-1.0114 7.31595,-0.6116 10.81667,0.33479 1.18815,0.46604 5.6024,1.21948 4.64735,2.253 -2.48571,-0.62922 -4.82074,-1.8628 -7.39234,-2.08408 -3.05996,-1.12925 -6.2642,-0.38595 -9.30188,0.34972 -4.78909,0.46047 -8.40569,3.87799 -12.07176,6.61562 -1.18668,1.09187 -1.80957,3.06703 -3.50545,3.46062 z m 2.413,-0.47718 c 1.54512,-2.79533 4.56014,-4.24435 6.88949,-6.28057 3.57427,-2.25783 7.84622,-3.19344 12.02784,-3.3235 2.66886,-0.0884 5.22022,0.77135 7.71251,1.45686 1.62528,0.18756 4.09216,2.43575 4.95975,1.88893 -2.27292,-3.23844 3.20187,1.49458 4.07819,2.37522 1.51906,0.6164 3.19472,3.53333 0.54684,2.24238 -1.70684,-2.46217 -4.2399,-3.77167 -7.01946,-4.67613 -4.36001,-2.41069 -9.53157,-2.6007 -14.38595,-2.18857 -4.15522,0.53968 -7.84165,2.80955 -10.8083,5.68024 -1.79646,0.0724 -2.30714,3.04909 -4.00091,2.82514 z m 4.96166,0.2372 c 1.12544,-2.60897 4.78006,-3.43836 6.44112,-5.04989 0.12177,1.52764 2.29786,0.42052 0.17766,1.29481 -2.58596,0.60427 -4.29569,3.09527 -6.61873,3.75508 z m -9.49693,-0.6873 c 1.0102,-2.89226 2.34216,1.65793 0,0 z m 47.73652,-1.21207 c -2.67908,-2.29016 -6.15624,-5.23577 -8.10491,-7.41115 3.09084,-0.12191 4.71909,3.46587 6.89904,5.28345 0.92753,0.21802 3.85377,3.99306 1.20587,2.1277 z m -48.12414,0.0389 c -0.98005,-1.67651 3.08548,-1.95653 0.60251,-0.40363 l -0.27771,0.19338 -0.3248,0.21025 z m 2.33111,-0.34353 c -0.52299,-1.90346 1.82454,0.20296 0,0 z m -1.01319,-1.6758 c -1.83095,-1.62793 3.21579,-2.92736 3.77467,-4.71369 1.27716,-1.49743 3.58004,-0.93728 1.1864,0.61289 -1.96617,0.78058 -4.05703,3.68446 -4.96107,4.1008 z m 47.68868,-0.28706 c -2.21497,-1.74579 -3.88804,-4.08549 -6.22414,-5.69637 -1.61793,-2.41276 -4.35516,-3.07303 -6.72974,-4.39843 -1.51687,-1.68367 -5.36268,-1.23859 -5.89627,-3.04988 2.79123,0.37462 5.36018,1.62168 7.8205,2.93684 3.47503,1.68813 6.26924,4.45228 9.15353,6.95885 0.55497,0.2501 4.21677,5.28326 1.87612,3.24899 z m -32.33854,-1.24374 c 0.86366,-1.37729 5.56955,-1.36341 4.51433,-0.93571 -1.53689,0.16268 -2.91913,1.2741 -4.51433,0.93571 z m -16.57115,-0.90768 c 0.31692,-0.98497 1.05941,0.50091 0,0 z m 0.75587,-0.67178 c -0.0689,-1.72346 5.28078,-3.55461 2.35181,-1.32582 -0.73126,0.22535 -1.65568,1.79304 -2.35181,1.32582 z m 15.81528,0.21262 c 1.319,-1.08425 5.96022,-2.16729 5.40836,-1.09051 -1.74415,0.60673 -3.59344,0.80623 -5.40836,1.09051 z m 32.1829,-0.68757 c -2.36393,-3.08745 -5.74233,-5.23284 -9.05605,-7.17301 -4.07256,-2.14357 -8.65347,-4.53295 -13.38473,-3.18217 -2.80695,0.6912 -5.87789,0.11937 -8.52111,1.50107 -1.15725,0.18665 -5.12889,2.29243 -4.55298,0.83787 2.90269,-1.14177 5.73765,-2.69861 8.94202,-2.68509 2.88207,-0.23255 5.741,-1.05635 8.63239,-0.78703 3.07567,0.60954 6.04866,1.64166 8.76136,3.23424 3.07866,1.23766 5.46103,3.66589 8.14993,5.52193 0.55665,0.26525 2.8232,3.37809 1.02917,2.73219 z m -48.38339,-1.13791 c 0.56437,-2.95882 4.07071,-3.83356 6.27488,-5.32058 3.57338,-2.19822 7.41749,-3.93688 11.3369,-5.41268 2.64143,-0.68493 5.47407,-1.08656 8.16807,-0.62248 -1.09828,1.05369 -4.71233,0.41322 -6.76619,1.14943 -5.04701,1.41509 -9.69444,4.00048 -14.19585,6.61293 -1.48358,1.30942 -3.6417,2.41234 -4.81781,3.59338 z m 37.16153,-1.51857 c -1.68421,-2.54801 3.88583,2.11839 0.29056,0.29134 -0.0967,-0.0972 -0.19371,-0.19424 -0.29056,-0.29134 z m -33.17138,0.20896 c 1.74402,-2.16307 4.43312,-3.19836 6.81029,-4.42818 2.83293,0.0906 -2.05528,1.77775 -2.88699,2.47562 -1.24183,0.63092 -2.52546,2.06814 -3.9233,1.95256 z m 3.20259,-0.004 c 1.88282,-1.78865 4.48734,-2.50037 6.585,-3.99049 2.91949,-1.30022 5.90985,-2.5104 9.16049,-2.56888 2.65384,-0.90441 5.15954,-0.0277 7.68342,0.89904 1.18831,0.2708 5.47906,2.01548 2.11429,1.31499 -4.79336,-1.81981 -10.12279,-1.7348 -15.04418,-0.49833 -3.15134,1.23185 -6.02952,3.00863 -8.994,4.59039 -0.47975,0.17638 -0.99208,0.28008 -1.50502,0.25328 z m 33.25643,-0.12106 c -2.0102,-1.36645 -4.36532,-1.77716 -6.69432,-2.12604 -3.72414,-1.05943 -7.6217,-1.95367 -11.51093,-1.68445 -2.19735,-0.0994 -4.64439,1.53478 -6.6079,0.92303 2.56198,-1.06271 5.39221,-1.55941 8.13373,-1.77051 4.12358,-0.29098 8.03289,1.19558 12.00746,2.02599 0.8879,0.22202 5.96875,1.97046 4.67196,2.63198 z m -40.45159,-1.24339 c 0.90528,-3.15698 4.85108,-3.72505 7.28219,-5.33179 4.15635,-1.69398 7.90413,-4.50057 12.47784,-5.03761 1.21534,-0.5031 6.23581,-0.12304 2.46241,0.5137 -2.69178,0.25378 -5.34015,0.75727 -7.79245,1.99207 -3.2911,0.92909 -5.90994,3.29524 -9.09935,4.48075 -1.86699,0.993 -3.53579,2.24653 -5.33064,3.38288 z m 48.20967,-0.39635 c -3.21209,-2.06892 -6.47334,-4.032 -9.87656,-5.76557 -2.36942,-1.30819 -5.09093,-1.71632 -7.56309,-2.74606 -2.06246,0.46848 -5.12514,-0.58247 -6.14739,-1.36945 2.72963,-0.56314 5.77173,0.64879 8.52283,1.23212 2.42654,0.93802 4.9866,1.74073 7.19508,3.06601 0.65912,0.95947 4.36219,2.27175 2.23306,0.19367 -4.23656,-2.48331 -8.75366,-4.68368 -13.67483,-5.42754 -5.12671,-0.73123 -10.56258,-0.64325 -15.2849,1.71006 -1.28468,0.28929 -4.48225,2.98663 -4.69118,1.03671 2.12904,-1.06049 4.87031,-2.01636 7.46446,-2.77712 4.7647,-1.60284 10.06065,-1.88361 14.8559,-0.25908 4.60659,0.98329 8.86926,3.09193 12.64461,5.8801 0.9139,2.31458 5.37553,3.43147 4.99123,5.67668 l -0.24341,-0.11696 -0.42581,-0.33364 0,0 z m 0.10564,-3.07935 c -2.41598,-1.87379 -4.7167,-3.88993 -7.37979,-5.4138 -3.44762,-2.47051 -7.71307,-3.09732 -11.70111,-4.2331 -3.0881,-0.52604 -6.3565,-0.97257 -9.43892,-0.14842 -2.86753,0.49081 -5.62151,1.70943 -8.51644,2.22885 -2.21181,0.94029 -4.86372,3.18912 -6.91431,3.14996 2.73035,-2.10958 5.77357,-3.92864 9.21217,-4.78136 2.8599,-0.96712 5.8634,-0.95663 8.72289,-1.95025 2.69656,0.28714 5.53228,0.28305 8.18608,0.96292 5.31716,1.11085 10.52975,3.27953 14.88488,6.60853 1.29649,0.1449 5.11602,4.7984 2.97786,3.60968 l -0.0334,-0.033 c 0,0 0,0 0,0 z m -48.32512,0.31267 c 1.40387,-2.36671 4.73711,-2.41211 6.74224,-4.09957 1.98463,-1.45523 2.25894,0.6435 0.15305,0.94628 -2.20032,1.36924 -4.66564,1.83106 -6.89533,3.15329 z m 1.40525,-2.65142 c -0.0724,-1.86577 2.08221,0.8934 0,0 z m 1.74272,-0.94032 c 0.48266,-1.62986 1.49977,0.36577 0,0 z m -2.20788,-0.45515 c 0.28675,-1.58886 5.71275,-3.46802 2.65409,-1.13228 -0.72751,0.62955 -1.64242,1.24084 -2.65409,1.13228 z m 46.63939,-0.15509 c -2.59677,-0.88898 -4.30998,-3.30641 -6.93548,-4.19565 -4.59371,-2.41558 -9.77983,-3.2672 -14.89062,-3.7587 -3.33458,-0.92911 -6.43114,0.48973 -9.73377,0.56264 -2.87878,0.74726 -5.5847,2.06318 -8.42576,2.92994 -0.1451,-2.00389 4.17371,-1.66731 5.68574,-3.05509 2.32547,-1.07188 5.11738,-0.12545 7.45436,-1.34561 2.4944,-0.57937 4.9866,0.0796 7.45333,0.22903 2.45487,1.24198 5.13765,0.84555 7.72929,1.41188 3.81283,1.15868 7.38132,3.13063 10.35885,5.75256 3.54923,1.64025 -2.10112,-2.83389 -3.11564,-3.7382 -2.8294,-2.51897 -6.66435,-3.16107 -10.18614,-4.06269 -3.94261,0.26718 -7.87909,-1.86774 -11.75402,-0.42051 -1.28725,-0.75089 -5.345,2.04904 -4.74474,0.16508 2.79028,-1.09247 5.87787,-1.38633 8.85272,-1.44754 2.93489,0.13832 5.64406,1.40447 8.62092,1.20608 4.16321,0.0346 7.91412,2.13348 10.90692,4.88312 1.00154,0.33149 6.32873,5.95623 2.72404,4.88362 z m -45.70908,-2.51959 c 1.21182,-2.67849 7.26067,-2.67504 2.34864,-0.73016 -0.77246,0.27663 -1.57164,0.46781 -2.34864,0.73016 z m 3.06429,-0.0628 c 1.63632,-2.00324 2.63837,1.01867 0,0 z m -3.60699,-1.34974 c 0.81427,-1.80574 1.40386,0.68714 0,0 z m 45.93532,-0.42725 c -0.40853,-2.18329 2.10455,0.63128 0,0 z m -44.51656,-0.43177 c 1.53671,-2.55399 5.28996,-2.82791 7.50164,-4.61873 0.27083,0.40497 -0.46687,1.96114 -1.03956,2.30683 -1.89224,-0.34884 -4.61848,1.81501 -6.46208,2.3119 z m 43.20275,-0.39777 c -0.86706,-2.78419 -4.28845,-3.21972 -6.31052,-4.90097 -2.48484,-0.72982 -4.83652,-1.75362 -7.16063,-2.88265 -2.59726,-0.97649 -5.42097,-0.80619 -8.1249,-1.29284 -2.66475,0.33951 -5.32539,0.50821 -7.96405,1.23023 -3.1073,0.77592 -6.13905,2.10478 -8.7766,3.82338 -1.89964,-1.55021 3.50256,-2.54195 4.8372,-3.48651 2.98481,-0.97873 5.97328,-2.02675 9.15411,-2.19252 3.22854,-0.50847 6.42821,0.17952 9.59594,0.63059 4.39593,1.48055 8.75771,3.19922 12.70765,5.65497 1.11225,0.18192 5.02319,3.70394 2.0418,3.41632 z m -35.15744,-2.42126 c 0.33994,-2.12843 4.21695,-0.27558 1.00044,-0.31543 -0.38792,-0.17175 -0.69227,0.80026 -1.00044,0.31543 z m -6.64404,-0.25824 c -0.75282,-2.6462 4.61161,-0.86102 0.97108,-0.36683 -0.28783,0.1647 -0.59438,0.65159 -0.97108,0.36683 z m 7.6072,-1.39597 c 1.40781,-1.80121 4.59184,-2.50286 6.69726,-2.78526 -0.16989,1.64861 -3.77521,1.25194 -5.12293,2.722 -0.50457,0.16933 -1.05813,0.20358 -1.57433,0.0632 z m 32.49601,-0.84972 c -3.63246,-1.90961 -7.37687,-3.57659 -11.28576,-4.84147 -2.68955,-1.06393 -5.73436,-1.01662 -8.59663,-1.17058 -2.85289,0.49823 -5.82003,-0.0149 -8.57721,0.90918 -1.60327,0.2565 -5.81784,3.03086 -6.02756,1.18848 2.69406,-0.50581 4.88536,-2.55744 7.72562,-2.56553 3.08256,-0.31206 6.17813,-0.37221 9.24332,-0.6184 2.63826,0.20211 5.12019,0.55784 7.49625,1.74498 2.97012,0.99888 5.76456,2.48268 8.78756,3.32844 0.26912,0.50409 3.91701,2.8869 1.23441,2.0249 z m -39.52445,-0.31282 c 0.14638,-2.08048 6.18281,-3.55805 2.78666,-1.1613 -0.87673,0.50263 -1.83477,0.83449 -2.78666,1.1613 z m 28.94987,-0.34745 c -3.74589,-0.84517 -7.55611,-1.38706 -11.40336,-1.09025 -1.37067,0.26194 -3.72998,-0.60106 -1.046,-0.83761 3.1617,-0.14806 6.40904,-0.28925 9.53206,0.28819 0.51458,-0.0785 4.99426,1.75945 2.9173,1.63967 z m 7.62353,-3.18032 c -3.03366,-1.6578 -6.3938,-2.51567 -9.60601,-3.73091 -1.30843,-0.19432 -6.72265,-0.65927 -2.84205,-1.2119 3.4087,0.0679 6.4344,1.92726 9.69982,2.71741 0.7642,-0.0265 6.33291,3.11936 2.74824,2.2254 z m -33.1272,-0.70766 c 1.37295,-2.08499 4.22349,-2.30663 6.27538,-3.44149 2.76107,-0.39933 5.74239,-1.90563 8.31661,-1.34548 -3.04784,1.57655 -6.43382,1.49261 -9.51093,2.76129 -1.66743,0.74016 -3.30583,1.56317 -5.08106,2.02568 z m 13.9164,-2.77486 c 0.6859,-1.92742 2.27679,0.78539 0,0 z m 3.60738,-1.2752 c -0.1921,-0.77033 0.63868,0.18602 0,0 z m -1.45987,-0.34361 c 0.41647,-1.39336 0.45684,1.12447 0,0 z m -0.40204,-1.05395 c 0.0755,-0.64388 0.6165,0.38733 0,0 z"
       id="path2830" />
    <path
       style="opacity:1;fill:#008000;fill-opacity:1;stroke:none;stroke-width:0.40000001;stroke-miterlimit:4;stroke-dasharray:none;stroke-dashoffset:0;stroke-opacity:1"
       id="path7518"
       d="m 270.9536,739.86456 c 1.65127,1.23333 3.34282,2.40905 5.02415,3.60103 1.26145,0.77057 2.42928,1.67706 3.58223,2.59887 1.24126,0.88657 2.40515,1.87902 3.65737,2.75116 1.07025,0.86431 2.20137,1.64816 3.33839,2.42047 1.35591,0.69979 2.63591,1.49047 3.87326,2.38288 1.0804,1.02828 2.36539,1.7769 3.63692,2.53783 1.10369,0.8556 2.34517,1.49342 3.55975,2.17183 1.21795,0.64134 2.33601,1.42313 3.4431,2.23433 0.85568,0.55912 1.74331,1.05205 2.63841,1.54636 0.70527,0.52482 1.46039,0.9683 2.21411,1.4187 0,0 -1.47306,2.44814 -1.47306,2.44814 l 0,0 c -0.72129,-0.43636 -1.46153,-0.8502 -2.12727,-1.3685 -0.99835,-0.55608 -1.99,-1.11196 -2.94404,-1.74233 -1.01055,-0.74439 -2.02864,-1.46182 -3.1465,-2.0434 -1.23794,-0.6939 -2.51156,-1.33998 -3.63505,-2.21549 -1.33611,-0.80427 -2.70081,-1.58864 -3.83777,-2.67021 -1.21757,-0.87828 -2.48614,-1.63299 -3.81221,-2.34005 -1.14395,-0.78349 -2.29217,-1.56502 -3.36852,-2.44131 -1.29681,-0.91452 -2.51721,-1.9312 -3.80282,-2.86023 -1.10848,-0.88926 -2.23324,-1.75798 -3.44882,-2.49829 -1.74175,-1.23502 -3.49624,-2.45062 -5.20073,-3.73687 0,0 1.8291,-2.19492 1.8291,-2.19492 z"
       inkscape:connector-curvature="0" />
    <path
       style="opacity:1;fill:#008000;fill-opacity:1;stroke:none;stroke-width:0.40000001;stroke-miterlimit:4;stroke-dasharray:none;stroke-dashoffset:0;stroke-opacity:1"
       id="path7520"
       d="m 295.74703,766.88898 c 2.01189,-0.23257 3.97405,-0.75243 5.97597,-1.06065 0.90226,-0.43195 2.46473,-0.3031 3.20341,-0.9563 0.23021,-0.55723 0.21874,-1.09492 0.12353,-1.67409 -0.21179,-1.14294 -0.30161,-2.28999 -0.6136,-3.41004 -0.20974,-0.82044 -0.11143,-0.4001 -0.29282,-1.26151 0,0 2.79706,-0.58286 2.79706,-0.58286 l 0,0 c 0.14798,0.71937 0.0651,0.35847 0.24945,1.08251 0.34145,1.24118 0.46999,2.50556 0.68892,3.77192 0.21956,1.70626 -0.0614,3.34422 -1.44729,4.50254 -1.32285,0.74399 -2.81837,0.9635 -4.27573,1.35198 -2.02822,0.30943 -4.01436,0.84682 -6.05452,1.07158 0,0 -0.35438,-2.83508 -0.35438,-2.83508 z"
       inkscape:connector-curvature="0" />
    <path
       style="opacity:1;fill:#008000;fill-opacity:1;stroke:none;stroke-width:0.40000001;stroke-miterlimit:4;stroke-dasharray:none;stroke-dashoffset:0;stroke-opacity:1"
       id="path7532"
       d="m 143.70835,710.33403 c 0.37161,1.48016 0.54638,2.99521 0.91908,4.474 0.33574,1.02483 0.32812,2.11287 0.52823,3.15989 0.23865,1.02879 0.36385,2.07515 0.43594,3.12713 0.0527,0.99482 0.29095,1.96841 0.41449,2.95743 0.11712,1.05342 0.13338,2.11408 0.1446,3.1728 0.0242,1.05925 0.0368,2.10411 -0.16613,3.1468 -0.21729,0.86922 -0.23007,1.7669 -0.3915,2.64396 -0.23171,0.80097 -0.34253,1.62158 -0.40286,2.45063 -0.0141,0.18136 -0.35994,1.78948 -0.53018,1.80237 -2.37413,0.17976 -2.09672,0.42097 -2.46743,-0.80656 0.01,-1.06542 0.17448,-2.14841 0.41555,-3.18754 0.29903,-0.84326 0.35716,-1.7368 0.55083,-2.60248 0.24581,-0.85908 0.37776,-1.7395 0.59688,-2.60536 0.33355,-1.14489 0.82579,-2.19101 1.64872,-3.05742 0.96957,-0.79231 2.17492,-0.90466 3.37577,-0.96434 1.24372,9.2e-4 2.26864,0.53229 3.20291,1.30545 0.77029,0.60097 1.39263,1.29845 1.82141,2.17637 0.38795,1.02781 0.40985,2.13231 0.43343,3.21652 0.0721,1.07178 -0.0976,2.12053 -0.44467,3.1311 -0.22714,0.72388 -0.65703,1.3592 -0.86983,2.0862 -0.24608,0.5919 -0.13112,0.31783 -0.34416,0.8225 0,0 -2.32649,-0.98232 -2.32649,-0.98232 l 0,0 c 0.1867,-0.44207 0.0984,-0.24466 0.26047,-0.59422 0.24843,-0.76645 0.63634,-1.45747 0.91277,-2.2118 0.30998,-0.67994 0.29972,-1.46824 0.2871,-2.19777 -0.0154,-0.74367 -0.0167,-1.50084 -0.20749,-2.22484 -0.20138,-0.56941 -0.74248,-0.91684 -1.17287,-1.3102 -0.41291,-0.39544 -0.85722,-0.63929 -1.43201,-0.69449 -0.58063,0.0264 -1.18185,0.0391 -1.73172,0.2484 -0.57162,0.40889 -0.69357,1.27075 -0.96521,1.87073 -0.21664,0.8551 -0.34304,1.72599 -0.5892,2.57418 -0.23413,0.85709 -0.21968,1.7821 -0.55516,2.62025 -0.17287,0.62179 -0.10615,1.55053 -0.39806,2.05031 -2.10814,-2.19507 -2.52519,1.6786 -1.9898,-0.65217 0.0705,-0.93256 0.18767,-1.86019 0.44563,-2.76211 0.20584,-0.86057 0.12626,-1.78324 0.39049,-2.63894 0.17874,-0.86749 0.11938,-1.7434 0.11757,-2.62664 -0.0101,-0.96385 -0.0225,-1.92955 -0.12558,-2.88891 -0.12702,-1.03545 -0.38333,-2.05385 -0.42789,-3.09743 -0.0641,-0.96233 -0.18334,-1.91779 -0.40322,-2.8584 -0.1666,-0.99405 -0.19755,-2.01084 -0.49049,-2.98332 -0.37147,-1.48078 -0.5605,-2.99326 -0.9199,-4.47726 0,0 2.44998,-0.6125 2.44998,-0.6125 z"
       inkscape:connector-curvature="0" />
    <path
       style="opacity:1;fill:#008000;fill-opacity:1;stroke:none;stroke-width:0.40000001;stroke-miterlimit:4;stroke-dasharray:none;stroke-dashoffset:0;stroke-opacity:1"
       id="path7534"
       d="m 163.90373,726.65507 c -1.21589,0.35051 -2.34502,0.88682 -3.43962,1.50973 -0.46511,0.33184 -0.753,0.87737 -0.95244,1.40743 -0.20474,0.73108 -0.21137,1.49854 -0.23035,2.25212 -0.0112,0.87226 -0.0626,1.73672 0.11522,2.59305 0.0926,0.17689 0.42487,0.16531 0.6332,0.11533 0.54829,-0.0488 1.07895,-0.31055 1.48268,-0.68431 0.5495,-0.36275 0.92437,-0.86845 1.31123,-1.38252 0.37852,-0.64525 0.85379,-1.23636 1.18258,-1.90939 0.49294,-0.61297 0.62348,-1.34228 0.85874,-2.06487 0.28999,-0.7119 0.37741,-1.46902 0.43425,-2.22835 -0.0136,-0.26754 0.0484,-0.53562 0.0358,-0.80339 -0.005,-0.10993 -0.0416,0.28256 0.0601,0.32462 2.30949,0.95511 1.1268,0.29058 1.7639,0.45487 -0.177,0.66668 -0.46028,1.29264 -0.61654,1.96614 -0.16153,0.85338 -0.17354,1.72515 -0.18888,2.59074 -0.0115,0.73035 -0.028,1.52141 0.28261,2.20268 0.14713,0.50589 0.33234,0.47117 0.78732,0.55558 0.58543,0.11135 1.14941,0.0981 1.7275,-0.018 0,0 0.47155,2.48096 0.47155,2.48096 l 0,0 c -0.92369,0.16924 -1.83958,0.18827 -2.76511,-0.002 -1.2059,-0.30106 -2.19217,-0.88987 -2.58956,-2.13994 -0.34488,-1.00894 -0.51128,-2.05546 -0.43928,-3.12482 0.0191,-1.04888 0.0426,-2.1048 0.2584,-3.13556 0.2328,-0.94618 0.57138,-1.87125 0.96061,-2.76145 1.81667,-2.38986 3.10714,-0.0796 2.76944,1.60324 -0.0762,0.96781 -0.20192,1.9338 -0.56008,2.84405 -0.2976,0.81994 -0.43342,1.70493 -1.00361,2.40751 -0.41806,0.79433 -0.93518,1.53007 -1.41928,2.28539 -0.5149,0.66742 -1.02672,1.32482 -1.72866,1.81383 -0.91242,0.70735 -1.9357,1.23014 -3.11778,1.24986 -1.43159,-0.0936 -2.64991,-0.65274 -3.0671,-2.14284 -0.20514,-1.04521 -0.19707,-2.09347 -0.16387,-3.15564 0.0279,-1.06023 0.0611,-2.13673 0.41922,-3.14734 0.44675,-1.04339 1.04608,-2.03533 2.03917,-2.64206 1.29391,-0.73617 2.63831,-1.35776 4.07607,-1.76479 0,0 0.6125,2.44998 0.6125,2.44998 z"
       inkscape:connector-curvature="0" />
    <path
       style="opacity:1;fill:#008000;fill-opacity:1;stroke:none;stroke-width:0.40000001;stroke-miterlimit:4;stroke-dasharray:none;stroke-dashoffset:0;stroke-opacity:1"
       id="path7536"
       d="m 178.40131,725.10737 c -1.17169,0.15078 -2.43967,0.25882 -3.41678,0.98202 -0.63096,0.35904 -0.85602,0.8137 -0.98006,1.49062 -0.0656,0.0934 -0.0598,1.09125 0.18859,0.86322 0.888,0.1867 1.61674,0.81429 2.14684,1.51417 0.62103,1.12152 0.64731,2.30164 0.25657,3.49419 -0.39181,0.81764 -0.89219,1.61416 -1.51944,2.27078 -0.47502,0.52737 -1.09904,0.88343 -1.70048,1.24689 0,0 -1.2954,-2.16783 -1.2954,-2.16783 l 0,0 c 0.4409,-0.25899 0.89611,-0.50307 1.23674,-0.89096 0.43393,-0.2904 0.62444,-0.9391 0.91816,-1.35664 0.25557,-0.32335 0.0869,-0.81929 0.0147,-1.17763 -0.0909,-0.52873 -1.23455,-0.5554 -1.54917,-0.89507 -1.1672,-0.9867 -1.39649,-1.93759 -1.16789,-3.4234 0.2919,-1.29125 0.87986,-2.35638 2.04262,-3.06464 1.36497,-0.87457 2.90065,-1.2565 4.51177,-1.3916 0,0 0.31323,2.50588 0.31323,2.50588 z"
       inkscape:connector-curvature="0" />
    <path
       style="opacity:1;fill:#008000;fill-opacity:1;stroke:none;stroke-width:0.40000001;stroke-miterlimit:4;stroke-dasharray:none;stroke-dashoffset:0;stroke-opacity:1"
       id="path7538"
       d="m 185.38802,712.46176 c -0.36232,1.45922 -0.59518,2.94456 -0.74429,4.43937 -0.19774,1.13038 -0.42433,2.25225 -0.53344,3.39559 -0.0815,0.96873 -0.28774,1.94272 -0.57203,2.87282 -0.28788,0.76753 -0.41439,1.57254 -0.66612,2.35176 -0.17149,0.79506 -0.38752,1.57366 -0.60352,2.35824 -0.12264,0.83798 -0.30812,1.65516 -0.51171,2.47721 -0.0996,0.82681 -0.39822,1.60582 -0.57176,2.41642 -0.0592,0.12894 -0.61106,1.94181 -0.69642,1.892 -0.73173,-0.42696 -1.32406,-1.05726 -1.98609,-1.58589 0.27539,-0.5751 0.6176,-1.11897 0.79033,-1.73726 0.33875,-0.74768 0.54081,-1.53794 0.83541,-2.30196 0.22454,-0.79159 0.48861,-1.57393 0.82602,-2.32504 0.41305,-1.11362 0.88997,-1.74898 1.9753,-2.29245 1.18284,-0.43827 2.31438,-0.42869 3.45303,0.11171 1.15643,0.67965 1.4786,1.85545 1.63254,3.10044 0.087,1.04125 0.0726,2.08749 0.069,3.13137 0.0318,0.96578 -0.25709,1.8982 -0.38919,2.84769 -0.0727,0.58548 -0.093,1.17535 -0.11217,1.76441 0,0 -2.52401,-0.0833 -2.52401,-0.0833 l 0,0 c 0.0227,-0.67931 0.0483,-1.35945 0.1356,-2.03426 0.11946,-0.83581 0.36837,-1.65778 0.3644,-2.50345 0.003,-0.94278 0.0165,-1.88738 -0.0518,-2.82837 -0.0391,-0.36295 -0.0499,-0.80813 -0.23561,-1.12683 -0.0817,-0.0426 -0.13708,-0.12797 -0.22094,-0.1662 -0.32493,-0.14814 -0.75335,0.0628 -1.08487,0.0899 -0.50229,0.10792 -0.4971,0.65166 -0.7271,1.06647 -0.3553,0.67361 -0.50012,1.44395 -0.75391,2.15652 -0.27197,0.70523 -0.44927,1.43971 -0.7746,2.125 -0.25927,0.82252 -0.65797,1.57882 -1.06195,2.33774 -2.71339,-1.113 -2.66646,-0.27622 -1.92981,-2.17873 0.18573,-0.83376 0.47903,-1.63467 0.58779,-2.485 0.21066,-0.84517 0.385,-1.68329 0.52901,-2.54301 0.22856,-0.81934 0.44371,-1.63173 0.63437,-2.46096 0.25281,-0.77959 0.3678,-1.59133 0.66808,-2.3578 0.27521,-0.73023 0.36852,-1.5628 0.45911,-2.33234 0.1121,-1.1458 0.31554,-2.27506 0.53435,-3.40481 0.16329,-1.61595 0.41417,-3.22205 0.80705,-4.79951 0,0 2.44998,0.6125 2.44998,0.6125 z"
       inkscape:connector-curvature="0" />
    <path
       style="opacity:1;fill:#008000;fill-opacity:1;stroke:none;stroke-width:0.40000001;stroke-miterlimit:4;stroke-dasharray:none;stroke-dashoffset:0;stroke-opacity:1"
       id="path7540"
       d="m 196.0777,743.15632 c 1.25359,-0.29179 2.53048,-0.63841 3.64424,-1.30227 0.61366,-0.35775 1.19386,-0.80706 1.67158,-1.33585 0.36922,-0.50543 0.66054,-1.0564 0.96012,-1.60703 0.27663,-0.6256 0.30482,-1.32032 0.34319,-1.99324 0.0379,-0.97356 0.0309,-1.94818 0.0289,-2.92227 -0.0706,-0.92785 0.10952,-1.88893 -0.0545,-2.80724 -0.21262,-0.89538 -0.32825,-1.80538 -0.39692,-2.72171 -0.0605,-1.01881 -0.061,-2.03988 -0.0636,-3.0601 0.0687,-1.37733 0.49981,-2.14986 1.6081,-2.9634 0.59073,-0.42856 1.27733,-0.61355 1.97868,-0.76182 0,0 0.49778,2.47584 0.49778,2.47584 l 0,0 c -0.34296,0.0628 -0.68675,0.12288 -0.98213,0.32179 -0.5114,0.37536 -0.44304,0.0264 -0.57706,0.92136 0.002,0.96027 0.002,1.92132 0.0567,2.88039 0.0627,0.86502 0.18672,1.71911 0.38046,2.56526 0.12325,1.04383 0.0606,2.09475 0.0779,3.14462 0.002,1.02523 0.009,2.05104 -0.0333,3.07563 -0.0633,1.04816 -0.16297,2.10808 -0.64969,3.05875 -0.40752,0.73928 -0.8075,1.47966 -1.34646,2.13539 -0.6701,0.68516 -1.40646,1.31846 -2.2472,1.78649 -1.33584,0.74347 -2.78973,1.24077 -4.28431,1.55939 0,0 -0.61249,-2.44998 -0.61249,-2.44998 z"
       inkscape:connector-curvature="0" />
    <path
       style="opacity:1;fill:#008000;fill-opacity:1;stroke:none;stroke-width:0.40000001;stroke-miterlimit:4;stroke-dasharray:none;stroke-dashoffset:0;stroke-opacity:1"
       id="path7542"
       d="m 204.64761,728.68191 c 1.05841,0.72756 2.07466,1.54128 3.25499,2.06453 0.55131,0.18112 0.27499,0.10418 0.82851,0.2324 0,0 -0.6003,2.453 -0.6003,2.453 l 0,0 c -0.8519,-0.21572 -0.42633,-0.0875 -1.27584,-0.38757 -1.37504,-0.63884 -2.60083,-1.53402 -3.82407,-2.42231 0,0 1.61671,-1.94005 1.61671,-1.94005 z"
       inkscape:connector-curvature="0" />
    <path
       style="opacity:1;fill:#008000;fill-opacity:1;stroke:none;stroke-width:0.40000001;stroke-miterlimit:4;stroke-dasharray:none;stroke-dashoffset:0;stroke-opacity:1"
       id="path7544"
       d="m 213.83082,724.78242 c 0,1.53981 0,3.07962 0,4.61943 0.0802,1.04875 -0.12723,2.13472 0.0495,3.17422 0.0225,0.0236 0.0349,0.0686 0.0674,0.0707 0.019,0.001 0.0313,-0.11123 0.0505,-0.11712 0.14461,-0.0444 0.29782,0.0657 0.4558,0.0135 0.43125,-0.0667 0.72299,-0.51687 0.98327,-0.84579 0.43855,-0.55744 0.6505,-1.20219 0.92261,-1.84303 0.31052,-0.71214 0.42153,-1.48088 0.65663,-2.21955 0.25561,-0.79534 0.25832,-1.63477 0.40877,-2.44977 -0.26789,-1.07462 2.16098,0.42037 2.11837,0.7253 -0.13948,0.77082 -0.14361,1.55836 -0.15704,2.33921 -0.016,0.5616 0.0274,1.21241 0.4273,1.64983 0.34073,0.33479 0.7277,0.49306 1.19333,0.59034 0,0 -0.58398,2.45693 -0.58398,2.45693 l 0,0 c -1.07275,-0.27063 -1.96227,-0.75577 -2.68579,-1.60992 -0.61075,-0.9484 -0.9534,-1.98714 -0.87585,-3.13121 0.0181,-1.0268 0.0258,-2.06701 0.27808,-3.06886 0.0365,-0.10128 0.33173,-1.0347 0.51048,-1.02853 2.48618,0.0858 2.42162,0.1674 2.25089,1.57497 -0.21073,0.89122 -0.12892,1.85066 -0.47843,2.71858 -0.26149,0.81919 -0.37478,1.6791 -0.74798,2.4623 -0.38627,0.84505 -0.69268,1.71441 -1.29467,2.44691 -0.7693,0.90326 -1.62776,1.71814 -2.88866,1.7574 -1.46443,-0.049 -2.73946,-0.61322 -3.11462,-2.161 -0.1333,-1.1632 -0.0483,-2.33609 -0.0713,-3.50536 0,-1.53981 0,-3.07962 0,-4.61943 0,0 2.52538,0 2.52538,0 z"
       inkscape:connector-curvature="0" />
    <path
       style="opacity:1;fill:#008000;fill-opacity:1;stroke:none;stroke-width:0.40000001;stroke-miterlimit:4;stroke-dasharray:none;stroke-dashoffset:0;stroke-opacity:1"
       id="path7546"
       d="m 222.41712,733.41221 c -0.0826,-1.50122 0.13159,-2.98419 0.31363,-4.4689 0.0803,-1.11979 0.16435,-2.20928 0.57625,-3.26123 0.40327,-1.14635 1.34842,-1.56143 2.3773,-1.99807 0.9661,-0.428 1.96829,-0.57039 3.01213,-0.45175 0.98204,0.19298 1.70421,0.81011 2.44585,1.42806 0.60336,0.59034 1.21691,1.15658 1.70207,1.85018 0.65608,0.75415 0.91777,1.68787 1.07584,2.65133 0.18812,1.06032 0.078,2.0935 -0.13043,3.13724 -0.0732,0.59083 -0.31086,1.14191 -0.48613,1.70641 0,0 -2.41013,-0.75421 -2.41013,-0.75421 l 0,0 c 0.15125,-0.48032 0.35974,-0.94411 0.41984,-1.4471 0.15103,-0.75513 0.26249,-1.47857 0.11196,-2.25112 -0.0919,-0.63148 -0.23826,-1.16839 -0.68783,-1.6502 -0.28716,-0.52679 -0.85088,-0.84491 -1.21958,-1.30891 -0.36437,-0.30794 -0.70773,-0.65256 -1.13789,-0.8562 -0.60241,-0.0912 -1.16957,0.0315 -1.73023,0.27982 -0.48501,0.19735 -0.82711,0.14058 -1.02211,0.66055 -0.4359,0.75877 -0.19564,1.75054 -0.39031,2.57261 -0.16968,1.38319 -0.37896,2.76243 -0.29485,4.16149 0,0 -2.52538,0 -2.52538,0 z"
       inkscape:connector-curvature="0" />
    <path
       style="opacity:1;fill:#008000;fill-opacity:1;stroke:none;stroke-width:0.40000001;stroke-miterlimit:4;stroke-dasharray:none;stroke-dashoffset:0;stroke-opacity:1"
       id="path7548"
       d="m 240.17025,725.13984 c -1.26118,0.23254 -2.43045,0.65115 -3.49935,1.34817 -0.48579,0.36127 -0.52885,0.89969 -0.59187,1.46112 -0.007,0.84951 -0.15218,1.73607 0.006,2.57692 0.22135,0.35707 0.28657,0.38512 0.67504,0.47151 0.81689,0.14157 1.65095,0.13117 2.47728,0.13511 0.64627,-0.0821 1.23996,-0.26194 1.81083,-0.57173 0.53715,-0.24321 1.06287,-0.49853 1.58919,-0.76415 0,0 1.13703,2.25493 1.13703,2.25493 l 0,0 c -0.51694,0.26041 -1.03376,0.51358 -1.56155,0.75 -0.94051,0.47684 -1.92749,0.79212 -2.98795,0.85631 -1.07237,-0.005 -2.15827,0.004 -3.20778,-0.24685 -1.26753,-0.42763 -2.09739,-1.20059 -2.4318,-2.52591 -0.13363,-1.07696 -0.0883,-2.16797 -0.0125,-3.24922 0.17399,-1.30905 0.58367,-2.48253 1.72221,-3.26591 1.30647,-0.84572 2.72877,-1.38903 4.26242,-1.68028 0,0 0.61249,2.44998 0.61249,2.44998 z"
       inkscape:connector-curvature="0" />
    <path
       style="opacity:1;fill:#008000;fill-opacity:1;stroke:none;stroke-width:0.40000001;stroke-miterlimit:4;stroke-dasharray:none;stroke-dashoffset:0;stroke-opacity:1"
       id="path7550"
       d="m 251.04794,712.96683 c -0.36232,1.45923 -0.59519,2.94457 -0.7443,4.43938 -0.0431,1.04567 -0.34901,2.05189 -0.49244,3.08448 -0.10519,0.90482 -0.11249,1.81703 -0.12132,2.72674 -0.11599,0.91372 -0.32875,1.80657 -0.42088,2.72415 -0.19872,0.90568 -0.40313,1.80769 -0.71719,2.6807 -0.17592,0.74687 -0.50817,1.44207 -0.6897,2.18687 -0.13814,0.87834 -0.17041,1.75553 -0.36445,2.62599 -0.0292,0.13481 -0.0583,0.26963 -0.0875,0.40445 0,0 -2.46821,-0.53432 -2.46821,-0.53432 l 0,0 c 0.0307,-0.14198 0.0615,-0.28396 0.0923,-0.42594 0.20356,-0.88838 0.17689,-1.79948 0.37992,-2.69057 0.21384,-0.82312 0.55086,-1.5991 0.76188,-2.42268 0.24592,-0.68106 0.3905,-1.3822 0.58072,-2.08146 0.0871,-0.83931 0.23037,-1.66714 0.4079,-2.49192 0.0101,-1.01946 0.0215,-2.04166 0.14598,-3.05498 0.14287,-0.99922 0.42696,-1.97398 0.4803,-2.98388 0.1633,-1.61594 0.41417,-3.22204 0.80706,-4.7995 0,0 2.44998,0.61249 2.44998,0.61249 z"
       inkscape:connector-curvature="0" />
    <path
       style="opacity:1;fill:#008000;fill-opacity:1;stroke:none;stroke-width:0.40000001;stroke-miterlimit:4;stroke-dasharray:none;stroke-dashoffset:0;stroke-opacity:1"
       id="path7552"
       d="m 242.54471,724.4685 c 1.35616,-0.23429 2.5984,-0.81495 3.86516,-1.31906 0.77907,-0.45023 1.6124,-0.80098 2.39758,-1.23558 0.67722,-0.45282 1.41785,-0.77256 2.14041,-1.14216 0.52212,-0.24097 0.2458,-0.12385 0.83101,-0.34648 0,0 0.88056,2.36689 0.88056,2.36689 l 0,0 c -0.39211,0.14053 -0.19056,0.0592 -0.60285,0.24858 -0.70711,0.33678 -1.40202,0.65825 -2.05587,1.09886 -0.88052,0.46283 -1.77809,0.8929 -2.65926,1.35716 -1.37137,0.54258 -2.7192,1.16225 -4.18424,1.42177 0,0 -0.6125,-2.44998 -0.6125,-2.44998 z"
       inkscape:connector-curvature="0" />
    <path
       style="opacity:1;fill:#008000;fill-opacity:1;stroke:none;stroke-width:0.40000001;stroke-miterlimit:4;stroke-dasharray:none;stroke-dashoffset:0;stroke-opacity:1"
       id="path7554"
       d="m 257.70229,725.94919 c -0.18679,1.50325 -0.30397,3.0136 -0.37967,4.52615 -0.0355,0.76782 -0.0463,1.5364 -0.0544,2.30489 0,0 -2.52524,-0.0269 -2.52524,-0.0269 l 0,0 c 0.009,-0.80177 0.0201,-1.60363 0.0574,-2.40469 0.0793,-1.57489 0.20119,-3.14753 0.39599,-4.71273 0,0 2.50588,0.31324 2.50588,0.31324 z"
       inkscape:connector-curvature="0" />
    <path
       style="opacity:1;fill:#008000;fill-opacity:1;stroke:none;stroke-width:0.40000001;stroke-miterlimit:4;stroke-dasharray:none;stroke-dashoffset:0;stroke-opacity:1"
       id="path7556"
       d="m 258.37458,717.26725 c -0.6876,0.95143 -1.27609,1.95292 -1.70063,3.04696 0,0 -2.34841,-0.92872 -2.34841,-0.92872 l 0,0 c 0.48071,-1.1986 1.08413,-2.33141 1.8564,-3.37118 0,0 2.19264,1.25294 2.19264,1.25294 z"
       inkscape:connector-curvature="0" />
    <path
       style="opacity:1;fill:#008000;fill-opacity:1;stroke:none;stroke-width:0.40000001;stroke-miterlimit:4;stroke-dasharray:none;stroke-dashoffset:0;stroke-opacity:1"
       id="path7558"
       d="m 263.52162,726.07627 c -0.91395,0.78923 -1.55884,1.77255 -1.94534,2.90806 -0.1784,0.83157 -0.38284,1.73913 -0.23652,2.59062 0.051,0.4015 0.2792,0.67447 0.66467,0.83322 0.65549,0.19872 1.34996,0.20605 2.02899,0.22684 0.7089,-0.0547 1.57011,0.18888 2.22037,-0.19169 0.38371,-0.18181 0.79642,-0.40216 0.92817,-0.8302 0.18034,-0.71393 0.181,-1.45804 0.19532,-2.18976 0.0806,-0.73898 -0.0279,-1.37341 -0.33458,-2.02999 -0.32246,-0.23912 -0.73686,-0.43564 -1.13128,-0.5792 -0.31358,-0.0984 -0.64013,-0.13303 -0.9647,-0.17225 0,0 0.31989,-2.50504 0.31989,-2.50504 l 0,0 c 0.53057,0.0703 1.06207,0.1406 1.56799,0.32669 0.9834,0.40068 1.96806,0.90506 2.50057,1.8705 0.46057,1.00466 0.65862,2.03101 0.56698,3.14003 -0.0224,1.09058 -0.0396,2.20362 -0.44425,3.23339 -0.50381,0.95868 -1.2369,1.6615 -2.25163,2.0747 -1.05659,0.3872 -2.1329,0.4487 -3.25252,0.37694 -1.10188,-0.0357 -2.2273,-0.0786 -3.2353,-0.57753 -0.99314,-0.63492 -1.74966,-1.49307 -1.88702,-2.7137 -0.11812,-1.25252 0.0101,-2.51857 0.36479,-3.72788 0.56586,-1.55318 1.43646,-2.92437 2.70869,-4.0038 0,0 1.61671,1.94005 1.61671,1.94005 z"
       inkscape:connector-curvature="0" />
    <path
       style="opacity:1;fill:#008000;fill-opacity:1;stroke:none;stroke-width:0.40000001;stroke-miterlimit:4;stroke-dasharray:none;stroke-dashoffset:0;stroke-opacity:1"
       id="path7560"
       d="m 271.47969,732.24544 c 0.11682,-1.50926 0.33795,-2.99475 0.63069,-4.4785 0.11462,-1.1088 0.57925,-2.10797 0.97851,-3.13005 0.41439,-0.92103 0.96767,-1.72379 1.74473,-2.36728 1.14204,-0.68038 2.2667,-0.82793 3.53534,-0.46626 0.9475,0.36347 1.55189,1.09504 2.14237,1.87494 0.48749,0.76369 0.91688,1.56101 1.19727,2.4244 0.26864,1.02106 0.28892,2.08167 0.30914,3.13064 0.0288,1.06235 0.0385,2.11063 -0.16597,3.15614 0,0 -2.47624,-0.49577 -2.47624,-0.49577 l 0,0 c 0.17849,-0.86277 0.12414,-1.73384 0.11728,-2.61249 -0.0151,-0.81135 -0.0212,-1.63179 -0.19551,-2.42806 -0.17071,-0.59816 -0.5056,-1.1219 -0.80679,-1.66033 -0.28723,-0.38603 -0.52912,-0.81086 -0.98525,-1.01638 0.0396,-0.16365 -0.96912,0.0114 -1.13629,0.0982 -0.47311,0.23928 -0.65093,0.87656 -0.93032,1.28751 -0.34898,0.88067 -0.76233,1.73262 -0.85065,2.69358 -0.28132,1.4259 -0.49147,2.85194 -0.60243,4.30292 0,0 -2.50588,-0.31324 -2.50588,-0.31324 z"
       inkscape:connector-curvature="0" />
    <text
       xml:space="preserve"
       style="font-style:normal;font-weight:normal;font-size:17.5px;line-height:125%;font-family:sans-serif;letter-spacing:0px;word-spacing:0px;opacity:0.75;fill:#000000;fill-opacity:1;stroke:none;stroke-width:1px;stroke-linecap:butt;stroke-linejoin:miter;stroke-opacity:1"
       x="129.12866"
       y="554.41809"
       id="text4188"
       sodipodi:linespacing="125%"><tspan
         sodipodi:role="line"
         x="129.12866"
         y="554.41809"
         id="tspan4190"><tspan
           x="129.12866"
           y="554.41809"
           style="font-size:10px"
           id="tspan4192">01000000018b8abd0508d25087f07fee5fd021e7ec66fcfb5e92a99bf5deb18326cec4ed9f000000006b483045</tspan></tspan><tspan
         sodipodi:role="line"
         x="129.12866"
         y="566.91809"
         id="tspan4194"><tspan
           x="129.12866"
           y="566.91809"
           style="font-size:10px"
           id="tspan4196">02210085c65501ba621c18763a1d01d3673e24c542ecf3f2f8f3365d272ece0c52f7a50220497ababe3f832bb5</tspan></tspan><tspan
         sodipodi:role="line"
         x="129.12866"
         y="579.41809"
         id="tspan4198"><tspan
           x="129.12866"
           y="579.41809"
           style="font-size:10px"
           id="tspan4200">5fd70758357cf572c8d3d20c43e08a1e7fc10666ef6e082a012102834b15b49baf0b19b7645a5522de26a05fdd</tspan></tspan><tspan
         sodipodi:role="line"
         x="129.12866"
         y="591.91809"
         id="tspan4202"><tspan
           x="129.12866"
           y="591.91809"
           style="font-size:10px"
           id="tspan4204">4f568669aa5b381e05a646e1c05fffffffff02e9915600000000001976a9142314f60b73a1a6d649052cfc19127ec</tspan></tspan><tspan
         sodipodi:role="line"
         x="129.12866"
         y="604.41809"
         id="tspan4206"><tspan
           x="129.12866"
           y="604.41809"
           style="font-size:10px"
           id="tspan4208">ef4e65dd588acddad0700000000001976a914068d92d3c8a1d2797a83cf8c594f0f6b1ea07a1b88ac00000000</tspan></tspan></text>
    <path
       style="opacity:1;fill:#b3b3b3;fill-opacity:1;stroke:none;stroke-width:4;stroke-miterlimit:4;stroke-dasharray:none;stroke-dashoffset:0;stroke-opacity:1"
       id="path4178"
       d="m 398.36408,612.27744 c -0.0936,1.48665 -0.44329,2.93291 -0.70408,4.39426 -0.0699,1.0005 -0.3713,1.95541 -0.56455,2.93335 -0.0735,0.8945 -0.23833,1.76373 -0.43881,2.63755 -0.17305,0.81024 -0.20261,1.64039 -0.2278,2.46562 -0.0211,0.98796 -0.0174,1.97624 -0.0165,2.96437 0.16754,0.96045 0.31701,1.92171 0.40987,2.89245 0.24674,0.84981 0.40601,1.71544 0.50522,2.59371 0.0727,0.85114 0.3264,1.67131 0.45238,2.5184 0.0359,0.87375 0.16145,1.71061 0.34622,2.56139 0.21305,1.00071 0.26253,2.02398 0.29485,3.04339 0.023,1.02022 0.0195,2.0408 0.0186,3.06121 -10e-4,1.01096 -0.002,2.02192 -0.003,3.03289 -4.4e-4,1.01005 -4.5e-4,2.0201 -4.7e-4,3.03015 0,1.01014 10e-6,2.02027 2e-5,3.0304 0,0.8418 0,1.68359 0,2.52538 0,0 -3.03045,10e-6 -3.03045,10e-6 l 0,0 c 0,-0.84179 -10e-6,-1.68358 -10e-6,-2.52537 -1e-5,-1.01016 -2e-5,-2.02032 -2e-5,-3.03048 2e-5,-1.01056 3e-5,-2.02113 4.7e-4,-3.03169 5.3e-4,-1.01131 0.002,-2.02262 0.003,-3.03392 8.6e-4,-0.98798 0.004,-1.97611 -0.0172,-2.96392 -0.0257,-0.83507 -0.0575,-1.67439 -0.22735,-2.49516 -0.19884,-0.91641 -0.34852,-1.82783 -0.38345,-2.76682 -0.12523,-0.88153 -0.40982,-1.73259 -0.46581,-2.62316 -0.0961,-0.8969 -0.32102,-1.7607 -0.51007,-2.64108 -0.0994,-1.06517 -0.31239,-2.11143 -0.42333,-3.17475 -10e-4,-1.02049 -0.005,-2.04113 0.0179,-3.06143 0.0322,-1.02201 0.0807,-2.04859 0.30332,-3.05028 0.1953,-0.84871 0.33871,-1.68651 0.42123,-2.55592 0.19484,-0.95744 0.48549,-1.88947 0.55257,-2.8703 0.25294,-1.40899 0.59299,-2.80208 0.68006,-4.23614 0,0 3.00706,0.37589 3.00706,0.37589 z"
       inkscape:connector-curvature="0" />
    <path
       style="opacity:1;fill:#b3b3b3;fill-opacity:1;stroke:none;stroke-width:4;stroke-miterlimit:4;stroke-dasharray:none;stroke-dashoffset:0;stroke-opacity:1"
       id="path4180"
       d="m 390.81093,648.37428 c 0.83093,1.16007 1.81982,2.19551 2.62635,3.37215 0.44442,0.67526 0.96316,1.28668 1.4764,1.90763 0.55318,0.49028 0.98358,1.07767 1.43723,1.65511 -0.0177,0.22408 1.21162,1.32563 0.64179,0.85125 0.18881,-0.21116 -0.54475,-0.0921 -0.54441,-0.0926 0.0513,-0.0795 0.16367,-0.096 0.23795,-0.15458 0.1281,-0.101 0.23435,-0.2274 0.3593,-0.33228 0.48634,-0.48287 0.95587,-0.98426 1.45255,-1.45796 0.56908,-0.68858 1.20134,-1.32279 1.75621,-2.02246 0.60066,-0.74261 1.27593,-1.41992 1.89717,-2.14353 0.48674,-0.51738 1.04523,-0.9753 1.43584,-1.5746 0.28654,-0.3678 0.56188,-0.73451 0.86299,-1.09058 0,0 2.29006,1.98476 2.29006,1.98476 l 0,0 c -0.24269,0.26608 -0.43208,0.569 -0.6683,0.84066 -0.48231,0.67 -1.04064,1.26902 -1.63987,1.83525 -0.60471,0.68308 -1.23355,1.34331 -1.81594,2.04669 -0.65321,0.80486 -1.36171,1.56418 -2.05011,2.33895 -0.55365,0.49455 -1.0285,1.07386 -1.58094,1.57122 -0.89145,0.73444 -1.71213,1.36585 -2.95168,1.12575 -0.9597,-0.41402 -1.54511,-1.00418 -2.08965,-1.88475 -0.4224,-0.56062 -0.85645,-1.09364 -1.3753,-1.57687 -0.5639,-0.69964 -1.15051,-1.37894 -1.6442,-2.13323 -0.72555,-1.10555 -1.69772,-2.03095 -2.4415,-3.1259 0,0 2.32806,-1.94005 2.32806,-1.94005 z"
       inkscape:connector-curvature="0" />
    <path
       style="opacity:1;fill:#b3b3b3;fill-opacity:1;stroke:none;stroke-width:4;stroke-miterlimit:4;stroke-dasharray:none;stroke-dashoffset:0;stroke-opacity:1"
       id="path4182"
       d="m 396.41589,892.38652 c 0,1.53982 0,3.07963 0,4.61944 0,1.1334 0,2.2668 0,3.4002 0,1.00967 0,2.01934 0,3.02901 0,1.0082 0,2.0164 0,3.02459 0,1.01004 0,2.02008 0,3.03011 0.0177,1.08315 -0.24747,2.14349 -0.37722,3.2145 -0.1159,1.00175 -0.0748,2.01012 -0.20389,3.00924 -0.22528,0.88907 -0.2853,1.80521 -0.47349,2.6995 -0.24534,0.76686 -0.35232,1.55797 -0.4117,2.3574 -0.0538,0.9521 -0.0519,1.90621 -0.0534,2.8595 -0.0267,0.91732 0.13154,2.1263 -0.58788,2.85621 -0.24371,0.24726 -0.57789,0.38493 -0.86683,0.57739 -1.28381,0.24169 -2.14555,-0.49722 -2.98259,-1.33834 -0.65477,-0.57867 -1.15885,-1.30414 -1.66514,-2.01055 -0.52586,-0.55314 -0.95643,-1.17419 -1.41716,-1.7789 -0.46877,-0.61584 -0.88314,-1.27962 -1.35981,-1.8898 -0.52675,-0.68615 -0.85751,-1.49543 -1.3101,-2.22433 0,0 2.61754,-1.52714 2.61754,-1.52714 l 0,0 c 0.36586,0.64569 0.68981,1.31575 1.11284,1.92775 0.46643,0.63134 0.9034,1.28573 1.37634,1.91195 0.45882,0.63105 0.9312,1.24022 1.45168,1.82656 0.41374,0.59167 0.83425,1.19169 1.38207,1.66798 0.12425,0.14527 0.30911,0.33338 0.43151,0.43341 0.0562,0.0459 0.25518,0.10032 0.18429,0.11568 -0.12958,0.0281 -0.26095,-0.0472 -0.39142,-0.0708 -0.14685,0.0332 -0.2937,0.0663 -0.44054,0.0995 -0.5703,0.48249 -0.50406,0.2618 -0.65297,0.77829 -0.0329,0.11396 0.0812,-0.22625 0.0884,-0.34463 0.0206,-0.3377 -0.0219,-0.67729 -7.2e-4,-1.01499 0.002,-1.02869 2.7e-4,-2.05832 0.0621,-3.08557 0.0741,-0.94947 0.19589,-1.8947 0.48039,-2.80749 0.22627,-0.79645 0.16993,-1.66883 0.42905,-2.46491 0.18984,-0.95504 0.002,-1.96956 0.19326,-2.93086 0.11705,-0.94917 0.3485,-1.89007 0.35481,-2.84656 0,-1.01003 0,-2.02007 0,-3.03011 0,-1.00819 0,-2.01639 0,-3.02459 0,-1.00967 0,-2.01934 0,-3.02901 0,-1.1334 0,-2.2668 0,-3.4002 0,-1.53981 0,-3.07962 0,-4.61944 0,0 3.03045,0 3.03045,0 z"
       inkscape:connector-curvature="0" />
    <path
       style="opacity:1;fill:#b3b3b3;fill-opacity:1;stroke:none;stroke-width:4;stroke-miterlimit:4;stroke-dasharray:none;stroke-dashoffset:0;stroke-opacity:1"
       id="path4184"
       d="m 392.83165,923.63823 c 1.28928,-0.54145 2.48366,-1.26593 3.70697,-1.93593 0.73528,-0.41386 1.36689,-0.95704 2.00938,-1.49448 0.4609,-0.57644 1.16535,-0.86954 1.70082,-1.35719 0.44448,-0.33561 0.92293,-0.6257 1.39681,-0.9185 0,0 1.58146,2.58508 1.58146,2.58508 l 0,0 c -0.35341,0.21291 -0.70179,0.43294 -1.04138,0.66411 -0.56877,0.45664 -1.20949,0.81201 -1.70136,1.35764 -0.79689,0.6553 -1.58256,1.32081 -2.49227,1.8225 -1.34962,0.73599 -2.66751,1.53394 -4.09636,2.11428 0,0 -1.06407,-2.83751 -1.06407,-2.83751 z"
       inkscape:connector-curvature="0" />
  </g>
</svg>
