<?xml version="1.0" encoding="UTF-8" standalone="no"?>
<!-- Created with Inkscape (http://www.inkscape.org/) -->

<svg
   xmlns:dc="http://purl.org/dc/elements/1.1/"
   xmlns:cc="http://creativecommons.org/ns#"
   xmlns:rdf="http://www.w3.org/1999/02/22-rdf-syntax-ns#"
   xmlns:svg="http://www.w3.org/2000/svg"
   xmlns="http://www.w3.org/2000/svg"
   xmlns:sodipodi="http://sodipodi.sourceforge.net/DTD/sodipodi-0.dtd"
   xmlns:inkscape="http://www.inkscape.org/namespaces/inkscape"
   width="530.63873"
   height="141.44167"
   viewBox="0 0 530.63872 141.44167"
   id="svg4366"
   version="1.1"
   inkscape:version="0.91 r13725"
   sodipodi:docname="the-coinbase.svg">
  <defs
     id="defs4368" />
  <sodipodi:namedview
     id="base"
     pagecolor="#ffffff"
     bordercolor="#666666"
     borderopacity="1.0"
     inkscape:pageopacity="0.0"
     inkscape:pageshadow="2"
     inkscape:zoom="2.8"
     inkscape:cx="188.97734"
     inkscape:cy="37.867771"
     inkscape:document-units="px"
     inkscape:current-layer="layer1"
     showgrid="false"
     inkscape:window-width="1920"
     inkscape:window-height="1056"
     inkscape:window-x="0"
     inkscape:window-y="24"
     inkscape:window-maximized="0"
     fit-margin-top="0"
     fit-margin-left="0"
     fit-margin-right="0"
     fit-margin-bottom="0"
     units="px" />
  <metadata
     id="metadata4371">
    <rdf:RDF>
      <cc:Work
         rdf:about="">
        <dc:format>image/svg+xml</dc:format>
        <dc:type
           rdf:resource="http://purl.org/dc/dcmitype/StillImage" />
        <dc:title></dc:title>
      </cc:Work>
    </rdf:RDF>
  </metadata>
  <g
     inkscape:label="Layer 1"
     inkscape:groupmode="layer"
     id="layer1"
     transform="translate(-150.22154,-64.757899)">
    <path
       style="fill:none;fill-rule:evenodd;stroke:#808080;stroke-width:3.00000024;stroke-linecap:butt;stroke-linejoin:miter;stroke-miterlimit:4;stroke-dasharray:none;stroke-opacity:1"
       d="m 307.80278,167.31888 332.06264,0"
       id="path4168"
       inkscape:connector-curvature="0"
       sodipodi:nodetypes="cc" />
    <rect
       style="opacity:1;fill:none;fill-opacity:1;stroke:#333333;stroke-width:2;stroke-miterlimit:4;stroke-dasharray:none;stroke-dashoffset:0;stroke-opacity:1"
       id="rect4136"
       width="76.771591"
       height="76.771591"
       x="231.25868"
       y="128.42798" />
    <rect
       style="opacity:1;fill:#e09500;fill-opacity:1;stroke:none;stroke-width:1.60000002;stroke-miterlimit:4;stroke-dasharray:none;stroke-dashoffset:0;stroke-opacity:1"
       id="rect4136-3"
       width="76.771599"
       height="76.771599"
       x="604.08868"
       y="128.42798" />
    <path
       style="opacity:1;fill:#008000;fill-opacity:1;stroke:none;stroke-width:2;stroke-miterlimit:4;stroke-dasharray:none;stroke-dashoffset:0;stroke-opacity:1"
       id="path4169"
       d="m 250.99405,91.271294 c 0.62143,0.889494 1.20343,1.809171 1.83499,2.691379 0.41159,0.550566 0.79593,1.126042 1.21743,1.669114 0.35773,0.457721 0.69198,0.928096 1.00367,1.419271 0.34911,0.431809 0.65943,0.893413 0.97411,1.350548 0.39089,0.564791 0.72736,1.164028 1.08638,1.749104 0.31855,0.56058 0.61395,1.1289 0.8706,1.72133 0.19354,0.64382 0.44635,1.26748 0.60939,1.92063 0.15121,0.71077 0.1667,1.43954 0.17991,2.16318 0.12321,0.59209 0.22958,1.1846 0.29138,1.78652 0.0602,0.71382 0.0635,1.43072 0.0675,2.14656 -0.0562,0.65668 0.11256,1.28673 0.20708,1.93079 0.10456,0.77178 0.12867,1.55084 0.1436,2.32852 0.01,0.72539 0.008,1.45086 0.007,2.17629 -9.7e-4,0.71402 -0.001,1.42804 -0.002,2.14206 -2.1e-4,0.71409 -2e-4,1.42818 -2.1e-4,2.14228 0,0.71427 1e-5,1.42855 1e-5,2.14283 10e-6,0.59524 10e-6,1.19048 10e-6,1.78572 0,0 -1.42857,0 -1.42857,0 l 0,0 c 0,-0.59524 0,-1.19048 -10e-6,-1.78572 0,-0.71428 -1e-5,-1.42856 -1e-5,-2.14284 0,-0.71427 0,-1.42854 2.1e-4,-2.14281 2.7e-4,-0.71435 7.4e-4,-1.4287 0.002,-2.14306 7.7e-4,-0.71583 0.003,-1.4317 -0.006,-2.14749 -0.0136,-0.71776 -0.0341,-1.43689 -0.12888,-2.14942 -0.10278,-0.70824 -0.28033,-1.40712 -0.22204,-2.12919 -0.004,-0.67039 -0.006,-1.34176 -0.0602,-2.01041 -0.0641,-0.64189 -0.20771,-1.2671 -0.29843,-1.90484 -0.011,-0.61784 -0.0197,-1.24034 -0.13906,-1.84886 -0.13811,-0.57769 -0.37668,-1.12347 -0.53393,-1.69561 -0.22724,-0.53133 -0.49147,-1.03866 -0.77674,-1.54022 -0.34542,-0.56496 -0.67103,-1.14246 -1.04669,-1.687876 -0.32294,-0.474075 -0.65071,-0.944659 -1.00444,-1.396696 -0.28543,-0.457804 -0.5964,-0.890005 -0.93007,-1.313344 -0.42431,-0.561699 -0.82787,-1.140984 -1.24572,-1.707457 -0.6276,-0.884578 -1.21519,-1.799134 -1.83396,-2.689942 0,0 1.16247,-0.830341 1.16247,-0.830341 z"
       inkscape:connector-curvature="0" />
    <path
       style="opacity:1;fill:#008000;fill-opacity:1;stroke:none;stroke-width:2;stroke-miterlimit:4;stroke-dasharray:none;stroke-dashoffset:0;stroke-opacity:1"
       id="path4171"
       d="m 258.05704,124.57969 c -0.72661,-0.65089 -1.41279,-1.34541 -2.13356,-2.00215 -0.435,-0.40942 -0.83265,-0.8596 -1.27605,-1.2596 -0.30011,-0.32237 -0.62477,-0.61912 -0.92533,-0.94105 0,0 1.05201,-0.96649 1.05201,-0.96649 l 0,0 c 0.26733,0.29871 0.57446,0.55795 0.84142,0.85702 0.43541,0.40682 0.84468,0.84087 1.2722,1.25607 0.70223,0.6446 1.37753,1.3183 2.08386,1.95874 0,0 -0.91455,1.09746 -0.91455,1.09746 z"
       inkscape:connector-curvature="0" />
    <path
       style="opacity:1;fill:#008000;fill-opacity:1;stroke:none;stroke-width:2;stroke-miterlimit:4;stroke-dasharray:none;stroke-dashoffset:0;stroke-opacity:1"
       id="path4173"
       d="m 258.7153,123.45351 c 0.90856,-0.43323 1.79942,-0.88978 2.663,-1.40655 0.46762,-0.30641 0.86124,-0.6976 1.27423,-1.06922 0.35174,-0.35365 0.69252,-0.71899 1.05562,-1.06149 0.0426,-0.0479 0.0853,-0.0958 0.12791,-0.14368 0,0 1.0549,0.96333 1.0549,0.96333 l 0,0 c -0.0704,0.0758 -0.14072,0.15167 -0.21108,0.22751 -0.37704,0.34068 -0.71025,0.72829 -1.07651,1.08049 -0.48394,0.4262 -0.94,0.88472 -1.49155,1.22893 -0.87172,0.52158 -1.76843,0.98855 -2.68775,1.42102 0,0 -0.70877,-1.24034 -0.70877,-1.24034 z"
       inkscape:connector-curvature="0" />
    <path
       style="opacity:1;fill:#008000;fill-opacity:1;stroke:none;stroke-width:2;stroke-miterlimit:4;stroke-dasharray:none;stroke-dashoffset:0;stroke-opacity:1"
       id="path4175"
       d="m 156.27064,72.443472 c 0,1.088812 0,2.177623 0,3.266435 -0.0273,0.692565 0.15911,1.367168 0.25233,2.049472 0.12237,0.655826 0.0214,1.337402 0.13882,1.990376 0.15462,0.630164 0.23518,1.271794 0.28258,1.917763 0.0414,0.716349 0.0414,1.434211 0.043,2.151495 3.8e-4,0.477354 -4.2e-4,0.954708 -9.9e-4,1.432061 0,0 -1.42857,-0.0017 -1.42857,-0.0017 l 0,0 c 5.7e-4,-0.475717 0.001,-0.951434 9.9e-4,-1.427152 -0.002,-0.683899 -0.001,-1.368335 -0.0393,-2.051404 -0.0435,-0.609415 -0.12644,-1.212188 -0.27017,-1.806899 -0.0911,-0.667642 -0.0552,-1.343268 -0.142,-2.012476 -0.10036,-0.745878 -0.30292,-1.4832 -0.2653,-2.24151 0,-1.088812 0,-2.177623 0,-3.266435 0,0 1.42858,0 1.42858,0 z"
       inkscape:connector-curvature="0" />
    <path
       style="opacity:1;fill:#008000;fill-opacity:1;stroke:none;stroke-width:2;stroke-miterlimit:4;stroke-dasharray:none;stroke-dashoffset:0;stroke-opacity:1"
       id="path4177"
       d="m 150.22154,73.077664 c 1.10662,-0.496443 2.21518,-0.993728 3.3743,-1.355452 0.65051,-0.213531 1.26939,-0.499708 1.90615,-0.746399 0.59888,-0.142157 1.175,-0.357248 1.77533,-0.495026 0.49079,-0.19854 1.00178,-0.321566 1.4953,-0.510589 0,0 0.51085,1.334107 0.51085,1.334107 l 0,0 c -0.55739,0.21339 -1.13236,0.361327 -1.69189,0.570061 -0.53429,0.117626 -1.04302,0.322652 -1.57844,0.435439 -0.66731,0.251931 -1.3124,0.559836 -1.99416,0.776876 -1.08636,0.33443 -2.12029,0.810239 -3.15857,1.268736 0,0 -0.63887,-1.277753 -0.63887,-1.277753 z"
       inkscape:connector-curvature="0" />
    <path
       style="opacity:1;fill:#008000;fill-opacity:1;stroke:none;stroke-width:2;stroke-miterlimit:4;stroke-dasharray:none;stroke-dashoffset:0;stroke-opacity:1"
       id="path4179"
       d="m 163.4135,70.300615 c 0,1.088811 0,2.177623 0,3.266435 0.005,0.818777 0.0375,1.630241 -0.11454,2.437466 -0.13962,0.594636 -0.1901,1.202334 -0.22041,1.810622 -0.026,0.692129 -0.0244,1.384904 -0.0247,2.077406 4.9e-4,0.714596 0.002,1.429192 0.002,2.143788 4.4e-4,0.714637 4.9e-4,1.429274 5.3e-4,2.14391 -0.0276,1.519311 0.45298,1.238805 -1.42857,0.9677 -1e-5,-0.631033 -1e-5,-1.262067 -1e-5,-1.8931 4e-4,-0.696884 0.13591,-1.402659 0.33486,-2.069656 0.18273,-0.653138 0.44776,-1.23124 0.92185,-1.719615 0.63073,-0.469644 1.36648,-0.689717 2.12957,-0.825319 0.78304,-0.157061 1.5096,-0.05565 2.23206,0.263569 0.59568,0.305653 1.00072,0.798298 1.36939,1.340183 0.34897,0.569387 0.3939,1.24005 0.57238,1.868646 0.19396,0.667548 0.24531,1.361226 0.27834,2.051895 0.0142,0.381796 0.018,0.763864 0.0216,1.145872 0,0 -1.42851,0.01336 -1.42851,0.01336 l 0,0 c -0.003,-0.364007 -0.007,-0.728069 -0.0201,-1.091884 -0.027,-0.581657 -0.0634,-1.167047 -0.22579,-1.729707 -0.13794,-0.487522 -0.19023,-0.996728 -0.38538,-1.46394 -0.21485,-0.330182 -0.42521,-0.619637 -0.7641,-0.829843 -0.46227,-0.209029 -0.89443,-0.275167 -1.40578,-0.16059 -0.49117,0.08243 -0.95572,0.211493 -1.39255,0.456102 -0.34913,0.224579 -0.38352,0.766116 -0.54109,1.112565 -0.18211,0.514293 -0.25286,1.096502 -0.26821,1.638365 0,0.631024 0,1.262048 1e-5,1.893072 -1.88154,0.27098 -1.4009,0.551621 -1.42857,-0.967596 -4e-5,-0.714319 -8e-5,-1.428639 -5.3e-4,-2.142958 -5.1e-4,-0.715151 -0.002,-1.430301 -0.002,-2.145451 3.2e-4,-0.716288 -0.001,-1.432867 0.0265,-2.148744 0.0344,-0.674537 0.0919,-1.34854 0.24429,-2.008353 0.14135,-0.715794 0.079,-1.440881 0.0888,-2.167761 0,-1.088812 0,-2.177624 0,-3.266435 0,0 1.42857,0 1.42857,0 z"
       inkscape:connector-curvature="0" />
    <path
       style="opacity:1;fill:#008000;fill-opacity:1;stroke:none;stroke-width:2;stroke-miterlimit:4;stroke-dasharray:none;stroke-dashoffset:0;stroke-opacity:1"
       id="path4181"
       d="m 172.59524,82.064504 c 0.97376,-0.11258 1.96448,-0.269573 2.86128,-0.681818 0.39767,-0.24675 0.62643,-0.503489 0.73426,-0.951411 0.0229,-0.241243 0.19001,-0.88889 -0.11714,-1.033332 -0.39031,-0.111768 -0.79396,-0.135586 -1.19744,-0.154756 -0.54046,-0.06707 -1.00703,0.02021 -1.48893,0.245298 -0.36396,0.126788 -0.67239,0.366953 -0.84974,0.714917 -0.3176,0.380005 -0.42763,0.811671 -0.4944,1.289559 -0.0699,0.466358 0.0725,0.913535 0.24478,1.340316 0.1425,0.420513 0.36223,0.824018 0.67006,1.147005 0.3068,0.405406 0.7318,0.699096 1.14327,0.98974 0.42813,0.312257 0.91186,0.482221 1.39181,0.688486 0.47697,0.236928 1.0005,0.297074 1.52363,0.339688 0.51496,0.04184 1.05517,0.02975 1.53767,-0.17716 0.38542,-0.15127 0.72994,-0.41526 1.0149,-0.714805 0.074,-0.06573 0.14805,-0.131449 0.22208,-0.197174 0,0 0.94371,1.072484 0.94371,1.072484 l 0,0 c -0.0529,0.04592 -0.1057,0.09183 -0.15855,0.137748 -0.44551,0.430574 -0.93987,0.826721 -1.52829,1.042244 -0.69458,0.238383 -1.41606,0.34487 -2.15062,0.260261 -0.67988,-0.05813 -1.35873,-0.153952 -1.97991,-0.455713 -0.56217,-0.256798 -1.14094,-0.462877 -1.64659,-0.833452 -0.49603,-0.35705 -1.00735,-0.716327 -1.38297,-1.205657 -0.3956,-0.462942 -0.73528,-0.977993 -0.92589,-1.561375 -0.26507,-0.662972 -0.43762,-1.361437 -0.33248,-2.080374 0.0996,-0.654463 0.26443,-1.289519 0.6843,-1.819305 0.35872,-0.561005 0.83107,-1.044739 1.47282,-1.273702 0.69167,-0.318271 1.39575,-0.453316 2.15988,-0.375857 0.81433,0.04158 1.6413,0.102329 2.25566,0.705949 0.48034,0.705306 0.56963,1.464357 0.36398,2.294378 -0.25542,0.851613 -0.74298,1.445269 -1.53127,1.872159 -1.03498,0.446915 -2.14241,0.681044 -3.26268,0.793198 0,0 -0.17719,-1.417539 -0.17719,-1.417539 z"
       inkscape:connector-curvature="0" />
    <path
       style="opacity:1;fill:#008000;fill-opacity:1;stroke:none;stroke-width:2;stroke-miterlimit:4;stroke-dasharray:none;stroke-dashoffset:0;stroke-opacity:1"
       id="path4183"
       d="m 195.29136,67.397993 c -0.51643,0.855863 -0.94099,1.752885 -1.37688,2.649819 -0.27774,0.642122 -0.54369,1.283996 -0.8674,1.904839 -0.028,0.02864 -0.55345,1.163614 -0.37619,0.788081 0,0 -1.42505,0.100209 -1.42505,0.100209 l 0,0 c 0.0326,-0.693105 0.24857,-0.954882 0.53453,-1.548798 0.31786,-0.609532 0.57322,-1.242369 0.85053,-1.871417 0.45342,-0.922333 0.88883,-1.849008 1.42011,-2.731503 0,0 1.24035,0.70877 1.24035,0.70877 z"
       inkscape:connector-curvature="0" />
    <path
       style="opacity:1;fill:#008000;fill-opacity:1;stroke:none;stroke-width:2;stroke-miterlimit:4;stroke-dasharray:none;stroke-dashoffset:0;stroke-opacity:1"
       id="path4185"
       d="m 197.6772,69.243877 c -0.5788,0.759987 -1.06482,1.581577 -1.57534,2.386565 -0.30795,0.579664 -0.71936,1.101486 -1.01181,1.688378 -0.11894,0.337576 -0.2902,0.650826 -0.41067,0.988139 0,0 -1.34144,-0.491261 -1.34144,-0.491261 l 0,0 c 0.14558,-0.390779 0.33129,-0.760333 0.48118,-1.149212 0.32483,-0.620908 0.73633,-1.191101 1.07784,-1.803517 0.54654,-0.853642 1.05871,-1.731462 1.68278,-2.533641 0,0 1.09746,0.914549 1.09746,0.914549 z"
       inkscape:connector-curvature="0" />
    <path
       style="opacity:1;fill:#008000;fill-opacity:1;stroke:none;stroke-width:2;stroke-miterlimit:4;stroke-dasharray:none;stroke-dashoffset:0;stroke-opacity:1"
       id="path4187"
       d="m 204.23176,73.210341 c -0.89976,0.141613 -1.73626,0.479049 -2.56843,0.832228 -0.56937,0.229079 -0.94321,0.629896 -1.34051,1.070556 -0.34571,0.392115 -0.63778,0.81444 -0.9108,1.259471 -0.23827,0.41817 -0.44627,0.818251 -0.54381,1.291675 -0.0968,0.619872 -0.0965,1.249556 -0.10208,1.875359 -0.052,0.627062 0.0251,1.223608 0.14973,1.833892 0.124,0.412344 0.39573,0.723135 0.65633,1.053231 0.33129,0.355397 0.68771,0.685785 1.02123,1.039307 0.33594,0.334336 0.6559,0.667728 1.08645,0.877972 0.48232,0.272734 0.9695,0.553384 1.48408,0.761988 0.53071,0.17199 1.09397,0.185964 1.64663,0.20507 0.43613,-0.01549 0.74818,-0.236028 1.09041,-0.473272 0.39441,-0.376532 0.85802,-0.690933 1.34044,-0.943778 0.22577,-0.162784 0.47706,-0.276932 0.72893,-0.391669 0,0 0.57918,1.305898 0.57918,1.305898 l 0,0 c -0.23321,0.09873 -0.4523,0.218641 -0.66311,0.360446 -0.43586,0.205631 -0.81138,0.52833 -1.17156,0.843166 -0.59603,0.413167 -1.20771,0.724509 -1.95457,0.726895 -0.72479,-0.02595 -1.45982,-0.06054 -2.14747,-0.314768 -0.54797,-0.233742 -1.07817,-0.515844 -1.59354,-0.813312 -0.56499,-0.30512 -1.03244,-0.70754 -1.47242,-1.172237 -0.35228,-0.388501 -0.75299,-0.731264 -1.09731,-1.128231 -0.39651,-0.505786 -0.77751,-1.011407 -0.93338,-1.65085 -0.14442,-0.707238 -0.2293,-1.408216 -0.17856,-2.132616 0.007,-0.723865 0.009,-1.452528 0.13501,-2.167709 0.14267,-0.628639 0.40133,-1.185145 0.72529,-1.739302 0.32139,-0.51422 0.66369,-1.008137 1.06465,-1.464054 0.53653,-0.593105 1.08827,-1.115463 1.84265,-1.428168 0.95352,-0.40468 1.91791,-0.779022 2.94935,-0.934728 0,0 0.17719,1.41754 0.17719,1.41754 z"
       inkscape:connector-curvature="0" />
    <path
       style="opacity:1;fill:#008000;fill-opacity:1;stroke:none;stroke-width:2;stroke-miterlimit:4;stroke-dasharray:none;stroke-dashoffset:0;stroke-opacity:1"
       id="path4189"
       d="m 214.85745,78.887422 c -0.85113,-0.004 -1.73807,0.04619 -2.52223,0.405696 -0.45572,0.157041 -0.56836,0.398664 -0.65262,0.835107 -0.0833,0.628646 -0.0701,1.265299 -0.0681,1.898042 -0.0617,0.544307 0.17846,0.978515 0.37793,1.459438 0.19885,0.40358 0.49913,0.729457 0.78339,1.072048 0.29222,0.264096 0.61539,0.493499 0.99391,0.613443 0.56648,0.134859 1.15353,0.137279 1.73263,0.147806 0.31512,-0.0578 0.7677,-0.101162 0.94484,-0.413475 0.33999,-0.305204 0.41977,-0.693358 0.48233,-1.12589 0.107,-0.568775 0.0268,-1.104947 -0.0851,-1.661089 -0.17141,-0.40573 -0.38767,-0.800089 -0.63725,-1.164674 -0.23987,-0.387766 -0.52733,-0.75718 -0.85984,-1.071066 -0.30775,-0.156976 -0.61104,-0.326807 -0.93677,-0.447376 0,0 0.51403,-1.332885 0.51403,-1.332885 l 0,0 c 0.49979,0.197621 0.99657,0.436516 1.42502,0.762305 0.39406,0.397084 0.76281,0.827963 1.05331,1.307363 0.33418,0.524589 0.6662,1.063207 0.84203,1.664671 0.14446,0.718704 0.22426,1.429043 0.0965,2.160087 -0.11138,0.694528 -0.30462,1.357626 -0.8289,1.860285 -0.55752,0.569029 -1.23494,0.855398 -2.03659,0.890072 -0.73009,-0.01368 -1.47032,-0.02449 -2.17759,-0.227559 -0.61597,-0.225836 -1.16949,-0.577049 -1.62491,-1.053365 -0.37097,-0.454048 -0.75885,-0.893892 -1.00178,-1.436194 -0.265,-0.647625 -0.55257,-1.275315 -0.48576,-1.999482 -0.002,-0.738827 -0.0172,-1.483319 0.10265,-2.214893 0.20601,-0.856082 0.62654,-1.513989 1.48473,-1.83615 0.97871,-0.40166 2.02711,-0.550083 3.08411,-0.520836 0,0 0,1.428571 0,1.428571 z"
       inkscape:connector-curvature="0" />
    <path
       style="opacity:1;fill:#008000;fill-opacity:1;stroke:none;stroke-width:2;stroke-miterlimit:4;stroke-dasharray:none;stroke-dashoffset:0;stroke-opacity:1"
       id="path4191"
       d="m 222.34207,77.443472 c 0,1.088811 0,2.177623 0,3.266435 0,0.801435 0,1.602869 0,2.404304 0,0.713946 0,1.427892 0,2.141837 0,0 -1.42857,0 -1.42857,0 l 0,0 c 0,-0.713945 0,-1.427891 0,-2.141837 0,-0.801435 0,-1.602869 0,-2.404304 0,-1.088812 0,-2.177624 0,-3.266435 0,0 1.42857,0 1.42857,0 z"
       inkscape:connector-curvature="0" />
    <path
       style="opacity:1;fill:#008000;fill-opacity:1;stroke:none;stroke-width:2;stroke-miterlimit:4;stroke-dasharray:none;stroke-dashoffset:0;stroke-opacity:1"
       id="path4193"
       d="m 223.05636,69.943472 c 0.0269,0.556909 -0.045,1.11072 -0.10608,1.662712 0,0 -1.41981,-0.157998 -1.41981,-0.157998 l 0,0 c 0.056,-0.499644 0.12571,-1.000307 0.0973,-1.504714 0,0 1.42858,0 1.42858,0 z"
       inkscape:connector-curvature="0" />
    <path
       style="opacity:1;fill:#008000;fill-opacity:1;stroke:none;stroke-width:2;stroke-miterlimit:4;stroke-dasharray:none;stroke-dashoffset:0;stroke-opacity:1"
       id="path4195"
       d="m 224.48493,85.688516 c 0,-1.088812 0,-2.177624 0,-3.266435 0.0189,-0.818672 -0.0467,-1.640925 0.0489,-2.455245 0.0716,-0.677702 0.33722,-1.266553 0.69373,-1.836108 0.48902,-0.692037 1.24535,-0.925818 2.05587,-0.946548 0.79369,0.109277 1.26684,0.63048 1.69385,1.255694 0.38461,0.651434 0.44943,1.401327 0.49284,2.139346 0.0284,0.722752 0.0221,1.446294 0.02,2.169437 -9.4e-4,0.640967 -0.0433,1.275919 0.0837,1.906126 0.0154,0.05184 0.0309,0.103671 0.0463,0.155506 0,0 -1.37488,0.387964 -1.37488,0.387964 l 0,0 c -0.0244,-0.08943 -0.0488,-0.178856 -0.0733,-0.268284 -0.13937,-0.724412 -0.12457,-1.449811 -0.11042,-2.185356 0.002,-0.694466 0.008,-1.389291 -0.0177,-2.083424 -0.0269,-0.481959 -0.0436,-0.984271 -0.25455,-1.427811 -0.13191,-0.205321 -0.30609,-0.515559 -0.52283,-0.620727 -0.28944,-0.04029 -0.63128,0.05398 -0.82806,0.276061 -0.24915,0.39802 -0.44897,0.783112 -0.48839,1.265445 -0.11874,0.744937 0.0137,1.517004 -0.0365,2.267924 0,1.088811 0,2.177623 0,3.266435 0,0 -1.42857,0 -1.42857,0 z"
       inkscape:connector-curvature="0" />
    <path
       style="opacity:1;fill:#008000;fill-opacity:1;stroke:none;stroke-width:2;stroke-miterlimit:4;stroke-dasharray:none;stroke-dashoffset:0;stroke-opacity:1"
       id="path4197"
       d="m 234.16499,67.354875 c 0.13718,1.102385 0.22301,2.210004 0.27886,3.319208 0.044,0.737559 -0.0132,1.475143 0.13192,2.201635 0.15294,0.66057 0.20931,1.335612 0.2431,2.010991 0.027,0.715688 0.0255,1.432047 0.0257,2.148125 -5.4e-4,0.715126 -0.002,1.430251 -0.002,2.145376 -4.4e-4,0.714321 -4.8e-4,1.428642 -5.2e-4,2.142963 -2e-5,0.714274 0,1.428549 0,2.142824 1e-5,0.685804 1e-5,1.371608 1e-5,2.057412 -4e-4,0.625835 0.064,0.46168 -1.42857,-0.01835 -0.0323,-0.0104 0,-0.807967 0,-0.859841 0,-0.703247 0,-1.406493 0,-2.10974 -0.0481,-0.724351 0.0332,-1.425724 0.17581,-2.13348 0.21876,-0.774488 0.74795,-1.290953 1.46083,-1.61895 0.70993,-0.227305 1.41489,-0.441949 2.16273,-0.475287 0.67455,0.01181 1.28392,0.31253 1.86524,0.625257 0.53301,0.225234 1.01319,0.556456 1.4485,0.934039 0.49639,0.379495 0.89416,0.820994 1.16899,1.382388 0.28579,0.751108 0.29555,1.532272 0.18366,2.316469 -0.17882,0.76658 -0.54995,1.421875 -1.13806,1.939653 -0.66606,0.447433 -1.459,0.492333 -2.23527,0.525099 -0.74244,0.02848 -1.47579,0.0346 -2.20607,-0.110581 -0.59941,-0.187527 -1.11856,-0.551701 -1.63215,-0.902466 -0.36186,-0.183305 -0.60673,-0.4988 -0.87052,-0.794127 0,0 1.06713,-0.949769 1.06713,-0.949769 l 0,0 c 0.19743,0.22248 0.33891,0.442592 0.62141,0.572718 0.34727,0.252153 0.71689,0.479834 1.09788,0.673535 0.61566,0.127924 1.2366,0.09896 1.86368,0.08332 0.46555,-0.01852 0.95091,-0.02313 1.38825,-0.20254 0.35157,-0.225852 0.48908,-0.671167 0.63021,-1.041749 0.0771,-0.510064 0.0922,-1.014115 -0.0685,-1.513736 -0.15265,-0.397336 -0.51106,-0.642828 -0.82371,-0.914069 -0.33547,-0.320894 -0.75096,-0.551963 -1.1722,-0.740119 -0.36328,-0.195441 -0.74174,-0.418788 -1.15718,-0.455096 -0.56501,-0.01609 -1.09075,0.239364 -1.63326,0.360989 -0.28963,0.09856 -0.50944,0.301488 -0.62114,0.58725 -0.12419,0.616155 -0.19707,1.218756 -0.14765,1.851249 0,0.703247 0,1.406493 0,2.10974 0,0.05187 0.0323,0.849446 0,0.859841 -1.49254,0.480033 -1.42817,0.644187 -1.42857,0.01835 0,-0.685801 -1e-5,-1.371602 -1e-5,-2.057404 -1e-5,-0.714302 -2e-5,-1.428605 0,-2.142907 4e-5,-0.714635 8e-5,-1.429271 5.2e-4,-2.143906 5.1e-4,-0.714621 0.001,-1.429242 0.002,-2.143863 -2.4e-4,-0.692706 10e-4,-1.385676 -0.024,-2.078025 -0.0297,-0.607334 -0.0787,-1.214327 -0.21841,-1.807984 -0.15245,-0.795597 -0.12652,-1.59646 -0.15657,-2.403592 -0.0538,-1.073941 -0.13697,-2.146323 -0.26962,-3.213663 0,0 1.41754,-0.177193 1.41754,-0.177193 z"
       inkscape:connector-curvature="0" />
    <path
       style="opacity:1;fill:#008000;fill-opacity:1;stroke:none;stroke-width:2;stroke-miterlimit:4;stroke-dasharray:none;stroke-dashoffset:0;stroke-opacity:1"
       id="path4199"
       d="m 247.80319,79.638913 c -0.86216,0.205863 -1.75509,0.327796 -2.56148,0.712098 -0.37379,0.243832 -0.57336,0.493987 -0.67446,0.919761 -0.0525,0.424843 0.0262,0.909979 0.17385,1.312903 0.1338,0.521216 0.40767,0.976745 0.6524,1.450122 0.22118,0.385975 0.41402,0.674639 0.84293,0.806434 0.41443,0.08282 0.88859,0.186425 1.28079,-0.02553 0.3193,-0.142511 0.61754,-0.339622 0.74437,-0.675845 0.28669,-0.43001 0.39349,-0.905076 0.45581,-1.408782 0.0605,-0.661024 0.0572,-1.325757 0.0586,-1.988916 -5.6e-4,-0.714721 -0.003,-1.42944 -0.004,-2.144161 0.003,-0.812583 -0.16686,-0.762776 1.42741,-0.255075 0.0804,0.02562 -7e-5,0.168828 -1e-4,0.253242 -2e-5,0.09659 -3e-5,0.193188 -5e-5,0.289782 -0.0503,0.60313 0.0299,1.176252 0.14779,1.763516 0.13884,0.688207 0.17422,1.390059 0.19723,2.089864 -0.0152,0.531224 0.12699,1.040208 0.32342,1.527076 0.10501,0.363549 0.31911,0.680362 0.66231,0.857146 0.29729,0.106864 0.65643,-0.0082 0.91213,-0.180974 0.10335,-0.150394 0.0318,-0.05781 0.23883,-0.257209 0,0 0.99066,1.029275 0.99066,1.029275 l 0,0 c -0.30629,0.294599 -0.12964,0.132898 -0.53691,0.477392 -0.75278,0.387477 -1.57395,0.558803 -2.36194,0.142889 -0.56374,-0.37547 -1.03384,-0.869535 -1.23052,-1.535578 -0.2572,-0.641544 -0.43349,-1.316666 -0.4258,-2.013507 -0.02,-0.621021 -0.0479,-1.244288 -0.17005,-1.855276 -0.13613,-0.678307 -0.22406,-1.350376 -0.17572,-2.04486 4e-5,-0.198324 8e-5,-0.543974 1.5e-4,-0.543997 1.59412,-0.517138 1.42417,-0.562197 1.42973,0.25394 0.001,0.716509 0.004,1.433015 0.004,2.149524 -0.002,0.723069 0.001,1.447987 -0.0703,2.168322 -0.0861,0.649536 -0.22789,1.286199 -0.58586,1.846787 -0.33376,0.641491 -0.8278,1.109608 -1.50561,1.3838 -0.75971,0.269496 -1.5266,0.277834 -2.30132,0.03725 -0.75006,-0.297442 -1.24152,-0.780305 -1.61795,-1.492313 -0.27896,-0.543797 -0.58516,-1.073861 -0.74334,-1.669871 -0.20361,-0.683586 -0.34609,-1.418486 -0.19048,-2.125788 0.2425,-0.82596 0.70006,-1.415713 1.45863,-1.840851 0.94902,-0.421291 1.96365,-0.624733 2.97766,-0.830126 0,0 0.17719,1.41754 0.17719,1.41754 z"
       inkscape:connector-curvature="0" />
    <path
       style="opacity:1;fill:#008000;fill-opacity:1;stroke:none;stroke-width:2;stroke-miterlimit:4;stroke-dasharray:none;stroke-dashoffset:0;stroke-opacity:1"
       id="path4201"
       d="m 258.51747,78.567484 c -0.85894,0.181006 -1.71795,0.417214 -2.5228,0.772015 -0.38469,0.225746 -0.60349,0.453278 -0.70952,0.879032 -0.0249,0.235567 -0.19094,0.875983 0.1124,1.015538 0.25307,0.364912 0.67019,0.394909 1.06209,0.52909 0.54538,0.19648 1.11728,0.270596 1.67131,0.439445 0.7332,0.162454 1.2979,0.524876 1.71247,1.146838 0.341,0.721786 0.38111,1.499188 0.25039,2.274372 -0.22899,0.786495 -0.80189,1.284439 -1.53159,1.595664 -0.71348,0.227526 -1.46785,0.233363 -2.20933,0.245458 -0.82476,-0.02114 -1.50568,-0.372354 -2.12659,-0.887575 -0.28616,-0.196031 -0.48943,-0.461227 -0.69247,-0.736272 0,0 1.17002,-0.819671 1.17002,-0.819671 l 0,0 c 0.11856,0.193667 0.26343,0.343004 0.45418,0.473032 0.33831,0.313171 0.70669,0.504771 1.17196,0.542098 0.5692,-0.009 1.14753,-0.0075 1.70361,-0.14424 0.27636,-0.09168 0.51489,-0.260991 0.65324,-0.515973 0.0811,-0.434032 0.0753,-0.862891 -0.0661,-1.287996 -0.13089,-0.354448 -0.58745,-0.416872 -0.90712,-0.519465 -0.57154,-0.174968 -1.16653,-0.241795 -1.72701,-0.457713 -0.64729,-0.235698 -1.3092,-0.384203 -1.71911,-1.003062 -0.47883,-0.705746 -0.56684,-1.464192 -0.35305,-2.29224 0.2602,-0.825259 0.74146,-1.389722 1.51624,-1.788915 0.93429,-0.39403 1.9123,-0.691228 2.90954,-0.877 0,0 0.17719,1.41754 0.17719,1.41754 z"
       inkscape:connector-curvature="0" />
    <path
       style="opacity:1;fill:#008000;fill-opacity:1;stroke:none;stroke-width:2;stroke-miterlimit:4;stroke-dasharray:none;stroke-dashoffset:0;stroke-opacity:1"
       id="path4203"
       d="m 264.73809,81.707361 c 0.88423,-0.06142 1.71291,-0.265356 2.47711,-0.707134 0.3765,-0.260546 0.41632,-0.675429 0.46509,-1.098068 -0.0162,-0.270344 -0.24032,-0.200806 -0.4823,-0.245528 -0.63543,-0.08188 -1.27851,-0.06935 -1.91787,-0.06762 -0.45096,-0.01233 -0.92779,0.04976 -1.2862,0.345879 -0.1773,0.33109 -0.18653,0.730503 -0.21264,1.097098 -0.0766,0.603902 0.007,1.175557 0.12883,1.763106 0.12574,0.414443 0.39907,0.727441 0.66135,1.059476 0.32142,0.283792 0.56109,0.669816 0.93623,0.888314 0.35755,0.331048 0.76781,0.443078 1.23569,0.512278 0.65005,0.07017 1.30524,0.06576 1.95822,0.06726 0.62956,0.0491 1.22885,-0.02725 1.84163,-0.152256 0.0523,-0.02226 0.1045,-0.04452 0.15675,-0.06678 0,0 0.49513,1.340021 0.49513,1.340021 l 0,0 c -0.12212,0.04217 -0.24424,0.08434 -0.36637,0.12651 -0.70652,0.1441 -1.40683,0.228606 -2.13048,0.181074 -0.72567,-0.0017 -1.45405,0.0021 -2.17574,-0.08443 -0.6573,-0.106801 -1.29114,-0.284058 -1.80439,-0.733126 -0.48163,-0.335832 -0.86958,-0.767229 -1.26906,-1.195078 -0.39759,-0.506875 -0.77999,-1.013611 -0.93795,-1.654011 -0.14803,-0.716086 -0.23658,-1.425566 -0.15445,-2.158704 0.0622,-0.803942 0.17339,-1.604633 0.82077,-2.162999 0.63348,-0.414782 1.33204,-0.64244 2.09889,-0.602196 0.74413,-0.0019 1.49377,-0.01638 2.23091,0.101492 1.00539,0.241702 1.61329,0.701251 1.59054,1.817799 -0.11583,0.877018 -0.3815,1.663349 -1.1712,2.159345 -0.93203,0.532254 -1.93789,0.807102 -3.01129,0.885822 0,0 -0.1772,-1.417539 -0.1772,-1.417539 z"
       inkscape:connector-curvature="0" />
    <path
       style="opacity:1;fill:#008000;fill-opacity:1;stroke:none;stroke-width:2;stroke-miterlimit:4;stroke-dasharray:none;stroke-dashoffset:0;stroke-opacity:1"
       id="path4205"
       d="m 270.24726,66.18647 c 0.6901,0.724429 1.34603,1.49608 1.88227,2.342387 0.35508,0.486808 0.66111,1.005087 1.00106,1.500881 0.29879,0.457267 0.49377,0.974145 0.77018,1.442699 0,0 -1.24539,0.699881 -1.24539,0.699881 l 0,0 c -0.24392,-0.446115 -0.45162,-0.911843 -0.71249,-1.34874 -0.33849,-0.514782 -0.66848,-1.033041 -1.02464,-1.537341 -0.49025,-0.798508 -1.13287,-1.501267 -1.76845,-2.185217 0,0 1.09746,-0.91455 1.09746,-0.91455 z"
       inkscape:connector-curvature="0" />
    <path
       style="opacity:1;fill:#008000;fill-opacity:1;stroke:none;stroke-width:2;stroke-miterlimit:4;stroke-dasharray:none;stroke-dashoffset:0;stroke-opacity:1"
       id="path4207"
       d="m 273.1044,64.757899 c 0.64044,0.706337 1.31414,1.381632 1.95874,2.083862 0.49168,0.453687 0.90016,0.996743 1.21216,1.587059 0.38006,0.476798 0.45837,1.075494 0.65127,1.630115 0.11152,0.292158 0.18277,0.595629 0.25189,0.899723 0,0 -1.39423,0.311344 -1.39423,0.311344 l 0,0 c -0.0566,-0.259778 -0.11867,-0.517798 -0.21527,-0.766426 -0.15652,-0.49571 -0.2332,-1.003792 -0.56653,-1.426198 -0.23079,-0.487529 -0.60833,-0.900956 -0.99334,-1.27136 -0.65674,-0.720778 -1.35126,-1.40695 -2.00215,-2.13357 0,0 1.09746,-0.914549 1.09746,-0.914549 z"
       inkscape:connector-curvature="0" />
  </g>
</svg>
