<?xml version="1.0" encoding="UTF-8" standalone="no"?>
<!-- Created with Inkscape (http://www.inkscape.org/) -->

<svg
   xmlns:dc="http://purl.org/dc/elements/1.1/"
   xmlns:cc="http://creativecommons.org/ns#"
   xmlns:rdf="http://www.w3.org/1999/02/22-rdf-syntax-ns#"
   xmlns:svg="http://www.w3.org/2000/svg"
   xmlns="http://www.w3.org/2000/svg"
   xmlns:sodipodi="http://sodipodi.sourceforge.net/DTD/sodipodi-0.dtd"
   xmlns:inkscape="http://www.inkscape.org/namespaces/inkscape"
   width="465.90906"
   height="433.89825"
   viewBox="0 0 465.90907 433.89827"
   id="svg2"
   version="1.1"
   inkscape:version="0.91 r13725"
   sodipodi:docname="coinbase-transaction.svg">
  <defs
     id="defs4">
    <marker
       inkscape:stockid="Arrow1Mend"
       orient="auto"
       refY="0"
       refX="0"
       id="marker5659"
       style="overflow:visible"
       inkscape:isstock="true">
      <path
         id="path5661"
         d="M 0,0 5,-5 -12.5,0 5,5 0,0 Z"
         style="fill:#b3b3b3;fill-opacity:1;fill-rule:evenodd;stroke:#b3b3b3;stroke-width:1pt;stroke-opacity:1"
         transform="matrix(-0.4,0,0,-0.4,-4,0)"
         inkscape:connector-curvature="0" />
    </marker>
    <marker
       inkscape:isstock="true"
       style="overflow:visible"
       id="marker5547"
       refX="0"
       refY="0"
       orient="auto"
       inkscape:stockid="Arrow1Mend"
       inkscape:collect="always">
      <path
         inkscape:connector-curvature="0"
         transform="matrix(-0.4,0,0,-0.4,-4,0)"
         style="fill:#b3b3b3;fill-opacity:1;fill-rule:evenodd;stroke:#b3b3b3;stroke-width:1pt;stroke-opacity:1"
         d="M 0,0 5,-5 -12.5,0 5,5 0,0 Z"
         id="path5549" />
    </marker>
    <marker
       inkscape:stockid="Arrow1Mend"
       orient="auto"
       refY="0"
       refX="0"
       id="marker5441"
       style="overflow:visible"
       inkscape:isstock="true"
       inkscape:collect="always">
      <path
         id="path5443"
         d="M 0,0 5,-5 -12.5,0 5,5 0,0 Z"
         style="fill:#b3b3b3;fill-opacity:1;fill-rule:evenodd;stroke:#b3b3b3;stroke-width:1pt;stroke-opacity:1"
         transform="matrix(-0.4,0,0,-0.4,-4,0)"
         inkscape:connector-curvature="0" />
    </marker>
    <marker
       inkscape:isstock="true"
       style="overflow:visible"
       id="marker5341"
       refX="0"
       refY="0"
       orient="auto"
       inkscape:stockid="Arrow1Mend"
       inkscape:collect="always">
      <path
         inkscape:connector-curvature="0"
         transform="matrix(-0.4,0,0,-0.4,-4,0)"
         style="fill:#b3b3b3;fill-opacity:1;fill-rule:evenodd;stroke:#b3b3b3;stroke-width:1pt;stroke-opacity:1"
         d="M 0,0 5,-5 -12.5,0 5,5 0,0 Z"
         id="path5343" />
    </marker>
    <marker
       inkscape:stockid="Arrow1Mend"
       orient="auto"
       refY="0"
       refX="0"
       id="Arrow1Mend"
       style="overflow:visible"
       inkscape:isstock="true"
       inkscape:collect="always">
      <path
         id="path6306"
         d="M 0,0 5,-5 -12.5,0 5,5 0,0 Z"
         style="fill:#b3b3b3;fill-opacity:1;fill-rule:evenodd;stroke:#b3b3b3;stroke-width:1pt;stroke-opacity:1"
         transform="matrix(-0.4,0,0,-0.4,-4,0)"
         inkscape:connector-curvature="0" />
    </marker>
    <marker
       inkscape:stockid="Arrow1Mend"
       orient="auto"
       refY="0"
       refX="0"
       id="marker6650"
       style="overflow:visible"
       inkscape:isstock="true">
      <path
         id="path6652"
         d="M 0,0 5,-5 -12.5,0 5,5 0,0 Z"
         style="fill:#ff2a2a;fill-opacity:1;fill-rule:evenodd;stroke:#ff2a2a;stroke-width:1pt;stroke-opacity:1"
         transform="matrix(-0.4,0,0,-0.4,-4,0)"
         inkscape:connector-curvature="0" />
    </marker>
    <marker
       inkscape:stockid="Arrow1Mend"
       orient="auto"
       refY="0"
       refX="0"
       id="marker6650-2"
       style="overflow:visible"
       inkscape:isstock="true">
      <path
         inkscape:connector-curvature="0"
         id="path6652-6"
         d="M 0,0 5,-5 -12.5,0 5,5 0,0 Z"
         style="fill:#b3b3b3;fill-opacity:1;fill-rule:evenodd;stroke:#b3b3b3;stroke-width:1pt;stroke-opacity:1"
         transform="matrix(-0.4,0,0,-0.4,-4,0)" />
    </marker>
    <marker
       inkscape:stockid="Arrow1Mend"
       orient="auto"
       refY="0"
       refX="0"
       id="marker6650-2-8"
       style="overflow:visible"
       inkscape:isstock="true">
      <path
         inkscape:connector-curvature="0"
         id="path6652-6-7"
         d="M 0,0 5,-5 -12.5,0 5,5 0,0 Z"
         style="fill:#ff2a2a;fill-opacity:1;fill-rule:evenodd;stroke:#ff2a2a;stroke-width:1pt;stroke-opacity:1"
         transform="matrix(-0.4,0,0,-0.4,-4,0)" />
    </marker>
    <marker
       inkscape:stockid="Arrow1Mend"
       orient="auto"
       refY="0"
       refX="0"
       id="marker6650-2-2"
       style="overflow:visible"
       inkscape:isstock="true">
      <path
         inkscape:connector-curvature="0"
         id="path6652-6-0"
         d="M 0,0 5,-5 -12.5,0 5,5 0,0 Z"
         style="fill:#ff2a2a;fill-opacity:1;fill-rule:evenodd;stroke:#ff2a2a;stroke-width:1pt;stroke-opacity:1"
         transform="matrix(-0.4,0,0,-0.4,-4,0)" />
    </marker>
    <marker
       inkscape:stockid="Arrow1Mend"
       orient="auto"
       refY="0"
       refX="0"
       id="marker6650-2-8-4"
       style="overflow:visible"
       inkscape:isstock="true">
      <path
         inkscape:connector-curvature="0"
         id="path6652-6-7-5"
         d="M 0,0 5,-5 -12.5,0 5,5 0,0 Z"
         style="fill:#ff2a2a;fill-opacity:1;fill-rule:evenodd;stroke:#ff2a2a;stroke-width:1pt;stroke-opacity:1"
         transform="matrix(-0.4,0,0,-0.4,-4,0)" />
    </marker>
    <marker
       inkscape:stockid="Arrow1Mend"
       orient="auto"
       refY="0"
       refX="0"
       id="marker6650-2-8-4-3"
       style="overflow:visible"
       inkscape:isstock="true">
      <path
         inkscape:connector-curvature="0"
         id="path6652-6-7-5-6"
         d="M 0,0 5,-5 -12.5,0 5,5 0,0 Z"
         style="fill:#ff2a2a;fill-opacity:1;fill-rule:evenodd;stroke:#ff2a2a;stroke-width:1pt;stroke-opacity:1"
         transform="matrix(-0.4,0,0,-0.4,-4,0)" />
    </marker>
    <marker
       inkscape:stockid="Arrow1Mend"
       orient="auto"
       refY="0"
       refX="0"
       id="marker6650-2-2-7"
       style="overflow:visible"
       inkscape:isstock="true">
      <path
         inkscape:connector-curvature="0"
         id="path6652-6-0-5"
         d="M 0,0 5,-5 -12.5,0 5,5 0,0 Z"
         style="fill:#ff2a2a;fill-opacity:1;fill-rule:evenodd;stroke:#ff2a2a;stroke-width:1pt;stroke-opacity:1"
         transform="matrix(-0.4,0,0,-0.4,-4,0)" />
    </marker>
    <marker
       inkscape:stockid="Arrow1Mend"
       orient="auto"
       refY="0"
       refX="0"
       id="marker6650-2-8-3"
       style="overflow:visible"
       inkscape:isstock="true">
      <path
         inkscape:connector-curvature="0"
         id="path6652-6-7-56"
         d="M 0,0 5,-5 -12.5,0 5,5 0,0 Z"
         style="fill:#ff2a2a;fill-opacity:1;fill-rule:evenodd;stroke:#ff2a2a;stroke-width:1pt;stroke-opacity:1"
         transform="matrix(-0.4,0,0,-0.4,-4,0)" />
    </marker>
    <marker
       inkscape:stockid="Arrow1Mend"
       orient="auto"
       refY="0"
       refX="0"
       id="marker6650-2-29"
       style="overflow:visible"
       inkscape:isstock="true">
      <path
         inkscape:connector-curvature="0"
         id="path6652-6-1"
         d="M 0,0 5,-5 -12.5,0 5,5 0,0 Z"
         style="fill:#ff2a2a;fill-opacity:1;fill-rule:evenodd;stroke:#ff2a2a;stroke-width:1pt;stroke-opacity:1"
         transform="matrix(-0.4,0,0,-0.4,-4,0)" />
    </marker>
    <marker
       inkscape:stockid="Arrow1Mend"
       orient="auto"
       refY="0"
       refX="0"
       id="marker6650-27"
       style="overflow:visible"
       inkscape:isstock="true">
      <path
         id="path6652-0"
         d="M 0,0 5,-5 -12.5,0 5,5 0,0 Z"
         style="fill:#ff2a2a;fill-opacity:1;fill-rule:evenodd;stroke:#ff2a2a;stroke-width:1pt;stroke-opacity:1"
         transform="matrix(-0.4,0,0,-0.4,-4,0)"
         inkscape:connector-curvature="0" />
    </marker>
    <marker
       inkscape:stockid="Arrow1Mend"
       orient="auto"
       refY="0"
       refX="0"
       id="Arrow1Mend-9"
       style="overflow:visible"
       inkscape:isstock="true">
      <path
         id="path6306-3"
         d="M 0,0 5,-5 -12.5,0 5,5 0,0 Z"
         style="fill:#ff2a2a;fill-opacity:1;fill-rule:evenodd;stroke:#ff2a2a;stroke-width:1pt;stroke-opacity:1"
         transform="matrix(-0.4,0,0,-0.4,-4,0)"
         inkscape:connector-curvature="0" />
    </marker>
  </defs>
  <sodipodi:namedview
     id="base"
     pagecolor="#ffffff"
     bordercolor="#666666"
     borderopacity="1.0"
     inkscape:pageopacity="0.0"
     inkscape:pageshadow="2"
     inkscape:zoom="1.4"
     inkscape:cx="158.35639"
     inkscape:cy="294.32725"
     inkscape:document-units="px"
     inkscape:current-layer="layer1"
     showgrid="false"
     units="px"
     inkscape:window-width="1920"
     inkscape:window-height="1080"
     inkscape:window-x="0"
     inkscape:window-y="0"
     inkscape:window-maximized="0"
     fit-margin-top="0"
     fit-margin-left="0"
     fit-margin-right="0"
     fit-margin-bottom="0" />
  <metadata
     id="metadata7">
    <rdf:RDF>
      <cc:Work
         rdf:about="">
        <dc:format>image/svg+xml</dc:format>
        <dc:type
           rdf:resource="http://purl.org/dc/dcmitype/StillImage" />
        <dc:title></dc:title>
      </cc:Work>
    </rdf:RDF>
  </metadata>
  <g
     inkscape:label="Layer 1"
     inkscape:groupmode="layer"
     id="layer1"
     transform="translate(-68.575786,-609.96856)">
    <rect
       style="fill:none;stroke:#000000;stroke-width:10.38145542;stroke-miterlimit:4;stroke-dasharray:none"
       x="154.4948"
       y="722.61053"
       height="306.05069"
       width="306.05069"
       id="rect4-26"
       inkscape:export-filename="/home/greg/projects/learnmeabitcoin/manual/reference/images/candidate-block/candidate-block-blockchain.png"
       inkscape:export-xdpi="90"
       inkscape:export-ydpi="90" />
    <path
       style="fill:none;fill-rule:evenodd;stroke:#806600;stroke-width:4.10912466;stroke-linecap:butt;stroke-linejoin:miter;stroke-miterlimit:4;stroke-dasharray:32.87299634, 4.10912454;stroke-dashoffset:0;stroke-opacity:1"
       d="m 175.9801,754.23464 256.81596,0"
       id="path6200"
       inkscape:connector-curvature="0" />
    <rect
       style="opacity:1;fill:#d4aa00;fill-opacity:1;stroke:none;stroke-width:2;stroke-miterlimit:4;stroke-dasharray:none;stroke-dashoffset:0;stroke-opacity:1"
       id="rect6198"
       width="40.648186"
       height="21.678099"
       x="175.59731"
       y="742.90314"
       ry="10.839049" />
    <path
       style="fill:none;fill-rule:evenodd;stroke:#000000;stroke-width:4.07667017;stroke-linecap:butt;stroke-linejoin:miter;stroke-miterlimit:4;stroke-dasharray:32.61336126, 4.07667017;stroke-dashoffset:0;stroke-opacity:1"
       d="m 178.54279,849.49189 252.77521,0"
       id="path6200-3"
       inkscape:connector-curvature="0" />
    <path
       style="fill:none;fill-rule:evenodd;stroke:#000000;stroke-width:4.09292936;stroke-linecap:butt;stroke-linejoin:miter;stroke-miterlimit:4;stroke-dasharray:32.74343607, 4.0929295;stroke-dashoffset:0;stroke-opacity:1"
       d="m 178.00046,894.81879 254.7956,0"
       id="path6200-5"
       inkscape:connector-curvature="0" />
    <path
       style="fill:none;fill-rule:evenodd;stroke:#000000;stroke-width:4.08480787;stroke-linecap:butt;stroke-linejoin:miter;stroke-miterlimit:4;stroke-dasharray:32.67846331, 4.08480791;stroke-dashoffset:0;stroke-opacity:1"
       d="m 179.5033,942.60915 253.78543,0"
       id="path6200-6"
       inkscape:connector-curvature="0" />
    <path
       style="fill:none;fill-rule:evenodd;stroke:#000000;stroke-width:4.08480787;stroke-linecap:butt;stroke-linejoin:miter;stroke-miterlimit:4;stroke-dasharray:32.67846348, 4.08480794;stroke-dashoffset:0;stroke-opacity:1"
       d="m 179.50334,987.93618 253.78539,0"
       id="path6200-2"
       inkscape:connector-curvature="0" />
    <text
       xml:space="preserve"
       style="font-style:normal;font-weight:normal;font-size:34.14126205px;line-height:125%;font-family:sans-serif;letter-spacing:0px;word-spacing:0px;fill:#000000;fill-opacity:1;stroke:none;stroke-width:1px;stroke-linecap:butt;stroke-linejoin:miter;stroke-opacity:1"
       x="423.39862"
       y="860.5307"
       id="text6235-9"
       sodipodi:linespacing="125%"><tspan
         sodipodi:role="line"
         id="tspan6237-1"
         x="423.39862"
         y="860.5307"
         style="font-style:normal;font-variant:normal;font-weight:normal;font-stretch:normal;font-size:7.3159833px;font-family:sans-serif;-inkscape-font-specification:sans-serif;fill:#aa0000">0.001</tspan></text>
    <text
       xml:space="preserve"
       style="font-style:normal;font-weight:normal;font-size:34.14126205px;line-height:125%;font-family:sans-serif;letter-spacing:0px;word-spacing:0px;fill:#000000;fill-opacity:1;stroke:none;stroke-width:1px;stroke-linecap:butt;stroke-linejoin:miter;stroke-opacity:1"
       x="422.90594"
       y="905.36493"
       id="text6235-9-2"
       sodipodi:linespacing="125%"><tspan
         sodipodi:role="line"
         id="tspan6237-1-7"
         x="422.90594"
         y="905.36493"
         style="font-style:normal;font-variant:normal;font-weight:normal;font-stretch:normal;font-size:7.3159833px;font-family:sans-serif;-inkscape-font-specification:sans-serif;fill:#aa0000">0.001</tspan></text>
    <text
       xml:space="preserve"
       style="font-style:normal;font-weight:normal;font-size:34.14126205px;line-height:125%;font-family:sans-serif;letter-spacing:0px;word-spacing:0px;fill:#000000;fill-opacity:1;stroke:none;stroke-width:1px;stroke-linecap:butt;stroke-linejoin:miter;stroke-opacity:1"
       x="422.4133"
       y="953.15521"
       id="text6235-9-0"
       sodipodi:linespacing="125%"><tspan
         sodipodi:role="line"
         id="tspan6237-1-9"
         x="422.4133"
         y="953.15521"
         style="font-style:normal;font-variant:normal;font-weight:normal;font-stretch:normal;font-size:7.3159833px;font-family:sans-serif;-inkscape-font-specification:sans-serif;fill:#aa0000">0.001</tspan></text>
    <text
       xml:space="preserve"
       style="font-style:normal;font-weight:normal;font-size:34.14126205px;line-height:125%;font-family:sans-serif;letter-spacing:0px;word-spacing:0px;fill:#000000;fill-opacity:1;stroke:none;stroke-width:1px;stroke-linecap:butt;stroke-linejoin:miter;stroke-opacity:1"
       x="423.39856"
       y="997.98926"
       id="text6235-9-3"
       sodipodi:linespacing="125%"><tspan
         sodipodi:role="line"
         id="tspan6237-1-6"
         x="423.39856"
         y="997.98926"
         style="font-style:normal;font-variant:normal;font-weight:normal;font-stretch:normal;font-size:7.3159833px;font-family:sans-serif;-inkscape-font-specification:sans-serif;fill:#aa0000">0.001</tspan></text>
    <path
       style="opacity:1;fill:#008000;fill-opacity:1;stroke:none;stroke-width:2;stroke-miterlimit:4;stroke-dasharray:16, 2;stroke-dashoffset:0;stroke-opacity:1"
       id="path8724"
       d="m 270.63762,612.68732 c -1.49396,0.60394 -2.96139,1.27599 -4.40989,1.98228 -0.76892,0.43957 -1.45768,0.96777 -2.0565,1.61823 -0.62709,0.77319 -1.14399,1.62397 -1.71967,2.43367 -0.51956,0.77841 -0.94426,1.60699 -1.35461,2.44645 -0.45073,0.90991 -0.5811,1.91026 -0.668,2.90855 -0.002,0.72589 0.36006,1.23334 0.751,1.80051 0.44994,0.57402 1.00946,0.97506 1.61904,1.36494 0.69396,0.40749 1.36284,0.74729 2.15386,0.90992 1.11595,0.19209 2.20908,0.47543 3.3341,0.62256 1.03434,0.11525 2.061,0.19681 3.08533,-8.4e-4 0.47309,-0.0758 0.94904,-0.22288 1.33976,-0.50728 0,0 1.27543,2.06016 1.27543,2.06016 l 0,0 c -0.67661,0.39381 -1.38467,0.72483 -2.17163,0.82915 -1.27946,0.23196 -2.55831,0.18123 -3.8469,0.0209 -1.1915,-0.15937 -2.35116,-0.45013 -3.53279,-0.65732 -1.07259,-0.24298 -2.02282,-0.68153 -2.96119,-1.24795 -0.85994,-0.56853 -1.67005,-1.18195 -2.28999,-2.01908 -0.71304,-1.03447 -1.22642,-2.09461 -1.16942,-3.3909 0.11766,-1.29353 0.31915,-2.58264 0.90528,-3.75883 0.47136,-0.96078 0.96551,-1.90744 1.56427,-2.79646 0.64614,-0.88186 1.1973,-1.83436 1.91197,-2.6683 0.80727,-0.86128 1.73079,-1.57764 2.76879,-2.14592 1.48387,-0.72343 2.98808,-1.41014 4.51729,-2.03145 0,0 0.95447,2.22707 0.95447,2.22707 z"
       inkscape:connector-curvature="0" />
    <path
       style="opacity:1;fill:#008000;fill-opacity:1;stroke:none;stroke-width:2;stroke-miterlimit:4;stroke-dasharray:16, 2;stroke-dashoffset:0;stroke-opacity:1"
       id="path8726"
       d="m 281.89096,622.97435 c -1.40816,0.48765 -2.97885,0.92437 -4.01204,2.05863 -0.45957,0.67437 -0.54422,1.43416 -0.41485,2.21616 0.0999,0.69211 0.4318,1.3347 0.91112,1.84267 0.42003,0.64661 1.09549,0.87871 1.76348,1.20213 0.71566,0.30447 1.45278,0.38469 2.21121,0.26193 0.39538,-0.23175 0.65761,-0.62022 0.80375,-1.06371 0.1705,-0.86024 0.32122,-1.78188 0.18067,-2.65516 -0.066,-0.81551 -0.41163,-1.46716 -0.83178,-2.14077 -0.43655,-0.48702 -1.17609,-0.50144 -1.77175,-0.67499 -0.15663,-0.048 -0.31324,-0.0957 -0.46985,-0.14367 0,0 0.70855,-2.31705 0.70855,-2.31705 l 0,0 c 0.15281,0.0466 0.30561,0.0933 0.4584,0.14015 1.18993,0.37457 2.40284,0.55472 3.13053,1.71326 0.60668,0.97271 1.06478,1.9778 1.18175,3.13541 0.12786,1.28301 0.0352,2.5949 -0.33389,3.83521 -0.52396,1.23473 -1.36142,2.20887 -2.70381,2.56846 -1.24777,0.17211 -2.46706,0.0397 -3.62633,-0.48153 -0.94355,-0.46321 -1.92944,-0.898 -2.53943,-1.80149 -0.73712,-0.89486 -1.32061,-1.90197 -1.4705,-3.07303 -0.20687,-1.55223 0.0773,-3.01966 1.08523,-4.263 1.42662,-1.39265 3.25345,-2.15534 5.15187,-2.7103 0,0 0.58767,2.35065 0.58767,2.35065 z"
       inkscape:connector-curvature="0" />
    <path
       style="opacity:1;fill:#008000;fill-opacity:1;stroke:none;stroke-width:2;stroke-miterlimit:4;stroke-dasharray:16, 2;stroke-dashoffset:0;stroke-opacity:1"
       id="path8728"
       d="m 289.44576,622.23378 c 0.0656,1.78061 -0.11838,3.57818 0.0668,5.3522 0.26249,1.11099 0.23596,2.28639 0.51346,3.38947 0,0 -2.3637,0.53275 -2.3637,0.53275 l 0,0 c -0.25673,-1.2168 -0.32416,-2.46866 -0.56172,-3.69121 -0.16587,-1.85507 -0.0385,-3.72257 -0.0779,-5.58321 0,0 2.42296,0 2.42296,0 z"
       inkscape:connector-curvature="0" />
    <path
       style="opacity:1;fill:#008000;fill-opacity:1;stroke:none;stroke-width:2;stroke-miterlimit:4;stroke-dasharray:16, 2;stroke-dashoffset:0;stroke-opacity:1"
       id="path8730"
       d="m 288.65891,612.22992 c -0.22916,0.91867 -0.39959,1.84978 -0.5681,2.78092 0,0 -2.3841,-0.43233 -2.3841,-0.43233 l 0,0 c 0.17862,-0.98314 0.35911,-1.96628 0.60157,-2.93627 0,0 2.35063,0.58768 2.35063,0.58768 z"
       inkscape:connector-curvature="0" />
    <path
       style="opacity:1;fill:#008000;fill-opacity:1;stroke:none;stroke-width:2;stroke-miterlimit:4;stroke-dasharray:16, 2;stroke-dashoffset:0;stroke-opacity:1"
       id="path8732"
       d="m 293.01713,631.52241 c -0.23266,-1.86975 -0.37825,-3.74837 -0.47297,-5.62967 -0.14948,-1.89439 0.21283,-3.09378 1.99707,-3.93479 1.34899,-0.37399 2.43498,0.16253 3.5138,0.91384 0.89703,0.72845 1.39513,1.81634 1.8109,2.87122 0.3563,1.04911 0.35553,2.15747 0.61567,3.22644 0.23011,0.87543 0.32078,1.77548 0.40708,2.67361 0,0 -2.41191,0.23157 -2.41191,0.23157 l 0,0 c -0.0752,-0.78456 -0.14697,-1.57191 -0.35047,-2.3364 -0.23299,-0.97105 -0.28483,-1.95851 -0.52218,-2.92624 -0.22553,-0.6123 -0.5069,-1.26184 -0.9338,-1.75187 -0.38705,-0.26956 -0.73964,-0.57082 -1.20144,-0.66379 -0.85837,0.16507 -0.46288,0.77445 -0.50478,1.57488 0.0912,1.82151 0.23232,3.64036 0.45731,5.45069 0,0 -2.40428,0.30051 -2.40428,0.30051 z"
       inkscape:connector-curvature="0" />
    <path
       style="opacity:1;fill:#008000;fill-opacity:1;stroke:none;stroke-width:2;stroke-miterlimit:4;stroke-dasharray:16, 2;stroke-dashoffset:0;stroke-opacity:1"
       id="path8734"
       d="m 305.71911,610.26909 c -0.22498,1.81032 -0.36608,3.62917 -0.4573,5.45067 -0.0607,1.33917 -0.0674,2.67983 -0.0708,4.02011 -6.9e-4,1.20955 0.003,2.41914 0.003,3.6287 8.6e-4,1.20946 8.6e-4,2.41896 0.003,3.62843 6e-5,1.21141 5e-5,2.4228 3e-5,3.6342 -0.007,1.38023 0.2804,1.2993 -2.42301,0.42977 0,0 0,-0.58475 0,-0.92207 0,-1.16798 0,-2.33596 0,-3.50395 0.0898,-1.22754 0.40726,-2.38475 1.02201,-3.4485 0.92599,-1.17006 2.31459,-1.46702 3.73466,-1.43299 1.30247,0.0929 2.23053,0.77803 3.07497,1.70768 0.84904,0.9826 1.06697,2.22219 1.19299,3.4712 0.15326,1.25382 -0.0311,2.48564 -0.43981,3.67092 -0.51829,1.07938 -1.43293,1.73722 -2.41739,2.35039 -1.14328,0.62469 -2.38454,0.77526 -3.65836,0.60643 -1.15277,-0.13691 -2.14742,-0.70385 -3.03302,-1.42124 -0.10284,-0.0807 -0.20566,-0.16144 -0.30847,-0.24216 0,0 1.4997,-1.9031 1.4997,-1.9031 l 0,0 c 0.12431,0.0983 0.24868,0.19659 0.37304,0.29488 0.49962,0.46664 1.13239,0.78309 1.81053,0.87286 0.7067,0.11258 1.39444,0.0509 2.04847,-0.27233 0.53317,-0.32061 1.0378,-0.62747 1.41294,-1.12613 0.34968,-0.81421 0.37774,-1.72535 0.30086,-2.59486 -0.0674,-0.71995 -0.11724,-1.48448 -0.57517,-2.07789 -0.40995,-0.45149 -0.74726,-0.87476 -1.41521,-0.91738 -0.50511,-0.0731 -1.08565,0.0373 -1.53626,0.2821 -0.45496,0.63168 -0.52904,1.43431 -0.66349,2.18012 0,1.16799 0,2.33595 0,3.50395 0,0.16394 0,0.32788 0,0.49182 0,0.14343 0.13647,0.38634 0,0.43023 -2.7034,0.86937 -2.41601,0.9504 -2.42298,-0.42977 10e-6,-1.21132 4e-5,-2.42263 -5e-5,-3.63393 -1e-4,-1.20883 -2.7e-4,-2.41763 -0.001,-3.62646 -10e-4,-1.21227 -0.003,-2.42453 -0.003,-3.63678 0.003,-1.37884 0.0113,-2.7581 0.0738,-4.13576 0.0948,-1.88133 0.24029,-3.75994 0.47297,-5.62969 0,0 2.40426,0.30053 2.40426,0.30053 z"
       inkscape:connector-curvature="0" />
    <path
       style="opacity:1;fill:#008000;fill-opacity:1;stroke:none;stroke-width:2;stroke-miterlimit:4;stroke-dasharray:16, 2;stroke-dashoffset:0;stroke-opacity:1"
       id="path8736"
       d="m 318.61548,625.4188 c -1.29804,0.8158 -2.37514,1.88084 -3.39825,3.00571 -0.63966,0.68208 -0.79906,1.51876 -0.89564,2.41362 0.0141,0.68491 0.38238,1.15995 0.75664,1.69301 0.43706,0.47398 1.12413,0.50437 1.72769,0.57344 0.5448,-0.0351 0.77731,-0.48241 1.09203,-0.86625 0.45145,-0.62863 0.50659,-1.41246 0.574,-2.15916 0.0726,-1.15093 0.0619,-2.30507 0.0603,-3.45769 -5.8e-4,-0.20202 -8.6e-4,-0.40402 -0.003,-0.60601 -5.3e-4,-0.15372 -8.3e-4,-0.30747 -0.003,-0.46119 -4.9e-4,-0.0985 -0.10061,-0.30669 -0.003,-0.29512 2.56202,0.30304 2.42293,-0.48551 2.41994,0.74857 -0.003,1.12745 -8.5e-4,2.25491 -8.5e-4,3.38235 0.14058,0.88254 0.30727,1.7496 0.60143,2.59247 0.27795,0.57635 0.52678,0.83971 1.12534,1.00209 0.73586,0.20595 1.28876,-0.0844 1.86691,-0.48173 0.2426,-0.25623 0.14412,-0.12035 0.30394,-0.40145 0,0 1.97526,1.40332 1.97526,1.40332 l 0,0 c -0.55977,0.73505 -0.252,0.40276 -0.91745,1.00225 -1.21887,0.82131 -2.53762,1.19502 -3.99484,0.77626 -1.2806,-0.46095 -2.12621,-1.23491 -2.64769,-2.50478 -0.38019,-1.09641 -0.61076,-2.23405 -0.73588,-3.3883 -6e-5,-1.12944 -4.2e-4,-2.25888 8.4e-4,-3.38836 0.003,-1.23425 -0.141,-0.49646 2.42524,-0.80484 0.0268,-0.003 0.003,0.0543 0.003,0.0815 0.003,0.16479 0.003,0.6239 0.003,0.73005 7e-4,0.20301 8.6e-4,0.40604 0.003,0.60906 0.003,1.22948 0.0127,2.46075 -0.0709,3.68813 -0.11936,1.23481 -0.32209,2.4655 -1.11313,3.46946 -0.8626,1.05082 -1.81548,1.80394 -3.25772,1.73474 -1.31188,-0.16623 -2.57404,-0.47809 -3.41832,-1.58648 -0.71809,-1.02281 -1.25318,-2.06642 -1.18091,-3.36057 0.16633,-1.39668 0.52568,-2.7095 1.51075,-3.76891 1.19387,-1.31177 2.4685,-2.53979 3.98833,-3.47885 0,0 1.20214,2.10374 1.20214,2.10374 z"
       inkscape:connector-curvature="0" />
    <path
       style="opacity:1;fill:#008000;fill-opacity:1;stroke:none;stroke-width:2;stroke-miterlimit:4;stroke-dasharray:16, 2;stroke-dashoffset:0;stroke-opacity:1"
       id="path8738"
       d="m 332.77372,624.79159 c -0.488,0.14435 -2.65477,0.99063 -2.54026,1.66942 0.16235,0.0683 0.45538,0.54554 0.72065,0.79079 0.48129,0.5597 1.10357,1.01661 1.77687,1.32291 1.13867,0.31361 2.02966,0.89582 2.71023,1.8568 0.66488,1.29802 0.70305,2.58863 0.0915,3.90178 -0.76226,1.2891 -2.09173,1.62052 -3.47776,1.791 -1.19188,0.0725 -2.16911,-0.36911 -3.1483,-0.99137 0,0 1.30246,-2.04316 1.30246,-2.04316 l 0,0 c 0.50593,0.32372 0.92913,0.62691 1.56247,0.62816 0.51908,-0.0572 1.16838,-0.0694 1.57741,-0.4345 0.31833,-0.62534 0.29246,-0.80134 0.0534,-1.54244 -0.25187,-0.6481 -1.18353,-0.71577 -1.73504,-0.98917 -0.9009,-0.45613 -1.77618,-1.0318 -2.44065,-1.80076 -0.89502,-0.94739 -1.60248,-2.00741 -1.2492,-3.3744 0.83624,-1.78039 2.37743,-2.57842 4.20842,-3.13569 0,0 0.58766,2.35063 0.58766,2.35063 z"
       inkscape:connector-curvature="0" />
    <path
       style="opacity:1;fill:#008000;fill-opacity:1;stroke:none;stroke-width:2;stroke-miterlimit:4;stroke-dasharray:16, 2;stroke-dashoffset:0;stroke-opacity:1"
       id="path8740"
       d="m 340.0086,628.81432 c 1.26448,-0.4175 2.5159,-1.09501 3.39366,-2.11553 0.17815,0.10999 0.54652,-1.44219 0.18425,-1.20999 -0.63562,-0.10664 -1.31923,-0.1709 -1.97728,-0.20169 -0.91361,0.0223 -1.93028,-0.18702 -2.77841,0.2475 -0.45684,0.39914 -0.63995,0.75711 -0.77316,1.3456 -0.22609,0.8968 -0.089,1.73978 0.0852,2.62305 0.28433,0.87457 0.6512,1.73955 1.1205,2.53271 0.37363,0.68599 0.85761,1.32979 1.42482,1.8696 0.44994,0.64086 0.98625,0.82705 1.72099,0.95807 0.95386,0.13379 1.90025,0.17112 2.8438,-0.0197 0.60871,-0.22503 0.93426,-0.61403 1.29602,-1.13608 0.41889,-0.49382 0.23818,-0.26216 0.55172,-0.68743 0,0 1.93873,1.45331 1.93873,1.45331 l 0,0 c -0.37856,0.49936 -0.19786,0.28229 -0.53137,0.65991 -0.73339,0.98168 -1.56498,1.7754 -2.79029,2.08828 -1.25247,0.23883 -2.51057,0.21844 -3.77103,0.0201 -1.15789,-0.23672 -2.23043,-0.64188 -2.96881,-1.62014 -0.70177,-0.71676 -1.35079,-1.50224 -1.82276,-2.39167 -0.57092,-1.03421 -1.08486,-2.11362 -1.38966,-3.25899 -0.24273,-1.23418 -0.36612,-2.45056 -0.0551,-3.69188 0.35532,-1.30728 0.99826,-2.31341 2.20603,-2.98862 1.2354,-0.4601 2.50081,-0.51423 3.81048,-0.42381 1.39284,0.0698 2.81259,0.16063 3.84037,1.22617 0.93319,1.5945 0.67244,2.76068 -0.37374,4.23731 -1.25432,1.33311 -2.83431,2.31688 -4.59719,2.8345 0,0 -0.58766,-2.35063 -0.58766,-2.35063 z"
       inkscape:connector-curvature="0" />
    <path
       style="opacity:1;fill:#008000;fill-opacity:1;stroke:none;stroke-width:2;stroke-miterlimit:4;stroke-dasharray:16, 2;stroke-dashoffset:0;stroke-opacity:1"
       id="path8742"
       d="m 274.90783,641.61768 c 0,1.84675 0,3.69346 0,5.54017 0,1.35931 0,2.71862 0,4.07792 0,1.21092 0,2.42184 0,3.63276 0.0311,1.28613 0.019,2.55409 -0.1887,3.82495 -0.11022,0.58533 -0.1874,1.17547 -0.25925,1.76643 0,0 -2.40505,-0.2942 -2.40505,-0.2942 l 0,0 c 0.0768,-0.62452 0.15772,-1.24846 0.27372,-1.86722 0.1907,-1.13892 0.17664,-2.27601 0.15627,-3.42996 0,-1.21092 0,-2.42184 0,-3.63276 0,-1.3593 0,-2.71861 0,-4.07792 0,-1.84671 0,-3.69342 0,-5.54017 0,0 2.42301,0 2.42301,0 z"
       inkscape:connector-curvature="0" />
    <path
       style="opacity:1;fill:#008000;fill-opacity:1;stroke:none;stroke-width:2;stroke-miterlimit:4;stroke-dasharray:16, 2;stroke-dashoffset:0;stroke-opacity:1"
       id="path8744"
       d="m 268.27457,650.61056 c 1.50861,-0.77741 3.13394,-1.30661 4.59691,-2.17217 0.90261,-0.55872 1.88221,-0.98863 2.78698,-1.53984 0.68879,-0.43616 1.34048,-0.87358 2.10303,-1.18268 0,0 0.8759,2.25914 0.8759,2.25914 l 0,0 c -0.65209,0.23069 -1.14966,0.68409 -1.75199,1.01291 -0.9233,0.53024 -1.87916,1.00294 -2.79675,1.54556 -1.5603,0.89432 -3.24947,1.50864 -4.85962,2.30416 0,0 -0.95446,-2.22708 -0.95446,-2.22708 z"
       inkscape:connector-curvature="0" />
    <path
       style="opacity:1;fill:#008000;fill-opacity:1;stroke:none;stroke-width:2;stroke-miterlimit:4;stroke-dasharray:16, 2;stroke-dashoffset:0;stroke-opacity:1"
       id="path8746"
       d="m 279.7538,659.84227 c 0,-1.84673 0,-3.69346 0,-5.54016 0.0245,-1.4072 -0.0678,-2.81763 0.0807,-4.21848 0.39932,-1.75216 1.33181,-2.43019 3.09734,-2.36714 0.84669,0.18739 1.65331,0.43761 2.52136,0.33203 0.20781,-0.11851 0.42167,-0.18083 0.60486,-0.33842 0,0 1.34375,2.01626 1.34375,2.01626 l 0,0 c -0.54315,0.33523 -1.05581,0.61282 -1.69503,0.73185 -1.03371,0.0986 -2.02379,-0.0256 -3.01746,-0.33089 -0.16016,-0.15677 0.11894,0.0911 -0.22039,-0.0484 -0.0142,-0.006 0.0251,-0.17669 10e-4,-0.16635 -0.099,0.0428 -0.22496,0.44152 -0.22917,0.45218 -0.17426,1.30052 -0.002,2.629 -0.0642,3.93736 0,1.84673 0,3.69345 0,5.54018 0,0 -2.42298,0 -2.42298,0 z"
       inkscape:connector-curvature="0" />
    <path
       style="opacity:1;fill:#008000;fill-opacity:1;stroke:none;stroke-width:2;stroke-miterlimit:4;stroke-dasharray:16, 2;stroke-dashoffset:0;stroke-opacity:1"
       id="path8748"
       d="m 293.42108,649.59998 c -1.28685,0.99241 -2.32003,2.20045 -2.95173,3.69795 -0.0879,0.31578 -0.65391,1.88779 -0.0585,2.06634 0.58497,0.0891 1.16196,0.2437 1.75851,0.15208 0.64475,-0.0986 1.21851,-0.47574 1.67564,-0.93254 0.35881,-0.60789 0.37568,-1.3542 0.4236,-2.04044 0.0369,-0.80703 0.0439,-1.61554 0.0353,-2.42321 0.80602,0.1034 1.64034,0.0746 2.41802,0.31026 0.0259,0.009 -0.007,1.80007 -0.009,2.59179 -0.089,0.93893 0.0427,1.76387 0.42862,2.60595 0.33993,0.55734 0.64688,0.8211 1.26301,0.98283 0.53065,0.0942 0.25287,0.053 0.83397,0.11908 0,0 -0.29107,2.40544 -0.29107,2.40544 l 0,0 c -0.84169,-0.10619 -0.42145,-0.0364 -1.26053,-0.21036 -1.24843,-0.41489 -2.1319,-1.12104 -2.75136,-2.29486 -0.52232,-1.15743 -0.74293,-2.33569 -0.64563,-3.61015 6e-4,-0.72809 7.5e-4,-1.45622 0.004,-2.18432 7.8e-4,-0.14438 -0.13407,-0.38729 0.003,-0.43314 0.77612,-0.25987 1.61723,-0.2534 2.42585,-0.38013 0.0298,0.89822 -0.0101,1.79898 -0.0398,2.69644 -0.0987,1.31537 -0.26525,2.63682 -1.20078,3.64888 -0.88751,0.78519 -1.88909,1.43011 -3.09671,1.56149 -1.43589,0.0927 -2.89422,-0.0923 -3.95256,-1.16249 -0.94159,-1.54293 -0.7772,-2.7756 -0.18727,-4.43685 0.81466,-1.82861 2.02543,-3.36741 3.62187,-4.59155 0,0 1.55116,1.86139 1.55116,1.86139 z"
       inkscape:connector-curvature="0" />
    <path
       style="opacity:1;fill:#008000;fill-opacity:1;stroke:none;stroke-width:2;stroke-miterlimit:4;stroke-dasharray:16, 2;stroke-dashoffset:0;stroke-opacity:1"
       id="path8750"
       d="m 300.34919,658.63077 c -0.006,-1.85111 -0.0649,-3.69475 0.18374,-5.53237 0.2314,-1.53399 0.47865,-2.58306 1.82526,-3.46544 1.6807,-0.38966 2.31653,0.40555 3.09866,1.73481 0.61427,1.04928 0.78248,2.24261 0.88747,3.43202 0.26852,1.00841 0.45195,2.02935 0.56054,3.06654 -0.0156,0.48588 0.11752,0.93536 0.23076,1.40002 0,0 -2.35543,0.56821 -2.35543,0.56821 l 0,0 c -0.1352,-0.56543 -0.28382,-1.13351 -0.28553,-1.7196 -0.10676,-1.05278 -0.33824,-2.07477 -0.56437,-3.10705 -0.0696,-0.83118 -0.14607,-1.68019 -0.56682,-2.42009 -0.29179,-0.50425 -0.39488,-0.59487 0.1044,-0.8009 0.0219,-0.0403 0.0666,-0.0748 0.0657,-0.12078 -4.9e-4,-0.024 -0.0523,0.007 -0.0677,0.0253 -0.38198,0.4578 -0.42336,1.18553 -0.53241,1.73631 -0.24065,1.7269 -0.15317,3.46295 -0.16126,5.20303 0,0 -2.42298,0 -2.42298,0 z"
       inkscape:connector-curvature="0" />
    <path
       style="opacity:1;fill:#008000;fill-opacity:1;stroke:none;stroke-width:2;stroke-miterlimit:4;stroke-dasharray:16, 2;stroke-dashoffset:0;stroke-opacity:1"
       id="path8752"
       d="m 313.41074,650.81147 c -1.25695,0.84774 -2.33755,1.84625 -2.96769,3.23704 -0.16019,0.62261 -0.0571,0.79643 0.39676,1.13928 0.68323,0.31467 1.4595,0.33342 2.19803,0.37451 1.60673,0.17622 2.53787,0.63854 3.27405,2.12289 0.50701,1.40016 0.37395,2.71665 -0.44496,3.94386 -0.90412,0.89382 -1.98128,1.36709 -3.20701,1.62889 -1.25744,0.21417 -2.51385,0.24308 -3.76658,0.0101 -0.84516,-0.22969 -1.50709,-0.64303 -2.11081,-1.26353 0,0 1.83501,-1.58227 1.83501,-1.58227 l 0,0 c 0.17375,0.20244 0.44972,0.345 0.73241,0.46622 0.93812,0.18658 1.8776,0.14227 2.82363,-0.003 0.64287,-0.12304 1.25077,-0.33274 1.76811,-0.72634 0.4656,-0.18878 0.22096,-1.14342 0.15649,-1.48759 -0.15787,-0.59494 -0.61097,-0.59597 -1.19951,-0.68901 -1.30931,-0.0775 -2.64192,-0.19232 -3.71725,-1.02699 -1.19427,-1.197 -1.50714,-2.30763 -0.92778,-3.94371 0.82167,-1.68434 2.03428,-3.02531 3.60593,-4.06052 0,0 1.55117,1.86138 1.55117,1.86138 z"
       inkscape:connector-curvature="0" />
    <path
       style="opacity:1;fill:#008000;fill-opacity:1;stroke:none;stroke-width:2;stroke-miterlimit:4;stroke-dasharray:16, 2;stroke-dashoffset:0;stroke-opacity:1"
       id="path8754"
       d="m 323.68752,652.05021 c -1.24145,0.46353 -2.61529,0.93276 -3.4644,2.00269 -0.38382,0.72775 -0.56849,1.6173 -0.44679,2.43506 0.0881,0.52626 0.27703,1.07097 0.81074,1.26356 0.61016,0.24716 1.07461,0.0774 1.63002,-0.17296 0.37812,-0.4104 0.635,-0.98654 0.83367,-1.516 0.26818,-0.92079 0.28508,-1.8889 0.31268,-2.8405 0.0844,-2.50346 -0.77753,-2.02041 2.43218,-1.58754 0.0257,1.10089 0.0127,2.18072 -0.2013,3.26318 -0.2393,1.01216 -0.32087,2.04798 -0.37188,3.08361 0.14306,0.42666 -0.0205,1.45296 0.53512,1.59093 0.46313,0.0672 1.27021,0.45396 1.66375,0.0885 0,0 0.84687,2.27017 0.84687,2.27017 l 0,0 c -1.38874,0.4255 -2.80298,0.27532 -4.05723,-0.49362 -1.10236,-1.03399 -1.33265,-2.10855 -1.40849,-3.57678 0.0582,-1.15523 0.15319,-2.31051 0.41633,-3.44018 0.19092,-0.9284 0.16285,-1.85727 0.15391,-2.80355 3.1632,-0.47842 2.40634,-0.95261 2.41268,1.67657 -0.0369,1.23223 -0.0807,2.4825 -0.48175,3.66089 -0.45294,1.10995 -1.01743,2.23853 -2.10639,2.8401 -1.25692,0.54878 -2.49754,0.67955 -3.77704,0.0806 -1.19068,-0.71918 -1.89055,-1.76349 -2.05667,-3.16508 -0.10128,-1.50081 0.14193,-2.99121 1.02874,-4.24414 1.26005,-1.39083 2.9264,-2.21196 4.70758,-2.76624 0,0 0.58767,2.35065 0.58767,2.35065 z"
       inkscape:connector-curvature="0" />
    <path
       style="opacity:1;fill:#008000;fill-opacity:1;stroke:none;stroke-width:2;stroke-miterlimit:4;stroke-dasharray:16, 2;stroke-dashoffset:0;stroke-opacity:1"
       id="path8756"
       d="m 334.00613,652.02296 c -1.13911,0.98137 -1.93925,2.2073 -2.42463,3.61912 -0.28635,1.01119 -0.40183,2.04101 -0.20929,3.07333 0.25869,0.50814 0.51944,1.07619 1.03487,1.37122 0.76475,0.2936 1.60261,0.30304 2.41087,0.33421 0.38525,-0.0618 0.24258,0.0127 0.46048,-0.14599 0,0 0.88318,2.25629 0.88318,2.25629 l 0,0 c -0.9556,0.31797 -0.47483,0.21857 -1.4397,0.3108 -1.28615,-0.0523 -2.60345,-0.11655 -3.73849,-0.79467 -0.9682,-0.75353 -1.65553,-1.71956 -1.99732,-2.91078 -0.24612,-1.45073 -0.11979,-2.89422 0.31182,-4.30451 0.65738,-1.81259 1.67421,-3.4106 3.15706,-4.67041 0,0 1.55115,1.86139 1.55115,1.86139 z"
       inkscape:connector-curvature="0" />
    <path
       style="opacity:1;fill:#008000;fill-opacity:1;stroke:none;stroke-width:2;stroke-miterlimit:4;stroke-dasharray:16, 2;stroke-dashoffset:0;stroke-opacity:1"
       id="path8758"
       d="m 339.18014,644.49615 c 0.10574,1.7304 0.51544,3.41182 0.82041,5.11209 0.23422,1.3316 0.29347,2.6829 0.32366,4.03174 0.0174,1.21682 0.0113,2.43383 0.0101,3.65073 -0.003,1.20949 -0.003,2.41899 -0.004,3.6285 -0.0142,1.02279 0.28483,2.01742 0.42696,3.02767 0.0771,0.73227 0.0426,0.39377 0.1044,1.01547 0,0 -2.41114,0.23947 -2.41114,0.23947 l 0,0 c -0.0578,-0.58274 -0.0268,-0.2759 -0.0931,-0.92049 -0.15446,-1.12113 -0.49069,-2.22362 -0.45016,-3.36327 5.8e-4,-1.21074 0.003,-2.4215 0.004,-3.63222 0.003,-1.19739 0.0101,-2.39487 -0.0101,-3.59219 -0.0268,-1.22366 -0.0757,-2.45002 -0.28636,-3.65844 -0.31122,-1.74214 -0.72863,-3.46608 -0.8396,-5.23853 0,0 2.40429,-0.30053 2.40429,-0.30053 z"
       inkscape:connector-curvature="0" />
    <path
       style="opacity:1;fill:#008000;fill-opacity:1;stroke:none;stroke-width:2;stroke-miterlimit:4;stroke-dasharray:16, 2;stroke-dashoffset:0;stroke-opacity:1"
       id="path8760"
       d="m 334.53595,653.07148 c 1.28131,-0.99484 2.58886,-1.97012 3.7805,-3.07325 0.73839,-0.70211 1.46191,-1.33935 2.37926,-1.79593 0,0 1.03381,2.1914 1.03381,2.1914 l 0,0 c -0.71843,0.29872 -1.17995,0.9072 -1.77458,1.38953 -1.22867,1.12028 -2.54782,2.14032 -3.86783,3.14964 0,0 -1.55116,-1.86139 -1.55116,-1.86139 z"
       inkscape:connector-curvature="0" />
    <path
       style="opacity:1;fill:#008000;fill-opacity:1;stroke:none;stroke-width:2;stroke-miterlimit:4;stroke-dasharray:16, 2;stroke-dashoffset:0;stroke-opacity:1"
       id="path8762"
       d="m 346.38599,653.12688 c 0,1.84671 0,3.69347 0,5.54017 0,1.35931 0,2.71862 0,4.07794 0.0205,0.12601 0.0411,0.25211 0.0618,0.37818 0,0 -2.40144,0.32255 -2.40144,0.32255 l 0,0 c -0.0277,-0.23359 -0.0553,-0.46715 -0.0833,-0.70073 0,-1.35932 0,-2.71863 0,-4.07794 0,-1.8467 0,-3.69346 0,-5.54017 0,0 2.423,0 2.423,0 z"
       inkscape:connector-curvature="0" />
    <path
       style="opacity:1;fill:#008000;fill-opacity:1;stroke:none;stroke-width:2;stroke-miterlimit:4;stroke-dasharray:16, 2;stroke-dashoffset:0;stroke-opacity:1"
       id="path8764"
       d="m 346.99174,645.25217 c 0,0.61992 0,1.23986 0,1.85978 0,0 -2.42299,0 -2.42299,0 l 0,0 c 0,-0.61992 0,-1.23986 0,-1.85978 0,0 2.42299,0 2.42299,0 z"
       inkscape:connector-curvature="0" />
    <path
       style="opacity:1;fill:#008000;fill-opacity:1;stroke:none;stroke-width:2;stroke-miterlimit:4;stroke-dasharray:16, 2;stroke-dashoffset:0;stroke-opacity:1"
       id="path8766"
       d="m 352.59976,654.26123 c -0.74587,1.38751 -1.39953,2.83634 -1.53408,4.41817 -0.0542,0.72216 0.13661,1.41922 0.6337,1.95546 0.58987,0.31743 1.29831,0.332 1.952,0.37593 0.89295,-0.0639 0.7952,-0.18889 1.2336,-0.78499 0.37692,-0.57003 0.4672,-1.1924 0.37553,-1.85146 -0.11201,-0.76879 -0.47798,-1.47806 -0.8261,-2.16652 -0.41548,-0.51278 -0.74882,-1.14401 -1.33187,-1.48845 -0.39028,-0.28365 -0.87543,-0.76407 -1.40574,-0.69775 0,0 0.25079,-2.40998 0.25079,-2.40998 l 0,0 c 0.95552,0.14473 1.81488,0.46633 2.54588,1.12373 0.86446,0.64254 1.536,1.46399 2.10322,2.37909 0.4763,0.94198 0.9337,1.92508 1.07081,2.98194 0.13111,1.27723 -0.0892,2.49033 -0.83058,3.56494 -0.92716,1.26064 -1.7677,1.75459 -3.35521,1.76651 -1.34435,-0.0976 -2.69173,-0.26552 -3.67919,-1.2854 -0.81853,-1.08985 -1.28402,-2.30808 -1.14857,-3.69639 0.20148,-1.92184 0.90312,-3.70292 1.84207,-5.38695 0,0 2.10374,1.20212 2.10374,1.20212 z"
       inkscape:connector-curvature="0" />
    <path
       style="opacity:1;fill:#008000;fill-opacity:1;stroke:none;stroke-width:2;stroke-miterlimit:4;stroke-dasharray:16, 2;stroke-dashoffset:0;stroke-opacity:1"
       id="path8768"
       d="m 358.50093,662.26526 c 0,-1.84673 0,-3.69346 0,-5.54018 -0.017,-1.66128 0.0724,-2.89001 1.38769,-4.02918 1.32185,-0.66713 2.44079,-0.0113 3.43604,0.86546 0.6851,0.76147 1.16743,1.65412 1.66041,2.54293 0.49001,0.83997 0.77863,1.76615 1.17105,2.64762 0.33895,0.92434 0.79327,1.78788 1.07955,2.73225 0.0428,0.19809 0.0858,0.39618 0.12869,0.59428 0,0 -2.37134,0.49772 -2.37134,0.49772 l 0,0 c -0.0271,-0.13563 -0.0543,-0.27131 -0.0815,-0.40695 -0.24205,-0.85881 -0.69986,-1.62834 -0.98643,-2.47204 -0.33663,-0.81842 -0.61272,-1.6525 -1.06138,-2.42207 -0.36513,-0.66566 -0.72089,-1.3323 -1.18297,-1.93372 -0.14973,-0.15641 -0.34991,-0.32621 -0.50212,-0.4449 -0.0403,-0.0315 -0.16144,-0.0177 -0.13944,-0.0639 0.0458,-0.0961 0.26722,-0.0141 0.26853,-0.17287 0.0192,-0.68746 -0.8284,2.57759 -0.38387,2.06528 0,1.84675 0,3.69346 0,5.54019 0,0 -2.42298,0 -2.42298,0 z"
       inkscape:connector-curvature="0" />
    <path
       style="fill:none;fill-rule:evenodd;stroke:#000000;stroke-width:4.06034565;stroke-linecap:butt;stroke-linejoin:miter;stroke-miterlimit:4;stroke-dasharray:32.48276535, 4.06034568;stroke-dashoffset:0;stroke-opacity:1"
       d="m 179.62329,803.6637 250.75487,0"
       id="path6200-3-4"
       inkscape:connector-curvature="0" />
    <text
       xml:space="preserve"
       style="font-style:normal;font-weight:normal;font-size:34.14126205px;line-height:125%;font-family:sans-serif;letter-spacing:0px;word-spacing:0px;fill:#000000;fill-opacity:1;stroke:none;stroke-width:1px;stroke-linecap:butt;stroke-linejoin:miter;stroke-opacity:1"
       x="423.44513"
       y="816.16443"
       id="text6235-9-7"
       sodipodi:linespacing="125%"><tspan
         sodipodi:role="line"
         id="tspan6237-1-8"
         x="423.44513"
         y="816.16443"
         style="font-style:normal;font-variant:normal;font-weight:normal;font-stretch:normal;font-size:7.3159833px;font-family:sans-serif;-inkscape-font-specification:sans-serif;fill:#aa0000">0.001</tspan></text>
    <path
       sodipodi:nodetypes="cccccc"
       inkscape:connector-curvature="0"
       id="path6291"
       d="m 482.28721,858.36019 0.0648,-45.64601 0,230.40262 -344.87881,0 0.71429,-290.42943 28.94505,0.2959"
       style="fill:none;fill-rule:evenodd;stroke:#b3b3b3;stroke-width:1.5;stroke-linecap:butt;stroke-linejoin:miter;stroke-miterlimit:4;stroke-dasharray:none;stroke-opacity:1;marker-end:url(#marker6650-2)" />
    <path
       inkscape:connector-curvature="0"
       id="path6609"
       d="m 456.96775,902.70175 24.75268,0"
       style="fill:none;fill-rule:evenodd;stroke:#b3b3b3;stroke-width:1.59675336px;stroke-linecap:butt;stroke-linejoin:miter;stroke-opacity:1;marker-start:url(#marker5441)" />
    <path
       inkscape:connector-curvature="0"
       id="path6609-1"
       d="m 456.83516,950.94835 24.7527,0"
       style="fill:none;fill-rule:evenodd;stroke:#b3b3b3;stroke-width:1.59675336px;stroke-linecap:butt;stroke-linejoin:miter;stroke-opacity:1;marker-start:url(#marker5547)" />
    <path
       inkscape:connector-curvature="0"
       id="path6609-1-9"
       d="m 456.83516,858.08236 24.7527,0"
       style="fill:none;fill-rule:evenodd;stroke:#b3b3b3;stroke-width:1.59675336px;stroke-linecap:butt;stroke-linejoin:miter;stroke-opacity:1;marker-start:url(#marker5341)" />
    <path
       inkscape:connector-curvature="0"
       id="path6609-1-2"
       d="m 457.22867,995.41388 24.75269,0"
       style="fill:none;fill-rule:evenodd;stroke:#b3b3b3;stroke-width:1.59675336px;stroke-linecap:butt;stroke-linejoin:miter;stroke-opacity:1;marker-start:url(#marker5659)" />
    <path
       inkscape:connector-curvature="0"
       id="path6609-1-9-0"
       d="m 457.37256,813.5012 24.75271,0"
       style="fill:none;fill-rule:evenodd;stroke:#b3b3b3;stroke-width:1.59675336px;stroke-linecap:butt;stroke-linejoin:miter;stroke-opacity:1;marker-start:url(#Arrow1Mend)" />
    <path
       style="opacity:1;fill:#b3b3b3;fill-opacity:1;stroke:none;stroke-width:3.5;stroke-miterlimit:4;stroke-dasharray:none;stroke-dashoffset:0;stroke-opacity:1"
       id="path4211"
       d="m 493.78043,914.01896 c 0.13033,-0.89934 0.13853,-1.81138 0.26732,-2.7099 0.12304,-0.60736 0.19961,-1.21906 0.37635,-1.81372 0.11285,-0.50088 0.23338,-0.99969 0.34796,-1.50071 0.16839,-0.611 0.38777,-1.20592 0.56446,-1.81409 0.10791,-0.57278 0.21807,-1.144 0.33445,-1.71574 0.0502,-0.55105 0.23183,-1.07388 0.34284,-1.61276 0.17356,-0.5617 0.29124,-1.13482 0.48053,-1.6914 0.19629,-0.56331 0.53939,-1.0501 0.83101,-1.56411 0.27583,-0.46521 0.63931,-0.86169 0.98224,-1.2752 0.35223,-0.4119 0.83948,-0.6417 1.28438,-0.92738 0.45454,-0.29528 0.99054,-0.38308 1.49514,-0.55298 0.51732,-0.22207 1.09788,-0.16208 1.63058,-0.29399 0.34211,-0.0937 0.69074,-0.1546 1.04121,-0.20611 0,0 0.25496,1.76813 0.25496,1.76813 l 0,0 c -0.31877,0.0448 -0.6338,0.10615 -0.94502,0.18956 -0.47001,0.0854 -0.95362,0.0887 -1.41184,0.23549 -0.37962,0.12774 -0.78259,0.19145 -1.13461,0.3849 -0.29068,0.17297 -0.59941,0.32138 -0.84836,0.55309 -0.27936,0.32849 -0.56975,0.64519 -0.79894,1.01309 -0.23885,0.41336 -0.51578,0.80437 -0.68974,1.25153 -0.16655,0.48806 -0.26196,0.9925 -0.42336,1.483 -0.11433,0.53564 -0.28973,1.05419 -0.34068,1.6024 -0.12701,0.62074 -0.23935,1.24196 -0.3706,1.86132 -0.16958,0.57372 -0.36964,1.13744 -0.5377,1.71175 -0.12446,0.53836 -0.25111,1.07457 -0.3774,1.61209 -0.15461,0.51286 -0.20615,1.0448 -0.32141,1.56822 -0.14265,0.88 -0.11511,1.78376 -0.26114,2.6651 0,0 -1.77263,-0.22158 -1.77263,-0.22158 z"
       inkscape:connector-curvature="0" />
    <path
       style="opacity:1;fill:#b3b3b3;fill-opacity:1;stroke:none;stroke-width:3.5;stroke-miterlimit:4;stroke-dasharray:none;stroke-dashoffset:0;stroke-opacity:1"
       id="path4213"
       d="m 497.9093,903.85985 c 0.82267,0.30593 1.67575,0.51001 2.54255,0.63897 0.58464,0.0432 1.18909,0.15196 1.77404,0.0661 0.514,-0.0472 0.9832,-0.25681 1.47782,-0.38828 0.0427,-0.0186 0.0854,-0.0372 0.12802,-0.0557 0,0 0.6446,1.66607 0.6446,1.66607 l 0,0 c -0.10709,0.0394 -0.21417,0.0787 -0.32126,0.11811 -0.57864,0.14714 -1.13011,0.39785 -1.73464,0.43562 -0.74464,0.0689 -1.49324,0.0165 -2.23471,-0.0754 -0.98953,-0.15063 -1.96449,-0.38164 -2.90367,-0.73279 0,0 0.62725,-1.67268 0.62725,-1.67268 z"
       inkscape:connector-curvature="0" />
    <path
       style="opacity:1;fill:#b3b3b3;fill-opacity:1;stroke:none;stroke-width:3.5;stroke-miterlimit:4;stroke-dasharray:none;stroke-dashoffset:0;stroke-opacity:1"
       id="path4215"
       d="m 509.09663,902.17873 c 0.68093,-0.11024 1.31489,-0.34441 1.9282,-0.64995 0.24221,-0.14055 0.22949,-0.36787 0.26103,-0.62321 0.0438,-0.53531 0.0324,-1.07333 0.0288,-1.60988 -0.13221,-0.60248 -0.0299,-0.33193 -0.15193,-0.30064 -0.33922,-0.0935 -0.64357,-0.0204 -0.9771,0.0448 -0.30801,0.0967 -0.43763,0.30386 -0.64697,0.53193 -0.24618,0.32594 -0.41941,0.69698 -0.61863,1.05181 -0.19996,0.3186 -0.23555,0.68642 -0.26839,1.05212 -0.0312,0.47302 -0.0604,0.94145 0.0362,1.40634 0.0537,0.29177 0.16911,0.59846 0.38977,0.80722 0.20403,0.2943 0.52491,0.46133 0.81776,0.65866 0.37742,0.18314 0.73803,0.40622 1.14408,0.5218 0.46561,0.10322 0.9455,0.10766 1.42017,0.11672 0.37581,-0.0582 0.92566,0.14192 1.2596,-0.10371 0.26794,-0.12994 0.5143,-0.3355 0.71212,-0.56114 0.0665,-0.0614 0.13308,-0.12293 0.19962,-0.18439 0,0 1.2021,1.32146 1.2021,1.32146 l 0,0 c -0.0374,0.0332 -0.0749,0.0663 -0.11237,0.0994 -0.38872,0.39194 -0.81296,0.76424 -1.32839,0.97941 -0.64018,0.23119 -1.28949,0.27656 -1.96755,0.23503 -0.64083,-0.0127 -1.28814,-0.0288 -1.91127,-0.19557 -0.56813,-0.18195 -1.09747,-0.45647 -1.61654,-0.74767 -0.42576,-0.28703 -0.87713,-0.56544 -1.18382,-0.987 -0.37934,-0.47467 -0.68254,-1.00243 -0.77757,-1.61273 -0.12257,-0.63737 -0.11744,-1.27664 -0.0624,-1.92252 0.061,-0.62013 0.16749,-1.23617 0.49963,-1.77644 0.27941,-0.45721 0.48612,-0.96513 0.85128,-1.36848 0.46212,-0.5007 0.93172,-0.92333 1.61979,-1.0757 0.68718,-0.13354 1.36325,-0.18424 2.0339,0.0716 0.85968,0.43048 1.15753,0.98451 1.22324,1.92581 0.004,0.62733 0.0177,1.25694 -0.0478,1.88184 -0.13275,0.83326 -0.44913,1.5495 -1.23283,1.96263 -0.79366,0.39424 -1.62255,0.68638 -2.50221,0.82309 0,0 -0.22158,-1.77262 -0.22158,-1.77262 z"
       inkscape:connector-curvature="0" />
    <path
       style="opacity:1;fill:#b3b3b3;fill-opacity:1;stroke:none;stroke-width:3.5;stroke-miterlimit:4;stroke-dasharray:none;stroke-dashoffset:0;stroke-opacity:1"
       id="path4217"
       d="m 518.6539,902.00761 c 0.727,0.18161 1.48155,0.32182 2.2312,0.22079 0.47216,-0.033 0.87483,-0.19023 1.2751,-0.42172 0.30487,-0.1247 0.5258,-0.27963 0.63151,-0.59185 0.0291,-0.21187 0.21347,-0.66424 0.0158,-0.84351 -0.0898,-0.18016 -0.18972,-0.40588 -0.40546,-0.44889 -0.36226,-0.10107 -0.718,-0.0833 -1.08308,-0.0264 -0.34552,0.0518 -0.72537,0.15245 -0.98442,0.40298 -0.2025,0.22614 -0.35212,0.53928 -0.49996,0.80933 -0.14801,0.34979 -0.16075,0.73699 -0.18147,1.11104 -0.0405,0.43361 0.0123,0.85631 0.15692,1.26689 0.14411,0.42642 0.36578,0.82409 0.58076,1.21931 0.20656,0.30382 0.46604,0.56123 0.71006,0.83444 0.28376,0.26889 0.6135,0.48074 0.97293,0.63311 0.3977,0.10794 0.84951,0.2413 1.26378,0.1664 0.38058,-0.0595 0.71079,-0.26784 1.03041,-0.47233 0.43896,-0.27326 0.87436,-0.55026 1.31896,-0.81557 0,0 0.91163,1.5363 0.91163,1.5363 l 0,0 c -0.43241,0.25466 -0.85342,0.52321 -1.27771,0.79033 -0.56302,0.35152 -1.15396,0.66899 -1.82599,0.74076 -0.73191,0.0444 -1.46508,-0.0476 -2.15204,-0.31587 -0.5855,-0.27043 -1.13556,-0.6111 -1.58269,-1.08255 -0.32473,-0.37812 -0.6857,-0.72677 -0.93906,-1.16222 -0.26798,-0.49394 -0.53643,-0.99583 -0.71337,-1.53047 -0.18809,-0.62191 -0.30364,-1.2586 -0.23806,-1.91129 0.0382,-0.64322 0.10098,-1.29289 0.40279,-1.87488 0.27267,-0.48714 0.54631,-0.97217 0.96547,-1.35294 0.54128,-0.39734 1.14326,-0.6852 1.81953,-0.75994 0.71914,-0.10269 1.43553,-0.0903 2.11991,0.18424 0.60493,0.32138 1.05252,0.78305 1.30283,1.431 0.23695,0.73757 0.22835,1.46764 -0.0564,2.19723 -0.29792,0.62242 -0.71718,1.13845 -1.37029,1.41247 -0.61556,0.35492 -1.26353,0.5849 -1.97653,0.65076 -0.96347,0.0902 -1.92178,-0.007 -2.85632,-0.26379 0,0 0.43327,-1.73309 0.43327,-1.73309 z"
       inkscape:connector-curvature="0" />
    <path
       style="opacity:1;fill:#b3b3b3;fill-opacity:1;stroke:none;stroke-width:3.5;stroke-miterlimit:4;stroke-dasharray:none;stroke-dashoffset:0;stroke-opacity:1"
       id="path4219"
       d="m 533.5367,899.78304 c -0.80133,-0.13052 -1.59723,-0.1576 -2.40379,-0.0899 -0.23585,0.0666 -0.5705,0.12358 -0.69496,0.34234 -0.16878,0.24443 -0.26133,0.58003 -0.31219,0.87696 -0.0296,0.20587 -0.0238,0.50014 0.15935,0.64061 0.2091,0.28479 0.45265,0.55696 0.72104,0.78941 0.29517,0.21228 0.61633,0.38381 0.93616,0.55917 0.46256,0.18801 0.87799,0.47267 1.2593,0.79118 0.5148,0.35292 0.75789,0.91792 0.982,1.47573 0.23784,0.66719 0.32995,1.37048 0.29356,2.07494 -0.0588,0.66749 -0.40273,1.21866 -0.83136,1.71048 -0.40197,0.5483 -1.00028,0.78029 -1.64176,0.91214 -0.70034,0.12904 -1.37578,0.0911 -2.04479,-0.14562 -0.53566,-0.25604 -0.95557,-0.66896 -1.39912,-1.04999 0,0 1.17315,-1.34723 1.17315,-1.34723 l 0,0 c 0.29091,0.2556 0.56938,0.52661 0.89269,0.73988 0.26381,0.2163 0.74009,0.0444 1.04138,0.0485 0.30549,-0.05 0.47915,-0.0869 0.66251,-0.36588 0.18624,-0.16628 0.3287,-0.39981 0.36647,-0.6436 0.072,-0.41939 -0.0708,-0.87221 -0.17356,-1.27572 -0.12543,-0.32342 -0.19291,-0.59538 -0.49635,-0.78822 -0.26079,-0.26342 -0.61985,-0.41671 -0.94904,-0.57356 -0.44117,-0.24573 -0.88204,-0.48844 -1.27821,-0.80524 -0.35593,-0.3345 -0.70222,-0.68856 -0.98283,-1.08955 -0.38453,-0.60639 -0.59049,-1.26293 -0.44628,-1.9874 0.12083,-0.61269 0.34123,-1.17161 0.69481,-1.68984 0.52035,-0.56197 1.1556,-0.87823 1.92063,-0.97988 0.9291,-0.076 1.85005,-0.0489 2.77277,0.0977 0,0 -0.22158,1.77263 -0.22158,1.77263 z"
       inkscape:connector-curvature="0" />
    <path
       style="opacity:1;fill:#808080;fill-opacity:1;stroke:none;stroke-width:1.95099998;stroke-miterlimit:4;stroke-dasharray:none;stroke-dashoffset:0;stroke-opacity:1"
       id="path5787"
       d="m 74.683939,685.08268 c 0.137748,1.10676 0.223912,2.21878 0.280013,3.3324 0.03718,0.8151 0.04169,1.63113 0.04367,2.44692 4.23e-4,0.71494 -9.33e-4,1.42988 -0.0016,2.14482 -5.99e-4,0.71266 -6.96e-4,1.42531 -7.65e-4,2.13797 -0.06221,0.6071 0.0972,1.18181 0.20162,1.77281 0.111461,0.67797 0.132121,1.36556 0.150455,2.05095 0,0 -1.785079,0.0477 -1.785079,0.0477 l 0,0 c -0.01592,-0.59774 -0.03039,-1.19763 -0.124122,-1.78942 -0.120699,-0.69068 -0.291569,-1.37383 -0.228589,-2.08216 6.9e-5,-0.71315 1.67e-4,-1.42629 7.66e-4,-2.13944 6.57e-4,-0.71295 0.002,-1.4259 0.0016,-2.13886 -0.0019,-0.78736 -0.0059,-1.57496 -0.04143,-2.36168 -0.05353,-1.06953 -0.136384,-2.13751 -0.26847,-3.20047 0,0 1.771924,-0.22149 1.771924,-0.22149 z"
       inkscape:connector-curvature="0" />
    <path
       style="opacity:1;fill:#808080;fill-opacity:1;stroke:none;stroke-width:1.95099998;stroke-miterlimit:4;stroke-dasharray:none;stroke-dashoffset:0;stroke-opacity:1"
       id="path5789"
       d="m 73.611318,684.61984 c 1.014634,-0.57578 2.114183,-0.95168 3.250435,-1.19528 1.040332,-0.15806 1.747862,0.0722 2.485032,0.80377 0.41735,0.56903 0.58853,1.27634 0.78017,1.94786 0.22183,0.77884 0.21979,1.5362 -0.033,2.3014 -0.2412,0.59995 -0.67478,1.09124 -1.12907,1.54004 -0.55851,0.5102 -1.23029,0.87639 -1.89902,1.22064 -0.620869,0.30462 -1.310455,0.39366 -1.947067,0.65561 0.517561,-0.15641 0.146377,-0.0222 0.150785,-1.44872 1.1e-4,-0.0354 -0.10511,-0.0415 -0.08154,-0.0679 0.03533,-0.0395 0.511369,0.0199 0.665157,0.0227 0.701226,0.003 1.402455,-0.004 2.103665,-0.008 0.85636,0.0373 1.57289,0.34237 2.17391,0.94345 0.54887,0.52706 0.75494,1.22344 0.87225,1.95136 0.0856,0.73212 0.0801,1.47075 0.0809,2.20669 0.0416,0.75337 -0.0761,1.49069 -0.31907,2.20144 -0.19311,0.66709 -0.57206,1.19579 -1.0719,1.66638 -0.56701,0.38532 -1.21095,0.66022 -1.87145,0.84136 -0.75377,0.17362 -1.51296,0.2028 -2.273062,0.0698 -0.651813,-0.15588 -1.108078,-0.52993 -1.547448,-1.01381 0,0 1.322178,-1.20026 1.322178,-1.20026 l 0,0 c 0.186521,0.20551 0.266634,0.35537 0.544956,0.4572 0.49965,0.0964 0.996994,0.064 1.496726,-0.0393 0.39851,-0.0988 0.75546,-0.28444 1.13198,-0.44093 0.32649,-0.2614 0.46873,-0.55762 0.59324,-0.96007 0.22214,-0.48881 0.20916,-1.05619 0.20813,-1.58004 -6.2e-4,-0.64606 0.005,-1.29417 -0.0602,-1.93769 -0.0564,-0.39951 -0.11833,-0.74829 -0.43546,-1.02864 -0.0656,-0.2784 -0.62846,-0.29777 -0.83622,-0.35127 -0.716014,0.004 -1.432045,0.0118 -2.148066,0.008 -0.210113,-0.004 -1.425972,-0.0262 -1.494442,-0.22552 -0.502378,-1.46266 -0.518761,-1.34488 0.13212,-1.72406 0.59012,-0.23175 1.208041,-0.35903 1.797389,-0.58762 0.515624,-0.261 1.03724,-0.53924 1.475439,-0.91918 0.27723,-0.24915 0.53779,-0.55011 0.69616,-0.88617 0.23358,-0.3231 0.0273,-0.83315 -0.0167,-1.18224 -0.11243,-0.40602 -0.26083,-0.80068 -0.36247,-1.20912 -0.20869,-0.30167 -0.41649,-0.3168 -0.814472,-0.2798 -0.956536,0.19885 -1.879738,0.51748 -2.733953,0.99865 0,0 -0.885963,-1.55044 -0.885963,-1.55044 z"
       inkscape:connector-curvature="0" />
    <path
       style="opacity:1;fill:#808080;fill-opacity:1;stroke:none;stroke-width:1.95099998;stroke-miterlimit:4;stroke-dasharray:none;stroke-dashoffset:0;stroke-opacity:1"
       id="path5791"
       d="m 83.969655,682.22553 c 0.13243,1.03621 0.16558,2.07924 0.36643,3.10519 0.17158,0.75529 0.24977,1.52438 0.29012,2.29631 0.0282,0.72048 0.0256,1.44169 0.0252,2.16257 0.12142,0.58188 0.22316,1.16506 0.28494,1.75644 0.0621,0.71923 0.066,1.44169 0.0703,2.16306 -0.0477,0.61943 0.023,1.20809 0.14395,1.81132 0.17574,0.63062 0.0924,1.3041 0.22889,1.93666 0.13637,0.54996 0.19963,1.10817 0.36516,1.64952 0.0361,0.15619 0.0854,0.30934 0.13987,0.46011 0,0 -1.60543,0.7819 -1.60543,0.7819 l 0,0 c -0.10242,-0.23448 -0.18861,-0.4712 -0.24287,-0.72236 -0.18484,-0.61036 -0.27041,-1.23578 -0.41481,-1.85623 -0.10119,-0.63005 -0.0913,-1.27158 -0.22167,-1.89851 -0.14309,-0.71368 -0.2247,-1.42172 -0.17877,-2.1518 -0.004,-0.66386 -0.007,-1.32871 -0.061,-1.99079 -0.066,-0.65306 -0.2192,-1.28877 -0.29434,-1.94016 3.3e-4,-0.68997 0.003,-1.38023 -0.0228,-2.06984 -0.0349,-0.68859 -0.10445,-1.37426 -0.2597,-2.04759 -0.20586,-1.06638 -0.25737,-2.14689 -0.38543,-3.22431 0,0 1.77193,-0.22149 1.77193,-0.22149 z"
       inkscape:connector-curvature="0" />
    <path
       style="opacity:1;fill:#808080;fill-opacity:1;stroke:none;stroke-width:1.95099998;stroke-miterlimit:4;stroke-dasharray:none;stroke-dashoffset:0;stroke-opacity:1"
       id="path5793"
       d="m 92.827765,691.1549 c -0.85013,0.40206 -1.621,0.90682 -2.32876,1.51921 -0.40102,0.36283 -0.63257,0.78271 -0.75333,1.30141 -0.10882,0.62136 -0.10451,1.25518 -0.10778,1.8839 0.0524,0.50977 -0.12854,1.13206 0.14593,1.59965 0.11677,0.29 0.37801,0.48861 0.66533,0.61333 0.47946,0.14946 0.98891,0.15543 1.48661,0.17122 0.5001,-0.0381 1.10855,0.13532 1.56729,-0.13357 0.34786,-0.16473 0.6599,-0.42907 0.91771,-0.71603 0.3659,-0.27262 0.50192,-0.66434 0.69368,-1.06269 0.18747,-0.46892 0.20823,-0.97979 0.23393,-1.47799 -0.0285,-0.48918 0.14445,-1.08732 -0.12066,-1.53592 -0.18412,-0.28117 -0.24476,-0.83247 -0.58011,-0.99147 -0.39794,-0.11917 -0.81543,-0.13398 -1.22742,-0.15178 -0.69681,-0.0177 -1.39397,-0.01 -2.09092,-0.007 0,0 -0.008,-1.7857 -0.008,-1.7857 l 0,0 c 0.72642,-0.003 1.45309,-0.0115 2.17934,0.009 0.81219,0.0378 1.63729,0.0953 2.31974,0.58896 0.49498,0.47089 0.81624,1.03089 1.06226,1.66706 0.27259,0.74852 0.31379,1.50964 0.24908,2.30167 -0.04,0.73667 -0.10172,1.48175 -0.41062,2.16304 -0.26865,0.55016 -0.51563,1.1305 -1.0115,1.51916 -0.44816,0.45364 -0.93906,0.88424 -1.53356,1.13401 -0.74678,0.27323 -1.5072,0.31614 -2.29832,0.26423 -0.76481,-0.0255 -1.54429,-0.0572 -2.25492,-0.37306 -0.63843,-0.35336 -1.21815,-0.82135 -1.49227,-1.52175 -0.27231,-0.74174 -0.31535,-1.49739 -0.27818,-2.28373 0.004,-0.77365 0.005,-1.55393 0.16294,-2.31487 0.23113,-0.86581 0.63699,-1.60938 1.31549,-2.21132 0.79535,-0.68804 1.65908,-1.26432 2.61116,-1.7192 0,0 0.88596,1.55044 0.88596,1.55044 z"
       inkscape:connector-curvature="0" />
    <path
       style="opacity:1;fill:#808080;fill-opacity:1;stroke:none;stroke-width:1.95099998;stroke-miterlimit:4;stroke-dasharray:none;stroke-dashoffset:0;stroke-opacity:1"
       id="path5795"
       d="m 104.44128,690.10154 c -0.78901,0.40398 -1.6828,0.69598 -2.34035,1.31089 -0.33912,0.41426 -0.49809,0.88789 -0.59121,1.40578 -0.18505,0.57925 -0.32035,1.16317 -0.38269,1.76767 0.11068,0.46539 0.10532,0.96275 0.25051,1.4179 0.14293,0.43565 0.39,0.83456 0.61741,1.23359 0.25873,0.36596 0.57675,0.67935 0.87514,1.01225 0.29606,0.2349 0.66594,0.39915 1.02331,0.52935 0.46533,0.10273 0.97555,0.22022 1.45161,0.13763 0.44279,-0.0783 0.8966,-0.20442 1.28934,-0.43103 0.53079,-0.24313 1.05728,-0.48349 1.56954,-0.76311 0,0 0.85529,1.56756 0.85529,1.56756 l 0,0 c -0.52627,0.287 -1.06528,0.53844 -1.611,0.78503 -0.6061,0.29536 -1.24275,0.53618 -1.91654,0.61749 -0.76724,0.0614 -1.54294,-0.01 -2.27883,-0.24671 -0.6179,-0.24442 -1.25034,-0.53268 -1.7202,-1.01302 -0.37242,-0.43012 -0.78739,-0.82474 -1.08989,-1.31263 -0.30036,-0.5294 -0.615657,-1.06531 -0.789357,-1.65165 -0.16809,-0.67478 -0.27105,-1.37709 -0.30206,-2.0712 0.0708,-0.65177 0.19152,-1.29277 0.40451,-1.91463 0.18048,-0.90786 0.511727,-1.74005 1.169847,-2.4147 0.85466,-0.7214 1.87151,-1.18718 2.88861,-1.63848 0,0 0.62701,1.67202 0.62701,1.67202 z"
       inkscape:connector-curvature="0" />
    <path
       style="opacity:1;fill:#808080;fill-opacity:1;stroke:none;stroke-width:1.95099998;stroke-miterlimit:4;stroke-dasharray:none;stroke-dashoffset:0;stroke-opacity:1"
       id="path5797"
       d="m 110.71954,699.50989 c 0,-1.08881 0,-2.17762 0,-3.26643 0.0459,-0.70487 -0.01,-1.38205 -0.14499,-2.07048 -0.17522,-0.6284 -0.092,-1.30006 -0.22909,-1.93018 -0.17013,-0.63617 -0.25126,-1.28758 -0.29996,-1.94266 -0.0407,-0.63466 0.002,-1.2658 -0.12721,-1.88989 -0.15631,-0.67126 -0.21254,-1.35774 -0.24676,-2.04421 -0.0179,-0.74706 -0.0615,-1.49573 0.0248,-2.23903 0.0606,-0.31187 0.124,-0.62286 0.17904,-0.93574 0,0 1.7584,0.31113 1.7584,0.31113 l 0,0 c -0.0514,0.28908 -0.10565,0.57743 -0.1679,0.86442 -0.11217,0.62509 0.0108,1.28003 -0.0108,1.9115 0.029,0.59811 0.0753,1.19632 0.21406,1.78078 0.13744,0.69974 0.13458,1.40018 0.15732,2.1108 0.0426,0.59392 0.12249,1.18153 0.27674,1.75806 0.10188,0.63075 0.0925,1.27316 0.22358,1.90083 0.15723,0.80092 0.22476,1.59693 0.17847,2.41467 0,1.08881 0,2.17762 0,3.26643 0,0 -1.78571,0 -1.78571,0 z"
       inkscape:connector-curvature="0" />
    <path
       style="opacity:1;fill:#808080;fill-opacity:1;stroke:none;stroke-width:1.95099998;stroke-miterlimit:4;stroke-dasharray:none;stroke-dashoffset:0;stroke-opacity:1"
       id="path5799"
       d="m 111.02332,688.54287 c 1.11947,-0.2879 2.24714,-0.49868 3.4015,-0.36218 0.87006,0.1995 1.40673,0.77623 1.86833,1.4954 0.32958,0.58201 0.58576,1.17166 0.72756,1.82726 0.17589,0.9092 0.10074,1.61348 -0.41137,2.3912 -0.55875,0.56137 -1.22819,0.85739 -1.99169,1.02017 -0.30607,0.0927 -0.64574,0.0155 -0.94638,0.12978 -0.0647,0.0246 -0.087,0.11612 0.0694,0.0129 0.10038,-0.0347 0.0377,-0.16366 0.0946,-0.21931 0.0216,-0.0211 0.0183,0.0594 0.0381,0.0821 0.0254,0.0292 0.16545,0.19235 0.23642,0.25699 0.32229,0.35529 0.64984,0.71456 1.01132,1.03167 0.44252,0.33834 0.87833,0.68714 1.32049,1.02725 0.31462,0.29126 0.17075,0.16693 0.42639,0.37893 0,0 -1.14997,1.36614 -1.14997,1.36614 l 0,0 c -0.28902,-0.24572 -0.16737,-0.13145 -0.37213,-0.33503 -0.47516,-0.37195 -0.95221,-0.74083 -1.42512,-1.11519 -0.3934,-0.36396 -0.77122,-0.74774 -1.12768,-1.1475 -0.55162,-0.63526 -0.95271,-1.34058 -0.61146,-2.19679 0.59602,-0.84767 1.1058,-0.94397 2.08097,-1.02199 0.32854,-0.0608 0.69043,-0.18256 0.92818,-0.35478 0.22568,-0.14774 0.11207,-0.67955 0.0814,-0.9439 -0.087,-0.45199 -0.2738,-0.83939 -0.49273,-1.2425 -0.17048,-0.28618 -0.30475,-0.51667 -0.60058,-0.67409 -0.91309,-0.16724 -1.83408,0.14896 -2.72247,0.32588 0,0 -0.4331,-1.7324 -0.4331,-1.7324 z"
       inkscape:connector-curvature="0" />
    <path
       style="opacity:1;fill:#808080;fill-opacity:1;stroke:none;stroke-width:1.95099998;stroke-miterlimit:4;stroke-dasharray:none;stroke-dashoffset:0;stroke-opacity:1"
       id="path5801"
       d="m 68.576685,719.50989 c -0.01504,-1.03731 0.162202,-2.06479 0.263083,-3.09484 0.136199,-0.67752 0.314435,-1.34101 0.391679,-2.02894 0.05863,-0.65681 0.05938,-1.31694 0.06252,-1.97582 0.0785,-0.64918 0.229836,-1.28326 0.29527,-1.93463 0.05404,-0.66248 0.05657,-1.32769 0.06041,-1.99192 0.104155,-0.67955 0.197997,-1.36844 0.365571,-2.03577 0.16475,-0.70825 0.443555,-1.32191 0.94074,-1.85345 0.709545,-0.54523 1.551407,-0.64503 2.412585,-0.52287 0.782609,0.17385 1.312386,0.675 1.777643,1.29413 0.316616,0.5853 0.575878,1.20891 0.747228,1.85321 0.224463,0.85243 0.108528,1.63439 -0.297633,2.40348 -0.370704,0.65068 -0.975395,1.10576 -1.623246,1.45463 -0.545706,0.34913 -1.249722,0.18655 -1.817137,0.43212 0.60283,-0.13282 0.349295,-0.69138 0.413072,-0.76362 0.04736,-0.0536 0.07363,0.12922 0.133908,0.16779 0.358614,0.40859 0.760688,0.76276 1.080463,1.20573 0.333381,0.3969 0.597615,0.84027 0.896206,1.26135 0.320859,0.53013 0.54889,1.11968 0.756797,1.70341 0.261151,0.46783 0.403578,0.98397 0.605392,1.47743 0.189833,0.505 0.293435,1.05371 0.546569,1.53378 0.173195,0.43046 0.399233,0.8325 0.581139,1.25907 0,0 -1.648179,0.68723 -1.648179,0.68723 l 0,0 c -0.161986,-0.40389 -0.389843,-0.77751 -0.547612,-1.18362 -0.235988,-0.52416 -0.421327,-1.06996 -0.584765,-1.62054 -0.213808,-0.52286 -0.371404,-1.0637 -0.6383,-1.56428 -0.148808,-0.43887 -0.325775,-0.87743 -0.544592,-1.2838 -0.28824,-0.4295 -0.568822,-0.85984 -0.896918,-1.2624 -0.227934,-0.3988 -0.670992,-0.63289 -0.928288,-1.013 -0.670588,-0.79965 -0.901813,-1.67331 0.185195,-2.28999 0.523709,-0.17042 1.063696,-0.18827 1.591054,-0.33503 0.36108,-0.16439 0.695544,-0.42588 0.8977,-0.76761 0.257549,-0.28631 0.173209,-0.71463 0.109878,-1.05681 -0.105805,-0.43414 -0.301765,-0.83158 -0.460942,-1.24663 -0.179174,-0.26291 -0.319882,-0.44699 -0.605835,-0.58103 -0.310774,-0.0547 -0.593854,-0.0491 -0.901,0.0425 -0.320109,0.11266 -0.327805,0.78712 -0.45716,1.03438 -0.1596,0.50891 -0.163347,1.06419 -0.303849,1.58062 -0.0042,0.72143 -0.008,1.44393 -0.06965,2.16324 -0.06158,0.59314 -0.16303,1.17814 -0.28602,1.7615 -0.0035,0.7241 -0.0056,1.44962 -0.07418,2.17115 -0.07926,0.67705 -0.222052,1.33883 -0.388538,1.99945 -0.09561,0.97211 -0.264183,1.94193 -0.254544,2.92041 0,0 -1.785714,0 -1.785714,0 z"
       inkscape:connector-curvature="0" />
    <path
       style="opacity:1;fill:#808080;fill-opacity:1;stroke:none;stroke-width:1.95099998;stroke-miterlimit:4;stroke-dasharray:none;stroke-dashoffset:0;stroke-opacity:1"
       id="path5805"
       d="m 80.636335,713.65127 c 0.91659,0.0791 1.86213,0.29976 2.77392,0.0807 0.30564,-0.15867 0.38388,-0.2834 0.45164,-0.59941 -0.0615,-0.13837 -0.0724,-0.42769 -0.2667,-0.45877 -0.28584,-0.3199 -0.64061,-0.38721 -1.04598,-0.44555 -0.44293,-0.011 -0.99238,-0.16992 -1.39892,0.0775 -0.39849,0.1423 -0.53764,0.51543 -0.74667,0.84884 -0.26934,0.41896 -0.3239,0.90572 -0.3679,1.38992 -0.0362,0.48276 -0.0422,1.00629 0.16571,1.45668 0.13223,0.45695 0.37309,0.8399 0.63571,1.22746 0.2867,0.33549 0.58653,0.65348 0.91999,0.94375 0.41626,0.32666 0.86143,0.60219 1.31767,0.86958 0.41833,0.22791 0.81253,0.44195 1.28176,0.53711 0.39631,0.0801 0.77733,-0.0538 1.14117,-0.19917 0.12446,-0.12623 0.24764,-0.26378 0.35567,-0.41528 0,0 1.4102,1.0955 1.4102,1.0955 l 0,0 c -0.31201,0.38771 -0.6442,0.76894 -1.10795,0.97988 -0.6982,0.27493 -1.4316,0.43967 -2.1818,0.28329 -0.65074,-0.14912 -1.22937,-0.4171 -1.80776,-0.74412 -0.5482,-0.32615 -1.08568,-0.66302 -1.5844,-1.0625 -0.44662,-0.39193 -0.85282,-0.82262 -1.22352,-1.28733 -0.34147,-0.5055 -0.64569,-1.02278 -0.83151,-1.60856 -0.2472,-0.72584 -0.36317,-1.47791 -0.26864,-2.24533 0.075,-0.76273 0.21049,-1.51741 0.63505,-2.17326 0.41405,-0.65195 0.82204,-1.27959 1.59031,-1.55297 0.76416,-0.27471 1.53858,-0.31065 2.34145,-0.18535 0.7281,0.11938 1.4249,0.32736 1.9547,0.87341 0.63537,0.62852 0.95351,1.37943 0.79925,2.28621 -0.29425,0.94082 -0.85584,1.5592 -1.81389,1.85857 -1.11606,0.20519 -2.23181,0.0954 -3.35005,-0.0589 0,0 0.22149,-1.77192 0.22149,-1.77192 z"
       inkscape:connector-curvature="0" />
    <path
       style="opacity:1;fill:#808080;fill-opacity:1;stroke:none;stroke-width:1.95099998;stroke-miterlimit:4;stroke-dasharray:none;stroke-dashoffset:0;stroke-opacity:1"
       id="path5807"
       d="m 90.719545,712.33627 c -0.0436,1.00225 0.0141,1.9896 0.1531,2.98088 0.0845,0.58128 0.12176,1.20568 0.38164,1.74382 0.18563,0.27188 0.22067,0.8905 0.56066,1.03823 0.11494,0.0114 0.78275,0.22537 0.71721,0.0518 0.26468,-0.12275 0.26222,-0.46134 0.36129,-0.72046 0.2098,-0.48805 0.26073,-1.01439 0.29811,-1.53817 0.0354,-0.68061 0.0322,-1.36247 0.0321,-2.04377 0.0146,-1.60809 -0.45176,-1.21221 1.78219,-0.96888 -8.6e-4,0.63005 -7e-4,1.26009 -6.9e-4,1.89014 3e-5,0.71854 6e-5,1.43707 8e-5,2.15561 -0.0285,0.50664 0.10815,0.99009 0.29578,1.4533 0.16708,0.2941 0.27804,0.40796 0.59013,0.48342 0.2347,0.0441 0.69936,0.13456 0.81776,-0.0705 0.27984,-0.23685 0.47469,-0.58319 0.61351,-0.92261 0.11136,-0.50986 0.30588,-0.99537 0.41553,-1.50595 0.10535,-0.60069 0.11333,-1.21257 0.123678,-1.82065 0.006,-0.58833 0.005,-1.17672 0.004,-1.76507 0,0 1.78572,-0.003 1.78572,-0.003 l 0,0 c 9.6e-4,0.59958 0.003,1.19918 -0.004,1.79873 -0.0127,0.72746 -0.0275,1.45926 -0.16567,2.17602 -0.14152,0.62567 -0.35536,1.23056 -0.52807,1.84703 -0.27924,0.60236 -0.62859,1.20114 -1.160148,1.61423 -0.80069,0.52618 -1.52639,0.59754 -2.45109,0.3509 -0.79194,-0.27865 -1.34068,-0.74692 -1.69732,-1.51504 -0.27111,-0.67534 -0.45057,-1.3869 -0.42526,-2.12084 -1e-5,-0.71855 -5e-5,-1.43709 -8e-5,-2.15564 -1e-5,-0.63155 -1.7e-4,-1.26311 7e-4,-1.89466 2.23854,-0.27087 1.76885,-0.64347 1.78924,0.97322 5e-5,0.725 0.003,1.45062 -0.0369,2.17477 -0.0527,0.7008 -0.13924,1.40226 -0.41523,2.05583 -0.30335,0.75532 -0.57359,1.46337 -1.42093,1.75236 -0.91913,0.25653 -1.72692,0.14014 -2.52117,-0.40959 -0.48058,-0.47862 -0.77971,-1.03902 -1.00967,-1.67512 -0.2736,-0.6999 -0.43533,-1.43267 -0.50129,-2.18186 -0.15005,-1.07302 -0.21456,-2.14421 -0.17036,-3.22854 0,0 1.78572,0 1.78572,0 z"
       inkscape:connector-curvature="0" />
    <path
       style="opacity:1;fill:#808080;fill-opacity:1;stroke:none;stroke-width:1.95099998;stroke-miterlimit:4;stroke-dasharray:none;stroke-dashoffset:0;stroke-opacity:1"
       id="path5809"
       d="m 105.05861,712.58901 c -0.79818,0.23973 -1.55943,0.51323 -2.1409,1.12858 -0.28444,0.45821 -0.4558,0.99392 -0.60662,1.51198 -0.13693,0.56658 -0.14787,1.15258 -0.16169,1.7323 -0.008,0.61617 -0.0454,1.22678 0.08,1.83177 0.0867,0.13771 0.38775,0.109 0.5685,0.13306 0.56319,0.0563 1.12084,0.0754 1.67488,-0.0408 0.19631,-0.12124 0.33988,-0.31601 0.40975,-0.55341 0.1224,-0.53626 0.12103,-1.09123 0.1293,-1.63841 0.005,-0.70963 -7.6e-4,-1.41929 -0.003,-2.12893 -0.002,-0.71623 -0.003,-1.43247 -0.003,-2.1487 -3e-5,-0.11914 -7e-5,-0.23827 -9e-5,-0.35741 -5e-5,-0.19226 -8e-5,-0.45936 -8e-5,-0.45936 1.86974,0.18004 1.7857,-0.38854 1.78574,0.45935 3e-5,0.66557 3e-5,1.33113 3e-5,1.9967 10e-6,0.71903 10e-6,1.43806 10e-6,2.15709 -10e-4,0.52311 -0.0191,1.09118 0.20289,1.57978 0.11419,0.26784 0.23985,0.5909 0.54213,0.67832 0.49698,0.12596 1.01498,0.1268 1.52442,0.13699 0.29836,0.002 0.59147,0.0218 0.8856,-0.0322 0,0 0.24484,1.76885 0.24484,1.76885 l 0,0 c -0.39022,0.0463 -0.77368,0.0721 -1.16718,0.0487 -0.7751,-0.0163 -1.56698,-0.0288 -2.29479,-0.32942 -0.67654,-0.37679 -1.15126,-0.91553 -1.41082,-1.6544 -0.24099,-0.70955 -0.35593,-1.44515 -0.31281,-2.1966 0,-0.71903 0,-1.43806 0,-2.15709 0,-0.66554 -1e-5,-1.33108 -3e-5,-1.99662 -4e-5,-0.84788 -0.084,-0.27923 1.78569,-0.45962 1e-5,0 0,0.1474 7e-5,0.45907 3e-5,0.11902 6e-5,0.23804 9e-5,0.35706 3.3e-4,0.71444 8.3e-4,1.42888 0.003,2.14331 0.003,0.72092 0.008,1.44187 0.003,2.16279 -0.012,0.76181 -0.0187,1.5365 -0.25482,2.26898 -0.33715,0.78461 -0.87364,1.39091 -1.7159,1.6455 -0.76231,0.15014 -1.52987,0.1479 -2.30127,0.0553 -0.95271,-0.15837 -1.77375,-0.53522 -2.04683,-1.54694 -0.14432,-0.73742 -0.13776,-1.47673 -0.11426,-2.22602 0.0182,-0.73769 0.0433,-1.48194 0.23556,-2.199 0.2422,-0.79955 0.51035,-1.62096 1.05777,-2.26715 0.84257,-0.81222 1.83818,-1.2954 2.96797,-1.59577 0,0 0.4331,1.7324 0.4331,1.7324 z"
       inkscape:connector-curvature="0" />
    <path
       style="opacity:1;fill:#808080;fill-opacity:1;stroke:none;stroke-width:1.95099998;stroke-miterlimit:4;stroke-dasharray:none;stroke-dashoffset:0;stroke-opacity:1"
       id="path5811"
       d="m 112.11228,720.33492 c -0.0619,-1.01713 -0.30296,-2.00533 -0.48229,-3.00472 -0.13984,-0.79418 -0.17554,-1.6001 -0.19358,-2.40458 -0.0228,-0.75034 -0.0309,-1.49069 0.1139,-2.22915 0.15416,-0.82727 0.13792,-1.26192 0.68528,-1.95767 0.76831,-0.51481 1.34229,-0.15864 2.07858,0.1427 0.42429,0.28757 0.86781,0.43538 1.36833,0.50982 0.213,-0.003 0.35929,-0.091 0.54574,-0.17462 0,0 0.71695,1.63547 0.71695,1.63547 l 0,0 c -0.49813,0.21518 -0.98989,0.36223 -1.54107,0.30304 -0.6291,-0.1031 -1.25242,-0.25833 -1.78421,-0.62848 -0.0393,-0.0169 -0.4363,-0.22667 -0.47953,-0.24696 -0.0372,-0.0175 -0.14309,0.004 -0.11968,-0.0299 0.10114,-0.14607 0.52986,0.18748 0.47365,-0.24444 0.16349,-0.37222 -0.0159,0.0302 -0.0257,0.0792 -0.0639,0.31894 -0.0804,0.64856 -0.16759,0.96362 -0.12613,0.60688 -0.0859,1.21972 -0.0794,1.83782 0.0156,0.71224 0.0436,1.42606 0.16608,2.12948 0.18396,1.03023 0.43064,2.04977 0.49645,3.09789 0,0 -1.77193,0.22149 -1.77193,0.22149 z"
       inkscape:connector-curvature="0" />
    <path
       style="opacity:1;fill:#808080;fill-opacity:1;stroke:none;stroke-width:1.95099998;stroke-miterlimit:4;stroke-dasharray:none;stroke-dashoffset:0;stroke-opacity:1"
       id="path5813"
       d="m 122.20147,712.23187 c -0.68913,0.26801 -1.48534,0.51511 -1.95096,1.12449 -0.23682,0.44774 -0.24158,0.96804 -0.26021,1.46258 -0.0117,0.70046 8.9e-4,1.40107 0.007,2.10154 0.0225,0.41662 0.23174,0.70797 0.45818,1.03481 0.22376,0.22189 0.58536,0.22369 0.88179,0.25667 0.07,0.0322 0.8513,0.0298 0.70594,-0.16245 0.26039,-0.37008 0.47078,-0.7879 0.63173,-1.21222 0.15361,-0.51803 0.16526,-1.06351 0.18282,-1.59955 -0.0338,-0.71782 0.0479,-1.41427 0.18728,-2.11619 0.0667,-0.62603 0.20005,-1.23215 0.35134,-1.84221 0.11561,-0.61426 0.15093,-1.23094 0.29813,-1.84002 0.15123,-0.56513 0.19214,-1.14868 0.22013,-1.73037 0.0245,-0.69162 0.0223,-1.38383 0.0223,-2.07578 -0.0487,-0.73274 0.0329,-1.4433 0.1769,-2.15954 0.22443,-0.933 0.22642,-0.79917 1.89738,-0.12289 0.10966,0.0444 0.0801,0.96744 0.083,1.08395 0.005,0.71186 -0.006,1.42373 -0.0111,2.13557 -0.0148,0.74208 0.03,1.48487 -0.057,2.22271 -0.13674,0.59858 -0.22435,1.20273 -0.26867,1.81459 -0.0385,0.67818 -0.0384,1.35777 -0.0401,2.0368 -4e-4,0.71381 9.5e-4,1.42761 0.002,2.14141 6e-4,0.71479 7e-4,1.42957 7.7e-4,2.14436 -10e-4,0.5221 -0.0188,1.089 0.20287,1.5766 0.0875,-0.004 0.16949,0.005 0.27064,0.0243 0,0 -0.50447,1.71298 -0.50447,1.71298 l 0,0 c -0.63112,-0.20603 -1.15097,-0.48497 -1.44189,-1.12026 -0.24073,-0.70852 -0.35592,-1.44305 -0.31287,-2.19346 -7e-5,-0.7143 -1.7e-4,-1.4286 -7.6e-4,-2.14289 -6.6e-4,-0.71582 -0.002,-1.43164 -0.002,-2.14745 0.002,-0.72137 0.002,-1.44333 0.0449,-2.16369 0.0485,-0.648 0.13019,-1.29153 0.28023,-1.92477 0.11613,-0.65236 -0.012,-1.33487 0.0406,-1.99393 0.005,-0.69351 0.0151,-1.38703 0.0116,-2.08057 -0.005,-0.23244 -0.004,-0.31265 -0.0189,-0.53636 -0.004,-0.058 -0.0727,-0.16355 -0.0154,-0.17382 1.89199,-0.33925 1.75469,-0.60736 1.58987,0.0588 -0.12104,0.60197 -0.1921,1.18916 -0.14188,1.80739 8e-5,0.72113 0.002,1.44254 -0.0244,2.1633 -0.0345,0.69487 -0.0902,1.39107 -0.26889,2.06633 -0.15045,0.60925 -0.15316,1.23586 -0.29999,1.84757 -0.1454,0.58356 -0.26913,1.15918 -0.3328,1.75928 -0.1209,0.60858 -0.18998,1.20357 -0.15406,1.82805 -0.0253,0.74157 -0.0592,1.49299 -0.30826,2.19978 -0.22948,0.56195 -0.49895,1.12223 -0.85535,1.61415 -0.67999,0.79809 -1.32985,0.96841 -2.35553,0.87339 -0.82451,-0.10463 -1.61183,-0.31141 -2.13571,-1.01257 -0.42992,-0.62058 -0.74973,-1.26346 -0.77598,-2.03676 -0.006,-0.72928 -0.0196,-1.45871 -0.005,-2.18796 0.038,-0.9069 0.13354,-1.80778 0.69518,-2.56083 0.77135,-0.84481 1.77853,-1.35291 2.86717,-1.68723 0,0 0.4331,1.7324 0.4331,1.7324 z"
       inkscape:connector-curvature="0" />
    <path
       style="opacity:1;fill:#808080;fill-opacity:1;stroke:none;stroke-width:1.5;stroke-miterlimit:4;stroke-dasharray:none;stroke-dashoffset:0;stroke-opacity:1"
       id="path5911"
       d="m 133.44971,715.74929 c 1.65678,1.16587 3.46061,2.09535 5.11306,3.26615 0.9701,0.69704 2.03304,1.23845 3.06031,1.83922 0.9192,0.49774 1.87791,0.92019 2.7977,1.41673 1.27371,0.56313 2.46485,1.2728 3.64929,2.00257 1.17594,0.67264 2.42848,1.17536 3.65456,1.74457 1.21129,0.69546 2.49991,1.23055 3.74723,1.84981 1.07188,0.50983 2.16538,0.9793 3.21423,1.53558 1.01905,0.43196 1.94933,0.99888 2.8645,1.61624 0.86084,0.51739 1.73857,0.9972 2.62022,1.48078 0.94975,0.45684 1.88991,0.93359 2.82418,1.42408 0.85126,0.55259 1.68323,1.17053 2.61349,1.58577 0.91509,0.4944 1.81734,1.03824 2.78153,1.43332 0.9523,0.47103 1.87183,1.02416 2.85617,1.42643 0.95367,0.47045 1.87324,1.02529 2.85826,1.42834 1.06059,0.3499 2.09347,0.78689 3.10195,1.26711 0.99861,0.42857 1.97071,0.92171 2.93388,1.42669 0.9652,0.44988 1.9148,0.93442 2.85817,1.43099 0.9641,0.44995 1.91323,0.93307 2.85601,1.42873 0.88489,0.45017 1.67547,1.05937 2.56451,1.49877 0,0 -1.29759,2.54549 -1.29759,2.54549 l 0,0 c -0.89288,-0.46419 -1.71323,-1.03819 -2.59847,-1.51637 -0.94273,-0.4974 -1.88941,-0.98439 -2.85728,-1.4294 -0.94141,-0.49733 -1.88655,-0.9849 -2.85366,-1.42862 -0.93015,-0.48911 -1.86536,-0.97069 -2.83411,-1.37675 -0.97122,-0.46265 -1.96368,-0.88022 -2.98694,-1.21542 -0.97716,-0.42235 -1.91576,-0.93321 -2.85701,-1.42782 -0.97838,-0.4223 -1.91845,-0.93294 -2.86056,-1.42828 -0.98887,-0.42922 -1.94202,-0.94795 -2.87949,-1.4771 -0.95442,-0.46115 -1.86866,-1.02649 -2.72902,-1.64326 -0.94977,-0.5005 -1.90365,-0.98826 -2.87224,-1.44995 -0.95579,-0.52809 -1.90706,-1.05372 -2.84234,-1.61664 -0.8401,-0.56915 -1.69103,-1.08163 -2.63263,-1.47503 -1.00142,-0.57423 -2.1037,-0.9674 -3.13135,-1.49211 -1.21025,-0.62251 -2.48921,-1.11454 -3.66536,-1.81017 -1.32672,-0.61667 -2.68327,-1.16314 -3.95005,-1.90357 -1.14829,-0.70809 -2.30156,-1.3927 -3.53796,-1.93737 -0.92554,-0.54178 -1.94733,-0.91586 -2.87344,-1.46035 -1.07902,-0.66433 -2.23844,-1.20553 -3.25905,-1.96926 -1.56123,-1.13102 -3.30683,-1.97609 -4.86824,-3.1092 0,0 1.41754,-2.4807 1.41754,-2.4807 z"
       inkscape:connector-curvature="0" />
    <path
       style="opacity:1;fill:#808080;fill-opacity:1;stroke:none;stroke-width:1.5;stroke-miterlimit:4;stroke-dasharray:none;stroke-dashoffset:0;stroke-opacity:1"
       id="path5913"
       d="m 186.39781,749.50502 c 2.05186,-0.01 4.09897,0.0936 6.13531,-0.19012 -0.22749,0.30867 0.95554,-0.39501 0.70357,-0.40684 -0.0476,-0.002 -0.0826,0.0718 -0.12915,0.0615 -0.14199,-0.0315 -0.037,-0.28908 -0.0401,-0.43449 -0.40265,-0.93356 -0.517,-1.95681 -0.79018,-2.92891 -0.45267,-1.43784 -0.65136,-2.92795 -0.76787,-4.42505 0,0 2.84875,-0.21879 2.84875,-0.21879 l 0,0 c 0.0997,1.31818 0.27154,2.6293 0.67605,3.89379 0.32649,1.22848 0.61299,2.47214 0.89022,3.71038 -0.0562,2.10492 -0.91736,3.11843 -3.00295,3.57905 -2.16688,0.29335 -4.34088,0.22301 -6.52368,0.21664 0,0 0,-2.85714 0,-2.85714 z"
       inkscape:connector-curvature="0" />
    <path
       style="opacity:1;fill:#008000;fill-opacity:1;stroke:none;stroke-width:1.5;stroke-miterlimit:4;stroke-dasharray:none;stroke-dashoffset:0;stroke-opacity:1"
       id="path4251"
       d="m 308.57579,673.83604 c 0,2.17762 0,4.35524 0,6.53287 0,1.60287 0,3.20574 0,4.80861 0,1.42789 0,2.85578 0,4.28367 0,1.42581 0,2.85161 0,4.27742 0,1.4284 0,2.85681 0,4.28522 0,1.4286 0,2.8572 0,4.28581 0,1.42858 0,2.85715 0,4.28573 -0.12472,1.23435 0.19655,2.40635 0.40868,3.60812 0.22742,1.39821 0.26711,2.81632 0.29584,4.22968 0.10292,1.33387 -0.13063,2.70324 0.0863,4.02539 0.29466,1.25958 0.4583,2.53828 0.55395,3.82654 0.0842,1.43232 0.0849,2.86776 0.0885,4.30202 -0.0981,1.2599 0.0459,2.46013 0.29236,3.68774 0.27702,1.36805 0.34715,2.76344 0.39289,4.15471 0.0341,1.4347 0.0298,2.86995 0.0289,4.30494 -0.002,1.42985 -0.003,2.85969 -0.004,4.28953 -3.6e-4,0.95243 -2.1e-4,0.47622 -4.5e-4,1.42862 0,0 -2.85715,-7.2e-4 -2.85715,-7.2e-4 l 0,0 c 2.4e-4,-0.9529 9e-5,-0.47643 4.5e-4,-1.42942 7.6e-4,-1.42992 0.002,-2.85985 0.004,-4.28977 8.6e-4,-1.40339 0.005,-2.80703 -0.0274,-4.21015 -0.0398,-1.23362 -0.0948,-2.47178 -0.33851,-3.68532 -0.28261,-1.40777 -0.44366,-2.80259 -0.34825,-4.24308 -0.003,-1.3669 -0.003,-2.73489 -0.0808,-4.10006 -0.0891,-1.23194 -0.26247,-2.44923 -0.53612,-3.65481 -0.17127,-1.44332 -0.0683,-2.89707 -0.11121,-4.34853 -0.0254,-1.26689 -0.0555,-2.53845 -0.25327,-3.79264 -0.23819,-1.3613 -0.57769,-2.70648 -0.45183,-4.10279 0,-1.42858 0,-2.85715 0,-4.28573 0,-1.42861 0,-2.85721 0,-4.28581 0,-1.42841 0,-2.85682 0,-4.28522 0,-1.42581 0,-2.85161 0,-4.27742 0,-1.42789 0,-2.85578 0,-4.28367 0,-1.60287 0,-3.20574 0,-4.80861 0,-2.17763 0,-4.35525 0,-6.53287 0,0 2.85714,0 2.85714,0 z"
       inkscape:connector-curvature="0" />
    <path
       style="opacity:1;fill:#008000;fill-opacity:1;stroke:none;stroke-width:1.5;stroke-miterlimit:4;stroke-dasharray:none;stroke-dashoffset:0;stroke-opacity:1"
       id="path4253"
       d="m 307.86288,745.96562 c -1.45324,-1.30177 -2.82558,-2.69082 -4.26714,-4.00429 -0.74081,-0.77003 -1.56766,-1.5251 -2.54272,-1.98669 -0.85806,-0.47255 -1.66367,-1.01731 -2.40858,-1.65238 0,0 1.88807,-2.1444 1.88807,-2.1444 l 0,0 c 0.54062,0.50869 1.18768,0.86697 1.81763,1.25104 1.18063,0.62401 2.26674,1.44097 3.17412,2.42432 1.40445,1.2892 2.75505,2.63661 4.16772,3.91748 0,0 -1.8291,2.19492 -1.8291,2.19492 z"
       inkscape:connector-curvature="0" />
    <path
       style="opacity:1;fill:#008000;fill-opacity:1;stroke:none;stroke-width:1.5;stroke-miterlimit:4;stroke-dasharray:none;stroke-dashoffset:0;stroke-opacity:1"
       id="path4255"
       d="m 307.45959,743.7707 c 1.41267,-1.28087 2.76326,-2.62828 4.16772,-3.91748 0.85506,-0.83039 1.67359,-1.69851 2.5444,-2.51214 0.4622,-0.48928 0.93611,-0.96899 1.42788,-1.42913 0,0 1.9353,2.10187 1.9353,2.10187 l 0,0 c -0.50117,0.44952 -0.95434,0.94949 -1.42697,1.4283 -0.88681,0.8 -1.6821,1.70036 -2.55209,2.51921 -1.44156,1.31347 -2.81391,2.70252 -4.26714,4.00429 0,0 -1.8291,-2.19492 -1.8291,-2.19492 z"
       inkscape:connector-curvature="0" />
  </g>
</svg>
