<?xml version="1.0" encoding="UTF-8" standalone="no"?>
<!-- Created with Inkscape (http://www.inkscape.org/) -->

<svg
   xmlns:dc="http://purl.org/dc/elements/1.1/"
   xmlns:cc="http://creativecommons.org/ns#"
   xmlns:rdf="http://www.w3.org/1999/02/22-rdf-syntax-ns#"
   xmlns:svg="http://www.w3.org/2000/svg"
   xmlns="http://www.w3.org/2000/svg"
   xmlns:sodipodi="http://sodipodi.sourceforge.net/DTD/sodipodi-0.dtd"
   xmlns:inkscape="http://www.inkscape.org/namespaces/inkscape"
   width="524"
   height="118.62547"
   viewBox="0 0 524.00001 118.62547"
   id="svg2"
   version="1.1"
   inkscape:version="0.91 r13725"
   sodipodi:docname="how-check.svg">
  <defs
     id="defs4">
    <marker
       inkscape:stockid="Arrow1Mend"
       orient="auto"
       refY="0"
       refX="0"
       id="marker5729"
       style="overflow:visible"
       inkscape:isstock="true">
      <path
         id="path5731"
         d="M 0,0 5,-5 -12.5,0 5,5 0,0 Z"
         style="fill:#000000;fill-opacity:1;fill-rule:evenodd;stroke:#000000;stroke-width:1pt;stroke-opacity:1"
         transform="matrix(-0.4,0,0,-0.4,-4,0)"
         inkscape:connector-curvature="0" />
    </marker>
  </defs>
  <sodipodi:namedview
     id="base"
     pagecolor="#ffffff"
     bordercolor="#666666"
     borderopacity="1.0"
     inkscape:pageopacity="0.0"
     inkscape:pageshadow="2"
     inkscape:zoom="2"
     inkscape:cx="293.33859"
     inkscape:cy="186.88521"
     inkscape:document-units="px"
     inkscape:current-layer="layer1"
     showgrid="false"
     units="px"
     inkscape:window-width="1918"
     inkscape:window-height="1078"
     inkscape:window-x="0"
     inkscape:window-y="0"
     inkscape:window-maximized="0"
     fit-margin-top="0"
     fit-margin-left="0"
     fit-margin-right="0"
     fit-margin-bottom="0" />
  <metadata
     id="metadata7">
    <rdf:RDF>
      <cc:Work
         rdf:about="">
        <dc:format>image/svg+xml</dc:format>
        <dc:type
           rdf:resource="http://purl.org/dc/dcmitype/StillImage" />
        <dc:title></dc:title>
      </cc:Work>
    </rdf:RDF>
  </metadata>
  <g
     inkscape:label="Layer 1"
     inkscape:groupmode="layer"
     id="layer1"
     transform="translate(-109.06789,-764.27681)">
    <rect
       style="opacity:1;fill:#ececec;fill-opacity:1;stroke:#b3b3b3;stroke-width:2;stroke-miterlimit:4;stroke-dasharray:none;stroke-dashoffset:0;stroke-opacity:1"
       id="rect4137-0"
       width="388.38165"
       height="38.055481"
       x="110.06789"
       y="843.8468" />
    <text
       xml:space="preserve"
       style="font-style:normal;font-weight:normal;font-size:30.62776375px;line-height:125%;font-family:sans-serif;letter-spacing:0px;word-spacing:0px;writing-mode:lr-tb;fill:#aa0000;fill-opacity:1;stroke:none;stroke-width:1px;stroke-linecap:butt;stroke-linejoin:miter;stroke-opacity:1"
       x="269.66388"
       y="870.35681"
       id="text4169-3"
       sodipodi:linespacing="125%"><tspan
         sodipodi:role="line"
         id="tspan4171-8"
         x="269.66388"
         y="870.35681"
         style="font-style:normal;font-variant:normal;font-weight:normal;font-stretch:normal;font-size:20.01145554px;font-family:'Ubuntu Mono';-inkscape-font-specification:'Ubuntu Mono';text-align:center;text-anchor:middle;fill:#333333">data</tspan></text>
    <path
       style="fill:none;fill-rule:evenodd;stroke:#000000;stroke-width:2;stroke-linecap:butt;stroke-linejoin:miter;stroke-miterlimit:4;stroke-dasharray:none;stroke-opacity:1;marker-end:url(#marker5729)"
       d="m 271.37458,837.4017 0,-72.12489 193.45689,0 0,67.54772"
       id="path5447"
       inkscape:connector-curvature="0"
       sodipodi:nodetypes="cccc" />
    <rect
       style="opacity:1;fill:#c6e9af;fill-opacity:1;stroke:none;stroke-width:2;stroke-miterlimit:4;stroke-dasharray:none;stroke-dashoffset:0;stroke-opacity:1"
       id="rect4137-0-4-5"
       width="69.048859"
       height="35.960094"
       x="428.15958"
       y="844.86328" />
    <text
       xml:space="preserve"
       style="font-style:normal;font-weight:normal;font-size:30.62776375px;line-height:125%;font-family:sans-serif;letter-spacing:0px;word-spacing:0px;writing-mode:lr-tb;fill:#aa0000;fill-opacity:1;stroke:none;stroke-width:1px;stroke-linecap:butt;stroke-linejoin:miter;stroke-opacity:1"
       x="462.58652"
       y="867.95831"
       id="text4169-3-3"
       sodipodi:linespacing="125%"><tspan
         sodipodi:role="line"
         id="tspan4171-8-6"
         x="462.58652"
         y="867.95831"
         style="font-style:normal;font-variant:normal;font-weight:normal;font-stretch:normal;font-size:15px;font-family:'Ubuntu Mono';-inkscape-font-specification:'Ubuntu Mono';text-align:center;text-anchor:middle;fill:#165016">checksum</tspan></text>
    <line
       id="line5998"
       y2="827.05249"
       x2="281.82986"
       y1="831.04834"
       x1="285.82541"
       style="opacity:1;stroke:#000000;stroke-width:1.08973444" />
    <line
       id="line6000"
       y2="827.05249"
       x2="260.76166"
       y1="831.04834"
       x1="256.76593"
       style="opacity:1;stroke:#000000;stroke-width:1.08973444" />
    <rect
       transform="scale(-1,-1)"
       id="rect6002"
       height="21.794691"
       width="21.794691"
       y="-827.41577"
       x="-282.19299"
       style="opacity:1" />
    <text
       id="text6004"
       font-weight="bold"
       font-size="14"
       y="817.50708"
       x="271.28354"
       style="font-weight:bold;font-size:5.08542824px;font-family:Courier;text-anchor:middle;opacity:1;fill:#ffffff">SHA256</text>
    <line
       id="line6006"
       y2="801.98871"
       x2="272.74869"
       y1="805.62103"
       x1="272.74869"
       style="opacity:1;stroke:#000000;stroke-width:1.08973444" />
    <line
       id="line6008"
       y2="801.98871"
       x2="269.84274"
       y1="805.62103"
       x1="269.84274"
       style="opacity:1;stroke:#000000;stroke-width:1.08973444" />
    <line
       id="line5998-9"
       y2="798.47998"
       x2="281.82986"
       y1="802.47595"
       x1="285.82541"
       style="opacity:1;stroke:#000000;stroke-width:1.08973444" />
    <line
       id="line6000-2"
       y2="798.47998"
       x2="260.76166"
       y1="802.47595"
       x1="256.76593"
       style="opacity:1;stroke:#000000;stroke-width:1.08973444" />
    <rect
       transform="scale(-1,-1)"
       id="rect6002-8"
       height="21.794691"
       width="21.794691"
       y="-798.84332"
       x="-282.19299"
       style="opacity:1" />
    <text
       id="text6004-8"
       font-weight="bold"
       font-size="14"
       y="788.93469"
       x="271.28354"
       style="font-weight:bold;font-size:5.08542824px;font-family:Courier;text-anchor:middle;opacity:1;fill:#ffffff">SHA256</text>
    <line
       id="line6006-8"
       y2="773.4162"
       x2="272.74869"
       y1="777.04865"
       x1="272.74869"
       style="opacity:1;stroke:#000000;stroke-width:1.08973444" />
    <line
       id="line6008-6"
       y2="773.4162"
       x2="269.84274"
       y1="777.04865"
       x1="269.84274"
       style="opacity:1;stroke:#000000;stroke-width:1.08973444" />
    <text
       xml:space="preserve"
       style="font-style:normal;font-weight:normal;font-size:17.5px;line-height:125%;font-family:sans-serif;letter-spacing:0px;word-spacing:0px;writing-mode:lr-tb;fill:#008000;fill-opacity:1;stroke:none;stroke-width:1px;stroke-linecap:butt;stroke-linejoin:miter;stroke-opacity:1"
       x="512.20453"
       y="833.66864"
       id="text9983"
       sodipodi:linespacing="125%"><tspan
         sodipodi:role="line"
         id="tspan9985"
         x="512.20453"
         y="833.66864"
         style="font-style:normal;font-variant:normal;font-weight:normal;font-stretch:normal;font-size:13.75px;font-family:'Ubuntu Condensed';-inkscape-font-specification:'Ubuntu Condensed, ';fill:#008000">data matches checksum</tspan></text>
    <path
       style="opacity:1;fill:#008000;fill-opacity:1;stroke:none;stroke-width:1.20000005;stroke-miterlimit:4;stroke-dasharray:none;stroke-dashoffset:0;stroke-opacity:1"
       id="path9991"
       d="m 487.11612,826.32856 c 0.16405,1.40339 0.52505,2.77269 0.74054,4.16944 0.15369,0.84175 0.24626,1.75916 0.55936,2.56167 0.14876,-0.3656 -0.56158,-0.32807 -0.78588,-0.27059 0.40942,-0.40189 0.71199,-0.92975 1.0254,-1.41446 0.40765,-0.73804 0.82479,-1.4779 1.28786,-2.18351 0.41264,-0.64774 0.74677,-1.33941 1.12252,-2.00787 0.31424,-0.69205 0.71453,-1.34015 1.06612,-2.0137 0.49176,-0.78013 0.99965,-1.54736 1.50571,-2.31761 0.47745,-0.68968 1.08709,-1.26551 1.63287,-1.89592 0.6514,-0.65909 1.4184,-1.18671 2.16827,-1.72617 0.94818,-0.61263 1.93164,-1.16734 2.97226,-1.60557 0.78474,-0.36902 1.55636,-0.76798 2.35589,-1.10418 0.21867,-0.14283 0.46377,-0.22736 0.66323,-0.39813 0,0 1.73342,2.44851 1.73342,2.44851 l 0,0 c -0.40566,0.27216 -0.81073,0.52026 -1.25631,0.72444 -0.80384,0.31688 -1.55996,0.75237 -2.35024,1.10185 -0.83329,0.33448 -1.60125,0.8025 -2.36639,1.26844 -0.57247,0.41177 -1.15493,0.81189 -1.67842,1.28448 -0.46389,0.51382 -0.95349,1.00133 -1.37111,1.55532 -0.45555,0.68719 -0.90039,1.37964 -1.3569,2.06648 -0.3764,0.70585 -0.78721,1.39001 -1.12294,2.11627 -0.4381,0.70675 -0.75113,1.49337 -1.2295,2.17891 -0.47881,0.67618 -0.83983,1.43955 -1.26529,2.14949 -0.51775,0.78592 -1.01233,1.62148 -1.77258,2.19961 -0.256,0.13817 -0.49109,0.32538 -0.76801,0.41452 -1.33163,0.42864 -2.52787,-0.46667 -3.0571,-1.62515 -0.30841,-0.99234 -0.53536,-2.0241 -0.6776,-3.05255 -0.21675,-1.42437 -0.59617,-2.81884 -0.75202,-4.25191 0,0 2.97684,-0.3721 2.97684,-0.3721 z"
       inkscape:connector-curvature="0" />
  </g>
</svg>
