<?xml version="1.0" encoding="UTF-8" standalone="no"?>
<!-- Created with Inkscape (http://www.inkscape.org/) -->

<svg
   xmlns:dc="http://purl.org/dc/elements/1.1/"
   xmlns:cc="http://creativecommons.org/ns#"
   xmlns:rdf="http://www.w3.org/1999/02/22-rdf-syntax-ns#"
   xmlns:svg="http://www.w3.org/2000/svg"
   xmlns="http://www.w3.org/2000/svg"
   xmlns:sodipodi="http://sodipodi.sourceforge.net/DTD/sodipodi-0.dtd"
   xmlns:inkscape="http://www.inkscape.org/namespaces/inkscape"
   width="323.34512"
   height="196.95636"
   viewBox="0 0 323.34513 196.95636"
   id="svg2"
   version="1.1"
   inkscape:version="0.91 r13725"
   sodipodi:docname="leading-zeros.svg">
  <defs
     id="defs4">
    <marker
       inkscape:stockid="Arrow1Send"
       orient="auto"
       refY="0"
       refX="0"
       id="Arrow1Send"
       style="overflow:visible"
       inkscape:isstock="true">
      <path
         id="path4160"
         d="M 0,0 5,-5 -12.5,0 5,5 0,0 Z"
         style="fill-rule:evenodd;stroke:#000000;stroke-width:1pt"
         transform="matrix(-0.2,0,0,-0.2,-1.2,0)"
         inkscape:connector-curvature="0" />
    </marker>
    <marker
       inkscape:stockid="Arrow2Mend"
       orient="auto"
       refY="0"
       refX="0"
       id="marker4421"
       style="overflow:visible"
       inkscape:isstock="true">
      <path
         id="path4423"
         style="fill:#008000;fill-opacity:1;fill-rule:evenodd;stroke:#008000;stroke-width:0.625;stroke-linejoin:round;stroke-opacity:1"
         d="M 8.7185878,4.0337352 -2.2072895,0.01601326 8.7185884,-4.0017078 c -1.7454984,2.3720609 -1.7354408,5.6174519 -6e-7,8.035443 z"
         transform="scale(-0.6,-0.6)"
         inkscape:connector-curvature="0" />
    </marker>
    <marker
       inkscape:stockid="Arrow2Mend"
       orient="auto"
       refY="0"
       refX="0"
       id="Arrow2Mend"
       style="overflow:visible"
       inkscape:isstock="true">
      <path
         id="path4172"
         style="fill:#666666;fill-opacity:1;fill-rule:evenodd;stroke:#666666;stroke-width:0.625;stroke-linejoin:round;stroke-opacity:1"
         d="M 8.7185878,4.0337352 -2.2072895,0.01601326 8.7185884,-4.0017078 c -1.7454984,2.3720609 -1.7354408,5.6174519 -6e-7,8.035443 z"
         transform="scale(-0.6,-0.6)"
         inkscape:connector-curvature="0" />
    </marker>
  </defs>
  <sodipodi:namedview
     id="base"
     pagecolor="#ffffff"
     bordercolor="#666666"
     borderopacity="1.0"
     inkscape:pageopacity="0.0"
     inkscape:pageshadow="2"
     inkscape:zoom="1.4"
     inkscape:cx="122.1443"
     inkscape:cy="163.02952"
     inkscape:document-units="px"
     inkscape:current-layer="layer1"
     showgrid="false"
     units="px"
     inkscape:window-width="1920"
     inkscape:window-height="1052"
     inkscape:window-x="0"
     inkscape:window-y="28"
     inkscape:window-maximized="0"
     fit-margin-top="0"
     fit-margin-left="0"
     fit-margin-right="0"
     fit-margin-bottom="0" />
  <metadata
     id="metadata7">
    <rdf:RDF>
      <cc:Work
         rdf:about="">
        <dc:format>image/svg+xml</dc:format>
        <dc:type
           rdf:resource="http://purl.org/dc/dcmitype/StillImage" />
        <dc:title></dc:title>
      </cc:Work>
    </rdf:RDF>
  </metadata>
  <g
     inkscape:label="Layer 1"
     inkscape:groupmode="layer"
     id="layer1"
     transform="translate(-27.468299,-697.25208)">
    <text
       xml:space="preserve"
       style="font-style:normal;font-weight:normal;font-size:25.51075172px;line-height:125%;font-family:sans-serif;letter-spacing:0px;word-spacing:0px;writing-mode:lr-tb;fill:#000000;fill-opacity:1;stroke:none;stroke-width:1px;stroke-linecap:butt;stroke-linejoin:miter;stroke-opacity:1"
       x="25.95952"
       y="780.40192"
       id="text4133"
       sodipodi:linespacing="125%"><tspan
         sodipodi:role="line"
         id="tspan4135"
         x="25.95952"
         y="780.40192"
         style="font-style:normal;font-variant:normal;font-weight:normal;font-stretch:normal;font-size:32.79953766px;font-family:'Ubuntu Mono';-inkscape-font-specification:'Ubuntu Mono';letter-spacing:2.91551447px;fill:#1a1a1a"><tspan
   style="fill:#008000"
   id="tspan6339">00</tspan>123456789abcdef</tspan></text>
    <path
       style="fill:none;fill-rule:evenodd;stroke:#008000;stroke-width:1.45775723px;stroke-linecap:butt;stroke-linejoin:miter;stroke-opacity:1;marker-end:url(#marker4421)"
       d="m 45.38929,787.56427 7.288786,71.32598"
       id="path4139"
       inkscape:connector-curvature="0"
       sodipodi:nodetypes="cc" />
    <text
       xml:space="preserve"
       style="font-style:normal;font-weight:normal;font-size:25.51075172px;line-height:125%;font-family:sans-serif;letter-spacing:0px;word-spacing:0px;writing-mode:lr-tb;fill:#000000;fill-opacity:1;stroke:none;stroke-width:1px;stroke-linecap:butt;stroke-linejoin:miter;stroke-opacity:1"
       x="46.368126"
       y="888.79651"
       id="text4133-7"
       sodipodi:linespacing="125%"><tspan
         sodipodi:role="line"
         id="tspan4135-5"
         x="46.368126"
         y="888.79651"
         style="font-style:normal;font-variant:normal;font-weight:normal;font-stretch:normal;font-size:32.79953766px;font-family:'Ubuntu Mono';-inkscape-font-specification:'Ubuntu Mono';letter-spacing:2.91551447px"><tspan
   style="fill:#008000"
   id="tspan4731">1</tspan>C3CPq7c8PY</tspan></text>
    <path
       style="fill:#e6e6e6;fill-rule:evenodd;stroke:#e6e6e6;stroke-width:2.26327062px;stroke-linecap:butt;stroke-linejoin:miter;stroke-opacity:1"
       d="m 68.402265,789.49516 272.371405,0.1486 -82.10417,70.20137 -189.908651,0.43633 z"
       id="path4885-5"
       inkscape:connector-curvature="0"
       sodipodi:nodetypes="ccccc" />
    <text
       xml:space="preserve"
       style="font-style:normal;font-weight:normal;font-size:25.51075172px;line-height:125%;font-family:sans-serif;letter-spacing:0px;word-spacing:0px;writing-mode:lr-tb;fill:#666666;fill-opacity:1;stroke:none;stroke-width:1px;stroke-linecap:butt;stroke-linejoin:miter;stroke-opacity:1"
       x="146.07866"
       y="827.82971"
       id="text4917"
       sodipodi:linespacing="125%"><tspan
         sodipodi:role="line"
         id="tspan4919"
         x="146.07866"
         y="827.82971"
         style="font-style:italic;font-variant:normal;font-weight:normal;font-stretch:normal;font-size:18.22196579px;font-family:'Courier 10 Pitch';-inkscape-font-specification:'Courier 10 Pitch Italic';fill:#666666">base58</tspan></text>
    <path
       style="opacity:1;fill:#999999;fill-opacity:1;stroke:none;stroke-width:2;stroke-miterlimit:4;stroke-dasharray:none;stroke-dashoffset:0;stroke-opacity:1"
       id="path6361"
       d="m 52.821152,720.14305 c -0.765044,1.08188 -1.451735,2.21091 -2.105177,3.36249 -0.943071,1.67087 -1.69252,3.44664 -2.350992,5.24641 -0.70105,2.00898 -1.082214,4.11084 -1.517497,6.18871 -0.320425,1.77156 -0.624034,3.54883 -0.828689,5.33807 -0.07005,0.93847 -0.13301,1.87286 -0.266026,2.80477 -0.05009,0.33657 -0.09881,0.67395 -0.118655,1.01385 0.01054,0.33702 -0.150085,0.64082 -0.211977,0.96414 -0.03147,0.14046 -0.03945,0.2838 -0.04512,0.42713 -4e-4,0.0183 -8.45e-4,0.0366 -0.0013,0.0549 0,0 -2.019219,0.0662 -2.019219,0.0662 l 0,0 c -0.0017,-0.0684 -7.92e-4,-0.13683 0.0019,-0.20521 0.01119,-0.26009 0.03345,-0.51993 0.09001,-0.77464 0.06174,-0.26949 0.165684,-0.51687 0.168999,-0.65418 0.02436,-0.39468 0.07555,-0.78696 0.135271,-1.17775 0.130481,-0.91356 0.185461,-1.82975 0.258917,-2.74954 0.213046,-1.85078 0.524203,-3.68975 0.858437,-5.52196 0.455309,-2.17347 0.857981,-4.37082 1.598125,-6.47015 0.699509,-1.90289 1.49092,-3.78137 2.490736,-5.54802 0.712746,-1.25538 1.46156,-2.4891 2.310147,-3.65858 0,0 1.552041,1.29337 1.552041,1.29337 z"
       inkscape:connector-curvature="0" />
    <path
       style="opacity:1;fill:#999999;fill-opacity:1;stroke:none;stroke-width:2;stroke-miterlimit:4;stroke-dasharray:none;stroke-dashoffset:0;stroke-opacity:1"
       id="path6363"
       d="m 40.609672,737.74707 c 0.221612,1.20609 0.576284,2.37452 0.983972,3.52865 0.514435,1.49538 1.127767,2.95301 1.761874,4.40081 0.40973,0.91965 0.85049,1.82596 1.340068,2.70588 -0.08544,-0.18822 -0.16622,-0.19667 -0.524324,-0.27774 -0.06555,-0.0148 -0.156965,0.0591 -0.201425,0.009 -0.03519,-0.0399 0.0625,-0.0863 0.0979,-0.12602 0.104095,-0.11673 0.213513,-0.2286 0.320269,-0.3429 1.30039,-1.59234 2.589949,-3.19372 3.922172,-4.76076 1.365449,-1.61057 2.808734,-3.14885 4.334255,-4.60788 0.403818,-0.41185 0.850247,-0.7683 1.346489,-1.05936 0,0 0.982688,1.76521 0.982688,1.76521 l 0,0 c -0.363639,0.16693 -0.635022,0.50115 -0.933003,0.7544 -1.475757,1.41056 -2.870674,2.89884 -4.19129,4.45632 -1.35444,1.59271 -2.659959,3.22476 -3.989999,4.83658 -0.943241,0.99642 -1.8463,1.76473 -2.929532,0.3351 -0.519911,-0.93597 -0.989885,-1.89897 -1.424934,-2.87715 -0.653727,-1.4933 -1.285498,-2.99697 -1.816448,-4.53908 -0.427691,-1.21397 -0.805056,-2.44261 -1.03872,-3.71074 0,0 1.959984,-0.49 1.959984,-0.49 z"
       inkscape:connector-curvature="0" />
    <path
       style="opacity:1;fill:#999999;fill-opacity:1;stroke:none;stroke-width:2;stroke-miterlimit:4;stroke-dasharray:none;stroke-dashoffset:0;stroke-opacity:1"
       id="path6365"
       d="m 55.755734,701.79777 c 0.165033,1.5387 0.166635,3.08415 0.127868,4.62884 -0.03268,2.09592 -0.248549,4.18179 -0.435279,6.26777 -0.119186,1.07834 -0.261769,2.15425 -0.43369,3.22548 0.06758,-0.23808 0.0906,-0.27213 -0.19103,-0.64742 -0.102118,-0.13608 -0.291174,-0.17633 -0.43238,-0.27123 -0.01245,-0.008 -0.0393,-0.0301 -0.02589,-0.0368 0.08209,-0.0412 0.176821,-0.0504 0.26299,-0.0821 0.12562,-0.0463 0.247882,-0.10126 0.371823,-0.15189 1.646443,-0.76477 3.278122,-1.55923 4.943494,-2.28271 1.803556,-0.7493 3.64125,-1.43397 5.575995,-1.73932 0,0 0.305202,1.99712 0.305202,1.99712 l 0,0 c -1.765376,0.25837 -3.430012,0.93318 -5.076707,1.59542 -1.685964,0.73132 -3.334092,1.54253 -5.004407,2.30798 -0.699847,0.27103 -1.664855,0.71516 -2.346827,0.094 -0.441783,-0.4024 -0.383937,-0.66112 -0.377001,-1.10336 0.164687,-1.02468 0.300729,-2.05391 0.416175,-3.08527 0.182906,-2.04302 0.395856,-4.08587 0.427876,-6.13865 0.03697,-1.45321 0.03828,-2.90692 -0.116155,-4.35471 0,0 2.007948,-0.2231 2.007948,-0.2231 z"
       inkscape:connector-curvature="0" />
    <path
       style="opacity:1;fill:#999999;fill-opacity:1;stroke:none;stroke-width:2;stroke-miterlimit:4;stroke-dasharray:none;stroke-dashoffset:0;stroke-opacity:1"
       id="path6367"
       d="m 68.954963,711.38884 c 0.856093,0.23883 1.376589,-0.0305 2.038999,-0.55475 0.735349,-0.69787 1.102175,-1.61111 1.061111,-2.61543 -0.0287,-0.0887 -0.04,-0.18496 -0.0861,-0.26593 -0.17732,-0.31146 -0.754451,-0.1998 -1.012179,-0.15604 -1.068721,0.20368 -1.817909,0.96413 -2.445803,1.80033 -0.642414,1.06811 -0.915506,1.90026 -0.84112,3.14145 0.181133,1.13642 0.954712,1.8886 1.861374,2.51563 1.458923,0.88399 2.346557,1.0061 3.982514,0.63187 0,0 0.422642,1.9756 0.422642,1.9756 l 0,0 c -0.330206,0.0671 -0.656374,0.15873 -0.99062,0.20147 -1.64822,0.21072 -3.211202,-0.27514 -4.58975,-1.16562 -0.247737,-0.18128 -0.508466,-0.34602 -0.743212,-0.54384 -1.078039,-0.90844 -1.781544,-2.12659 -1.961312,-3.52657 -0.0085,-0.25627 -0.03391,-0.51253 -0.02551,-0.7688 0.04392,-1.34057 0.576647,-2.57435 1.283987,-3.69342 1.056194,-1.34855 2.145694,-2.30161 3.894776,-2.58268 0.266276,-0.0103 0.533219,-0.0523 0.798828,-0.0308 1.064421,0.086 1.97051,0.73514 2.334066,1.74765 0.0809,0.2253 0.09178,0.46988 0.137673,0.70482 -0.0026,0.23567 0.01437,0.47235 -0.0077,0.70699 -0.130517,1.38905 -0.843043,2.62349 -1.868688,3.54497 -0.218276,0.15628 -0.424091,0.33163 -0.654829,0.46885 -1.020538,0.60693 -2.175915,0.70674 -3.298544,0.35596 0,0 0.709376,-1.89167 0.709376,-1.89167 z"
       inkscape:connector-curvature="0" />
    <path
       style="opacity:1;fill:#999999;fill-opacity:1;stroke:none;stroke-width:2;stroke-miterlimit:4;stroke-dasharray:none;stroke-dashoffset:0;stroke-opacity:1"
       id="path6369"
       d="m 82.845505,708.22747 c -0.976844,0.13713 -1.898023,0.5039 -2.802618,0.88101 -0.970657,0.44841 -1.776803,1.16659 -2.445572,1.98998 -0.606405,0.93239 -0.897112,1.73682 -0.826356,2.84777 0.156703,0.90664 0.876645,1.30233 1.65308,1.64011 1.089589,0.27572 1.744995,0.20684 2.624084,-0.5049 1.022545,-1.10955 1.399732,-2.57866 1.686692,-4.01869 0.203049,-1.10237 0.235368,-2.22831 -0.08012,-3.30862 -0.194864,-0.45696 0.02065,0.28198 0.777577,0.36237 0.595441,0.0633 0.787459,-0.71921 0.696819,-0.0685 -0.123427,0.99907 -0.09519,2.00149 0.02395,2.99848 0.154132,0.75901 0.277328,1.65729 0.921989,2.16968 0.513329,0.25107 1.085719,-0.0439 1.544844,-0.28824 0,0 0.899561,1.80899 0.899561,1.80899 l 0,0 c -1.372763,0.65596 -2.528852,0.89266 -3.844323,-0.0641 -0.145952,-0.14985 -0.306114,-0.28707 -0.437856,-0.44956 -0.674167,-0.83148 -0.909131,-1.91792 -1.091048,-2.94385 -0.133965,-1.18268 -0.169986,-2.37243 -0.0112,-3.55584 0.04262,-0.24281 0.12069,-0.85419 0.289631,-1.03622 0.235183,-0.2534 0.511114,-0.56315 0.856113,-0.58547 0.870158,-0.0563 1.105565,0.51679 1.317836,1.10186 0.386684,1.39561 0.389439,2.83776 0.116371,4.25984 -0.397444,1.93751 -0.978618,3.85943 -2.473752,5.24824 -0.246114,0.17061 -0.476469,0.36657 -0.738343,0.51184 -1.216682,0.67493 -2.631765,0.62796 -3.915265,0.20169 -1.598168,-0.74798 -2.557292,-1.56379 -2.835178,-3.39472 -0.0069,-0.2419 -0.03088,-0.48393 -0.02061,-0.72571 0.05446,-1.28195 0.597273,-2.45145 1.310026,-3.4957 0.894859,-1.06407 1.940041,-1.99777 3.225179,-2.56614 1.081745,-0.449 2.186079,-0.87276 3.355387,-1.02357 0,0 0.223105,2.00795 0.223105,2.00795 z"
       inkscape:connector-curvature="0" />
    <path
       style="opacity:1;fill:#999999;fill-opacity:1;stroke:none;stroke-width:2;stroke-miterlimit:4;stroke-dasharray:none;stroke-dashoffset:0;stroke-opacity:1"
       id="path6371"
       d="m 93.6233,707.9509 c -0.734398,-0.003 -1.466802,-0.056 -2.173076,0.17433 -0.72772,0.33791 -1.240171,0.93697 -1.725751,1.55399 -0.567716,0.89116 -0.907067,1.89709 -1.00886,2.9455 0.03044,0.76014 0.515788,1.26802 1.142462,1.63393 0.772322,0.35551 1.372702,0.47837 2.15421,0.10872 0.924496,-0.71365 1.19533,-1.90769 1.489254,-2.97729 0.470721,-1.9853 0.535564,-4.03326 0.595093,-6.06361 0.02529,-1.75538 -0.0091,-3.52079 -0.178928,-5.26935 -0.08133,-0.56884 -0.129254,-1.14718 -0.253327,-1.70939 0.656853,0.0183 1.316284,-0.006 1.970559,0.055 0.04264,0.004 -7.69e-4,0.0857 -0.0013,0.12848 -0.0014,0.1123 -0.0035,0.2246 -0.0044,0.33691 -0.0053,0.65267 -0.0414,1.30183 -0.0754,1.95371 -0.123234,2.45105 -0.165291,4.90384 -0.05698,7.35569 0.109609,2.13717 0.44483,3.96272 1.520434,5.82344 0.422687,0.5182 1.072637,1.41388 1.857107,1.1795 0,0 0.1428,2.01525 0.1428,2.01525 l 0,0 c -0.24991,0.004 -0.50139,0.0406 -0.74975,0.0124 -1.314092,-0.14898 -2.284305,-1.20432 -3.007555,-2.2106 -0.156171,-0.27952 -0.328333,-0.55069 -0.468514,-0.83856 -0.892947,-1.83374 -1.193074,-3.87767 -1.312897,-5.89319 -0.109016,-2.51641 -0.07028,-5.03368 0.05779,-7.54922 0.03967,-0.76028 0.05225,-1.51748 0.07917,-2.27754 0.0038,-0.10673 -0.08435,-0.29362 0.01918,-0.31982 0.651102,-0.1648 1.337113,-0.12847 2.00567,-0.1927 0.133812,0.6395 0.205632,1.29135 0.288581,1.93865 0.172204,1.83279 0.218849,3.68101 0.187188,5.52077 -0.06491,2.19268 -0.144409,4.4033 -0.667748,6.54421 -0.488034,1.74473 -1.008703,3.36324 -2.679416,4.31047 -0.224293,0.0838 -0.441493,0.18976 -0.672878,0.25126 -1.145604,0.30451 -2.313306,-0.004 -3.33566,-0.53719 -0.201558,-0.1371 -0.415306,-0.25781 -0.604676,-0.41131 -0.965017,-0.78224 -1.468601,-1.90909 -1.447953,-3.14237 0.172293,-1.42405 0.610121,-2.78939 1.434792,-3.97842 0.751028,-0.93854 1.578108,-1.80119 2.73018,-2.23339 0.903769,-0.25622 1.81435,-0.29764 2.750598,-0.25862 0,0 0,2.0203 0,2.0203 z"
       inkscape:connector-curvature="0" />
    <path
       style="opacity:1;fill:#999999;fill-opacity:1;stroke:none;stroke-width:2;stroke-miterlimit:4;stroke-dasharray:none;stroke-dashoffset:0;stroke-opacity:1"
       id="path6373"
       d="m 104.38099,707.93249 c -0.35948,1.22233 -0.49537,2.49152 -0.53482,3.76034 -0.002,1.32098 0.009,2.65862 0.25372,3.96121 0,0 -1.98808,0.35943 -1.98808,0.35943 l 0,0 c -0.2539,-1.44718 -0.30403,-2.92226 -0.28478,-4.38925 0.0514,-1.41041 0.19576,-2.82181 0.59398,-4.18173 0,0 1.95998,0.49 1.95998,0.49 z"
       inkscape:connector-curvature="0" />
    <path
       style="opacity:1;fill:#999999;fill-opacity:1;stroke:none;stroke-width:2;stroke-miterlimit:4;stroke-dasharray:none;stroke-dashoffset:0;stroke-opacity:1"
       id="path6375"
       d="m 104.94026,697.47519 c -0.18407,1.24327 -0.47269,2.46757 -0.71012,3.70111 -0.0292,0.16904 -0.0583,0.33809 -0.0875,0.50713 0,0 -1.99079,-0.34413 -1.99079,-0.34413 l 0,0 c 0.0315,-0.18172 0.0629,-0.36344 0.0944,-0.54517 0.22767,-1.18088 0.50088,-2.35332 0.686,-3.54205 0,0 2.00795,0.22311 2.00795,0.22311 z"
       inkscape:connector-curvature="0" />
    <path
       style="opacity:1;fill:#999999;fill-opacity:1;stroke:none;stroke-width:2;stroke-miterlimit:4;stroke-dasharray:none;stroke-dashoffset:0;stroke-opacity:1"
       id="path6377"
       d="m 104.95261,716.37688 c -0.11982,-1.55586 0.10373,-3.07883 0.47739,-4.58388 0.42563,-1.38994 0.98459,-2.74019 1.98626,-3.81061 1.24034,-0.94305 2.15633,-0.75259 3.42114,-0.0124 1.33274,0.91067 1.90408,2.22297 2.32211,3.72508 0.33147,1.33127 0.32078,2.69783 0.28481,4.05802 0,0 -2.01957,-0.0543 -2.01957,-0.0543 l 0,0 c 0.0318,-1.16408 0.0578,-2.33424 -0.21549,-3.47635 -0.25103,-0.96632 -0.59202,-1.9296 -1.43594,-2.5351 -0.24377,-0.17109 -0.60659,-0.45227 -0.90713,-0.29811 -0.79619,0.76174 -1.10771,1.88983 -1.4763,2.89407 -0.32097,1.27163 -0.51827,2.55322 -0.42933,3.87043 0,0 -2.00795,0.2231 -2.00795,0.2231 z"
       inkscape:connector-curvature="0" />
    <path
       style="opacity:1;fill:#999999;fill-opacity:1;stroke:none;stroke-width:2;stroke-miterlimit:4;stroke-dasharray:none;stroke-dashoffset:0;stroke-opacity:1"
       id="path6379"
       d="m 121.14996,709.46613 c -0.74141,0.003 -1.5128,0.0242 -2.19184,0.3486 -0.78879,0.42367 -1.20329,1.22292 -1.59138,1.99133 -0.38773,0.98458 -0.741,1.89221 -0.46707,2.94867 0.26588,0.57656 0.87743,0.69565 1.44984,0.77867 0.92977,-0.033 1.39174,-0.42684 1.92455,-1.1401 0.68622,-1.04138 0.93739,-2.27151 1.08267,-3.4905 0.0421,-0.41488 0.0625,-0.83162 0.0677,-1.2485 0.001,-0.0813 -0.0292,-0.32387 -0.0176,-0.24337 0.008,0.0587 0.028,0.11527 0.042,0.1729 0.23265,0.18011 0.40383,0.53259 0.69795,0.54033 0.38405,0.0101 0.71231,-0.29575 1.04105,-0.49457 0.0571,-0.0345 0.0242,-0.21983 0.0801,-0.18348 2.5e-4,1.6e-4 0.049,0.93681 0.061,1.19579 0.13425,1.70915 0.27925,3.41747 0.39641,5.12794 0.16892,2.38134 -0.0802,4.73366 -0.55521,7.06373 -0.47474,1.91649 -1.09913,3.84582 -2.21938,5.49445 -0.1904,0.28019 -0.41366,0.53659 -0.62049,0.80488 -0.90188,0.95793 -2.0082,1.65606 -3.37031,1.62358 -0.90358,-0.0216 -1.19019,-0.21843 -2.02708,-0.54193 0,0 0.76832,-1.86851 0.76832,-1.86851 l 0,0 c 1.35239,0.61243 1.91892,0.58909 3.03799,-0.45816 0.1607,-0.20139 0.33544,-0.39233 0.4821,-0.60416 1.0038,-1.44985 1.54248,-3.165 1.96974,-4.85608 0.44407,-2.15057 0.67332,-4.32073 0.51873,-6.51987 -0.11796,-1.72544 -0.26567,-3.44856 -0.39898,-5.17282 -0.0133,-0.2881 -0.15657,-1.72542 0.0269,-1.91701 1.05436,-1.10076 1.02077,-0.7629 1.92019,-0.13343 0.0454,0.12074 0.10418,0.23726 0.13612,0.36223 0.17328,0.6782 -0.0312,1.41898 -0.0319,2.10112 -0.19799,1.58764 -0.56649,3.16602 -1.50184,4.49665 -0.16948,0.208 -0.32219,0.43088 -0.50845,0.624 -0.89129,0.92414 -2.07142,1.32153 -3.3381,1.25709 -1.53059,-0.2793 -2.53389,-0.80266 -3.08809,-2.34093 -0.0435,-0.22095 -0.10622,-0.43898 -0.13048,-0.66286 -0.13637,-1.25838 0.30044,-2.49254 0.77278,-3.63551 0.61667,-1.19437 1.33847,-2.33146 2.59707,-2.92969 0.97738,-0.3939 1.93096,-0.53736 2.98495,-0.51078 0,0 0,2.0203 0,2.0203 z"
       inkscape:connector-curvature="0" />
    <path
       style="opacity:1;fill:#999999;fill-opacity:1;stroke:none;stroke-width:2;stroke-miterlimit:4;stroke-dasharray:none;stroke-dashoffset:0;stroke-opacity:1"
       id="path6381"
       d="m 134.14942,706.47206 c 1.35755,0.12633 2.72179,0.15762 4.08418,0.18799 1.00513,0.10128 2.14637,0.0575 3.07117,0.54324 0.15931,0.0837 0.2992,0.19999 0.44881,0.29998 0.13549,0.19902 0.33081,0.36849 0.40648,0.59705 0.41346,1.24873 -0.86552,2.57772 -1.58649,3.44494 -1.48988,1.60703 -3.01729,3.17416 -4.44462,4.83841 -0.46748,0.57561 -0.97539,1.12943 -1.38988,1.74694 -0.0639,0.0952 -0.1248,0.19416 -0.16754,0.30062 -0.007,0.0163 0.0261,0.0613 0.0292,0.044 0.026,-0.145 0.0279,-0.29331 0.0419,-0.43996 -0.0498,-0.10225 -0.13267,-0.19426 -0.14943,-0.30676 -0.0135,-0.0902 0.30438,-0.0356 0.536,-0.0414 0.69974,-0.0177 1.38452,-0.13496 2.07285,-0.25104 1.11487,-0.21723 2.21965,-0.48403 3.32388,-0.7494 0,0 0.47197,1.9644 0.47197,1.9644 l 0,0 c -1.15027,0.27628 -2.30107,0.55443 -3.46301,0.7777 -0.97668,0.16175 -3.04208,0.5519 -3.95272,0.0489 -0.26809,-0.14808 -0.4551,-0.40998 -0.68265,-0.61497 -0.0524,-0.29454 -0.16263,-0.5845 -0.15724,-0.88361 0.0149,-0.82835 1.49013,-2.27945 1.95344,-2.911 1.42255,-1.65691 2.93735,-3.22423 4.42798,-4.81878 0.16412,-0.1949 0.33482,-0.38443 0.49235,-0.58469 0.21842,-0.27767 0.38342,-0.59553 0.60907,-0.86736 0.0203,-0.0245 0.0625,-0.0577 0.0875,-0.0381 0.061,0.048 0.0792,0.1335 0.11886,0.20025 0.0655,0.05 0.13095,0.1 0.19643,0.14994 0.014,-0.13043 -0.54081,-0.22733 -0.56119,-0.23161 -0.58403,-0.12255 -1.18312,-0.17491 -1.77824,-0.19786 -1.42183,-0.0318 -2.84562,-0.0653 -4.26219,-0.19985 0,0 0.22311,-2.00795 0.22311,-2.00795 z"
       inkscape:connector-curvature="0" />
    <path
       style="opacity:1;fill:#999999;fill-opacity:1;stroke:none;stroke-width:2;stroke-miterlimit:4;stroke-dasharray:none;stroke-dashoffset:0;stroke-opacity:1"
       id="path6383"
       d="m 145.76617,713.29059 c 0.96428,0.0539 1.57723,-0.28657 2.25435,-0.93133 0.29281,-0.30333 0.59773,-0.62732 0.7573,-1.02667 0.0306,-0.0765 0.0755,-0.28573 0.003,-0.24718 -0.0344,0.0182 -0.0266,0.0732 -0.0399,0.10974 -0.13212,0.0634 0.11817,0.19032 0.0569,0.24988 -0.0346,0.0337 -0.0966,-0.004 -0.14478,-0.002 -0.3136,0.0126 -0.60341,0.0885 -0.90575,0.16803 -0.77123,0.26874 -1.40393,0.72306 -1.91035,1.35577 -0.47403,0.60021 -0.57075,1.29753 -0.58122,2.03572 0.0188,0.86168 0.30755,1.60916 0.85496,2.26365 0.6228,0.69788 1.43717,0.84504 2.33043,0.84476 0.7452,-0.11553 0.35908,-0.0416 1.1569,-0.22912 0,0 0.44915,1.96974 0.44915,1.96974 l 0,0 c -1.07941,0.2403 -0.53167,0.14649 -1.64358,0.27934 -0.26337,-0.008 -0.52796,0.002 -0.7901,-0.0243 -1.21101,-0.1232 -2.2781,-0.67462 -3.08398,-1.58281 -0.88971,-1.15245 -1.24428,-2.1056 -1.29357,-3.5672 0.0363,-1.25665 0.25812,-2.26304 1.04552,-3.27896 0.82175,-0.97048 1.75546,-1.64085 2.97953,-2.02745 0.96177,-0.22922 2.1408,-0.43397 2.96391,0.30043 0.17626,0.15727 0.28036,0.38027 0.42054,0.5704 0.0512,0.21877 0.13677,0.43226 0.15356,0.65631 0.0797,1.06397 -0.74931,1.969 -1.41895,2.67653 -0.19044,0.16835 -0.36819,0.35226 -0.57134,0.50504 -0.94169,0.70822 -2.09568,1.02282 -3.26538,0.93956 0,0 0.22311,-2.00795 0.22311,-2.00795 z"
       inkscape:connector-curvature="0" />
    <path
       style="opacity:1;fill:#999999;fill-opacity:1;stroke:none;stroke-width:2;stroke-miterlimit:4;stroke-dasharray:none;stroke-dashoffset:0;stroke-opacity:1"
       id="path6385"
       d="m 153.1874,718.39719 c -0.13305,-1.3657 -0.16913,-2.73832 -0.19985,-4.10937 0.0102,-1.24813 -0.12572,-2.50638 0.0898,-3.74192 0.41322,-1.35501 1.25719,-1.45867 2.49662,-1.61511 0.94211,-0.12096 1.85301,-0.39213 2.75075,-0.69274 0,0 0.63907,1.91656 0.63907,1.91656 l 0,0 c -1.02398,0.34018 -2.06299,0.64495 -3.13697,0.7806 -0.23285,0.0294 -0.46481,0.0871 -0.69942,0.0809 -0.11229,-0.003 0.0667,-0.22246 -0.009,-0.17388 -0.0282,0.018 -0.0375,0.0555 -0.0563,0.0833 -0.2407,1.06495 0.0175,2.23537 -0.0543,3.31716 0.0292,1.31162 0.0629,2.62473 0.18799,3.93141 0,0 -2.00795,0.2231 -2.00795,0.2231 z"
       inkscape:connector-curvature="0" />
    <path
       style="opacity:1;fill:#999999;fill-opacity:1;stroke:none;stroke-width:2;stroke-miterlimit:4;stroke-dasharray:none;stroke-dashoffset:0;stroke-opacity:1"
       id="path6387"
       d="m 165.46943,708.98346 c -0.84163,0.12191 -1.56377,0.48985 -2.22783,1.00432 -1.01329,0.96404 -1.57975,2.04153 -1.94283,3.38041 -0.14558,0.77437 -0.36118,1.91812 0.31006,2.53839 0.0741,0.0685 0.16824,0.11143 0.25236,0.16714 1.04459,0.49557 2.05219,-0.17376 2.89402,-0.76398 1.04625,-0.85376 2.00598,-1.90646 2.43517,-3.21504 0.0652,-0.19885 0.0981,-0.4069 0.1471,-0.61034 0.0942,-1.01397 -0.32895,-1.52409 -1.14409,-2.04063 -0.11924,-0.0582 -0.23848,-0.11636 -0.35772,-0.17455 0,0 0.92183,-1.79773 0.92183,-1.79773 l 0,0 c 0.19164,0.10122 0.38329,0.20245 0.57493,0.30368 0.19975,0.14191 0.41224,0.26741 0.59925,0.42573 1.1878,1.00554 1.57582,2.27534 1.36119,3.79152 -0.0812,0.29796 -0.14016,0.60291 -0.2437,0.89387 -0.5923,1.66433 -1.79216,3.01816 -3.15994,4.0955 -0.30604,0.20265 -0.59687,0.43038 -0.91812,0.60794 -1.12112,0.61969 -2.47433,0.90484 -3.70307,0.41935 -0.25939,-0.10248 -0.48674,-0.27245 -0.7301,-0.40868 -0.20711,-0.19671 -0.44285,-0.36711 -0.62132,-0.59013 -0.94836,-1.18511 -0.87514,-2.80259 -0.56135,-4.19382 0.0904,-0.30806 0.16165,-0.62237 0.27104,-0.9242 0.49039,-1.35304 1.34024,-2.55775 2.40195,-3.51981 0.97819,-0.71956 1.97354,-1.22584 3.19058,-1.39364 0,0 0.25059,2.0047 0.25059,2.0047 z"
       inkscape:connector-curvature="0" />
    <path
       style="opacity:1;fill:#999999;fill-opacity:1;stroke:none;stroke-width:2;stroke-miterlimit:4;stroke-dasharray:none;stroke-dashoffset:0;stroke-opacity:1"
       id="path6389"
       d="m 176.19573,707.98116 c -1.02153,0.3778 -1.96315,0.95377 -2.75374,1.70003 -0.34655,0.42983 -0.88553,0.89495 -0.90866,1.49854 -0.008,0.21517 0.0521,0.12799 0.12719,0.0711 1.04687,0.2911 2.10656,0.56356 3.14318,0.89737 1.19496,0.4818 2.39866,1.24599 2.67898,2.60786 0.0558,0.2713 0.0369,0.55274 0.0554,0.82911 -0.0626,0.28896 -0.0941,0.58646 -0.18778,0.86689 -0.38742,1.15974 -1.275,2.21157 -2.20121,2.9834 -0.24642,0.20535 -0.51789,0.37863 -0.77683,0.56794 -1.10315,0.60022 -0.53183,0.34513 -1.71382,0.76554 0,0 -0.65057,-1.91269 -0.65057,-1.91269 l 0,0 c 0.80191,-0.25397 0.40524,-0.0921 1.1864,-0.49418 0.99576,-0.69662 1.91484,-1.56606 2.32379,-2.74307 0.13154,-0.91211 -0.60893,-1.21749 -1.33708,-1.54888 -0.96387,-0.31456 -0.39693,-0.14355 -1.42557,-0.41906 -0.77006,-0.20626 -1.65727,-0.37657 -2.30957,-0.87092 -0.22505,-0.17056 -0.39031,-0.40818 -0.58547,-0.61227 -0.10127,-0.27486 -0.25251,-0.53619 -0.3038,-0.82459 -0.21159,-1.18964 0.79283,-2.35514 1.52158,-3.15254 0.20918,-0.1874 0.40755,-0.38763 0.62755,-0.5622 0.88947,-0.70582 1.93241,-1.23543 3.00008,-1.60736 0,0 0.48999,1.95998 0.48999,1.95998 z"
       inkscape:connector-curvature="0" />
  </g>
</svg>
