<?xml version="1.0" encoding="UTF-8" standalone="no"?>
<!-- Created with Inkscape (http://www.inkscape.org/) -->

<svg
   xmlns:dc="http://purl.org/dc/elements/1.1/"
   xmlns:cc="http://creativecommons.org/ns#"
   xmlns:rdf="http://www.w3.org/1999/02/22-rdf-syntax-ns#"
   xmlns:svg="http://www.w3.org/2000/svg"
   xmlns="http://www.w3.org/2000/svg"
   xmlns:sodipodi="http://sodipodi.sourceforge.net/DTD/sodipodi-0.dtd"
   xmlns:inkscape="http://www.inkscape.org/namespaces/inkscape"
   width="458.763"
   height="172.79056"
   viewBox="0 0 458.76301 172.79056"
   id="svg2"
   version="1.1"
   inkscape:version="0.91 r13725"
   sodipodi:docname="transcribing-circles.svg">
  <defs
     id="defs4" />
  <sodipodi:namedview
     id="base"
     pagecolor="#ffffff"
     bordercolor="#666666"
     borderopacity="1.0"
     inkscape:pageopacity="0.0"
     inkscape:pageshadow="2"
     inkscape:zoom="0.98994949"
     inkscape:cx="283.4219"
     inkscape:cy="41.402372"
     inkscape:document-units="px"
     inkscape:current-layer="layer1"
     showgrid="false"
     units="px"
     inkscape:window-width="1920"
     inkscape:window-height="1024"
     inkscape:window-x="0"
     inkscape:window-y="56"
     inkscape:window-maximized="0"
     fit-margin-top="0"
     fit-margin-left="0"
     fit-margin-right="0"
     fit-margin-bottom="0" />
  <metadata
     id="metadata7">
    <rdf:RDF>
      <cc:Work
         rdf:about="">
        <dc:format>image/svg+xml</dc:format>
        <dc:type
           rdf:resource="http://purl.org/dc/dcmitype/StillImage" />
        <dc:title></dc:title>
      </cc:Work>
    </rdf:RDF>
  </metadata>
  <g
     inkscape:label="Layer 1"
     inkscape:groupmode="layer"
     id="layer1"
     transform="translate(-92.695399,-719.67711)">
    <path
       style="opacity:1;fill:#1a1a1a;fill-opacity:1;stroke:none;stroke-width:2;stroke-miterlimit:4;stroke-dasharray:none;stroke-dashoffset:0;stroke-opacity:1"
       id="path4135"
       d="m 92.695409,886.52261 c 0.996001,-3.57116 2.213729,-7.07219 3.447519,-10.56675 1.789111,-5.17768 3.742663,-10.29449 5.822352,-15.36175 1.658,-4.3902 3.59757,-8.65336 5.66692,-12.8614 1.45585,-2.98546 3.1349,-5.85156 4.8815,-8.67407 1.03444,-1.77172 2.22304,-3.43821 3.54874,-5.0015 0.87841,-1.006 1.86653,-1.91129 2.6309,-3.01175 0.68348,-0.92538 1.4921,-1.7469 2.30137,-2.5609 0.39264,-0.435 0.725,-0.90769 1.18738,-1.29041 0.7665,-0.0521 1.54574,-0.30471 2.29951,-0.15617 0.96223,0.18962 1.75006,2.82352 2.03275,3.61153 0.98512,2.60214 1.60567,5.31746 2.32147,8.0007 0.84086,3.47697 1.71372,6.94629 2.44329,10.44924 0.75104,3.58209 1.44459,7.1759 2.13198,10.77073 0.58042,2.99931 1.15141,6.00024 1.72966,9.00002 0.38294,2.22214 0.75676,4.4461 1.17432,6.66213 0.27434,1.64172 0.49842,3.29505 0.85554,4.92158 0.2317,1.24378 0.63837,2.44105 0.91484,3.67396 0.11809,0.80929 0.42014,1.57266 0.61447,2.36544 0.0836,0.53927 0.32897,1.03094 0.48412,1.55371 -0.30754,-0.15975 0.38463,0.78648 0.14194,0.73234 -0.10587,-0.0236 -0.0747,-0.21084 -0.0649,-0.31887 0.0139,-0.15342 0.11538,0.24302 0.23682,0.4887 0.3476,1.2117 0.39346,0.54697 -0.0843,0.0864 -0.068,-0.0532 -0.0314,-0.0268 -0.11062,-0.0783 0,0 -2.00084,3.51044 -2.00084,3.51044 l 0,0 c -0.22549,-0.13537 -0.11025,-0.0614 -0.34456,-0.22364 -0.53869,-0.43456 -0.81815,-0.8678 -1.10927,-1.50666 -0.008,-0.0169 -0.029,-0.0554 -0.0105,-0.0547 0.0223,8.1e-4 0.0248,0.0371 0.0372,0.0556 -0.24351,-0.49338 -0.52102,-1.00116 -0.56942,-1.55819 -0.16481,-0.5813 -0.45832,-1.12548 -0.53196,-1.73256 -0.19681,-0.81949 -0.52056,-1.60746 -0.63329,-2.4465 -0.26999,-1.24146 -0.69823,-2.44295 -0.91978,-3.69659 -0.35288,-1.66322 -0.60961,-3.34533 -0.87624,-5.02412 -0.41648,-2.21053 -0.78975,-4.42896 -1.17117,-6.64564 -0.5784,-3.00187 -1.14992,-6.00483 -1.73085,-9.00615 -0.68266,-3.57366 -1.37288,-7.14602 -2.11925,-10.70694 -0.71148,-3.43003 -1.57106,-6.82554 -2.39135,-10.23018 -0.68666,-2.57462 -1.27652,-5.18164 -2.22098,-7.67864 -0.0947,-0.26448 -0.18945,-0.52896 -0.28417,-0.79344 -0.0757,-0.202 -0.15401,-0.40306 -0.22718,-0.60601 -0.0491,-0.13627 -0.27873,-0.47639 -0.15136,-0.40738 1.45003,0.78577 -0.70007,0.56173 2.65333,0.14712 0.0678,-0.37493 -0.79717,1.23789 -0.84166,0.98061 -0.65401,0.65739 -1.31292,1.31595 -1.87513,2.05563 -0.85266,1.17919 -1.85361,2.22164 -2.84362,3.28488 -1.19876,1.40594 -2.2602,2.91426 -3.1918,4.51139 -1.67898,2.71023 -3.29239,5.46275 -4.69106,8.33015 -2.02931,4.12643 -3.93106,8.30665 -5.55487,12.61269 -2.05477,5.00459 -3.98312,10.05881 -5.750224,15.17271 -1.212564,3.43352 -2.410539,6.873 -3.387374,10.38245 0,0 -3.870203,-1.16106 -3.870203,-1.16106 z"
       inkscape:connector-curvature="0" />
    <path
       style="opacity:1;fill:#1a1a1a;fill-opacity:1;stroke:none;stroke-width:2;stroke-miterlimit:4;stroke-dasharray:none;stroke-dashoffset:0;stroke-opacity:1"
       id="path4137"
       d="m 120.66841,831.91617 c -0.37529,-2.7062 -0.14888,-5.43689 0.05,-8.14651 0.3167,-4.0079 0.39822,-8.02824 0.45734,-12.04652 0.0485,-4.27196 0.0474,-8.54428 0.0477,-12.81646 0.0766,-3.64758 0.29377,-7.28883 0.71193,-10.91308 0.27147,-2.75732 0.73682,-5.48944 1.04341,-8.24219 0.18944,-2.07237 0.22162,-4.15023 0.41371,-6.22241 0.12061,-1.2283 0.2362,-2.45702 0.32847,-3.68781 0.0172,-0.24243 0.01,-0.13346 0.0226,-0.32687 0,0 4.03175,0.26743 4.03175,0.26743 l 0,0 c -0.0144,0.21731 -0.006,0.0967 -0.025,0.36174 -0.0942,1.25463 -0.21134,2.50724 -0.33448,3.75934 -0.19531,2.09685 -0.21615,4.20092 -0.42137,6.29735 -0.30922,2.75814 -0.77059,5.4962 -1.04531,8.25879 -0.4044,3.46952 -0.60525,6.95607 -0.68504,10.448 -3e-4,4.29193 7.9e-4,8.584 -0.0481,12.87571 -0.0605,4.09722 -0.14506,8.19646 -0.46777,12.2831 -0.17975,2.44379 -0.40669,4.90765 -0.0704,7.34921 0,0 -4.00941,0.50118 -4.00941,0.50118 z"
       inkscape:connector-curvature="0" />
    <path
       style="opacity:1;fill:#1a1a1a;fill-opacity:1;stroke:none;stroke-width:2;stroke-miterlimit:4;stroke-dasharray:none;stroke-dashoffset:0;stroke-opacity:1"
       id="path4139"
       d="m 123.32057,794.94658 c 2.40871,1.73769 4.90732,3.34165 7.43743,4.89522 3.08201,1.86779 6.17201,3.72202 9.16062,5.73725 1.80686,1.17886 3.54681,2.44476 5.27059,3.73857 0.77724,0.49807 1.45697,1.09082 1.95545,1.87123 0.68725,1.08498 0.10995,2.27769 -0.53157,3.1883 -1.23758,1.35344 -2.6626,2.51922 -3.99766,3.77333 -2.42769,2.31426 -4.73665,4.74639 -7.07997,7.14425 -1.89816,1.86674 -3.71393,3.81314 -5.62695,5.66466 -0.66241,0.64301 -1.36338,1.25063 -1.93451,1.97896 -0.26936,0.48534 -0.50227,0.98296 -0.87854,1.4212 -0.48329,0.42627 -0.17385,0.19185 -0.98186,0.6263 0,0 -1.44597,-3.77303 -1.44597,-3.77303 l 0,0 c -0.43932,0.28455 -0.29567,0.14596 -0.48699,0.34845 -0.0888,0.12931 -0.23858,0.57427 -0.21303,0.41953 0.0981,-0.59384 0.56556,-1.12874 0.88531,-1.60865 0.69323,-0.82551 1.4494,-1.58951 2.24586,-2.31654 1.88651,-1.82494 3.67455,-3.74608 5.54717,-5.58529 2.38494,-2.43933 4.73397,-4.91456 7.20591,-7.26759 1.14906,-1.07536 2.32872,-2.11734 3.48271,-3.18733 0.94633,-1.24893 -0.32721,0.28285 0.35277,1.26473 -0.0492,-0.0935 -0.72841,-0.62167 -0.92658,-0.73309 -1.66672,-1.2554 -3.35399,-2.47641 -5.10256,-3.61881 -2.93904,-1.98557 -5.98446,-3.80257 -9.01514,-5.64354 -2.60914,-1.60342 -5.18651,-3.25777 -7.67105,-5.05013 0,0 2.34856,-3.28798 2.34856,-3.28798 z"
       inkscape:connector-curvature="0" />
    <path
       style="opacity:1;fill:#1a1a1a;fill-opacity:1;stroke:none;stroke-width:2;stroke-miterlimit:4;stroke-dasharray:none;stroke-dashoffset:0;stroke-opacity:1"
       id="path4141"
       d="m 121.5009,800.99546 c -2.14234,-1.7004 -4.25753,-3.43428 -6.41386,-5.11705 -2.74785,-2.06083 -5.53292,-4.0728 -8.18837,-6.25305 -1.78572,-1.48042 -3.58921,-2.93974 -5.41581,-4.36942 -1.742677,-1.39096 -3.24855,-3.02816 -4.714841,-4.69822 -0.425754,-0.67352 -1.311746,-1.08888 -1.788841,-1.69881 -0.215421,-0.2754 -0.405008,-0.57006 -0.607512,-0.85509 -0.01308,-0.55369 -0.159779,-1.1205 -0.03923,-1.66106 0.223771,-1.00341 2.325833,-2.32034 3.109527,-2.89929 1.842626,-1.35005 3.536447,-2.88407 5.200107,-4.44489 1.97178,-1.93363 3.80639,-3.99666 5.60952,-6.08685 0.90202,-1.04532 1.78548,-2.1075 2.70989,-3.13331 0.2001,-0.21972 0.4044,-0.43555 0.61167,-0.64851 0,0 2.89412,2.81969 2.89412,2.81969 l 0,0 c -0.17167,0.17596 -0.34048,0.35468 -0.50631,0.53615 -0.90596,1.00178 -1.76552,2.04495 -2.65001,3.06546 -1.89619,2.1976 -3.82838,4.36456 -5.90484,6.39467 -1.77999,1.66867 -3.59454,3.30577 -5.565523,4.74923 -1.262762,0.92998 -0.171075,0.11619 -1.359925,1.0289 -0.125335,0.0962 -0.254959,0.18681 -0.379399,0.28419 -0.07127,0.0558 -0.222135,0.26436 -0.207501,0.17506 0.347301,-2.11938 0.557343,2.1837 0.128259,-1.9119 -0.146903,-0.16788 -0.318093,-0.31727 -0.440709,-0.50363 -0.140115,-0.21295 0.389085,0.32959 0.578013,0.50072 0.571257,0.51746 1.122285,1.05726 1.645297,1.62365 1.300898,1.48221 2.626308,2.94423 4.169858,4.1829 1.85082,1.45077 3.68104,2.92795 5.49083,4.42964 2.62509,2.16309 5.39308,4.1414 8.10797,6.18862 2.2046,1.72123 4.3693,3.49208 6.55722,5.23434 0,0 -2.6296,3.06786 -2.6296,3.06786 z"
       inkscape:connector-curvature="0" />
    <path
       style="opacity:1;fill:#1a1a1a;fill-opacity:1;stroke:none;stroke-width:2;stroke-miterlimit:4;stroke-dasharray:none;stroke-dashoffset:0;stroke-opacity:1"
       id="path4143"
       d="m 143.06498,725.62793 c -1.53251,-0.92273 -3.22329,-1.46189 -4.97072,-1.78771 -1.7119,-0.29766 -3.43735,-0.0167 -5.12089,0.31913 -1.85103,0.34187 -3.66596,0.88836 -5.41873,1.57186 -1.80183,0.54597 -3.41947,1.50229 -5.02777,2.45876 -1.8862,1.10937 -3.67385,2.37995 -5.32798,3.81113 -1.64603,1.39006 -2.82325,3.20161 -3.86814,5.0626 -1.33465,2.53592 -2.26441,5.24426 -3.06634,7.98623 -0.66422,2.77158 -1.20422,5.59304 -1.3609,8.44265 -0.1554,2.05018 0.13763,4.04034 0.65561,6.01504 0.56593,1.89181 1.43283,3.673 2.28768,5.44675 0.76331,1.70377 1.839,3.19015 2.99761,4.63832 1.06882,1.2386 2.45344,2.11181 3.88427,2.87034 1.50037,0.80893 3.12664,1.34629 4.7819,1.73279 1.67452,0.47312 3.39997,0.67424 5.13012,0.79541 1.89814,0.10009 3.79986,0.0915 5.7,0.093 1.98007,0.0289 3.95244,-0.19286 5.9061,-0.49341 1.78634,-0.32132 3.48743,-0.95159 5.19797,-1.53602 1.53406,-0.52735 2.95187,-1.32633 4.30158,-2.21551 1.56297,-1.07872 2.97294,-2.35106 4.20756,-3.79071 1.43339,-1.44479 2.39424,-3.22427 3.2846,-5.03082 0.84888,-1.89441 1.49468,-3.85863 2.08895,-5.84356 0.49322,-1.6488 0.65017,-3.36356 0.7394,-5.07385 0.12571,-1.90072 -0.007,-3.79224 -0.41154,-5.65115 -0.50417,-1.97805 -1.17557,-3.89778 -1.95975,-5.78019 -0.81781,-1.89943 -1.84032,-3.70193 -2.8076,-5.52754 -0.74772,-1.46728 -1.7153,-2.79184 -2.78534,-4.03629 -0.81849,-1.0676 -1.90868,-1.81033 -2.98469,-2.58607 -1.11739,-0.6913 -2.33364,-1.18288 -3.59817,-1.52844 -1.4024,-0.29979 -2.7927,-0.62706 -4.2189,-0.79084 -1.43809,-0.10766 -2.88616,-0.1808 -4.32585,-0.0775 -0.9499,0.0172 -1.85991,0.2114 -2.77221,0.45226 0,0 -0.98411,-3.91894 -0.98411,-3.91894 l 0,0 c 1.15427,-0.27968 2.30217,-0.54005 3.49708,-0.56561 1.68388,-0.0993 3.37364,-0.0538 5.05411,0.0965 1.63727,0.19405 3.23876,0.55324 4.84604,0.91505 1.71249,0.49293 3.3705,1.15393 4.86501,2.13991 1.33434,0.96202 2.66322,1.92695 3.68991,3.23451 1.25971,1.4743 2.40111,3.0422 3.28754,4.77374 1.02604,1.93658 2.10832,3.84974 2.96824,5.86821 0.87695,2.11348 1.62916,4.27005 2.18145,6.49323 0.45843,2.20812 0.64883,4.44827 0.49369,6.70374 -0.10978,2.03014 -0.31444,4.06252 -0.90346,6.01818 -0.65904,2.20128 -1.3844,4.37847 -2.33705,6.47411 -1.04511,2.11162 -2.19446,4.18277 -3.85256,5.88613 -1.49316,1.71189 -3.1668,3.25073 -5.05161,4.52813 -1.63829,1.06419 -3.34984,2.02776 -5.20762,2.65749 -1.93562,0.65933 -3.86454,1.36058 -5.88913,1.70561 -2.15773,0.33104 -4.3364,0.56843 -6.52286,0.54026 -1.99459,-0.002 -3.9909,0.007 -5.98319,-0.10318 -1.94819,-0.1402 -3.89181,-0.36994 -5.7792,-0.89503 -1.98882,-0.4802 -3.94576,-1.1199 -5.75018,-2.09961 -1.91056,-1.02676 -3.73219,-2.23177 -5.13745,-3.9124 -1.34485,-1.68572 -2.58382,-3.4331 -3.48084,-5.40654 -0.96859,-2.01117 -1.94043,-4.03528 -2.55907,-6.18748 -0.61085,-2.38348 -0.95974,-4.79629 -0.77766,-7.26568 0.19584,-3.15255 0.75134,-6.27783 1.51683,-9.34082 0.89122,-3.0383 1.93394,-6.03686 3.42718,-8.83998 1.28569,-2.25854 2.73964,-4.44358 4.74625,-6.13304 1.83874,-1.58107 3.81297,-2.99924 5.90622,-4.22688 1.80189,-1.06524 3.62222,-2.1283 5.63276,-2.75236 1.97664,-0.75726 4.0117,-1.38654 6.09632,-1.76753 2.19503,-0.42485 4.4343,-0.73628 6.65943,-0.32248 2.10436,0.41175 4.15986,1.04135 6.01712,2.14205 0,0 -1.80702,3.61404 -1.80702,3.61404 z"
       inkscape:connector-curvature="0" />
    <path
       style="opacity:1;fill:#1a1a1a;fill-opacity:1;stroke:none;stroke-width:2;stroke-miterlimit:4;stroke-dasharray:none;stroke-dashoffset:0;stroke-opacity:1"
       id="path4145"
       d="m 155.55829,736.41177 c -1.40519,-0.46773 -2.74354,-1.1053 -4.17741,-1.48524 -0.9264,-0.15047 -1.84177,-0.33421 -2.76015,-0.52819 -0.69795,-0.14245 -1.40707,-0.19674 -2.11738,-0.22415 -0.73006,-0.0183 -1.46045,-0.0146 -2.19068,-0.0135 -0.69524,-0.0337 -1.35459,0.20557 -2.00127,0.42952 -0.62062,0.37269 -1.189,0.79791 -1.6948,1.3152 -0.51776,0.68441 -1.0259,1.3815 -1.40091,2.1559 -0.43739,0.70846 -0.63664,1.48412 -0.74389,2.29907 -0.0875,0.80985 -0.0886,1.62489 -0.0903,2.43833 0.0753,0.77861 -0.11405,1.60273 0.0521,2.37028 0.0843,0.69251 0.36343,1.31551 0.6835,1.92698 0.40922,0.6203 0.88243,1.21416 1.45256,1.6935 0.69525,0.70105 1.43324,1.35888 2.23903,1.93103 0.81659,0.6358 1.74681,1.06879 2.68075,1.49538 0.88443,0.39366 1.84686,0.53942 2.77965,0.77728 0.7014,0.19259 1.37394,0.31649 2.08873,0.21001 0.68797,-0.13061 1.40721,-0.26777 2.04612,-0.56479 0.64492,-0.32269 1.16205,-0.75599 1.65305,-1.27425 0.53701,-0.67584 0.95349,-1.41037 1.35,-2.17234 0.31324,-0.81066 0.74218,-1.57842 0.97227,-2.4194 0.21344,-0.74829 0.46474,-1.47341 0.58203,-2.24528 0.0556,-0.98 0.27499,-1.93686 0.4491,-2.90028 0.17928,-0.63471 0.0861,-1.16718 -0.0326,-1.78679 -0.15063,-0.63193 -0.12902,-1.30326 -0.43716,-1.88809 -0.2779,-0.5568 -0.67283,-1.01548 -1.10647,-1.45477 -0.55613,-0.56153 -1.2552,-0.96111 -1.9509,-1.32543 -0.3743,-0.19216 -0.78635,-0.25461 -1.1942,-0.33262 0,0 0.60161,-2.97014 0.60161,-2.97014 l 0,0 c 0.69171,0.14523 1.38592,0.28967 2.01609,0.62744 0.9647,0.51901 1.92204,1.08595 2.69064,1.87847 0.68147,0.69786 1.28654,1.4572 1.71066,2.34214 0.34629,0.82394 0.52272,1.6707 0.6461,2.55305 0.18576,0.97071 0.27001,1.92063 0.0384,2.89585 -0.17054,0.94299 -0.38572,1.87581 -0.4381,2.83536 -0.14572,0.89463 -0.40701,1.74707 -0.6639,2.61268 -0.30647,1.02807 -0.77515,1.99215 -1.19528,2.97676 -0.52766,1.01391 -1.10586,1.9899 -1.8469,2.86664 -0.78623,0.81814 -1.66034,1.49988 -2.69375,1.98451 -0.89949,0.35021 -1.83332,0.62613 -2.79065,0.76441 -1.10815,0.14094 -2.16828,0.0273 -3.24365,-0.27665 -1.1078,-0.28249 -2.2481,-0.46563 -3.29065,-0.95759 -1.11421,-0.50969 -2.21613,-1.04406 -3.19451,-1.7943 -0.87685,-0.64001 -1.71231,-1.33649 -2.46991,-2.11544 -0.83027,-0.75064 -1.57478,-1.59889 -2.13832,-2.57121 -0.47005,-0.91263 -0.85937,-1.86135 -0.99246,-2.88776 -0.11304,-0.9339 -0.0796,-1.87119 -0.0833,-2.81129 0.002,-0.95029 0.008,-1.90253 0.11897,-2.84776 0.16303,-1.13655 0.4462,-2.24201 1.03622,-3.24042 0.53682,-1.05037 1.19469,-2.03369 1.95939,-2.93321 0.8337,-0.83153 1.77818,-1.5529 2.85436,-2.04417 0.96376,-0.33354 1.95569,-0.62987 2.98819,-0.59627 0.77179,-10e-4 1.54378,-0.005 2.31537,0.0159 0.88111,0.0358 1.76065,0.10857 2.62585,0.2877 0.97221,0.20689 1.94176,0.38873 2.91993,0.56663 1.5246,0.41609 2.96247,1.056 4.453,1.57382 0,0 -1.06406,2.8375 -1.06406,2.8375 z"
       inkscape:connector-curvature="0" />
    <path
       style="opacity:1;fill:#1a1a1a;fill-opacity:1;stroke:none;stroke-width:2;stroke-miterlimit:4;stroke-dasharray:none;stroke-dashoffset:0;stroke-opacity:1"
       id="path4147"
       d="m 134.02792,737.04637 c -0.98914,-0.69634 -1.86405,-1.56322 -2.91551,-2.17038 -0.5035,-0.41617 -1.09781,-0.65243 -1.67377,-0.9406 -0.57555,-0.19027 -1.12403,-0.4475 -1.70495,-0.62594 -0.5844,-0.12632 -1.11168,-0.41916 -1.68719,-0.57637 -0.31372,-0.0748 -0.76172,-0.0738 -0.99089,-0.0511 -0.0756,0.0212 -0.95232,0.3088 -0.89697,0.26946 0.067,-0.0476 0.174,-0.1301 0.23496,-0.0749 0.0546,0.0494 -0.12362,0.0798 -0.18544,0.11975 -0.52984,0.26902 -1.03453,0.58071 -1.548,0.87975 -0.54671,0.45355 -1.1453,0.83213 -1.71513,1.25458 -0.51023,0.32584 -1.01594,0.68032 -1.3573,1.18991 -0.54703,0.77541 -0.95578,1.63745 -1.41716,2.46496 -0.43621,0.78682 -0.73719,1.63132 -1.09708,2.45314 -0.29055,0.65393 -0.33797,1.36652 -0.37891,2.07073 -0.0379,0.95887 -0.0306,1.91882 -0.0287,2.87823 -0.0542,0.87279 0.25465,1.68691 0.52402,2.5007 0.29819,0.64915 0.72668,1.22706 1.13141,1.81203 0.44205,0.48522 0.9689,0.87192 1.46888,1.2909 0.65046,0.63087 1.29641,1.26853 2.11009,1.6838 0.78402,0.52462 1.64224,0.90495 2.47736,1.33238 0.53649,0.30895 1.11419,0.46355 1.72349,0.5271 0.76444,0.0127 1.46311,0.33313 2.22051,0.27538 0.8222,-0.0159 1.6044,-0.18276 2.39606,-0.38223 0.69426,-0.0777 1.29323,-0.27653 1.89362,-0.60378 0.58104,-0.39463 1.088,-0.89218 1.5495,-1.42231 0.4583,-0.64264 0.95608,-1.25979 1.35036,-1.94618 0.50618,-0.5786 0.71745,-1.30307 1.07493,-1.96772 0.19764,-0.47204 0.38728,-0.93577 0.66949,-1.36553 0.0264,-0.0806 0.0712,-0.21215 0.0872,-0.27062 0,0 2.93704,0.74662 2.93704,0.74662 l 0,0 c -0.12391,0.42778 -0.27043,0.84017 -0.5122,1.2191 -0.13023,0.17609 -0.3327,0.78281 -0.51967,1.11894 -0.38128,0.68771 -0.59107,1.46834 -1.13009,2.06478 -0.50526,0.83704 -1.0847,1.62199 -1.67812,2.39814 -0.69818,0.7924 -1.47686,1.5301 -2.37929,2.08629 -0.82134,0.44678 -1.67032,0.76014 -2.60236,0.88089 -0.98089,0.24714 -1.96271,0.43689 -2.97759,0.4699 -0.94049,0.0383 -1.80444,-0.18023 -2.72707,-0.29122 -0.97536,-0.11919 -1.91455,-0.36814 -2.77903,-0.85153 -0.83632,-0.4524 -1.72757,-0.80814 -2.5157,-1.35277 -0.98065,-0.54642 -1.85296,-1.22952 -2.63141,-2.04058 -0.69041,-0.60141 -1.45272,-1.1316 -2.00195,-1.88105 -0.5627,-0.8224 -1.16015,-1.6378 -1.5127,-2.57933 -0.36925,-1.11778 -0.73485,-2.25121 -0.67723,-3.44593 -0.002,-1.02252 -0.01,-2.04566 0.0342,-3.06749 0.0662,-1.06106 0.18665,-2.1238 0.62852,-3.10474 0.39945,-0.90936 0.73931,-1.84284 1.22579,-2.71225 0.5269,-0.94422 0.99561,-1.92676 1.63576,-2.80218 0.56689,-0.72896 1.22918,-1.36308 2.02419,-1.84268 0.66248,-0.46384 1.31017,-0.9387 1.96573,-1.41555 0.47402,-0.26685 0.94784,-0.57139 1.41454,-0.79836 0.60199,-0.38875 1.2548,-0.5822 1.94539,-0.74935 0.79142,-0.10088 1.57556,-0.0856 2.3545,0.11386 0.6045,0.17198 1.16358,0.45051 1.76916,0.6006 0.7376,0.23125 1.43983,0.5434 2.16311,0.8105 0.64197,0.32231 1.31204,0.59629 1.87671,1.0522 1.1681,0.71714 2.20213,1.61744 3.29491,2.44002 0,0 -1.94005,2.32806 -1.94005,2.32806 z"
       inkscape:connector-curvature="0" />
    <path
       style="opacity:1;fill:#1a1a1a;fill-opacity:1;stroke:none;stroke-width:2;stroke-miterlimit:4;stroke-dasharray:none;stroke-dashoffset:0;stroke-opacity:1"
       id="path4149"
       d="m 136.73796,737.85656 c 1.5599,0.39837 3.12611,0.78856 4.67689,1.22307 1.02493,0.36516 2.11096,0.45321 3.16383,0.69135 0.66812,0.19175 1.34828,0.32747 2.03678,0.41805 0.58972,-0.0256 1.11284,0.26555 1.66984,0.39478 0.61871,0.10887 1.24816,0.12682 1.8747,0.14106 0.77851,0.0115 1.55714,0.009 2.33572,0.008 0.41989,-0.0115 0.85505,-0.22025 1.3019,-0.32882 0.54641,-0.12348 1.10673,-0.16074 1.66508,-0.17745 -0.5028,-0.01 1.33948,-0.38567 1.40433,-0.3969 0.35886,-0.0522 0.71984,-0.0914 1.08206,-0.11009 0.0212,-7.6e-4 0.0424,-10e-4 0.0637,-0.002 0,0 0.096,3.02893 0.096,3.02893 l 0,0 c -0.003,3e-5 -0.007,6e-5 -0.0101,8e-5 -0.24673,0.0138 -0.49272,0.0389 -0.73747,0.0732 -0.61848,0.0927 -1.18958,0.35185 -1.81071,0.43618 -0.35609,0.01 -0.71462,0.0257 -1.06414,0.0994 -0.66125,0.14056 -1.28936,0.46969 -1.98535,0.40811 -0.80385,10e-4 -1.60777,0.004 -2.41156,-0.009 -0.86236,-0.0205 -1.73013,-0.053 -2.57552,-0.24006 -0.63759,-0.17611 -0.72236,-0.31548 -1.29705,-0.32128 -0.79131,-0.10571 -1.57509,-0.25641 -2.3437,-0.475 -1.07827,-0.28717 -2.23,-0.30689 -3.28203,-0.72218 -1.49343,-0.42595 -3.00784,-0.7914 -4.51057,-1.18114 0,0 0.6574,-2.95829 0.6574,-2.95829 z"
       inkscape:connector-curvature="0" />
    <path
       style="opacity:1;fill:#1a1a1a;fill-opacity:1;stroke:none;stroke-width:2;stroke-miterlimit:4;stroke-dasharray:none;stroke-dashoffset:0;stroke-opacity:1"
       id="path4151"
       d="m 139.3793,746.79102 c 1.53981,0 3.07963,0 4.61944,0 0.99555,0 1.9911,0 2.98666,0 0.74423,0 1.48846,0 2.23269,0 0.47414,0 0.94827,0 1.4224,0 0.49136,0 0.98271,0 1.47406,0 0.65555,-0.0559 1.23859,0.27584 1.86034,0.40611 0.39501,0.0826 0.80087,0.0901 1.20291,0.0984 0.37043,0.006 0.74092,0.004 1.11138,0.003 0.45587,-10e-4 0.91175,-0.002 1.36762,-0.002 0.108,-7e-5 0.216,-1.2e-4 0.324,-1.6e-4 0,0 0.001,3.03046 0.001,3.03046 l 0,0 c -0.10764,3e-5 -0.21529,8e-5 -0.32294,1.5e-4 -0.45358,3.2e-4 -0.90715,8.3e-4 -1.36073,0.002 -0.39572,10e-4 -0.79147,0.004 -1.18715,-0.003 -0.61275,-0.0141 -1.22892,-0.0403 -1.82869,-0.17788 -0.45112,-0.11079 -0.91518,-0.31827 -1.16781,-0.32592 -0.49135,0 -0.9827,0 -1.47406,0 -0.47413,0 -0.94826,0 -1.4224,0 -0.74423,0 -1.48846,0 -2.23269,0 -0.99556,0 -1.99111,0 -2.98666,0 -1.53981,0 -3.07963,0 -4.61944,0 0,0 0,-3.03046 0,-3.03046 z"
       inkscape:connector-curvature="0" />
    <path
       style="opacity:1;fill:#1a1a1a;fill-opacity:1;stroke:none;stroke-width:2;stroke-miterlimit:4;stroke-dasharray:none;stroke-dashoffset:0;stroke-opacity:1"
       id="path4153"
       d="m 156.17102,744.7216 c -0.85191,0.90958 -1.71977,1.7982 -2.382,2.85948 -0.36128,0.52269 -0.77464,1.01204 -1.27472,1.40634 0,0 -1.8382,-2.40929 -1.8382,-2.40929 l 0,0 c 0.1556,-0.13255 0.41242,-0.40757 0.55081,-0.61546 0.84151,-1.32064 1.8994,-2.46367 3.00406,-3.56914 0,0 1.94005,2.32807 1.94005,2.32807 z"
       inkscape:connector-curvature="0" />
    <path
       style="opacity:1;fill:#1a1a1a;fill-opacity:1;stroke:none;stroke-width:2;stroke-miterlimit:4;stroke-dasharray:none;stroke-dashoffset:0;stroke-opacity:1"
       id="path4155"
       d="m 118.5336,738.37079 c 1.46324,0.36153 2.95168,0.60026 4.45171,0.73685 1.31023,0.21083 2.61869,0.41697 3.94111,0.53337 0.86825,0.0683 1.73953,0.0788 2.61,0.0833 0.77911,-0.007 1.54847,-0.0279 2.31936,0.088 0.44104,0.12632 0.85783,0.3191 1.31623,0.37082 0.42214,0.045 0.84773,0.0433 1.27178,0.0453 0.0772,-0.0213 1.71723,0.0343 1.257,-0.016 0.33051,-0.14635 0.68326,-0.25344 1.02926,-0.36391 0.0283,-0.009 0.0567,-0.0178 0.085,-0.0266 0,0 0.90558,2.89199 0.90558,2.89199 l 0,0 c -0.0231,0.007 -0.0463,0.0145 -0.0694,0.0217 -0.4044,0.12892 -0.80539,0.26795 -1.20396,0.41392 -0.67194,0.11865 -1.33526,0.13107 -2.018,0.10932 -0.56077,-0.003 -1.12348,-0.005 -1.68075,-0.075 -0.50691,-0.0772 -1.03158,-0.17823 -1.49601,-0.40173 -0.49504,-0.0442 -1.16702,-0.0239 -1.73169,-0.0274 -0.95438,-0.005 -1.9096,-0.0182 -2.8614,-0.095 -1.32594,-0.11783 -2.64096,-0.309 -3.95277,-0.53442 -1.65344,-0.15458 -3.2951,-0.41337 -4.908,-0.81449 0,0 0.735,-2.93998 0.735,-2.93998 z"
       inkscape:connector-curvature="0" />
    <path
       style="opacity:1;fill:#1a1a1a;fill-opacity:1;stroke:none;stroke-width:2;stroke-miterlimit:4;stroke-dasharray:none;stroke-dashoffset:0;stroke-opacity:1"
       id="path4157"
       d="m 117.97816,746.7423 c 1.57139,-0.19561 3.15026,-0.31793 4.73138,-0.39763 1.05522,-0.0478 2.11153,-0.0591 3.16767,-0.0621 0.66001,-8.2e-4 1.32001,0.001 1.98002,0.002 0.5596,9.2e-4 1.1192,10e-4 1.67879,10e-4 0.66558,6e-5 1.33116,4e-5 1.99673,3e-5 0.54415,0 1.0883,-1e-5 1.63245,-1e-5 0.50504,0 1.01008,0 1.51512,0 0.68509,-0.0661 1.32384,0.17321 1.96483,0.37304 0.15165,0.047 0.30381,0.0922 0.45608,0.13711 0,0 -0.85734,2.90665 -0.85734,2.90665 l 0,0 c -0.16747,-0.0494 -0.33482,-0.0992 -0.50161,-0.15092 -0.54598,-0.17057 -0.56163,-0.27152 -1.06196,-0.23543 -0.50503,0 -1.01007,0 -1.5151,10e-6 -0.54414,0 -1.08829,0 -1.63243,10e-6 -0.66573,10e-6 -1.33146,3e-5 -1.99719,-3e-5 -0.56109,-8e-5 -1.12218,-1.6e-4 -1.68327,-10e-4 -0.65551,-10e-4 -1.31102,-0.003 -1.96654,-0.002 -1.00831,0.003 -2.0168,0.0131 -3.02426,0.0583 -1.50632,0.0753 -3.01043,0.19204 -4.50749,0.37804 0,0 -0.37588,-3.00706 -0.37588,-3.00706 z"
       inkscape:connector-curvature="0" />
    <path
       style="opacity:1;fill:#1a1a1a;fill-opacity:1;stroke:none;stroke-width:2;stroke-miterlimit:4;stroke-dasharray:none;stroke-dashoffset:0;stroke-opacity:1"
       id="path4159"
       d="m 133.94767,744.72159 c -0.86684,0.63886 -1.59558,1.41684 -2.30182,2.22245 -0.21558,0.24999 -0.43083,0.50047 -0.6361,0.75905 0,0 -2.3852,-1.86936 -2.3852,-1.86936 l 0,0 c 0.23861,-0.30354 0.49172,-0.59538 0.74322,-0.8882 0.81014,-0.92287 1.65423,-1.81152 2.63985,-2.55201 0,0 1.94005,2.32807 1.94005,2.32807 z"
       inkscape:connector-curvature="0" />
    <path
       style="opacity:1;fill:#1a1a1a;fill-opacity:1;stroke:none;stroke-width:2;stroke-miterlimit:4;stroke-dasharray:none;stroke-dashoffset:0;stroke-opacity:1"
       id="path4161"
       d="m 120.73498,749.82147 c -1.03558,-0.0328 -2.0602,0.17115 -3.07692,0.34449 -0.0864,0.0153 -0.17291,0.0306 -0.25937,0.0459 0.008,0.006 0.0165,0.0128 0.0248,0.0193 0,0 -1.07746,-2.83244 -1.07746,-2.83244 l 0,0 c 0.61445,-0.20014 0.34372,-0.13896 0.80304,-0.22013 1.18483,-0.20175 2.3792,-0.42268 3.58591,-0.38755 0,0 0,3.03046 0,3.03046 z"
       inkscape:connector-curvature="0" />
    <path
       style="opacity:1;fill:#1a1a1a;fill-opacity:1;stroke:none;stroke-width:2;stroke-miterlimit:4;stroke-dasharray:none;stroke-dashoffset:0;stroke-opacity:1"
       id="path4163"
       d="m 142.76036,762.99548 c -1.3515,0.71168 -2.71368,1.42254 -3.94397,2.33247 -0.9295,0.64426 -1.84283,1.31108 -2.78914,1.93046 -0.54387,0.30434 -1.01666,0.69664 -1.51669,1.06202 -0.33174,0.22041 -0.68028,0.41614 -1.04763,0.57047 -0.10647,0.0467 -0.21875,0.0735 -0.33107,0.10146 0,0 -0.60321,-2.96981 -0.60321,-2.96981 l 0,0 c -0.0733,0.0187 -0.14754,0.034 -0.21691,0.0651 0.15591,-0.0697 0.30752,-0.1511 0.45187,-0.24344 0.54898,-0.34628 1.02215,-0.82172 1.60618,-1.1228 0.90211,-0.58808 1.76939,-1.22612 2.65544,-1.8379 1.32993,-0.96748 2.77076,-1.76654 4.2316,-2.51918 0,0 1.50353,2.63118 1.50353,2.63118 z"
       inkscape:connector-curvature="0" />
    <path
       style="opacity:1;fill:#008000;fill-opacity:1;stroke:none;stroke-width:2;stroke-miterlimit:4;stroke-dasharray:none;stroke-dashoffset:0;stroke-opacity:1"
       id="path4191"
       d="m 202.48753,845.46533 c -0.14541,-2.70963 0.0797,-5.41553 0.24589,-8.11817 0.19509,-3.16021 0.25473,-6.32617 0.28943,-9.49148 0.0258,-3.29619 0.0224,-6.59252 0.0215,-9.88879 0.0905,-2.37165 -0.0988,-4.73077 -0.30013,-7.0906 -0.0949,-1.01965 -0.16712,-2.04148 -0.20094,-3.06503 -0.007,-0.30291 -0.0138,-0.60596 -0.0103,-0.90897 1.24871,0.372 2.54843,0.60297 3.74613,1.11598 0.0958,0.041 -1.54152,2.65731 -1.64989,2.82627 -1.11037,1.71986 -2.17959,3.46716 -3.22081,5.22978 -0.97334,1.66911 -2.05284,3.27273 -3.05945,4.92094 -0.68841,1.15305 -1.50123,2.2258 -2.47658,3.14956 -0.097,0.0705 -0.8842,0.7809 -0.17407,0.12171 0,0 -3.25801,-2.38996 -3.25801,-2.38996 l 0,0 c 0.25065,-0.27644 0.40072,-0.47553 0.66861,-0.67959 0.7224,-0.66505 1.28635,-1.47453 1.79376,-2.31114 0.9988,-1.62862 2.06102,-3.21819 3.02717,-4.86728 1.06863,-1.80752 2.16464,-3.60009 3.30373,-5.36403 0.37052,-0.57055 0.70888,-1.15435 1.0575,-1.73813 0.0533,-0.0892 0.1112,-0.17565 0.16111,-0.26675 0.0491,-0.0897 0.0338,-0.28271 0.1358,-0.27519 1.33874,0.0987 2.65686,0.38597 3.98529,0.57896 -0.002,0.24236 0.002,0.48472 0.008,0.727 0.0301,0.95267 0.10097,1.90349 0.18843,2.85249 0.21096,2.47349 0.40336,4.94738 0.31475,7.43297 8.3e-4,3.3114 0.004,6.62287 -0.0218,9.9342 -0.0356,3.23324 -0.0973,6.46711 -0.29682,9.69512 -0.15206,2.47229 -0.35689,4.94457 -0.26297,7.42392 0,0 -4.0159,0.44621 -4.0159,0.44621 z"
       inkscape:connector-curvature="0" />
    <path
       style="opacity:1;fill:#008000;fill-opacity:1;stroke:none;stroke-width:2;stroke-miterlimit:4;stroke-dasharray:none;stroke-dashoffset:0;stroke-opacity:1"
       id="path4193"
       d="m 193.42247,842.75551 c 2.47268,-0.0677 4.9377,0.0883 7.40449,0.23215 2.78101,0.16343 5.56625,0.22269 8.35135,0.25638 2.25119,0.12172 4.49626,0.32579 6.74826,0.43577 1.42031,0.095 2.8483,0.0101 4.26315,0.16564 0.60902,0.096 1.20037,0.26962 1.7638,0.51764 0,0 -1.67506,3.67705 -1.67506,3.67705 l 0,0 c -0.19027,-0.0931 -0.40279,-0.13984 -0.60882,-0.18769 -1.28184,-0.24146 -2.64853,0.0564 -3.94083,-0.13688 -2.20241,-0.10826 -4.39863,-0.29897 -6.59948,-0.43121 -2.84719,-0.0346 -5.69452,-0.0958 -8.53752,-0.26294 -2.38864,-0.13926 -4.7749,-0.29416 -7.16934,-0.2253 0,0 0,-4.04061 0,-4.04061 z"
       inkscape:connector-curvature="0" />
    <path
       style="opacity:1;fill:#008000;fill-opacity:1;stroke:none;stroke-width:2;stroke-miterlimit:4;stroke-dasharray:none;stroke-dashoffset:0;stroke-opacity:1"
       id="path4195"
       d="m 236.19315,836.38471 c -1.36261,-0.50619 -2.7753,-0.84481 -4.21102,-1.05742 -0.80624,-0.16375 -1.34064,-0.0116 -2.02088,0.35142 -0.5443,0.48538 -0.94246,1.09333 -1.37764,1.67251 -0.78244,0.92592 -1.26791,2.04748 -1.73638,3.1543 -0.24986,0.85542 -0.64091,1.86422 -0.49127,2.77128 0.0408,0.43612 0.26375,0.88349 0.69642,1.04361 0.90518,0.59543 1.97189,0.88467 3.01593,1.13635 1.17465,0.15787 2.26935,-0.0781 3.38916,-0.38706 1.17703,-0.39103 2.15255,-1.27605 2.93004,-2.22038 0.89019,-1.04699 1.35806,-2.34657 1.91292,-3.58174 0.30666,-0.61178 0.49548,-1.2541 0.57582,-1.9297 0.0303,-0.35662 0.0377,-0.71447 0.0345,-1.07217 -0.004,-0.25159 -0.007,-0.50317 -0.008,-0.75479 -0.001,-0.39411 -0.001,-0.78822 -0.001,-1.18234 8.3e-4,-1.50418 -0.0998,-0.97274 4.04064,0.20374 0.0704,0.02 -0.22629,1.65893 -0.25052,1.82324 -0.17046,1.2952 -0.47005,2.56668 -0.61729,3.86573 -0.0506,0.9222 0.26093,1.71591 0.66305,2.52489 0.38039,0.70931 1.02037,1.19268 1.69951,1.59627 0.88304,0.33035 1.83746,0.37045 2.7693,0.41962 0.18592,0.006 0.37183,0.0115 0.55775,0.0172 0,0 -0.12844,4.03856 -0.12844,4.03856 l 0,0 c -0.2165,-0.007 -0.43299,-0.0141 -0.64949,-0.0212 -1.61137,-0.0903 -3.24114,-0.23922 -4.68672,-1.02535 -1.31587,-0.84042 -2.49781,-1.84863 -3.2041,-3.27557 -0.70772,-1.50384 -1.19068,-3.05293 -1.03457,-4.73998 0.15832,-1.34097 0.44636,-2.65702 0.63406,-3.9927 0.059,-0.39599 0.0929,-0.65566 0.16364,-1.03354 0.0124,-0.0661 -0.0233,-0.18717 0.0432,-0.19694 4.13011,-0.60653 4.0399,-1.73275 4.04058,-0.20453 5e-5,0.38581 -1.1e-4,0.77162 0.001,1.15742 0.002,0.24894 0.005,0.49784 0.008,0.74675 0.004,0.53857 -0.0104,1.07763 -0.0665,1.61369 -0.14109,1.07417 -0.42779,2.11071 -0.90368,3.08872 -0.72611,1.58546 -1.36134,3.23435 -2.53982,4.5606 -1.35329,1.51854 -2.9182,2.88828 -4.91181,3.47026 -1.78581,0.49017 -3.57832,0.75571 -5.42589,0.415 -1.55699,-0.38837 -3.11932,-0.86862 -4.44444,-1.80449 -1.37235,-1.10601 -2.2183,-2.29221 -2.33922,-4.10678 -0.0294,-1.55244 0.2309,-3.10098 0.81017,-4.54785 0.60132,-1.4033 1.24263,-2.81219 2.22338,-3.99767 0.79505,-1.05771 1.56927,-2.14627 2.73867,-2.82733 1.41736,-0.72931 2.8998,-1.04285 4.4919,-0.76462 1.71333,0.26162 3.4017,0.66114 5.02785,1.2696 0,0 -1.41875,3.78334 -1.41875,3.78334 z"
       inkscape:connector-curvature="0" />
    <path
       style="opacity:1;fill:#008000;fill-opacity:1;stroke:none;stroke-width:2;stroke-miterlimit:4;stroke-dasharray:none;stroke-dashoffset:0;stroke-opacity:1"
       id="path4197"
       d="m 256.77395,807.07764 c -0.66806,2.11176 -1.07608,4.28998 -1.35565,6.48377 -0.24963,3.01527 -0.4902,6.03229 -0.66579,9.05318 -0.12951,2.44851 -0.17358,4.90024 -0.19344,7.35172 -0.009,1.67496 -0.006,3.34997 -0.004,5.02495 0.002,1.2537 0.002,2.50741 0.003,3.76112 -7.4e-4,1.08909 -0.0485,2.17139 0.12137,3.2493 0.13276,0.76546 0.26604,1.53094 0.34231,2.30442 0.0417,0.47898 0.0445,0.96017 0.0452,1.44061 -6.4e-4,0.41433 -0.002,0.82867 -0.003,1.243 -4.76529,3.52255 -4.08696,-1.02693 -3.88202,-2.67925 0.171,-1.4826 0.47247,-2.95337 0.91565,-4.37843 0.25112,-1.05973 0.66261,-2.04184 1.22688,-2.97047 0.56953,-0.86944 1.25076,-1.65633 2.03313,-2.33774 0.82522,-0.64458 1.83913,-0.78958 2.81981,-1.03904 0.92499,-0.27073 1.88447,-0.35069 2.84218,-0.39839 1.41967,0.0175 2.7392,0.48425 3.98594,1.12629 1.09305,0.6068 2.07718,1.34409 2.91401,2.27151 0.73304,0.86701 1.35843,1.78923 1.81677,2.82873 0.47233,1.08153 0.64806,2.18403 0.62226,3.35937 0.0244,1.19818 -0.266,2.31937 -0.75738,3.4021 -0.69699,1.33953 -1.87925,2.2612 -3.13578,3.0407 -1.29455,0.88698 -2.78176,1.27187 -4.31303,1.48722 -1.49372,0.15643 -2.99825,0.14642 -4.49824,0.14779 -1.53005,0.0489 -3.02334,-0.29245 -4.46343,-0.77676 -0.79824,-0.30744 -1.6154,-0.55446 -2.45549,-0.71384 -0.0586,-0.01 -0.11714,-0.0196 -0.17571,-0.0294 0,0 0.67717,-3.98346 0.67717,-3.98346 l 0,0 c 0.0873,0.015 0.17455,0.03 0.26182,0.045 1.02799,0.19968 2.03409,0.48745 3.01248,0.86288 1.00596,0.36402 2.06527,0.59116 3.1396,0.55498 1.32193,-10e-4 2.64749,0.01 3.96509,-0.11199 0.98997,-0.12245 1.9255,-0.34192 2.75146,-0.9355 0.58694,-0.34362 1.17735,-0.72857 1.5682,-1.28704 0.28233,-0.58461 0.41761,-1.15112 0.38411,-1.81212 0.0253,-0.71433 0.009,-0.92075 -0.29216,-1.6469 -0.27861,-0.67001 -0.71167,-1.22921 -1.16716,-1.79235 -0.44419,-0.5988 -1.14103,-0.93597 -1.74866,-1.34174 -0.59168,-0.33332 -1.22472,-0.5584 -1.8966,-0.65958 -0.68805,0.032 -1.37823,0.075 -2.04136,0.27841 -0.393,0.1 -0.8983,0.27047 -1.25354,0.24736 -0.50767,0.25328 -0.79469,0.95997 -1.17118,1.35842 -0.41641,0.61981 -0.60506,1.31965 -0.79609,2.03579 -0.3788,1.19156 -0.61676,2.42875 -0.76139,3.66975 -0.36766,2.90966 0.82142,1.95251 -4.16793,2.16803 9.8e-4,-0.40951 0.002,-0.81902 0.003,-1.22853 -3.7e-4,-0.35534 -5e-5,-0.71131 -0.0273,-1.06581 -0.0606,-0.69928 -0.207,-1.38752 -0.31481,-2.0802 -0.18784,-1.27996 -0.18903,-2.56021 -0.16674,-3.85193 -3.6e-4,-1.2525 -10e-4,-2.505 -0.003,-3.7575 -0.002,-1.68753 -0.006,-3.37508 0.004,-5.0626 0.0205,-2.51882 0.0664,-5.03789 0.20014,-7.55364 0.18149,-3.11479 0.4268,-6.22604 0.69204,-9.3344 0.32484,-2.50035 0.79192,-4.98649 1.57984,-7.38654 0,0 3.78334,1.41875 3.78334,1.41875 z"
       inkscape:connector-curvature="0" />
    <path
       style="opacity:1;fill:#008000;fill-opacity:1;stroke:none;stroke-width:2;stroke-miterlimit:4;stroke-dasharray:none;stroke-dashoffset:0;stroke-opacity:1"
       id="path4199"
       d="m 280.31734,810.40888 c 0,2.40162 0,4.80325 0,7.20488 0,2.47566 0,4.95133 0,7.42699 0,2.10781 0,4.21561 0,6.32341 0,1.5324 0,3.06479 0,4.59719 -0.0814,1.28154 -0.30978,2.54596 -0.42137,3.82474 -0.0734,0.96449 -0.0801,1.93224 -0.0858,2.89897 -0.06,0.75564 0.006,1.46076 0.17707,2.18987 0.28386,0.93385 0.17789,1.86925 -0.0503,2.79715 -0.0202,0.076 -0.0626,0.30655 -0.0605,0.22796 0.0246,-0.92944 0.33262,-0.61694 -0.42387,-1.72424 -0.30837,-0.45137 -1.39749,-0.4312 -0.74334,-0.53562 1.90474,-0.22129 3.78576,-0.60419 5.68138,-0.8903 1.91386,-0.39584 3.84404,-0.68959 5.78968,-0.8694 1.18017,-0.0998 2.3648,-0.11826 3.54849,-0.1231 0.61566,-5.8e-4 1.23131,0.004 1.84696,0.006 0.72605,-0.02 1.40644,0.26224 2.10399,0.41764 0.36882,0.0626 0.74291,0.0807 1.1163,0.0894 0.21211,0.004 0.42426,0.005 0.63639,0.002 0.006,-1.2e-4 0.0114,-2.4e-4 0.0171,-3.6e-4 0,0 0.0769,4.03987 0.0769,4.03987 l 0,0 c -0.0137,2.5e-4 -0.0274,5e-4 -0.0411,7.5e-4 -0.26475,0.003 -0.52956,10e-4 -0.79429,-0.004 -0.63675,-0.0177 -1.27452,-0.0581 -1.8999,-0.18697 -0.5965,-0.1356 -1.12211,-0.33173 -1.23006,-0.31875 -0.60538,-0.002 -1.21076,-0.007 -1.81616,-0.006 -1.06586,0.004 -2.13264,0.0184 -3.1955,0.10625 -1.86848,0.16995 -3.7188,0.46657 -5.55722,0.84125 -1.92536,0.28911 -3.83524,0.68046 -5.77017,0.90267 -0.59194,0.0681 -1.01786,0.15957 -1.64604,-0.0384 -1.21601,-0.38327 -1.94466,-1.68537 -1.56069,-2.91092 0.0315,-0.12528 0.0502,-0.25415 0.0912,-0.37665 0.01,-0.0296 0.17873,0.11259 0.058,0.0736 -0.004,-0.1119 -0.0932,-0.51149 -0.11345,-0.60801 -0.23721,-1.0327 -0.34606,-2.06596 -0.28146,-3.12679 0.007,-1.07727 0.0163,-2.15564 0.10143,-3.23019 0.10348,-1.16067 0.28008,-2.31134 0.40572,-3.4694 0,-1.5324 0,-3.06479 0,-4.59719 0,-2.1078 0,-4.2156 0,-6.32341 0,-2.47566 0,-4.95133 0,-7.42699 0,-2.40163 0,-4.80326 0,-7.20488 0,0 4.04061,0 4.04061,0 z"
       inkscape:connector-curvature="0" />
    <path
       style="opacity:1;fill:#008000;fill-opacity:1;stroke:none;stroke-width:2;stroke-miterlimit:4;stroke-dasharray:none;stroke-dashoffset:0;stroke-opacity:1"
       id="path4201"
       d="m 291.93132,837.1097 c -0.90204,1.7167 -1.39529,3.58491 -1.85344,5.45717 -0.52785,2.16255 -1.0599,4.32462 -1.563,6.49317 -0.29852,1.64529 -0.67614,3.27691 -0.92051,4.93185 -0.14915,1.40442 -0.41465,2.79288 -0.58988,4.19423 -0.0825,0.62181 -0.11456,1.24822 -0.12422,1.87487 -0.004,0.37147 -0.002,0.74297 7e-4,1.11445 4.6e-4,0.0754 0.001,0.15072 0.002,0.22608 0,0 -4.04041,0.0406 -4.04041,0.0406 l 0,0 c -7.5e-4,-0.0804 -10e-4,-0.16085 -0.002,-0.24128 -0.003,-0.40199 -0.005,-0.80401 -2.4e-4,-1.20599 0.0132,-0.77304 0.0542,-1.54572 0.15525,-2.31286 0.18088,-1.43164 0.44731,-2.85079 0.60241,-4.28546 0.26433,-1.76143 0.65596,-3.50037 0.98121,-5.25084 0.50824,-2.18516 1.0427,-4.36444 1.5751,-6.54375 0.55185,-2.23433 1.16774,-4.45976 2.26891,-6.49698 0,0 3.50824,2.0047 3.50824,2.0047 z"
       inkscape:connector-curvature="0" />
    <path
       style="opacity:1;fill:#008000;fill-opacity:1;stroke:none;stroke-width:2;stroke-miterlimit:4;stroke-dasharray:none;stroke-dashoffset:0;stroke-opacity:1"
       id="path4203"
       d="m 305.64717,855.15357 c 0.32638,-1.98518 0.69954,-3.96122 1.04448,-5.94319 0.2498,-1.35431 0.34205,-2.72618 0.38449,-4.10008 0.0247,-1.08923 0.019,-2.17884 0.0162,-3.26826 -0.003,-1.01312 -0.005,-2.02625 -0.005,-3.03938 -4.5e-4,-0.64576 -5.9e-4,-1.29151 -6.1e-4,-1.93726 -0.0881,-1.71807 1.0528,-2.72685 2.84321,-2.47586 0.90882,0.14468 1.80815,0.33607 2.71227,0.50885 1.12009,0.18187 2.25481,0.23468 3.38732,0.26763 1.16797,0.0223 2.33623,0.0188 3.50436,0.0174 1.0463,0.0584 2.06622,-0.0308 3.09535,-0.20453 0.71253,-0.0621 1.37635,-0.20599 2.05045,-0.42127 0.11764,-0.0571 0.7364,-0.18656 0.70659,-0.21511 -0.0529,-0.0507 -0.28629,0.12739 -0.10877,-0.0106 0.0166,-0.0134 0.0331,-0.0268 0.0497,-0.0402 0,0 2.47339,3.19513 2.47339,3.19513 l 0,0 c -0.0566,0.0432 -0.1132,0.0865 -0.1698,0.12969 -0.52653,0.36956 -1.09776,0.63943 -1.72409,0.79091 -0.85565,0.27207 -1.71456,0.4669 -2.60975,0.55653 -1.24653,0.20756 -2.49313,0.31865 -3.75832,0.26008 -1.20941,10e-4 -2.41897,0.005 -3.62821,-0.0192 -1.34784,-0.0402 -2.69811,-0.10993 -4.02939,-0.33822 -0.91056,-0.17523 -1.81466,-0.37017 -2.73088,-0.51247 1.64201,-0.0889 1.61917,-0.84327 1.97723,-1.94471 0.047,-0.1445 -0.0507,0.5991 -3e-5,0.45584 2e-5,0.64471 1.6e-4,1.28942 6.1e-4,1.93413 8e-4,1.01074 0.002,2.02147 0.005,3.03221 0.003,1.13513 0.009,2.27046 -0.0181,3.40538 -0.0498,1.56382 -0.16009,3.12524 -0.44247,4.66683 -0.33447,1.91805 -0.69393,3.83075 -1.01572,5.75089 0,0 -4.00941,-0.50118 -4.00941,-0.50118 z"
       inkscape:connector-curvature="0" />
    <path
       style="opacity:1;fill:#008000;fill-opacity:1;stroke:none;stroke-width:2;stroke-miterlimit:4;stroke-dasharray:none;stroke-dashoffset:0;stroke-opacity:1"
       id="path4207"
       d="m 363.56925,800.13287 c -1.32546,-0.33031 -2.65305,-0.59472 -4.02041,-0.5569 -1.06261,0.16443 -2.11465,0.42908 -3.08418,0.89974 -1.06495,0.46943 -2.05675,1.07394 -3.05593,1.6646 -0.91718,0.54886 -1.77055,1.20847 -2.50034,1.98981 -1.13357,1.16853 -2.21969,2.37225 -3.2447,3.63735 -1.0854,1.43362 -2.04496,2.95684 -2.94657,4.51106 -0.95251,1.73745 -1.72932,3.5793 -2.43127,5.43172 -0.77143,2.20964 -1.60485,4.39348 -2.31027,6.62551 -0.72023,2.20202 -1.37073,4.42788 -1.94505,6.67242 -0.58617,1.86193 -0.88276,3.77986 -1.03873,5.71939 -0.14945,1.70877 -0.12784,3.40818 0.14253,5.1014 0.32492,1.64184 1.10623,3.13155 1.89744,4.58858 0.78499,1.52586 1.73022,2.9541 2.91575,4.1959 1.09466,1.11564 2.44528,1.92812 3.78387,2.71729 1.53682,0.97035 3.23384,1.58824 4.94361,2.17016 1.6909,0.55574 3.46455,0.74804 5.21713,1.00746 1.90684,0.26376 3.83384,0.32598 5.75598,0.36982 1.66119,0.0991 3.30368,-0.0111 4.95306,-0.18943 1.36487,-0.16892 2.55724,-0.86301 3.749,-1.49892 1.55961,-0.86525 2.92571,-2.02242 4.28937,-3.15986 1.49262,-1.33138 2.91064,-2.74188 4.22843,-4.24668 1.23987,-1.3807 2.27047,-2.92179 3.28853,-4.46709 1.01569,-1.74859 1.9746,-3.53874 2.77934,-5.39479 0.78887,-1.8428 1.34996,-3.77483 1.84982,-5.71316 0.45694,-1.87962 0.52905,-3.81595 0.5876,-5.74015 0.0993,-2.10573 -0.17665,-4.19022 -0.69427,-6.22629 -0.48724,-2.16925 -1.11283,-4.17351 -2.15496,-6.13717 -1.01829,-1.61377 -2.3157,-3.01201 -3.67168,-4.34351 -1.27318,-1.25947 -2.40549,-2.6575 -3.71453,-3.88013 -1.02971,-0.95341 -2.08762,-1.86767 -3.23936,-2.67041 -1.2234,-0.66738 -2.41643,-1.38893 -3.64385,-2.0493 -1.12751,-0.54765 -2.25172,-1.10229 -3.44519,-1.4924 -0.90132,-0.27602 -1.84216,-0.3174 -2.77688,-0.34738 -1.05912,-0.11857 -2.014,0.11359 -3.00545,0.45569 -0.5671,0.17364 -1.11173,0.36586 -1.61947,0.6716 0,0 -2.38121,-4.45422 -2.38121,-4.45422 l 0,0 c 0.78465,-0.39935 1.56055,-0.77871 2.41392,-1.01241 1.54866,-0.49967 3.1213,-0.85791 4.76158,-0.70858 1.42268,0.0494 2.84742,0.16181 4.21079,0.60576 1.46198,0.49699 2.86075,1.14079 4.23868,1.83607 1.4007,0.75644 2.77496,1.56354 4.15092,2.36262 1.34548,0.95113 2.60326,2.00722 3.80619,3.13354 1.32062,1.26015 2.51248,2.64367 3.78686,3.94992 1.72347,1.69982 3.35967,3.50091 4.59977,5.59377 1.19987,2.30123 2.02848,4.72701 2.58454,7.26439 0.61177,2.49038 0.96312,5.03246 0.84196,7.6042 -0.0718,2.2995 -0.18493,4.60995 -0.74689,6.85214 -0.57215,2.19615 -1.21041,4.38454 -2.11215,6.47113 -0.93192,2.11235 -2.00204,4.16682 -3.18837,6.14777 -1.14683,1.74074 -2.31938,3.46838 -3.71416,5.02461 -1.49567,1.6936 -3.08883,3.29562 -4.78533,4.7891 -1.62943,1.35911 -3.27723,2.72006 -5.14931,3.73862 -1.7643,0.93903 -3.56094,1.85166 -5.58199,2.06309 -1.86729,0.20144 -3.73195,0.31794 -5.61146,0.21729 -2.131,-0.0494 -4.26678,-0.12498 -6.38008,-0.42303 -2.05432,-0.30464 -4.12884,-0.55125 -6.10528,-1.22262 -2.03671,-0.69416 -4.04951,-1.45863 -5.88474,-2.60292 -1.75111,-1.03685 -3.48894,-2.13827 -4.90547,-3.61803 -1.45336,-1.57833 -2.69414,-3.31855 -3.66547,-5.23742 -1.06614,-1.97171 -2.06014,-4.0047 -2.44975,-6.23396 -0.30673,-2.08363 -0.37797,-4.17452 -0.18321,-6.2752 0.1855,-2.2224 0.51875,-4.42551 1.18044,-6.56212 0.60079,-2.33353 1.2712,-4.65005 2.02163,-6.93994 0.73623,-2.32515 1.59949,-4.60245 2.40712,-6.90327 0.80776,-2.10373 1.68381,-4.19893 2.7829,-6.16808 1.03468,-1.77809 2.13545,-3.52149 3.39013,-5.15417 1.11941,-1.38018 2.30648,-2.69312 3.54051,-3.97099 1.06998,-1.08297 2.24065,-2.06152 3.56316,-2.8266 1.14824,-0.67451 2.28945,-1.36306 3.51074,-1.90243 1.61778,-0.72294 3.32617,-1.2217 5.10036,-1.36075 1.813,-0.0232 3.58442,0.24871 5.33929,0.70683 0,0 -1.22499,4.89996 -1.22499,4.89996 z"
       inkscape:connector-curvature="0" />
    <path
       style="opacity:1;fill:#008000;fill-opacity:1;stroke:none;stroke-width:2;stroke-miterlimit:4;stroke-dasharray:none;stroke-dashoffset:0;stroke-opacity:1"
       id="path4211"
       d="m 410.44586,843.22375 c -0.43911,1.91304 -0.60364,3.87206 -0.71892,5.82677 -0.0848,1.70566 -0.0503,3.42277 -0.32608,5.11444 -0.2014,1.23555 -0.41645,1.90479 -0.74341,3.10887 -1.01012,3.11667 -2.39782,6.09512 -3.96625,8.96606 -1.22083,2.27824 -2.72305,4.08187 -4.86472,5.52193 -1.80749,1.01517 -3.94067,1.27771 -5.75546,0.0852 -0.39448,-0.2592 -0.7182,-0.61269 -1.0773,-0.91903 -1.71298,-1.80257 -2.47918,-4.06209 -2.95235,-6.44702 0,0 3.97139,-0.74466 3.97139,-0.74466 l 0,0 c 0.26404,1.54129 0.70957,3.02391 1.74132,4.24092 0.58506,0.75722 0.9465,0.84739 1.85399,0.4074 1.58085,-0.99814 2.65195,-2.45341 3.5399,-4.08695 1.42515,-2.59014 2.67235,-5.28462 3.61227,-8.09079 0.22884,-0.82802 0.4834,-1.66012 0.62717,-2.50963 0.27334,-1.61519 0.21189,-3.25841 0.30607,-4.88709 0.13252,-2.20386 0.32664,-4.41178 0.83242,-6.56644 0,0 3.91996,0.97999 3.91996,0.97999 z"
       inkscape:connector-curvature="0" />
    <path
       style="opacity:1;fill:#008000;fill-opacity:1;stroke:none;stroke-width:2;stroke-miterlimit:4;stroke-dasharray:none;stroke-dashoffset:0;stroke-opacity:1"
       id="path4213"
       d="m 413.7134,827.37398 c -1.39109,1.50149 -2.55905,3.19132 -3.63202,4.92937 -0.36199,0.60254 -0.70035,1.21878 -1.01538,1.84703 0,0 -3.60964,-1.81577 -3.60964,-1.81577 l 0,0 c 0.37031,-0.73431 0.76473,-1.45621 1.19063,-2.15999 1.24262,-1.99795 2.58902,-3.94361 4.20926,-5.65778 0,0 2.85715,2.85714 2.85715,2.85714 z"
       inkscape:connector-curvature="0" />
    <path
       style="opacity:1;fill:#008000;fill-opacity:1;stroke:none;stroke-width:2;stroke-miterlimit:4;stroke-dasharray:none;stroke-dashoffset:0;stroke-opacity:1"
       id="path4215"
       d="m 418.28244,852.01306 c 2.3002,-1.80133 4.62507,-3.57135 6.92369,-5.37487 2.41043,-1.91759 4.7415,-3.93413 7.19396,-5.79822 0.72342,-0.54924 1.44683,-1.09849 2.17071,-1.64712 0.0232,-0.0175 0.0463,-0.0351 0.0695,-0.0526 0,0 2.43977,3.22087 2.43977,3.22087 l 0,0 c -0.0229,0.0173 -0.0458,0.0347 -0.0686,0.052 -0.72273,0.54774 -1.44497,1.09612 -2.16723,1.64448 -2.43693,1.84974 -4.74699,3.85929 -7.14416,5.75977 -2.26767,1.77848 -4.55897,3.52683 -6.83082,5.29979 0,0 -2.58674,-3.10409 -2.58674,-3.10409 z"
       inkscape:connector-curvature="0" />
    <path
       style="opacity:1;fill:#008000;fill-opacity:1;stroke:none;stroke-width:2;stroke-miterlimit:4;stroke-dasharray:none;stroke-dashoffset:0;stroke-opacity:1"
       id="path4217"
       d="m 424.60297,837.27895 c 1.49958,1.98683 3.01326,3.96115 4.48983,5.96539 1.4919,2.18933 3.14816,4.2536 4.90125,6.23715 1.03373,1.15064 2.10854,2.26337 3.19909,3.35999 0.45302,0.48612 0.80648,1.04329 1.06364,1.65326 0,0 -3.75405,1.49454 -3.75405,1.49454 l 0,0 c -0.0366,-0.10941 -0.1121,-0.20189 -0.1748,-0.29874 -1.14657,-1.1532 -2.27627,-2.32366 -3.36242,-3.53426 -1.83054,-2.07399 -3.5653,-4.22853 -5.12581,-6.51531 -1.42886,-1.93949 -2.89581,-3.84799 -4.34082,-5.77529 0,0 3.10409,-2.58673 3.10409,-2.58673 z"
       inkscape:connector-curvature="0" />
    <path
       style="opacity:1;fill:#008000;fill-opacity:1;stroke:none;stroke-width:2;stroke-miterlimit:4;stroke-dasharray:none;stroke-dashoffset:0;stroke-opacity:1"
       id="path4219"
       d="m 450.96035,803.62133 c -0.25923,2.78162 -0.68572,5.54361 -0.98165,8.32137 -0.44752,3.25931 -0.71634,6.53543 -0.86212,9.82079 -0.13257,3.06338 -0.0519,6.13062 -0.17445,9.19363 -0.11812,2.5485 -0.52168,5.07077 -0.75424,7.60989 -0.29436,1.78946 -0.41919,3.60178 -0.6847,5.39388 -0.28087,1.30247 -0.34086,2.63579 -0.54666,3.94824 -0.24056,1.23249 -0.36959,2.47933 -0.59366,3.71488 -0.17931,0.84978 -0.29559,1.70991 -0.35767,2.57564 -0.11367,1.89794 0.35802,0.71953 -3.9483,-0.10861 0.39501,-1.45918 1.0085,-2.85357 1.5956,-4.24385 0.90001,-1.95496 1.64847,-3.97156 2.66251,-5.87203 0.82847,-1.42453 1.76962,-2.75284 3.02331,-3.82792 0.89526,-0.75126 1.9427,-1.2499 3.04635,-1.60796 1.14523,-0.3431 2.30769,-0.34832 3.4785,-0.1657 1.34712,0.17959 2.57375,0.70858 3.72262,1.41182 1.56571,1.11611 2.57467,2.73064 3.41466,4.42282 0.92939,1.72966 1.27078,3.66443 1.65351,5.5669 0.24662,1.39368 0.62876,2.75443 0.8466,4.15405 0.1271,0.83052 0.16758,1.67047 0.18489,2.50943 0,0 -4.0398,0.0813 -4.0398,0.0813 l 0,0 c -0.0129,-0.66116 -0.0399,-1.32357 -0.13902,-1.9783 -0.20126,-1.33887 -0.59365,-2.63515 -0.81409,-3.97045 -0.31462,-1.56764 -0.55729,-3.17332 -1.32696,-4.59818 -0.47934,-1.02333 -1.06312,-2.01665 -1.92501,-2.76345 -0.6776,-0.44311 -1.41486,-0.74651 -2.22439,-0.84746 -0.54026,-0.0933 -1.06453,-0.12393 -1.60545,0.0273 -0.60186,0.18555 -1.17853,0.4374 -1.66596,0.8454 -0.8809,0.72362 -1.46963,1.69214 -2.07051,2.65304 -0.96663,1.78264 -1.63453,3.70044 -2.49985,5.53225 -0.50443,1.1927 -1.03577,2.38811 -1.39335,3.63402 -4.16582,-0.25714 -4.13108,0.96875 -4.00578,-1.14821 0.0745,-1.009 0.20511,-2.01262 0.41197,-3.00367 0.22077,-1.21456 0.34267,-2.44133 0.58287,-3.65267 0.23265,-1.28847 0.23287,-2.61746 0.53858,-3.8974 0.2705,-1.70922 0.35402,-3.44774 0.6555,-5.15447 0.22731,-2.47122 0.6145,-4.92642 0.74069,-7.4057 0.12854,-3.06751 0.033,-6.14042 0.17509,-9.20834 0.15068,-3.36849 0.42252,-6.72815 0.88096,-10.07007 0.29802,-2.78332 0.72212,-5.55132 0.98351,-8.33844 0,0 4.0159,0.44621 4.0159,0.44621 z"
       inkscape:connector-curvature="0" />
    <path
       style="opacity:1;fill:#008000;fill-opacity:1;stroke:none;stroke-width:2;stroke-miterlimit:4;stroke-dasharray:none;stroke-dashoffset:0;stroke-opacity:1"
       id="path4221"
       d="m 489.45574,807.72409 c -1.73301,-0.48255 -3.41383,-0.24378 -5.10691,0.23904 -1.89318,0.74968 -3.32313,2.20657 -4.65586,3.69375 -1.45501,1.63709 -2.3967,3.58036 -3.13022,5.62277 -0.50864,1.598 -0.79142,3.22582 -0.38664,4.86844 0.46314,1.6171 1.50106,2.94045 2.53009,4.23672 1.3185,1.46121 2.7398,2.82399 4.16158,4.18355 1.48665,1.34275 2.8401,2.8052 3.9254,4.48952 0.95348,1.46348 1.83272,2.95618 2.4499,4.59291 0.56466,1.53001 0.95856,3.12397 1.28481,4.72063 0.28525,1.89532 -0.0251,3.76205 -0.63721,5.5568 -0.5797,1.85791 -1.31384,3.16711 -2.74599,4.48845 -1.5307,1.13924 -3.33131,1.57121 -5.18683,1.81146 -2.17221,0.32687 -4.20476,-0.22573 -6.16779,-1.10877 -1.96527,-0.94077 -3.3559,-2.5978 -4.54695,-4.3693 -1.21744,-2.12771 -1.48805,-3.93953 -1.018,-6.32595 0.53032,-2.12408 1.80449,-3.8791 3.17233,-5.53949 1.34297,-1.64533 2.99009,-2.98707 4.62575,-4.32502 1.89319,-1.52514 3.8674,-2.94012 5.88486,-4.29496 1.65988,-1.10844 3.42009,-2.07094 5.02496,-3.25932 1.26676,-0.8784 2.18137,-2.02403 2.95853,-3.33228 0.87527,-1.44793 1.55348,-3.01666 2.02819,-4.63928 0.35309,-1.50926 0.60365,-3.05719 0.35971,-4.59874 -0.25513,-1.44199 -0.60737,-2.97433 -1.52258,-4.15173 -0.68256,-0.90378 -1.67177,-1.10333 -2.728,-1.26591 0,0 0.65911,-3.98649 0.65911,-3.98649 l 0,0 c 2.14054,0.36981 4.05988,1.1224 5.38584,2.94493 1.18296,1.78784 1.92534,3.78268 2.20956,5.91596 0.26077,2.12293 0.0607,4.23046 -0.49241,6.29963 -0.58974,1.94057 -1.37702,3.82712 -2.43568,5.56226 -1.06547,1.75896 -2.33826,3.31772 -4.03624,4.51254 -1.66153,1.2049 -3.43884,2.23593 -5.15943,3.35357 -1.91266,1.28258 -3.78326,2.62335 -5.5782,4.06745 -1.4331,1.17213 -2.89022,2.33297 -4.07016,3.7724 -0.96021,1.15573 -1.91574,2.35198 -2.33748,3.82159 -0.29651,1.13978 -0.14366,2.19183 0.43619,3.23482 0.75038,1.15279 1.61516,2.29144 2.86422,2.93041 1.27228,0.60008 2.55739,1.0002 3.98232,0.7723 1.07037,-0.12735 2.1144,-0.311 3.05752,-0.86903 0.91634,-0.58542 1.19568,-1.82419 1.56742,-2.76919 0.41022,-1.08913 0.59497,-2.24587 0.48577,-3.40935 -0.27809,-1.39817 -0.62845,-2.79303 -1.11877,-4.13212 -0.47795,-1.37714 -1.30633,-2.57891 -2.06514,-3.81338 -0.88774,-1.42402 -2.08151,-2.60345 -3.3101,-3.73895 -1.55363,-1.4896 -3.11413,-2.97652 -4.53589,-4.59498 -1.40755,-1.78446 -2.7471,-3.64257 -3.30953,-5.88499 -0.50701,-2.51175 -0.27018,-4.67758 0.53791,-7.10876 0.92809,-2.52436 2.11589,-4.92803 3.92785,-6.94852 1.863,-2.05186 3.89786,-3.96568 6.57673,-4.88035 2.41229,-0.6536 4.71105,-0.91692 7.16546,-0.26501 0,0 -0.98,3.91997 -0.98,3.91997 z"
       inkscape:connector-curvature="0" />
    <path
       style="opacity:1;fill:#008000;fill-opacity:1;stroke:none;stroke-width:2;stroke-miterlimit:4;stroke-dasharray:none;stroke-dashoffset:0;stroke-opacity:1"
       id="path4223"
       d="m 510.59345,841.24028 c -1.51891,-0.0882 -2.98213,0.28845 -4.41964,0.72672 -0.79907,0.28612 -1.55499,0.82023 -2.02165,1.53874 -0.64442,0.89256 -1.07188,1.90919 -1.3553,2.96723 -0.21708,1.0053 -0.30434,2.03222 -0.0849,3.04054 0.16845,1.36394 0.81308,2.41762 1.75528,3.37914 1.00022,0.94394 2.32695,1.18158 3.64088,1.36166 1.38701,0.0852 2.60395,-0.46007 3.7349,-1.20235 1.19998,-1.01354 1.77924,-2.59172 2.27185,-4.04494 0.3895,-1.32493 0.51492,-2.69977 0.56697,-4.07322 0.0229,-0.93541 0.0112,-1.8712 0.002,-2.80671 -0.005,-0.45816 -0.009,-0.91634 -0.0104,-1.37453 10e-4,-1.42079 -0.19523,0.35201 2.77432,1.60455 0.80376,0.33902 0.59496,-0.86979 0.55478,-0.26286 -0.23264,1.52437 -0.44637,3.0512 -0.5934,4.58692 -0.1209,1.27694 -0.24183,2.6478 0.68351,3.64306 0.83811,0.93556 2.04326,1.3417 3.22153,1.66625 0.7441,0.0633 0.34722,0.04 1.19111,0.0612 0,0 -0.15129,4.03778 -0.15129,4.03778 l 0,0 c -1.40664,-0.0639 -0.69171,0.004 -2.14389,-0.21215 -2.02486,-0.58734 -3.95868,-1.42567 -5.32901,-3.10106 -0.23785,-0.33398 -0.51027,-0.64586 -0.71355,-1.00194 -0.94965,-1.66355 -0.9492,-3.6322 -0.78039,-5.48074 0.17936,-1.8503 0.39917,-3.70893 0.79822,-5.5244 0.10249,-0.26444 0.30932,-0.90162 0.53171,-1.15794 0.26166,-0.30156 0.46838,-0.9187 0.85876,-0.83498 3.19031,0.68425 3.13568,0.5961 3.13818,1.96302 10e-4,0.44924 0.005,0.89846 0.0103,1.34767 0.01,1.00166 0.0221,2.00365 -0.005,3.00517 -0.0713,1.76802 -0.25599,3.53514 -0.78485,5.23285 -0.81392,2.3277 -1.86021,4.65138 -3.92173,6.13562 -1.97931,1.23511 -4.10701,2.02908 -6.48184,1.79289 -2.22668,-0.33299 -4.3701,-0.93953 -6.00437,-2.58974 -1.42893,-1.55161 -2.49356,-3.28609 -2.78784,-5.41545 -0.27446,-1.62529 -0.24463,-3.25191 0.16528,-4.85802 0.44266,-1.55455 1.0746,-3.04851 2.0483,-4.35182 1.08253,-1.32827 2.3777,-2.42242 4.04624,-2.93737 1.81772,-0.55119 3.67927,-0.98795 5.5949,-0.90141 0,0 0,4.04061 0,4.04061 z"
       inkscape:connector-curvature="0" />
    <path
       style="opacity:1;fill:#008000;fill-opacity:1;stroke:none;stroke-width:2;stroke-miterlimit:4;stroke-dasharray:none;stroke-dashoffset:0;stroke-opacity:1"
       id="path4225"
       d="m 533.43492,852.32743 c -0.15198,0.10483 -0.30395,0.20965 -0.45592,0.31448 0,0 -2.26043,-3.34918 -2.26043,-3.34918 l 0,0 c 0.23721,-0.15785 0.47443,-0.31569 0.71164,-0.47353 0,0 2.00471,3.50823 2.00471,3.50823 z"
       inkscape:connector-curvature="0" />
    <path
       style="opacity:1;fill:#008000;fill-opacity:1;stroke:none;stroke-width:2;stroke-miterlimit:4;stroke-dasharray:none;stroke-dashoffset:0;stroke-opacity:1"
       id="path4227"
       d="m 533.09528,851.48244 c -0.88379,1.06158 -1.76322,2.12746 -2.58259,3.24044 -0.0965,0.15881 -0.17279,0.32755 -0.24182,0.49954 0,0 -3.70815,-1.60504 -3.70815,-1.60504 l 0,0 c 0.19915,-0.44829 0.41159,-0.88956 0.69716,-1.29152 0.86801,-1.1769 1.79667,-2.30633 2.73132,-3.43016 0,0 3.10408,2.58674 3.10408,2.58674 z"
       inkscape:connector-curvature="0" />
    <path
       style="opacity:1;fill:#008000;fill-opacity:1;stroke:none;stroke-width:2;stroke-miterlimit:4;stroke-dasharray:none;stroke-dashoffset:0;stroke-opacity:1"
       id="path4229"
       d="m 540.85741,851.68069 c -1.11909,0.98834 -2.24564,1.95911 -3.467,2.81963 -0.10613,0.0932 -0.20021,0.19713 -0.28412,0.3102 0,0 -3.0887,-2.60508 -3.0887,-2.60508 l 0,0 c 0.31964,-0.36842 0.65199,-0.72271 1.0495,-1.01098 1.13321,-0.79394 2.16172,-1.70926 3.20359,-2.61785 0,0 2.58673,3.10408 2.58673,3.10408 z"
       inkscape:connector-curvature="0" />
    <path
       style="opacity:1;fill:#008000;fill-opacity:1;stroke:none;stroke-width:2;stroke-miterlimit:4;stroke-dasharray:none;stroke-dashoffset:0;stroke-opacity:1"
       id="path4231"
       d="m 551.4584,851.87525 c -1.38939,0.9116 -2.7506,1.87574 -4.02803,2.93975 -0.27822,0.23437 -0.54586,0.48056 -0.80875,0.73181 0,0 -2.78602,-2.92654 -2.78602,-2.92654 l 0,0 c 0.32995,-0.31321 0.66449,-0.62157 1.0134,-0.91381 1.51682,-1.25639 3.12266,-2.41699 4.80239,-3.44524 0,0 1.80701,3.61403 1.80701,3.61403 z"
       inkscape:connector-curvature="0" />
    <path
       style="opacity:1;fill:#008000;fill-opacity:1;stroke:none;stroke-width:2;stroke-miterlimit:4;stroke-dasharray:none;stroke-dashoffset:0;stroke-opacity:1"
       id="path4286"
       d="m 356.54207,817.16398 c -0.90142,0.2033 -1.80715,0.44201 -2.57614,0.96857 -0.61814,0.36297 -1.13001,0.85072 -1.56213,1.4186 -0.37872,0.50383 -0.69072,1.05874 -0.96316,1.62658 -0.18078,0.55068 -0.31471,1.11657 -0.39997,1.69011 -0.10037,0.78242 -0.11894,1.57183 -0.13066,2.35957 -0.0651,0.5833 0.17638,1.08282 0.36019,1.61698 0.18445,0.39839 0.51827,0.67334 0.82702,0.96886 0.33553,0.26338 0.70369,0.47214 1.11273,0.59885 0.56661,0.068 1.11044,0.30498 1.68374,0.3037 0.59254,-0.0251 1.18401,-0.0505 1.75788,-0.20527 0.38823,-0.11617 0.81924,-0.22473 1.13197,-0.49364 0.52478,-0.39635 0.80788,-0.9652 1.11768,-1.52634 0.35164,-0.74514 0.65392,-1.50172 0.81879,-2.31004 0.0741,-0.72337 0.18225,-1.46865 0.0887,-2.19441 -0.0689,-0.52243 -0.26279,-1.0406 -0.57261,-1.46907 -0.32646,-0.45472 -0.65827,-0.90464 -0.96528,-1.37518 -0.25433,-0.29467 -0.55242,-0.54238 -0.87133,-0.76388 -0.35758,-0.23771 -0.70518,-0.48521 -1.06631,-0.71695 -0.29976,-0.14405 -0.65381,-0.3861 -0.86406,-0.53661 -0.11265,-0.0341 -0.0107,-0.005 -0.18225,-0.017 -0.0112,-4.6e-4 -0.0224,-9.2e-4 -0.0336,-0.001 0,0 0.1117,-2.13994 0.1117,-2.13994 l 0,0 c 0.03,0.002 0.06,0.003 0.0899,0.005 0.3827,0.0319 0.76089,0.10562 1.09615,0.30361 0.31945,0.20476 0.60798,0.43813 0.95759,0.59459 0.38426,0.25531 0.76594,0.51238 1.14774,0.7731 0.52403,0.38738 1.03503,0.79944 1.4147,1.33709 0.29901,0.47077 0.63578,0.90818 0.95721,1.36279 0.46689,0.74194 0.82564,1.54691 0.91261,2.4298 0.0814,0.94949 0.0206,1.90737 -0.12378,2.84911 -0.21764,1.01408 -0.58073,1.97505 -1.04,2.90523 -0.45567,0.82498 -0.9329,1.62969 -1.70493,2.20259 -0.56498,0.40647 -1.20221,0.68956 -1.88022,0.85512 -0.78507,0.19996 -1.58969,0.26437 -2.39911,0.27214 -0.77062,-0.0522 -1.51375,-0.24758 -2.26614,-0.41319 -0.69985,-0.2447 -1.35402,-0.59478 -1.91466,-1.08519 -0.55455,-0.53643 -1.0947,-1.07578 -1.36902,-1.81911 -0.26023,-0.76401 -0.55365,-1.51563 -0.47558,-2.34357 0.0134,-0.886 0.0372,-1.77382 0.15533,-2.65322 0.12308,-0.7804 0.29743,-1.55908 0.58796,-2.29548 0.34134,-0.70432 0.73046,-1.39208 1.20523,-2.01555 0.58724,-0.73812 1.25235,-1.4044 2.0707,-1.88757 0.98818,-0.63637 2.08515,-1.0212 3.23573,-1.2583 0,0 0.51972,2.07888 0.51972,2.07888 z"
       inkscape:connector-curvature="0" />
    <path
       style="opacity:1;fill:#008000;fill-opacity:1;stroke:none;stroke-width:2;stroke-miterlimit:4;stroke-dasharray:none;stroke-dashoffset:0;stroke-opacity:1"
       id="path4288"
       d="m 369.85364,818.18195 c -1.05903,-0.0494 -1.81046,0.11964 -2.68242,0.70862 -0.80571,0.7086 -1.45682,1.57769 -2.06837,2.45447 -0.46663,0.59096 -0.7786,1.2386 -0.9134,1.9754 -0.0878,0.75561 -0.0793,1.51818 -0.0784,2.27764 -0.008,0.83706 -0.0288,1.67175 0.18487,2.48678 0.18937,0.48959 0.50954,0.92217 0.93693,1.22877 0.49472,0.23616 1.01608,0.41282 1.55255,0.52655 0.73367,0.11053 1.46075,0.18746 2.20295,0.18369 0.47706,0.0187 0.94578,-0.10981 1.30172,-0.44063 0.49191,-0.48746 0.77125,-1.14724 1.04751,-1.77151 0.38257,-1.06753 0.76498,-2.13597 1.05399,-3.23327 0.15469,-0.70179 0.0444,-1.3081 -0.19252,-1.9609 -0.30351,-0.73203 -0.85942,-1.30749 -1.34029,-1.92312 -0.50613,-0.69214 -1.06117,-1.3362 -1.70178,-1.90527 -0.49884,-0.3801 -1.10595,-0.59698 -1.70333,-0.77245 -0.27655,-0.0883 -0.54932,-0.0545 -0.83192,-0.0371 0,0 -0.10095,-2.14047 -0.10095,-2.14047 l 0,0 c 0.522,-0.02 1.0456,-0.0339 1.55154,0.12593 0.89464,0.27463 1.78515,0.61853 2.51152,1.22533 0.73424,0.65781 1.38387,1.39048 1.9656,2.1874 0.61792,0.79636 1.31271,1.54942 1.66581,2.51392 0.39275,1.09807 0.49653,2.08095 0.24764,3.23579 -0.32147,1.20596 -0.73387,2.38449 -1.16714,3.55446 -0.42305,0.94839 -0.88766,1.90945 -1.69367,2.59547 -0.77029,0.56254 -1.63107,0.93135 -2.6059,0.88923 -0.89834,0.002 -1.78414,-0.0896 -2.67053,-0.23359 -0.84377,-0.18979 -1.68092,-0.46398 -2.41392,-0.93235 -0.78573,-0.63875 -1.39903,-1.42689 -1.69796,-2.40949 -0.22871,-0.98556 -0.27917,-1.98059 -0.24557,-2.99086 -9.4e-4,-0.89838 -0.0102,-1.80157 0.11856,-2.69295 0.20981,-1.02491 0.61345,-1.96218 1.26163,-2.79278 0.77255,-1.09676 1.59078,-2.18816 2.65479,-3.02066 1.24521,-0.78997 2.36685,-1.11871 3.85046,-1.05494 0,0 0,2.14286 0,2.14286 z"
       inkscape:connector-curvature="0" />
    <path
       style="opacity:1;fill:#008000;fill-opacity:1;stroke:none;stroke-width:2;stroke-miterlimit:4;stroke-dasharray:none;stroke-dashoffset:0;stroke-opacity:1"
       id="path4290"
       d="m 355.87626,822.12456 c -0.61794,0.49029 -1.21469,0.99849 -1.70338,1.61977 0,0 -1.67814,-1.33255 -1.67814,-1.33255 l 0,0 c 0.61813,-0.77326 1.35254,-1.42734 2.13601,-2.03094 0,0 1.24551,1.74372 1.24551,1.74372 z"
       inkscape:connector-curvature="0" />
    <path
       style="opacity:1;fill:#008000;fill-opacity:1;stroke:none;stroke-width:2;stroke-miterlimit:4;stroke-dasharray:none;stroke-dashoffset:0;stroke-opacity:1"
       id="path4292"
       d="m 368.30489,822.33847 c -0.47995,0.50467 -0.81423,1.0992 -1.09423,1.72987 0,0 -1.95469,-0.87808 -1.95469,-0.87808 l 0,0 c 0.36475,-0.80487 0.79774,-1.57079 1.40273,-2.22361 0,0 1.64619,1.37182 1.64619,1.37182 z"
       inkscape:connector-curvature="0" />
    <path
       style="opacity:1;fill:#008000;fill-opacity:1;stroke:none;stroke-width:2;stroke-miterlimit:4;stroke-dasharray:none;stroke-dashoffset:0;stroke-opacity:1"
       id="path4294"
       d="m 356.68391,836.00466 c 0.36524,0.88872 0.85345,1.76162 1.62265,2.35794 0.55997,0.37842 1.21237,0.47685 1.87013,0.53024 0.64582,-0.0499 1.229,-0.40614 1.74847,-0.77097 0.32022,-0.35122 0.8862,-0.61723 1.09892,-1.05829 0.0116,-0.0235 0.0232,-0.047 0.0348,-0.0705 0,0 1.85493,1.07288 1.85493,1.07288 l 0,0 c -0.0497,0.0824 -0.0994,0.16488 -0.14902,0.24732 -0.4626,0.60489 -1.03528,1.11749 -1.63698,1.58214 -0.94659,0.62839 -1.96538,1.1676 -3.13565,1.13234 -1.09957,-0.0993 -2.16067,-0.34217 -3.06143,-1.02228 -1.01642,-0.88536 -1.7764,-1.98075 -2.25326,-3.2484 0,0 2.00642,-0.7524 2.00642,-0.7524 z"
       inkscape:connector-curvature="0" />
  </g>
</svg>
