<?xml version="1.0" encoding="UTF-8" standalone="no"?>
<!-- Created with Inkscape (http://www.inkscape.org/) -->

<svg
   xmlns:dc="http://purl.org/dc/elements/1.1/"
   xmlns:cc="http://creativecommons.org/ns#"
   xmlns:rdf="http://www.w3.org/1999/02/22-rdf-syntax-ns#"
   xmlns:svg="http://www.w3.org/2000/svg"
   xmlns="http://www.w3.org/2000/svg"
   xmlns:sodipodi="http://sodipodi.sourceforge.net/DTD/sodipodi-0.dtd"
   xmlns:inkscape="http://www.inkscape.org/namespaces/inkscape"
   width="956.55804"
   height="118.31631"
   viewBox="0 0 956.55804 118.31631"
   id="svg2"
   version="1.1"
   inkscape:version="0.91 r13725"
   sodipodi:docname="varint.svg">
  <defs
     id="defs4" />
  <sodipodi:namedview
     id="base"
     pagecolor="#ffffff"
     bordercolor="#666666"
     borderopacity="1.0"
     inkscape:pageopacity="0.0"
     inkscape:pageshadow="2"
     inkscape:zoom="0.70710678"
     inkscape:cx="414.48674"
     inkscape:cy="38.651664"
     inkscape:document-units="px"
     inkscape:current-layer="layer1"
     showgrid="false"
     units="px"
     showborder="true"
     fit-margin-top="0"
     fit-margin-left="0"
     fit-margin-right="0"
     fit-margin-bottom="0"
     inkscape:window-width="1366"
     inkscape:window-height="732"
     inkscape:window-x="0"
     inkscape:window-y="36"
     inkscape:window-maximized="0" />
  <metadata
     id="metadata7">
    <rdf:RDF>
      <cc:Work
         rdf:about="">
        <dc:format>image/svg+xml</dc:format>
        <dc:type
           rdf:resource="http://purl.org/dc/dcmitype/StillImage" />
        <dc:title></dc:title>
      </cc:Work>
    </rdf:RDF>
  </metadata>
  <g
     inkscape:label="Layer 1"
     inkscape:groupmode="layer"
     id="layer1"
     transform="translate(-40.111511,-755.57293)">
    <rect
       style="opacity:1;fill:#ffff00;fill-opacity:1;stroke:none;stroke-width:0.60000002;stroke-miterlimit:4;stroke-dasharray:none;stroke-opacity:1"
       id="rect4136"
       width="90.108185"
       height="45.054092"
       x="550.89258"
       y="827.89392" />
    <rect
       style="opacity:1;fill:#b3b3b3;fill-opacity:1;stroke:none;stroke-width:0.60000002;stroke-miterlimit:4;stroke-dasharray:none;stroke-opacity:1"
       id="rect4136-3"
       width="346.75558"
       height="45.054092"
       x="644.21887"
       y="827.89392" />
    <path
       style="opacity:0.80100002;fill:#cccccc;fill-opacity:1;stroke:none;stroke-width:0.60000002;stroke-miterlimit:4;stroke-dasharray:none;stroke-opacity:1"
       id="path4157"
       d="m 639.39164,823.38999 c 0.0294,-1.86549 -0.0872,-3.73474 0.10673,-5.5921 0.28666,-1.47154 0.50442,-2.94857 0.61151,-4.44381 0.21991,-2.23533 1.7384,-3.30319 3.77725,-3.7803 1.65006,-0.2547 3.32647,-0.21943 4.99101,-0.21352 1.61697,0.0113 3.23395,0.0203 4.85096,0.0251 1.60901,0.004 3.21802,0.004 4.82703,0.004 1.60894,8e-5 3.21789,-5e-5 4.82683,-1.1e-4 1.60907,-6e-5 3.21814,-7e-5 4.8272,-8e-5 1.60909,0 3.21816,0 4.82724,0 1.60907,0 3.21815,0 4.82722,0 1.60908,0 3.21815,0 4.82722,0 1.60908,0 3.21815,0 4.82723,0 1.71123,-0.0412 3.3984,-0.0255 5.08936,0.25057 1.53185,0.29912 3.08539,0.43004 4.64194,0.50377 1.63439,0.25457 3.25334,0.5675 4.90181,0.72177 1.55821,0.12198 3.12218,0.12939 4.6842,0.13751 1.7083,-0.11625 3.37662,0.25155 5.05495,0.49997 1.53153,0.21464 3.07869,0.25968 4.62265,0.28975 1.6402,0.0487 3.28316,-0.0685 4.91414,0.12519 1.3565,0.30841 2.72624,0.50351 4.1125,0.60386 1.53748,0.0873 3.07814,0.0873 4.61757,0.0911 1.60845,8e-4 3.21691,-0.002 4.82536,-0.003 1.45522,0.17852 2.87743,0.51623 4.33774,0.6656 1.5037,0.1253 3.01385,0.13155 4.52172,0.14055 1.60555,0.005 3.21111,8e-4 4.81666,-8.1e-4 1.61036,-0.002 3.22073,-0.002 4.83109,-0.002 1.60921,-1.8e-4 3.21842,-1.4e-4 4.82763,-1.4e-4 1.60907,2e-5 3.21813,3e-5 4.8272,4e-5 1.60907,0 3.21814,0 4.82721,0 1.60908,0 3.21815,0 4.82723,0 1.60907,0 3.21815,0 4.82722,0 1.60907,0 3.21815,0 4.82722,0 1.32837,-0.26388 2.6544,-0.50843 4.00226,-0.65013 1.36246,-0.10868 2.67305,-0.52172 4.02703,-0.72365 1.60013,-0.20124 3.21509,-0.21926 4.82539,-0.23626 1.39532,0.13254 2.72207,-0.22593 4.08133,-0.46334 1.57542,-0.2534 3.17281,-0.2975 4.76492,-0.32945 1.61532,-0.0219 3.23084,-0.0168 4.84626,-0.015 1.60998,0.002 3.21996,0.003 4.82994,0.004 1.60903,4.8e-4 3.21807,4.7e-4 4.8271,4.8e-4 1.60906,-10e-6 3.21812,-3e-5 4.82718,-4e-5 1.60907,-10e-6 3.21815,-10e-6 4.82722,-10e-6 1.60908,0 3.21815,0 4.82723,0 1.60907,0 3.21815,0 4.82722,0 1.35877,0.0181 2.68,-0.37878 4.02209,-0.56762 1.59579,-0.19438 3.20521,-0.21661 4.81058,-0.23537 1.6143,-0.0115 3.22867,-0.006 4.843,-0.005 1.60962,0.002 3.21924,0.002 4.82887,0.003 1.60902,3.1e-4 3.21805,2.8e-4 4.82708,2.8e-4 1.44132,-0.002 2.86925,0.0889 4.28592,-0.19854 1.68351,-0.37329 3.40975,-0.4754 5.12748,-0.55241 1.68608,-0.0599 3.37349,-0.0586 5.06039,-0.0593 1.61281,8e-4 3.22562,0.003 4.83842,0.005 1.60807,8.1e-4 3.21614,8.1e-4 4.82421,8.1e-4 1.60895,5e-5 3.2179,10e-6 4.82686,0 1.60908,-10e-6 3.21816,-2e-5 4.82724,-2e-5 1.60908,0 3.21816,0 4.82724,0 1.60907,0 3.21814,0 4.82722,0 1.60907,0 3.21815,0 4.82722,0 1.60908,0 3.21815,0 4.82723,0 1.60907,0 3.21815,0 4.82722,0 1.60908,0 3.21815,0 4.82723,0 1.55403,0.11839 3.06344,-0.23832 4.58929,-0.46693 1.66725,-0.23881 3.35188,-0.29314 5.03334,-0.32662 1.62016,-0.0221 3.24053,-0.0171 4.86078,-0.0153 1.6087,0.002 3.2174,0.003 4.82609,0.004 1.60888,4.8e-4 3.21775,4.8e-4 4.82662,4.8e-4 1.60908,0 3.21815,-2e-5 4.82721,-3e-5 1.60908,-10e-6 3.21816,-10e-6 4.82723,-10e-6 1.60908,0 3.21815,0 4.82723,0 1.60907,0 3.21815,0 4.82722,0 1.6529,-0.0262 3.28303,-0.0558 4.91033,0.25966 1.33679,0.3168 2.70437,0.427 4.07233,0.49486 1.60516,0.0843 3.21362,-0.0262 4.81012,0.16673 1.3565,0.30954 2.7269,0.50297 4.1135,0.60276 1.5381,0.0868 3.0794,0.0867 4.6193,0.0904 2.0513,0.0495 3.3835,1.29981 4.5292,2.85276 0.8293,1.29982 1.4408,2.63865 1.7737,4.14578 0.21,0.97259 0.1465,1.97365 0.343,2.94473 0,0 -3.1682,0.56484 -3.1682,0.56484 l 0,0 c -0.1557,-0.94479 -0.1934,-1.89108 -0.3224,-2.83944 -0.2166,-1.07951 -0.6681,-1.99743 -1.2385,-2.93658 -0.5106,-0.74235 -0.9609,-1.44358 -1.9246,-1.51395 -1.6155,-0.004 -3.2324,-0.005 -4.8457,-0.0989 -1.4525,-0.10727 -2.8944,-0.29069 -4.3144,-0.62377 -1.48998,-0.24659 -3.03386,0.0126 -4.53643,-0.14122 -1.52319,-0.0773 -3.04593,-0.20464 -4.53529,-0.55197 -1.41668,-0.28749 -2.84461,-0.19587 -4.28596,-0.19851 -1.60907,0 -3.21815,0 -4.82722,0 -1.60908,0 -3.21815,0 -4.82723,0 -1.60907,0 -3.21814,0 -4.82721,1e-5 -1.60908,10e-6 -3.21817,3e-5 -4.82724,3e-5 -1.60928,0 -3.21855,0 -4.82783,-4.8e-4 -1.60945,-6e-4 -3.21891,-0.002 -4.82836,-0.004 -1.59788,-0.002 -3.19588,-0.006 -4.79366,0.0146 -1.54349,0.0303 -3.09023,0.0757 -4.62111,0.29188 -1.68156,0.25082 -3.35306,0.6228 -5.06515,0.5023 -1.60908,0 -3.21815,0 -4.82723,0 -1.60907,0 -3.21815,0 -4.82722,0 -1.60908,0 -3.21815,0 -4.82723,0 -1.60907,0 -3.21815,0 -4.82722,0 -1.60908,0 -3.21815,0 -4.82722,0 -1.60908,0 -3.21815,0 -4.82723,0 -1.60907,0 -3.21816,10e-6 -4.82723,2e-5 -1.60902,2e-5 -3.21803,5e-5 -4.82705,0 -1.60878,-9e-5 -3.21757,-1.8e-4 -4.82635,-8e-4 -1.61156,-8.1e-4 -3.22313,-0.003 -4.83469,-0.005 -1.63967,7.1e-4 -3.27983,-8.1e-4 -4.91873,0.0562 -1.5561,0.0687 -3.12145,0.15347 -4.64618,0.49443 -1.62729,0.31554 -3.25741,0.2859 -4.9103,0.25969 -1.6093,0 -3.2186,3e-5 -4.8279,-2.7e-4 -1.61062,-4.1e-4 -3.22124,-8.1e-4 -4.83186,-0.003 -1.60061,-0.002 -3.20125,-0.006 -4.80184,0.005 -1.46934,0.017 -2.94245,0.0337 -4.40372,0.20477 -1.48885,0.20515 -2.95288,0.65167 -4.4663,0.59844 -1.60907,0 -3.21815,0 -4.82722,0 -1.60908,0 -3.21815,0 -4.82723,0 -1.60906,0 -3.21813,0 -4.82721,0 -1.60906,10e-6 -3.21814,3e-5 -4.8272,4e-5 -1.60944,-10e-6 -3.21887,0 -4.8283,-4.8e-4 -1.61073,-6e-4 -3.22147,-0.002 -4.8322,-0.004 -1.5929,-0.002 -3.1859,-0.006 -4.7787,0.0144 -1.42881,0.0282 -2.86277,0.0618 -4.27757,0.2825 -1.52613,0.2642 -3.03446,0.64199 -4.59902,0.51075 -1.46491,0.0153 -2.93409,0.0279 -4.39065,0.20216 -1.39878,0.20243 -2.75008,0.65118 -4.16305,0.74072 -1.45943,0.14943 -2.8806,0.48726 -4.33473,0.66734 -1.60907,0 -3.21815,0 -4.82722,0 -1.60907,0 -3.21815,0 -4.82722,0 -1.60908,0 -3.21815,0 -4.82723,0 -1.60907,0 -3.21815,0 -4.82722,0 -1.60907,-10e-6 -3.21814,-2e-5 -4.8272,-4e-5 -1.60904,0 -3.21806,-4e-5 -4.8271,1.4e-4 -1.60937,2.7e-4 -3.21873,6.7e-4 -4.82811,0.002 -1.61315,0.002 -3.22631,0.006 -4.83946,8.1e-4 -1.61229,-0.01 -3.22705,-0.0183 -4.83452,-0.15766 -1.34792,-0.14154 -2.67404,-0.38595 -4.00271,-0.64842 -1.61208,0.002 -3.22417,0.005 -4.83626,0.003 -1.61534,-0.004 -3.23201,-0.005 -4.84516,-0.0997 -1.44984,-0.1077 -2.88893,-0.29188 -4.30638,-0.62401 -1.49356,-0.24554 -3.041,0.0197 -4.54784,-0.097 -1.68088,-0.0332 -3.36489,-0.0871 -5.03179,-0.32397 -1.52937,-0.22738 -3.04231,-0.58076 -4.5995,-0.46517 -1.6575,-0.009 -3.31706,-0.0184 -4.97025,-0.15175 -1.59777,-0.1524 -3.17592,-0.41388 -4.75264,-0.71117 -1.68056,-0.0811 -3.35811,-0.22325 -5.0125,-0.54307 -1.51585,-0.25365 -3.0293,-0.23444 -4.56509,-0.20759 -1.60908,0 -3.21815,0 -4.82723,0 -1.60907,0 -3.21814,0 -4.82722,0 -1.60907,0 -3.21815,0 -4.82722,0 -1.60908,0 -3.21814,0 -4.82722,0 -1.60903,10e-6 -3.21806,2e-5 -4.82709,8e-5 -1.60914,6e-5 -3.21827,1.9e-4 -4.8274,1.2e-4 -1.61207,-2.2e-4 -3.22414,-3.8e-4 -4.83621,-0.004 -1.61765,-0.005 -3.23527,-0.0137 -4.85289,-0.0251 -1.43352,-0.005 -2.87502,-0.0353 -4.30047,0.14111 -0.70679,0.12736 -1.14608,0.044 -1.24651,0.86732 -0.11282,1.53915 -0.31685,3.06464 -0.62406,4.57784 -0.22591,1.72699 -0.0121,3.48792 -0.0858,5.22534 0,0 -3.21815,0 -3.21815,0 z"
       inkscape:connector-curvature="0" />
    <path
       style="opacity:0.80100002;fill:#cccccc;fill-opacity:1;stroke:none;stroke-width:0.60000002;stroke-miterlimit:4;stroke-dasharray:none;stroke-opacity:1"
       id="path4159"
       d="m 596.07412,814.22452 c 0.51626,-1.68416 1.16337,-3.32393 1.68166,-5.00679 0.55563,-1.566 1.33821,-3.01958 2.18666,-4.44062 0.46108,-1.1636 1.35625,-2.07389 1.92883,-3.16841 0.62683,-1.07901 1.46273,-2.01185 2.11681,-3.07185 0.73663,-1.13012 1.65038,-2.11534 2.51071,-3.14654 0.79015,-0.86994 1.67826,-1.64741 2.46341,-2.52064 0.79654,-0.80931 1.65538,-1.56338 2.41463,-2.40869 0.88084,-0.84647 1.7148,-1.73261 2.63723,-2.53619 1.24338,-1.05066 2.50411,-2.10361 3.60682,-3.3076 1.50031,-1.42213 3.26921,-2.48942 4.89358,-3.75499 1.64844,-1.40364 3.36582,-2.69927 5.24369,-3.77973 1.49962,-0.89221 2.99461,-1.77431 4.5171,-2.63142 1.18367,-0.77481 2.40529,-1.51637 3.68977,-2.11288 1.55187,-0.59792 3.11896,-1.16486 4.69714,-1.69386 1.39249,-0.48733 2.74157,-1.07499 4.1237,-1.58743 1.3522,-0.45743 2.65553,-0.97054 4.06559,-1.23981 1.45737,-0.55529 2.99839,-0.76727 4.54054,-0.92146 1.61775,-0.40026 3.26203,-0.64843 4.91927,-0.80573 1.6835,-0.13473 3.37339,-0.14361 5.06119,-0.15137 2.02668,-0.002 4.05336,0.002 6.08004,0.003 2.28279,0.002 4.56556,0.002 6.84835,0.002 1.8932,-0.009 3.77106,-0.0872 5.63879,0.25688 1.70894,0.29236 3.40753,0.65729 5.07281,1.14266 1.58597,0.43575 3.15183,0.96211 4.64233,1.65979 1.38634,0.64566 2.83637,1.14837 4.26558,1.69209 1.5971,0.67356 3.16355,1.43123 4.67263,2.2834 1.16657,0.70591 2.30838,1.47939 3.40649,2.29052 1.0824,0.75417 2.08951,1.62319 3.01962,2.55817 0.96929,0.85816 1.85472,1.79379 2.60674,2.84865 0.83264,0.96853 1.52732,2.02936 2.27039,3.06262 0.71169,1.03882 1.16651,2.22731 1.80274,3.30624 0.59038,1.19004 1.07081,2.44435 1.5087,3.70062 0.71258,1.08886 0.86103,2.3869 1.27648,3.58393 0.2511,0.6573 0.41363,1.33959 0.57118,2.02343 0,0 -3.1387,0.71071 -3.1387,0.71071 l 0,0 c -0.13041,-0.58959 -0.27389,-1.17488 -0.49307,-1.73951 -0.37495,-1.20021 -0.59026,-2.43778 -1.25926,-3.53242 -0.36277,-1.07604 -0.78543,-2.14329 -1.26908,-3.16706 -0.5518,-1.00539 -1.0215,-2.05612 -1.62866,-3.03086 -0.73128,-1.05019 -1.45646,-2.09352 -2.28118,-3.07801 -0.62349,-0.93054 -1.45339,-1.68439 -2.27026,-2.44152 -0.79063,-0.83887 -1.71148,-1.56262 -2.64688,-2.23074 -0.97798,-0.75115 -2.0334,-1.42871 -3.07981,-2.07516 -1.34468,-0.79535 -2.78737,-1.43188 -4.21318,-2.06549 -1.51544,-0.57745 -3.05275,-1.11075 -4.52062,-1.80201 -1.3092,-0.66814 -2.75505,-1.0478 -4.1552,-1.47148 -1.5561,-0.46927 -3.15548,-0.78438 -4.75435,-1.06582 -1.66633,-0.32152 -3.35378,-0.17809 -5.04458,-0.20148 -2.28364,-2.5e-4 -4.56729,-5.5e-4 -6.85093,-0.002 -2.0208,-0.002 -4.04161,-0.006 -6.0624,-0.003 -1.59215,0.007 -3.18626,0.0139 -4.7746,0.13726 -1.65434,0.15394 -3.28333,0.44034 -4.90442,0.80431 -1.45783,0.14179 -2.88577,0.37905 -4.26794,0.8827 -1.23482,0.22149 -2.35718,0.71341 -3.54484,1.09683 -1.41549,0.51355 -2.79181,1.12726 -4.21637,1.61986 -1.47386,0.48697 -2.93228,1.02722 -4.38428,1.57118 -1.21469,0.53047 -2.32772,1.2906 -3.44831,1.99084 -1.51849,0.8428 -3.00537,1.72385 -4.49178,2.6171 -1.75303,0.99293 -3.32422,2.2277 -4.86231,3.52412 -1.49567,1.16524 -3.10673,2.1623 -4.52701,3.42094 -1.20297,1.25632 -2.50291,2.42195 -3.8396,3.53149 -0.83465,0.72419 -1.585,1.52626 -2.38246,2.28868 -0.77697,0.82972 -1.6039,1.61205 -2.41408,2.4081 -0.77076,0.82412 -1.59229,1.59808 -2.37019,2.41489 -0.77411,0.91081 -1.58106,1.78889 -2.24745,2.78638 -0.63771,0.99931 -1.39059,1.90958 -2.02206,2.91117 -0.62982,1.11038 -1.46779,2.08663 -1.98418,3.26483 -0.71813,1.20189 -1.39002,2.42272 -1.87547,3.74268 -0.49064,1.57594 -1.06745,3.12398 -1.60004,4.68566 0,0 -3.15565,-0.63113 -3.15565,-0.63113 z"
       inkscape:connector-curvature="0" />
    <path
       style="opacity:0.80100002;fill:#cccccc;fill-opacity:1;stroke:none;stroke-width:0.60000002;stroke-miterlimit:4;stroke-dasharray:none;stroke-opacity:1"
       id="path4161"
       d="m 707.51864,793.10474 c 1.25194,1.05751 2.40185,2.22651 3.6242,3.31568 0.92553,0.72472 1.9312,1.30389 2.95451,1.8774 0.56477,0.17528 1.02565,0.57019 1.56597,0.7967 0.0464,0.0195 0.54637,0.14471 0.29612,-0.0435 -0.0829,0.004 -0.26075,0.095 -0.24863,0.0129 0.0284,-0.1921 0.31483,-0.2458 0.40716,-0.41662 0.19859,-0.36734 0.32377,-0.82926 0.49689,-1.20524 0.47659,-1.18772 0.83398,-2.43142 1.1578,-3.67107 0.41364,-1.35155 1.07288,-2.60087 1.58442,-3.91123 0.29321,-0.95885 0.73404,-1.85142 0.98048,-2.82643 0,0 3.11309,0.81558 3.11309,0.81558 l 0,0 c -0.29497,1.09916 -0.75079,2.12278 -1.1034,3.20054 -0.47846,1.18647 -1.05275,2.32573 -1.46264,3.54145 -0.37813,1.42497 -0.78692,2.85711 -1.35574,4.21679 -0.70517,1.46489 -1.26899,2.77612 -2.91414,3.39407 -1.68972,0.19982 -2.65965,-0.33842 -4.09855,-1.10095 -1.22199,-0.6929 -2.42807,-1.39781 -3.52315,-2.28559 -1.14538,-1.03428 -2.24312,-2.1202 -3.40528,-3.1359 0,0 1.93089,-2.57452 1.93089,-2.57452 z"
       inkscape:connector-curvature="0" />
    <path
       style="opacity:1;fill:#333333;fill-opacity:1;stroke:none;stroke-width:0.60000002;stroke-miterlimit:4;stroke-dasharray:none;stroke-opacity:1"
       id="path4227"
       d="m 560.97643,838.53526 c 0.45931,1.11647 0.72816,2.2895 0.91174,3.47851 0.1521,0.94852 0.28639,1.95069 0.61062,2.85975 0.33716,0.86802 0.46714,1.78606 0.75229,2.66861 0.20185,0.92322 0.57164,1.78851 0.80265,2.70398 0.42189,0.80441 0.49515,1.72075 0.77279,2.5677 0.22784,0.8798 0.52513,1.72914 0.80167,2.59362 0.19126,0.96448 0.39248,1.91295 0.63271,2.86671 0.19776,0.95712 0.4813,1.89262 0.83961,2.80077 0.20376,0.44256 0.24024,0.93724 0.45779,1.37366 0.0228,0.0456 0.1157,0.16791 0.0888,0.12456 -0.32086,-0.51759 -0.18369,-0.22811 -1.21964,-0.39521 -0.21849,0.1009 0.0797,-0.97414 0.0978,-1.11848 0.11863,-1.02445 0.33405,-2.05839 0.6356,-3.04608 0.25287,-0.87254 0.56796,-1.72102 0.84736,-2.58498 0.22449,-1.01948 0.46101,-2.03857 0.76765,-3.03731 0.27996,-1.05428 0.61183,-2.08815 0.9288,-3.13149 0.40743,-0.84276 0.67494,-1.73381 1.02977,-2.59743 0.21947,-0.8213 0.58185,-1.59302 0.78413,-2.41936 0.18363,-0.89507 0.50227,-1.74544 0.64684,-2.65079 -0.0762,-0.0198 0.28032,-1.39595 0.17325,-1.27167 0,0 2.24463,-0.37401 2.24463,-0.37401 l 0,0 c 0.0587,0.7044 -0.0522,1.32207 -0.17227,2.01377 -0.16192,0.96859 -0.47847,1.88481 -0.68612,2.83984 -0.23973,0.92921 -0.61839,1.80664 -0.88563,2.72704 -0.32782,0.79785 -0.56371,1.6274 -0.95843,2.39784 -0.32176,1.04713 -0.65149,2.08487 -0.93278,3.14434 -0.32091,1.00566 -0.52524,2.04344 -0.77712,3.06695 -0.28393,0.85979 -0.5947,1.70361 -0.84408,2.57487 -0.29754,0.83866 -0.42471,1.7667 -0.5453,2.64401 -0.14762,1.09111 -0.34901,2.23154 -1.35216,2.86606 -0.43539,-0.0189 -0.88721,0.0632 -1.30618,-0.0568 -0.64886,-0.18577 -0.92655,-1.70499 -1.13972,-2.25464 -0.39387,-0.9995 -0.70763,-2.02946 -0.92968,-3.0812 -0.22728,-0.90796 -0.43658,-1.81078 -0.59465,-2.73267 -0.2746,-0.87414 -0.57692,-1.73455 -0.81025,-2.62128 -0.26016,-0.89758 -0.40258,-1.82567 -0.80411,-2.68148 -0.20855,-0.8652 -0.57972,-1.67874 -0.75948,-2.55228 -0.28405,-0.88196 -0.42462,-1.79362 -0.75028,-2.66244 -0.32369,-1.04567 -0.54926,-2.13852 -0.69652,-3.22164 -0.1739,-1.15912 -0.48248,-2.27686 -0.89352,-3.37509 0,0 2.23138,-0.44627 2.23138,-0.44627 z"
       inkscape:connector-curvature="0" />
    <path
       style="opacity:1;fill:#333333;fill-opacity:1;stroke:none;stroke-width:0.60000002;stroke-miterlimit:4;stroke-dasharray:none;stroke-opacity:1"
       id="path4229"
       d="m 578.22594,853.20939 c -1.01139,-0.0813 -1.92731,0.29936 -2.86315,0.61158 -0.69872,0.25542 -1.0721,0.61711 -1.4272,1.24852 -0.37417,0.82747 -0.42347,1.74426 -0.47223,2.63761 -0.11322,0.86269 0.0147,1.60767 0.37371,2.37814 0.33793,0.543 0.80134,0.88174 1.33069,1.22631 0.61961,0.27306 1.34983,0.43868 2.02563,0.34344 0.43849,-0.25056 0.528,-0.42186 0.64973,-0.90339 0.17606,-0.94748 0.16465,-1.91752 0.17019,-2.8776 -4.4e-4,-1.13886 -0.008,-2.27771 -0.0118,-3.41657 0.0273,-0.71922 -0.1345,-1.44672 -0.33601,-2.12863 2.68895,0.24698 2.03274,-0.23565 2.02467,1.89172 0.002,1.13865 0.007,2.27728 0.0105,3.41592 0.005,1.02613 -0.0608,2.0431 0.14372,3.05173 0.20766,0.57098 0.56811,0.8724 1.05689,1.21022 0.45602,0.21219 0.97847,0.36067 1.48233,0.29494 0,0 0.0914,2.27374 0.0914,2.27374 l 0,0 c -1.02943,0.009 -2.02639,-0.16469 -2.91127,-0.72771 -0.9189,-0.68553 -1.65987,-1.46346 -1.95171,-2.60996 -0.22394,-1.15548 -0.20243,-2.31321 -0.1869,-3.48686 -0.003,-1.14363 -0.009,-2.28726 -0.0105,-3.4309 8e-4,-0.28309 0.0164,-2.57275 0.20437,-2.62792 0.69191,-0.20309 1.44078,-0.0636 2.16116,-0.0955 0.33982,0.93939 0.49506,1.96657 0.49692,2.9616 0.004,1.14587 0.0115,2.29171 0.0118,3.43758 -0.007,1.18217 0.002,2.37933 -0.27179,3.53665 -0.44373,1.32701 -1.23801,2.20358 -2.64792,2.49969 -1.20144,0.062 -2.40888,-0.11187 -3.46675,-0.7209 -0.85818,-0.584 -1.63897,-1.22576 -2.13135,-2.16381 -0.50833,-1.10891 -0.71298,-2.23634 -0.5797,-3.4591 0.0722,-1.26236 0.19133,-2.5389 0.79105,-3.67804 0.65494,-1.06055 1.46327,-1.82469 2.66129,-2.23991 1.16628,-0.38778 2.32696,-0.81377 3.58226,-0.72819 0,0 0,2.27557 0,2.27557 z"
       inkscape:connector-curvature="0" />
    <path
       style="opacity:1;fill:#333333;fill-opacity:1;stroke:none;stroke-width:0.60000002;stroke-miterlimit:4;stroke-dasharray:none;stroke-opacity:1"
       id="path4231"
       d="m 584.82401,862.54034 c 0,-1.29753 0,-2.59507 0,-3.89259 0,-1.20883 0,-2.41766 0,-3.62649 -0.0754,-1.65106 0.45092,-2.59306 1.97822,-3.24109 1.1643,-0.32598 2.38427,-0.29988 3.58264,-0.30176 0,0 0.003,2.27558 0.003,2.27558 l 0,0 c -0.92759,8e-4 -1.86643,-0.0187 -2.78156,0.15485 -0.71597,0.1588 -0.47509,0.25957 -0.507,1.11242 0,1.20883 0,2.41766 0,3.62649 0,1.29752 0,2.59506 0,3.89259 0,0 -2.27557,0 -2.27557,0 z"
       inkscape:connector-curvature="0" />
    <path
       style="opacity:1;fill:#333333;fill-opacity:1;stroke:none;stroke-width:0.60000002;stroke-miterlimit:4;stroke-dasharray:none;stroke-opacity:1"
       id="path4233"
       d="m 595.40435,862.31169 c 1.22854,-0.0521 2.47371,0.0991 3.69488,-0.0607 1.06999,-0.21724 2.14868,-0.36151 3.23702,-0.44128 1.14234,-0.067 2.28714,-0.0679 3.43103,-0.0708 0,0 0.006,2.27556 0.006,2.27556 l 0,0 c -1.09089,0.002 -2.18262,0.003 -3.27213,0.0648 -1.05729,0.0757 -2.1017,0.2297 -3.14225,0.43241 -1.31335,0.1371 -2.6351,0.0547 -3.95421,0.0755 0,0 0,-2.27557 0,-2.27557 z"
       inkscape:connector-curvature="0" />
    <path
       style="opacity:1;fill:#333333;fill-opacity:1;stroke:none;stroke-width:0.60000002;stroke-miterlimit:4;stroke-dasharray:none;stroke-opacity:1"
       id="path4235"
       d="m 598.34028,861.35682 c 0.61883,-0.89246 0.90861,-1.92998 1.10266,-2.98386 0.16861,-1.11032 0.17558,-2.23585 0.18367,-3.35626 0.081,-1.00097 -0.0417,-1.95301 -0.24197,-2.92685 -0.22532,-1.08958 -0.28188,-2.20187 -0.3188,-3.31072 0.0766,-0.98784 -0.17983,-1.92737 -0.34888,-2.88946 -0.0532,-0.96806 -0.35896,-1.88159 -0.55242,-2.82485 0,0 2.23009,-0.4527 2.23009,-0.4527 l 0,0 c 0.19292,0.96247 0.50889,1.89842 0.56389,2.8855 0.18515,1.06424 0.45484,2.11517 0.38165,3.20648 0.032,0.98013 0.076,1.96406 0.27345,2.92761 0.23183,1.12795 0.36733,2.24597 0.28852,3.40168 -0.009,1.2561 -0.0226,2.51781 -0.22301,3.76113 -0.26779,1.39471 -0.68113,2.75804 -1.51839,3.92764 0,0 -1.82046,-1.36534 -1.82046,-1.36534 z"
       inkscape:connector-curvature="0" />
    <path
       style="opacity:1;fill:#333333;fill-opacity:1;stroke:none;stroke-width:0.60000002;stroke-miterlimit:4;stroke-dasharray:none;stroke-opacity:1"
       id="path4237"
       d="m 592.78302,840.21497 c 1.23316,0.23605 2.48487,0.34316 3.73661,0.41673 1.21497,0.0844 2.43572,-0.002 3.64474,0.14425 0.99387,0.24787 2.01989,0.30555 3.01744,0.52123 0.733,0.22945 1.48526,0.35776 2.24674,0.44062 0,0 -0.25116,2.26168 -0.25116,2.26168 l 0,0 c -0.84852,-0.0958 -1.69073,-0.23119 -2.50847,-0.48527 -0.91662,-0.23805 -1.89594,-0.21376 -2.81148,-0.48348 -1.14063,-0.18545 -2.32302,0.006 -3.47211,-0.12742 -1.35644,-0.0806 -2.71265,-0.19909 -4.04859,-0.45695 0,0 0.44628,-2.23139 0.44628,-2.23139 z"
       inkscape:connector-curvature="0" />
    <path
       style="opacity:1;fill:#333333;fill-opacity:1;stroke:none;stroke-width:0.60000002;stroke-miterlimit:4;stroke-dasharray:none;stroke-opacity:1"
       id="path4239"
       d="m 609.28645,864.24702 c -0.0853,-1.25491 0.17312,-2.48259 0.35488,-3.71606 0.13253,-1.11571 0.15383,-2.22671 0.39557,-3.3266 0.17895,-1.05103 0.69859,-1.96929 1.35949,-2.78723 0.9548,-0.92152 2.22409,-1.15531 3.5041,-1.11309 1.18397,0.25513 2.07963,0.97687 2.77355,1.9376 0.52198,0.92877 0.89875,1.88493 1.10397,2.9304 0.19094,1.17363 0.22117,2.34399 0.005,3.51258 -0.17536,0.74709 -0.2536,1.50944 -0.33154,2.27108 0,0 -2.26374,-0.23169 -2.26374,-0.23169 l 0,0 c 0.0846,-0.82667 0.17289,-1.65383 0.35991,-2.46519 0.1747,-0.88456 0.12745,-1.76978 -0.005,-2.66187 -0.135,-0.74549 -0.40481,-1.40863 -0.75268,-2.07947 -0.23676,-0.42853 -0.65396,-0.6683 -1.03111,-0.94229 -0.53768,-0.0764 -1.14645,0.045 -1.62261,0.30884 -0.46741,0.50158 -0.75632,1.14327 -0.87782,1.81417 -0.23525,1.04325 -0.21174,2.1073 -0.36572,3.16505 -0.16625,1.12448 -0.41493,2.23931 -0.33049,3.38377 0,0 -2.27557,0 -2.27557,0 z"
       inkscape:connector-curvature="0" />
    <path
       style="opacity:1;fill:#333333;fill-opacity:1;stroke:none;stroke-width:0.60000002;stroke-miterlimit:4;stroke-dasharray:none;stroke-opacity:1"
       id="path4241"
       d="m 626.39922,841.37973 c 0.25785,1.33594 0.37632,2.69215 0.45695,4.04857 0.13407,1.23775 0.0279,2.43992 -0.20894,3.65403 -0.0878,0.9665 -0.43766,1.87216 -0.64383,2.81357 -0.17864,0.97056 -0.19624,1.96045 -0.21536,2.94422 -0.1467,1.01529 -0.37629,2.01062 -0.47893,3.03283 -0.0866,1.06502 -0.0904,2.13442 -0.0963,3.20224 -0.002,0.98166 -0.002,1.96333 8.1e-4,2.945 -0.75829,1.45161 -0.14331,1.00461 -2.18477,0.65494 0,0 1.77183,-1.4279 1.77183,-1.4279 l 0,0 c -1.80731,-0.0692 -1.30659,-0.5188 -1.86263,0.77873 -0.002,-0.98782 -0.003,-1.97565 -8.1e-4,-2.96347 0.006,-1.14058 0.0117,-2.28286 0.10799,-3.4202 0.099,-0.95931 0.26908,-1.90355 0.46765,-2.84684 0.0225,-1.13502 0.05,-2.27668 0.26936,-3.39432 0.20819,-0.92243 0.54343,-1.80753 0.63155,-2.75483 0.20087,-1.02816 0.29769,-2.0323 0.17075,-3.08369 -0.0736,-1.25174 -0.18068,-2.50345 -0.41673,-3.73661 0,0 2.23139,-0.44627 2.23139,-0.44627 z"
       inkscape:connector-curvature="0" />
    <path
       style="opacity:1;fill:#333333;fill-opacity:1;stroke:none;stroke-width:0.60000002;stroke-miterlimit:4;stroke-dasharray:none;stroke-opacity:1"
       id="path4243"
       d="m 621.00457,849.79602 c 1.29754,0 2.59506,0 3.89259,0 1.2741,0.16357 2.56802,0.28129 3.82215,0.56483 0.17339,0.0478 0.34677,0.0956 0.52017,0.14338 0,0 -0.60777,2.19292 -0.60777,2.19292 l 0,0 c -0.14661,-0.0409 -0.29322,-0.0818 -0.43983,-0.12269 -1.07147,-0.2772 -2.20625,-0.30483 -3.29472,-0.50286 -1.29753,0 -2.59505,0 -3.89259,0 0,0 0,-2.27558 0,-2.27558 z"
       inkscape:connector-curvature="0" />
    <path
       style="opacity:0.80100002;fill:#cccccc;fill-opacity:1;stroke:none;stroke-width:0.60000002;stroke-miterlimit:4;stroke-dasharray:none;stroke-opacity:1"
       id="path4274"
       d="m 738.75201,783.08038 c 0,0.91749 0,1.83499 0,2.75248 -0.0805,0.77751 -0.25511,1.53837 -0.33352,2.31659 -0.005,0.7629 -0.11283,1.50146 -0.26995,2.24565 -0.13936,0.67929 -0.16786,1.37333 -0.18942,2.0643 -0.0307,0.812 0.0265,1.62529 -0.0696,2.43277 -0.15416,0.67891 -0.25145,1.36448 -0.30154,2.05824 -0.0435,0.76892 -0.0435,1.53942 -0.0454,2.30932 -4.5e-4,0.80422 8e-4,1.60845 0.002,2.41268 6.6e-4,0.80504 7.8e-4,1.61008 8e-4,2.41512 5e-5,0.63841 4e-5,1.27681 3e-5,1.91522 0,0 -1.60907,-2e-5 -1.60907,-2e-5 l 0,0 c 10e-6,-0.63834 10e-6,-1.27669 -3e-5,-1.91505 -8e-5,-0.8046 -1.9e-4,-1.60921 -8.1e-4,-2.41381 -7.3e-4,-0.80603 -0.002,-1.61207 -0.002,-2.41811 0.002,-0.80775 0.002,-1.61614 0.0497,-2.42281 0.0538,-0.72577 0.14573,-1.4462 0.31167,-2.15583 0.12238,-0.7451 -0.009,-1.5168 0.056,-2.26842 0.025,-0.78565 0.0626,-1.57416 0.22333,-2.346 0.14563,-0.6897 0.24094,-1.36798 0.24355,-2.07654 0.0746,-0.72376 0.21041,-1.43557 0.32521,-2.1533 0,-0.91749 0,-1.83499 0,-2.75248 0,0 1.60907,0 1.60907,0 z"
       inkscape:connector-curvature="0" />
    <path
       style="opacity:0.80100002;fill:#cccccc;fill-opacity:1;stroke:none;stroke-width:0.60000002;stroke-miterlimit:4;stroke-dasharray:none;stroke-opacity:1"
       id="path4276"
       d="m 744.22209,801.34415 c 0.82483,0.0545 1.62594,-0.0339 2.43618,-0.17091 0.50167,-0.18833 1.04461,-0.30586 1.47704,-0.63674 0.38059,-0.23126 0.66666,-0.59985 0.85277,-1.00333 0.14949,-0.51199 0.25696,-1.07816 0.17598,-1.61012 -0.0377,-0.53357 -0.26619,-0.95653 -0.54041,-1.39626 -0.28535,-0.29611 -0.62511,-0.53029 -1.01954,-0.65509 -0.60352,-0.1633 -1.20711,-0.15231 -1.81731,-0.0579 -0.51759,0.20041 -1.06736,0.34557 -1.51449,0.68665 -0.32753,0.34237 -0.55334,0.74976 -0.78498,1.16169 -0.23774,0.52032 -0.26227,1.10076 -0.29382,1.66301 -0.0296,0.78017 -0.0236,1.56114 -0.0219,2.34171 0.091,0.49211 0.14271,1.02115 0.44416,1.43739 0.26875,0.41879 0.60833,0.80385 0.9784,1.13808 0.34254,0.42377 0.81123,0.67655 1.31343,0.86694 0.62205,0.20275 1.21821,0.44484 1.86575,0.55714 0.72053,0.0984 1.44953,0.10047 2.17536,0.10662 0.36682,-0.0555 1.26743,0.16822 1.51092,-0.24006 0.0644,-0.0543 0.12886,-0.10857 0.19329,-0.16285 0,0 1.03333,1.23343 1.03333,1.23343 l 0,0 c -0.0819,0.0683 -0.16379,0.13661 -0.2457,0.20492 -0.76341,0.51971 -1.59113,0.63104 -2.50561,0.57358 -0.8162,-0.007 -1.63606,-0.0121 -2.44526,-0.13177 -0.75166,-0.1378 -1.45283,-0.3995 -2.17338,-0.64452 -0.67714,-0.27455 -1.34337,-0.6201 -1.82207,-1.18901 -0.46319,-0.44292 -0.90827,-0.92003 -1.24708,-1.46632 -0.40881,-0.70275 -0.62247,-1.46778 -0.68462,-2.27999 -0.002,-0.81257 -0.008,-1.62559 0.0245,-2.4377 0.0476,-0.81058 0.11926,-1.63224 0.5012,-2.36547 0.3527,-0.61603 0.71051,-1.22511 1.26435,-1.68718 0.67111,-0.44816 1.41546,-0.74839 2.19463,-0.95744 0.87162,-0.12834 1.74049,-0.12342 2.59271,0.13183 0.72714,0.2704 1.37553,0.6955 1.84902,1.32086 0.40292,0.64615 0.7072,1.3132 0.77576,2.08378 0.0678,0.8472 -0.017,1.70991 -0.34195,2.50251 -0.33235,0.62679 -0.76401,1.22388 -1.37763,1.60198 -0.65006,0.4251 -1.36888,0.69658 -2.11865,0.89618 -0.89797,0.15177 -1.79146,0.24666 -2.70444,0.19343 0,0 0,-1.60907 0,-1.60907 z"
       inkscape:connector-curvature="0" />
    <path
       style="opacity:0.80100002;fill:#cccccc;fill-opacity:1;stroke:none;stroke-width:0.60000002;stroke-miterlimit:4;stroke-dasharray:none;stroke-opacity:1"
       id="path4278"
       d="m 754.44048,806.33305 c 0,-0.91749 0,-1.83499 0,-2.75248 0,-0.85477 0,-1.70954 0,-2.5643 -0.0542,-0.81341 0.0373,-1.60073 0.19817,-2.39533 0.2079,-0.79705 0.6624,-1.44996 1.21706,-2.04272 0.61321,-0.492 1.33527,-0.83792 2.08755,-1.05834 0.80073,-0.18869 1.62704,-0.1998 2.44531,-0.21277 0.83797,0.0148 1.52648,0.36523 2.19641,0.82949 0.56798,0.43164 0.87228,1.06823 1.23787,1.65622 0.31279,0.59879 0.63371,1.18857 0.83949,1.83442 0.17576,0.6779 0.40172,1.33194 0.51867,2.02578 0.10983,0.80326 0.11575,1.61556 0.12317,2.42481 0,0 -1.60901,0.0146 -1.60901,0.0146 l 0,0 c -0.006,-0.72648 -0.01,-1.45564 -0.10176,-2.17746 -0.0999,-0.62259 -0.31712,-1.20459 -0.46877,-1.81388 -0.15264,-0.52428 -0.44223,-0.98685 -0.67858,-1.4755 -0.23899,-0.40207 -0.44092,-0.8346 -0.7776,-1.16648 -0.39337,-0.27262 -0.75411,-0.52231 -1.25471,-0.54316 -0.67888,0.0105 -1.36444,0.0142 -2.03209,0.1521 -0.48844,0.13065 -0.93442,0.36603 -1.36544,0.62473 -0.3621,0.35973 -0.63824,0.7604 -0.80049,1.24741 -0.13991,0.691 -0.22187,1.36652 -0.16617,2.07604 0,0.85477 0,1.70953 0,2.56431 0,0.91749 0,1.83498 0,2.75247 0,0 -1.60908,0 -1.60908,0 z"
       inkscape:connector-curvature="0" />
    <path
       style="opacity:0.80100002;fill:#cccccc;fill-opacity:1;stroke:none;stroke-width:0.60000002;stroke-miterlimit:4;stroke-dasharray:none;stroke-opacity:1"
       id="path4280"
       d="m 773.50879,797.32146 c -0.63566,-0.0118 -1.29484,0.091 -1.84566,0.42369 -0.45336,0.25934 -0.86555,0.60825 -1.21786,0.99456 -0.30467,0.38518 -0.50632,0.76 -0.61,1.23855 -0.13758,0.51799 -0.0432,0.9376 0.17015,1.40295 0.2385,0.38126 0.56557,0.62 0.93772,0.863 0.49241,0.24136 1.05347,0.26066 1.59106,0.29168 0.59454,-0.008 1.2585,0.1346 1.81064,-0.15016 0.30582,-0.26899 0.50554,-0.62861 0.70914,-0.98312 0.21588,-0.55103 0.27305,-1.14351 0.43207,-1.71385 0.18235,-0.63502 0.22421,-1.29522 0.25498,-1.95149 0.0729,-1.61278 -0.48939,-1.34613 1.63178,-1.02574 -0.0551,0.5967 0.1233,1.16287 0.22718,1.74425 0.12845,0.79257 0.15037,1.59645 0.16655,2.39754 0.0111,0.80942 0.009,1.61896 0.008,2.42843 0.0699,0.78696 -0.12194,1.54495 -0.25645,2.31208 -0.0899,0.70918 -0.32952,1.38934 -0.61779,2.03966 -0.2129,0.69097 -0.63511,1.21671 -1.14988,1.70432 -0.566,0.44588 -1.19934,0.79671 -1.88324,1.02252 -0.68049,0.17872 -1.33832,0.40302 -2.03544,0.51919 -0.82561,0.12062 -1.64633,0.1442 -2.46709,-0.007 -0.75688,-0.1134 -1.41486,-0.48588 -2.0005,-0.96018 -0.46536,-0.38432 -0.90216,-0.80772 -1.31341,-1.24975 -0.24935,-0.22612 -0.11283,-0.0937 -0.4014,-0.40547 0,0 1.18949,-1.08363 1.18949,-1.08363 l 0,0 c 0.22217,0.25023 0.0919,0.11312 0.39934,0.40321 0.35516,0.39959 0.7559,0.76398 1.16456,1.10663 0.34836,0.3251 0.79208,0.53275 1.26102,0.60816 0.63424,0.1244 1.26868,0.0854 1.90887,-8e-5 0.62048,-0.0984 1.20128,-0.3116 1.80781,-0.4648 0.46144,-0.13623 0.86839,-0.39003 1.26393,-0.6575 0.36311,-0.3434 0.65205,-0.68058 0.78501,-1.18794 0.23595,-0.53184 0.43918,-1.08418 0.50405,-1.66654 0.11987,-0.67765 0.30143,-1.33854 0.23204,-2.03465 8.1e-4,-0.79814 0.003,-1.59634 -0.007,-2.39444 -0.0142,-0.71759 -0.0309,-1.43787 -0.14207,-2.14838 -0.11883,-0.67355 -0.31223,-1.33859 -0.25198,-2.03023 2.08598,-0.28423 1.60663,-0.62973 1.58455,1.10679 -0.0374,0.77686 -0.0959,1.55686 -0.31253,2.30807 -0.19606,0.69986 -0.241,1.44159 -0.59211,2.09192 -0.38931,0.65953 -0.7957,1.28876 -1.49313,1.66271 -0.8153,0.30204 -1.64841,0.33552 -2.51165,0.26568 -0.82642,-0.0502 -1.66529,-0.12625 -2.39228,-0.56177 -0.60731,-0.41445 -1.16067,-0.86927 -1.50692,-1.5353 -0.35402,-0.78893 -0.47816,-1.57987 -0.27104,-2.43387 0.18347,-0.74867 0.51088,-1.38792 1.00878,-1.97838 0.48113,-0.49669 1.0062,-0.96674 1.61568,-1.30052 0.81164,-0.42075 1.69432,-0.65474 2.6157,-0.61991 0,0 0,1.60908 0,1.60908 z"
       inkscape:connector-curvature="0" />
    <path
       style="opacity:0.80100002;fill:#cccccc;fill-opacity:1;stroke:none;stroke-width:0.60000002;stroke-miterlimit:4;stroke-dasharray:none;stroke-opacity:1"
       id="path4282"
       d="m 784.24086,786.94529 c 0.18233,0.94465 0.2661,1.90363 0.32311,2.86277 0.0442,0.86921 0.0472,1.73974 0.0493,2.60983 4.7e-4,0.80685 -8.1e-4,1.6137 -0.002,2.42055 -6.8e-4,0.80362 -7.9e-4,1.60724 -8e-4,2.41086 -5e-5,0.80445 -4e-5,1.60889 -4e-5,2.41333 1e-5,0.80455 2e-5,1.60909 2e-5,2.41364 0,0.80454 0,1.60908 0,2.41362 0,0.39668 0,0.35073 0,0.7083 0,0 -1.60908,0 -1.60908,0 l 0,0 c 0,-0.45256 0,-0.18871 0,-0.7083 0,-0.80454 0,-1.60908 0,-2.41361 0,-0.80455 0,-1.60909 -10e-6,-2.41363 0,-0.8045 -2e-5,-1.609 3e-5,-2.4135 7e-5,-0.80406 1.9e-4,-1.60813 8.1e-4,-2.41219 7.4e-4,-0.80504 0.002,-1.6101 0.002,-2.41515 -0.002,-0.83973 -0.005,-1.67988 -0.0465,-2.51878 -0.052,-0.88511 -0.12776,-1.77021 -0.29467,-2.64218 0,0 1.57783,-0.31556 1.57783,-0.31556 z"
       inkscape:connector-curvature="0" />
    <path
       style="opacity:0.80100002;fill:#cccccc;fill-opacity:1;stroke:none;stroke-width:0.60000002;stroke-miterlimit:4;stroke-dasharray:none;stroke-opacity:1"
       id="path4284"
       d="m 780.82854,796.51692 c 0.7947,-0.0102 1.57772,-0.19272 2.36699,-0.286 0.63219,-0.2225 1.31521,-0.26509 1.95057,-0.46231 0.61714,-0.15622 1.17735,-0.44782 1.78752,-0.62757 0.2689,-0.12821 0.54899,-0.22677 0.8299,-0.32438 0,0 0.52235,1.52193 0.52235,1.52193 l 0,0 c -0.30769,0.10386 -0.60622,0.22764 -0.90758,0.34886 -0.61221,0.16966 -1.16865,0.48949 -1.79181,0.6288 -0.72696,0.19654 -1.47728,0.30508 -2.20301,0.51273 -0.85153,0.0996 -1.69557,0.29907 -2.55493,0.29702 0,0 0,-1.60908 0,-1.60908 z"
       inkscape:connector-curvature="0" />
    <path
       style="opacity:0.80100002;fill:#cccccc;fill-opacity:1;stroke:none;stroke-width:0.60000002;stroke-miterlimit:4;stroke-dasharray:none;stroke-opacity:1"
       id="path4286"
       d="m 793.05828,784.68945 c 0,0.9175 0,1.83499 0,2.75249 0,0.85476 0,1.70953 0,2.56431 0,0.80594 0,1.61189 0,2.41784 0,0.80384 0,1.60768 0,2.41153 0.0266,0.75663 -0.19666,1.48858 -0.29922,2.23294 -0.0389,0.67444 -0.16816,1.37273 -0.0603,2.04507 0.16273,0.70532 0.25571,1.42065 0.31039,2.14154 0.0488,0.80739 0.0496,1.61663 0.0517,2.42519 -0.004,0.92288 0.18644,0.87546 -1.61017,0.29148 -2.6e-4,-8e-5 -6.6e-4,-0.39007 -8.1e-4,-0.61304 -6.2e-4,-0.77576 -5.7e-4,-1.55153 -5.8e-4,-2.3273 -2.7e-4,-0.78555 0.15255,-1.58102 0.37745,-2.33266 0.17393,-0.6703 0.49374,-1.26091 0.86869,-1.83605 0.46651,-0.67762 1.04148,-1.10512 1.82123,-1.36001 0.81251,-0.21965 1.61122,-0.0386 2.37336,0.26121 0.69725,0.3158 1.17752,0.85748 1.61026,1.4684 0.39315,0.62414 0.68676,1.26277 0.84936,1.98393 0.26093,0.65274 0.39333,1.33665 0.4745,2.03167 0.003,0.36729 0.0917,0.72276 0.16369,1.08032 0,0 -1.57765,0.31648 -1.57765,0.31648 l 0,0 c -0.0802,-0.4011 -0.17378,-0.80306 -0.18469,-1.21387 -0.0719,-0.64481 -0.21882,-1.26474 -0.44828,-1.87316 -0.10597,-0.51852 -0.32403,-0.95628 -0.59841,-1.40733 -0.2467,-0.36696 -0.48716,-0.67517 -0.88075,-0.89022 -0.41618,-0.16584 -0.85833,-0.32468 -1.30979,-0.21902 -0.43568,0.11536 -0.67652,0.33158 -0.94512,0.7007 -0.29676,0.45474 -0.55649,0.90661 -0.68289,1.44425 -0.20592,0.57893 -0.28508,1.23513 -0.30188,1.84534 0,0.77516 -4e-5,1.55031 5.8e-4,2.32547 1.2e-4,0.10855 2.1e-4,0.21711 3.7e-4,0.32567 1.4e-4,0.0947 0.0908,0.25557 5.4e-4,0.28416 -1.79419,0.56805 -1.60282,0.62904 -1.60796,-0.28202 -0.002,-0.76989 -0.002,-1.54043 -0.0472,-2.3093 -0.0514,-0.69534 -0.152,-1.38188 -0.30258,-2.0631 -0.0873,-0.8203 -0.0229,-1.64684 0.0635,-2.4659 0.0944,-0.67098 0.29283,-1.33153 0.28382,-2.01084 0,-0.80385 0,-1.60769 0,-2.41153 0,-0.80595 0,-1.6119 0,-2.41784 0,-0.85478 0,-1.70955 0,-2.56431 0,-0.9175 0,-1.83499 0,-2.75249 0,0 1.60907,0 1.60907,0 z"
       inkscape:connector-curvature="0" />
    <rect
       style="opacity:1;fill:#ffff00;fill-opacity:1;stroke:none;stroke-width:0.60000002;stroke-miterlimit:4;stroke-dasharray:none;stroke-opacity:1"
       id="rect4136-6"
       width="90.108185"
       height="45.054092"
       x="40.111511"
       y="828.81732" />
    <rect
       style="opacity:1;fill:#b3b3b3;fill-opacity:1;stroke:none;stroke-width:0.60000002;stroke-miterlimit:4;stroke-dasharray:none;stroke-opacity:1"
       id="rect4136-3-7"
       width="110.25558"
       height="45.054092"
       x="133.43787"
       y="828.81732" />
    <path
       style="opacity:1;fill:#333333;fill-opacity:1;stroke:none;stroke-width:0.60000002;stroke-miterlimit:4;stroke-dasharray:none;stroke-opacity:1"
       id="path4227-6"
       d="m 50.19539,839.4586 c 0.45931,1.1165 0.72816,2.2895 0.91174,3.4785 0.1521,0.9486 0.28639,1.9507 0.61062,2.8598 0.33716,0.868 0.46714,1.7861 0.75229,2.6686 0.20185,0.9232 0.57164,1.7885 0.80265,2.704 0.42189,0.8044 0.49515,1.7207 0.77279,2.5677 0.22784,0.8798 0.52513,1.7291 0.80167,2.5936 0.19126,0.9645 0.39248,1.913 0.63271,2.8667 0.19776,0.9571 0.4813,1.8926 0.83961,2.8008 0.20376,0.4425 0.24024,0.9372 0.45779,1.3736 0.0228,0.046 0.1157,0.168 0.0888,0.1246 -0.32086,-0.5176 -0.18369,-0.2281 -1.21964,-0.3952 -0.21849,0.1009 0.0797,-0.9741 0.0978,-1.1185 0.11863,-1.0244 0.33405,-2.0584 0.6356,-3.0461 0.25287,-0.8725 0.56796,-1.721 0.84736,-2.5849 0.22449,-1.0195 0.46101,-2.0386 0.76765,-3.0374 0.27996,-1.0542 0.61183,-2.0881 0.9288,-3.1314 0.40743,-0.8428 0.67494,-1.7339 1.02977,-2.5975 0.21947,-0.8213 0.58185,-1.593 0.78413,-2.4193 0.18363,-0.8951 0.50227,-1.7455 0.64684,-2.6508 -0.0762,-0.02 0.28032,-1.396 0.17325,-1.2717 0,0 2.24463,-0.374 2.24463,-0.374 l 0,0 c 0.0587,0.7044 -0.0522,1.3221 -0.17227,2.0138 -0.16192,0.9686 -0.47847,1.8848 -0.68612,2.8398 -0.23973,0.9292 -0.61839,1.8066 -0.88563,2.727 -0.32782,0.7979 -0.56371,1.6274 -0.95843,2.3979 -0.32176,1.0471 -0.65149,2.0849 -0.93278,3.1443 -0.32091,1.0057 -0.52524,2.0435 -0.77712,3.067 -0.28393,0.8598 -0.5947,1.7036 -0.84408,2.5748 -0.29754,0.8387 -0.42471,1.7667 -0.5453,2.6441 -0.14762,1.0911 -0.34901,2.2315 -1.35216,2.866 -0.43539,-0.019 -0.88721,0.063 -1.30618,-0.057 -0.64886,-0.1858 -0.92655,-1.705 -1.13972,-2.2546 -0.39387,-0.9995 -0.70763,-2.0295 -0.92968,-3.0812 -0.22728,-0.908 -0.43658,-1.8108 -0.59465,-2.7327 -0.2746,-0.8741 -0.57692,-1.7345 -0.81025,-2.6213 -0.26016,-0.8976 -0.40258,-1.8256 -0.80411,-2.6815 -0.20855,-0.8652 -0.57972,-1.6787 -0.75948,-2.5522 -0.28405,-0.882 -0.42462,-1.7937 -0.75028,-2.6625 -0.32369,-1.0456 -0.54926,-2.1385 -0.69652,-3.2216 -0.1739,-1.1591 -0.48248,-2.2769 -0.89352,-3.3751 0,0 2.23138,-0.4463 2.23138,-0.4463 z"
       inkscape:connector-curvature="0" />
    <path
       style="opacity:1;fill:#333333;fill-opacity:1;stroke:none;stroke-width:0.60000002;stroke-miterlimit:4;stroke-dasharray:none;stroke-opacity:1"
       id="path4229-2"
       d="m 67.4449,854.1328 c -1.01139,-0.081 -1.92731,0.2993 -2.86315,0.6115 -0.69872,0.2555 -1.0721,0.6172 -1.4272,1.2486 -0.37417,0.8274 -0.42347,1.7442 -0.47223,2.6376 -0.11322,0.8627 0.0147,1.6076 0.37371,2.3781 0.33793,0.543 0.80134,0.8818 1.33069,1.2263 0.61961,0.2731 1.34983,0.4387 2.02563,0.3435 0.43849,-0.2506 0.528,-0.4219 0.64973,-0.9034 0.17606,-0.9475 0.16465,-1.9175 0.17019,-2.8776 -4.4e-4,-1.1389 -0.008,-2.2777 -0.0118,-3.4166 0.0273,-0.7192 -0.1345,-1.4467 -0.33601,-2.1286 2.68895,0.247 2.03274,-0.2357 2.02467,1.8917 0.002,1.1386 0.007,2.2773 0.0105,3.4159 0.005,1.0261 -0.0608,2.0431 0.14372,3.0517 0.20766,0.571 0.56811,0.8724 1.05689,1.2103 0.45602,0.2122 0.97847,0.3606 1.48233,0.2949 0,0 0.0914,2.2737 0.0914,2.2737 l 0,0 c -1.02943,0.01 -2.02639,-0.1646 -2.91127,-0.7277 -0.9189,-0.6855 -1.65987,-1.4634 -1.95171,-2.6099 -0.22394,-1.1555 -0.20243,-2.3132 -0.1869,-3.4869 -0.003,-1.1436 -0.009,-2.2872 -0.0105,-3.4309 8e-4,-0.2831 0.0164,-2.5727 0.20437,-2.6279 0.69191,-0.2031 1.44078,-0.064 2.16116,-0.096 0.33982,0.9394 0.49506,1.9666 0.49692,2.9616 0.004,1.1459 0.0115,2.2917 0.0118,3.4376 -0.007,1.1821 0.002,2.3793 -0.27179,3.5366 -0.44373,1.327 -1.23801,2.2036 -2.64792,2.4997 -1.20144,0.062 -2.40888,-0.1119 -3.46675,-0.7209 -0.85818,-0.584 -1.63897,-1.2257 -2.13135,-2.1638 -0.50833,-1.1089 -0.71298,-2.2363 -0.5797,-3.4591 0.0722,-1.2624 0.19133,-2.5389 0.79105,-3.678 0.65494,-1.0606 1.46327,-1.8247 2.66129,-2.2399 1.16628,-0.3878 2.32696,-0.8138 3.58226,-0.7282 0,0 0,2.2755 0,2.2755 z"
       inkscape:connector-curvature="0" />
    <path
       style="opacity:1;fill:#333333;fill-opacity:1;stroke:none;stroke-width:0.60000002;stroke-miterlimit:4;stroke-dasharray:none;stroke-opacity:1"
       id="path4231-9"
       d="m 74.04297,863.4637 c 0,-1.2975 0,-2.5951 0,-3.8926 0,-1.2088 0,-2.4176 0,-3.6265 -0.0754,-1.651 0.45092,-2.593 1.97822,-3.2411 1.1643,-0.3259 2.38427,-0.2998 3.58264,-0.3017 0,0 0.003,2.2756 0.003,2.2756 l 0,0 c -0.92759,8e-4 -1.86643,-0.019 -2.78156,0.1548 -0.71597,0.1588 -0.47509,0.2596 -0.507,1.1124 0,1.2089 0,2.4177 0,3.6265 0,1.2975 0,2.5951 0,3.8926 0,0 -2.27557,0 -2.27557,0 z"
       inkscape:connector-curvature="0" />
    <path
       style="opacity:1;fill:#333333;fill-opacity:1;stroke:none;stroke-width:0.60000002;stroke-miterlimit:4;stroke-dasharray:none;stroke-opacity:1"
       id="path4233-1"
       d="m 84.62331,863.2351 c 1.22854,-0.052 2.47371,0.099 3.69488,-0.061 1.06999,-0.2173 2.14868,-0.3615 3.23702,-0.4413 1.14234,-0.067 2.28714,-0.068 3.43103,-0.071 0,0 0.006,2.2755 0.006,2.2755 l 0,0 c -1.09089,0 -2.18262,0 -3.27213,0.065 -1.05729,0.076 -2.1017,0.2297 -3.14225,0.4325 -1.31335,0.1371 -2.6351,0.055 -3.95421,0.076 0,0 0,-2.2756 0,-2.2756 z"
       inkscape:connector-curvature="0" />
    <path
       style="opacity:1;fill:#333333;fill-opacity:1;stroke:none;stroke-width:0.60000002;stroke-miterlimit:4;stroke-dasharray:none;stroke-opacity:1"
       id="path4235-2"
       d="m 87.55924,862.2802 c 0.61883,-0.8925 0.90861,-1.93 1.10266,-2.9839 0.16861,-1.1103 0.17558,-2.2358 0.18367,-3.3562 0.081,-1.001 -0.0417,-1.953 -0.24197,-2.9269 -0.22532,-1.0896 -0.28188,-2.2018 -0.3188,-3.3107 0.0766,-0.9878 -0.17983,-1.9274 -0.34888,-2.8895 -0.0532,-0.968 -0.35896,-1.8815 -0.55242,-2.8248 0,0 2.23009,-0.4527 2.23009,-0.4527 l 0,0 c 0.19292,0.9625 0.50889,1.8984 0.56389,2.8855 0.18515,1.0642 0.45484,2.1152 0.38165,3.2065 0.032,0.9801 0.076,1.964 0.27345,2.9276 0.23183,1.1279 0.36733,2.246 0.28852,3.4017 -0.009,1.2561 -0.0226,2.5178 -0.22301,3.7611 -0.26779,1.3947 -0.68113,2.758 -1.51839,3.9276 0,0 -1.82046,-1.3653 -1.82046,-1.3653 z"
       inkscape:connector-curvature="0" />
    <path
       style="opacity:1;fill:#333333;fill-opacity:1;stroke:none;stroke-width:0.60000002;stroke-miterlimit:4;stroke-dasharray:none;stroke-opacity:1"
       id="path4237-7"
       d="m 82.00198,841.1383 c 1.23316,0.2361 2.48487,0.3432 3.73661,0.4168 1.21497,0.084 2.43572,0 3.64474,0.1442 0.99387,0.2479 2.01989,0.3056 3.01744,0.5213 0.733,0.2294 1.48526,0.3577 2.24674,0.4406 0,0 -0.25116,2.2617 -0.25116,2.2617 l 0,0 c -0.84852,-0.096 -1.69073,-0.2312 -2.50847,-0.4853 -0.91662,-0.2381 -1.89594,-0.2138 -2.81148,-0.4835 -1.14063,-0.1854 -2.32302,0.01 -3.47211,-0.1274 -1.35644,-0.081 -2.71265,-0.1991 -4.04859,-0.457 0,0 0.44628,-2.2314 0.44628,-2.2314 z"
       inkscape:connector-curvature="0" />
    <path
       style="opacity:1;fill:#333333;fill-opacity:1;stroke:none;stroke-width:0.60000002;stroke-miterlimit:4;stroke-dasharray:none;stroke-opacity:1"
       id="path4239-0"
       d="m 98.50541,865.1704 c -0.0853,-1.2549 0.17312,-2.4826 0.35488,-3.7161 0.13253,-1.1157 0.15383,-2.2267 0.39557,-3.3266 0.17895,-1.051 0.69859,-1.9693 1.35949,-2.7872 0.9548,-0.9215 2.22409,-1.1553 3.5041,-1.1131 1.18397,0.2551 2.07963,0.9769 2.77355,1.9376 0.52198,0.9288 0.89875,1.8849 1.10397,2.9304 0.19094,1.1736 0.22117,2.344 0.005,3.5126 -0.17536,0.7471 -0.2536,1.5094 -0.33154,2.2711 0,0 -2.26374,-0.2317 -2.26374,-0.2317 l 0,0 c 0.0846,-0.8267 0.17289,-1.6538 0.35991,-2.4652 0.1747,-0.8846 0.12745,-1.7698 -0.005,-2.6619 -0.135,-0.7455 -0.40481,-1.4086 -0.75268,-2.0794 -0.23676,-0.4286 -0.65396,-0.6683 -1.03111,-0.9423 -0.53768,-0.076 -1.14645,0.045 -1.62261,0.3088 -0.46741,0.5016 -0.75632,1.1433 -0.87782,1.8142 -0.23525,1.0432 -0.21174,2.1073 -0.36572,3.165 -0.16625,1.1245 -0.41493,2.2393 -0.33049,3.3838 0,0 -2.27557,0 -2.27557,0 z"
       inkscape:connector-curvature="0" />
    <path
       style="opacity:1;fill:#333333;fill-opacity:1;stroke:none;stroke-width:0.60000002;stroke-miterlimit:4;stroke-dasharray:none;stroke-opacity:1"
       id="path4241-9"
       d="m 115.61818,842.3031 c 0.25785,1.3359 0.37632,2.6922 0.45695,4.0486 0.13407,1.2377 0.0279,2.4399 -0.20894,3.654 -0.0878,0.9665 -0.43766,1.8722 -0.64383,2.8136 -0.17864,0.9705 -0.19624,1.9604 -0.21536,2.9442 -0.1467,1.0153 -0.37629,2.0106 -0.47893,3.0328 -0.0866,1.065 -0.0904,2.1344 -0.0963,3.2023 -0.002,0.9816 -0.002,1.9633 8.1e-4,2.945 -0.75829,1.4516 -0.14331,1.0046 -2.18477,0.6549 0,0 1.77183,-1.4279 1.77183,-1.4279 l 0,0 c -1.80731,-0.069 -1.30659,-0.5188 -1.86263,0.7787 -0.002,-0.9878 -0.003,-1.9756 -8.1e-4,-2.9634 0.006,-1.1406 0.0117,-2.2829 0.10799,-3.4202 0.099,-0.9593 0.26908,-1.9036 0.46765,-2.8469 0.0225,-1.135 0.05,-2.2767 0.26936,-3.3943 0.20819,-0.9224 0.54343,-1.8075 0.63155,-2.7548 0.20087,-1.0282 0.29769,-2.0323 0.17075,-3.0837 -0.0736,-1.2518 -0.18068,-2.5035 -0.41673,-3.7366 0,0 2.23139,-0.4463 2.23139,-0.4463 z"
       inkscape:connector-curvature="0" />
    <path
       style="opacity:1;fill:#333333;fill-opacity:1;stroke:none;stroke-width:0.60000002;stroke-miterlimit:4;stroke-dasharray:none;stroke-opacity:1"
       id="path4243-3"
       d="m 110.22353,850.7194 c 1.29754,0 2.59506,0 3.89259,0 1.2741,0.1636 2.56802,0.2813 3.82215,0.5648 0.17339,0.048 0.34677,0.096 0.52017,0.1434 0,0 -0.60777,2.1929 -0.60777,2.1929 l 0,0 c -0.14661,-0.041 -0.29322,-0.082 -0.43983,-0.1227 -1.07147,-0.2772 -2.20625,-0.3048 -3.29472,-0.5028 -1.29753,0 -2.59505,0 -3.89259,0 0,0 0,-2.2756 0,-2.2756 z"
       inkscape:connector-curvature="0" />
    <rect
       style="opacity:1;fill:#b3b3b3;fill-opacity:1;stroke:none;stroke-width:0.60000002;stroke-miterlimit:4;stroke-dasharray:none;stroke-opacity:1"
       id="rect4136-3-7-7"
       width="110.25558"
       height="45.054092"
       x="245.87222"
       y="828.83514" />
    <rect
       style="opacity:1;fill:#b3b3b3;fill-opacity:1;stroke:none;stroke-width:0.60000002;stroke-miterlimit:4;stroke-dasharray:none;stroke-opacity:1"
       id="rect4136-3-7-7-9"
       width="110.25558"
       height="45.054092"
       x="358.37222"
       y="828.83514" />
    <path
       style="opacity:0.80100002;fill:#cccccc;fill-opacity:1;stroke:none;stroke-width:0.60000002;stroke-miterlimit:4;stroke-dasharray:none;stroke-opacity:1"
       id="path4418"
       d="m 84.75,821.06314 c -0.04602,-1.24735 0.120733,-2.48872 0.393201,-3.70315 0.286966,-1.03362 0.433044,-2.09179 0.7383,-3.11983 0.231621,-0.91163 0.460791,-1.82708 0.785855,-2.71045 0.292729,-0.79958 0.647128,-1.57334 0.998676,-2.34869 0.321727,-0.81861 0.637186,-1.64268 1.022992,-2.43385 0.329933,-0.69397 0.659826,-1.38587 0.984329,-2.0829 0.331878,-0.86142 0.870542,-1.61371 1.407064,-2.35654 0.542707,-0.76522 1.147898,-1.47943 1.733694,-2.21075 0.499346,-0.58537 1.079742,-1.09542 1.589943,-1.66935 0.613426,-0.62853 1.262198,-1.21501 1.966257,-1.74157 0.65007,-0.49596 1.246544,-1.05152 1.86348,-1.58609 0.686679,-0.44191 1.302595,-0.97468 2.005979,-1.3886 0.64787,-0.42696 1.3375,-0.80696 2.04686,-1.12355 0.69148,-0.41819 1.45704,-0.69096 2.18322,-1.04102 0.92768,-0.37144 1.81642,-0.82413 2.77346,-1.11802 0.70191,-0.32553 1.45012,-0.5087 2.16937,-0.7864 0.8681,-0.2871 1.76007,-0.50106 2.62469,-0.79938 0.93117,-0.26663 1.84908,-0.55899 2.7743,-0.84473 0.86473,-0.15392 1.68688,-0.45478 2.54243,-0.64789 0.86682,-0.0936 1.70581,-0.23675 2.55415,-0.43107 0.97767,-0.21566 1.97938,-0.26198 2.97657,-0.29314 1.00749,-0.0221 2.0153,-0.0185 3.02296,-0.0175 1.00082,0.002 2.00164,0.003 3.00246,0.003 0.99993,4.3e-4 1.99987,4.3e-4 2.99981,4.5e-4 1.01992,0 2.03984,-10e-6 3.05976,-2e-5 1.41229,-1e-5 2.82458,-1e-5 4.23687,-1e-5 1.47138,-0.0709 2.92153,0.0446 4.37759,0.23722 1.47985,0.14854 2.75827,0.17338 4.20976,0.5777 1.22162,0.30325 2.44293,0.62683 3.67774,0.87525 1.36676,0.0716 2.61741,0.6234 3.93116,0.93904 1.31838,0.42809 2.66665,0.69533 3.98736,1.11505 1.28395,0.48936 2.6334,0.79135 3.9189,1.26531 1.32657,0.51058 2.62832,1.08147 3.92852,1.65579 1.02503,0.45937 2.08765,0.82192 3.13736,1.21751 0.92391,0.3106 1.84567,0.63717 2.72779,1.05354 0.70962,0.33307 1.42576,0.65601 2.11661,1.02696 0.63724,0.37614 1.25267,0.78492 1.88867,1.16565 0.6614,0.43028 1.20687,0.99844 1.80054,1.50958 0.63837,0.57951 1.00486,1.35834 1.45776,2.07093 0.40303,0.75311 0.70851,1.56392 0.99001,2.37122 0.30001,0.66195 0.64058,1.30366 0.92487,1.97289 0.22909,0.71134 0.52012,1.3996 0.84163,2.07326 0.328,0.74111 0.69034,1.46609 1.00635,2.21513 0.356,0.78794 0.58682,1.63325 0.92602,2.4256 0.42427,0.84169 0.47117,1.78409 0.67591,2.68402 0.2666,1.021 0.39224,2.06658 0.46579,3.1167 -0.0209,0.89243 0.0821,1.74563 0.25885,2.61496 0.15697,0.76033 0.21015,1.53501 0.26069,2.30792 0,0 -2.49468,0.16293 -2.49468,0.16293 l 0,0 c -0.0431,-0.66031 -0.0827,-1.32283 -0.21588,-1.97271 -0.19822,-0.97485 -0.32041,-1.94301 -0.30303,-2.94083 -0.0633,-0.93188 -0.17571,-1.85865 -0.41596,-2.76381 -0.15866,-0.76701 -0.20624,-1.56221 -0.55227,-2.27918 -0.3074,-0.7949 -0.56786,-1.60659 -0.9107,-2.38826 -0.29735,-0.71339 -0.64032,-1.40313 -0.95739,-2.10586 -0.33957,-0.71181 -0.64924,-1.44146 -0.89413,-2.19098 -0.28876,-0.72295 -0.69065,-1.39739 -0.98102,-2.12122 -0.21353,-0.63966 -0.4643,-1.27588 -0.75917,-1.87965 -0.30542,-0.51192 -0.56841,-1.05463 -0.97514,-1.4962 -0.47498,-0.42354 -0.92349,-0.87357 -1.44113,-1.24623 -0.60826,-0.36953 -1.20053,-0.76241 -1.81189,-1.12113 -0.6338,-0.38003 -1.34374,-0.62977 -2.00063,-0.96636 -0.79343,-0.41768 -1.67996,-0.64415 -2.51477,-0.96126 -1.09076,-0.41664 -2.1997,-0.78786 -3.26514,-1.27003 -1.26164,-0.56295 -2.52896,-1.1122 -3.81752,-1.60969 -0.7761,-0.32728 -0.0652,-0.0556 -1.16096,-0.34841 -0.88916,-0.2376 -1.72039,-0.63844 -2.61214,-0.86555 -1.26648,-0.40261 -2.56062,-0.65364 -3.82431,-1.06923 -1.28455,-0.31888 -2.49889,-0.8462 -3.83634,-0.91779 -1.2935,-0.2666 -2.57501,-0.59707 -3.8553,-0.91826 -0.33504,-0.0954 -0.66152,-0.23513 -1.00708,-0.27916 -0.94307,-0.12015 -1.91505,-0.0379 -2.8535,-0.22672 -1.34797,-0.17828 -2.68667,-0.28788 -4.0498,-0.21564 -1.41229,0 -2.82457,0 -4.23685,1e-5 -1.01994,10e-6 -2.03988,2e-5 -3.05982,2e-5 -1.00037,-2e-5 -2.00074,-2e-5 -3.0011,-4.5e-4 -1.00122,-5.4e-4 -2.00244,-10e-4 -3.00366,-0.003 -0.9811,-10e-4 -1.96236,-0.005 -2.94331,0.0163 -0.83552,0.0254 -1.67584,0.0562 -2.49617,0.23137 -0.85219,0.19468 -1.69943,0.356 -2.57072,0.43481 -0.79139,0.1709 -1.54904,0.46746 -2.35023,0.59719 -0.90341,0.27476 -1.79878,0.56524 -2.70706,0.82306 -0.83426,0.27769 -1.68418,0.50688 -2.5247,0.76321 -0.78029,0.30121 -1.58721,0.5095 -2.35355,0.84937 -0.8371,0.23966 -1.59752,0.67592 -2.41193,0.97858 -0.75663,0.35898 -1.54303,0.65392 -2.26674,1.07906 -0.63831,0.26149 -1.23241,0.63684 -1.81184,1.00666 -0.58106,0.29585 -1.028,0.8058 -1.607388,1.1091 -0.670114,0.56642 -1.304365,1.17458 -2.00849,1.70145 -0.581951,0.4188 -1.099781,0.91159 -1.605148,1.41697 -0.488772,0.52497 -1.007372,1.02004 -1.488876,1.55185 -0.563285,0.69329 -1.135878,1.37633 -1.653441,2.10581 -0.446788,0.61586 -0.903175,1.22996 -1.168126,1.95075 -0.338732,0.71852 -0.677827,1.43225 -1.01689,2.14984 -0.402798,0.74443 -0.63879,1.57353 -0.980657,2.34578 -0.335157,0.72645 -0.664076,1.45284 -0.938036,2.20412 -0.333852,0.81004 -0.479183,1.69129 -0.724483,2.52989 -0.292098,0.97704 -0.415526,1.9887 -0.69869,2.97004 -0.24823,1.02592 -0.363765,2.08387 -0.328775,3.13925 0,0 -2.5,0 -2.5,0 z"
       inkscape:connector-curvature="0" />
    <path
       style="opacity:0.80100002;fill:#cccccc;fill-opacity:1;stroke:none;stroke-width:0.60000002;stroke-miterlimit:4;stroke-dasharray:none;stroke-opacity:1"
       id="path4420"
       d="m 181.17943,817.85141 c 0.62778,0.71537 1.29659,1.39331 1.93492,2.0993 0.54023,0.55441 1.10193,1.0879 1.63119,1.65293 0.62516,0.55528 1.11181,1.24593 1.59846,1.92073 0.81126,1.05796 0.92367,0.65874 0.16954,0.53259 -0.0861,0.0178 -0.17065,0.0605 -0.25826,0.0533 -0.0751,-0.006 0.0632,-0.13789 0.10718,-0.19909 0.24549,-0.34156 0.50816,-0.67834 0.77413,-1.00404 0.39027,-0.61151 0.80473,-1.2053 1.2266,-1.79716 0.32091,-0.40438 0.6904,-0.76296 1.02568,-1.15406 0,0 1.88092,1.64687 1.88092,1.64687 l 0,0 c -0.28906,0.32589 -0.58907,0.63847 -0.87613,0.96567 -0.46084,0.63791 -0.89153,1.29162 -1.33722,1.93999 -0.6484,0.748 -1.06021,1.68974 -2.08523,2.00624 -1.50657,0.11302 -1.80996,-0.51662 -2.66105,-1.53655 -0.42114,-0.59668 -0.85273,-1.19601 -1.4037,-1.68107 -0.52232,-0.58456 -1.11745,-1.10299 -1.65246,-1.67632 -0.6809,-0.76583 -1.41432,-1.4842 -2.07457,-2.26936 0,0 2,-1.5 2,-1.5 z"
       inkscape:connector-curvature="0" />
    <path
       style="opacity:0.80100002;fill:#cccccc;fill-opacity:1;stroke:none;stroke-width:0.60000002;stroke-miterlimit:4;stroke-dasharray:none;stroke-opacity:1"
       id="path4422"
       d="m 138.8348,785.08197 c 0.87886,-0.31163 1.75627,-0.6975 2.50135,-1.26656 0.76836,-0.53635 1.54671,-1.04001 2.42818,-1.36623 1.01284,-0.30101 2.07483,-0.32065 3.12269,-0.34097 1.00748,-0.0103 2.01503,-0.003 3.02253,-4.4e-4 1.21639,0.003 2.43278,0.004 3.64917,0.004 1.59148,3.5e-4 3.18296,2.8e-4 4.77445,2.7e-4 1.69583,-3e-5 3.39167,-4e-5 5.08751,-5e-5 1.6963,-10e-6 3.3926,-10e-6 5.08891,-10e-6 1.6687,0 3.33741,0 5.00612,0 1.52302,0 3.04603,0 4.56905,0 1.1108,0 2.2216,0 3.3324,0 0.99946,0 1.99892,0 2.99837,0 0.99824,0 1.99647,0 2.99471,0 0.9999,0 1.99979,0 2.99969,0 1.00002,0 2.00004,0 3.00006,0 1,0 2.00001,0 3.00001,0 1.04346,0.1127 2.07132,0.31758 3.1171,0.41488 0.96146,0.0757 1.92648,0.0815 2.89034,0.0872 1.05868,-0.0115 2.09558,0.2449 3.14299,0.37087 1.09715,0.1155 2.20196,0.11681 3.30387,0.12625 1.45288,0.007 2.90577,0.004 4.35866,0.003 1.35516,-10e-4 2.71033,-0.002 4.06549,-0.002 1.04414,-1.9e-4 2.08828,-1.7e-4 3.13241,-1.7e-4 1.04086,0.11234 2.06596,0.31764 3.10911,0.41493 1.03925,0.007 2.05034,0.24508 3.07208,0.40319 0.96859,0.0624 1.90981,0.22143 2.85534,0.43361 0.86296,0.10437 1.70071,0.28919 2.54367,0.49772 0.86934,0.13432 1.70607,0.40341 2.5718,0.55901 1.03367,0.0985 2.03743,0.35897 3.06507,0.50193 1.18022,0.13951 2.33263,0.42265 3.5146,0.55659 1.22169,0.31929 2.4812,0.41421 3.70684,0.70046 1.2372,0.37412 2.49485,0.65914 3.73627,1.01547 0.96972,0.19242 1.92576,0.4134 2.88371,0.65887 0.91979,0.25049 1.85884,0.44935 2.77028,0.72923 0.79997,0.22841 1.57954,0.51028 2.37178,0.76286 0.81226,0.21891 1.59506,0.5437 2.38188,0.84126 0.84851,0.28896 1.66871,0.6587 2.50267,0.98919 0.8035,0.33781 1.6329,0.60643 2.44514,0.92037 0.80955,0.32965 1.64589,0.59045 2.45131,0.92881 0.77543,0.32054 1.5484,0.65309 2.29243,1.04162 0.67158,0.34038 1.35888,0.65123 2.02174,1.00871 0.70111,0.31033 1.3543,0.7138 2.03283,1.06943 0.84464,0.5047 1.6226,1.07674 2.24315,1.84261 0.49943,0.56198 0.87973,1.20611 1.30949,1.8174 0.3874,0.71526 0.80621,1.41418 1.19169,2.1318 0.45893,0.69715 0.89163,1.42119 1.24761,2.1771 0.36893,0.66801 0.73392,1.34408 1.03856,2.04482 0.4106,0.64815 0.62395,1.3869 0.91698,2.08993 0.25373,0.82361 0.47275,1.65319 0.70787,2.48338 0.14473,0.85275 0.31581,1.68498 0.52408,2.5239 0.20522,0.71605 0.3653,1.47879 0.65165,2.16859 0.32821,0.76483 0.44325,1.5871 0.69788,2.37419 0.17966,0.81865 0.50465,1.58666 0.70984,2.39863 0.29146,0.67692 0.46348,1.3889 0.72799,2.07491 0.028,0.0552 0.0559,0.11034 0.0839,0.1655 0,0 -2.25362,1.08222 -2.25362,1.08222 l 0,0 c -0.0543,-0.11615 -0.10862,-0.2323 -0.16292,-0.34846 -0.30214,-0.78386 -0.5134,-1.59265 -0.82239,-2.3747 -0.18031,-0.75598 -0.50663,-1.46645 -0.66178,-2.22976 -0.24278,-0.75288 -0.36268,-1.53306 -0.66066,-2.26727 -0.28403,-0.79908 -0.52138,-1.6245 -0.73663,-2.44316 -0.20042,-0.81241 -0.38278,-1.62008 -0.50402,-2.44798 -0.20439,-0.7339 -0.41468,-1.46335 -0.60885,-2.19843 -0.29174,-0.70041 -0.50694,-1.42753 -0.91123,-2.07625 -0.27716,-0.68573 -0.66904,-1.32367 -1.0095,-1.97889 -0.31332,-0.7205 -0.77248,-1.37511 -1.18131,-2.04309 -0.33765,-0.64151 -0.72298,-1.25829 -1.05324,-1.90238 -0.39077,-0.5867 -0.76561,-1.17877 -1.23344,-1.71149 -0.30783,-0.52814 -0.96252,-0.77245 -1.42066,-1.14358 -0.69318,-0.36964 -1.36347,-0.77624 -2.08168,-1.09599 -0.63523,-0.38108 -1.34549,-0.63394 -1.99352,-0.99319 -0.66092,-0.38598 -1.40186,-0.63066 -2.09677,-0.94646 -0.77117,-0.35355 -1.60855,-0.56018 -2.3866,-0.90182 -0.79479,-0.34045 -1.64393,-0.57222 -2.43872,-0.91782 -0.82112,-0.32723 -1.62795,-0.69367 -2.46503,-0.97457 -0.74848,-0.28406 -1.49042,-0.59862 -2.26505,-0.80028 -0.78932,-0.25776 -1.56575,-0.53494 -2.36564,-0.76087 -0.85196,-0.29412 -1.76454,-0.43537 -2.63002,-0.68877 -0.9808,-0.25292 -1.95998,-0.46945 -2.95159,-0.67735 -1.21066,-0.34822 -2.4384,-0.62314 -3.6446,-0.991 -1.11051,-0.29746 -2.28557,-0.30492 -3.39267,-0.64395 -1.20307,-0.13918 -2.37781,-0.4151 -3.5778,-0.56465 -1.06195,-0.15044 -2.09815,-0.41319 -3.16593,-0.51821 -0.91756,-0.16938 -1.8043,-0.44434 -2.72509,-0.59196 -0.82622,-0.20547 -1.64279,-0.37763 -2.48945,-0.48492 -0.89273,-0.20056 -1.7757,-0.34232 -2.69173,-0.40255 -0.97297,-0.15193 -1.93258,-0.38235 -2.92274,-0.38456 -0.96466,-0.0919 -1.91887,-0.24478 -2.87434,-0.40388 -1.04396,0 -2.08791,-2e-5 -3.13187,1.7e-4 -1.35468,2.9e-4 -2.70936,8.3e-4 -4.06404,0.002 -1.46071,10e-4 -2.92145,0.004 -4.38216,-0.003 -1.19525,-0.0103 -2.39354,-0.0145 -3.58322,-0.14433 -0.95269,-0.11629 -1.89672,-0.34665 -2.85701,-0.35274 -1.03706,-0.006 -2.07536,-0.0139 -3.10966,-0.0982 -0.96748,-0.0919 -1.92459,-0.2447 -2.8829,-0.40389 -1,0 -2.00001,0 -3.00001,0 -1.00002,0 -2.00004,0 -3.00006,0 -0.9999,0 -1.99979,0 -2.99969,0 -0.99824,0 -1.99647,0 -2.99471,0 -0.99945,0 -1.99891,0 -2.99837,0 -1.1108,0 -2.2216,0 -3.3324,0 -1.52302,0 -3.04603,0 -4.56905,0 -1.66871,0 -3.33742,0 -5.00612,0 -1.6963,0 -3.3926,0 -5.0889,10e-6 -1.69583,10e-6 -3.39166,2e-5 -5.0875,5e-5 -1.59177,10e-6 -3.18355,8e-5 -4.77532,-2.7e-4 -1.21859,-4.2e-4 -2.43718,-7.7e-4 -3.65576,-0.004 -0.98917,-0.003 -1.97839,-0.01 -2.96754,10e-6 -0.78164,0.0146 -1.57408,0.0178 -2.33883,0.19911 -0.66348,0.20966 -1.2061,0.66356 -1.78856,1.02994 -0.93438,0.66214 -1.95641,1.20034 -3.0439,1.56634 0,0 -0.92848,-2.32119 -0.92848,-2.32119 z"
       inkscape:connector-curvature="0" />
    <path
       style="opacity:0.80100002;fill:#cccccc;fill-opacity:1;stroke:none;stroke-width:0.60000002;stroke-miterlimit:4;stroke-dasharray:none;stroke-opacity:1"
       id="path4424"
       d="m 278.98923,821.04161 c 0.79415,0.55806 1.6059,1.08484 2.43525,1.59045 0.75771,0.49778 1.54514,0.94361 2.31606,1.4182 0.60908,0.32031 1.25945,0.58468 1.91329,0.80605 0.0289,-0.005 0.11023,0.002 0.0868,-0.0152 -0.045,-0.0339 -0.12973,0.002 -0.16351,-0.0427 -0.004,-0.005 0.3163,-0.284 0.39157,-0.37668 0.15916,-0.54594 0.37496,-1.07458 0.53698,-1.62097 0.1166,-0.79051 0.40105,-1.53912 0.56567,-2.31887 0.21082,-0.81784 0.59968,-1.56564 0.89709,-2.34978 0,0 2.32981,0.90665 2.32981,0.90665 l 0,0 c -0.26104,0.65979 -0.57384,1.2913 -0.7834,1.97163 -0.18608,0.84561 -0.4751,1.65989 -0.61662,2.51542 -0.28175,0.91584 -0.55134,1.87942 -1.14313,2.64486 -0.816,0.79047 -1.73681,1.36705 -2.92382,1.04645 -0.8265,-0.29332 -1.6558,-0.61733 -2.41885,-1.04881 -0.75194,-0.48611 -1.55035,-0.90115 -2.29332,-1.4041 -0.89429,-0.54945 -1.77107,-1.12008 -2.62986,-1.72259 0,0 1.5,-2 1.5,-2 z"
       inkscape:connector-curvature="0" />
    <path
       style="opacity:0.80100002;fill:#cccccc;fill-opacity:1;stroke:none;stroke-width:0.60000002;stroke-miterlimit:4;stroke-dasharray:none;stroke-opacity:1"
       id="path4426"
       d="m 230.46357,784.05671 c 1.4392,-0.4788 2.94314,-0.68737 4.44736,-0.82681 1.38264,-0.36974 2.76471,-0.72446 4.1821,-0.93052 1.49013,-0.18115 2.9939,-0.18363 4.49266,-0.19351 1.68611,-0.004 3.37224,8.8e-4 5.05835,0.003 1.73817,0.002 3.47633,0.003 5.2145,0.003 1.78956,2.1e-4 3.57913,1.6e-4 5.36869,1.4e-4 1.88386,-0.14073 3.70504,0.13014 5.54795,0.47402 1.63324,0.32687 3.2962,0.43308 4.95699,0.49374 1.63364,0.0453 3.26815,0.0399 4.90226,0.0386 1.48643,-0.002 2.97286,-0.004 4.45929,-0.005 1.10738,-8.1e-4 2.21476,-9.1e-4 3.32214,-9.7e-4 0.99982,-10e-6 1.99964,2e-5 2.99946,3e-5 0.99831,10e-6 1.99662,2e-5 2.99492,2e-5 0.9999,0 1.9998,0 2.99969,0 1.00002,0 2.00004,0 3.00006,0 1,0 2.00001,0 3.00001,0 0.83235,0.009 1.64239,-0.23436 2.46512,-0.35038 1.0022,-0.12258 2.013,-0.13685 3.02127,-0.14864 1.00431,-0.007 2.00866,-0.004 3.013,-0.003 0.9135,0.10713 1.80455,0.32441 2.72053,0.41805 0.9217,-0.009 1.80481,0.2443 2.70313,0.40798 0.89467,0.066 1.76245,0.22883 2.63545,0.42913 0.87179,0.15469 1.7451,0.20323 2.6081,0.41089 0.79159,0.21164 1.60885,0.26935 2.42359,0.30869 1.00788,0.15793 2.00599,0.35186 3.0228,0.4462 0.98908,0.005 1.94889,0.13556 2.91464,0.33659 0.96912,0.16534 1.95338,0.20218 2.93417,0.23008 0.92304,0.12722 1.82659,0.34044 2.75485,0.43363 0.88324,0.0519 1.72755,0.33351 2.60137,0.45894 0.92353,0.0352 1.81916,0.18171 2.72041,0.37747 0.9142,0.12068 1.798,0.38613 2.70382,0.5522 0.92112,0.16502 1.84736,0.38911 2.73853,0.67898 0.81545,0.35939 1.71123,0.3748 2.57254,0.54538 1.08049,0.30596 2.20595,0.33842 3.31178,0.48903 1.54531,0.28194 3.12203,0.27834 4.66182,0.57189 1.42425,0.43578 2.90797,0.58176 4.35829,0.88675 0.94521,0.29503 1.93546,0.35668 2.89697,0.56345 0.77088,0.24476 1.56621,0.35072 2.36938,0.40949 0.85505,0.17538 1.69653,0.37821 2.56622,0.468 0.88141,0.0541 1.72455,0.33328 2.59701,0.45784 0.89301,0.0208 1.74588,0.28169 2.61692,0.44527 0.96042,0.18899 1.93283,0.37595 2.87444,0.64722 0.85333,0.25428 1.70561,0.51645 2.5673,0.74269 0.83919,0.18475 1.62895,0.51174 2.47838,0.65684 0.82192,0.29793 1.68582,0.42358 2.52471,0.65096 0.78887,0.1997 1.55201,0.46864 2.3276,0.71193 0.83485,0.16326 1.65499,0.39676 2.44255,0.71865 0.73038,0.30792 1.45565,0.63353 2.15545,1.00627 0.66406,0.34152 1.34563,0.65004 2.00288,1.00488 0.70146,0.31058 1.3551,0.71412 2.03404,1.06989 0.86614,0.42792 1.66012,0.96213 2.44412,1.52161 0.73717,0.55311 1.40104,1.20636 2.02694,1.8817 0.51153,0.51747 1.03605,1.02324 1.53168,1.55649 0.51536,0.64725 0.91477,1.36419 1.31753,2.08317 0.44856,0.60607 0.84595,1.26377 1.17445,1.94337 0.37126,0.65887 0.73274,1.33004 1.03502,2.02447 0.2337,0.71365 0.52365,1.40592 0.84588,2.0833 0.28194,0.67547 0.6179,1.32682 0.95877,1.97492 0.33859,0.70323 0.50589,1.48884 0.87474,2.1777 0.24764,0.52212 0.60096,1.01223 1.02342,1.40968 0.63325,0.54806 0.79569,1.40976 1.27791,2.05772 0.0702,0.11106 0.14039,0.22212 0.21058,0.33319 0,0 -2.11466,1.33348 -2.11466,1.33348 l 0,0 c -0.0587,-0.0934 -0.11743,-0.18672 -0.17615,-0.28008 -0.35236,-0.55212 -0.58193,-1.17237 -0.97661,-1.68777 -0.58982,-0.61671 -1.13685,-1.29192 -1.49315,-2.07374 -0.31903,-0.68603 -0.57621,-1.39979 -0.83953,-2.10802 -0.35494,-0.67735 -0.70119,-1.36136 -1.00299,-2.06334 -0.33714,-0.70903 -0.64395,-1.43567 -0.88982,-2.18103 -0.27246,-0.67404 -0.65723,-1.30162 -0.99831,-1.94209 -0.2783,-0.6395 -0.70784,-1.20849 -1.09367,-1.78537 -0.30583,-0.5534 -0.60617,-1.10472 -0.97976,-1.61403 -0.48204,-0.54536 -1.03111,-1.0307 -1.5328,-1.55773 -0.49429,-0.55749 -1.04901,-1.0747 -1.63436,-1.53294 -0.69187,-0.49627 -1.38862,-0.97229 -2.1586,-1.34501 -0.69391,-0.36994 -1.365,-0.77676 -2.08384,-1.09697 -0.6359,-0.38142 -1.34642,-0.63539 -1.99291,-0.99934 -0.61012,-0.36506 -1.29461,-0.6032 -1.93856,-0.89976 -0.6873,-0.33998 -1.47626,-0.42757 -2.20724,-0.63063 -0.75356,-0.24172 -1.49266,-0.50206 -2.2624,-0.6922 -0.73959,-0.24017 -1.54674,-0.27209 -2.26839,-0.59155 -0.91752,-0.1663 -1.78065,-0.48399 -2.68292,-0.70194 -0.8887,-0.23702 -1.76888,-0.50465 -2.65021,-0.76618 -0.844,-0.27734 -1.75201,-0.39574 -2.61862,-0.58443 -0.83725,-0.16085 -1.65122,-0.41071 -2.51057,-0.42741 -0.84016,-0.12453 -1.65398,-0.37733 -2.49888,-0.44552 -0.84208,-0.0906 -1.67278,-0.2364 -2.49027,-0.46114 -0.92823,-0.0708 -1.85182,-0.18932 -2.74437,-0.46642 -0.93513,-0.24535 -1.93987,-0.22751 -2.86233,-0.55572 -1.43588,-0.32023 -2.91917,-0.43355 -4.33029,-0.88088 -1.47378,-0.33068 -3.02506,-0.22172 -4.50738,-0.54544 -1.16003,-0.16572 -2.3437,-0.19062 -3.47767,-0.51784 -0.95544,-0.21637 -1.96851,-0.20147 -2.87463,-0.62845 -0.75411,-0.2904 -1.59389,-0.42117 -2.38177,-0.58514 -0.93089,-0.17423 -1.83952,-0.43978 -2.77885,-0.56731 -0.84757,-0.18424 -1.68213,-0.31095 -2.55228,-0.34691 -0.83813,-0.12493 -1.64989,-0.37878 -2.493,-0.44546 -0.86655,-0.09 -1.71982,-0.24376 -2.57227,-0.42168 -1.12771,-0.0327 -2.25936,-0.0801 -3.37192,-0.28153 -0.87659,-0.18248 -1.73898,-0.29404 -2.63907,-0.29509 -0.97885,-0.093 -1.94714,-0.24667 -2.91152,-0.43825 -0.9723,-0.0485 -1.94639,-0.12666 -2.89133,-0.37639 -0.84952,-0.20909 -1.72207,-0.21212 -2.57738,-0.40362 -0.83921,-0.19298 -1.66722,-0.33849 -2.52834,-0.40699 -0.83618,-0.1552 -1.65032,-0.39519 -2.50946,-0.38011 -0.83,-0.0877 -1.64823,-0.23223 -2.46459,-0.40462 -0.99368,-10e-4 -1.98737,-0.004 -2.98103,0.003 -0.90259,0.0104 -1.8075,0.0204 -2.7052,0.12489 -0.93671,0.12866 -1.85767,0.41018 -2.8102,0.3743 -1,0 -2.00001,0 -3.00001,0 -1.00002,0 -2.00004,0 -3.00006,0 -0.99989,0 -1.99979,10e-6 -2.99969,0 -0.99832,0 -1.99664,0 -2.99496,-10e-6 -0.99977,-2e-5 -1.99953,-5e-5 -2.9993,-3e-5 -1.10675,5e-5 -2.2135,1.6e-4 -3.32024,9.7e-4 -1.48645,0.001 -2.97289,0.003 -4.45934,0.005 -1.66544,10e-4 -3.33129,0.007 -4.99623,-0.0403 -1.78375,-0.0662 -3.56932,-0.18452 -5.32357,-0.53447 -0.7892,-0.14726 -1.61387,-0.37628 -2.41708,-0.43163 -0.88654,-0.0611 -1.78486,0.0487 -2.67226,3e-5 -1.78972,2e-5 -3.57944,7e-5 -5.36916,-1.4e-4 -1.73916,-3.1e-4 -3.47832,-6.8e-4 -5.21748,-0.003 -1.67951,-0.002 -3.35902,-0.007 -5.03853,-0.003 -1.38582,0.009 -2.7763,0.008 -4.15486,0.16834 -1.46132,0.20518 -2.8686,0.63263 -4.30821,0.94532 -1.31325,0.11871 -2.62757,0.294 -3.88488,0.70894 0,0 -0.79057,-2.37171 -0.79057,-2.37171 z"
       inkscape:connector-curvature="0" />
    <path
       style="opacity:0.80100002;fill:#cccccc;fill-opacity:1;stroke:none;stroke-width:0.60000002;stroke-miterlimit:4;stroke-dasharray:none;stroke-opacity:1"
       id="path4428"
       d="m 397.98923,818.04161 c 0.72463,0.69511 1.49409,1.32287 2.28538,1.93632 0.5909,0.46257 1.19996,0.88359 1.84118,1.27375 0.63189,0.33204 1.26761,0.65444 1.9003,0.98728 0.63367,0.36346 1.31679,0.59307 1.98837,0.86939 -0.98325,-0.11693 0.58049,0.21378 0.44207,0.14406 -0.29949,-0.15085 -0.74957,0.19014 -0.77372,0.10258 0.0869,-0.91253 0.26339,-1.81667 0.49666,-2.70262 0.2246,-0.95757 0.51768,-1.88996 0.80075,-2.83079 0.14217,-0.83102 0.32866,-1.64548 0.53326,-2.46388 0.0961,-0.48283 0.0536,-0.23864 0.12691,-0.73264 0,0 2.47145,0.37674 2.47145,0.37674 l 0,0 c -0.10131,0.65163 -0.0432,0.33018 -0.17357,0.9645 -0.21611,0.85808 -0.39446,1.71176 -0.56542,2.58007 -0.27937,0.91713 -0.56379,1.82485 -0.78054,2.76035 -0.25759,0.90931 -0.35936,1.84866 -0.51806,2.77699 -0.54256,1.49202 -1.56943,2.00676 -3.04026,1.32435 -0.7195,-0.32849 -1.48318,-0.56269 -2.17468,-0.95808 -0.68068,-0.36014 -1.36416,-0.7088 -2.04446,-1.06958 -0.71446,-0.44372 -1.40298,-0.91566 -2.06722,-1.43074 -0.77502,-0.60841 -1.55032,-1.20857 -2.2484,-1.90805 0,0 1.5,-2 1.5,-2 z"
       inkscape:connector-curvature="0" />
    <path
       style="opacity:0.80100002;fill:#cccccc;fill-opacity:1;stroke:none;stroke-width:0.60000002;stroke-miterlimit:4;stroke-dasharray:none;stroke-opacity:1"
       id="path4430"
       d="m 143.1137,763.16193 c -0.60121,0.10819 -1.20966,0.27363 -1.76076,0.5433 -0.53715,0.268 -1.04161,0.60174 -1.55682,0.91322 -0.42198,0.36266 -0.73533,0.82971 -1.10268,1.24582 -0.34059,0.36709 -0.39335,0.84096 -0.44752,1.31785 -0.0504,0.54302 -0.0525,1.13179 0.18203,1.63843 0.16689,0.41613 0.45279,0.7954 0.7818,1.10116 0.37196,0.40587 0.74564,0.81822 1.20875,1.12251 0.56051,0.39282 1.06084,0.8577 1.58633,1.29321 0.43602,0.21921 0.86339,0.45423 1.33893,0.57878 0.62982,0.14017 1.23013,0.36269 1.87002,0.46261 0.63322,0.0826 1.2605,0.12556 1.88732,0.002 0.29693,-0.0674 0.59692,-0.0905 0.8826,-0.19817 0,0 0.62859,1.96501 0.62859,1.96501 l 0,0 c -0.37357,0.11115 -0.74253,0.20112 -1.12814,0.2604 -0.86497,0.15821 -1.7298,0.13544 -2.59965,0.008 -0.71726,-0.11883 -1.39623,-0.34761 -2.10059,-0.51359 -0.74663,-0.21887 -1.45936,-0.55514 -2.10717,-0.9857 -0.47149,-0.40059 -0.92782,-0.81607 -1.43283,-1.17589 -0.55325,-0.39363 -1.04973,-0.85258 -1.49683,-1.36361 -0.51732,-0.53763 -0.99431,-1.13138 -1.25404,-1.84025 -0.28657,-0.8419 -0.42101,-1.71406 -0.29517,-2.60314 0.11381,-0.89689 0.32677,-1.76359 0.9603,-2.44722 0.51354,-0.55621 0.91707,-1.22501 1.57427,-1.6354 0.58401,-0.34928 1.15465,-0.72677 1.76687,-1.02368 0.83115,-0.36342 1.70449,-0.65656 2.61439,-0.72818 0,0 0,2.0631 0,2.0631 z"
       inkscape:connector-curvature="0" />
    <path
       style="opacity:0.80100002;fill:#cccccc;fill-opacity:1;stroke:none;stroke-width:0.60000002;stroke-miterlimit:4;stroke-dasharray:none;stroke-opacity:1"
       id="path4432"
       d="m 157.76574,763.50517 c -0.7768,-0.1954 -1.5434,-0.19488 -2.33155,-0.11508 -0.55968,0.13685 -1.04551,0.42974 -1.5325,0.72363 -0.45702,0.3792 -0.78738,0.88073 -1.17626,1.32595 -0.38626,0.42034 -0.71992,0.8668 -1.02519,1.34881 -0.26541,0.4533 -0.49331,0.88378 -0.598,1.40035 -0.0342,0.46736 -0.22383,1.0681 0.0501,1.4981 0.18879,0.39803 0.49386,0.75477 0.82225,1.05008 0.41379,0.30254 0.86494,0.54266 1.31558,0.78891 0.54803,0.23796 1.15622,0.23852 1.73504,0.35293 0.65023,0.191 1.31844,0.27521 1.99206,0.32237 0.57325,0.0893 1.05299,0.006 1.5623,-0.23062 0.35563,-0.23192 0.57233,-0.53415 0.80116,-0.88856 0.22566,-0.5135 0.22567,-1.08841 0.3334,-1.63238 0.19005,-0.65099 0.27303,-1.31997 0.31968,-1.99406 0.008,-0.5556 -0.0611,-1.17428 -0.25868,-1.69837 -0.14769,-0.59096 -0.45672,-1.10549 -0.73296,-1.64153 -0.22581,-0.32451 -0.41107,-0.66961 -0.68218,-0.95929 0,0 1.55396,-1.35706 1.55396,-1.35706 l 0,0 c 0.36386,0.4308 0.67531,0.88939 0.96376,1.37443 0.32538,0.63745 0.68061,1.25998 0.86359,1.95849 0.23451,0.79491 0.40091,1.63758 0.35048,2.4687 -0.0552,0.76884 -0.14696,1.53451 -0.35972,2.27805 -0.19197,0.79161 -0.14573,1.64824 -0.6375,2.35157 -0.44624,0.65247 -0.93936,1.2454 -1.65609,1.61582 -0.82422,0.37401 -1.66237,0.52499 -2.56829,0.41267 -0.76781,-0.0559 -1.53233,-0.14852 -2.27456,-0.36235 -0.7661,-0.18703 -1.59672,-0.13832 -2.30041,-0.56348 -0.60558,-0.33527 -1.21194,-0.66472 -1.74888,-1.10745 -0.52563,-0.51925 -1.02577,-1.0878 -1.31182,-1.77838 -0.31146,-0.88681 -0.34193,-1.77973 -0.14712,-2.702 0.17292,-0.75128 0.48127,-1.41762 0.87889,-2.07481 0.36796,-0.56422 0.764,-1.10082 1.21591,-1.60014 0.53631,-0.58916 0.96197,-1.29072 1.65366,-1.72318 0.74851,-0.4516 1.51753,-0.86694 2.39316,-1.01007 0.99016,-0.0979 1.96674,-0.0871 2.94137,0.1449 0,0 -0.40461,2.02305 -0.40461,2.02305 z"
       inkscape:connector-curvature="0" />
    <path
       style="opacity:0.80100002;fill:#cccccc;fill-opacity:1;stroke:none;stroke-width:0.60000002;stroke-miterlimit:4;stroke-dasharray:none;stroke-opacity:1"
       id="path4434"
       d="m 166.67355,763.2024 c 0,0.94111 0,1.88221 0,2.82332 0.0115,0.911 0.0336,1.81144 -0.13635,2.70919 -0.15979,0.67877 -0.21649,1.37266 -0.25089,2.06706 -0.0106,0.48743 0.0149,1.05037 0.3017,1.46397 0.32344,0.26652 0.77614,0.29802 1.17631,0.34609 0.41648,-0.0547 0.83142,-0.21972 1.1871,-0.44899 0.42985,-0.24331 0.83464,-0.55855 1.1708,-0.92289 0.36332,-0.31472 0.67958,-0.70762 0.87594,-1.14992 0.34706,-0.50154 0.51257,-1.08365 0.74395,-1.6411 0.1591,-0.60781 0.33198,-1.21076 0.50039,-1.81736 0.15791,-0.65193 0.17868,-1.32535 0.19918,-1.99265 0.0502,-1.82134 -0.50642,-1.36106 2.07446,-1.06916 0.0528,0.74794 -0.0609,1.47116 -0.21065,2.20032 -0.0663,0.7008 -0.31669,1.35954 -0.46373,2.04337 -0.0577,0.69697 -0.28409,1.35917 -0.41996,2.04143 -0.0298,0.4573 -0.25736,1.07582 0.0228,1.49718 0.14648,0.41954 0.48067,0.64416 0.80954,0.90573 0.39384,0.2851 0.88751,0.31569 1.35615,0.35902 0.50978,0.0291 0.23523,8.3e-4 0.8222,0.0975 0,0 -0.36534,2.03049 -0.36534,2.03049 l 0,0 c -0.36824,-0.0782 -0.15059,-0.0437 -0.65684,-0.0746 -0.87166,-0.0881 -1.73615,-0.24324 -2.44431,-0.80085 -0.61206,-0.49248 -1.16373,-1.01112 -1.44453,-1.77031 -0.29859,-0.87482 -0.3166,-1.74851 -0.12163,-2.65406 0.14254,-0.69372 0.36466,-1.36526 0.42686,-2.07406 0.15057,-0.67514 0.39036,-1.32367 0.45787,-2.0158 0.12298,-0.59892 0.22555,-1.17765 0.16851,-1.79482 2.57294,-0.2993 2.06349,-0.73408 2.05072,1.14301 -0.0264,0.8337 -0.0639,1.67344 -0.27469,2.48492 -0.19359,0.68589 -0.3733,1.37131 -0.58165,2.05197 -0.24822,0.59741 -0.43045,1.22712 -0.80055,1.76559 -0.32022,0.61869 -0.72042,1.22043 -1.25146,1.67848 -0.48767,0.48366 -1.01651,0.94001 -1.62189,1.27069 -0.76867,0.41761 -1.57816,0.76053 -2.47408,0.70291 -1.0631,-0.14429 -2.06304,-0.4351 -2.70285,-1.36876 -0.42711,-0.79955 -0.6296,-1.67946 -0.57079,-2.59097 0.0403,-0.79131 0.10747,-1.58213 0.28601,-2.3562 0.15343,-0.7649 0.0904,-1.53885 0.0986,-2.31641 0,-0.94111 0,-1.88221 0,-2.82332 0,0 2.0631,0 2.0631,0 z"
       inkscape:connector-curvature="0" />
    <path
       style="opacity:0.80100002;fill:#cccccc;fill-opacity:1;stroke:none;stroke-width:0.60000002;stroke-miterlimit:4;stroke-dasharray:none;stroke-opacity:1"
       id="path4436"
       d="m 180.26071,774.46452 c -0.189,-0.97828 -0.27596,-1.97142 -0.33508,-2.96473 -0.0979,-0.91472 -0.02,-1.80452 0.15501,-2.70198 0.15545,-0.70364 0.36561,-1.40785 0.61008,-2.08721 0.28551,-0.68237 0.64261,-1.34836 1.12911,-1.9064 0.49759,-0.56111 1.06508,-1.00867 1.74868,-1.31621 0.66112,-0.39449 1.40246,-0.55746 2.15575,-0.65885 0.94432,-0.14426 1.79971,0.12909 2.58456,0.63358 0.58996,0.49574 0.95908,1.15464 1.32922,1.81513 0.27696,0.6796 0.56445,1.35753 0.75228,2.06906 0.15342,0.70043 0.38239,1.37363 0.50083,2.08436 0.11382,0.83346 0.12104,1.67618 0.12909,2.51583 -0.0821,0.7582 -0.26506,1.49678 -0.34369,2.25604 -0.009,0.11799 -0.0174,0.23596 -0.0262,0.35395 0,0 -2.0573,-0.15458 -2.0573,-0.15458 l 0,0 c 0.0106,-0.13857 0.0211,-0.27713 0.0317,-0.4157 0.0728,-0.68021 0.19133,-1.35095 0.33241,-2.02013 -0.007,-0.73533 -0.0107,-1.47329 -0.1024,-2.20405 -0.10229,-0.65015 -0.33169,-1.26064 -0.46298,-1.90337 -0.13314,-0.54508 -0.37829,-1.04924 -0.55702,-1.57901 -0.20828,-0.37893 -0.41776,-0.8048 -0.70193,-1.12235 -0.30178,-0.28731 -0.74779,-0.3304 -1.14248,-0.2829 -0.57873,0.0716 -1.11854,0.20411 -1.6221,0.51475 -0.43673,0.14786 -0.73463,0.51604 -1.0518,0.83442 -0.31473,0.20104 -0.50445,0.88199 -0.69639,1.21703 -0.23361,0.55387 -0.36887,1.17138 -0.51462,1.75193 -0.14241,0.72887 -0.21181,1.43909 -0.12038,2.1849 0.0527,0.8984 0.12939,1.79679 0.29862,2.68188 0,0 -2.02304,0.40461 -2.02304,0.40461 z"
       inkscape:connector-curvature="0" />
    <path
       style="opacity:0.80100002;fill:#cccccc;fill-opacity:1;stroke:none;stroke-width:0.60000002;stroke-miterlimit:4;stroke-dasharray:none;stroke-opacity:1"
       id="path4438"
       d="m 198.88728,755.57293 c 0.18901,0.97828 0.27596,1.97142 0.33508,2.96473 0.0456,0.89546 0.0488,1.79228 0.0509,2.68867 4.8e-4,0.82784 -8.2e-4,1.65568 -0.002,2.48353 0.072,0.81748 -0.12561,1.60579 -0.26504,2.40287 -0.11213,0.71397 -0.12884,1.4378 -0.14323,2.15893 -0.011,0.81533 -0.008,1.63076 -0.007,2.44614 8.3e-4,0.82615 0.002,1.6523 0.002,2.47845 -0.0177,0.80561 0.0575,1.61424 -0.0727,2.41118 0,0 -2.01601,-0.4383 -2.01601,-0.4383 l 0,0 c 0.0496,-0.61851 0.0166,-1.3216 0.0256,-1.9721 -3.1e-4,-0.82566 -8.2e-4,-1.65132 -0.002,-2.47699 -8.2e-4,-0.82999 -0.003,-1.66003 0.008,-2.48997 0.0168,-0.82702 0.0404,-1.65681 0.17402,-2.4749 0.12072,-0.68247 0.30509,-1.3461 0.23383,-2.04721 7.6e-4,-0.82554 0.002,-1.65107 0.002,-2.47661 -0.002,-0.85745 -0.005,-1.71532 -0.0474,-2.57193 -0.0527,-0.8984 -0.12939,-1.79679 -0.29861,-2.68188 0,0 2.02303,-0.40461 2.02303,-0.40461 z"
       inkscape:connector-curvature="0" />
    <path
       style="opacity:0.80100002;fill:#cccccc;fill-opacity:1;stroke:none;stroke-width:0.60000002;stroke-miterlimit:4;stroke-dasharray:none;stroke-opacity:1"
       id="path4440"
       d="m 194.3596,764.39979 c 0.94111,0 1.88221,0 2.82332,0 0.74017,0.0182 1.46108,-0.18858 2.19148,-0.2895 0.66381,-0.23572 1.35072,-0.36875 2.04805,-0.45309 0,0 0.24222,2.04884 0.24222,2.04884 l 0,0 c -0.68824,0.079 -1.34579,0.25728 -2.01067,0.44832 -0.82288,0.11121 -1.63447,0.34519 -2.47108,0.30854 -0.94111,0 -1.88221,0 -2.82332,0 0,0 0,-2.06311 0,-2.06311 z"
       inkscape:connector-curvature="0" />
  </g>
</svg>
