<?xml version="1.0" encoding="UTF-8" standalone="no"?>
<!-- Created with Inkscape (http://www.inkscape.org/) -->

<svg
   xmlns:dc="http://purl.org/dc/elements/1.1/"
   xmlns:cc="http://creativecommons.org/ns#"
   xmlns:rdf="http://www.w3.org/1999/02/22-rdf-syntax-ns#"
   xmlns:svg="http://www.w3.org/2000/svg"
   xmlns="http://www.w3.org/2000/svg"
   xmlns:sodipodi="http://sodipodi.sourceforge.net/DTD/sodipodi-0.dtd"
   xmlns:inkscape="http://www.inkscape.org/namespaces/inkscape"
   width="484.06616"
   height="277.06793"
   viewBox="0 0 484.06617 277.06794"
   id="svg2"
   version="1.1"
   inkscape:version="0.91 r13725"
   sodipodi:docname="utxo.svg">
  <defs
     id="defs4">
    <marker
       inkscape:stockid="Arrow2Mstart"
       orient="auto"
       refY="0"
       refX="0"
       id="Arrow2Mstart"
       style="overflow:visible"
       inkscape:isstock="true">
      <path
         id="path5552"
         style="fill:#008000;fill-opacity:1;fill-rule:evenodd;stroke:#008000;stroke-width:0.625;stroke-linejoin:round;stroke-opacity:1"
         d="M 8.7185878,4.0337352 -2.2072895,0.01601326 8.7185884,-4.0017078 c -1.7454984,2.3720609 -1.7354408,5.6174519 -6e-7,8.035443 z"
         transform="scale(0.6,0.6)"
         inkscape:connector-curvature="0" />
    </marker>
    <marker
       inkscape:stockid="Arrow2Mend"
       orient="auto"
       refY="0"
       refX="0"
       id="Arrow2Mend"
       style="overflow:visible"
       inkscape:isstock="true">
      <path
         id="path5555"
         style="fill:#008000;fill-opacity:1;fill-rule:evenodd;stroke:#008000;stroke-width:0.625;stroke-linejoin:round;stroke-opacity:1"
         d="M 8.7185878,4.0337352 -2.2072895,0.01601326 8.7185884,-4.0017078 c -1.7454984,2.3720609 -1.7354408,5.6174519 -6e-7,8.035443 z"
         transform="scale(-0.6,-0.6)"
         inkscape:connector-curvature="0" />
    </marker>
  </defs>
  <sodipodi:namedview
     id="base"
     pagecolor="#ffffff"
     bordercolor="#666666"
     borderopacity="1.0"
     inkscape:pageopacity="0.0"
     inkscape:pageshadow="2"
     inkscape:zoom="1.4"
     inkscape:cx="235.20672"
     inkscape:cy="185.16365"
     inkscape:document-units="px"
     inkscape:current-layer="layer1"
     showgrid="false"
     units="px"
     inkscape:window-width="1920"
     inkscape:window-height="1026"
     inkscape:window-x="0"
     inkscape:window-y="54"
     inkscape:window-maximized="0"
     fit-margin-top="0"
     fit-margin-left="0"
     fit-margin-right="0"
     fit-margin-bottom="0" />
  <metadata
     id="metadata7">
    <rdf:RDF>
      <cc:Work
         rdf:about="">
        <dc:format>image/svg+xml</dc:format>
        <dc:type
           rdf:resource="http://purl.org/dc/dcmitype/StillImage" />
        <dc:title></dc:title>
      </cc:Work>
    </rdf:RDF>
  </metadata>
  <g
     inkscape:label="Layer 1"
     inkscape:groupmode="layer"
     id="layer1"
     transform="translate(-32.96645,-704.29767)">
    <path
       style="fill:none;fill-rule:evenodd;stroke:#808080;stroke-width:2.39816022;stroke-linecap:butt;stroke-linejoin:miter;stroke-miterlimit:4;stroke-dasharray:none;stroke-opacity:1"
       d="m 62.036529,735.38643 297.564541,0"
       id="path4168"
       inkscape:connector-curvature="0" />
    <path
       style="fill:none;fill-rule:evenodd;stroke:#808080;stroke-width:2.39816022;stroke-linecap:butt;stroke-linejoin:miter;stroke-miterlimit:4;stroke-dasharray:none;stroke-opacity:1"
       d="m 208.59816,735.38643 0,107.39783 153.4255,0"
       id="path4170"
       inkscape:connector-curvature="0" />
    <rect
       style="opacity:1;fill:#999999;fill-opacity:1;stroke:none;stroke-width:1.60000002;stroke-miterlimit:4;stroke-dasharray:none;stroke-dashoffset:0;stroke-opacity:1"
       id="rect4136"
       width="61.370182"
       height="61.370182"
       x="32.96645"
       y="704.29767" />
    <path
       style="opacity:0.5;fill:none;fill-rule:evenodd;stroke:#808080;stroke-width:2.39869308;stroke-linecap:butt;stroke-linejoin:miter;stroke-miterlimit:4;stroke-dasharray:4.79738583, 2.39869292;stroke-dashoffset:0;stroke-opacity:1"
       d="m 373.83192,735.34425 88.42297,0"
       id="path4168-7"
       inkscape:connector-curvature="0"
       sodipodi:nodetypes="cc" />
    <rect
       style="opacity:1;fill:#999999;fill-opacity:1;stroke:none;stroke-width:1.60000002;stroke-miterlimit:4;stroke-dasharray:none;stroke-dashoffset:0;stroke-opacity:1"
       id="rect4136-3"
       width="61.37019"
       height="61.37019"
       x="331.00177"
       y="704.29767" />
    <rect
       style="opacity:1;fill:#e09500;fill-opacity:1;stroke:none;stroke-width:1.60000002;stroke-miterlimit:4;stroke-dasharray:none;stroke-dashoffset:0;stroke-opacity:1"
       id="rect4136-3-6"
       width="61.370193"
       height="61.370193"
       x="330.53119"
       y="812.09515" />
    <path
       style="fill:none;fill-rule:evenodd;stroke:#808080;stroke-width:2.39816022;stroke-linecap:butt;stroke-linejoin:miter;stroke-miterlimit:4;stroke-dasharray:none;stroke-opacity:1"
       d="m 208.60417,843.28663 0,107.39783 153.42538,0"
       id="path4170-3"
       inkscape:connector-curvature="0" />
    <path
       style="opacity:0.5;fill:none;fill-rule:evenodd;stroke:#808080;stroke-width:2.39869308;stroke-linecap:butt;stroke-linejoin:miter;stroke-miterlimit:4;stroke-dasharray:4.79738583, 2.39869292;stroke-dashoffset:0;stroke-opacity:1"
       d="m 374.05537,950.38783 88.42298,0"
       id="path4168-7-5"
       inkscape:connector-curvature="0"
       sodipodi:nodetypes="cc" />
    <rect
       style="opacity:1;fill:#999999;fill-opacity:1;stroke:none;stroke-width:1.60000002;stroke-miterlimit:4;stroke-dasharray:none;stroke-dashoffset:0;stroke-opacity:1"
       id="rect4136-3-6-6"
       width="61.370193"
       height="61.370193"
       x="330.53711"
       y="919.99542" />
    <text
       xml:space="preserve"
       style="font-style:normal;font-weight:normal;font-size:21.89729881px;line-height:125%;font-family:sans-serif;letter-spacing:0px;word-spacing:0px;fill:#000000;fill-opacity:1;stroke:none;stroke-width:1px;stroke-linecap:butt;stroke-linejoin:miter;stroke-opacity:1"
       x="410.72504"
       y="747.98865"
       id="text5417"
       sodipodi:linespacing="125%"><tspan
         sodipodi:role="line"
         id="tspan5419"
         x="410.72504"
         y="747.98865"
         style="font-size:12.51274395px;fill:#b3b3b3">spent</tspan></text>
    <text
       xml:space="preserve"
       style="font-style:normal;font-weight:normal;font-size:21.89729881px;line-height:125%;font-family:sans-serif;letter-spacing:0px;word-spacing:0px;fill:#000000;fill-opacity:1;stroke:none;stroke-width:1px;stroke-linecap:butt;stroke-linejoin:miter;stroke-opacity:1"
       x="411.35587"
       y="964.06055"
       id="text5417-3"
       sodipodi:linespacing="125%"><tspan
         sodipodi:role="line"
         id="tspan5419-5"
         x="411.35587"
         y="964.06055"
         style="font-size:12.51274395px;fill:#b3b3b3">spent</tspan></text>
    <path
       style="opacity:1;fill:#008000;fill-opacity:1;stroke:none;stroke-width:1.91700006;stroke-miterlimit:4;stroke-dasharray:3.83400011, 1.91700006;stroke-dashoffset:0;stroke-opacity:1"
       id="path5485"
       d="m 400.99258,839.41993 c 1.17814,-0.66959 2.29796,-1.43405 3.46172,-2.12726 0.7465,-0.50698 1.50196,-0.99815 2.25308,-1.49729 0.64946,-0.39562 1.25376,-0.84761 1.85773,-1.30703 0.6119,-0.42135 1.19541,-0.87595 1.78115,-1.33199 0.61116,-0.4274 1.19781,-0.8831 1.78613,-1.34073 0.65544,-0.47857 1.30415,-0.96973 1.99577,-1.39661 0.65928,-0.50328 1.41615,-0.8527 2.12443,-1.27548 0.57809,-0.32428 1.12063,-0.68486 1.62022,-1.11502 0.60133,-0.57087 1.28833,-1.0246 1.96094,-1.50129 0.67268,-0.41228 1.35717,-0.80004 2.10886,-1.04711 0.66723,-0.31975 1.38692,-0.4984 2.09031,-0.71889 0.81306,-0.22634 1.61656,-0.48263 2.39795,-0.80094 0.64476,-0.23397 1.26047,-0.54201 1.86887,-0.85785 0.71411,-0.28384 1.4579,-0.49285 2.1962,-0.71049 0.66743,-0.15849 1.37022,-0.25149 1.99673,-0.54636 0.58434,-0.26162 1.19552,-0.48617 1.74942,-0.81034 0.65939,-0.32425 1.35109,-0.59376 2.04533,-0.83786 0.0675,-0.0352 0.13491,-0.0704 0.20236,-0.10553 0,0 0.78205,1.60739 0.78205,1.60739 l 0,0 c -0.13295,0.0623 -0.26591,0.12463 -0.39888,0.18703 -0.60026,0.20403 -1.1945,0.44319 -1.7661,0.71337 -0.61976,0.33204 -1.26431,0.61843 -1.91256,0.88998 -0.70696,0.28717 -1.44597,0.48358 -2.19672,0.618 -0.62882,0.18198 -1.25625,0.37355 -1.87473,0.58153 -0.65674,0.34036 -1.32423,0.66871 -2.01775,0.92661 -0.82733,0.33688 -1.67758,0.61051 -2.53775,0.85122 -0.70241,0.21992 -1.41643,0.40165 -2.08456,0.71707 -0.58501,0.17398 -1.09646,0.50961 -1.62399,0.80758 -0.62876,0.43611 -1.26152,0.86163 -1.81968,1.39148 -0.58145,0.50058 -1.21718,0.92295 -1.88362,1.30314 -0.70553,0.40726 -1.44214,0.7661 -2.09562,1.25825 -0.63981,0.38516 -1.22861,0.84957 -1.83353,1.28477 -0.59058,0.45398 -1.17452,0.91401 -1.78548,1.34024 -0.5932,0.45645 -1.17956,0.91895 -1.79624,1.34356 -0.63572,0.47937 -1.26987,0.95536 -1.94963,1.37221 -0.77683,0.5134 -1.55378,1.02512 -2.32749,1.54402 -1.17389,0.69579 -2.29969,1.47044 -3.48805,2.1426 0,0 -0.88687,-1.55201 -0.88687,-1.55201 z"
       inkscape:connector-curvature="0" />
    <path
       style="opacity:1;fill:#008000;fill-opacity:1;stroke:none;stroke-width:1.91700006;stroke-miterlimit:4;stroke-dasharray:3.83400011, 1.91700006;stroke-dashoffset:0;stroke-opacity:1"
       id="path5487"
       d="m 404.60936,827.89615 c -0.79529,0.85582 -1.59938,1.73515 -2.21282,2.7343 -0.52126,0.57647 -0.67387,1.27913 -0.91069,1.98651 -0.28188,0.67041 -0.30768,1.39952 -0.46161,2.10029 -0.24281,0.72514 -0.27886,1.49058 -0.4406,2.23171 -0.2134,0.7609 -0.33005,1.53934 -0.52373,2.30519 -0.14549,0.74404 -0.35556,1.5246 -0.26313,2.28716 0.0344,0.5 0.20872,0.48408 0.62531,0.57159 0.77022,0.11561 1.55295,0.10085 2.32973,0.10032 0.89759,-0.005 1.79516,-0.01 2.69275,-0.0132 0.89563,-0.002 1.79125,-0.002 2.68688,-0.002 0.74486,-9e-5 1.48974,-2e-5 2.23461,0 0,0 -7e-5,1.78752 -7e-5,1.78752 l 0,0 c -0.74473,-2e-5 -1.48946,-8e-5 -2.23418,0 -0.8938,1.9e-4 -1.78759,3.8e-4 -2.6814,0.002 -0.89917,0.002 -1.79834,0.009 -2.69752,0.0132 -0.92882,5e-4 -1.86683,0.0175 -2.78299,-0.15847 -1.09788,-0.31279 -1.86814,-0.95141 -1.95496,-2.15842 -0.058,-0.96669 0.0825,-1.92838 0.31205,-2.86813 0.19096,-0.75446 0.303,-1.52233 0.51559,-2.27177 0.18955,-0.73177 0.1722,-1.51511 0.44097,-2.23319 0.19403,-0.74986 0.17756,-1.5561 0.51171,-2.27448 0.29382,-0.8229 0.48496,-1.67463 1.08565,-2.35352 0.67099,-1.05896 1.49172,-2.02451 2.35523,-2.93096 0,0 1.37322,1.14435 1.37322,1.14435 z"
       inkscape:connector-curvature="0" />
    <path
       style="opacity:1;fill:#008000;fill-opacity:1;stroke:none;stroke-width:1.91700006;stroke-miterlimit:4;stroke-dasharray:3.83400011, 1.91700006;stroke-dashoffset:0;stroke-opacity:1"
       id="path5489"
       d="m 441.53281,798.4628 c -0.8607,0.81297 -1.74827,1.5957 -2.56055,2.45816 -0.4351,0.63659 -1.04347,1.15348 -1.42827,1.82313 -0.3944,0.54241 -0.75441,1.10238 -1.12441,1.65983 -0.32611,0.54412 -0.58581,1.12442 -0.89038,1.68033 -0.18417,0.34915 -0.10447,0.17669 -0.24292,0.51563 0,0 -1.6462,-0.69668 -1.6462,-0.69668 l 0,0 c 0.21258,-0.49141 0.10064,-0.26023 0.33139,-0.69573 0.34615,-0.58658 0.5918,-1.2329 0.96718,-1.80459 0.36633,-0.52615 0.69182,-1.07827 1.07984,-1.59051 0.47902,-0.75972 1.1082,-1.40547 1.65337,-2.11789 0.86246,-0.91324 1.80011,-1.74701 2.7166,-2.6049 0,0 1.14435,1.37322 1.14435,1.37322 z"
       inkscape:connector-curvature="0" />
    <path
       style="opacity:1;fill:#008000;fill-opacity:1;stroke:none;stroke-width:1.91700006;stroke-miterlimit:4;stroke-dasharray:3.83400011, 1.91700006;stroke-dashoffset:0;stroke-opacity:1"
       id="path5491"
       d="m 446.71322,799.8394 c -1.04427,0.65299 -1.91821,1.52372 -2.82566,2.34564 -0.5542,0.53601 -1.07728,1.10329 -1.63697,1.63319 -0.33164,0.39621 -0.55389,0.89967 -0.73228,1.38544 -0.20724,0.63291 -0.45501,1.23686 -0.56948,1.89643 -0.014,0.11637 -0.0281,0.23284 -0.0422,0.34926 0,0 -1.77388,-0.22055 -1.77388,-0.22055 l 0,0 c 0.0189,-0.14838 0.0378,-0.29674 0.0566,-0.44511 0.14172,-0.7683 0.40971,-1.48205 0.65901,-2.21807 0.28723,-0.7336 0.62739,-1.48412 1.18194,-2.05375 0.57532,-0.52622 1.08767,-1.1202 1.65809,-1.6526 1.00405,-0.90656 1.97327,-1.86563 3.13781,-2.5719 0,0 0.88686,1.55202 0.88686,1.55202 z"
       inkscape:connector-curvature="0" />
    <path
       style="opacity:1;fill:#008000;fill-opacity:1;stroke:none;stroke-width:1.91700006;stroke-miterlimit:4;stroke-dasharray:3.83400011, 1.91700006;stroke-dashoffset:0;stroke-opacity:1"
       id="path5493"
       d="m 449.32527,807.32112 c 0,1.36239 0,2.72479 0,4.0872 0.0125,0.90952 -0.0657,1.8168 0.11124,2.71246 0.16105,0.73172 0.20487,1.474 0.40271,2.1962 0.0937,0.63961 0.31776,1.19555 0.63323,1.74878 0.2914,0.4312 0.67338,0.71659 1.10426,0.99835 0.54516,0.2684 1.1669,0.29011 1.76251,0.3248 0.66007,-0.009 1.39721,0.14987 2.01022,-0.1663 0.46706,-0.21697 0.87847,-0.56955 1.22592,-0.94903 0.47404,-0.38622 0.83297,-0.85772 1.19485,-1.34086 0.34599,-0.53486 0.58759,-1.12735 0.74532,-1.74314 0.15362,-0.74735 0.41264,-1.46057 0.53119,-2.21647 0.1016,-0.80625 0.10564,-1.62044 0.11287,-2.43176 0.004,-0.89012 6.8e-4,-1.78026 -7.7e-4,-2.67038 0.0493,-1.07551 -0.40923,-0.82591 0.19638,-0.55914 0.11812,0.32406 0.28637,-0.14317 0.40429,-0.0734 0.006,0.004 -0.10064,0.71191 -0.12351,0.98991 -0.0488,0.8624 -0.0412,1.72677 -0.0398,2.59019 0.002,0.89857 0.005,1.79715 0.006,2.69573 -0.0774,0.77302 0.12387,1.50701 0.25674,2.2596 0.0718,0.64676 0.2976,1.26016 0.55962,1.8508 0.28311,0.37633 0.51696,0.83064 0.93496,1.07599 0.51253,0.27869 1.01943,0.48921 1.59443,0.59513 0.45167,0.005 0.75702,-0.24632 1.11023,-0.48906 0.0445,-0.045 0.0891,-0.0898 0.13364,-0.13469 0,0 1.20898,1.31667 1.20898,1.31667 l 0,0 c -0.11011,0.0971 -0.22013,0.19413 -0.33018,0.29119 -0.75302,0.51751 -1.51768,0.88955 -2.46292,0.77075 -0.81906,-0.16422 -1.56409,-0.46479 -2.28407,-0.88896 -0.64734,-0.48482 -1.14573,-1.10484 -1.53915,-1.81241 -0.3202,-0.72241 -0.58637,-1.47798 -0.68605,-2.26579 -0.14908,-0.85167 -0.36161,-1.69322 -0.28377,-2.5668 -10e-4,-0.89831 -0.004,-1.79661 -0.006,-2.6949 -0.001,-0.9157 -0.01,-1.83249 0.0463,-2.74692 0.0668,-0.75054 0.11812,-1.80839 0.81248,-2.2902 0.18862,-0.1309 0.42531,-0.17306 0.63796,-0.25959 0.21339,0.0331 0.4393,0.0197 0.64013,0.0989 0.88314,0.34868 1.02014,1.432 1.00079,2.24409 10e-4,0.89645 0.005,1.79292 7e-4,2.68938 -0.009,0.90078 -0.0153,1.80479 -0.13546,2.69915 -0.13318,0.81411 -0.39367,1.58708 -0.56807,2.39037 -0.22661,0.83698 -0.55436,1.64644 -1.04792,2.36439 -0.40947,0.5333 -0.80679,1.06732 -1.3303,1.49966 -0.53778,0.54686 -1.12924,1.06574 -1.84316,1.36773 -0.90566,0.33544 -1.83106,0.37259 -2.78993,0.29453 -0.91589,-0.0562 -1.84551,-0.14129 -2.65097,-0.62443 -0.64696,-0.44065 -1.24383,-0.92225 -1.66168,-1.59768 -0.38879,-0.68199 -0.67698,-1.38537 -0.80524,-2.16498 -0.20755,-0.76753 -0.2759,-1.54981 -0.43324,-2.3279 -0.19022,-1.01007 -0.14947,-2.02543 -0.14332,-3.04995 0,-1.36239 0,-2.7248 0,-4.0872 0,0 1.78754,0 1.78754,0 z"
       inkscape:connector-curvature="0" />
    <path
       style="opacity:1;fill:#008000;fill-opacity:1;stroke:none;stroke-width:1.91700006;stroke-miterlimit:4;stroke-dasharray:3.83400011, 1.91700006;stroke-dashoffset:0;stroke-opacity:1"
       id="path5495"
       d="m 471.71601,795.14439 c 0.17165,1.3794 0.27905,2.76533 0.34894,4.15324 0.0463,1.01636 0.052,2.0339 0.0544,3.05111 5.2e-4,0.89433 -10e-4,1.78867 -0.002,2.68301 -7.5e-4,0.8918 -8.7e-4,1.78358 -9.7e-4,2.67537 -4e-5,0.89364 -3e-5,1.78727 -2e-5,2.68091 0,0.89378 1e-5,1.78758 1e-5,2.68136 0,0.89378 0,1.78755 0,2.68132 0.0524,0.83078 -0.0914,1.68431 0.0453,2.50752 0.11136,0.50109 0.19846,1.00596 0.26995,1.5141 0,0 -1.77042,0.24673 -1.77042,0.24673 l 0,0 c -0.0704,-0.5105 -0.16632,-1.01553 -0.2708,-1.52017 -0.10937,-0.91188 -0.0462,-1.83098 -0.0615,-2.74818 0,-0.89377 0,-1.78754 0,-2.68132 -10e-6,-0.89378 -10e-6,-1.78757 -3e-5,-2.68135 0,-0.8937 -3e-5,-1.7874 4e-5,-2.68108 8e-5,-0.89229 2.1e-4,-1.78457 9.4e-4,-2.67686 8.3e-4,-0.89234 0.002,-1.78469 0.002,-2.67703 -0.002,-0.98877 -0.007,-1.97784 -0.0522,-2.96579 -0.0674,-1.34378 -0.17139,-2.68562 -0.33737,-4.02116 0,0 1.77373,-0.22173 1.77373,-0.22173 z"
       inkscape:connector-curvature="0" />
    <path
       style="opacity:1;fill:#008000;fill-opacity:1;stroke:none;stroke-width:1.91700006;stroke-miterlimit:4;stroke-dasharray:3.83400011, 1.91700006;stroke-dashoffset:0;stroke-opacity:1"
       id="path5497"
       d="m 467.18138,807.78724 c 1.3624,0 2.72481,0 4.0872,0 0.77834,-0.14395 1.60032,-0.16689 2.36117,-0.3898 0.70801,-0.29415 1.48984,-0.28838 2.21794,-0.48385 0.5026,-0.15727 1.01851,-0.25436 1.53783,-0.33524 0,0 0.27081,1.76689 0.27081,1.76689 l 0,0 c -0.46946,0.0705 -0.93363,0.16335 -1.38751,0.30557 -0.72649,0.1658 -1.47899,0.20898 -2.18321,0.47506 -0.92088,0.22857 -1.8763,0.33553 -2.81703,0.44891 -1.36239,0 -2.7248,0 -4.0872,0 0,0 0,-1.78754 0,-1.78754 z"
       inkscape:connector-curvature="0" />
    <path
       style="opacity:1;fill:#008000;fill-opacity:1;stroke:none;stroke-width:1.91700006;stroke-miterlimit:4;stroke-dasharray:3.83400011, 1.91700006;stroke-dashoffset:0;stroke-opacity:1"
       id="path5499"
       d="m 479.15117,819.03548 c 0.66538,-1.07706 1.43324,-2.0792 2.20181,-3.08231 0.41876,-0.66121 0.8663,-1.30661 1.38856,-1.89038 0.41511,-0.42527 0.76732,-0.88396 1.08992,-1.38263 0.38969,-0.55276 0.87439,-1.02321 1.31418,-1.53285 0.47917,-0.5416 1.04407,-0.97332 1.64299,-1.37352 0.47829,-0.35512 0.90006,-0.77278 1.34524,-1.16671 0.58666,-0.45193 1.16859,-0.90874 1.75114,-1.36637 0.45773,-0.48181 0.98246,-0.87209 1.50595,-1.27562 0.37982,-0.2532 0.22187,-0.12874 0.48606,-0.35736 0,0 1.13808,1.3784 1.13808,1.3784 l 0,0 c -0.39062,0.31442 -0.20641,0.18421 -0.54371,0.40302 -0.52241,0.39203 -1.02457,0.79251 -1.48626,1.26047 -0.55924,0.43324 -1.11064,0.8763 -1.67419,1.30272 -0.51105,0.43971 -0.98397,0.92319 -1.53757,1.3133 -0.47428,0.30738 -0.90936,0.63491 -1.28435,1.06093 -0.39269,0.44221 -0.80947,0.8606 -1.1639,1.33556 -0.38041,0.57229 -0.7911,1.11319 -1.26641,1.6091 -0.50619,0.52662 -0.87344,1.1725 -1.28747,1.76996 -0.72071,0.93843 -1.44032,1.87572 -2.06805,2.88116 0,0 -1.55202,-0.88687 -1.55202,-0.88687 z"
       inkscape:connector-curvature="0" />
    <path
       style="opacity:1;fill:#008000;fill-opacity:1;stroke:none;stroke-width:1.91700006;stroke-miterlimit:4;stroke-dasharray:3.83400011, 1.91700006;stroke-dashoffset:0;stroke-opacity:1"
       id="path5501"
       d="m 485.17203,806.37734 c 0.60306,1.13195 1.10673,2.31631 1.70967,3.44765 0.36267,0.78314 0.86529,1.48601 1.26042,2.25006 0.37493,0.51726 0.55893,1.14606 0.95367,1.64871 0.37543,0.607 0.76946,1.20489 1.12125,1.82729 0.33994,0.56166 0.77672,1.04448 1.19645,1.54466 0.36067,0.51538 0.68673,1.06639 1.12788,1.51874 0.0788,0.0948 0.1575,0.18963 0.23625,0.28445 0,0 -1.37988,1.13632 -1.37988,1.13632 l 0,0 c -0.0557,-0.0684 -0.11148,-0.13692 -0.16715,-0.20538 -0.444,-0.49174 -0.84121,-1.02692 -1.19028,-1.58971 -0.48523,-0.58759 -0.99537,-1.15392 -1.38295,-1.81577 -0.31185,-0.56407 -0.67589,-1.09908 -1.00776,-1.64998 -0.42099,-0.60133 -0.71073,-1.26907 -1.10093,-1.88927 -0.37729,-0.76152 -0.90261,-1.44465 -1.24782,-2.22574 -0.58567,-1.11827 -1.09868,-2.27469 -1.68084,-3.39516 0,0 1.55202,-0.88687 1.55202,-0.88687 z"
       inkscape:connector-curvature="0" />
    <path
       style="opacity:1;fill:#008000;fill-opacity:1;stroke:none;stroke-width:1.91700006;stroke-miterlimit:4;stroke-dasharray:3.83400011, 1.91700006;stroke-dashoffset:0;stroke-opacity:1"
       id="path5503"
       d="m 501.84669,806.52682 c -1.16547,0.31975 -1.86278,0.65396 -2.74059,1.44752 -0.46083,0.45071 -0.53953,1.04442 -0.60142,1.65566 -0.17539,0.74875 -0.33176,1.49483 -0.40491,2.26096 -0.0126,0.77565 -0.14873,1.57563 -0.0215,2.34583 0.0509,0.60392 0.3032,1.08828 0.61415,1.58795 0.29302,0.40906 0.55735,0.63984 1.03684,0.76599 0.73896,0.14273 1.4965,0.13734 2.24617,0.14393 0.79935,0.001 1.5914,0.0453 2.37652,-0.11624 0.52806,-0.0795 0.98743,-0.28542 1.31585,-0.71137 0.47039,-0.48376 0.864,-1.01174 1.2044,-1.59108 0.35291,-0.63395 0.44228,-1.34993 0.50604,-2.06023 0.0566,-0.86392 0.0505,-1.73037 0.0495,-2.59567 -0.10749,-0.6701 -0.18341,-1.44268 -0.6468,-1.97355 -0.32741,-0.50556 -0.86976,-0.67851 -1.3947,-0.91903 -0.62729,-0.2451 -1.30658,-0.27394 -1.9714,-0.30589 -0.42595,-0.0163 -0.85225,-0.0182 -1.27845,-0.0209 0,0 0.0125,-1.78751 0.0125,-1.78751 l 0,0 c 0.45141,0.002 0.90292,0.005 1.35407,0.0231 0.89412,0.0446 1.79912,0.11124 2.63272,0.46819 0.78841,0.36586 1.59137,0.71729 2.08251,1.47863 0.62598,0.90275 0.92354,1.93968 0.99756,3.03518 9.5e-4,0.92073 0.007,1.84274 -0.0571,2.7618 -0.0917,0.97251 -0.25048,1.94134 -0.74492,2.80168 -0.39636,0.67417 -0.85626,1.29206 -1.39707,1.85884 -0.62847,0.68693 -1.3761,1.15036 -2.31246,1.29045 -0.90884,0.179 -1.82052,0.1675 -2.74431,0.15108 -0.91997,-0.009 -1.85108,-0.006 -2.75125,-0.22148 -0.87513,-0.28444 -1.51952,-0.76369 -2.03343,-1.53146 -0.44403,-0.71352 -0.77783,-1.45095 -0.86865,-2.2984 -0.105,-0.914 -0.0424,-1.83607 0.0145,-2.75274 0.0761,-0.77084 0.20592,-1.53056 0.40681,-2.2794 0.11837,-1.05251 0.37926,-2.03996 1.18128,-2.79152 1.07783,-0.97065 2.09921,-1.47768 3.50443,-1.85447 0,0 0.43355,1.73417 0.43355,1.73417 z"
       inkscape:connector-curvature="0" />
    <path
       style="opacity:1;fill:#008000;fill-opacity:1;stroke:none;stroke-width:1.91700006;stroke-miterlimit:4;stroke-dasharray:3.83400011, 1.91700006;stroke-dashoffset:0;stroke-opacity:1"
       id="path5505"
       d="m 506.82097,794.15111 c 1.32666,0.50314 2.48417,1.24787 3.57602,2.13846 0.69852,0.58312 1.25853,1.27492 1.75631,2.03077 0.33626,0.60841 0.6434,1.22852 0.96513,1.84439 0,0 -1.58508,0.82631 -1.58508,0.82631 l 0,0 c -0.29423,-0.56573 -0.57628,-1.13481 -0.87824,-1.69565 -0.38985,-0.60942 -0.83287,-1.15087 -1.38804,-1.62071 -0.94121,-0.76787 -1.92494,-1.41945 -3.07375,-1.84985 0,0 0.62765,-1.67372 0.62765,-1.67372 z"
       inkscape:connector-curvature="0" />
    <path
       style="opacity:1;fill:#008000;fill-opacity:1;stroke:none;stroke-width:1.91700006;stroke-miterlimit:4;stroke-dasharray:3.83400011, 1.91700006;stroke-dashoffset:0;stroke-opacity:1"
       id="path5507"
       d="m 512.84287,791.44797 c 0.8577,0.86177 1.64329,1.77979 2.41069,2.72015 0.53901,0.70392 0.90638,1.53249 1.21337,2.3609 0.17222,0.60234 0.41235,1.17476 0.56569,1.78412 0,0 -1.73572,0.4273 -1.73572,0.4273 l 0,0 c -0.13081,-0.54847 -0.3646,-1.05734 -0.50997,-1.60078 -0.22766,-0.64482 -0.51788,-1.28922 -0.91939,-1.84273 -0.76141,-0.93661 -1.54953,-1.84293 -2.39789,-2.7046 0,0 1.37322,-1.14436 1.37322,-1.14436 z"
       inkscape:connector-curvature="0" />
  </g>
</svg>
