<?xml version="1.0" encoding="UTF-8" standalone="no"?>
<!-- Created with Inkscape (http://www.inkscape.org/) -->

<svg
   xmlns:dc="http://purl.org/dc/elements/1.1/"
   xmlns:cc="http://creativecommons.org/ns#"
   xmlns:rdf="http://www.w3.org/1999/02/22-rdf-syntax-ns#"
   xmlns:svg="http://www.w3.org/2000/svg"
   xmlns="http://www.w3.org/2000/svg"
   xmlns:sodipodi="http://sodipodi.sourceforge.net/DTD/sodipodi-0.dtd"
   xmlns:inkscape="http://www.inkscape.org/namespaces/inkscape"
   width="323.56915"
   height="426.8558"
   viewBox="0 0 323.56916 426.85582"
   id="svg2"
   version="1.1"
   inkscape:version="0.91 r13725"
   sodipodi:docname="balance.svg">
  <defs
     id="defs4">
    <marker
       inkscape:stockid="Arrow2Mend"
       orient="auto"
       refY="0"
       refX="0"
       id="Arrow2Mend"
       style="overflow:visible"
       inkscape:isstock="true">
      <path
         id="path6229"
         style="fill:#ff0000;fill-opacity:1;fill-rule:evenodd;stroke:#ff0000;stroke-width:0.625;stroke-linejoin:round;stroke-opacity:1"
         d="M 8.7185878,4.0337352 -2.2072895,0.01601326 8.7185884,-4.0017078 c -1.7454984,2.3720609 -1.7354408,5.6174519 -6e-7,8.035443 z"
         transform="scale(-0.6,-0.6)"
         inkscape:connector-curvature="0" />
    </marker>
  </defs>
  <sodipodi:namedview
     id="base"
     pagecolor="#ffffff"
     bordercolor="#666666"
     borderopacity="1.0"
     inkscape:pageopacity="0.0"
     inkscape:pageshadow="2"
     inkscape:zoom="1.4"
     inkscape:cx="14.109822"
     inkscape:cy="267.8846"
     inkscape:document-units="px"
     inkscape:current-layer="layer1"
     showgrid="false"
     units="px"
     inkscape:window-width="1920"
     inkscape:window-height="1026"
     inkscape:window-x="0"
     inkscape:window-y="54"
     inkscape:window-maximized="0"
     fit-margin-top="0"
     fit-margin-left="0"
     fit-margin-right="0"
     fit-margin-bottom="0" />
  <metadata
     id="metadata7">
    <rdf:RDF>
      <cc:Work
         rdf:about="">
        <dc:format>image/svg+xml</dc:format>
        <dc:type
           rdf:resource="http://purl.org/dc/dcmitype/StillImage" />
        <dc:title></dc:title>
      </cc:Work>
    </rdf:RDF>
  </metadata>
  <g
     inkscape:label="Layer 1"
     inkscape:groupmode="layer"
     id="layer1"
     transform="translate(-17.109876,-644.84387)">
    <rect
       style="opacity:1;fill:#e09500;fill-opacity:1;stroke:none;stroke-width:1.60000002;stroke-miterlimit:4;stroke-dasharray:none;stroke-dashoffset:0;stroke-opacity:1"
       id="rect4136-3"
       width="53.281013"
       height="53.281013"
       x="48.470688"
       y="681.27942" />
    <rect
       style="opacity:1;fill:#e09500;fill-opacity:1;stroke:none;stroke-width:1.60000002;stroke-miterlimit:4;stroke-dasharray:none;stroke-dashoffset:0;stroke-opacity:1"
       id="rect4136-3-6"
       width="53.281025"
       height="53.281025"
       x="48.062099"
       y="754.07654" />
    <path
       style="opacity:0.5;fill:none;fill-rule:evenodd;stroke:#808080;stroke-width:2.08252263;stroke-linecap:butt;stroke-linejoin:miter;stroke-miterlimit:4;stroke-dasharray:4.16504482, 2.08252242;stroke-dashoffset:0;stroke-opacity:1"
       d="m 85.849407,853.3492 76.768023,0"
       id="path4168-7-5"
       inkscape:connector-curvature="0"
       sodipodi:nodetypes="cc" />
    <rect
       style="opacity:1;fill:#999999;fill-opacity:1;stroke:none;stroke-width:1.60000002;stroke-miterlimit:4;stroke-dasharray:none;stroke-dashoffset:0;stroke-opacity:1"
       id="rect4136-3-6-6"
       width="53.281025"
       height="53.281025"
       x="48.067219"
       y="826.96289" />
    <text
       xml:space="preserve"
       style="font-style:normal;font-weight:normal;font-size:19.01102638px;line-height:125%;font-family:sans-serif;letter-spacing:0px;word-spacing:0px;fill:#000000;fill-opacity:1;stroke:none;stroke-width:1px;stroke-linecap:butt;stroke-linejoin:miter;stroke-opacity:1"
       x="118.23332"
       y="865.21979"
       id="text5417-3"
       sodipodi:linespacing="125%"><tspan
         sodipodi:role="line"
         id="tspan5419-5"
         x="118.23332"
         y="865.21979"
         style="font-size:10.86344433px;fill:#b3b3b3">spent</tspan></text>
    <rect
       style="opacity:1;fill:#e09500;fill-opacity:1;stroke:none;stroke-width:1.60000002;stroke-miterlimit:4;stroke-dasharray:none;stroke-dashoffset:0;stroke-opacity:1"
       id="rect4136-3-6-6-6"
       width="53.281025"
       height="53.281025"
       x="48.0439"
       y="899.44507" />
    <path
       style="opacity:0.5;fill:none;fill-rule:evenodd;stroke:#808080;stroke-width:2.08252263;stroke-linecap:butt;stroke-linejoin:miter;stroke-miterlimit:4;stroke-dasharray:4.16504482, 2.08252242;stroke-dashoffset:0;stroke-opacity:1"
       d="m 85.820222,998.23944 76.768008,0"
       id="path4168-7-5-2-9"
       inkscape:connector-curvature="0"
       sodipodi:nodetypes="cc" />
    <rect
       style="opacity:1;fill:#999999;fill-opacity:1;stroke:none;stroke-width:1.60000002;stroke-miterlimit:4;stroke-dasharray:none;stroke-dashoffset:0;stroke-opacity:1"
       id="rect4136-3-6-6-6-2"
       width="53.281025"
       height="53.281025"
       x="48.038071"
       y="971.85315" />
    <text
       xml:space="preserve"
       style="font-style:normal;font-weight:normal;font-size:19.01102638px;line-height:125%;font-family:sans-serif;letter-spacing:0px;word-spacing:0px;fill:#000000;fill-opacity:1;stroke:none;stroke-width:1px;stroke-linecap:butt;stroke-linejoin:miter;stroke-opacity:1"
       x="118.2042"
       y="1010.11"
       id="text5417-3-1-0"
       sodipodi:linespacing="125%"><tspan
         sodipodi:role="line"
         id="tspan5419-5-8-2"
         x="118.2042"
         y="1010.11"
         style="font-size:10.86344433px;fill:#b3b3b3">spent</tspan></text>
    <text
       xml:space="preserve"
       style="font-style:normal;font-variant:normal;font-weight:normal;font-stretch:normal;font-size:19.49219322px;line-height:125%;font-family:monospace;-inkscape-font-specification:monospace;letter-spacing:0px;word-spacing:0px;fill:#000000;fill-opacity:1;stroke:none;stroke-width:1px;stroke-linecap:butt;stroke-linejoin:miter;stroke-opacity:1"
       x="68.525543"
       y="786.95416"
       id="text8302"
       sodipodi:linespacing="125%"><tspan
         sodipodi:role="line"
         id="tspan8304"
         x="68.525543"
         y="786.95416"
         style="font-size:14.61914444px">2</tspan></text>
    <text
       xml:space="preserve"
       style="font-style:normal;font-variant:normal;font-weight:normal;font-stretch:normal;font-size:19.49219322px;line-height:125%;font-family:monospace;-inkscape-font-specification:monospace;letter-spacing:0px;word-spacing:0px;fill:#000000;fill-opacity:1;stroke:none;stroke-width:1px;stroke-linecap:butt;stroke-linejoin:miter;stroke-opacity:1"
       x="69.145844"
       y="930.94519"
       id="text8302-2"
       sodipodi:linespacing="125%"><tspan
         sodipodi:role="line"
         id="tspan8304-8"
         x="69.145844"
         y="930.94519"
         style="font-size:14.61914444px">6</tspan></text>
    <text
       xml:space="preserve"
       style="font-style:normal;font-variant:normal;font-weight:normal;font-stretch:normal;font-size:19.49219322px;line-height:125%;font-family:monospace;-inkscape-font-specification:monospace;letter-spacing:0px;word-spacing:0px;fill:#000000;fill-opacity:1;stroke:none;stroke-width:1px;stroke-linecap:butt;stroke-linejoin:miter;stroke-opacity:1"
       x="69.435249"
       y="859.18158"
       id="text8302-9"
       sodipodi:linespacing="125%"><tspan
         sodipodi:role="line"
         id="tspan8304-7"
         x="69.435249"
         y="859.18158"
         style="font-size:14.61914444px">5</tspan></text>
    <text
       xml:space="preserve"
       style="font-style:normal;font-variant:normal;font-weight:normal;font-stretch:normal;font-size:19.49219322px;line-height:125%;font-family:monospace;-inkscape-font-specification:monospace;letter-spacing:0px;word-spacing:0px;fill:#000000;fill-opacity:1;stroke:none;stroke-width:1px;stroke-linecap:butt;stroke-linejoin:miter;stroke-opacity:1"
       x="69.355621"
       y="1002.9089"
       id="text8302-3"
       sodipodi:linespacing="125%"><tspan
         sodipodi:role="line"
         id="tspan8304-6"
         x="69.355621"
         y="1002.9089"
         style="font-size:14.61914444px">7</tspan></text>
    <text
       xml:space="preserve"
       style="font-style:normal;font-variant:normal;font-weight:normal;font-stretch:normal;font-size:19.49219322px;line-height:125%;font-family:monospace;-inkscape-font-specification:monospace;letter-spacing:0px;word-spacing:0px;fill:#000000;fill-opacity:1;stroke:none;stroke-width:1px;stroke-linecap:butt;stroke-linejoin:miter;stroke-opacity:1"
       x="68.507042"
       y="713.60663"
       id="text8302-1"
       sodipodi:linespacing="125%"><tspan
         sodipodi:role="line"
         id="tspan8304-2"
         x="68.507042"
         y="713.60663"
         style="font-size:14.61914444px">4</tspan></text>
    <text
       xml:space="preserve"
       style="font-style:normal;font-weight:normal;font-size:22.74089241px;line-height:125%;font-family:sans-serif;letter-spacing:0px;word-spacing:0px;fill:#000000;fill-opacity:1;stroke:none;stroke-width:1px;stroke-linecap:butt;stroke-linejoin:miter;stroke-opacity:1"
       x="15.325313"
       y="657.18512"
       id="text8358"
       sodipodi:linespacing="125%"><tspan
         sodipodi:role="line"
         id="tspan8360"
         x="15.325313"
         y="657.18512"
         style="font-size:16.24349594px">1addressLv4r8xpj4cTvnLMAB4FoorFAQx</tspan></text>
    <path
       style="fill:none;fill-rule:evenodd;stroke:#cccccc;stroke-width:0.51979184;stroke-linecap:butt;stroke-linejoin:miter;stroke-miterlimit:4;stroke-dasharray:none;stroke-opacity:1"
       d="m 49.053771,755.5663 -12.530695,0 0,-93.98021"
       id="path9036"
       inkscape:connector-curvature="0" />
    <path
       style="fill:#000000;fill-rule:evenodd;stroke:none;stroke-width:1px;stroke-linecap:butt;stroke-linejoin:miter;stroke-opacity:1"
       d="m 44.257409,751.58665 8.71302,0 0,8.52151 -1.914946,2.58519 -4.500136,0 -2.585182,-3.63841 z"
       id="path4935-9"
       inkscape:connector-curvature="0" />
    <path
       style="opacity:1;fill:#000000;fill-opacity:1;stroke:none"
       id="path4939-3"
       d="m 44.018041,752.35675 c 0,-0.29192 0,-0.58381 0,-0.8757 0,-0.21487 0,-0.42973 0,-0.64458 -0.0022,-0.22079 -0.004,-0.44018 0.01806,-0.65989 0.03737,-0.19667 0.06759,-0.3933 0.125517,-0.58526 0.0349,-0.1509 0.05455,-0.30357 0.09527,-0.45379 0.03111,-0.15877 0.06892,-0.316 0.104167,-0.47405 0.01685,-0.1714 0.07805,-0.33352 0.111015,-0.50152 0.03694,-0.18431 0.0892,-0.36746 0.14584,-0.54687 0.05738,-0.17336 0.133067,-0.33982 0.213661,-0.50335 0.06524,-0.13222 0.129364,-0.26519 0.197653,-0.39592 0.07954,-0.13535 0.155871,-0.24579 0.231186,-0.37562 0.08595,-0.15894 0.234672,-0.27139 0.339698,-0.41414 0.100578,-0.0994 0.19853,-0.20161 0.298088,-0.30091 0.136789,-0.13251 0.293911,-0.23716 0.4274,-0.33784 0.184049,-0.10733 0.24634,-0.16855 0.427066,-0.2764 0.134569,-0.1021 0.298781,-0.15441 0.452109,-0.22029 0.233668,-0.0987 0.485193,-0.1259 0.735818,-0.1401 0.202626,-0.008 0.405476,-0.008 0.608222,-0.008 0.217683,-0.0165 0.429064,0.0328 0.641609,0.0695 0.227433,0.0565 0.445836,0.13921 0.656344,0.24123 0.166307,0.074 0.319207,0.16908 0.469544,0.27121 0.145006,0.0789 0.245522,0.2499 0.378774,0.33856 0.140124,0.13624 0.272095,0.27322 0.388519,0.43119 0.115745,0.1407 0.212478,0.29585 0.294714,0.48102 0.08075,0.15269 0.141137,0.32131 0.195754,0.48534 0.05773,0.13625 0.113808,0.2484 0.171462,0.38558 0.04934,0.14323 0.115135,0.31052 0.155139,0.4391 0.05696,0.17018 0.103895,0.30102 0.158171,0.46272 0.03386,0.12734 0.09509,0.28561 0.130222,0.40228 0.05598,0.16959 0.102596,0.2982 0.156685,0.45901 0.04401,0.18245 0.074,0.34601 0.117851,0.51935 0.0466,0.16393 0.04463,0.35876 0.08076,0.5007 0.04501,0.1723 0.05697,0.34961 0.09568,0.52256 0.04551,0.18907 0.06269,0.3922 0.08443,0.57835 0.05202,0.19061 0.07539,0.38663 0.09047,0.58308 0.01597,0.20143 0.01356,0.40133 -0.005,0.60219 0,0 -1.424028,-0.18674 -1.424028,-0.18674 l 0,0 c 0.01881,0.0652 5.38e-4,-0.22516 1.16e-4,-0.23652 -5.5e-4,-0.0246 -0.0022,-0.0491 -0.0033,-0.0737 -0.0096,-0.14235 -0.03074,-0.28225 -0.06907,-0.42012 -0.02855,-0.17821 -0.03681,-0.35856 -0.07555,-0.53518 -0.03633,-0.16468 -0.05517,-0.33112 -0.08946,-0.49581 -0.03831,-0.16203 -0.05548,-0.32524 -0.078,-0.48952 -0.03453,-0.13981 -0.07424,-0.27845 -0.08977,-0.42201 -0.04033,-0.13414 -0.09161,-0.26512 -0.13521,-0.39807 -0.0529,-0.15392 -0.100262,-0.31011 -0.152034,-0.46423 -0.03974,-0.13251 -0.09025,-0.26215 -0.133588,-0.39345 -0.04853,-0.13818 -0.08847,-0.28186 -0.146107,-0.41618 -0.0539,-0.16558 -0.15748,-0.31524 -0.206925,-0.48346 -0.0393,-0.13624 -0.102487,-0.26437 -0.162252,-0.39235 0.09149,0.11722 -0.144829,-0.2009 -0.155924,-0.21711 0.11017,0.10853 -0.141881,-0.14472 -0.161412,-0.1668 -0.09112,-0.0859 -0.15987,-0.14921 -0.241608,-0.22416 -0.005,-0.004 0.01195,0.007 0.01794,0.009 -0.08568,-0.0591 -0.177678,-0.12215 -0.323418,-0.18321 -0.07895,-0.0346 -0.345729,-0.12644 -0.239622,-0.099 -0.161725,-0.029 -0.235937,-0.0609 -0.393893,-0.0477 -0.176466,-2.8e-4 -0.353006,-9.9e-4 -0.529402,0.004 -0.08232,0.004 -0.166906,0.004 -0.247009,0.026 -0.13515,0.0577 -0.203513,0.0667 -0.320706,0.15588 0.05664,-0.0672 -0.321672,0.24808 -0.270077,0.17541 -0.05383,0.0371 -0.323226,0.25405 -0.226236,0.15748 -0.09002,0.0938 -0.185177,0.18647 -0.274851,0.27513 -0.08645,0.0954 -0.125984,0.141 -0.195864,0.22573 -0.0043,0.007 0.005,-0.0117 0.0077,-0.0185 -0.08284,0.13535 -0.162825,0.25496 -0.207444,0.33472 -0.05717,0.11864 -0.120747,0.2336 -0.184107,0.37111 0.0079,-0.0553 0.0027,-0.009 -0.04335,0.0977 -0.0959,0.22403 0.04939,-0.17485 -0.06069,0.14695 -0.0068,0.0203 -0.01489,0.04 -0.02223,0.06 -0.004,-0.0538 5.36e-4,-0.009 -0.02738,0.10209 -0.01248,0.0498 -0.0377,0.096 -0.04814,0.14636 -0.0082,0.0397 -0.01339,0.0797 -0.02009,0.11969 -0.03848,0.17527 -0.09462,0.34119 -0.11503,0.51986 -0.04095,0.17935 -0.08151,0.35753 -0.120033,0.53746 -0.04022,0.14294 -0.05048,0.33193 -0.106665,0.49312 -0.02799,0.0897 -0.04719,0.23173 -0.07606,0.35995 -0.01575,-0.043 -0.005,-0.0181 -0.005,0.0821 0,0.0957 0,0.19122 0,0.28683 0,0.0322 0,0.0644 0,0.0968 0,0.21488 0,0.42973 0,0.6446 0,0.29188 0,0.5838 0,0.87569 0,0 -1.436215,0 -1.436215,0 z"
       inkscape:connector-curvature="0" />
    <circle
       style="opacity:1;fill:#cccccc;fill-opacity:1;stroke:none"
       id="path4943-1"
       cx="48.6618"
       cy="755.79938"
       r="1.3404652" />
    <path
       style="fill:#cccccc;fill-rule:evenodd"
       d="m 48.278802,756.08679 -1.723455,3.35115 3.925651,-0.0958 -1.24472,-3.35117 z"
       id="path4945-9"
       inkscape:connector-curvature="0" />
    <path
       style="fill:none;fill-rule:evenodd;stroke:#cccccc;stroke-width:0.51979184;stroke-linecap:butt;stroke-linejoin:miter;stroke-miterlimit:4;stroke-dasharray:none;stroke-opacity:1"
       d="m 48.458303,827.71991 -17.12505,0 0,-166.14774"
       id="path9036-6"
       inkscape:connector-curvature="0"
       sodipodi:nodetypes="ccc" />
    <path
       style="fill:#000000;fill-rule:evenodd;stroke:none;stroke-width:1px;stroke-linecap:butt;stroke-linejoin:miter;stroke-opacity:1"
       d="m 44.585578,824.11179 8.713021,0 0,8.52154 -1.914946,2.58518 -4.500137,0 -2.585181,-3.63841 z"
       id="path4935-9-4"
       inkscape:connector-curvature="0" />
    <path
       style="opacity:1;fill:#000000;fill-opacity:1;stroke:none"
       id="path4939-3-7"
       d="m 44.34621,824.8819 c 0,-0.2919 0,-0.58379 0,-0.8757 0,-0.21487 0,-0.42972 0,-0.64456 -0.0022,-0.2208 -0.004,-0.44019 0.01806,-0.65991 0.03737,-0.19666 0.06759,-0.39328 0.125517,-0.58524 0.0349,-0.15091 0.05455,-0.30357 0.09527,-0.45379 0.03111,-0.15877 0.06892,-0.31601 0.104167,-0.47406 0.01685,-0.17139 0.07805,-0.33351 0.111015,-0.50152 0.03694,-0.1843 0.0892,-0.36746 0.14584,-0.54686 0.05738,-0.17337 0.133067,-0.33983 0.213661,-0.50336 0.06524,-0.13223 0.129364,-0.26519 0.197653,-0.39593 0.07954,-0.13534 0.155872,-0.24578 0.231187,-0.37561 0.08595,-0.15894 0.234671,-0.27139 0.339697,-0.41413 0.100578,-0.0994 0.198529,-0.20161 0.298088,-0.30092 0.136789,-0.13252 0.293913,-0.23716 0.4274,-0.33783 0.184048,-0.10734 0.24634,-0.16856 0.427066,-0.27641 0.13457,-0.1021 0.298783,-0.1544 0.452109,-0.22028 0.233668,-0.0988 0.485193,-0.12592 0.735818,-0.1401 0.202626,-0.008 0.405476,-0.008 0.608222,-0.008 0.217684,-0.0165 0.429064,0.0328 0.641609,0.0695 0.227433,0.0565 0.445837,0.13922 0.656344,0.24123 0.166307,0.074 0.319207,0.16908 0.469545,0.27122 0.145005,0.0789 0.245522,0.24988 0.378773,0.33855 0.140124,0.13624 0.272095,0.27322 0.38852,0.43118 0.115744,0.14071 0.212477,0.29585 0.294714,0.48104 0.08075,0.15268 0.141136,0.3213 0.195754,0.48534 0.05773,0.13623 0.113808,0.2484 0.171461,0.38558 0.04935,0.14323 0.115135,0.3105 0.155141,0.4391 0.05696,0.17018 0.103894,0.30101 0.158169,0.46271 0.03384,0.12735 0.09509,0.28561 0.130222,0.40228 0.05598,0.16959 0.102596,0.29821 0.156686,0.45902 0.04401,0.18244 0.07399,0.346 0.11785,0.51934 0.0466,0.16392 0.04463,0.35875 0.08076,0.50071 0.04501,0.1723 0.05697,0.3496 0.09569,0.52254 0.04551,0.18909 0.06269,0.39221 0.08443,0.57836 0.05202,0.19062 0.07539,0.38662 0.09047,0.58308 0.01597,0.20143 0.01356,0.40133 -0.005,0.60219 0,0 -1.424026,-0.18674 -1.424026,-0.18674 l 0,0 c 0.01881,0.0652 5.37e-4,-0.22516 1.15e-4,-0.23653 -5.49e-4,-0.0246 -0.0022,-0.0491 -0.0033,-0.0736 -0.0096,-0.14234 -0.03073,-0.28225 -0.06907,-0.42011 -0.02855,-0.17823 -0.03681,-0.35856 -0.07555,-0.53518 -0.03633,-0.16468 -0.05517,-0.33112 -0.08946,-0.49584 -0.03831,-0.16201 -0.05548,-0.32522 -0.078,-0.4895 -0.03452,-0.13982 -0.07423,-0.27844 -0.08977,-0.42201 -0.04033,-0.13414 -0.09161,-0.26512 -0.135209,-0.39806 -0.0529,-0.15393 -0.100274,-0.31013 -0.152034,-0.46423 -0.03974,-0.13253 -0.09025,-0.26217 -0.133588,-0.39346 -0.04853,-0.13818 -0.08847,-0.28185 -0.146108,-0.41618 -0.0539,-0.16558 -0.15748,-0.31523 -0.206925,-0.48346 -0.0393,-0.13624 -0.102487,-0.26437 -0.16225,-0.39234 0.09149,0.11721 -0.14483,-0.20092 -0.155925,-0.21711 0.11017,0.10853 -0.141882,-0.14474 -0.161412,-0.16681 -0.09112,-0.0858 -0.159871,-0.14922 -0.241609,-0.22416 -0.005,-0.004 0.01196,0.007 0.01794,0.009 -0.08568,-0.0591 -0.177679,-0.12214 -0.323418,-0.18321 -0.07895,-0.0346 -0.345729,-0.12644 -0.239622,-0.099 -0.161725,-0.029 -0.235937,-0.0608 -0.393893,-0.0477 -0.176467,-2.7e-4 -0.353006,-9.9e-4 -0.529402,0.004 -0.08232,0.004 -0.166907,0.004 -0.24701,0.026 -0.135149,0.0577 -0.203513,0.0667 -0.320706,0.15588 0.05664,-0.0672 -0.321671,0.24808 -0.270077,0.17541 -0.05384,0.0371 -0.323226,0.25406 -0.226235,0.15748 -0.09002,0.0938 -0.185178,0.18648 -0.274851,0.27512 -0.08645,0.0954 -0.125985,0.14101 -0.195865,0.22574 -0.0043,0.007 0.005,-0.0117 0.0077,-0.0185 -0.08284,0.13537 -0.162823,0.25497 -0.207443,0.33473 -0.05717,0.11865 -0.120748,0.2336 -0.184108,0.37111 0.0079,-0.0553 0.0028,-0.009 -0.04335,0.0977 -0.0959,0.22403 0.04939,-0.17485 -0.06069,0.14695 -0.0068,0.0203 -0.01489,0.0401 -0.02223,0.0601 -0.004,-0.0537 5.37e-4,-0.009 -0.02738,0.1021 -0.01248,0.0498 -0.0377,0.096 -0.04814,0.14636 -0.0082,0.0396 -0.01339,0.0798 -0.02009,0.11968 -0.03848,0.17526 -0.09464,0.34119 -0.115031,0.51987 -0.04095,0.17935 -0.08151,0.35751 -0.120033,0.53745 -0.04022,0.14294 -0.05048,0.33193 -0.106665,0.49313 -0.02799,0.0897 -0.04719,0.23172 -0.07606,0.35994 -0.01575,-0.043 -0.005,-0.0181 -0.005,0.082 0,0.0956 0,0.19122 0,0.28682 0,0.0322 0,0.0644 0,0.0969 0,0.21487 0,0.42972 0,0.6446 0,0.29188 0,0.58377 0,0.87568 0,0 -1.436215,0 -1.436215,0 z"
       inkscape:connector-curvature="0" />
    <circle
       style="opacity:1;fill:#cccccc;fill-opacity:1;stroke:none"
       id="path4943-1-8"
       cx="48.989964"
       cy="828.32458"
       r="1.3404652" />
    <path
       style="fill:#cccccc;fill-rule:evenodd"
       d="m 48.606971,828.61196 -1.723455,3.35113 3.925651,-0.0957 -1.244721,-3.35116 z"
       id="path4945-9-4"
       inkscape:connector-curvature="0" />
    <path
       style="fill:none;fill-rule:evenodd;stroke:#cccccc;stroke-width:0.51979184;stroke-linecap:butt;stroke-linejoin:miter;stroke-miterlimit:4;stroke-dasharray:none;stroke-opacity:1"
       d="m 48.575739,900.54958 -22.457782,0 0,-239.0114"
       id="path9036-6-1"
       inkscape:connector-curvature="0"
       sodipodi:nodetypes="ccc" />
    <path
       style="fill:#000000;fill-rule:evenodd;stroke:none;stroke-width:1px;stroke-linecap:butt;stroke-linejoin:miter;stroke-opacity:1"
       d="m 44.585576,896.30879 8.713022,0 0,8.52153 -1.914947,2.58518 -4.500136,0 -2.585181,-3.63841 z"
       id="path4935-9-4-5"
       inkscape:connector-curvature="0" />
    <path
       style="opacity:1;fill:#000000;fill-opacity:1;stroke:none"
       id="path4939-3-7-0"
       d="m 44.346209,897.0789 c 0,-0.29192 0,-0.5838 0,-0.87571 0,-0.21486 0,-0.42973 0,-0.64457 -0.0022,-0.22079 -0.004,-0.44018 0.01806,-0.6599 0.03737,-0.19667 0.06759,-0.39328 0.125517,-0.58524 0.0349,-0.15091 0.05455,-0.30357 0.09527,-0.45379 0.03111,-0.15878 0.06892,-0.31602 0.104167,-0.47405 0.01685,-0.17141 0.07805,-0.33354 0.111016,-0.50152 0.03694,-0.18431 0.0892,-0.36748 0.14584,-0.54686 0.05738,-0.17338 0.133067,-0.33985 0.213661,-0.50338 0.06524,-0.13222 0.129363,-0.26518 0.197652,-0.39592 0.07954,-0.13534 0.155872,-0.24578 0.231188,-0.37562 0.08595,-0.15892 0.234671,-0.27137 0.339696,-0.41412 0.100578,-0.0994 0.19853,-0.20162 0.298089,-0.30093 0.136789,-0.1325 0.293913,-0.23715 0.4274,-0.33783 0.184048,-0.10733 0.24634,-0.16854 0.427066,-0.27641 0.134569,-0.10209 0.298783,-0.1544 0.452109,-0.22026 0.233668,-0.0988 0.485193,-0.12593 0.735818,-0.14012 0.202626,-0.008 0.405475,-0.008 0.608222,-0.008 0.217683,-0.0164 0.429063,0.0328 0.641609,0.0695 0.227433,0.0565 0.445837,0.13921 0.656344,0.24124 0.166306,0.074 0.319207,0.16908 0.469545,0.27121 0.145005,0.0789 0.245522,0.24989 0.378773,0.33856 0.140124,0.13623 0.272094,0.2732 0.38852,0.43117 0.115744,0.14071 0.212477,0.29586 0.294714,0.48103 0.08075,0.15269 0.141136,0.32131 0.195754,0.48534 0.05773,0.13624 0.113808,0.2484 0.171461,0.38559 0.04935,0.14323 0.115135,0.31051 0.155141,0.43909 0.05696,0.17018 0.103894,0.30102 0.158168,0.46272 0.03385,0.12735 0.09509,0.2856 0.130222,0.40227 0.05598,0.16961 0.102596,0.29822 0.156686,0.45903 0.04401,0.18244 0.074,0.346 0.117851,0.51935 0.0466,0.16391 0.04463,0.35874 0.08076,0.50069 0.04501,0.17231 0.05697,0.34961 0.09569,0.52255 0.04551,0.18908 0.06269,0.39222 0.08443,0.57836 0.05202,0.19061 0.07539,0.38662 0.09047,0.58307 0.01597,0.20144 0.01356,0.40134 -0.005,0.60221 0,0 -1.424026,-0.18674 -1.424026,-0.18674 l 0,0 c 0.01881,0.0652 5.37e-4,-0.22517 1.15e-4,-0.23654 -5.49e-4,-0.0246 -0.0022,-0.0491 -0.0033,-0.0736 -0.0096,-0.14236 -0.03074,-0.28225 -0.06907,-0.42012 -0.02855,-0.17822 -0.03681,-0.35857 -0.07555,-0.53519 -0.03633,-0.16467 -0.05517,-0.33111 -0.08947,-0.49582 -0.03831,-0.16201 -0.05548,-0.32523 -0.07799,-0.48951 -0.03452,-0.13981 -0.07423,-0.27845 -0.08977,-0.422 -0.04033,-0.13416 -0.09161,-0.26512 -0.135209,-0.39808 -0.0529,-0.15392 -0.100263,-0.31012 -0.152034,-0.46422 -0.03974,-0.13253 -0.09025,-0.26216 -0.133588,-0.39345 -0.04853,-0.13818 -0.08847,-0.28187 -0.146108,-0.4162 -0.0539,-0.16558 -0.15748,-0.31523 -0.206925,-0.48345 -0.0393,-0.13624 -0.102487,-0.26437 -0.16225,-0.39234 0.09149,0.11722 -0.144831,-0.20091 -0.155925,-0.21711 0.11017,0.10853 -0.141882,-0.14473 -0.161412,-0.16682 -0.09112,-0.0858 -0.159871,-0.14921 -0.24161,-0.22416 -0.005,-0.004 0.01196,0.007 0.01794,0.009 -0.08568,-0.0591 -0.177678,-0.12214 -0.323417,-0.18322 -0.07895,-0.0346 -0.34573,-0.12642 -0.239622,-0.099 -0.161725,-0.0291 -0.235937,-0.0608 -0.393893,-0.0477 -0.176467,-2.7e-4 -0.353006,-9.9e-4 -0.529402,0.004 -0.08232,0.004 -0.166907,0.004 -0.247011,0.026 -0.135149,0.0577 -0.203512,0.0668 -0.320706,0.1559 0.05664,-0.0672 -0.321671,0.24807 -0.270076,0.1754 -0.05384,0.0371 -0.323226,0.25406 -0.226237,0.15749 -0.09,0.0938 -0.185176,0.18647 -0.274849,0.27512 -0.08645,0.0954 -0.125985,0.141 -0.195865,0.22573 -0.0043,0.007 0.005,-0.0117 0.0077,-0.0185 -0.08284,0.13536 -0.162823,0.25496 -0.207443,0.33471 -0.05717,0.11865 -0.120748,0.2336 -0.184108,0.37113 0.0079,-0.0553 0.0028,-0.009 -0.04335,0.0977 -0.0959,0.22403 0.04939,-0.17485 -0.06069,0.14697 -0.0068,0.0203 -0.01489,0.04 -0.02223,0.06 -0.004,-0.0537 5.38e-4,-0.009 -0.02738,0.10209 -0.01248,0.0498 -0.0377,0.096 -0.04814,0.14636 -0.0082,0.0395 -0.01339,0.0799 -0.02009,0.11968 -0.03848,0.17526 -0.09463,0.34118 -0.11503,0.51987 -0.04095,0.17933 -0.08151,0.35751 -0.120033,0.53745 -0.04022,0.14295 -0.05048,0.33193 -0.106665,0.49312 -0.02799,0.0897 -0.04719,0.23173 -0.07606,0.35996 -0.01575,-0.043 -0.005,-0.0181 -0.005,0.082 0,0.0957 0,0.19122 0,0.28683 0,0.0322 0,0.0644 0,0.0968 0,0.21487 0,0.42972 0,0.64459 0,0.2919 0,0.58379 0,0.8757 0,0 -1.436215,0 -1.436215,0 z"
       inkscape:connector-curvature="0" />
    <circle
       style="opacity:1;fill:#cccccc;fill-opacity:1;stroke:none"
       id="path4943-1-8-3"
       cx="48.98996"
       cy="900.52155"
       r="1.3404652" />
    <path
       style="fill:#cccccc;fill-rule:evenodd"
       d="m 48.60697,900.80894 -1.723455,3.35114 3.925651,-0.0958 -1.244721,-3.35115 z"
       id="path4945-9-4-6"
       inkscape:connector-curvature="0" />
    <path
       style="fill:none;fill-rule:evenodd;stroke:#cccccc;stroke-width:0.51979184;stroke-linecap:butt;stroke-linejoin:miter;stroke-miterlimit:4;stroke-dasharray:none;stroke-opacity:1"
       d="m 48.475205,973.41326 -27.544387,0 0,-311.87509"
       id="path9036-6-1-5"
       inkscape:connector-curvature="0"
       sodipodi:nodetypes="ccc" />
    <path
       style="fill:#000000;fill-rule:evenodd;stroke:none;stroke-width:1px;stroke-linecap:butt;stroke-linejoin:miter;stroke-opacity:1"
       d="m 44.257409,968.83393 8.71302,0 0,8.52154 -1.914946,2.58519 -4.500136,0 -2.585182,-3.63842 z"
       id="path4935-9-4-1"
       inkscape:connector-curvature="0" />
    <path
       style="opacity:1;fill:#000000;fill-opacity:1;stroke:none"
       id="path4939-3-7-06"
       d="m 44.018041,969.60405 c 0,-0.29192 0,-0.58381 0,-0.87571 0,-0.21488 0,-0.42973 0,-0.64456 -0.0022,-0.2208 -0.004,-0.4402 0.01806,-0.65992 0.03737,-0.19666 0.06759,-0.39327 0.125517,-0.58524 0.0349,-0.15091 0.05455,-0.30357 0.09527,-0.45379 0.03111,-0.15877 0.06892,-0.31601 0.104167,-0.47404 0.01685,-0.17141 0.07805,-0.33353 0.111015,-0.50153 0.03694,-0.1843 0.0892,-0.36746 0.14584,-0.54686 0.05738,-0.17338 0.133067,-0.33984 0.213661,-0.50336 0.06524,-0.13223 0.129364,-0.26519 0.197653,-0.39594 0.07954,-0.13534 0.155871,-0.24578 0.231186,-0.37561 0.08595,-0.15894 0.234672,-0.27138 0.339698,-0.41412 0.100578,-0.0994 0.19853,-0.20162 0.298088,-0.30093 0.136789,-0.13251 0.293911,-0.23716 0.4274,-0.33783 0.184049,-0.10734 0.24634,-0.16854 0.427066,-0.2764 0.134569,-0.1021 0.298781,-0.15441 0.452109,-0.22028 0.233668,-0.0987 0.485193,-0.12592 0.735818,-0.14011 0.202626,-0.008 0.405476,-0.008 0.608222,-0.008 0.217683,-0.0165 0.429064,0.0328 0.641609,0.0695 0.227433,0.0565 0.445836,0.13922 0.656344,0.24124 0.166307,0.074 0.319207,0.16907 0.469544,0.27121 0.145006,0.0789 0.245522,0.24989 0.378774,0.33855 0.140124,0.13623 0.272095,0.27322 0.388519,0.43118 0.115745,0.14071 0.212478,0.29585 0.294714,0.48103 0.08075,0.15269 0.141137,0.32131 0.195754,0.48534 0.05773,0.13624 0.113808,0.2484 0.171462,0.38559 0.04934,0.14322 0.115135,0.31049 0.155139,0.43909 0.05696,0.17018 0.103895,0.30102 0.158171,0.46272 0.03386,0.12735 0.09509,0.28561 0.130222,0.40228 0.05598,0.16959 0.102596,0.2982 0.156685,0.45901 0.04401,0.18245 0.074,0.346 0.117851,0.51935 0.0466,0.16392 0.04463,0.35874 0.08076,0.50071 0.04501,0.17229 0.05697,0.34959 0.09568,0.52255 0.04551,0.18907 0.06269,0.39219 0.08443,0.57835 0.05202,0.19061 0.07539,0.38662 0.09047,0.58307 0.01597,0.20144 0.01356,0.40134 -0.005,0.60219 0,0 -1.424028,-0.18673 -1.424028,-0.18673 l 0,0 c 0.01881,0.0652 5.38e-4,-0.22516 1.16e-4,-0.23653 -5.5e-4,-0.0246 -0.0022,-0.0491 -0.0033,-0.0738 -0.0096,-0.14234 -0.03074,-0.28224 -0.06907,-0.4201 -0.02855,-0.17823 -0.03681,-0.35856 -0.07555,-0.53519 -0.03633,-0.16467 -0.05517,-0.33111 -0.08946,-0.49581 -0.03831,-0.16202 -0.05548,-0.32524 -0.078,-0.48952 -0.03453,-0.13982 -0.07424,-0.27845 -0.08977,-0.42201 -0.04033,-0.13414 -0.09161,-0.26511 -0.13521,-0.39807 -0.0529,-0.15392 -0.100262,-0.31012 -0.152034,-0.46423 -0.03974,-0.13251 -0.09025,-0.26215 -0.133588,-0.39346 -0.04853,-0.13816 -0.08847,-0.28185 -0.146107,-0.41617 -0.0539,-0.16559 -0.15748,-0.31523 -0.206925,-0.48347 -0.0393,-0.13623 -0.102487,-0.26437 -0.162252,-0.39233 0.09149,0.11721 -0.144829,-0.20092 -0.155924,-0.21712 0.11017,0.10853 -0.141881,-0.14472 -0.161412,-0.1668 -0.09112,-0.0859 -0.15987,-0.14922 -0.241608,-0.22416 -0.005,-0.004 0.01195,0.007 0.01794,0.009 -0.08568,-0.0591 -0.177678,-0.12215 -0.323418,-0.18321 -0.07895,-0.0346 -0.345729,-0.12643 -0.239622,-0.099 -0.161725,-0.029 -0.235937,-0.0609 -0.393893,-0.0477 -0.176466,-2.7e-4 -0.353006,-10e-4 -0.529402,0.004 -0.08232,0.004 -0.166906,0.004 -0.247009,0.026 -0.13515,0.0577 -0.203513,0.0667 -0.320706,0.15589 0.05664,-0.0672 -0.321672,0.24807 -0.270077,0.17541 -0.05383,0.0371 -0.323226,0.25405 -0.226236,0.15749 -0.09002,0.0938 -0.185177,0.18647 -0.274851,0.27512 -0.08645,0.0954 -0.125984,0.141 -0.195864,0.22572 -0.0043,0.007 0.005,-0.0117 0.0077,-0.0185 -0.08284,0.13534 -0.162825,0.25495 -0.207444,0.33471 -0.05717,0.11864 -0.120747,0.23359 -0.184107,0.37112 0.0079,-0.0554 0.0027,-0.009 -0.04335,0.0977 -0.0959,0.22403 0.04939,-0.17486 -0.06069,0.14696 -0.0068,0.0203 -0.01489,0.04 -0.02223,0.06 -0.004,-0.0538 5.36e-4,-0.009 -0.02738,0.10209 -0.01248,0.0498 -0.0377,0.096 -0.04814,0.14636 -0.0082,0.0396 -0.01339,0.0797 -0.02009,0.11968 -0.03848,0.17527 -0.09462,0.3412 -0.11503,0.51988 -0.04095,0.17934 -0.08151,0.35751 -0.120033,0.53745 -0.04022,0.14294 -0.05048,0.33193 -0.106665,0.49313 -0.02799,0.0897 -0.04719,0.23172 -0.07606,0.35993 -0.01575,-0.043 -0.005,-0.0181 -0.005,0.082 0,0.0957 0,0.19121 0,0.28682 0,0.0323 0,0.0644 0,0.0968 0,0.21487 0,0.42973 0,0.6446 0,0.29188 0,0.58379 0,0.87569 0,0 -1.436215,0 -1.436215,0 z"
       inkscape:connector-curvature="0" />
    <circle
       style="opacity:1;fill:#cccccc;fill-opacity:1;stroke:none"
       id="path4943-1-8-32"
       cx="48.6618"
       cy="973.04675"
       r="1.3404652" />
    <path
       style="fill:#cccccc;fill-rule:evenodd"
       d="m 48.278802,973.33409 -1.723455,3.35115 3.925651,-0.0958 -1.24472,-3.35117 z"
       id="path4945-9-4-0"
       inkscape:connector-curvature="0" />
    <path
       style="fill:none;fill-rule:evenodd;stroke:#cccccc;stroke-width:0.51979184;stroke-linecap:butt;stroke-linejoin:miter;stroke-miterlimit:4;stroke-dasharray:none;stroke-opacity:1"
       d="m 49.407672,683.18079 -7.657647,0 0,-21.58065"
       id="path9034"
       inkscape:connector-curvature="0" />
    <path
       style="fill:#000000;fill-rule:evenodd;stroke:none;stroke-width:1px;stroke-linecap:butt;stroke-linejoin:miter;stroke-opacity:1"
       d="m 45.322268,679.51418 8.71302,0 0,8.52153 -1.914946,2.58519 -4.500136,0 -2.585182,-3.63841 z"
       id="path4935"
       inkscape:connector-curvature="0" />
    <path
       style="opacity:1;fill:#000000;fill-opacity:1;stroke:none"
       id="path4939"
       d="m 45.082899,680.28429 c 0,-0.29192 0,-0.5838 0,-0.87571 0,-0.21487 0,-0.42972 0,-0.64456 -0.0022,-0.2208 -0.004,-0.44019 0.01806,-0.65992 0.03737,-0.19666 0.06759,-0.39327 0.125517,-0.58524 0.0349,-0.15091 0.05455,-0.30357 0.09527,-0.45378 0.03111,-0.15878 0.06892,-0.31601 0.104167,-0.47406 0.01685,-0.1714 0.07805,-0.33352 0.111014,-0.50152 0.03694,-0.1843 0.0892,-0.36746 0.14584,-0.54686 0.05738,-0.17338 0.133067,-0.33984 0.213662,-0.50336 0.06523,-0.13223 0.129364,-0.26518 0.197653,-0.39593 0.07954,-0.13533 0.155871,-0.24579 0.231186,-0.37562 0.08595,-0.15893 0.234671,-0.27138 0.339697,-0.41413 0.100579,-0.0994 0.19853,-0.20162 0.298089,-0.30092 0.136788,-0.1325 0.293912,-0.23714 0.427399,-0.33784 0.184048,-0.10733 0.24634,-0.16854 0.427066,-0.27639 0.134571,-0.10209 0.298783,-0.15441 0.452109,-0.22028 0.233668,-0.0987 0.485193,-0.12592 0.735818,-0.14011 0.202626,-0.008 0.405476,-0.008 0.608222,-0.008 0.217685,-0.0165 0.429064,0.0328 0.64161,0.0695 0.227432,0.0565 0.445836,0.13922 0.656343,0.24123 0.166307,0.074 0.319208,0.16908 0.469545,0.27122 0.145006,0.0789 0.245523,0.24989 0.378773,0.33855 0.140125,0.13625 0.272096,0.27322 0.38852,0.43118 0.115744,0.14071 0.212477,0.29585 0.294714,0.48103 0.08075,0.1527 0.141136,0.32132 0.195753,0.48534 0.05773,0.13624 0.113809,0.2484 0.171463,0.38558 0.04934,0.14323 0.115134,0.31052 0.15514,0.4391 0.05696,0.17017 0.103894,0.30103 0.158169,0.46272 0.03385,0.12735 0.09509,0.28561 0.130222,0.40228 0.05598,0.16959 0.102596,0.29821 0.156686,0.45902 0.04401,0.18245 0.07399,0.34599 0.11785,0.51935 0.0466,0.16391 0.04463,0.35874 0.08076,0.5007 0.04501,0.1723 0.05697,0.34959 0.09569,0.52254 0.04551,0.18908 0.06269,0.39221 0.08443,0.57836 0.05202,0.19061 0.0754,0.38662 0.09047,0.58308 0.01597,0.20143 0.01356,0.40133 -0.005,0.60219 0,0 -1.424026,-0.18674 -1.424026,-0.18674 l 0,0 c 0.01881,0.0652 5.37e-4,-0.22515 1.15e-4,-0.23653 -5.49e-4,-0.0246 -0.0022,-0.0491 -0.0033,-0.0736 -0.0096,-0.14234 -0.03073,-0.28224 -0.06907,-0.4201 -0.02855,-0.17822 -0.03681,-0.35856 -0.07555,-0.53519 -0.03633,-0.16467 -0.05517,-0.33111 -0.08946,-0.49582 -0.03831,-0.16202 -0.05548,-0.32522 -0.078,-0.48951 -0.03452,-0.13981 -0.07423,-0.27846 -0.08977,-0.42201 -0.04033,-0.13414 -0.09161,-0.26512 -0.135209,-0.39807 -0.0529,-0.15391 -0.100273,-0.31011 -0.152034,-0.46422 -0.03974,-0.13252 -0.09025,-0.26216 -0.133588,-0.39346 -0.04853,-0.13817 -0.08847,-0.28185 -0.146108,-0.41618 -0.0539,-0.16558 -0.15748,-0.31523 -0.206924,-0.48346 -0.0393,-0.13624 -0.102488,-0.26436 -0.162251,-0.39234 0.09149,0.11721 -0.144829,-0.20091 -0.155925,-0.21711 0.11017,0.10852 -0.141882,-0.14473 -0.161412,-0.16681 -0.09112,-0.0859 -0.159871,-0.14922 -0.241609,-0.22416 -0.005,-0.004 0.01196,0.007 0.01794,0.009 -0.08568,-0.0591 -0.177679,-0.12216 -0.323418,-0.18322 -0.07895,-0.0346 -0.345729,-0.12644 -0.239622,-0.099 -0.161725,-0.029 -0.235937,-0.0609 -0.393893,-0.0477 -0.176467,-2.6e-4 -0.353006,-9.9e-4 -0.529402,0.004 -0.08232,0.004 -0.166906,0.004 -0.24701,0.026 -0.135149,0.0577 -0.203513,0.0668 -0.320706,0.15588 0.05664,-0.0672 -0.321671,0.24807 -0.270076,0.1754 -0.05385,0.0371 -0.323227,0.25407 -0.226236,0.15749 -0.09002,0.0938 -0.185178,0.18648 -0.274851,0.27512 -0.08645,0.0954 -0.125985,0.14102 -0.195864,0.22574 -0.0043,0.007 0.005,-0.0117 0.0077,-0.0185 -0.08284,0.13535 -0.162823,0.25495 -0.207443,0.33472 -0.05717,0.11864 -0.120748,0.2336 -0.184108,0.37112 0.0079,-0.0553 0.0028,-0.009 -0.04335,0.0977 -0.0959,0.22403 0.04939,-0.17486 -0.06069,0.14696 -0.0068,0.0203 -0.01489,0.0401 -0.02223,0.06 -0.004,-0.0538 5.37e-4,-0.009 -0.02738,0.1021 -0.01248,0.0498 -0.0377,0.096 -0.04814,0.14636 -0.0082,0.0395 -0.01339,0.0799 -0.02009,0.11968 -0.03848,0.17525 -0.09464,0.34119 -0.115031,0.51987 -0.04095,0.17934 -0.08151,0.35751 -0.120033,0.53744 -0.04022,0.14295 -0.05048,0.33193 -0.106665,0.49314 -0.02799,0.0896 -0.04719,0.23171 -0.07606,0.35994 -0.01575,-0.043 -0.005,-0.0181 -0.005,0.082 0,0.0956 0,0.19122 0,0.28681 0,0.0322 0,0.0644 0,0.0969 0,0.21486 0,0.42972 0,0.64459 0,0.29188 0,0.58379 0,0.8757 0,0 -1.436215,0 -1.436215,0 z"
       inkscape:connector-curvature="0" />
    <circle
       style="opacity:1;fill:#cccccc;fill-opacity:1;stroke:none"
       id="path4943"
       cx="49.726658"
       cy="683.72699"
       r="1.3404652" />
    <path
       style="fill:#cccccc;fill-rule:evenodd"
       d="m 49.34366,684.01432 -1.723454,3.35116 3.92565,-0.0958 -1.244721,-3.35116 z"
       id="path4945"
       inkscape:connector-curvature="0" />
    <text
       xml:space="preserve"
       style="font-style:normal;font-weight:normal;font-size:22.74089241px;line-height:125%;font-family:sans-serif;letter-spacing:0px;word-spacing:0px;fill:#000000;fill-opacity:1;stroke:none;stroke-width:1px;stroke-linecap:butt;stroke-linejoin:miter;stroke-opacity:1"
       x="103.10399"
       y="1071.4467"
       id="text9083"
       sodipodi:linespacing="125%"><tspan
         sodipodi:role="line"
         id="tspan9085"
         x="103.10399"
         y="1071.4467"
         style="font-style:italic;font-variant:normal;font-weight:normal;font-stretch:normal;font-size:17.86784363px;font-family:sans-serif;-inkscape-font-specification:'sans-serif Italic'"><tspan
           style="font-style:italic;font-variant:normal;font-weight:normal;font-stretch:normal;font-size:17.86784363px;font-family:sans-serif;-inkscape-font-specification:'sans-serif Italic';fill:#008000"
           id="tspan9091"><tspan
   style="fill:#4d4d4d"
   id="tspan9093">balance = </tspan>12</tspan><tspan
           style="fill:#666666"
           id="tspan9095"> BTC</tspan></tspan></text>
  </g>
</svg>
