<?xml version="1.0" encoding="UTF-8" standalone="no"?>
<!-- Created with Inkscape (http://www.inkscape.org/) -->

<svg
   xmlns:dc="http://purl.org/dc/elements/1.1/"
   xmlns:cc="http://creativecommons.org/ns#"
   xmlns:rdf="http://www.w3.org/1999/02/22-rdf-syntax-ns#"
   xmlns:svg="http://www.w3.org/2000/svg"
   xmlns="http://www.w3.org/2000/svg"
   xmlns:sodipodi="http://sodipodi.sourceforge.net/DTD/sodipodi-0.dtd"
   xmlns:inkscape="http://www.inkscape.org/namespaces/inkscape"
   width="345.35712"
   height="201.78577"
   viewBox="0 0 345.35712 201.78577"
   id="svg2"
   version="1.1"
   inkscape:version="0.91 r13725"
   sodipodi:docname="magicbytes.svg"
   inkscape:export-filename="/home/greg/learnmeabitcoin/website/glossary/images/magicbytes/magicbytes.png"
   inkscape:export-xdpi="90"
   inkscape:export-ydpi="90">
  <defs
     id="defs4">
    <marker
       inkscape:stockid="Arrow2Lend"
       orient="auto"
       refY="0"
       refX="0"
       id="Arrow2Lend"
       style="overflow:visible"
       inkscape:isstock="true">
      <path
         id="path4204"
         style="fill:#000000;fill-opacity:1;fill-rule:evenodd;stroke:#000000;stroke-width:0.625;stroke-linejoin:round;stroke-opacity:1"
         d="M 8.7185878,4.0337352 -2.2072895,0.01601326 8.7185884,-4.0017078 c -1.7454984,2.3720609 -1.7354408,5.6174519 -6e-7,8.035443 z"
         transform="matrix(-1.1,0,0,-1.1,-1.1,0)"
         inkscape:connector-curvature="0" />
    </marker>
  </defs>
  <sodipodi:namedview
     id="base"
     pagecolor="#ffffff"
     bordercolor="#666666"
     borderopacity="1.0"
     inkscape:pageopacity="0.0"
     inkscape:pageshadow="2"
     inkscape:zoom="5.6568542"
     inkscape:cx="158.57142"
     inkscape:cy="81.173744"
     inkscape:document-units="px"
     inkscape:current-layer="layer1"
     showgrid="false"
     units="px"
     inkscape:window-width="1366"
     inkscape:window-height="750"
     inkscape:window-x="0"
     inkscape:window-y="18"
     inkscape:window-maximized="0"
     fit-margin-top="0"
     fit-margin-left="0"
     fit-margin-right="0"
     fit-margin-bottom="0" />
  <metadata
     id="metadata7">
    <rdf:RDF>
      <cc:Work
         rdf:about="">
        <dc:format>image/svg+xml</dc:format>
        <dc:type
           rdf:resource="http://purl.org/dc/dcmitype/StillImage" />
        <dc:title></dc:title>
      </cc:Work>
    </rdf:RDF>
  </metadata>
  <g
     inkscape:label="Layer 1"
     inkscape:groupmode="layer"
     id="layer1"
     transform="translate(-118.57143,-728.43356)">
    <circle
       style="fill:#008000;fill-opacity:1;stroke:none;stroke-opacity:1"
       id="path4146"
       cx="163.92857"
       cy="884.86218"
       r="45.357143" />
    <circle
       style="fill:#008000;fill-opacity:1;stroke:none;stroke-opacity:1"
       id="path4146-3"
       cx="431.78571"
       cy="760.57642"
       r="32.142857" />
    <text
       xml:space="preserve"
       style="font-style:normal;font-weight:normal;font-size:17.5px;line-height:125%;font-family:sans-serif;letter-spacing:0px;word-spacing:0px;fill:#000000;fill-opacity:1;stroke:none;stroke-width:1px;stroke-linecap:butt;stroke-linejoin:miter;stroke-opacity:1"
       x="97.85714"
       y="785.21936"
       id="text4163"
       sodipodi:linespacing="125%"><tspan
         sodipodi:role="line"
         id="tspan4165"
         x="97.85714"
         y="785.21936" /></text>
    <rect
       style="opacity:0.30199998;fill:#ff00ff;fill-opacity:1;stroke:none;stroke-opacity:1"
       id="rect4175"
       width="45.752983"
       height="11.652681"
       x="271.71432"
       y="837.93359" />
    <path
       style="fill:none;fill-rule:evenodd;stroke:#000000;stroke-width:1px;stroke-linecap:butt;stroke-linejoin:miter;stroke-opacity:1;marker-end:url(#Arrow2Lend)"
       d="M 206.42858,860.57648 397.85714,775.93362"
       id="path4177"
       inkscape:connector-curvature="0"
       sodipodi:nodetypes="cc" />
    <path
       style="opacity:1;fill:#800080;fill-opacity:1;stroke:none;stroke-width:0.60000002;stroke-miterlimit:4;stroke-dasharray:none;stroke-opacity:1"
       id="path4495"
       d="m 298.61129,859.03076 c -0.1575,1.08206 -0.33768,2.15754 -0.433,3.24779 -0.0792,1.05031 -0.087,2.10411 -0.0931,3.15682 -0.002,1.04742 -5.7e-4,2.09483 5.9e-4,3.14225 10e-4,1.04776 10e-4,2.09551 10e-4,3.14329 1.2e-4,1.04781 8e-5,2.09564 8e-5,3.14346 -10e-6,1.04784 -10e-6,2.09565 -2e-5,3.14348 0,1.04782 0,2.09565 0,3.14347 -0.0181,1.0753 0.056,2.15282 -0.0722,3.22187 -0.12542,0.64657 -0.0632,0.33335 -0.18581,0.93973 0,0 -2.05412,-0.41513 -2.05412,-0.41513 l 0,0 c 0.11245,-0.55664 0.0581,-0.28772 0.16335,-0.80674 0.16015,-0.9651 -0.009,-1.96576 0.0532,-2.93973 0,-1.04782 0,-2.09565 0,-3.14348 0,-1.04782 2e-5,-2.09564 2e-5,-3.14348 10e-6,-1.04771 2e-5,-2.09542 -9e-5,-3.14311 -1.6e-4,-1.04712 -4.3e-4,-2.09423 -0.001,-3.14134 -10e-4,-1.05229 -0.005,-2.10459 -5.5e-4,-3.15687 0.006,-1.10997 0.0159,-2.22106 0.10121,-3.32837 0.0911,-1.02801 0.22449,-2.05093 0.42492,-3.06391 0,0 2.09564,0 2.09564,0 z"
       inkscape:connector-curvature="0" />
    <path
       style="opacity:1;fill:#800080;fill-opacity:1;stroke:none;stroke-width:0.60000002;stroke-miterlimit:4;stroke-dasharray:none;stroke-opacity:1"
       id="path4497"
       d="m 291.6741,863.07716 c 0.68865,-0.81525 1.44989,-1.56408 2.15917,-2.36006 0.56194,-0.59812 1.18022,-1.1443 1.72924,-1.75403 0.35287,-0.43725 0.61688,-1.15305 1.15796,-1.40846 0.20886,-0.0985 0.4465,-0.11832 0.66975,-0.17757 1.06173,0.17517 1.53629,0.93411 2.06551,1.77457 0.38315,0.71665 0.74318,1.4615 1.20379,2.1327 0.37698,0.56747 0.6338,1.20725 1.05872,1.74284 0,0 -1.67805,1.25534 -1.67805,1.25534 l 0,0 c -0.42428,-0.5848 -0.76423,-1.21567 -1.12641,-1.8388 -0.45594,-0.70078 -0.86228,-1.44054 -1.23817,-2.18622 -0.13716,-0.22528 -0.32761,-0.43379 -0.42135,-0.67733 -0.0286,-0.0743 -0.25401,-0.14904 -0.17545,-0.16235 0.14582,-0.0247 0.29374,0.0339 0.44059,0.0509 0.11454,-0.0526 0.23845,-0.0883 0.34387,-0.15744 0.0528,-0.0346 0.1526,-0.20111 0.12016,-0.14682 -0.25541,0.42703 -0.62166,0.79109 -0.87928,1.21818 -0.55447,0.5936 -1.14539,1.15195 -1.71143,1.73442 -0.67353,0.74587 -1.38066,1.46071 -2.04209,2.21752 0,0 -1.67652,-1.2574 -1.67652,-1.2574 z"
       inkscape:connector-curvature="0" />
    <path
       style="opacity:1;fill:#800080;fill-opacity:1;stroke:none;stroke-width:0.60000002;stroke-miterlimit:4;stroke-dasharray:none;stroke-opacity:1"
       id="path4499"
       d="m 253.50729,905.5561 c -0.0907,-1.45262 0.18401,-2.87375 0.37714,-4.30155 0.20023,-1.18911 0.67987,-2.26853 1.06851,-3.38705 0.45886,-1.02266 0.95711,-2.14975 2.0609,-2.48748 0.27208,-0.0834 0.56331,-0.0504 0.84496,-0.0754 1.48327,0.16005 2.22584,1.34742 2.97432,2.58869 0.71858,1.17377 0.94598,2.53316 1.07274,3.90881 0.057,0.96925 0.0878,1.94227 0.0762,2.91375 -0.80705,-0.12894 -1.64529,-0.11257 -2.42113,-0.38674 -0.13673,-0.0483 -0.0132,-0.31392 -10e-4,-0.47014 0.055,-0.74715 0.25724,-1.47824 0.37878,-2.21439 0.13818,-1.1595 0.49518,-2.27318 0.92442,-3.33899 0.69152,-1.46742 1.98019,-2.00067 3.41347,-2.07402 1.31624,0.0395 2.24492,0.78633 3.09177,1.8022 0.65809,0.932 1.04877,2.07096 1.40534,3.17487 0.30424,1.05873 0.37231,2.16706 0.42531,3.26739 0,0 -2.41503,0.13569 -2.41503,0.13569 l 0,0 c -0.0396,-0.85347 -0.0792,-1.71547 -0.29575,-2.54217 -0.24035,-0.77644 -0.52177,-1.56808 -0.91036,-2.26521 -0.37501,-0.45005 -0.67308,-0.90586 -1.28734,-0.93866 -0.43598,-0.0716 -0.9645,0.0853 -1.21303,0.49854 -0.35425,0.87874 -0.65833,1.79088 -0.75939,2.75064 -0.0938,0.55913 -0.29813,1.16461 -0.33998,1.72891 -0.0122,0.15359 0.1373,0.41563 10e-4,0.46203 -0.77508,0.26673 -1.61,0.24548 -2.41498,0.36823 -5.4e-4,-0.87229 -0.01,-1.74546 -0.065,-2.61595 -0.0823,-0.95189 -0.19345,-1.90518 -0.6894,-2.72232 -0.28222,-0.47117 -0.52757,-1.16328 -1.02647,-1.39831 0.0907,-0.0885 0.19163,-0.34588 -0.0471,-0.0907 -0.25059,0.26786 -0.33011,0.65626 -0.52561,0.96494 -0.33386,0.93742 -0.73358,1.83766 -0.93378,2.82765 -0.17668,1.30165 -0.44096,2.59214 -0.35123,3.91692 0,0 -2.41824,0 -2.41824,0 z"
       inkscape:connector-curvature="0" />
    <path
       style="opacity:1;fill:#800080;fill-opacity:1;stroke:none;stroke-width:0.60000002;stroke-miterlimit:4;stroke-dasharray:none;stroke-opacity:1"
       id="path4501"
       d="m 275.92528,899.62485 c -0.77546,0.11722 -1.61125,0.39054 -2.13068,1.01104 -0.33923,0.62221 -0.35044,1.35713 -0.38469,2.04843 -0.0549,0.82989 0.0255,1.06809 0.51265,1.6431 0.46989,0.34742 0.97064,0.64924 1.53551,0.81433 0.30106,-0.0258 0.69396,-0.0836 0.83334,-0.39718 0.49537,-0.44693 0.61193,-1.01927 0.70468,-1.65094 0.1017,-0.95741 0.0938,-1.92218 0.0952,-2.88371 -2.8e-4,-0.17393 -3.9e-4,-0.34786 -8.3e-4,-0.5218 -3.5e-4,-0.13261 -8.6e-4,-0.26526 -0.001,-0.3979 -4.4e-4,-0.0831 -0.0853,-0.25935 -0.002,-0.24959 2.21487,0.2622 2.09559,-0.42512 2.09194,0.6416 -0.0795,0.82984 0.15531,1.61836 0.29811,2.42681 0.16531,0.52371 -0.0317,1.59449 0.50538,1.95046 0.21009,0.30998 0.46656,0.44841 0.80761,0.56106 0,0 -0.7699,1.9491 -0.7699,1.9491 l 0,0 c -0.64494,-0.27253 -1.2327,-0.59535 -1.65445,-1.1768 -0.64792,-0.87594 -0.87559,-1.84165 -0.95264,-2.92103 -0.16218,-0.92788 -0.4139,-1.84469 -0.32975,-2.79679 0.002,-1.06709 -0.12162,-0.43548 2.0983,-0.70017 0.0251,-0.002 0.001,0.0506 0.001,0.076 10e-4,0.1474 0.002,0.53386 0.002,0.63391 4.8e-4,0.17608 5.7e-4,0.35217 8.6e-4,0.52826 -0.001,1.06848 0.006,2.14094 -0.12028,3.20372 -0.16463,1.01344 -0.44563,1.98478 -1.20915,2.7203 -0.83368,0.84457 -1.83385,1.24585 -3.03076,1.00303 -0.92849,-0.30581 -1.7963,-0.78428 -2.50708,-1.46259 -0.76123,-0.9078 -1.1116,-1.90294 -1.00266,-3.10112 0.0644,-1.20724 0.18339,-2.42035 0.97249,-3.39872 0.88745,-0.86474 1.98182,-1.44566 3.22476,-1.60773 0,0 0.41099,2.05495 0.41099,2.05495 z"
       inkscape:connector-curvature="0" />
    <path
       style="opacity:1;fill:#800080;fill-opacity:1;stroke:none;stroke-width:0.60000002;stroke-miterlimit:4;stroke-dasharray:none;stroke-opacity:1"
       id="path4503"
       d="m 286.92743,900.14877 c -0.93843,0.22156 -1.7765,0.59472 -2.5068,1.22655 -0.62357,0.39546 -0.83686,0.8841 -0.96313,1.57641 -0.0944,0.54922 0.0207,1.10372 0.38536,1.53357 0.34314,0.5726 0.86411,0.91264 1.4817,1.12667 0.6486,0.23809 1.17352,0.14625 1.77343,-0.11636 0.35591,-0.29725 0.3605,-0.86038 0.41239,-1.28876 0.0799,-0.97803 0.0655,-1.96076 0.0623,-2.94117 -0.0496,-1.04462 -0.009,-2.06606 0.26416,-3.07831 0.67239,-1.53861 2.0266,-0.78715 2.4609,0.26538 0.14391,0.34878 0.17897,0.62331 0.2509,0.99012 0.14983,1.04587 0.15073,2.10534 0.15879,3.15964 0.002,1.05693 -4.8e-4,2.11386 -0.002,3.17077 0.0908,1.02498 -0.15876,2.01225 -0.3338,3.01144 -0.12307,0.94221 -0.45699,1.84349 -0.77581,2.73401 -0.27984,0.88526 -0.65946,1.73862 -1.06912,2.57098 -0.3254,0.73204 -0.6909,1.44688 -1.06462,2.15619 -0.48052,0.83236 -1.14497,1.54939 -1.83453,2.21329 -0.85902,0.84802 -1.93579,1.26552 -3.11934,1.37108 -1.0956,0.0176 -1.9927,-0.52585 -2.78909,-1.22035 -0.88297,-0.63649 -1.2449,-1.58148 -1.45299,-2.60805 -0.0903,-0.72001 -0.0544,-0.36 -0.10842,-1.08004 0,0 2.0901,-0.15235 2.0901,-0.15235 l 0,0 c 0.0402,0.57227 0.0147,0.29375 0.0761,0.83575 0.10977,0.62041 0.25166,1.08719 0.80541,1.45452 0.33952,0.3413 0.77397,0.64607 1.26194,0.67815 0.68239,0.0276 1.31147,-0.35079 1.79573,-0.80074 0.53559,-0.4932 1.03615,-1.05287 1.42175,-1.66942 0.36563,-0.6917 0.72548,-1.38661 1.03776,-2.10355 0.37499,-0.76162 0.72643,-1.53946 0.97637,-2.35199 0.27919,-0.7795 0.58412,-1.56496 0.68485,-2.39076 0.1561,-0.8832 0.3923,-1.74459 0.30206,-2.65182 10e-4,-1.05039 0.006,-2.10081 0.002,-3.15122 -0.007,-0.93119 -0.006,-1.86639 -0.12337,-2.79172 -0.36279,-2.13282 0.74456,2.59923 1.36678,-1.07553 -0.24249,0.82239 -0.20768,1.65716 -0.1869,2.50753 0.002,1.0732 0.0191,2.14936 -0.0799,3.21923 -0.16541,1.20844 -0.50001,2.34167 -1.66439,2.94367 -1.10154,0.46582 -2.18932,0.56021 -3.33608,0.15224 -0.99855,-0.39117 -1.88127,-0.95844 -2.46234,-1.88746 -0.62503,-0.95462 -0.95098,-1.99869 -0.72257,-3.14818 0.24032,-1.13017 0.69592,-2.10641 1.68156,-2.77748 1.0177,-0.82033 2.14592,-1.39123 3.43183,-1.66697 0,0 0.41099,2.05495 0.41099,2.05495 z"
       inkscape:connector-curvature="0" />
    <path
       style="opacity:1;fill:#800080;fill-opacity:1;stroke:none;stroke-width:0.60000002;stroke-miterlimit:4;stroke-dasharray:none;stroke-opacity:1"
       id="path4505"
       d="m 295.94176,899.89588 c 0,1.19493 0,2.38986 0,3.5848 -0.0166,1.15533 0.0528,2.31222 -0.0698,3.46218 -0.11795,0.729 -0.0519,0.38548 -0.19185,1.03174 0,0 -2.04677,-0.44995 -2.04677,-0.44995 l 0,0 c 0.11307,-0.50375 0.0581,-0.22868 0.15734,-0.82668 0.14376,-1.06283 0.007,-2.14773 0.0555,-3.21729 0,-1.19494 0,-2.38987 0,-3.5848 0,0 2.09564,0 2.09564,0 z"
       inkscape:connector-curvature="0" />
    <path
       style="opacity:1;fill:#800080;fill-opacity:1;stroke:none;stroke-width:0.60000002;stroke-miterlimit:4;stroke-dasharray:none;stroke-opacity:1"
       id="path4507"
       d="m 295.41785,894.13285 c 0,0.16506 0,0.33014 0,0.4952 0,0 -2.09564,0 -2.09564,0 l 0,0 c 0,-0.16506 0,-0.33014 0,-0.4952 0,0 2.09564,0 2.09564,0 z"
       inkscape:connector-curvature="0" />
    <path
       style="opacity:1;fill:#800080;fill-opacity:1;stroke:none;stroke-width:0.60000002;stroke-miterlimit:4;stroke-dasharray:none;stroke-opacity:1"
       id="path4509"
       d="m 303.35234,899.63292 c -0.85624,0.38981 -1.54112,0.89844 -2.09395,1.65767 -0.44389,0.70724 -0.81654,1.40424 -0.98847,2.22392 -0.13731,0.81498 -0.17906,1.62592 -0.0174,2.4356 0.19526,0.52081 0.53121,0.79799 0.9793,1.10774 0.48596,0.25076 1.03909,0.29122 1.57415,0.34075 0,0 -0.20151,2.08595 -0.20151,2.08595 l 0,0 c -0.90973,-0.0907 -1.81932,-0.22047 -2.60352,-0.73062 -0.84885,-0.63223 -1.53703,-1.34846 -1.80627,-2.4077 -0.20479,-1.09354 -0.17448,-2.1901 0.0291,-3.28517 0.25456,-1.10888 0.73343,-2.08868 1.36338,-3.03506 0.80542,-1.03926 1.77275,-1.81446 2.98673,-2.33883 0,0 0.77831,1.94575 0.77831,1.94575 z"
       inkscape:connector-curvature="0" />
    <path
       style="opacity:1;fill:#800080;fill-opacity:1;stroke:none;stroke-width:0.60000002;stroke-miterlimit:4;stroke-dasharray:none;stroke-opacity:1"
       id="path4511"
       d="m 317.42215,890.46546 c 0,1.19494 0,2.38987 0,3.58482 0.0132,1.13986 0.0452,2.26686 -0.16834,3.39004 -0.18762,0.94498 -0.28586,1.89677 -0.4962,2.83766 -0.21479,1.02687 -0.30666,2.06659 -0.52539,3.09297 -0.22622,0.97774 -0.30662,1.9774 -0.35358,2.97705 -0.0567,1.22399 0.19254,1.19804 -2.12755,0.33062 -10e-4,-4e-4 -6.7e-4,-0.52801 -5.5e-4,-0.80581 -0.0194,-1.03866 -0.0254,-2.06144 0.17251,-3.08374 0.14493,-0.92567 0.41908,-1.82439 0.79656,-2.68046 0.74231,-1.10006 1.23437,-1.64994 2.63838,-1.60903 0.9312,0.36868 1.56483,1.11229 2.07737,1.94509 0.61454,0.77023 0.86254,1.69476 1.01444,2.64813 0.2033,1.11677 0.0276,2.14667 -0.4347,3.16768 -0.54871,0.92991 -1.41527,1.52594 -2.40605,1.90157 -1.07106,0.3545 -2.14914,0.23586 -3.2006,-0.10476 0,0 0.69856,-1.97578 0.69856,-1.97578 l 0,0 c 0.56681,0.24624 1.20359,0.26545 1.79446,0.10793 0.47357,-0.15014 0.88394,-0.42542 1.20721,-0.79917 0.29955,-0.64927 0.42078,-1.25334 0.26985,-1.97878 -0.10378,-0.70945 -0.28026,-1.34333 -0.75113,-1.90709 -0.15801,-0.30429 -0.38687,-0.56861 -0.62344,-0.81256 -0.0515,-0.0532 -0.20007,-0.073 -0.17146,-0.14113 0.0286,-0.0683 0.14752,0.0149 0.22128,0.0222 0.0468,-0.0191 0.10036,-0.0264 0.14054,-0.0572 0.0221,-0.017 -0.0491,-0.056 -0.0729,-0.0413 -0.21106,0.13071 -0.30141,0.37007 -0.4993,0.51279 -0.34735,0.68579 -0.50151,1.45849 -0.64307,2.20734 -0.17908,0.88624 -0.13583,1.77708 -0.1329,2.67908 -6e-5,0.14097 -2.7e-4,0.28198 -1.8e-4,0.42296 7e-5,0.12199 0.11832,0.33418 6.8e-4,0.36608 -2.3378,0.63323 -2.10344,0.74182 -2.06132,-0.41416 0.0534,-1.1133 0.14711,-2.22618 0.3974,-3.31527 0.22099,-1.03244 0.30119,-2.08168 0.52987,-3.11334 0.20665,-0.92065 0.29308,-1.85427 0.48384,-2.7786 0.19672,-0.98828 0.12265,-1.98672 0.12998,-2.99107 0,-1.19494 0,-2.38987 0,-3.58482 0,0 2.09564,0 2.09564,0 z"
       inkscape:connector-curvature="0" />
    <path
       style="opacity:1;fill:#800080;fill-opacity:1;stroke:none;stroke-width:0.60000002;stroke-miterlimit:4;stroke-dasharray:none;stroke-opacity:1"
       id="path4513"
       d="m 324.14999,900.10137 c -0.21739,1.13565 -0.31603,2.28838 -0.38379,3.44116 0.0166,0.84592 -0.22816,1.80318 0.16726,2.59606 0.18148,0.55136 0.5411,0.59418 1.05794,0.68945 0.80615,0.1738 1.5647,0.0484 2.35411,-0.1116 0.59524,-0.26733 1.24063,-0.43239 1.76129,-0.83993 0.42843,-0.5065 0.61307,-1.09036 0.74309,-1.72914 0.095,-0.95411 0.17085,-1.89423 0.43589,-2.82026 0.3866,-0.84264 0.24428,-0.81638 2.09535,-0.186 0.20309,0.0691 0.23914,1.75467 0.24437,1.99509 0.009,1.04826 -5e-5,2.09655 -0.005,3.14482 -0.005,1.05354 -0.005,2.10711 -0.006,3.16068 0.0703,1.0577 -0.0495,2.08157 -0.2583,3.11487 -0.2269,0.93798 -0.78537,1.67914 -1.36662,2.42062 -0.55926,0.52012 -0.92909,1.18899 -1.40767,1.77766 -0.40912,0.70976 -0.9376,1.30615 -1.55548,1.84355 -0.67721,0.77568 -1.60039,1.09302 -2.57977,1.28212 -1.23907,0.11062 -2.28106,-0.45441 -3.20627,-1.2141 -0.58041,-0.68852 -1.16292,-1.38247 -1.61489,-2.16278 -0.24801,-0.5992 -0.1266,-0.34243 -0.34746,-0.77796 0,0 1.87996,-0.92601 1.87996,-0.92601 l 0,0 c 0.24699,0.51096 0.15512,0.28056 0.29719,0.68224 0.30213,0.58358 0.79128,1.04163 1.14602,1.59082 0.40073,0.37223 0.91277,0.69845 1.46539,0.74689 0.65572,-0.11209 1.16578,-0.28485 1.60501,-0.82001 0.55455,-0.44731 0.91868,-0.99021 1.30092,-1.58702 0.48477,-0.55437 0.80556,-1.24441 1.37016,-1.73134 0.38098,-0.48262 0.77855,-0.93672 0.95939,-1.53974 0.18168,-0.89902 0.28905,-1.77793 0.21677,-2.70096 5.8e-4,-1.05597 0.001,-2.11193 0.006,-3.16788 0.005,-1.03076 0.0132,-2.06156 0.005,-3.09231 -0.0315,-1.55148 -0.39872,-1.01927 1.76633,-1.2632 -0.26633,0.87336 -0.25528,1.77254 -0.39759,2.66906 -0.25415,1.14761 -0.67283,2.21056 -1.58322,3.00201 -0.78572,0.53066 -1.6522,0.89348 -2.5543,1.18212 -1.06636,0.21587 -2.11999,0.33619 -3.20085,0.10855 -1.17107,-0.26268 -2.15182,-0.77852 -2.57872,-1.97654 -0.40346,-1.13377 -0.40683,-2.29159 -0.30776,-3.48356 0.0742,-1.24917 0.18336,-2.49815 0.42082,-3.72845 0,0 2.05496,0.41098 2.05496,0.41098 z"
       inkscape:connector-curvature="0" />
    <path
       style="opacity:1;fill:#800080;fill-opacity:1;stroke:none;stroke-width:0.60000002;stroke-miterlimit:4;stroke-dasharray:none;stroke-opacity:1"
       id="path4515"
       d="m 339.95034,892.56111 c 0,1.19494 0,2.38987 0,3.5848 0,1.11324 0,2.22649 0,3.33974 0.0168,1.07832 0.0369,2.14187 -0.16915,3.20346 -0.22738,0.90042 -0.23473,1.83193 -0.40412,2.74027 -0.24293,0.84131 -0.35855,1.70362 -0.4222,2.57429 -0.0564,1.00163 -0.0549,2.00534 -0.0566,3.00821 10e-6,0.13218 5e-5,0.26443 6e-5,0.39665 0,0 -2.09564,2.5e-4 -2.09564,2.5e-4 l 0,0 c -2e-5,-0.13349 -5e-5,-0.26706 -7e-5,-0.40059 0.001,-1.05345 8.8e-4,-2.10778 0.0623,-3.15983 0.072,-0.95643 0.19292,-1.9074 0.4576,-2.83234 0.20435,-0.89493 0.13805,-1.845 0.40292,-2.7342 0.18789,-0.92416 0.12703,-1.85589 0.12923,-2.79617 0,-1.11325 0,-2.2265 0,-3.33974 0,-1.19493 0,-2.38986 0,-3.5848 0,0 2.09565,0 2.09565,0 z"
       inkscape:connector-curvature="0" />
    <path
       style="opacity:1;fill:#800080;fill-opacity:1;stroke:none;stroke-width:0.60000002;stroke-miterlimit:4;stroke-dasharray:none;stroke-opacity:1"
       id="path4517"
       d="m 335.8669,902.68367 c 0.94064,-0.292 1.84014,-0.68333 2.76254,-1.0245 0.66802,-0.34126 1.33226,-0.7068 1.95349,-1.12919 0.52228,-0.3375 1.11729,-0.54859 1.60631,-0.9376 0,0 1.24273,1.68741 1.24273,1.68741 l 0,0 c -0.54014,0.38352 -1.11924,0.69016 -1.70082,1.00327 -0.7663,0.49093 -1.54678,0.96946 -2.3786,1.34304 -1.02448,0.37386 -2.02102,0.81831 -3.07465,1.11253 0,0 -0.411,-2.05496 -0.411,-2.05496 z"
       inkscape:connector-curvature="0" />
    <path
       style="opacity:1;fill:#800080;fill-opacity:1;stroke:none;stroke-width:0.60000002;stroke-miterlimit:4;stroke-dasharray:none;stroke-opacity:1"
       id="path4519"
       d="m 345.63758,905.81907 c 0.88442,-0.4281 1.67389,-0.99962 2.46536,-1.5739 0.46604,-0.42795 0.8749,-0.92657 1.07356,-1.53367 0.12894,-0.44308 0.0248,-0.88723 -0.28189,-1.23312 -0.23479,-0.41572 -0.49461,-0.62695 -0.95274,-0.5808 -0.32463,0.0132 -0.52219,0.61997 -0.64977,0.83309 -0.36754,0.63313 -0.43011,1.36356 -0.48844,2.07775 -0.0557,0.89246 -0.10035,1.77572 0.079,2.65366 0.29004,0.66237 0.6914,1.25766 1.08805,1.85822 0.37166,0.52161 0.70346,0.88425 1.31979,1.05539 0.75379,0.16745 1.50725,0.19227 2.2611,0.0433 0.36355,-0.0309 0.66254,-0.18815 0.99301,-0.32328 0,0 0.79046,1.94083 0.79046,1.94083 l 0,0 c -0.45177,0.18339 -0.90372,0.38272 -1.39306,0.44141 -1.10115,0.20261 -2.20795,0.17305 -3.29684,-0.10842 -1.05131,-0.36332 -1.80152,-0.9742 -2.42392,-1.89545 -0.54273,-0.82434 -1.10081,-1.64974 -1.3941,-2.60379 -0.20858,-1.07304 -0.19336,-2.14939 -0.1116,-3.2377 0.0894,-1.03547 0.23514,-2.07365 0.78074,-2.98188 0.63727,-1.05409 1.16349,-1.67377 2.44908,-1.84874 1.13456,0.0374 2.07179,0.48775 2.67376,1.48553 0.62017,0.96818 0.90659,2.01356 0.52543,3.14445 -0.38034,0.98622 -0.98976,1.83695 -1.81176,2.51018 -0.93128,0.67395 -1.86766,1.33809 -2.91678,1.82274 0,0 -0.77831,-1.94576 -0.77831,-1.94576 z"
       inkscape:connector-curvature="0" />
    <path
       style="opacity:1;fill:#800080;fill-opacity:1;stroke:none;stroke-width:0.60000002;stroke-miterlimit:4;stroke-dasharray:none;stroke-opacity:1"
       id="path4521"
       d="m 360.27506,899.62485 c -0.95519,0.12601 -1.83433,0.50877 -2.66908,0.97288 -0.74676,0.39759 -1.08123,1.01318 -1.27456,1.80213 -0.0122,0.43036 0.35765,0.59184 0.65696,0.84016 0.54413,0.38755 1.22289,0.43367 1.86761,0.49143 1.00063,-0.0353 1.87317,0.38377 2.77244,0.74534 1.18456,0.52038 1.60116,1.58902 1.80559,2.78136 0.0808,1.39188 -0.35131,2.12289 -1.45162,2.93124 -0.89703,0.62816 -1.96322,0.781 -3.02636,0.87342 -0.8854,0.0566 -1.77306,0.0544 -2.65983,0.0551 0,0 -10e-4,-2.09564 -10e-4,-2.09564 l 0,0 c 0.82846,-7.3e-4 1.65773,10e-4 2.48508,-0.0477 0.67372,-0.055 1.3766,-0.10182 1.96229,-0.47411 0.47636,-0.34997 0.57287,-0.20346 0.6237,-0.90698 -0.0661,-0.44892 -0.0768,-0.9502 -0.52498,-1.17489 -0.71568,-0.29254 -1.37374,-0.64748 -2.17874,-0.60057 -1.07182,-0.1028 -2.1409,-0.27683 -3.01136,-0.96523 -0.95536,-0.79268 -1.57008,-1.686 -1.34381,-2.9928 0.37173,-1.32944 1.04173,-2.42218 2.29087,-3.09925 1.02466,-0.55726 2.10154,-1.0271 3.26671,-1.19088 0,0 0.411,2.05495 0.411,2.05495 z"
       inkscape:connector-curvature="0" />
    <text
       xml:space="preserve"
       style="font-style:normal;font-weight:normal;font-size:17.5px;line-height:125%;font-family:sans-serif;letter-spacing:0px;word-spacing:0px;fill:#000000;fill-opacity:1;stroke:none;stroke-width:1px;stroke-linecap:butt;stroke-linejoin:miter;stroke-opacity:1"
       x="272.07144"
       y="847.7193"
       id="text4552"
       sodipodi:linespacing="125%"><tspan
         sodipodi:role="line"
         id="tspan4554"
         x="272.07144"
         y="847.7193"
         style="font-style:normal;font-variant:normal;font-weight:normal;font-stretch:normal;font-size:11.25px;font-family:'Ubuntu Mono';-inkscape-font-specification:'Ubuntu Mono'">f9beb4d976657273696f6e00...</tspan></text>
  </g>
</svg>
