<?xml version="1.0" encoding="UTF-8" standalone="no"?>
<!-- Created with Inkscape (http://www.inkscape.org/) -->

<svg
   xmlns:dc="http://purl.org/dc/elements/1.1/"
   xmlns:cc="http://creativecommons.org/ns#"
   xmlns:rdf="http://www.w3.org/1999/02/22-rdf-syntax-ns#"
   xmlns:svg="http://www.w3.org/2000/svg"
   xmlns="http://www.w3.org/2000/svg"
   xmlns:sodipodi="http://sodipodi.sourceforge.net/DTD/sodipodi-0.dtd"
   xmlns:inkscape="http://www.inkscape.org/namespaces/inkscape"
   width="364"
   height="230"
   viewBox="0 0 364.00004 229.99998"
   id="svg2"
   version="1.1"
   inkscape:version="0.91 r13725"
   sodipodi:docname="packages.svg">
  <defs
     id="defs4" />
  <sodipodi:namedview
     id="base"
     pagecolor="#ffffff"
     bordercolor="#666666"
     borderopacity="1.0"
     inkscape:pageopacity="0.0"
     inkscape:pageshadow="2"
     inkscape:zoom="1.979899"
     inkscape:cx="144.55904"
     inkscape:cy="120.32484"
     inkscape:document-units="px"
     inkscape:current-layer="layer1"
     showgrid="false"
     units="px"
     fit-margin-top="0"
     fit-margin-left="0"
     fit-margin-right="0"
     fit-margin-bottom="0"
     inkscape:window-width="1920"
     inkscape:window-height="1052"
     inkscape:window-x="0"
     inkscape:window-y="28"
     inkscape:window-maximized="0" />
  <metadata
     id="metadata7">
    <rdf:RDF>
      <cc:Work
         rdf:about="">
        <dc:format>image/svg+xml</dc:format>
        <dc:type
           rdf:resource="http://purl.org/dc/dcmitype/StillImage" />
        <dc:title></dc:title>
      </cc:Work>
    </rdf:RDF>
  </metadata>
  <g
     inkscape:label="Layer 1"
     inkscape:groupmode="layer"
     id="layer1"
     transform="translate(-60.479984,-624.9627)">
    <g
       id="g4172"
       style="stroke:#808080"
       transform="translate(-0.50507633,-29.393403)" />
    <g
       id="g10024"
       transform="translate(1.9999849,-2.2122048)">
      <path
         style="fill:none;fill-rule:evenodd;stroke:#808080;stroke-width:2.03197026;stroke-linecap:butt;stroke-linejoin:miter;stroke-miterlimit:4;stroke-dasharray:none;stroke-opacity:1"
         d="m 85.703748,695.39207 252.127682,0"
         id="path4168"
         inkscape:connector-curvature="0"
         transform="translate(-0.50507663,-29.393401)" />
      <path
         style="fill:none;fill-rule:evenodd;stroke:#808080;stroke-width:2.03197026;stroke-linecap:butt;stroke-linejoin:miter;stroke-miterlimit:4;stroke-dasharray:none;stroke-opacity:1"
         d="m 209.88605,695.39207 0,90.9986 129.99797,0"
         id="path4170"
         inkscape:connector-curvature="0"
         transform="translate(-0.50507663,-29.393401)" />
      <path
         style="fill:none;fill-rule:evenodd;stroke:#808080;stroke-width:2.03197026;stroke-linecap:butt;stroke-linejoin:miter;stroke-miterlimit:4;stroke-dasharray:none;stroke-opacity:1"
         d="m 209.88335,786.69919 0,90.99862 129.99799,0"
         id="path4170-2"
         inkscape:connector-curvature="0"
         transform="translate(-0.50507663,-29.393401)" />
      <text
         sodipodi:linespacing="125%"
         id="text7339"
         y="698.82135"
         x="367.26471"
         style="font-style:normal;font-weight:normal;font-size:25.50973511px;line-height:125%;font-family:sans-serif;letter-spacing:0px;word-spacing:0px;fill:#666666;fill-opacity:1;stroke:none;stroke-width:1px;stroke-linecap:butt;stroke-linejoin:miter;stroke-opacity:1"
         xml:space="preserve"
         transform="translate(-0.50507663,-29.393401)"><tspan
           style="font-size:20.04336548px;fill:#666666"
           y="698.82135"
           x="367.26471"
           id="tspan7341"
           sodipodi:role="line"><tspan
             id="tspan7368"
             style="font-size:18.2212429px;fill:#666666">1.6</tspan><tspan
             id="tspan7343"
             style="font-size:10.93274593px;fill:#666666"> BTC</tspan></tspan></text>
      <text
         sodipodi:linespacing="125%"
         id="text7339-8"
         y="792.25861"
         x="385.32379"
         style="font-style:normal;font-weight:normal;font-size:25.50973511px;line-height:125%;font-family:sans-serif;letter-spacing:0px;word-spacing:0px;fill:#666666;fill-opacity:1;stroke:none;stroke-width:1px;stroke-linecap:butt;stroke-linejoin:miter;stroke-opacity:1"
         xml:space="preserve"
         transform="translate(-0.50507663,-29.393401)"><tspan
           style="font-size:20.04336548px;fill:#666666"
           y="792.25861"
           x="385.32379"
           id="tspan7341-8"
           sodipodi:role="line"><tspan
             id="tspan7343-9"
             style="font-size:10.93274593px;fill:#666666"><tspan
   id="tspan7366"
   style="font-size:18.2212429px;fill:#666666">5</tspan> BTC</tspan></tspan></text>
      <text
         sodipodi:linespacing="125%"
         id="text7339-2"
         y="879.94519"
         x="354.45688"
         style="font-style:normal;font-weight:normal;font-size:25.50973511px;line-height:125%;font-family:sans-serif;letter-spacing:0px;word-spacing:0px;fill:#666666;fill-opacity:1;stroke:none;stroke-width:1px;stroke-linecap:butt;stroke-linejoin:miter;stroke-opacity:1"
         xml:space="preserve"
         transform="translate(-0.50507663,-29.393401)"><tspan
           style="font-size:20.04336548px;fill:#666666"
           y="879.94519"
           x="354.45688"
           id="tspan7341-88"
           sodipodi:role="line"><tspan
             id="tspan7343-6"
             style="font-size:10.93274593px;fill:#666666"><tspan
   id="tspan7394"
   style="font-size:18.2212429px;fill:#666666">0.1</tspan> BTC</tspan></tspan></text>
      <rect
         y="639.65704"
         x="60.567471"
         height="51.999195"
         width="51.999195"
         id="rect4136"
         style="opacity:1;fill:#e09500;fill-opacity:1;stroke:none;stroke-width:1.60000002;stroke-miterlimit:4;stroke-dasharray:none;stroke-dashoffset:0;stroke-opacity:1" />
      <rect
         y="646.1748"
         x="321.03363"
         height="36.061623"
         width="36.061623"
         id="rect4136-3"
         style="opacity:1;fill:#e09500;fill-opacity:1;stroke:none;stroke-width:1.60000002;stroke-miterlimit:4;stroke-dasharray:none;stroke-dashoffset:0;stroke-opacity:1" />
      <rect
         y="722.26501"
         x="302.40619"
         height="72.577248"
         width="72.577248"
         id="rect4136-3-6"
         style="opacity:1;fill:#e09500;fill-opacity:1;stroke:none;stroke-width:1.60000002;stroke-miterlimit:4;stroke-dasharray:none;stroke-dashoffset:0;stroke-opacity:1" />
      <path
         inkscape:connector-curvature="0"
         d="m 60.479984,664.59952 c 0.959172,-0.37011 1.948037,-0.64201 2.957857,-0.82901 0.835038,-0.14067 1.682332,-0.16307 2.527041,-0.17239 0.691777,-10e-4 1.38356,10e-4 2.075336,0.003 0.68174,10e-4 1.363481,10e-4 2.045224,10e-4 0.683925,1.6e-4 1.367848,1.1e-4 2.051775,10e-5 0.68422,-2e-5 1.368441,-3e-5 2.052659,-3e-5 0.684209,0 1.368413,0 2.052619,0 0.684199,0 1.368399,0 2.052599,0 0.692639,-0.0341 1.360736,0.17259 2.04079,0.26428 0.578467,0.065 1.161363,0.0707 1.742776,0.0773 0.676214,0.004 1.352452,10e-4 2.028676,10e-4 0.685174,-6.5e-4 1.37035,-10e-4 2.055524,-10e-4 0.75737,-0.0452 1.496337,0.0389 2.237064,0.18869 0.524762,0.10496 1.060436,0.12595 1.593756,0.14301 0.660593,0.0146 1.321416,0.0131 1.98214,0.0131 0.779143,-0.0526 1.541824,0.10947 2.307464,0.22282 0.607924,0.0846 1.222052,0.10101 1.834801,0.11283 0.672285,0.009 1.344649,0.006 2.016967,0.006 0.684597,-6.7e-4 1.369197,-10e-4 2.053798,-10e-4 0.68442,-2.1e-4 1.36882,-2.1e-4 2.05324,-2.1e-4 0.53776,0.0478 1.03823,-0.0161 1.55887,-0.12113 0.71101,-0.14534 1.43627,-0.18467 2.15966,-0.20887 0.54278,-0.0131 1.07228,-0.16957 1.6123,-0.24614 0.56879,-0.0713 1.11757,-0.24527 1.68782,-0.3359 0.79395,-0.10394 1.59309,-0.13499 2.38962,-0.0607 0,0 -0.42658,3.39429 -0.42658,3.39429 l 0,0 c -0.28006,-0.13148 -1.09897,0.0566 -1.44317,0.0479 -0.58639,0.0848 -1.14601,0.29481 -1.73819,0.34327 -0.65769,0.0879 -1.30128,0.28983 -1.97006,0.2767 -0.53332,0.0169 -1.069,0.038 -1.59377,0.14285 -0.74054,0.14959 -1.47931,0.23405 -2.23648,0.18881 -0.684,0 -1.36798,0 -2.05197,2.1e-4 -0.6838,2.6e-4 -1.367598,6.7e-4 -2.051397,10e-4 -0.696071,6.8e-4 -1.39219,10e-4 -2.088215,-0.006 -0.758745,-0.0146 -1.518809,-0.0414 -2.271057,-0.14943 -0.600653,-0.09 -1.190044,-0.23574 -1.80152,-0.18552 -0.698687,4.3e-4 -1.397499,0.001 -2.096032,-0.0146 -0.723395,-0.0242 -1.448651,-0.0634 -2.159664,-0.20887 -0.520527,-0.10511 -1.020868,-0.16889 -1.558527,-0.12085 -0.684112,1.8e-4 -1.368226,4.7e-4 -2.052342,10e-4 -0.69081,6.7e-4 -1.381634,10e-4 -2.072432,-10e-4 -0.726019,-0.009 -1.453807,-0.0198 -2.175275,-0.10976 -0.524684,-0.0747 -1.041341,-0.2287 -1.568585,-0.23154 -0.6842,0 -1.368398,0 -2.052599,0 -0.684198,0 -1.368395,0 -2.052593,0 -0.684203,10e-6 -1.368404,10e-6 -2.052607,3e-5 -0.684357,10e-6 -1.368714,7e-5 -2.053071,-10e-5 -0.684685,-2.5e-4 -1.369371,-6e-4 -2.054055,-0.001 -0.676211,-10e-4 -1.352427,-0.006 -2.028641,-0.003 -0.652008,0.006 -1.306468,0.0166 -1.952181,0.11735 -0.93985,0.16607 -1.840416,0.46627 -2.739648,0.78197 0,0 -0.829715,-3.31885 -0.829715,-3.31885 z"
         id="path4200"
         style="opacity:1;fill:#2c89a0;fill-opacity:1" />
      <path
         inkscape:connector-curvature="0"
         d="m 87.935469,640.32647 c 0.05548,1.05145 -0.09129,2.09093 -0.218782,3.13098 -0.08292,0.66262 -0.106208,1.33006 -0.119094,1.99701 -0.0089,0.66987 -0.0067,1.3398 -0.0061,2.00971 6.78e-4,0.68383 0.0013,1.36765 0.0013,2.05148 2.02e-4,0.68442 2.02e-4,1.36881 2.02e-4,2.05321 0,0.68422 -5e-6,1.36844 -1.3e-5,2.05265 0,0.6842 0,1.36839 0,2.05261 0,0.68419 0,1.36838 0,2.05258 0,0.68421 0,1.36842 0,2.0526 0,0.6842 0,1.36841 0,2.05261 -0.05229,0.65745 -0.223888,1.29335 -0.289256,1.94921 -0.0487,0.60621 -0.05073,1.21492 -0.05433,1.8227 -0.002,0.68029 -3.45e-4,1.36058 3.99e-4,2.04086 6.78e-4,0.68506 6.78e-4,1.37013 6.78e-4,2.05521 7.3e-5,0.68432 6e-5,1.36862 5.5e-5,2.05294 0.0342,0.69263 -0.172608,1.36072 -0.264297,2.04077 -0.06503,0.57848 -0.07069,1.16137 -0.07732,1.74277 0.04054,0.77978 -0.05225,1.54488 -0.180141,2.31202 -0.103745,0.6035 -0.133351,1.21535 -0.152089,1.82627 -0.01497,0.66588 -0.01297,1.33198 -0.01253,1.99798 8.13e-4,0.68426 0.0016,1.3685 0.0019,2.05275 0.01443,0.54495 -0.04926,1.09162 0.06523,1.6242 0.210225,0.49748 0.08538,1.32497 0.262413,1.78379 0.08408,0.49896 0.247482,0.96053 0.398515,1.43954 0.141076,0.54802 0.304613,1.08845 0.514733,1.61292 0,0 -3.175972,1.27137 -3.175972,1.27137 l 0,0 c -0.243409,-0.60848 -0.441076,-1.23377 -0.605329,-1.86806 -0.179524,-0.59011 -0.374307,-1.17251 -0.485802,-1.78131 -0.103686,-0.59676 -0.127344,-1.20273 -0.264537,-1.79445 -0.143758,-0.75807 -0.147501,-1.51664 -0.130246,-2.28618 -3.61e-4,-0.68414 -10e-4,-1.36829 -0.0019,-2.05242 -4.35e-4,-0.70248 -0.0024,-1.4051 0.01414,-2.10744 0.02442,-0.76347 0.06724,-1.52755 0.196993,-2.2816 0.09958,-0.59708 0.180119,-1.17944 0.133787,-1.78909 0.0086,-0.72602 0.01993,-1.45381 0.109838,-2.17528 0.07472,-0.52467 0.228693,-1.04132 0.23155,-1.56857 4e-6,-0.68413 1.7e-5,-1.36826 -6e-5,-2.05237 -1.09e-4,-0.68401 -2.84e-4,-1.368 -10e-4,-2.05203 -7.43e-4,-0.68834 -0.0024,-1.37671 -3.35e-4,-2.06508 0.0044,-0.71892 0.0089,-1.43897 0.07253,-2.15563 0.05714,-0.5355 0.124107,-1.07683 0.270947,-1.59579 0,-0.6842 0,-1.36841 0,-2.05261 0,-0.68418 0,-1.36839 -1e-6,-2.0526 0,-0.6842 0,-1.36839 1e-6,-2.05258 0,-0.68422 0,-1.36841 4e-6,-2.05263 5e-6,-0.68421 1.2e-5,-1.36841 1.3e-5,-2.05261 -5e-6,-0.68396 0,-1.36795 -2.04e-4,-2.05193 -2.56e-4,-0.68302 -7.44e-4,-1.36604 -0.0016,-2.04906 -7.46e-4,-0.6936 -0.0029,-1.38723 0.0066,-2.08079 0.01561,-0.78364 0.04624,-1.56764 0.143875,-2.34608 0.110756,-0.90258 0.250862,-1.80145 0.193345,-2.71455 0,0 3.420999,0 3.420999,0 z"
         id="path4202"
         style="opacity:1;fill:#2c89a0;fill-opacity:1" />
      <path
         inkscape:connector-curvature="0"
         d="m 84.270706,640.79373 c -1.06735,-0.40357 -2.075488,-0.93398 -3.092516,-1.44604 -0.698726,-0.35314 -1.300498,-0.84049 -1.904078,-1.3294 -0.51532,-0.43141 -0.919772,-0.95632 -1.291609,-1.51157 -0.325137,-0.38215 -0.565954,-0.83553 -0.839757,-1.25715 -0.308053,-0.50417 -0.613809,-1.00812 -0.911305,-1.51933 -0.709188,-1.38585 -0.433941,-2.49066 0.920782,-3.33068 0.729993,-0.44059 1.564872,-0.56254 2.398647,-0.63019 0.823128,-0.0911 1.632658,0.003 2.443541,0.14081 0.759037,0.044 1.402292,0.41992 2.078892,0.71225 0.859461,0.41102 1.374253,1.19115 1.767952,2.02193 0.331555,0.85347 0.389341,1.76113 0.333534,2.66457 -0.0236,0.85057 -0.489066,1.52677 -0.838294,2.26031 -0.375584,0.661 -0.685173,1.22253 -1.283922,1.72319 -3.113508,-2.04708 -2.926902,-1.15556 -2.102671,-3.43196 0.286682,-0.74248 0.804294,-1.35525 1.19785,-2.0356 0.477528,-0.67456 0.964897,-1.33863 1.44052,-2.01331 0.349075,-0.59791 0.830307,-1.06328 1.353949,-1.50487 0.713314,-0.58929 1.590186,-0.77905 2.485514,-0.87237 0.725176,-0.0536 1.452981,-0.0477 2.179626,-0.0463 0.773544,0.016 1.477452,0.29006 2.194603,0.53958 0.785912,0.31383 1.425483,0.79786 1.972364,1.43479 0.573085,0.6182 0.808428,1.40796 0.944943,2.21833 0.170554,0.92739 -0.108308,1.79015 -0.406734,2.6521 -0.249992,0.68716 -0.696085,1.24765 -1.143288,1.81146 -0.428834,0.51781 -0.953902,0.9228 -1.508364,1.29598 -0.715586,0.43223 -1.490526,0.69784 -2.306288,0.86122 -0.477817,0.25756 -1.084956,0.18955 -1.566973,0.40084 -0.520875,0.12463 -1.015483,0.29911 -1.523336,0.46292 -0.365367,0.0862 -0.721729,0.16538 -1.077273,0.28038 0,0 -1.04905,-3.2562 -1.04905,-3.2562 l 0,0 c 0.359097,-0.1153 0.719569,-0.22294 1.091871,-0.28504 0.542891,-0.16709 1.07701,-0.35606 1.6286,-0.49445 0.618357,-0.1586 1.24917,-0.25916 1.855339,-0.4689 0.377494,-0.0644 0.73468,-0.17505 1.070042,-0.36084 0.326632,-0.19884 0.454031,-0.29353 0.724581,-0.58606 0.21079,-0.25824 0.430872,-0.48505 0.572962,-0.78502 0.11873,-0.34022 0.304749,-0.64165 0.257659,-1.00193 -0.03781,-0.30919 -0.02649,-0.42072 -0.279132,-0.66272 0.25987,0.16036 -0.392883,-0.29096 -0.407179,-0.29466 -0.363582,-0.13148 -0.668349,-0.2796 -1.050706,-0.34079 -0.61408,-6.7e-4 -1.228933,-0.006 -1.842198,0.0303 -0.205159,0.0173 -0.451102,0.006 -0.63263,0.0999 -0.25391,0.20888 -0.535177,0.4382 -0.755982,0.86214 -0.438417,0.59743 -0.849594,1.21394 -1.301235,1.80244 -0.303408,0.48668 -0.645772,0.95 -0.915825,1.45526 -0.620109,1.6297 -0.201332,1.07485 -2.998762,-0.61316 -0.05262,0.0486 -0.293872,0.21815 -0.326441,0.35569 -0.0066,0.0281 0.03803,-0.0444 0.0518,-0.07 0.128336,-0.23802 0.227191,-0.50372 0.406018,-0.71205 0.187878,-0.36043 0.42626,-0.63173 0.481771,-1.02756 0.0943,-0.3015 -0.03789,-0.65616 -0.05649,-0.96489 -0.03143,-0.16052 -0.433785,-0.49682 -0.113774,-0.29636 0.200851,0.1258 0.08872,0.033 0.05883,0.006 -0.431056,-0.20042 -0.73535,-0.4249 -1.230735,-0.45285 -0.539917,-0.091 -1.060725,-0.18066 -1.612038,-0.10349 -0.286107,0.0203 -0.588521,0.0271 -0.859879,0.12726 -0.06556,0.0406 -0.232135,0.19039 -0.196713,0.12186 0.06835,-0.13221 0.230931,-0.19768 0.30318,-0.32781 0.134138,-0.24161 0.386674,-0.91158 0.09413,-1.18493 -0.02684,-0.0251 0.02597,0.0688 0.03895,0.10321 0.265271,0.46518 0.539057,0.9216 0.823156,1.37502 0.270835,0.42159 0.504269,0.85996 0.829923,1.242 0.200497,0.33159 0.301096,0.46014 0.599905,0.73938 0.404427,0.33549 0.800679,0.67231 1.271848,0.91729 0.906145,0.45776 1.802241,0.93537 2.753055,1.29728 0,0 -1.201194,3.20318 -1.201194,3.20318 z"
         id="path4204"
         style="opacity:1;fill:#2c89a0;fill-opacity:1" />
      <path
         inkscape:connector-curvature="0"
         d="m 336.88995,681.77202 c 0,-0.72328 0,-1.44657 0,-2.16986 0,-0.53238 0,-1.06477 0,-1.59718 0,-0.47426 0,-0.94854 0,-1.42279 0,-0.47357 0,-0.94715 0,-1.42071 -0.006,-0.42917 -0.11035,-0.85247 -0.16314,-1.27932 -0.0146,-0.46753 -0.12682,-0.91927 -0.20152,-1.37901 -0.0803,-0.52621 -0.0974,-1.05869 -0.10743,-1.58998 -0.004,-0.48235 -0.004,-0.96474 -0.003,-1.44709 -0.10121,-0.35969 -0.14733,-0.73461 -0.18673,-1.1056 0.0102,-0.39352 -0.10189,-0.76101 -0.17346,-1.14393 -0.0338,-0.40111 -0.0981,-0.78418 -0.18787,-1.17426 -0.11239,-0.5011 -0.13878,-1.01467 -0.15522,-1.52619 -0.0117,-0.48444 -0.0102,-0.96911 -0.0102,-1.45367 9.7e-4,-0.47477 0.001,-0.94959 0.001,-1.42439 -9e-5,-0.51966 -0.0162,-1.0374 0.0395,-1.5544 0.0863,-0.38613 0.14652,-0.77444 0.17459,-1.16886 0.0242,-0.43651 0.0239,-0.87386 0.0251,-1.31087 -0.0227,-0.47907 0.11895,-0.94149 0.18201,-1.41204 0.0449,-0.40179 0.0486,-0.80658 0.0533,-1.21037 0.0493,-0.50894 0.15456,-1.00865 0.20064,-1.51806 0.0334,-0.43966 0.0356,-0.88087 0.038,-1.32155 10e-4,-0.47183 1.5e-4,-0.94366 -3.6e-4,-1.41551 -0.0131,-0.52888 0.1172,-1.04608 0.18,-1.5686 0.0453,-0.42954 0.0513,-0.8618 0.0561,-1.29328 0.0278,-0.39319 0.13265,-0.77331 0.1847,-1.163 0,0 2.35016,0.32462 2.35016,0.32462 l 0,0 c -0.0411,0.29027 -0.0831,0.58314 -0.16256,0.86563 -0.004,0.5185 -0.016,1.03786 -0.0736,1.5537 -0.0527,0.42649 -0.15618,0.84955 -0.16248,1.27833 4.7e-4,0.47722 10e-4,0.95443 3e-4,1.43162 -0.003,0.50936 -0.006,1.01928 -0.0481,1.52728 -0.042,0.44489 -0.10091,0.88807 -0.19067,1.32611 -0.004,0.50324 -0.0131,1.00766 -0.0755,1.50781 -0.0517,0.36562 -0.15812,0.72569 -0.15972,1.09319 -10e-4,0.49329 -10e-4,0.98699 -0.0314,1.47956 -0.0336,0.44192 -0.0857,0.88212 -0.18975,1.31374 -0.10349,0.28943 0.0377,0.90907 -0.0179,1.23624 -2.4e-4,0.47515 -9.6e-4,0.95031 -0.001,1.42546 -4.7e-4,0.45899 -10e-4,0.91805 0.009,1.37696 0.0117,0.35778 0.0224,0.71788 0.0964,1.06938 0.0967,0.42222 0.17825,0.84325 0.2089,1.27597 0.0796,0.44155 0.20336,0.87647 0.20008,1.32924 0.045,0.45514 0.16375,0.89661 0.19931,1.35291 -4.7e-4,0.46659 -10e-4,0.93323 0.003,1.39983 0.009,0.4198 0.0174,0.84077 0.0777,1.25701 0.0777,0.48868 0.19652,0.97145 0.21411,1.46803 0.0628,0.52215 0.1928,1.03886 0.18071,1.56736 0,0.47356 0,0.94714 0,1.42071 0,0.47425 0,0.94853 0,1.42279 0,0.53241 0,1.0648 0,1.59718 0,0.72329 0,1.44658 0,2.16986 0,0 -2.37249,0 -2.37249,0 z"
         id="path4206"
         style="opacity:1;fill:#2c89a0;fill-opacity:1" />
      <path
         inkscape:connector-curvature="0"
         d="m 320.50965,662.54476 c 0.68891,0.0544 1.37359,0.14701 2.06298,0.19747 0.49018,0.033 0.98165,0.0379 1.47276,0.0408 0.3203,-0.0534 0.94504,0.0857 1.22604,-0.0174 0.43142,-0.10481 0.87156,-0.15716 1.31342,-0.19073 0.49261,-0.0297 0.98636,-0.0303 1.47969,-0.0315 0.47619,-2.8e-4 0.95239,4.6e-4 1.42859,9.6e-4 0.47435,4e-4 0.94869,4.7e-4 1.42302,4.7e-4 0.47447,5e-5 0.94892,3e-5 1.42339,2e-5 0.47449,0 0.94899,0 1.42348,0 0.4745,-2e-5 0.94899,-2e-5 1.42349,-2e-5 0.47449,0 0.949,0 1.42348,0 0.47451,0 0.94899,0 1.42348,0 0.47449,0 0.949,0 1.42348,0 0.47451,0 0.94902,0 1.42351,0 0.4745,0 0.94898,0 1.42347,0 0.53996,-0.0359 1.06835,0.0771 1.59889,0.15601 0.42129,0.0587 0.84688,0.07 1.27152,0.0784 0.46624,0.004 0.93249,0.004 1.39877,0.004 0.47477,-4.7e-4 0.94954,-9.7e-4 1.42431,-9.7e-4 0.47463,-1.6e-4 0.94927,-1.6e-4 1.42392,-1.6e-4 0.47451,0 0.949,10e-6 1.4235,10e-6 0.47451,0 0.949,0 1.4235,0 0.47448,0 0.94899,0 1.42348,0 0.47451,0 0.94899,0 1.42348,0 0.47449,0 0.949,0 1.42348,0 0.31634,0 0.63266,0 0.94899,0 0,0 0,2.37249 0,2.37249 l 0,0 c -0.31633,0 -0.63265,0 -0.94899,0 -0.47448,0 -0.94899,0 -1.42348,0 -0.47449,0 -0.94897,0 -1.42348,0 -0.47449,0 -0.949,0 -1.42348,0 -0.47453,0 -0.94899,0 -1.42352,0 -0.47449,0 -0.94897,-3e-5 -1.42346,-3e-5 -0.47434,3e-5 -0.94871,0 -1.42304,1.6e-4 -0.47422,1.8e-4 -0.94843,4.7e-4 -1.42263,9.8e-4 -0.48276,4.7e-4 -0.96554,10e-4 -1.44824,-0.004 -0.52636,-0.0117 -1.05364,-0.0287 -1.57543,-0.10408 -0.41614,-0.0627 -0.82441,-0.16408 -1.24809,-0.12987 -0.47449,0 -0.94897,0 -1.42347,0 -0.47449,0 -0.949,0 -1.42351,0 -0.47448,0 -0.94899,0 -1.42348,0 -0.47449,0 -0.94899,0 -1.42348,0 -0.47448,0 -0.94899,0 -1.42348,0 -0.4745,0 -0.94899,0 -1.42349,0 -0.47449,0 -0.94897,0 -1.42347,0 -0.47453,10e-6 -0.9491,10e-6 -1.42363,-2e-5 -0.47498,-4e-5 -0.94997,-1.1e-4 -1.42496,-4.5e-4 -0.47352,-4.5e-4 -0.94703,-10e-4 -1.42055,-9.8e-4 -0.43688,9.8e-4 -0.8741,9.8e-4 -1.31046,0.0251 -0.39324,0.0279 -0.78031,0.0882 -1.1651,0.17503 -0.51987,0.056 -1.04072,0.0414 -1.56332,0.0398 -0.5448,-0.003 -1.0899,-0.0103 -1.63359,-0.0473 -0.63112,-0.0468 -1.25995,-0.11589 -1.88829,-0.19104 0,0 0,-2.37247 0,-2.37247 z"
         id="path4208"
         style="opacity:1;fill:#2c89a0;fill-opacity:1" />
      <path
         inkscape:connector-curvature="0"
         d="m 336.43475,647.65582 c -0.52773,-0.40017 -1.04915,-0.81148 -1.54053,-1.25602 -0.42725,-0.33748 -0.75194,-0.77956 -1.01322,-1.2519 -0.2,-0.41191 -0.37915,-0.83594 -0.54108,-1.26463 -0.14878,-0.43654 -0.30577,-0.86187 -0.39418,-1.31739 -0.14256,-0.70452 0.0618,-1.34034 0.42729,-1.93355 0.49948,-0.62508 1.21222,-0.78814 1.9678,-0.85024 0.40526,-0.0359 0.81338,0.0179 1.21117,-0.0644 0.60347,-0.16136 1.19656,-0.13381 1.79773,0.0117 0.49122,0.13295 0.92749,0.37176 1.34675,0.65336 0.49088,0.37341 0.81769,0.87491 1.03768,1.44289 0.16772,0.54216 0.18102,1.11139 0.19124,1.6738 0.0473,0.51314 -0.0735,1.00982 -0.1616,1.51019 -0.10962,0.50071 -0.36179,0.9488 -0.61869,1.38585 -0.21656,0.37495 -0.50416,0.70335 -0.80433,1.01278 -0.72224,1.11148 -3.05879,0.55601 -2.09243,-1.36147 0.2022,-0.374 0.54341,-0.63198 0.81119,-0.95023 0.20035,-0.22265 0.47078,-0.39689 0.62222,-0.66063 0.25237,-0.31397 0.47583,-0.6496 0.69726,-0.98573 0.19149,-0.42398 0.49328,-0.76761 0.8283,-1.08367 0.4104,-0.3395 0.87842,-0.59181 1.38062,-0.76405 0.53444,-0.14973 1.09124,-0.16339 1.64221,-0.17371 0.60914,-0.0289 1.19326,-0.006 1.78304,0.15345 0.95602,0.35499 1.30655,0.83809 1.50709,1.81355 0.058,0.72073 -0.27669,1.3021 -0.72537,1.8273 -0.37109,0.35842 -0.79421,0.66324 -1.2317,0.93563 -0.33274,0.23967 -0.67883,0.45941 -1.02022,0.68622 -0.3532,0.20956 -0.71352,0.40302 -1.07381,0.59928 -0.32563,0.15231 -0.64487,0.31562 -0.96271,0.48323 -0.4226,0.22061 -0.84643,0.4049 -1.31388,0.51455 -0.30767,0.0487 -0.19617,0.0117 -0.34678,0.0684 0,0 -0.60281,-2.29459 -0.60281,-2.29459 l 0,0 c 0.35668,-0.0853 0.20807,-0.062 0.44205,-0.0914 0.26418,-0.045 0.47574,-0.18583 0.71812,-0.29731 0.30966,-0.16181 0.62221,-0.31824 0.93649,-0.46925 0.30128,-0.16161 0.60208,-0.32056 0.89664,-0.49312 0.36784,-0.2403 0.73409,-0.48234 1.09482,-0.7335 0.25503,-0.14621 0.48615,-0.33384 0.71602,-0.5125 0.18911,-0.2366 0.0314,-0.037 0.11794,0.0621 0.0974,0.22186 0.38199,0.27841 0.11399,0.1573 -0.23323,-0.10947 -0.70036,-0.006 -1.00575,-0.0373 -0.32236,0.004 -0.64696,0.0102 -0.96569,0.0623 -0.17991,0.0346 -0.32806,0.17075 -0.47588,0.23254 -0.30186,0.2827 -0.075,-0.004 -0.14909,0.10932 -0.11866,0.18174 -0.22241,0.37473 -0.33047,0.56247 -0.23539,0.3496 -0.46395,0.70535 -0.7297,1.03306 -0.24112,0.32829 -0.51076,0.63248 -0.8164,0.9017 -0.1004,0.10641 -0.29682,0.28706 -0.38686,0.39115 -0.0413,0.0478 -0.0649,0.11268 -0.11603,0.14973 -0.0307,0.0221 0.0336,-0.068 0.0503,-0.10204 -0.33709,0.57147 0.22606,-0.35585 -0.95643,-1.51126 -0.34788,-0.3399 -1.2551,0.66592 -0.72232,0.0895 0.19442,-0.14328 0.32484,-0.3807 0.45496,-0.57537 0.17301,-0.19031 0.18784,-0.38795 0.29867,-0.55156 0.0637,-0.35387 0.16637,-0.68793 0.12493,-1.05127 -0.004,-0.30875 -0.0102,-0.61888 -0.056,-0.92471 -0.003,-0.136 -0.24534,-0.30264 -0.12506,-0.26514 -0.2148,-0.14475 -0.41281,-0.28142 -0.68186,-0.34281 -0.22896,-0.0623 -0.41284,-0.0277 -0.69291,0.04 -0.49023,0.09 -0.97927,0.0941 -1.47617,0.0999 -0.3037,0.02 -0.4188,0.13031 -0.19687,-0.16593 0.0343,-0.14548 -0.004,0.0341 -0.031,0.0394 -0.0281,0.004 0.0261,-0.069 0.003,-0.0861 -0.0351,-0.0267 -0.0131,0.24018 -0.0172,0.20117 0.0523,0.32423 0.19469,0.61401 0.28733,0.92746 0.11851,0.3408 0.27096,0.67221 0.42389,0.99816 0.0312,0.22708 0.36772,0.44595 0.50843,0.59039 0.45443,0.42829 0.96566,0.79476 1.455,1.18123 0,0 -1.51882,1.82256 -1.51882,1.82256 z"
         id="path4210"
         style="opacity:1;fill:#2c89a0;fill-opacity:1" />
      <path
         inkscape:connector-curvature="0"
         d="m 334.87488,793.91271 c 0,-1.45571 0,-2.9114 0,-4.36708 0,-1.07148 0,-2.14296 0,-3.21443 0,-0.9545 0,-1.90902 0,-2.86355 -0.0199,-0.75823 0.069,-1.51883 -0.0906,-2.25984 -0.21995,-0.9518 -0.30296,-1.92459 -0.35309,-2.8977 -0.0386,-0.98259 -0.0369,-1.96618 -0.0372,-2.94936 6.4e-4,-0.9568 0.001,-1.91359 0.001,-2.87038 0.0711,-0.84161 -0.044,-1.64428 -0.18253,-2.4682 -0.0937,-0.94386 -0.26265,-1.86457 -0.44844,-2.79286 -0.21332,-1.07366 -0.27486,-2.16714 -0.30947,-3.25856 -0.0223,-0.98038 -0.0186,-1.96111 -0.0174,-2.94168 0.001,-0.95449 0.001,-1.90898 0.001,-2.86347 4.1e-4,-0.95453 4.3e-4,-1.90906 4.3e-4,-2.86359 0,-0.95495 0,-1.90988 -2e-5,-2.86485 0,-0.95497 -10e-6,-1.90992 -10e-6,-2.8649 -0.0477,-0.96673 0.24091,-1.89923 0.36887,-2.84839 0.033,-0.91526 0.18391,-1.80607 0.37921,-2.69907 0.13119,-0.84922 0.19642,-1.69534 0.39666,-2.53408 0.19939,-0.78307 0.2262,-1.59034 0.36346,-2.38399 0.20556,-0.71137 0.30647,-1.43809 0.35827,-2.17437 -0.0117,-1.0244 0.12595,-2.02887 0.29737,-3.03613 0.1449,-0.83934 0.18447,-1.69065 0.20996,-2.54041 0.0203,-0.9302 0.0173,-1.8607 0.0167,-2.79105 -6.5e-4,-0.95513 -10e-4,-1.91023 -10e-4,-2.86535 -0.11196,-0.6583 0.17228,-1.90522 -0.0359,-2.48754 0,0 4.73133,-0.64296 4.73133,-0.64296 l 0,0 c 0.11063,1.04039 0.0796,2.08225 0.0794,3.12797 5e-4,0.95482 10e-4,1.90965 10e-4,2.86448 6.3e-4,0.98025 0.003,1.9607 -0.019,2.94075 -0.0334,1.06916 -0.092,2.13935 -0.27537,3.19504 -0.14669,0.86163 -0.26161,1.70691 -0.2426,2.58613 -0.0708,0.93063 -0.18367,1.85821 -0.43796,2.75917 -0.24146,0.6442 -0.082,1.87535 -0.40606,2.57631 -0.19926,0.79545 -0.179,1.62446 -0.37192,2.42709 -0.17019,0.7768 -0.28313,1.53656 -0.31447,2.3371 -0.10422,0.7323 -0.31918,1.45341 -0.32316,2.1893 0,0.95495 0,1.90993 10e-6,2.86488 0,0.95499 2e-5,1.90997 2e-5,2.86495 -2e-5,0.95539 -2e-5,1.91078 -4.5e-4,2.86618 -5.2e-4,0.95546 -10e-4,1.91089 -10e-4,2.86633 -6.6e-4,0.92937 -0.003,1.85888 0.0146,2.78808 0.0249,0.82707 0.0615,1.65676 0.21921,2.47121 0.19437,0.97498 0.37479,1.94715 0.47495,2.93694 0.18191,1.08252 0.31296,2.1623 0.24854,3.26297 -6.2e-4,0.95493 -10e-4,1.90988 -10e-4,2.86481 3.7e-4,0.90403 -0.001,1.80843 0.0312,2.712 0.0358,0.74256 0.0936,1.48491 0.26821,2.21013 0.20054,1.0568 0.20598,2.11418 0.1814,3.18691 0,0.95453 0,1.90905 0,2.86355 0,1.07147 0,2.14295 0,3.21443 0,1.45568 0,2.91137 0,4.36708 0,0 -4.77482,0 -4.77482,0 z"
         id="path4212"
         style="opacity:1;fill:#2c89a0;fill-opacity:1" />
      <path
         inkscape:connector-curvature="0"
         d="m 303.0444,755.6549 c 1.2043,-0.19627 2.45457,-0.34616 3.62542,-0.70232 1.01741,-0.35541 2.07415,-0.53342 3.14347,-0.63095 0.91659,-0.2215 1.84886,-0.35583 2.78635,-0.44696 1.02372,-0.0837 2.05147,-0.0893 3.07793,-0.094 0.95992,-10e-4 1.91984,5.5e-4 2.87974,10e-4 0.95418,6.4e-4 1.90833,6.4e-4 2.8625,0.001 0.95484,9e-5 1.90966,6e-5 2.8645,5e-5 0.95499,0 1.90995,0 2.86491,0 0.95497,0 1.90994,0 2.86491,0 0.95496,0 1.90993,0 2.86488,0 0.95496,0 1.90993,0 2.86489,0 0.95498,0 1.90994,0 2.86491,0 0.95493,0 1.90992,0 2.86487,0 0.95497,0 1.90994,0 2.86491,0 0.95495,0 1.90992,0 2.86487,0 0.95497,0 1.90995,0 2.8649,0 0.95496,0 1.90992,0 2.86489,0 0.91762,0.0729 1.80519,0.31248 2.72059,0.4037 0.84614,0.0679 1.69571,0.0709 2.54402,0.0758 1.00951,-0.0803 1.98781,0.15295 2.97339,0.32253 0.7914,0.0941 1.52999,0.40414 2.31645,0.52466 0.79964,0.0841 1.55608,0.36673 2.35096,0.48093 0.86255,0.023 1.68775,0.27804 2.52985,0.43313 0.86561,0.0623 1.708,0.22582 2.55287,0.41898 0.70802,0.14828 1.43324,0.17134 2.15381,0.19322 0.19386,-0.091 0.45888,-0.11575 0.66344,-0.15618 0,0 0.92412,4.68454 0.92412,4.68454 l 0,0 c -0.57446,0.11312 -1.14727,0.23964 -1.73677,0.24409 -1.02933,-0.033 -2.06274,-0.0859 -3.07122,-0.31152 -0.78932,-0.18127 -1.565,-0.30974 -2.37596,-0.38196 -0.79052,-0.15264 -1.55133,-0.38668 -2.36238,-0.40445 -0.81448,-0.12901 -1.59672,-0.37502 -2.40794,-0.48997 -0.8006,-0.1376 -1.56425,-0.39441 -2.35704,-0.53158 -0.73341,-0.12901 -1.42917,-0.33159 -2.18216,-0.2517 -1.00345,-0.006 -2.00843,-0.0131 -3.00872,-0.10132 -0.74742,-0.0799 -1.50299,-0.17323 -2.22731,-0.37818 -0.95497,0 -1.90993,0 -2.86489,0 -0.95495,0 -1.90993,0 -2.8649,0 -0.95495,0 -1.90992,0 -2.86487,0 -0.95497,0 -1.90994,0 -2.86491,0 -0.95495,0 -1.90994,0 -2.86487,0 -0.95497,0 -1.90993,0 -2.86491,0 -0.95496,0 -1.90993,0 -2.86489,0 -0.95495,0 -1.90992,0 -2.86488,0 -0.95497,0 -1.90991,0 -2.86488,0 -0.95496,0 -1.90993,0 -2.86488,0 -0.95509,3e-5 -1.91018,5e-5 -2.86526,-4e-5 -0.95581,-1.3e-4 -1.91163,-3.5e-4 -2.86744,-6.2e-4 -0.95058,-6.4e-4 -1.90118,-0.003 -2.85175,-10e-4 -0.88321,0.003 -1.76751,0.006 -2.64874,0.0727 -0.95151,0.0874 -1.88152,0.2825 -2.82121,0.45016 -0.78395,0.0644 -1.54803,0.20853 -2.29089,0.47734 -1.41064,0.37089 -2.85853,0.63968 -4.30244,0.83724 0,0 -0.59224,-4.73794 -0.59224,-4.73794 z"
         id="path4214"
         style="opacity:1;fill:#2c89a0;fill-opacity:1" />
      <path
         inkscape:connector-curvature="0"
         d="m 335.55429,725.53666 c -1.41428,-0.23224 -2.77863,-0.64728 -4.14792,-1.05551 -0.87579,-0.26536 -1.66035,-0.75778 -2.50875,-1.08217 -0.8127,-0.3956 -1.57842,-0.87041 -2.34186,-1.35086 -0.88979,-0.57392 -1.57083,-1.35344 -2.1802,-2.20676 -0.5736,-0.89313 -0.98949,-1.82449 -1.23249,-2.85957 -0.30641,-1.48457 0.077,-2.98318 1.24498,-4.00326 0.23432,-0.20467 0.51651,-0.34698 0.77478,-0.52047 0.9526,-0.64695 2.05119,-0.91927 3.17448,-1.07488 1.02985,-0.10758 2.06678,-0.10278 3.10092,-0.10379 1.0199,-0.0833 2.00694,0.15683 3.00171,0.33113 1.00769,0.21954 1.90941,0.72652 2.78882,1.24326 0.75469,0.43575 1.41555,1.0146 2.03836,1.61872 1.0421,1.01802 1.48775,2.31782 1.64339,3.72985 -0.0944,1.70814 -0.9112,2.67826 -2.24511,3.62119 -0.70062,0.40429 -1.42652,0.75195 -2.14306,1.12286 -0.37439,0.28067 -0.72202,0.60298 -1.09312,0.90222 -3.26969,-4.09379 -3.78503,-3.02226 -1.60021,-5.08943 0.4671,-0.47861 0.93448,-0.9594 1.4203,-1.42063 0.54445,-0.61091 1.15662,-1.15058 1.81763,-1.63296 0.65834,-0.53147 1.37188,-0.98959 2.07304,-1.46143 0.89114,-0.52225 1.89419,-0.82488 2.87668,-1.13171 1.04671,-0.2981 2.13604,-0.35086 3.2171,-0.38373 1.09969,-0.036 2.19609,0.20299 3.24755,0.50495 0.73347,0.21671 1.44646,0.4921 2.1749,0.72368 1.56364,0.56006 2.46459,1.76653 2.99765,3.28314 0.41067,1.79793 -0.13631,3.06759 -1.40692,4.31804 -0.68941,0.64027 -1.55446,1.03206 -2.3242,1.55113 -0.8245,0.46225 -1.65408,0.89778 -2.55254,1.19837 -0.87212,0.14603 -1.7097,0.4105 -2.57492,0.59087 -1.02584,0.18833 -2.07059,0.21445 -3.11042,0.23307 -0.76034,-0.0749 -1.4647,0.12813 -2.20526,0.25802 0,0 -0.81697,-4.70442 -0.81697,-4.70442 l 0,0 c 0.97419,-0.16693 1.94082,-0.39952 2.93857,-0.3277 0.74943,-0.0131 1.50273,-0.0223 2.24483,-0.13848 0.70359,-0.13556 1.38037,-0.39154 2.0956,-0.46748 0.5317,-0.12069 0.97342,-0.48376 1.46684,-0.70149 0.55529,-0.33397 1.12877,-0.63766 1.64047,-1.03759 -0.0883,0.30727 0.14285,-0.52581 0.10408,-0.0864 -0.0344,0.38856 -0.26859,0.51281 -0.0496,0.76004 -0.0162,-0.21943 0.24169,-0.003 0.0532,-0.19591 -0.71355,-0.24087 -1.4093,-0.50208 -2.13465,-0.71058 -0.20308,-0.15908 -1.31207,-0.28414 -1.6471,-0.27847 -0.65655,0.0187 -1.3205,0.0307 -1.96367,0.1777 -0.5463,0.1594 -1.08135,0.36445 -1.62043,0.53659 -0.67769,0.44631 -1.35425,0.89667 -1.9886,1.40374 -0.52506,0.30017 -0.87647,0.83313 -1.31883,1.2321 -0.51921,0.42399 -0.93203,0.97616 -1.42736,1.42712 -2.14143,1.72878 -0.25202,2.2715 -4.41778,-2.30412 -0.0529,0.0494 -0.21142,0.19741 -0.15843,0.14828 0.57262,-0.53108 1.17808,-1.02522 1.85508,-1.42058 0.55104,-0.28234 1.12097,-0.55663 1.65928,-0.83628 0.13397,-0.0672 0.2105,-0.29112 0.35904,-0.27086 0.0966,0.0131 -0.12055,0.15474 -0.16627,0.24084 -0.12812,0.2413 -0.0403,0.30934 -0.044,0.62475 0.15087,0.24709 -0.0851,-0.61499 -0.27485,-0.63505 -0.28827,-0.3911 -0.76586,-0.65349 -1.15752,-0.9152 -0.38327,-0.34956 -0.77868,-0.37582 -1.10529,-0.59867 -0.7269,-0.13046 -1.41544,-0.33672 -2.16221,-0.25757 -0.82998,6.4e-4 -1.66179,-0.003 -2.48954,0.0641 -0.51761,0.0583 -0.96489,0.13892 -1.39237,0.46891 0.13746,-0.18647 0.24644,-0.36795 0.26972,-0.60583 0.009,-0.091 -0.0493,-0.35993 -0.0532,-0.26873 -0.003,0.0846 0.0204,0.16802 0.0307,0.25203 0.0686,0.4212 0.24744,0.81665 0.49424,1.16057 0.2866,0.46632 0.35557,0.5122 0.80775,0.88901 0.53475,0.34009 1.07377,0.67015 1.62669,0.97858 0.68578,0.29538 1.34268,0.63846 2.03777,0.91398 1.11624,0.33479 2.22242,0.68122 3.37183,0.8921 0,0 -0.59224,4.73796 -0.59224,4.73796 z"
         id="path4216"
         style="opacity:1;fill:#2c89a0;fill-opacity:1" />
      <rect
         y="837.85767"
         x="330.11392"
         height="17.105007"
         width="17.105007"
         id="rect4136-3-6-2"
         style="opacity:1;fill:#e09500;fill-opacity:1;stroke:none;stroke-width:1.60000002;stroke-miterlimit:4;stroke-dasharray:none;stroke-dashoffset:0;stroke-opacity:1" />
      <path
         inkscape:connector-curvature="0"
         d="m 337.76616,854.74359 c 0,-0.34306 0,-0.68614 0,-1.02919 0,-0.25256 0,-0.5051 0,-0.75758 0,-0.22501 0,-0.44995 0,-0.67491 -0.004,-0.17872 0.0163,-0.35794 -0.0213,-0.53262 -0.0519,-0.22427 -0.0713,-0.45355 -0.0833,-0.68288 -0.0102,-0.2316 -0.009,-0.46343 -0.009,-0.69515 1.7e-4,-0.22548 4.6e-4,-0.45096 6.9e-4,-0.67651 0.0167,-0.19833 -0.0117,-0.38751 -0.043,-0.58169 -0.0223,-0.22242 -0.0618,-0.43943 -0.10568,-0.65822 -0.0503,-0.25305 -0.0647,-0.51076 -0.0729,-0.76795 -0.006,-0.23109 -0.003,-0.4622 -0.003,-0.69329 4.3e-4,-0.22497 6.7e-4,-0.44996 6.7e-4,-0.6749 10e-5,-0.22494 10e-5,-0.44989 10e-5,-0.6749 0,-0.22506 0,-0.45007 0,-0.67515 0,-0.22507 0,-0.45015 0,-0.67522 -0.0117,-0.22784 0.0567,-0.44757 0.0869,-0.6713 0.009,-0.21573 0.0433,-0.42569 0.0893,-0.63613 0.0309,-0.20015 0.0462,-0.39956 0.0936,-0.5972 0.0471,-0.18457 0.0534,-0.37483 0.0857,-0.56183 0.0484,-0.16771 0.0721,-0.33901 0.0846,-0.51254 -10e-4,-0.24139 0.0296,-0.47812 0.07,-0.71553 0.0341,-0.19777 0.0434,-0.39847 0.0494,-0.59874 0.004,-0.2192 0.003,-0.43851 0.003,-0.65774 -2.1e-4,-0.22515 -4.4e-4,-0.45023 -6.6e-4,-0.67531 -0.0264,-0.15521 0.0407,-0.44906 -0.009,-0.58629 0,0 1.11508,-0.15151 1.11508,-0.15151 l 0,0 c 0.0261,0.24518 0.0188,0.4907 0.0187,0.7372 10e-5,0.22499 4.4e-4,0.45007 6.7e-4,0.67507 1.6e-4,0.23105 6.6e-4,0.46208 -0.004,0.69313 -0.009,0.25196 -0.0216,0.50411 -0.0649,0.75295 -0.0344,0.2031 -0.0617,0.40229 -0.0572,0.60955 -0.0166,0.21931 -0.0433,0.43787 -0.1032,0.65023 -0.0569,0.15183 -0.0194,0.44202 -0.0956,0.60721 -0.0468,0.18748 -0.0421,0.38283 -0.0877,0.57201 -0.0401,0.18307 -0.0667,0.36208 -0.074,0.55079 -0.0246,0.17258 -0.0752,0.34259 -0.0761,0.51598 0,0.22507 0,0.45015 0,0.67522 0,0.22508 10e-6,0.45015 10e-6,0.67524 -10e-6,0.22514 -10e-6,0.45028 -1.1e-4,0.6755 -1.4e-4,0.22512 -4.6e-4,0.45034 -6.7e-4,0.67548 -2.3e-4,0.21906 -0.001,0.4381 0.003,0.65715 0.006,0.19485 0.0146,0.39039 0.0516,0.58236 0.0459,0.22982 0.0882,0.45896 0.11194,0.69222 0.0429,0.25508 0.0737,0.50961 0.0586,0.76896 -1.8e-4,0.22508 -4.6e-4,0.45014 -6.7e-4,0.67522 10e-5,0.21302 -4.5e-4,0.42618 0.006,0.63913 0.009,0.17502 0.022,0.34997 0.0631,0.52092 0.0473,0.24907 0.0484,0.49826 0.0427,0.75108 0,0.22496 0,0.4499 0,0.67491 0,0.25248 0,0.50502 0,0.75758 0,0.34305 0,0.68613 0,1.02919 0,0 -1.12533,0 -1.12533,0 z"
         id="path4212-6"
         style="opacity:1;fill:#2c89a0;fill-opacity:1" />
      <path
         inkscape:connector-curvature="0"
         d="m 330.26434,845.72698 c 0.28383,-0.0461 0.57849,-0.0815 0.85444,-0.16552 0.23978,-0.0837 0.48883,-0.1258 0.74087,-0.14862 0.21601,-0.0522 0.43572,-0.0839 0.65667,-0.10553 0.24127,-0.0197 0.4835,-0.021 0.7254,-0.0224 0.22623,0 0.45249,1.3e-4 0.67872,0 0.22486,0 0.44974,0 0.67461,0 0.22505,0 0.45009,0 0.67512,0 0.22506,0 0.45013,0 0.67519,0 0.22506,0 0.45013,0 0.67522,0 0.22505,0 0.4501,0 0.6752,0 0.22505,0 0.45012,0 0.67519,0 0.22505,0 0.45013,0 0.67519,0 0.22506,0 0.45013,0 0.67519,0 0.22508,0 0.45013,0 0.67521,0 0.22506,0 0.45011,0 0.67519,0 0.22506,0 0.45015,0 0.67521,0 0.22508,0 0.45012,0 0.67519,0 0.21628,0.0169 0.42545,0.0736 0.64119,0.095 0.19942,0.0163 0.39964,0.0169 0.59957,0.0176 0.23792,-0.0189 0.46849,0.0358 0.70077,0.076 0.18651,0.0224 0.36059,0.0953 0.54594,0.12361 0.18847,0.0197 0.36674,0.0864 0.55409,0.11312 0.20328,0.006 0.39776,0.0657 0.59624,0.10203 0.20399,0.0146 0.40253,0.0537 0.60163,0.0987 0.16688,0.0353 0.33781,0.0407 0.50762,0.0454 0.0457,-0.0217 0.10816,-0.0271 0.15634,-0.0366 0,0 0.21781,1.10404 0.21781,1.10404 l 0,0 c -0.13542,0.0264 -0.27039,0.0561 -0.40932,0.0576 -0.2426,-0.006 -0.48617,-0.0203 -0.72382,-0.0734 -0.18604,-0.0427 -0.36885,-0.0731 -0.55997,-0.09 -0.18632,-0.0359 -0.36562,-0.0911 -0.55677,-0.0955 -0.19195,-0.0304 -0.37633,-0.0883 -0.56751,-0.11545 -0.1887,-0.0325 -0.36865,-0.0929 -0.5555,-0.12522 -0.17287,-0.0304 -0.33684,-0.0781 -0.5143,-0.0596 -0.23648,0 -0.47335,0 -0.7091,-0.0236 -0.17615,-0.019 -0.35421,-0.0407 -0.52493,-0.089 -0.22507,0 -0.45011,0 -0.67519,0 -0.22505,0 -0.45015,0 -0.6752,0 -0.22508,0 -0.45014,0 -0.67519,0 -0.22508,0 -0.45014,0 -0.67522,0 -0.22505,0 -0.45013,0 -0.67519,0 -0.22505,0 -0.45013,0 -0.67519,0 -0.22508,0 -0.45013,0 -0.67519,0 -0.22509,0 -0.45014,0 -0.67521,0 -0.22507,0 -0.45013,0 -0.67519,0 -0.22507,0 -0.45014,0 -0.67521,0 -0.22508,0 -0.45018,0 -0.67527,-6e-5 -0.22528,0 -0.45052,-7e-5 -0.67579,0 -0.22406,0 -0.44807,0 -0.67211,0 -0.20816,0 -0.41656,0 -0.62427,0.0169 -0.22425,0.0203 -0.44342,0.0663 -0.6649,0.10598 -0.18475,0.0146 -0.36483,0.0494 -0.5399,0.11253 -0.33244,0.0874 -0.6737,0.15072 -1.01401,0.19731 0,0 -0.13964,-1.11662 -0.13964,-1.11662 z"
         id="path4214-4"
         style="opacity:1;fill:#2c89a0;fill-opacity:1" />
      <path
         inkscape:connector-curvature="0"
         d="m 337.92627,838.6287 c -0.33333,-0.055 -0.65485,-0.15248 -0.97758,-0.24871 -0.20641,-0.0623 -0.3913,-0.17859 -0.59127,-0.25507 -0.19153,-0.0933 -0.37199,-0.20516 -0.55191,-0.31835 -0.20973,-0.13527 -0.37023,-0.31901 -0.51383,-0.5201 -0.13527,-0.21053 -0.23321,-0.42998 -0.29047,-0.67395 -0.0723,-0.3499 0.0182,-0.70306 0.29339,-0.94352 0.0553,-0.048 0.12172,-0.0817 0.1826,-0.12274 0.22452,-0.15247 0.48344,-0.21661 0.74817,-0.25332 0.24272,-0.0251 0.48711,-0.0244 0.73083,-0.0244 0.24037,-0.0197 0.473,0.0367 0.70744,0.0781 0.2375,0.0514 0.45003,0.17122 0.65726,0.29298 0.17788,0.10277 0.33364,0.2391 0.48042,0.38148 0.24558,0.23998 0.35063,0.54625 0.38732,0.87911 -0.0222,0.40251 -0.21477,0.63119 -0.52914,0.8534 -0.16512,0.0953 -0.3362,0.17721 -0.50507,0.26467 -0.0882,0.0663 -0.17018,0.14198 -0.25765,0.21258 -0.77058,-0.96479 -0.89206,-0.71225 -0.37711,-1.19946 0.11006,-0.11283 0.22023,-0.22611 0.33472,-0.33478 0.12828,-0.14388 0.27259,-0.27116 0.42839,-0.38488 0.15521,-0.12521 0.32332,-0.23321 0.48857,-0.34442 0.21004,-0.12303 0.44643,-0.19439 0.67797,-0.26672 0.24669,-0.0703 0.50343,-0.0828 0.75821,-0.0906 0.25919,-0.009 0.51757,0.0481 0.76538,0.11895 0.17288,0.0509 0.3409,0.11589 0.51258,0.17055 0.36852,0.13207 0.58086,0.41634 0.70649,0.77378 0.0967,0.42372 -0.0321,0.72297 -0.33158,1.01767 -0.16248,0.15088 -0.36635,0.24324 -0.54777,0.36556 -0.1943,0.10904 -0.38984,0.2116 -0.60159,0.28245 -0.20552,0.0344 -0.40293,0.0968 -0.60684,0.13921 -0.24177,0.0447 -0.488,0.0509 -0.73307,0.055 -0.1792,-0.0174 -0.3452,0.0304 -0.51973,0.0607 0,0 -0.19254,-1.10877 -0.19254,-1.10877 l 0,0 c 0.22958,-0.0394 0.45742,-0.094 0.69256,-0.0773 0.17659,0 0.35415,-0.006 0.52905,-0.0326 0.16582,-0.032 0.32532,-0.0923 0.49389,-0.11021 0.12521,-0.0284 0.22943,-0.11413 0.34572,-0.16532 0.1309,-0.0786 0.26602,-0.15023 0.38661,-0.24457 -0.0208,0.0723 0.0337,-0.1239 0.0245,-0.0203 -0.009,0.0917 -0.0633,0.12084 -0.0117,0.17916 -0.003,-0.0514 0.057,0 0.0131,-0.0461 -0.16814,-0.0569 -0.33214,-0.11837 -0.50308,-0.16743 -0.0478,-0.0372 -0.30922,-0.0672 -0.3882,-0.0657 -0.15474,0.006 -0.31122,0.006 -0.46279,0.042 -0.12886,0.038 -0.25486,0.086 -0.38191,0.12638 -0.15972,0.1051 -0.31916,0.21132 -0.46866,0.33087 -0.12375,0.0707 -0.20657,0.19635 -0.3108,0.29036 -0.12231,0.1 -0.21967,0.23002 -0.33642,0.33637 -0.50469,0.40741 -0.0594,0.53534 -1.04118,-0.54308 -0.0131,0.0117 -0.0498,0.0466 -0.0373,0.0353 0.13498,-0.12508 0.27767,-0.24161 0.4372,-0.3348 0.12988,-0.0663 0.26422,-0.13119 0.39108,-0.19711 0.0314,-0.016 0.0496,-0.0686 0.0846,-0.0636 0.0227,0 -0.0284,0.0366 -0.0392,0.0569 -0.0303,0.0569 -0.0102,0.0729 -0.0117,0.14716 0.0356,0.0583 -0.0201,-0.14489 -0.0647,-0.14958 -0.0679,-0.0923 -0.18049,-0.15408 -0.27279,-0.21571 -0.0904,-0.0824 -0.18353,-0.0885 -0.26051,-0.14111 -0.1713,-0.0304 -0.33359,-0.0794 -0.5096,-0.061 -0.19559,1.5e-4 -0.39164,0 -0.58673,0.0146 -0.12202,0.0131 -0.22738,0.0325 -0.32813,0.11049 0.0324,-0.044 0.0582,-0.0867 0.0634,-0.14285 0.001,-0.0217 -0.0117,-0.0849 -0.0131,-0.0631 -7e-4,0.0197 0.004,0.0394 0.006,0.0596 0.016,0.0993 0.0583,0.19249 0.11647,0.27351 0.0676,0.10991 0.0837,0.12084 0.19038,0.20955 0.12609,0.0802 0.25307,0.15797 0.38338,0.23064 0.16162,0.0696 0.31644,0.15038 0.48026,0.21537 0.26307,0.0789 0.52379,0.16054 0.79468,0.21025 0,0 -0.13965,1.11664 -0.13965,1.11664 z"
         id="path4216-1"
         style="opacity:1;fill:#2c89a0;fill-opacity:1" />
    </g>
  </g>
</svg>
