<?xml version="1.0" encoding="UTF-8" standalone="no"?>
<!-- Created with Inkscape (http://www.inkscape.org/) -->

<svg
   xmlns:dc="http://purl.org/dc/elements/1.1/"
   xmlns:cc="http://creativecommons.org/ns#"
   xmlns:rdf="http://www.w3.org/1999/02/22-rdf-syntax-ns#"
   xmlns:svg="http://www.w3.org/2000/svg"
   xmlns="http://www.w3.org/2000/svg"
   xmlns:sodipodi="http://sodipodi.sourceforge.net/DTD/sodipodi-0.dtd"
   xmlns:inkscape="http://www.inkscape.org/namespaces/inkscape"
   width="429.2341"
   height="406.31732"
   viewBox="0 0 429.23411 406.31732"
   id="svg2"
   version="1.1"
   inkscape:version="0.91 r13725"
   sodipodi:docname="miner-claim-fees.svg">
  <defs
     id="defs4">
    <marker
       inkscape:stockid="Arrow1Mend"
       orient="auto"
       refY="0"
       refX="0"
       id="marker6650"
       style="overflow:visible"
       inkscape:isstock="true">
      <path
         id="path6652"
         d="M 0,0 5,-5 -12.5,0 5,5 0,0 Z"
         style="fill:#ff2a2a;fill-opacity:1;fill-rule:evenodd;stroke:#ff2a2a;stroke-width:1pt;stroke-opacity:1"
         transform="matrix(-0.4,0,0,-0.4,-4,0)"
         inkscape:connector-curvature="0" />
    </marker>
    <marker
       inkscape:stockid="Arrow1Mend"
       orient="auto"
       refY="0"
       refX="0"
       id="Arrow1Mend"
       style="overflow:visible"
       inkscape:isstock="true">
      <path
         id="path6306"
         d="M 0,0 5,-5 -12.5,0 5,5 0,0 Z"
         style="fill:#ff2a2a;fill-opacity:1;fill-rule:evenodd;stroke:#ff2a2a;stroke-width:1pt;stroke-opacity:1"
         transform="matrix(-0.4,0,0,-0.4,-4,0)"
         inkscape:connector-curvature="0" />
    </marker>
    <marker
       inkscape:stockid="Arrow1Mend"
       orient="auto"
       refY="0"
       refX="0"
       id="marker6650-2"
       style="overflow:visible"
       inkscape:isstock="true">
      <path
         inkscape:connector-curvature="0"
         id="path6652-6"
         d="M 0,0 5,-5 -12.5,0 5,5 0,0 Z"
         style="fill:#ff2a2a;fill-opacity:1;fill-rule:evenodd;stroke:#ff2a2a;stroke-width:1pt;stroke-opacity:1"
         transform="matrix(-0.4,0,0,-0.4,-4,0)" />
    </marker>
    <marker
       inkscape:stockid="Arrow1Mend"
       orient="auto"
       refY="0"
       refX="0"
       id="marker6650-2-8"
       style="overflow:visible"
       inkscape:isstock="true">
      <path
         inkscape:connector-curvature="0"
         id="path6652-6-7"
         d="M 0,0 5,-5 -12.5,0 5,5 0,0 Z"
         style="fill:#ff2a2a;fill-opacity:1;fill-rule:evenodd;stroke:#ff2a2a;stroke-width:1pt;stroke-opacity:1"
         transform="matrix(-0.4,0,0,-0.4,-4,0)" />
    </marker>
    <marker
       inkscape:stockid="Arrow1Mend"
       orient="auto"
       refY="0"
       refX="0"
       id="marker6650-2-2"
       style="overflow:visible"
       inkscape:isstock="true">
      <path
         inkscape:connector-curvature="0"
         id="path6652-6-0"
         d="M 0,0 5,-5 -12.5,0 5,5 0,0 Z"
         style="fill:#ff2a2a;fill-opacity:1;fill-rule:evenodd;stroke:#ff2a2a;stroke-width:1pt;stroke-opacity:1"
         transform="matrix(-0.4,0,0,-0.4,-4,0)" />
    </marker>
    <marker
       inkscape:stockid="Arrow1Mend"
       orient="auto"
       refY="0"
       refX="0"
       id="marker6650-2-8-4"
       style="overflow:visible"
       inkscape:isstock="true">
      <path
         inkscape:connector-curvature="0"
         id="path6652-6-7-5"
         d="M 0,0 5,-5 -12.5,0 5,5 0,0 Z"
         style="fill:#ff2a2a;fill-opacity:1;fill-rule:evenodd;stroke:#ff2a2a;stroke-width:1pt;stroke-opacity:1"
         transform="matrix(-0.4,0,0,-0.4,-4,0)" />
    </marker>
  </defs>
  <sodipodi:namedview
     id="base"
     pagecolor="#ffffff"
     bordercolor="#666666"
     borderopacity="1.0"
     inkscape:pageopacity="0.0"
     inkscape:pageshadow="2"
     inkscape:zoom="2.8"
     inkscape:cx="244.91039"
     inkscape:cy="136.35641"
     inkscape:document-units="px"
     inkscape:current-layer="g4199"
     showgrid="false"
     units="px"
     inkscape:window-width="1920"
     inkscape:window-height="1032"
     inkscape:window-x="0"
     inkscape:window-y="48"
     inkscape:window-maximized="0"
     fit-margin-top="0"
     fit-margin-left="0"
     fit-margin-right="0"
     fit-margin-bottom="0" />
  <metadata
     id="metadata7">
    <rdf:RDF>
      <cc:Work
         rdf:about="">
        <dc:format>image/svg+xml</dc:format>
        <dc:type
           rdf:resource="http://purl.org/dc/dcmitype/StillImage" />
        <dc:title></dc:title>
      </cc:Work>
    </rdf:RDF>
  </metadata>
  <g
     inkscape:label="Layer 1"
     inkscape:groupmode="layer"
     id="layer1"
     transform="translate(-136.82503,-642.01135)">
    <rect
       style="fill:none;stroke:#000080;stroke-width:10.38145542;stroke-miterlimit:4;stroke-dasharray:none"
       x="180.09039"
       y="726.84692"
       height="306.05069"
       width="306.05069"
       id="rect4-26"
       inkscape:export-filename="/home/greg/projects/learnmeabitcoin/manual/reference/images/candidate-block/candidate-block-blockchain.png"
       inkscape:export-xdpi="90"
       inkscape:export-ydpi="90" />
    <path
       style="fill:none;fill-rule:evenodd;stroke:#806600;stroke-width:4.10912466;stroke-linecap:butt;stroke-linejoin:miter;stroke-miterlimit:4;stroke-dasharray:32.87299634, 4.10912454;stroke-dashoffset:0;stroke-opacity:1"
       d="m 201.5757,758.47105 256.81596,0"
       id="path6200"
       inkscape:connector-curvature="0" />
    <rect
       style="opacity:1;fill:#d4aa00;fill-opacity:1;stroke:none;stroke-width:2;stroke-miterlimit:4;stroke-dasharray:none;stroke-dashoffset:0;stroke-opacity:1"
       id="rect6198"
       width="40.648186"
       height="21.678099"
       x="201.1929"
       y="747.13953"
       ry="10.839049" />
    <path
       style="fill:none;fill-rule:evenodd;stroke:#000000;stroke-width:4.07667017;stroke-linecap:butt;stroke-linejoin:miter;stroke-miterlimit:4;stroke-dasharray:32.61336126, 4.07667017;stroke-dashoffset:0;stroke-opacity:1"
       d="m 204.13839,853.7283 252.77521,0"
       id="path6200-3"
       inkscape:connector-curvature="0" />
    <path
       style="fill:none;fill-rule:evenodd;stroke:#000000;stroke-width:4.09292936;stroke-linecap:butt;stroke-linejoin:miter;stroke-miterlimit:4;stroke-dasharray:32.74343607, 4.0929295;stroke-dashoffset:0;stroke-opacity:1"
       d="m 203.59606,899.0552 254.7956,0"
       id="path6200-5"
       inkscape:connector-curvature="0" />
    <path
       style="fill:none;fill-rule:evenodd;stroke:#000000;stroke-width:4.08480787;stroke-linecap:butt;stroke-linejoin:miter;stroke-miterlimit:4;stroke-dasharray:32.67846331, 4.08480791;stroke-dashoffset:0;stroke-opacity:1"
       d="m 205.0989,946.84556 253.78543,0"
       id="path6200-6"
       inkscape:connector-curvature="0" />
    <path
       style="fill:none;fill-rule:evenodd;stroke:#000000;stroke-width:4.08480787;stroke-linecap:butt;stroke-linejoin:miter;stroke-miterlimit:4;stroke-dasharray:32.67846348, 4.08480794;stroke-dashoffset:0;stroke-opacity:1"
       d="m 205.09894,992.17254 253.78539,0"
       id="path6200-2"
       inkscape:connector-curvature="0" />
    <text
       xml:space="preserve"
       style="font-style:normal;font-weight:normal;font-size:34.14126205px;line-height:125%;font-family:sans-serif;letter-spacing:0px;word-spacing:0px;fill:#000000;fill-opacity:1;stroke:none;stroke-width:1px;stroke-linecap:butt;stroke-linejoin:miter;stroke-opacity:1"
       x="448.99423"
       y="864.76709"
       id="text6235-9"
       sodipodi:linespacing="125%"><tspan
         sodipodi:role="line"
         id="tspan6237-1"
         x="448.99423"
         y="864.76709"
         style="font-style:normal;font-variant:normal;font-weight:normal;font-stretch:normal;font-size:7.3159833px;font-family:sans-serif;-inkscape-font-specification:sans-serif;fill:#aa0000">0.001</tspan></text>
    <text
       xml:space="preserve"
       style="font-style:normal;font-weight:normal;font-size:34.14126205px;line-height:125%;font-family:sans-serif;letter-spacing:0px;word-spacing:0px;fill:#000000;fill-opacity:1;stroke:none;stroke-width:1px;stroke-linecap:butt;stroke-linejoin:miter;stroke-opacity:1"
       x="448.50156"
       y="909.60132"
       id="text6235-9-2"
       sodipodi:linespacing="125%"><tspan
         sodipodi:role="line"
         id="tspan6237-1-7"
         x="448.50156"
         y="909.60132"
         style="font-style:normal;font-variant:normal;font-weight:normal;font-stretch:normal;font-size:7.3159833px;font-family:sans-serif;-inkscape-font-specification:sans-serif;fill:#aa0000">0.001</tspan></text>
    <text
       xml:space="preserve"
       style="font-style:normal;font-weight:normal;font-size:34.14126205px;line-height:125%;font-family:sans-serif;letter-spacing:0px;word-spacing:0px;fill:#000000;fill-opacity:1;stroke:none;stroke-width:1px;stroke-linecap:butt;stroke-linejoin:miter;stroke-opacity:1"
       x="448.00891"
       y="957.3916"
       id="text6235-9-0"
       sodipodi:linespacing="125%"><tspan
         sodipodi:role="line"
         id="tspan6237-1-9"
         x="448.00891"
         y="957.3916"
         style="font-style:normal;font-variant:normal;font-weight:normal;font-stretch:normal;font-size:7.3159833px;font-family:sans-serif;-inkscape-font-specification:sans-serif;fill:#aa0000">0.001</tspan></text>
    <text
       xml:space="preserve"
       style="font-style:normal;font-weight:normal;font-size:34.14126205px;line-height:125%;font-family:sans-serif;letter-spacing:0px;word-spacing:0px;fill:#000000;fill-opacity:1;stroke:none;stroke-width:1px;stroke-linecap:butt;stroke-linejoin:miter;stroke-opacity:1"
       x="448.99417"
       y="1002.2257"
       id="text6235-9-3"
       sodipodi:linespacing="125%"><tspan
         sodipodi:role="line"
         id="tspan6237-1-6"
         x="448.99417"
         y="1002.2257"
         style="font-style:normal;font-variant:normal;font-weight:normal;font-stretch:normal;font-size:7.3159833px;font-family:sans-serif;-inkscape-font-specification:sans-serif;fill:#aa0000">0.001</tspan></text>
    <path
       style="opacity:1;fill:#008000;fill-opacity:1;stroke:none;stroke-width:2;stroke-miterlimit:4;stroke-dasharray:16, 2;stroke-dashoffset:0;stroke-opacity:1"
       id="path8716"
       d="m 252.09218,690.98216 c 2.23508,0.71827 4.47456,1.42604 6.72119,2.11069 1.67882,0.42684 3.3058,0.99221 4.81801,1.837 1.81839,0.81663 3.80524,1.12318 5.65924,1.83317 2.03919,0.67452 3.98175,1.57487 5.99332,2.32014 1.97983,0.65662 3.98082,1.19112 5.87997,2.06062 1.84194,0.63012 3.60666,1.46569 5.33127,2.36955 1.44414,0.64755 2.94134,1.17863 4.3708,1.85873 1.42817,0.56328 2.76925,1.32272 4.0588,2.15946 1.22559,0.77291 2.46904,1.51438 3.60181,2.42089 1.0826,0.6278 1.96359,1.48123 2.86912,2.33575 0.9976,0.78445 1.98559,1.5887 2.89904,2.47129 0.84283,0.7464 1.60994,1.5663 2.46215,2.30361 0.90416,0.88638 1.71916,1.86641 2.76002,2.59867 1.11291,0.95496 2.26205,1.86985 3.32332,2.88281 0.89308,0.80669 1.77526,1.63222 2.60174,2.50811 0.79485,0.78132 1.60441,1.55108 2.36552,2.36643 0.79059,0.78042 1.59824,1.54664 2.3574,2.35884 0.90677,0.75442 1.60477,1.67612 2.3221,2.59945 0.71832,0.95124 1.37484,1.93728 1.99946,2.95432 0.70979,0.91175 1.47755,1.7675 2.12964,2.72537 0.82994,0.91605 1.28035,2.09241 2.04889,3.05003 0.39605,0.56105 0.83154,1.10436 1.32769,1.58106 0,0 -2.23052,2.22142 -2.23052,2.22142 l 0,0 c -0.57566,-0.59202 -1.13214,-1.21329 -1.6011,-1.89452 -0.77092,-1.04029 -1.33335,-2.20879 -2.16148,-3.2076 -0.6553,-1.00672 -1.52377,-1.84417 -2.20066,-2.83652 -0.5606,-0.92752 -1.15108,-1.82071 -1.81104,-2.67932 -0.65032,-0.85748 -1.3026,-1.68596 -2.13965,-2.38229 -0.74225,-0.8276 -1.58098,-1.56703 -2.35881,-2.36037 -0.74005,-0.82639 -1.57613,-1.56546 -2.35464,-2.35465 -0.76921,-0.85106 -1.64312,-1.60864 -2.48333,-2.38721 -0.93973,-0.9275 -2.00574,-1.71733 -2.9868,-2.59996 -1.0929,-0.81196 -2.04218,-1.77205 -2.96951,-2.76518 -0.90119,-0.78229 -1.71595,-1.648 -2.60812,-2.43845 -0.87667,-0.88843 -1.897,-1.6257 -2.85202,-2.42597 -0.85852,-0.81036 -1.66016,-1.60148 -2.70125,-2.18822 -1.02368,-0.86803 -2.23013,-1.48323 -3.34108,-2.22917 -1.16827,-0.78735 -2.39848,-1.44538 -3.70518,-1.95794 -1.44276,-0.72908 -3.01417,-1.1915 -4.4651,-1.90663 -1.66799,-0.89438 -3.38758,-1.66962 -5.17263,-2.29121 -1.82674,-0.84251 -3.76895,-1.32018 -5.67084,-1.97354 -0.95078,-0.35985 -1.85756,-0.86462 -2.80732,-1.20979 -1.07461,-0.39051 -2.22701,-0.59036 -3.24825,-1.13444 -1.94387,-0.82728 -4.15268,-0.98039 -6.03199,-2.01115 -1.3125,-0.73975 -2.73471,-1.19698 -4.19728,-1.57181 -2.35467,-0.72026 -4.70745,-1.44813 -7.04196,-2.228 0,0 1.24006,-2.89347 1.24006,-2.89347 z"
       inkscape:connector-curvature="0" />
    <path
       style="opacity:1;fill:#008000;fill-opacity:1;stroke:none;stroke-width:2;stroke-miterlimit:4;stroke-dasharray:16, 2;stroke-dashoffset:0;stroke-opacity:1"
       id="path8718"
       d="m 318.49365,736.26698 c 1.60121,1.43429 3.11323,2.96477 4.70154,4.41195 0.85985,0.96246 1.81965,1.77867 2.83656,2.55688 0.93886,0.52166 1.61096,1.4153 2.5413,1.93842 0.96556,0.54874 1.73365,1.42575 2.72671,1.92167 -0.86542,-0.81805 -1.23285,1.08063 -1.04903,-0.78041 0.17948,-1.4094 -0.17906,-2.78681 -0.38959,-4.17241 -0.24082,-1.64199 -0.29956,-3.30164 -0.33516,-4.95835 -0.0142,-1.06845 -0.0101,-0.53508 -0.0155,-1.60009 0,0 3.14795,-0.0209 3.14795,-0.0209 l 0,0 c 0.007,1.03727 0.003,0.51929 0.0149,1.55396 0.0323,1.52115 0.0817,3.04534 0.30027,4.55338 0.25057,1.65475 0.63813,3.30641 0.40624,4.98954 -0.2484,2.10879 -1.00837,4.08098 -3.61122,3.18592 -1.00613,-0.58589 -1.88401,-1.34203 -2.84678,-1.99204 -0.99597,-0.63907 -1.82051,-1.48075 -2.81274,-2.12599 -1.07913,-0.84151 -2.12508,-1.69651 -3.03865,-2.72675 -1.54745,-1.42045 -3.03552,-2.90502 -4.59202,-4.31628 0,0 2.0153,-2.41837 2.0153,-2.41837 z"
       inkscape:connector-curvature="0" />
    <path
       style="opacity:1;fill:#008000;fill-opacity:1;stroke:none;stroke-width:2;stroke-miterlimit:4;stroke-dasharray:16, 2;stroke-dashoffset:0;stroke-opacity:1"
       id="path8724"
       d="m 149.45142,644.73011 c -1.49396,0.60394 -2.96139,1.27599 -4.40989,1.98228 -0.76892,0.43957 -1.45768,0.96777 -2.0565,1.61823 -0.62709,0.77319 -1.14399,1.62397 -1.71967,2.43367 -0.51956,0.77841 -0.94426,1.60699 -1.35461,2.44645 -0.45073,0.90991 -0.5811,1.91026 -0.668,2.90855 -0.002,0.72589 0.36006,1.23334 0.751,1.80051 0.44994,0.57402 1.00946,0.97506 1.61904,1.36494 0.69396,0.40749 1.36284,0.74729 2.15386,0.90992 1.11595,0.19209 2.20908,0.47543 3.3341,0.62256 1.03434,0.11525 2.061,0.19681 3.08533,-8.4e-4 0.47309,-0.0758 0.94904,-0.22288 1.33976,-0.50728 0,0 1.27543,2.06016 1.27543,2.06016 l 0,0 c -0.67661,0.39381 -1.38467,0.72483 -2.17163,0.82915 -1.27946,0.23196 -2.55831,0.18123 -3.8469,0.0209 -1.1915,-0.15937 -2.35116,-0.45013 -3.53279,-0.65732 -1.07259,-0.24298 -2.02282,-0.68153 -2.96119,-1.24795 -0.85994,-0.56853 -1.67005,-1.18195 -2.28999,-2.01908 -0.71304,-1.03447 -1.22642,-2.09461 -1.16942,-3.3909 0.11766,-1.29353 0.31915,-2.58264 0.90528,-3.75883 0.47136,-0.96078 0.96551,-1.90744 1.56427,-2.79646 0.64614,-0.88186 1.1973,-1.83436 1.91197,-2.6683 0.80727,-0.86128 1.73079,-1.57764 2.76879,-2.14592 1.48387,-0.72343 2.98808,-1.41014 4.51729,-2.03145 0,0 0.95447,2.22707 0.95447,2.22707 z"
       inkscape:connector-curvature="0" />
    <path
       style="opacity:1;fill:#008000;fill-opacity:1;stroke:none;stroke-width:2;stroke-miterlimit:4;stroke-dasharray:16, 2;stroke-dashoffset:0;stroke-opacity:1"
       id="path8726"
       d="m 160.70476,655.01714 c -1.40816,0.48765 -2.97885,0.92437 -4.01204,2.05863 -0.45957,0.67437 -0.54422,1.43416 -0.41485,2.21616 0.0999,0.69211 0.4318,1.3347 0.91112,1.84267 0.42003,0.64661 1.09549,0.87871 1.76348,1.20213 0.71566,0.30447 1.45278,0.38469 2.21121,0.26193 0.39538,-0.23175 0.65761,-0.62022 0.80375,-1.06371 0.1705,-0.86024 0.32122,-1.78188 0.18067,-2.65516 -0.066,-0.81551 -0.41163,-1.46716 -0.83178,-2.14077 -0.43655,-0.48702 -1.17609,-0.50144 -1.77175,-0.67499 -0.15663,-0.048 -0.31324,-0.0957 -0.46985,-0.14367 0,0 0.70855,-2.31705 0.70855,-2.31705 l 0,0 c 0.15281,0.0466 0.30561,0.0933 0.4584,0.14015 1.18993,0.37457 2.40284,0.55472 3.13053,1.71326 0.60668,0.97271 1.06478,1.9778 1.18175,3.13541 0.12786,1.28301 0.0352,2.5949 -0.33389,3.83521 -0.52396,1.23473 -1.36142,2.20887 -2.70381,2.56846 -1.24777,0.17211 -2.46706,0.0397 -3.62633,-0.48153 -0.94355,-0.46321 -1.92944,-0.898 -2.53943,-1.80149 -0.73712,-0.89486 -1.32061,-1.90197 -1.4705,-3.07303 -0.20687,-1.55223 0.0773,-3.01966 1.08523,-4.263 1.42662,-1.39265 3.25345,-2.15534 5.15187,-2.7103 0,0 0.58767,2.35065 0.58767,2.35065 z"
       inkscape:connector-curvature="0" />
    <path
       style="opacity:1;fill:#008000;fill-opacity:1;stroke:none;stroke-width:2;stroke-miterlimit:4;stroke-dasharray:16, 2;stroke-dashoffset:0;stroke-opacity:1"
       id="path8728"
       d="m 168.25956,654.27657 c 0.0656,1.78061 -0.11838,3.57818 0.0668,5.3522 0.26249,1.11099 0.23596,2.28639 0.51346,3.38947 0,0 -2.3637,0.53275 -2.3637,0.53275 l 0,0 c -0.25673,-1.2168 -0.32416,-2.46866 -0.56172,-3.69121 -0.16587,-1.85507 -0.0385,-3.72257 -0.0779,-5.58321 0,0 2.42296,0 2.42296,0 z"
       inkscape:connector-curvature="0" />
    <path
       style="opacity:1;fill:#008000;fill-opacity:1;stroke:none;stroke-width:2;stroke-miterlimit:4;stroke-dasharray:16, 2;stroke-dashoffset:0;stroke-opacity:1"
       id="path8730"
       d="m 167.47271,644.27271 c -0.22916,0.91867 -0.39959,1.84978 -0.5681,2.78092 0,0 -2.3841,-0.43233 -2.3841,-0.43233 l 0,0 c 0.17862,-0.98314 0.35911,-1.96628 0.60157,-2.93627 0,0 2.35063,0.58768 2.35063,0.58768 z"
       inkscape:connector-curvature="0" />
    <path
       style="opacity:1;fill:#008000;fill-opacity:1;stroke:none;stroke-width:2;stroke-miterlimit:4;stroke-dasharray:16, 2;stroke-dashoffset:0;stroke-opacity:1"
       id="path8732"
       d="m 171.83093,663.5652 c -0.23266,-1.86975 -0.37825,-3.74837 -0.47297,-5.62967 -0.14948,-1.89439 0.21283,-3.09378 1.99707,-3.93479 1.34899,-0.37399 2.43498,0.16253 3.5138,0.91384 0.89703,0.72845 1.39513,1.81634 1.8109,2.87122 0.3563,1.04911 0.35553,2.15747 0.61567,3.22644 0.23011,0.87543 0.32078,1.77548 0.40708,2.67361 0,0 -2.41191,0.23157 -2.41191,0.23157 l 0,0 c -0.0752,-0.78456 -0.14697,-1.57191 -0.35047,-2.3364 -0.23299,-0.97105 -0.28483,-1.95851 -0.52218,-2.92624 -0.22553,-0.6123 -0.5069,-1.26184 -0.9338,-1.75187 -0.38705,-0.26956 -0.73964,-0.57082 -1.20144,-0.66379 -0.85837,0.16507 -0.46288,0.77445 -0.50478,1.57488 0.0912,1.82151 0.23232,3.64036 0.45731,5.45069 0,0 -2.40428,0.30051 -2.40428,0.30051 z"
       inkscape:connector-curvature="0" />
    <path
       style="opacity:1;fill:#008000;fill-opacity:1;stroke:none;stroke-width:2;stroke-miterlimit:4;stroke-dasharray:16, 2;stroke-dashoffset:0;stroke-opacity:1"
       id="path8734"
       d="m 184.53291,642.31188 c -0.22498,1.81032 -0.36608,3.62917 -0.4573,5.45067 -0.0607,1.33917 -0.0674,2.67983 -0.0708,4.02011 -6.9e-4,1.20955 0.003,2.41914 0.003,3.6287 8.6e-4,1.20946 8.6e-4,2.41896 0.003,3.62843 6e-5,1.21141 5e-5,2.4228 3e-5,3.6342 -0.007,1.38023 0.2804,1.2993 -2.42301,0.42977 0,0 0,-0.58475 0,-0.92207 0,-1.16798 0,-2.33596 0,-3.50395 0.0898,-1.22754 0.40726,-2.38475 1.02201,-3.4485 0.92599,-1.17006 2.31459,-1.46702 3.73466,-1.43299 1.30247,0.0929 2.23053,0.77803 3.07497,1.70768 0.84904,0.9826 1.06697,2.22219 1.19299,3.4712 0.15326,1.25382 -0.0311,2.48564 -0.43981,3.67092 -0.51829,1.07938 -1.43293,1.73722 -2.41739,2.35039 -1.14328,0.62469 -2.38454,0.77526 -3.65836,0.60643 -1.15277,-0.13691 -2.14742,-0.70385 -3.03302,-1.42124 -0.10284,-0.0807 -0.20566,-0.16144 -0.30847,-0.24216 0,0 1.4997,-1.9031 1.4997,-1.9031 l 0,0 c 0.12431,0.0983 0.24868,0.19659 0.37304,0.29488 0.49962,0.46664 1.13239,0.78309 1.81053,0.87286 0.7067,0.11258 1.39444,0.0509 2.04847,-0.27233 0.53317,-0.32061 1.0378,-0.62747 1.41294,-1.12613 0.34968,-0.81421 0.37774,-1.72535 0.30086,-2.59486 -0.0674,-0.71995 -0.11724,-1.48448 -0.57517,-2.07789 -0.40995,-0.45149 -0.74726,-0.87476 -1.41521,-0.91738 -0.50511,-0.0731 -1.08565,0.0373 -1.53626,0.2821 -0.45496,0.63168 -0.52904,1.43431 -0.66349,2.18012 0,1.16799 0,2.33595 0,3.50395 0,0.16394 0,0.32788 0,0.49182 0,0.14343 0.13647,0.38634 0,0.43023 -2.7034,0.86937 -2.41601,0.9504 -2.42298,-0.42977 1e-5,-1.21132 4e-5,-2.42263 -5e-5,-3.63393 -1e-4,-1.20883 -2.7e-4,-2.41763 -0.001,-3.62646 -0.001,-1.21227 -0.003,-2.42453 -0.003,-3.63678 0.003,-1.37884 0.0113,-2.7581 0.0738,-4.13576 0.0948,-1.88133 0.24029,-3.75994 0.47297,-5.62969 0,0 2.40426,0.30053 2.40426,0.30053 z"
       inkscape:connector-curvature="0" />
    <path
       style="opacity:1;fill:#008000;fill-opacity:1;stroke:none;stroke-width:2;stroke-miterlimit:4;stroke-dasharray:16, 2;stroke-dashoffset:0;stroke-opacity:1"
       id="path8736"
       d="m 197.42928,657.46159 c -1.29804,0.8158 -2.37514,1.88084 -3.39825,3.00571 -0.63966,0.68208 -0.79906,1.51876 -0.89564,2.41362 0.0141,0.68491 0.38238,1.15995 0.75664,1.69301 0.43706,0.47398 1.12413,0.50437 1.72769,0.57344 0.5448,-0.0351 0.77731,-0.48241 1.09203,-0.86625 0.45145,-0.62863 0.50659,-1.41246 0.574,-2.15916 0.0726,-1.15093 0.0619,-2.30507 0.0603,-3.45769 -5.8e-4,-0.20202 -8.6e-4,-0.40402 -0.003,-0.60601 -5.3e-4,-0.15372 -8.3e-4,-0.30747 -0.003,-0.46119 -4.9e-4,-0.0985 -0.10061,-0.30669 -0.003,-0.29512 2.56202,0.30304 2.42293,-0.48551 2.41994,0.74857 -0.003,1.12745 -8.5e-4,2.25491 -8.5e-4,3.38235 0.14058,0.88254 0.30727,1.7496 0.60143,2.59247 0.27795,0.57635 0.52678,0.83971 1.12534,1.00209 0.73586,0.20595 1.28876,-0.0844 1.86691,-0.48173 0.2426,-0.25623 0.14412,-0.12035 0.30394,-0.40145 0,0 1.97526,1.40332 1.97526,1.40332 l 0,0 c -0.55977,0.73505 -0.252,0.40276 -0.91745,1.00225 -1.21887,0.82131 -2.53762,1.19502 -3.99484,0.77626 -1.2806,-0.46095 -2.12621,-1.23491 -2.64769,-2.50478 -0.38019,-1.09641 -0.61076,-2.23405 -0.73588,-3.3883 -6e-5,-1.12944 -4.2e-4,-2.25888 8.4e-4,-3.38836 0.003,-1.23425 -0.141,-0.49646 2.42524,-0.80484 0.0268,-0.003 0.003,0.0543 0.003,0.0815 0.003,0.16479 0.003,0.6239 0.003,0.73005 7e-4,0.20301 8.6e-4,0.40604 0.003,0.60906 0.003,1.22948 0.0127,2.46075 -0.0709,3.68813 -0.11936,1.23481 -0.32209,2.4655 -1.11313,3.46946 -0.8626,1.05082 -1.81548,1.80394 -3.25772,1.73474 -1.31188,-0.16623 -2.57404,-0.47809 -3.41832,-1.58648 -0.71809,-1.02281 -1.25318,-2.06642 -1.18091,-3.36057 0.16633,-1.39668 0.52568,-2.7095 1.51075,-3.76891 1.19387,-1.31177 2.4685,-2.53979 3.98833,-3.47885 0,0 1.20214,2.10374 1.20214,2.10374 z"
       inkscape:connector-curvature="0" />
    <path
       style="opacity:1;fill:#008000;fill-opacity:1;stroke:none;stroke-width:2;stroke-miterlimit:4;stroke-dasharray:16, 2;stroke-dashoffset:0;stroke-opacity:1"
       id="path8738"
       d="m 211.58752,656.83438 c -0.488,0.14435 -2.65477,0.99063 -2.54026,1.66942 0.16235,0.0683 0.45538,0.54554 0.72065,0.79079 0.48129,0.5597 1.10357,1.01661 1.77687,1.32291 1.13867,0.31361 2.02966,0.89582 2.71023,1.8568 0.66488,1.29802 0.70305,2.58863 0.0915,3.90178 -0.76226,1.2891 -2.09173,1.62052 -3.47776,1.791 -1.19188,0.0725 -2.16911,-0.36911 -3.1483,-0.99137 0,0 1.30246,-2.04316 1.30246,-2.04316 l 0,0 c 0.50593,0.32372 0.92913,0.62691 1.56247,0.62816 0.51908,-0.0572 1.16838,-0.0694 1.57741,-0.4345 0.31833,-0.62534 0.29246,-0.80134 0.0534,-1.54244 -0.25187,-0.6481 -1.18353,-0.71577 -1.73504,-0.98917 -0.9009,-0.45613 -1.77618,-1.0318 -2.44065,-1.80076 -0.89502,-0.94739 -1.60248,-2.00741 -1.2492,-3.3744 0.83624,-1.78039 2.37743,-2.57842 4.20842,-3.13569 0,0 0.58766,2.35063 0.58766,2.35063 z"
       inkscape:connector-curvature="0" />
    <path
       style="opacity:1;fill:#008000;fill-opacity:1;stroke:none;stroke-width:2;stroke-miterlimit:4;stroke-dasharray:16, 2;stroke-dashoffset:0;stroke-opacity:1"
       id="path8740"
       d="m 218.8224,660.85711 c 1.26448,-0.4175 2.5159,-1.09501 3.39366,-2.11553 0.17815,0.10999 0.54652,-1.44219 0.18425,-1.20999 -0.63562,-0.10664 -1.31923,-0.1709 -1.97728,-0.20169 -0.91361,0.0223 -1.93028,-0.18702 -2.77841,0.2475 -0.45684,0.39914 -0.63995,0.75711 -0.77316,1.3456 -0.22609,0.8968 -0.089,1.73978 0.0852,2.62305 0.28433,0.87457 0.6512,1.73955 1.1205,2.53271 0.37363,0.68599 0.85761,1.32979 1.42482,1.8696 0.44994,0.64086 0.98625,0.82705 1.72099,0.95807 0.95386,0.13379 1.90025,0.17112 2.8438,-0.0197 0.60871,-0.22503 0.93426,-0.61403 1.29602,-1.13608 0.41889,-0.49382 0.23818,-0.26216 0.55172,-0.68743 0,0 1.93873,1.45331 1.93873,1.45331 l 0,0 c -0.37856,0.49936 -0.19786,0.28229 -0.53137,0.65991 -0.73339,0.98168 -1.56498,1.7754 -2.79029,2.08828 -1.25247,0.23883 -2.51057,0.21844 -3.77103,0.0201 -1.15789,-0.23672 -2.23043,-0.64188 -2.96881,-1.62014 -0.70177,-0.71676 -1.35079,-1.50224 -1.82276,-2.39167 -0.57092,-1.03421 -1.08486,-2.11362 -1.38966,-3.25899 -0.24273,-1.23418 -0.36612,-2.45056 -0.0551,-3.69188 0.35532,-1.30728 0.99826,-2.31341 2.20603,-2.98862 1.2354,-0.4601 2.50081,-0.51423 3.81048,-0.42381 1.39284,0.0698 2.81259,0.16063 3.84037,1.22617 0.93319,1.5945 0.67244,2.76068 -0.37374,4.23731 -1.25432,1.33311 -2.83431,2.31688 -4.59719,2.8345 0,0 -0.58766,-2.35063 -0.58766,-2.35063 z"
       inkscape:connector-curvature="0" />
    <path
       style="opacity:1;fill:#008000;fill-opacity:1;stroke:none;stroke-width:2;stroke-miterlimit:4;stroke-dasharray:16, 2;stroke-dashoffset:0;stroke-opacity:1"
       id="path8742"
       d="m 153.72163,673.66047 c 0,1.84675 0,3.69346 0,5.54017 0,1.35931 0,2.71862 0,4.07792 0,1.21092 0,2.42184 0,3.63276 0.0311,1.28613 0.019,2.55409 -0.1887,3.82495 -0.11022,0.58533 -0.1874,1.17547 -0.25925,1.76643 0,0 -2.40505,-0.2942 -2.40505,-0.2942 l 0,0 c 0.0768,-0.62452 0.15772,-1.24846 0.27372,-1.86722 0.1907,-1.13892 0.17664,-2.27601 0.15627,-3.42996 0,-1.21092 0,-2.42184 0,-3.63276 0,-1.3593 0,-2.71861 0,-4.07792 0,-1.84671 0,-3.69342 0,-5.54017 0,0 2.42301,0 2.42301,0 z"
       inkscape:connector-curvature="0" />
    <path
       style="opacity:1;fill:#008000;fill-opacity:1;stroke:none;stroke-width:2;stroke-miterlimit:4;stroke-dasharray:16, 2;stroke-dashoffset:0;stroke-opacity:1"
       id="path8744"
       d="m 147.08837,682.65335 c 1.50861,-0.77741 3.13394,-1.30661 4.59691,-2.17217 0.90261,-0.55872 1.88221,-0.98863 2.78698,-1.53984 0.68879,-0.43616 1.34048,-0.87358 2.10303,-1.18268 0,0 0.8759,2.25914 0.8759,2.25914 l 0,0 c -0.65209,0.23069 -1.14966,0.68409 -1.75199,1.01291 -0.9233,0.53024 -1.87916,1.00294 -2.79675,1.54556 -1.5603,0.89432 -3.24947,1.50864 -4.85962,2.30416 0,0 -0.95446,-2.22708 -0.95446,-2.22708 z"
       inkscape:connector-curvature="0" />
    <path
       style="opacity:1;fill:#008000;fill-opacity:1;stroke:none;stroke-width:2;stroke-miterlimit:4;stroke-dasharray:16, 2;stroke-dashoffset:0;stroke-opacity:1"
       id="path8746"
       d="m 158.5676,691.88506 c 0,-1.84673 0,-3.69346 0,-5.54016 0.0245,-1.4072 -0.0678,-2.81763 0.0807,-4.21848 0.39932,-1.75216 1.33181,-2.43019 3.09734,-2.36714 0.84669,0.18739 1.65331,0.43761 2.52136,0.33203 0.20781,-0.11851 0.42167,-0.18083 0.60486,-0.33842 0,0 1.34375,2.01626 1.34375,2.01626 l 0,0 c -0.54315,0.33523 -1.05581,0.61282 -1.69503,0.73185 -1.03371,0.0986 -2.02379,-0.0256 -3.01746,-0.33089 -0.16016,-0.15677 0.11894,0.0911 -0.22039,-0.0484 -0.0142,-0.006 0.0251,-0.17669 0.001,-0.16635 -0.099,0.0428 -0.22496,0.44152 -0.22917,0.45218 -0.17426,1.30052 -0.002,2.629 -0.0642,3.93736 0,1.84673 0,3.69345 0,5.54018 0,0 -2.42298,0 -2.42298,0 z"
       inkscape:connector-curvature="0" />
    <path
       style="opacity:1;fill:#008000;fill-opacity:1;stroke:none;stroke-width:2;stroke-miterlimit:4;stroke-dasharray:16, 2;stroke-dashoffset:0;stroke-opacity:1"
       id="path8748"
       d="m 172.23488,681.64277 c -1.28685,0.99241 -2.32003,2.20045 -2.95173,3.69795 -0.0879,0.31578 -0.65391,1.88779 -0.0585,2.06634 0.58497,0.0891 1.16196,0.2437 1.75851,0.15208 0.64475,-0.0986 1.21851,-0.47574 1.67564,-0.93254 0.35881,-0.60789 0.37568,-1.3542 0.4236,-2.04044 0.0369,-0.80703 0.0439,-1.61554 0.0353,-2.42321 0.80602,0.1034 1.64034,0.0746 2.41802,0.31026 0.0259,0.009 -0.007,1.80007 -0.009,2.59179 -0.089,0.93893 0.0427,1.76387 0.42862,2.60595 0.33993,0.55734 0.64688,0.8211 1.26301,0.98283 0.53065,0.0942 0.25287,0.053 0.83397,0.11908 0,0 -0.29107,2.40544 -0.29107,2.40544 l 0,0 c -0.84169,-0.10619 -0.42145,-0.0364 -1.26053,-0.21036 -1.24843,-0.41489 -2.1319,-1.12104 -2.75136,-2.29486 -0.52232,-1.15743 -0.74293,-2.33569 -0.64563,-3.61015 6e-4,-0.72809 7.5e-4,-1.45622 0.004,-2.18432 7.8e-4,-0.14438 -0.13407,-0.38729 0.003,-0.43314 0.77612,-0.25987 1.61723,-0.2534 2.42585,-0.38013 0.0298,0.89822 -0.0101,1.79898 -0.0398,2.69644 -0.0987,1.31537 -0.26525,2.63682 -1.20078,3.64888 -0.88751,0.78519 -1.88909,1.43011 -3.09671,1.56149 -1.43589,0.0927 -2.89422,-0.0923 -3.95256,-1.16249 -0.94159,-1.54293 -0.7772,-2.7756 -0.18727,-4.43685 0.81466,-1.82861 2.02543,-3.36741 3.62187,-4.59155 0,0 1.55116,1.86139 1.55116,1.86139 z"
       inkscape:connector-curvature="0" />
    <path
       style="opacity:1;fill:#008000;fill-opacity:1;stroke:none;stroke-width:2;stroke-miterlimit:4;stroke-dasharray:16, 2;stroke-dashoffset:0;stroke-opacity:1"
       id="path8750"
       d="m 179.16299,690.67356 c -0.006,-1.85111 -0.0649,-3.69475 0.18374,-5.53237 0.2314,-1.53399 0.47865,-2.58306 1.82526,-3.46544 1.6807,-0.38966 2.31653,0.40555 3.09866,1.73481 0.61427,1.04928 0.78248,2.24261 0.88747,3.43202 0.26852,1.00841 0.45195,2.02935 0.56054,3.06654 -0.0156,0.48588 0.11752,0.93536 0.23076,1.40002 0,0 -2.35543,0.56821 -2.35543,0.56821 l 0,0 c -0.1352,-0.56543 -0.28382,-1.13351 -0.28553,-1.7196 -0.10676,-1.05278 -0.33824,-2.07477 -0.56437,-3.10705 -0.0696,-0.83118 -0.14607,-1.68019 -0.56682,-2.42009 -0.29179,-0.50425 -0.39488,-0.59487 0.1044,-0.8009 0.0219,-0.0403 0.0666,-0.0748 0.0657,-0.12078 -4.9e-4,-0.024 -0.0523,0.007 -0.0677,0.0253 -0.38198,0.4578 -0.42336,1.18553 -0.53241,1.73631 -0.24065,1.7269 -0.15317,3.46295 -0.16126,5.20303 0,0 -2.42298,0 -2.42298,0 z"
       inkscape:connector-curvature="0" />
    <path
       style="opacity:1;fill:#008000;fill-opacity:1;stroke:none;stroke-width:2;stroke-miterlimit:4;stroke-dasharray:16, 2;stroke-dashoffset:0;stroke-opacity:1"
       id="path8752"
       d="m 192.22454,682.85426 c -1.25695,0.84774 -2.33755,1.84625 -2.96769,3.23704 -0.16019,0.62261 -0.0571,0.79643 0.39676,1.13928 0.68323,0.31467 1.4595,0.33342 2.19803,0.37451 1.60673,0.17622 2.53787,0.63854 3.27405,2.12289 0.50701,1.40016 0.37395,2.71665 -0.44496,3.94386 -0.90412,0.89382 -1.98128,1.36709 -3.20701,1.62889 -1.25744,0.21417 -2.51385,0.24308 -3.76658,0.0101 -0.84516,-0.22969 -1.50709,-0.64303 -2.11081,-1.26353 0,0 1.83501,-1.58227 1.83501,-1.58227 l 0,0 c 0.17375,0.20244 0.44972,0.345 0.73241,0.46622 0.93812,0.18658 1.8776,0.14227 2.82363,-0.003 0.64287,-0.12304 1.25077,-0.33274 1.76811,-0.72634 0.4656,-0.18878 0.22096,-1.14342 0.15649,-1.48759 -0.15787,-0.59494 -0.61097,-0.59597 -1.19951,-0.68901 -1.30931,-0.0775 -2.64192,-0.19232 -3.71725,-1.02699 -1.19427,-1.197 -1.50714,-2.30763 -0.92778,-3.94371 0.82167,-1.68434 2.03428,-3.02531 3.60593,-4.06052 0,0 1.55117,1.86138 1.55117,1.86138 z"
       inkscape:connector-curvature="0" />
    <path
       style="opacity:1;fill:#008000;fill-opacity:1;stroke:none;stroke-width:2;stroke-miterlimit:4;stroke-dasharray:16, 2;stroke-dashoffset:0;stroke-opacity:1"
       id="path8754"
       d="m 202.50132,684.093 c -1.24145,0.46353 -2.61529,0.93276 -3.4644,2.00269 -0.38382,0.72775 -0.56849,1.6173 -0.44679,2.43506 0.0881,0.52626 0.27703,1.07097 0.81074,1.26356 0.61016,0.24716 1.07461,0.0774 1.63002,-0.17296 0.37812,-0.4104 0.635,-0.98654 0.83367,-1.516 0.26818,-0.92079 0.28508,-1.8889 0.31268,-2.8405 0.0844,-2.50346 -0.77753,-2.02041 2.43218,-1.58754 0.0257,1.10089 0.0127,2.18072 -0.2013,3.26318 -0.2393,1.01216 -0.32087,2.04798 -0.37188,3.08361 0.14306,0.42666 -0.0205,1.45296 0.53512,1.59093 0.46313,0.0672 1.27021,0.45396 1.66375,0.0885 0,0 0.84687,2.27017 0.84687,2.27017 l 0,0 c -1.38874,0.4255 -2.80298,0.27532 -4.05723,-0.49362 -1.10236,-1.03399 -1.33265,-2.10855 -1.40849,-3.57678 0.0582,-1.15523 0.15319,-2.31051 0.41633,-3.44018 0.19092,-0.9284 0.16285,-1.85727 0.15391,-2.80355 3.1632,-0.47842 2.40634,-0.95261 2.41268,1.67657 -0.0369,1.23223 -0.0807,2.4825 -0.48175,3.66089 -0.45294,1.10995 -1.01743,2.23853 -2.10639,2.8401 -1.25692,0.54878 -2.49754,0.67955 -3.77704,0.0806 -1.19068,-0.71918 -1.89055,-1.76349 -2.05667,-3.16508 -0.10128,-1.50081 0.14193,-2.99121 1.02874,-4.24414 1.26005,-1.39083 2.9264,-2.21196 4.70758,-2.76624 0,0 0.58767,2.35065 0.58767,2.35065 z"
       inkscape:connector-curvature="0" />
    <path
       style="opacity:1;fill:#008000;fill-opacity:1;stroke:none;stroke-width:2;stroke-miterlimit:4;stroke-dasharray:16, 2;stroke-dashoffset:0;stroke-opacity:1"
       id="path8756"
       d="m 212.81993,684.06575 c -1.13911,0.98137 -1.93925,2.2073 -2.42463,3.61912 -0.28635,1.01119 -0.40183,2.04101 -0.20929,3.07333 0.25869,0.50814 0.51944,1.07619 1.03487,1.37122 0.76475,0.2936 1.60261,0.30304 2.41087,0.33421 0.38525,-0.0618 0.24258,0.0127 0.46048,-0.14599 0,0 0.88318,2.25629 0.88318,2.25629 l 0,0 c -0.9556,0.31797 -0.47483,0.21857 -1.4397,0.3108 -1.28615,-0.0523 -2.60345,-0.11655 -3.73849,-0.79467 -0.9682,-0.75353 -1.65553,-1.71956 -1.99732,-2.91078 -0.24612,-1.45073 -0.11979,-2.89422 0.31182,-4.30451 0.65738,-1.81259 1.67421,-3.4106 3.15706,-4.67041 0,0 1.55115,1.86139 1.55115,1.86139 z"
       inkscape:connector-curvature="0" />
    <path
       style="opacity:1;fill:#008000;fill-opacity:1;stroke:none;stroke-width:2;stroke-miterlimit:4;stroke-dasharray:16, 2;stroke-dashoffset:0;stroke-opacity:1"
       id="path8758"
       d="m 217.99394,676.53894 c 0.10574,1.7304 0.51544,3.41182 0.82041,5.11209 0.23422,1.3316 0.29347,2.6829 0.32366,4.03174 0.0174,1.21682 0.0113,2.43383 0.0101,3.65073 -0.003,1.20949 -0.003,2.41899 -0.004,3.6285 -0.0142,1.02279 0.28483,2.01742 0.42696,3.02767 0.0771,0.73227 0.0426,0.39377 0.1044,1.01547 0,0 -2.41114,0.23947 -2.41114,0.23947 l 0,0 c -0.0578,-0.58274 -0.0268,-0.2759 -0.0931,-0.92049 -0.15446,-1.12113 -0.49069,-2.22362 -0.45016,-3.36327 5.8e-4,-1.21074 0.003,-2.4215 0.004,-3.63222 0.003,-1.19739 0.0101,-2.39487 -0.0101,-3.59219 -0.0268,-1.22366 -0.0757,-2.45002 -0.28636,-3.65844 -0.31122,-1.74214 -0.72863,-3.46608 -0.8396,-5.23853 0,0 2.40429,-0.30053 2.40429,-0.30053 z"
       inkscape:connector-curvature="0" />
    <path
       style="opacity:1;fill:#008000;fill-opacity:1;stroke:none;stroke-width:2;stroke-miterlimit:4;stroke-dasharray:16, 2;stroke-dashoffset:0;stroke-opacity:1"
       id="path8760"
       d="m 213.34975,685.11427 c 1.28131,-0.99484 2.58886,-1.97012 3.7805,-3.07325 0.73839,-0.70211 1.46191,-1.33935 2.37926,-1.79593 0,0 1.03381,2.1914 1.03381,2.1914 l 0,0 c -0.71843,0.29872 -1.17995,0.9072 -1.77458,1.38953 -1.22867,1.12028 -2.54782,2.14032 -3.86783,3.14964 0,0 -1.55116,-1.86139 -1.55116,-1.86139 z"
       inkscape:connector-curvature="0" />
    <path
       style="opacity:1;fill:#008000;fill-opacity:1;stroke:none;stroke-width:2;stroke-miterlimit:4;stroke-dasharray:16, 2;stroke-dashoffset:0;stroke-opacity:1"
       id="path8762"
       d="m 225.19979,685.16967 c 0,1.84671 0,3.69347 0,5.54017 0,1.35931 0,2.71862 0,4.07794 0.0205,0.12601 0.0411,0.25211 0.0618,0.37818 0,0 -2.40144,0.32255 -2.40144,0.32255 l 0,0 c -0.0277,-0.23359 -0.0553,-0.46715 -0.0833,-0.70073 0,-1.35932 0,-2.71863 0,-4.07794 0,-1.8467 0,-3.69346 0,-5.54017 0,0 2.423,0 2.423,0 z"
       inkscape:connector-curvature="0" />
    <path
       style="opacity:1;fill:#008000;fill-opacity:1;stroke:none;stroke-width:2;stroke-miterlimit:4;stroke-dasharray:16, 2;stroke-dashoffset:0;stroke-opacity:1"
       id="path8764"
       d="m 225.80554,677.29496 c 0,0.61992 0,1.23986 0,1.85978 0,0 -2.42299,0 -2.42299,0 l 0,0 c 0,-0.61992 0,-1.23986 0,-1.85978 0,0 2.42299,0 2.42299,0 z"
       inkscape:connector-curvature="0" />
    <path
       style="opacity:1;fill:#008000;fill-opacity:1;stroke:none;stroke-width:2;stroke-miterlimit:4;stroke-dasharray:16, 2;stroke-dashoffset:0;stroke-opacity:1"
       id="path8766"
       d="m 231.41356,686.30402 c -0.74587,1.38751 -1.39953,2.83634 -1.53408,4.41817 -0.0542,0.72216 0.13661,1.41922 0.6337,1.95546 0.58987,0.31743 1.29831,0.332 1.952,0.37593 0.89295,-0.0639 0.7952,-0.18889 1.2336,-0.78499 0.37692,-0.57003 0.4672,-1.1924 0.37553,-1.85146 -0.11201,-0.76879 -0.47798,-1.47806 -0.8261,-2.16652 -0.41548,-0.51278 -0.74882,-1.14401 -1.33187,-1.48845 -0.39028,-0.28365 -0.87543,-0.76407 -1.40574,-0.69775 0,0 0.25079,-2.40998 0.25079,-2.40998 l 0,0 c 0.95552,0.14473 1.81488,0.46633 2.54588,1.12373 0.86446,0.64254 1.536,1.46399 2.10322,2.37909 0.4763,0.94198 0.9337,1.92508 1.07081,2.98194 0.13111,1.27723 -0.0892,2.49033 -0.83058,3.56494 -0.92716,1.26064 -1.7677,1.75459 -3.35521,1.76651 -1.34435,-0.0976 -2.69173,-0.26552 -3.67919,-1.2854 -0.81853,-1.08985 -1.28402,-2.30808 -1.14857,-3.69639 0.20148,-1.92184 0.90312,-3.70292 1.84207,-5.38695 0,0 2.10374,1.20212 2.10374,1.20212 z"
       inkscape:connector-curvature="0" />
    <path
       style="opacity:1;fill:#008000;fill-opacity:1;stroke:none;stroke-width:2;stroke-miterlimit:4;stroke-dasharray:16, 2;stroke-dashoffset:0;stroke-opacity:1"
       id="path8768"
       d="m 237.31473,694.30805 c 0,-1.84673 0,-3.69346 0,-5.54018 -0.017,-1.66128 0.0724,-2.89001 1.38769,-4.02918 1.32185,-0.66713 2.44079,-0.0113 3.43604,0.86546 0.6851,0.76147 1.16743,1.65412 1.66041,2.54293 0.49001,0.83997 0.77863,1.76615 1.17105,2.64762 0.33895,0.92434 0.79327,1.78788 1.07955,2.73225 0.0428,0.19809 0.0858,0.39618 0.12869,0.59428 0,0 -2.37134,0.49772 -2.37134,0.49772 l 0,0 c -0.0271,-0.13563 -0.0543,-0.27131 -0.0815,-0.40695 -0.24205,-0.85881 -0.69986,-1.62834 -0.98643,-2.47204 -0.33663,-0.81842 -0.61272,-1.6525 -1.06138,-2.42207 -0.36513,-0.66566 -0.72089,-1.3323 -1.18297,-1.93372 -0.14973,-0.15641 -0.34991,-0.32621 -0.50212,-0.4449 -0.0403,-0.0315 -0.16144,-0.0177 -0.13944,-0.0639 0.0458,-0.0961 0.26722,-0.0141 0.26853,-0.17287 0.0192,-0.68746 -0.8284,2.57759 -0.38387,2.06528 0,1.84675 0,3.69346 0,5.54019 0,0 -2.42298,0 -2.42298,0 z"
       inkscape:connector-curvature="0" />
    <path
       style="fill:none;fill-rule:evenodd;stroke:#000000;stroke-width:4.06034565;stroke-linecap:butt;stroke-linejoin:miter;stroke-miterlimit:4;stroke-dasharray:32.48276535, 4.06034568;stroke-dashoffset:0;stroke-opacity:1"
       d="m 205.21889,807.90011 250.75487,0"
       id="path6200-3-4"
       inkscape:connector-curvature="0" />
    <text
       xml:space="preserve"
       style="font-style:normal;font-weight:normal;font-size:34.14126205px;line-height:125%;font-family:sans-serif;letter-spacing:0px;word-spacing:0px;fill:#000000;fill-opacity:1;stroke:none;stroke-width:1px;stroke-linecap:butt;stroke-linejoin:miter;stroke-opacity:1"
       x="449.04074"
       y="820.40082"
       id="text6235-9-7"
       sodipodi:linespacing="125%"><tspan
         sodipodi:role="line"
         id="tspan6237-1-8"
         x="449.04074"
         y="820.40082"
         style="font-style:normal;font-variant:normal;font-weight:normal;font-stretch:normal;font-size:7.3159833px;font-family:sans-serif;-inkscape-font-specification:sans-serif;fill:#aa0000">0.001</tspan></text>
    <g
       id="g4199"
       transform="translate(-1.4285714,0)">
      <path
         sodipodi:nodetypes="cccccc"
         inkscape:connector-curvature="0"
         id="path6291"
         d="m 509.31138,862.5966 0.0648,-45.64601 0,230.40261 -344.87881,0 0.71429,-290.42942 58.23947,0.2959"
         style="fill:none;fill-rule:evenodd;stroke:#ff2a2a;stroke-width:1.95092905px;stroke-linecap:butt;stroke-linejoin:miter;stroke-opacity:1;marker-end:url(#Arrow1Mend)" />
      <path
         inkscape:connector-curvature="0"
         id="path6609"
         d="m 483.99192,906.93816 24.75268,0"
         style="fill:none;fill-rule:evenodd;stroke:#ff2a2a;stroke-width:1.59675336px;stroke-linecap:butt;stroke-linejoin:miter;stroke-opacity:1;marker-start:url(#marker6650)" />
      <path
         inkscape:connector-curvature="0"
         id="path6609-1"
         d="m 483.85933,955.18476 24.7527,0"
         style="fill:none;fill-rule:evenodd;stroke:#ff2a2a;stroke-width:1.59675336px;stroke-linecap:butt;stroke-linejoin:miter;stroke-opacity:1;marker-start:url(#marker6650-2)" />
      <path
         inkscape:connector-curvature="0"
         id="path6609-1-9"
         d="m 483.85933,862.31877 24.7527,0"
         style="fill:none;fill-rule:evenodd;stroke:#ff2a2a;stroke-width:1.59675336px;stroke-linecap:butt;stroke-linejoin:miter;stroke-opacity:1;marker-start:url(#marker6650-2-8)" />
      <path
         inkscape:connector-curvature="0"
         id="path6609-1-2"
         d="m 484.25284,999.65027 24.75269,0"
         style="fill:none;fill-rule:evenodd;stroke:#ff2a2a;stroke-width:1.59675336px;stroke-linecap:butt;stroke-linejoin:miter;stroke-opacity:1;marker-start:url(#marker6650-2-2)" />
      <path
         inkscape:connector-curvature="0"
         id="path6609-1-9-0"
         d="m 484.39673,817.73761 24.75271,0"
         style="fill:none;fill-rule:evenodd;stroke:#ff2a2a;stroke-width:1.59675336px;stroke-linecap:butt;stroke-linejoin:miter;stroke-opacity:1;marker-start:url(#marker6650-2-8-4)" />
      <path
         style="opacity:1;fill:#ff0000;fill-opacity:1;stroke:none;stroke-width:3.5;stroke-miterlimit:4;stroke-dasharray:none;stroke-dashoffset:0;stroke-opacity:1"
         id="path4211"
         d="m 520.8046,918.25537 c 0.13033,-0.89934 0.13853,-1.81138 0.26732,-2.7099 0.12304,-0.60736 0.19961,-1.21906 0.37635,-1.81372 0.11285,-0.50088 0.23338,-0.99969 0.34796,-1.50071 0.16839,-0.611 0.38777,-1.20592 0.56446,-1.81409 0.10791,-0.57278 0.21807,-1.144 0.33445,-1.71574 0.0502,-0.55105 0.23183,-1.07388 0.34284,-1.61276 0.17356,-0.5617 0.29124,-1.13482 0.48053,-1.6914 0.19629,-0.56331 0.53939,-1.0501 0.83101,-1.56411 0.27583,-0.46521 0.63931,-0.86169 0.98224,-1.2752 0.35223,-0.4119 0.83948,-0.6417 1.28438,-0.92738 0.45454,-0.29528 0.99054,-0.38308 1.49514,-0.55298 0.51732,-0.22207 1.09788,-0.16208 1.63058,-0.29399 0.34211,-0.0937 0.69074,-0.1546 1.04121,-0.20611 0,0 0.25496,1.76813 0.25496,1.76813 l 0,0 c -0.31877,0.0448 -0.6338,0.10615 -0.94502,0.18956 -0.47001,0.0854 -0.95362,0.0887 -1.41184,0.23549 -0.37962,0.12774 -0.78259,0.19145 -1.13461,0.3849 -0.29068,0.17297 -0.59941,0.32138 -0.84836,0.55309 -0.27936,0.32849 -0.56975,0.64519 -0.79894,1.01309 -0.23885,0.41336 -0.51578,0.80437 -0.68974,1.25153 -0.16655,0.48806 -0.26196,0.9925 -0.42336,1.483 -0.11433,0.53564 -0.28973,1.05419 -0.34068,1.6024 -0.12701,0.62074 -0.23935,1.24196 -0.3706,1.86132 -0.16958,0.57372 -0.36964,1.13744 -0.5377,1.71175 -0.12446,0.53836 -0.25111,1.07457 -0.3774,1.61209 -0.15461,0.51286 -0.20615,1.0448 -0.32141,1.56822 -0.14265,0.88 -0.11511,1.78376 -0.26114,2.6651 0,0 -1.77263,-0.22158 -1.77263,-0.22158 z"
         inkscape:connector-curvature="0" />
      <path
         style="opacity:1;fill:#ff0000;fill-opacity:1;stroke:none;stroke-width:3.5;stroke-miterlimit:4;stroke-dasharray:none;stroke-dashoffset:0;stroke-opacity:1"
         id="path4213"
         d="m 524.93347,908.09626 c 0.82267,0.30593 1.67575,0.51001 2.54255,0.63897 0.58464,0.0432 1.18909,0.15196 1.77404,0.0661 0.514,-0.0472 0.9832,-0.25681 1.47782,-0.38828 0.0427,-0.0186 0.0854,-0.0372 0.12802,-0.0557 0,0 0.6446,1.66607 0.6446,1.66607 l 0,0 c -0.10709,0.0394 -0.21417,0.0787 -0.32126,0.11811 -0.57864,0.14714 -1.13011,0.39785 -1.73464,0.43562 -0.74464,0.0689 -1.49324,0.0165 -2.23471,-0.0754 -0.98953,-0.15063 -1.96449,-0.38164 -2.90367,-0.73279 0,0 0.62725,-1.67268 0.62725,-1.67268 z"
         inkscape:connector-curvature="0" />
      <path
         style="opacity:1;fill:#ff0000;fill-opacity:1;stroke:none;stroke-width:3.5;stroke-miterlimit:4;stroke-dasharray:none;stroke-dashoffset:0;stroke-opacity:1"
         id="path4215"
         d="m 536.1208,906.41514 c 0.68093,-0.11024 1.31489,-0.34441 1.9282,-0.64995 0.24221,-0.14055 0.22949,-0.36787 0.26103,-0.62321 0.0438,-0.53531 0.0324,-1.07333 0.0288,-1.60988 -0.13221,-0.60248 -0.0299,-0.33193 -0.15193,-0.30064 -0.33922,-0.0935 -0.64357,-0.0204 -0.9771,0.0448 -0.30801,0.0967 -0.43763,0.30386 -0.64697,0.53193 -0.24618,0.32594 -0.41941,0.69698 -0.61863,1.05181 -0.19996,0.3186 -0.23555,0.68642 -0.26839,1.05212 -0.0312,0.47302 -0.0604,0.94145 0.0362,1.40634 0.0537,0.29177 0.16911,0.59846 0.38977,0.80722 0.20403,0.2943 0.52491,0.46133 0.81776,0.65866 0.37742,0.18314 0.73803,0.40622 1.14408,0.5218 0.46561,0.10322 0.9455,0.10766 1.42017,0.11672 0.37581,-0.0582 0.92566,0.14192 1.2596,-0.10371 0.26794,-0.12994 0.5143,-0.3355 0.71212,-0.56114 0.0665,-0.0614 0.13308,-0.12293 0.19962,-0.18439 0,0 1.2021,1.32146 1.2021,1.32146 l 0,0 c -0.0374,0.0332 -0.0749,0.0663 -0.11237,0.0994 -0.38872,0.39194 -0.81296,0.76424 -1.32839,0.97941 -0.64018,0.23119 -1.28949,0.27656 -1.96755,0.23503 -0.64083,-0.0127 -1.28814,-0.0288 -1.91127,-0.19557 -0.56813,-0.18195 -1.09747,-0.45647 -1.61654,-0.74767 -0.42576,-0.28703 -0.87713,-0.56544 -1.18382,-0.987 -0.37934,-0.47467 -0.68254,-1.00243 -0.77757,-1.61273 -0.12257,-0.63737 -0.11744,-1.27664 -0.0624,-1.92252 0.061,-0.62013 0.16749,-1.23617 0.49963,-1.77644 0.27941,-0.45721 0.48612,-0.96513 0.85128,-1.36848 0.46212,-0.5007 0.93172,-0.92333 1.61979,-1.0757 0.68718,-0.13354 1.36325,-0.18424 2.0339,0.0716 0.85968,0.43048 1.15753,0.98451 1.22324,1.92581 0.004,0.62733 0.0177,1.25694 -0.0478,1.88184 -0.13275,0.83326 -0.44913,1.5495 -1.23283,1.96263 -0.79366,0.39424 -1.62255,0.68638 -2.50221,0.82309 0,0 -0.22158,-1.77262 -0.22158,-1.77262 z"
         inkscape:connector-curvature="0" />
      <path
         style="opacity:1;fill:#ff0000;fill-opacity:1;stroke:none;stroke-width:3.5;stroke-miterlimit:4;stroke-dasharray:none;stroke-dashoffset:0;stroke-opacity:1"
         id="path4217"
         d="m 545.67807,906.24402 c 0.727,0.18161 1.48155,0.32182 2.2312,0.22079 0.47216,-0.033 0.87483,-0.19023 1.2751,-0.42172 0.30487,-0.1247 0.5258,-0.27963 0.63151,-0.59185 0.0291,-0.21187 0.21347,-0.66424 0.0158,-0.84351 -0.0898,-0.18016 -0.18972,-0.40588 -0.40546,-0.44889 -0.36226,-0.10107 -0.718,-0.0833 -1.08308,-0.0264 -0.34552,0.0518 -0.72537,0.15245 -0.98442,0.40298 -0.2025,0.22614 -0.35212,0.53928 -0.49996,0.80933 -0.14801,0.34979 -0.16075,0.73699 -0.18147,1.11104 -0.0405,0.43361 0.0123,0.85631 0.15692,1.26689 0.14411,0.42642 0.36578,0.82409 0.58076,1.21931 0.20656,0.30382 0.46604,0.56123 0.71006,0.83444 0.28376,0.26889 0.6135,0.48074 0.97293,0.63311 0.3977,0.10794 0.84951,0.2413 1.26378,0.1664 0.38058,-0.0595 0.71079,-0.26784 1.03041,-0.47233 0.43896,-0.27326 0.87436,-0.55026 1.31896,-0.81557 0,0 0.91163,1.5363 0.91163,1.5363 l 0,0 c -0.43241,0.25466 -0.85342,0.52321 -1.27771,0.79033 -0.56302,0.35152 -1.15396,0.66899 -1.82599,0.74076 -0.73191,0.0444 -1.46508,-0.0476 -2.15204,-0.31587 -0.5855,-0.27043 -1.13556,-0.6111 -1.58269,-1.08255 -0.32473,-0.37812 -0.6857,-0.72677 -0.93906,-1.16222 -0.26798,-0.49394 -0.53643,-0.99583 -0.71337,-1.53047 -0.18809,-0.62191 -0.30364,-1.2586 -0.23806,-1.91129 0.0382,-0.64322 0.10098,-1.29289 0.40279,-1.87488 0.27267,-0.48714 0.54631,-0.97217 0.96547,-1.35294 0.54128,-0.39734 1.14326,-0.6852 1.81953,-0.75994 0.71914,-0.10269 1.43553,-0.0903 2.11991,0.18424 0.60493,0.32138 1.05252,0.78305 1.30283,1.431 0.23695,0.73757 0.22835,1.46764 -0.0564,2.19723 -0.29792,0.62242 -0.71718,1.13845 -1.37029,1.41247 -0.61556,0.35492 -1.26353,0.5849 -1.97653,0.65076 -0.96347,0.0902 -1.92178,-0.007 -2.85632,-0.26379 0,0 0.43327,-1.73309 0.43327,-1.73309 z"
         inkscape:connector-curvature="0" />
      <path
         style="opacity:1;fill:#ff0000;fill-opacity:1;stroke:none;stroke-width:3.5;stroke-miterlimit:4;stroke-dasharray:none;stroke-dashoffset:0;stroke-opacity:1"
         id="path4219"
         d="m 560.56087,904.01945 c -0.80133,-0.13052 -1.59723,-0.1576 -2.40379,-0.0899 -0.23585,0.0666 -0.5705,0.12358 -0.69496,0.34234 -0.16878,0.24443 -0.26133,0.58003 -0.31219,0.87696 -0.0296,0.20587 -0.0238,0.50014 0.15935,0.64061 0.2091,0.28479 0.45265,0.55696 0.72104,0.78941 0.29517,0.21228 0.61633,0.38381 0.93616,0.55917 0.46256,0.18801 0.87799,0.47267 1.2593,0.79118 0.5148,0.35292 0.75789,0.91792 0.982,1.47573 0.23784,0.66719 0.32995,1.37048 0.29356,2.07494 -0.0588,0.66749 -0.40273,1.21866 -0.83136,1.71048 -0.40197,0.5483 -1.00028,0.78029 -1.64176,0.91214 -0.70034,0.12904 -1.37578,0.0911 -2.04479,-0.14562 -0.53566,-0.25604 -0.95557,-0.66896 -1.39912,-1.04999 0,0 1.17315,-1.34723 1.17315,-1.34723 l 0,0 c 0.29091,0.2556 0.56938,0.52661 0.89269,0.73988 0.26381,0.2163 0.74009,0.0444 1.04138,0.0485 0.30549,-0.05 0.47915,-0.0869 0.66251,-0.36588 0.18624,-0.16628 0.3287,-0.39981 0.36647,-0.6436 0.072,-0.41939 -0.0708,-0.87221 -0.17356,-1.27572 -0.12543,-0.32342 -0.19291,-0.59538 -0.49635,-0.78822 -0.26079,-0.26342 -0.61985,-0.41671 -0.94904,-0.57356 -0.44117,-0.24573 -0.88204,-0.48844 -1.27821,-0.80524 -0.35593,-0.3345 -0.70222,-0.68856 -0.98283,-1.08955 -0.38453,-0.60639 -0.59049,-1.26293 -0.44628,-1.9874 0.12083,-0.61269 0.34123,-1.17161 0.69481,-1.68984 0.52035,-0.56197 1.1556,-0.87823 1.92063,-0.97988 0.9291,-0.076 1.85005,-0.0489 2.77277,0.0977 0,0 -0.22158,1.77263 -0.22158,1.77263 z"
         inkscape:connector-curvature="0" />
    </g>
  </g>
</svg>
